<?xml version="1.0" encoding="UTF-8" standalone="no"?>
<!-- Created with Inkscape (http://www.inkscape.org/) -->

<svg
   width="26.640676mm"
   height="5.6556759mm"
   viewBox="0 0 26.640676 5.655676"
   version="1.1"
   id="svg5"
   inkscape:version="1.1.1 (3bf5ae0d25, 2021-09-20)"
   sodipodi:docname="about.svg"
   xmlns:inkscape="http://www.inkscape.org/namespaces/inkscape"
   xmlns:sodipodi="http://sodipodi.sourceforge.net/DTD/sodipodi-0.dtd"
   xmlns="http://www.w3.org/2000/svg"
   xmlns:svg="http://www.w3.org/2000/svg">
  <sodipodi:namedview
     id="namedview7"
     pagecolor="#ffffff"
     bordercolor="#666666"
     borderopacity="1.0"
     inkscape:pageshadow="2"
     inkscape:pageopacity="0.0"
     inkscape:pagecheckerboard="0"
     inkscape:document-units="mm"
     showgrid="false"
     fit-margin-top="0"
     fit-margin-left="0"
     fit-margin-right="0"
     fit-margin-bottom="0"
     inkscape:zoom="1.4289282"
     inkscape:cx="-51.087243"
     inkscape:cy="-110.22248"
     inkscape:window-width="1920"
     inkscape:window-height="991"
     inkscape:window-x="-9"
     inkscape:window-y="-9"
     inkscape:window-maximized="1"
     inkscape:current-layer="layer1" />
  <defs
     id="defs2" />
  <g
     inkscape:label="Capa 1"
     inkscape:groupmode="layer"
     id="layer1"
     transform="translate(0.01315468,-0.18389816)">
    <path
       style="fill:#414141;fill-opacity:1;stroke-width:0.0221082"
       d="M 22.214847,5.8213481 C 21.95781,5.7704003 21.642495,5.545156 21.490262,5.3037395 21.419135,5.1909482 21.322179,4.9569839 21.279028,4.7940199 c -0.03362,-0.1269587 -0.02906,-0.3486142 0.01028,-0.5004476 0.03052,-0.1177734 0.03052,-0.1358787 0,-0.1794494 -0.03878,-0.05537 -0.04489,-0.1979378 -0.01118,-0.2609289 0.02876,-0.053731 0.134686,-0.1093167 0.208322,-0.1093167 0.0436,0 0.07952,-0.031369 0.158184,-0.1381767 0.05597,-0.075997 0.120741,-0.1729971 0.143923,-0.2155556 0.135157,-0.2481146 0.322896,-0.4537893 0.479771,-0.52561 0.108358,-0.049607 0.12636,-0.051772 0.221271,-0.026609 0.210374,0.055775 0.552727,0.2788144 0.649972,0.4234498 0.03315,0.049305 0.06681,0.1244998 0.0748,0.1670994 0.02499,0.1332236 -0.0072,0.348703 -0.07088,0.4743661 -0.07439,0.1467903 -0.311158,0.3832033 -0.481178,0.4804436 -0.120713,0.069041 -0.146418,0.074826 -0.37584,0.084589 -0.186654,0.00794 -0.280515,0.00151 -0.387757,-0.026599 -0.170826,-0.044765 -0.184489,-0.03351 -0.173269,0.1427173 0.0127,0.199572 0.117895,0.4321854 0.26147,0.578218 0.210957,0.2145647 0.385913,0.2559428 0.683377,0.1616227 0.262768,-0.083318 0.318075,-0.1155809 0.525233,-0.3063927 0.162584,-0.1497556 0.192024,-0.1681489 0.269128,-0.1681489 0.173438,0 0.290651,0.1786879 0.214198,0.326532 -0.05287,0.1022339 -0.361463,0.3719948 -0.522632,0.4568615 -0.333368,0.1755412 -0.66861,0.2427282 -0.941375,0.188664 z m 0.216791,-1.8514407 c 0.158003,-0.073512 0.36568,-0.3667884 0.316303,-0.4466805 -0.02282,-0.036936 -0.27145,-0.1994066 -0.305142,-0.1994066 -0.01702,0 -0.04624,0.01741 -0.06494,0.03869 -0.04941,0.056243 -0.402101,0.5893852 -0.398541,0.6024503 0.01401,0.051449 0.344597,0.055064 0.452319,0.00495 z m -5.834294,1.6950983 c -0.15292,-0.044237 -0.266402,-0.3646258 -0.175597,-0.4957531 0.07368,-0.106396 0.09619,-1.0339165 0.04433,-1.8260091 -0.02075,-0.3168747 0.005,-0.5360722 0.07245,-0.6162084 0.102998,-0.1224065 0.297277,-0.1015113 0.370369,0.039834 0.05201,0.1005725 0.121462,0.6130149 0.125065,0.9227561 6.99e-4,0.060238 0.0085,0.1493177 0.01724,0.1979558 l 0.01597,0.088433 0.109878,-0.1457439 c 0.06043,-0.080159 0.181564,-0.2405687 0.269179,-0.3564654 0.235598,-0.3116476 0.328789,-0.3786988 0.564906,-0.4064494 0.112067,-0.013171 0.124476,-0.00967 0.199757,0.056432 0.108483,0.095249 0.152633,0.1722123 0.247915,0.4321698 0.04457,0.1215955 0.108934,0.2897621 0.143034,0.3737034 l 0.062,0.1526207 0.195874,-0.1974918 c 0.340411,-0.3432221 0.744661,-0.6706684 0.909661,-0.736834 0.04668,-0.018717 0.117014,-0.024552 0.196756,-0.016322 0.105066,0.010844 0.137469,0.025723 0.211172,0.096971 0.115653,0.1118017 0.206791,0.2964799 0.250329,0.5072613 0.01957,0.094754 0.04936,0.2128526 0.0662,0.2624422 0.05986,0.1763228 0.140747,0.5557233 0.16356,0.7672056 0.04665,0.432435 0.02133,0.5798881 -0.111347,0.648498 -0.114262,0.059087 -0.234606,0.031764 -0.335232,-0.076112 -0.07774,-0.083343 -0.08297,-0.097747 -0.08297,-0.2285884 0,-0.091941 0.01202,-0.1568086 0.0352,-0.1898996 0.04344,-0.062013 0.02819,-0.2286678 -0.0479,-0.5233402 -0.159765,-0.6187964 -0.191069,-0.7313551 -0.208292,-0.7489573 -0.04502,-0.046012 -0.408925,0.2560787 -0.848888,0.7046938 -0.16664,0.1699169 -0.267255,0.255494 -0.312073,0.2654299 -0.03638,0.00806 -0.07991,0.019007 -0.09675,0.024316 -0.06374,0.020104 -0.183767,-0.021089 -0.247678,-0.084999 -0.07289,-0.072886 -0.148048,-0.2100145 -0.216231,-0.3944983 -0.02434,-0.065845 -0.07116,-0.1893585 -0.104046,-0.2744753 -0.03289,-0.085117 -0.07204,-0.1885116 -0.08701,-0.2297661 L 17.966965,3.582807 17.74854,3.8592563 c -0.120135,0.1520469 -0.279854,0.3552607 -0.35493,0.4515865 -0.130034,0.1668369 -0.330191,0.3693313 -0.412041,0.4168528 -0.0331,0.019217 -0.03932,0.072255 -0.0476,0.4055856 -0.01059,0.4269053 -0.02317,0.4690804 -0.15655,0.5248082 -0.08405,0.03512 -0.08277,0.035071 -0.180089,0.00692 z M 26.06979,5.1385115 c -0.102167,-0.091285 -0.100454,-0.2088554 0.0057,-0.389099 0.143425,-0.2435975 0.318598,-0.2660489 0.475233,-0.060909 0.153139,0.2005591 0.06943,0.426944 -0.181525,0.4908968 -0.152663,0.038905 -0.22043,0.02965 -0.299376,-0.040888 z M 9.6706365,5.1381317 C 9.5672565,5.1065706 9.4309875,5.0271566 9.3558935,4.9547067 9.0307915,4.6410501 8.8512855,4.2067995 8.7754575,3.5505451 c -0.02001,-0.1732098 -0.04565,-0.3472468 -0.05699,-0.3867487 -0.03705,-0.1291718 -0.02503,-0.2063988 0.04354,-0.2798037 0.05346,-0.057233 0.08078,-0.068663 0.164115,-0.068663 0.161102,0 0.2217,0.066982 0.264383,0.2922376 0.01908,0.1006994 0.04686,0.3024747 0.06172,0.4483892 0.04816,0.4728061 0.21793,0.879368 0.446703,1.069775 0.175033,0.1456778 0.3028885,-0.1018585 0.4041075,-0.7823675 0.01989,-0.1337551 0.0312,-0.3000662 0.02513,-0.3695805 -0.02797,-0.3201639 0.12132,-0.4659598 0.370518,-0.3618389 0.108635,0.045391 0.152682,0.1233539 0.135151,0.2392167 -0.0078,0.05184 -0.01903,0.1439975 -0.02486,0.2047952 -0.03373,0.3517015 -0.119737,0.8524503 -0.172781,1.0059262 -0.09447,0.2733443 -0.303882,0.5267809 -0.4744085,0.5741445 -0.09286,0.025792 -0.210769,0.026644 -0.291152,0.00211 z M 0.12646647,5.0491597 c -0.214436,-0.1307489 -0.172774,-0.4637171 0.06273,-0.5013763 0.07047,-0.011269 0.09929,-0.031604 0.148757,-0.104953 0.03374,-0.050037 0.07478,-0.1257965 0.0912,-0.1683549 0.0743,-0.1926398 0.21193,-0.4850298 0.275771,-0.585869 0.08821,-0.1393266 0.32138203,-0.5513766 0.32138203,-0.5679234 0,-0.00682 -0.0835,-0.016784 -0.18556203,-0.022141 -0.21991,-0.011542 -0.287895,-0.047027 -0.324559,-0.1694013 -0.0215,-0.071758 -0.01941,-0.09832 0.01312,-0.1668753 0.06472,-0.1363963 0.126548,-0.1540323 0.435502,-0.1242345 0.14566303,0.014049 0.27026103,0.020122 0.27688703,0.013497 0.03022,-0.030219 0.123782,-0.2917419 0.194503,-0.5436627 0.04267,-0.1519943 0.09227,-0.3260969 0.110224,-0.3868946 0.01796,-0.060798 0.05366,-0.1851568 0.07935,-0.2763534 0.06068,-0.2154436 0.120326,-0.3305566 0.271171,-0.52334396 0.183217,-0.2341588 0.372884,-0.3076189 0.536559,-0.2078154 0.09383,0.057214 0.205289,0.2242116 0.241655,0.36206736 0.01638,0.062075 0.0488,0.1386013 0.07206,0.1700594 0.03901,0.052762 0.0771,0.1359244 0.197478,0.4311694 0.02479,0.060798 0.09982,0.2647465 0.166742,0.4532194 0.06692,0.1884731 0.146427,0.4123192 0.176685,0.497436 0.03026,0.085117 0.08683,0.2641938 0.125715,0.3979488 0.03888,0.133755 0.0887,0.2929345 0.110697,0.3537322 0.04249,0.1174395 0.09823,0.2843915 0.135088,0.4045888 0.0123,0.040131 0.05605,0.1304295 0.09722,0.2006641 0.158015,0.2696109 0.199144,0.4486499 0.132618,0.5772953 -0.07756,0.1499939 -0.231575,0.1757691 -0.383345,0.064156 -0.116404,-0.085605 -0.161797,-0.1709197 -0.155515,-0.2922826 0.0037,-0.071001 -0.0097,-0.1155331 -0.05429,-0.1812056 -0.03254,-0.047889 -0.05917,-0.09923 -0.05917,-0.1140914 0,-0.020997 -0.262358,-0.8406719 -0.276362,-0.8634281 -0.0018,-0.00293 -0.06023,0.00951 -0.129837,0.027635 -0.203175,0.05292 -0.664065,0.043786 -1.19665,-0.023716 l -0.110552,-0.01401 -0.115841,0.2287928 c -0.06371,0.1258357 -0.160906,0.3034077 -0.215986,0.3946044 -0.112616,0.1864629 -0.24316803,0.4489227 -0.32990603,0.6632479 -0.06345,0.1567777 -0.195146,0.3603132 -0.31995,0.4944819 -0.13618,0.1463978 -0.284488,0.1832744 -0.415591,0.1033362 z M 2.7172695,2.74442 c 0.106225,-0.028411 0.11354,-0.038982 0.07579,-0.1095269 -0.01321,-0.024684 -0.0864,-0.2254914 -0.162635,-0.4462388 -0.07624,-0.2207471 -0.197987,-0.5195654 -0.27055,-0.6640404 l -0.131933,-0.2626819 -0.0464,0.058984 c -0.04944,0.062857 -0.08887,0.1838814 -0.270803,0.8311662 -0.06322,0.2249515 -0.129039,0.4428637 -0.146252,0.4842493 -0.01721,0.041385 -0.02868,0.077589 -0.02548,0.080452 0.0032,0.00286 0.09038,0.014872 0.193737,0.026687 0.273479,0.031261 0.669403,0.03174 0.784526,9.507e-4 z m 2.233253,2.216959 C 4.7979875,4.8894557 4.6965755,4.7709881 4.5515595,4.4953195 4.4760465,4.3517734 4.3980425,4.1811805 4.3782175,4.1162242 4.2379155,3.656546 4.2009615,2.9230452 4.2736965,2.0415404 c 0.03801,-0.4607035 0.06987,-0.7778381 0.09215,-0.9174931 0.04215,-0.26409796 0.04961,-0.47728616 0.02091,-0.59693076 -0.03367,-0.1403412 -0.01777,-0.21777 0.05939,-0.2892841 0.06921,-0.064141 0.212868,-0.07259 0.291986,-0.017173 0.02844,0.019917 0.0758,0.090695 0.105244,0.1572836 0.04904,0.1108794 0.05242,0.139933 0.04026,0.3451545 -0.0073,0.1232461 -0.022,0.2688531 -0.03264,0.32357106 -0.03651,0.1876065 -0.06651,0.4538351 -0.110848,0.9838177 -0.04588,0.5484691 -0.05381,0.8639361 -0.02953,1.1758018 l 0.01408,0.1809299 0.06331,-0.063307 c 0.03482,-0.034819 0.11774,-0.089939 0.18427,-0.1224889 0.217819,-0.1065685 0.748588,-0.099458 0.958103,0.012835 0.04437,0.02378 0.0917,0.043237 0.105173,0.043237 0.04276,0 0.208347,0.2157313 0.267076,0.3479572 0.05184,0.1167225 0.05578,0.1469354 0.04713,0.3614053 -0.0088,0.2192516 -0.01454,0.2433161 -0.0902,0.3809636 -0.162117,0.2949358 -0.328313,0.4641929 -0.553688,0.5638868 -0.223448,0.098842 -0.598745,0.1235203 -0.755363,0.049671 z m 0.595769,-0.5001362 c 0.113819,-0.05836 0.212943,-0.1702781 0.3018,-0.3407545 0.06,-0.1151173 0.05233,-0.3262645 -0.01454,-0.4001545 -0.08668,-0.095779 -0.163537,-0.1189475 -0.396649,-0.1195702 -0.199111,-5.359e-4 -0.232546,0.00545 -0.336416,0.060208 -0.06343,0.033439 -0.136217,0.060798 -0.161739,0.060798 -0.05659,0 -0.133596,-0.03921 -0.169918,-0.086517 -0.0372,-0.048456 -0.03513,-0.026597 0.01834,0.1931413 0.04809,0.1976462 0.20436,0.5321209 0.303841,0.6503461 0.05451,0.064781 0.06003,0.066252 0.199819,0.053199 0.08905,-0.00832 0.186265,-0.035218 0.255457,-0.070695 z m 6.0759065,0.3985045 c -0.07161,-0.071613 -0.07705,-0.086158 -0.06667,-0.1782425 0.0068,-0.060074 0.03049,-0.1206901 0.05917,-0.1512166 0.04282,-0.045579 0.04919,-0.083305 0.06042,-0.3578828 0.01095,-0.2677999 -6.06e-4,-0.5034745 -0.05278,-1.0769372 -0.0095,-0.1045428 -0.02059,-0.1324389 -0.05868,-0.1478024 -0.05968,-0.024066 -0.541498,-0.1039037 -0.787127,-0.1304271 -0.169638,-0.018318 -0.193282,-0.02676 -0.248718,-0.088803 -0.09807,-0.1097569 -0.06935,-0.2858647 0.0577,-0.353862 0.07135,-0.038183 0.319386,-0.022607 0.684639,0.042992 0.144074,0.025875 0.267917,0.041081 0.275207,0.03379 0.01253,-0.01253 -0.01325,-0.2293512 -0.06846,-0.5756265 -0.01357,-0.085117 -0.02509,-0.2476071 -0.0256,-0.3610893 -9.32e-4,-0.2055552 -6.99e-4,-0.2065742 0.07127,-0.2708263 0.09394,-0.083912 0.218002,-0.088495 0.30767,-0.011366 0.05519,0.047471 0.06344,0.072778 0.0775,0.2376639 0.01631,0.1911635 0.04689,0.4275117 0.08254,0.6377546 0.01134,0.066877 0.02134,0.1931365 0.02223,0.2805756 9.32e-4,0.087439 0.01089,0.1647181 0.02224,0.1717307 0.02087,0.012896 0.07725,0.026118 0.377318,0.088483 0.0912,0.018954 0.22053,0.045839 0.287407,0.059743 0.06688,0.013905 0.167734,0.023077 0.224125,0.020383 0.08721,-0.00417 0.114378,0.00551 0.181856,0.064752 0.1364,0.1197606 0.150197,0.2872556 0.03187,0.3868254 -0.08216,0.069135 -0.196635,0.071955 -0.445784,0.010983 -0.221496,-0.054205 -0.597822,-0.1302242 -0.606235,-0.1224617 -0.0034,0.00315 0.0059,0.079202 0.02076,0.1690178 0.03848,0.2331499 0.03874,1.3065228 3.04e-4,1.4234724 -0.06658,0.2028022 -0.149793,0.2763533 -0.312653,0.2763533 -0.07759,0 -0.106875,-0.013314 -0.171538,-0.077976 z M 7.4819175,4.7195017 C 7.3561845,4.6778702 7.2399335,4.6027982 7.1792265,4.5240295 7.0150135,4.3109631 6.8867245,4.0625652 6.8847775,3.9539054 c -6.99e-4,-0.036479 -0.015798,-0.085637 -0.03365,-0.1092399 -0.114387,-0.1512323 0.119642,-0.4444805 0.53883,-0.6751749 0.291728,-0.1605505 0.581193,-0.2158985 0.776173,-0.1484117 0.04598,0.015914 0.113049,0.071636 0.168977,0.140385 0.236362,0.2905476 0.257303,0.6939505 0.05809,1.1190539 -0.09146,0.1951687 -0.176416,0.2780375 -0.401729,0.3918549 -0.106774,0.053937 -0.405539,0.08157 -0.509557,0.047129 z m 0.318366,-0.475843 c 0.164583,-0.068767 0.291864,-0.375596 0.252173,-0.6078927 -0.02245,-0.1313662 -0.07475,-0.1865654 -0.161028,-0.1699271 -0.08986,0.01733 -0.334745,0.1395174 -0.437146,0.2181174 -0.0743,0.057033 -0.08291,0.07406 -0.08291,0.1641012 0,0.094062 0.06447,0.2395749 0.160837,0.3630405 0.04996,0.063999 0.160648,0.077444 0.26807,0.032561 z M 26.030751,2.8358884 c -0.16067,-0.056204 -0.221083,-0.1260565 -0.221083,-0.2556291 0,-0.1312969 0.08885,-0.2292033 0.208011,-0.2292033 0.07925,0 0.247817,0.033935 0.337999,0.068046 0.1087,0.041116 0.160463,0.2188811 0.09782,0.3359318 -0.0676,0.1263092 -0.213198,0.1541566 -0.422746,0.080854 z"
       id="path1107" />
  </g>
</svg>
