<?xml version="1.0" encoding="UTF-8" standalone="no"?>
<!-- Created with Inkscape (http://www.inkscape.org/) -->

<svg
   width="39.251152mm"
   height="12.718646mm"
   viewBox="0 0 39.251152 12.718646"
   version="1.1"
   id="svg5"
   inkscape:version="1.1.1 (3bf5ae0d25, 2021-09-20)"
   sodipodi:docname="favourite-movies.svg"
   xmlns:inkscape="http://www.inkscape.org/namespaces/inkscape"
   xmlns:sodipodi="http://sodipodi.sourceforge.net/DTD/sodipodi-0.dtd"
   xmlns="http://www.w3.org/2000/svg"
   xmlns:svg="http://www.w3.org/2000/svg">
  <sodipodi:namedview
     id="namedview7"
     pagecolor="#ffffff"
     bordercolor="#666666"
     borderopacity="1.0"
     inkscape:pageshadow="2"
     inkscape:pageopacity="0.0"
     inkscape:pagecheckerboard="0"
     inkscape:document-units="mm"
     showgrid="false"
     fit-margin-top="0"
     fit-margin-left="0"
     fit-margin-right="0"
     fit-margin-bottom="0"
     inkscape:zoom="0.71446409"
     inkscape:cx="-264.53394"
     inkscape:cy="49.687592"
     inkscape:window-width="1920"
     inkscape:window-height="991"
     inkscape:window-x="-9"
     inkscape:window-y="-9"
     inkscape:window-maximized="1"
     inkscape:current-layer="layer1" />
  <defs
     id="defs2" />
  <g
     inkscape:label="Capa 1"
     inkscape:groupmode="layer"
     id="layer1"
     transform="translate(-175.0853,-135.5893)">
    <path
       style="fill:#000000;stroke-width:0.0325942"
       d="m 202.56254,148.2712 c -0.0435,-0.0222 -0.11218,-0.10313 -0.15272,-0.17995 -0.0611,-0.11571 -0.0679,-0.15638 -0.0398,-0.23699 0.0405,-0.11616 0.091,-0.14557 0.29584,-0.17227 0.18222,-0.0237 0.29622,0.019 0.34692,0.13034 0.0611,0.13422 0.0417,0.19993 -0.10489,0.35284 -0.14699,0.15339 -0.21277,0.1736 -0.34535,0.10603 z m -12.83991,-0.16561 c -0.0731,-0.0777 -0.0747,-0.0943 -0.0718,-0.74305 0.002,-0.36495 -0.0126,-0.81755 -0.0315,-1.00578 -0.0189,-0.18823 -0.0473,-0.48892 -0.0632,-0.66818 -0.0159,-0.17927 -0.0592,-0.56063 -0.0963,-0.84746 -0.0371,-0.28683 -0.0815,-0.75606 -0.0986,-1.04273 -0.0303,-0.508 -0.0293,-0.5231 0.0381,-0.59485 0.14827,-0.15783 0.44893,-0.0486 0.44893,0.16318 0,0.0473 0.0145,0.15633 0.0322,0.24236 0.0177,0.0861 0.0624,0.3911 0.0994,0.67794 0.0736,0.57139 0.46486,2.58145 0.5116,2.62818 0.0171,0.0172 0.0994,-0.0574 0.19979,-0.18113 0.22317,-0.27506 0.42538,-0.4099 0.61466,-0.4099 0.31914,0 0.49653,0.20117 0.66106,0.74966 0.10849,0.3617 0.16039,0.47432 0.26455,0.57411 0.12943,0.12399 0.13155,0.30419 0.005,0.4039 -0.23292,0.18322 -0.57128,-0.12328 -0.70307,-0.6369 -0.07,-0.27284 -0.18471,-0.56926 -0.22026,-0.56926 -0.0164,0 -0.0924,0.0696 -0.16878,0.15459 -0.25532,0.28431 -0.62697,0.62786 -0.70051,0.64755 -0.0401,0.0108 -0.11667,0.005 -0.17035,-0.0145 l -0.0976,-0.034 0.003,0.19735 c 0.004,0.25676 -0.0686,0.36486 -0.25308,0.37879 -0.10128,0.008 -0.14381,-0.007 -0.20284,-0.0698 z m 8.78383,0.009 c -0.0586,-0.0461 -0.0859,-0.0985 -0.0859,-0.16512 0,-0.25477 0.15087,-0.33499 0.75782,-0.40292 0.11399,-0.0128 0.18741,-0.0365 0.18741,-0.0607 0,-0.0324 -0.31072,-0.533 -0.65313,-1.05221 -0.12965,-0.19659 -0.19432,-0.42405 -0.19432,-0.68344 0,-0.23786 0.005,-0.25163 0.11083,-0.35819 0.0923,-0.0923 0.13444,-0.11074 0.2526,-0.11028 0.1862,8.4e-4 0.38982,0.11523 0.42241,0.23759 0.0384,0.14406 -0.0246,0.27495 -0.15479,0.32205 -0.17095,0.0618 -0.16243,0.0826 0.36523,0.89027 0.36647,0.56093 0.44939,0.73902 0.42885,0.9212 -0.0309,0.27398 -0.20423,0.36095 -0.83843,0.42062 -0.11652,0.011 -0.25146,0.0399 -0.29987,0.0643 -0.12207,0.0615 -0.1986,0.0555 -0.29873,-0.0232 z m -5.51838,-0.0738 c -0.0908,-0.0832 -0.1196,-0.13586 -0.12267,-0.22427 -0.002,-0.0636 -0.0249,-0.14081 -0.0506,-0.17172 -0.10543,-0.12703 -0.0681,-0.78751 0.0666,-1.17906 0.16974,-0.49332 0.49158,-0.61835 0.90226,-0.35051 0.13369,0.0872 0.19282,0.15516 0.27287,0.31376 0.099,0.1961 0.10173,0.21295 0.0873,0.5369 -0.0135,0.30532 -0.0255,0.35593 -0.1368,0.58115 -0.19546,0.39547 -0.45443,0.6002 -0.76124,0.60177 -0.11267,4.3e-4 -0.16146,-0.0199 -0.25765,-0.10802 z m 0.43152,-0.5187 c 0.22118,-0.26166 0.29898,-0.70393 0.15726,-0.89395 -0.1073,-0.14387 -0.16074,-0.13323 -0.2251,0.0448 -0.0663,0.18345 -0.111,0.95507 -0.0554,0.95507 0.0185,0 0.0739,-0.0476 0.12317,-0.10594 z m 1.98487,0.37071 c -0.26318,-0.11956 -0.4841,-0.42112 -0.94612,-1.29149 -0.0856,-0.16135 -0.18991,-0.32836 -0.23168,-0.37113 -0.15414,-0.15786 -0.039,-0.46019 0.1751,-0.45991 0.12516,1.2e-4 0.2971,0.11149 0.3395,0.21982 0.12843,0.32805 0.57522,1.13352 0.7206,1.29912 0.12143,0.1383 0.15671,0.11685 0.24793,-0.15068 l 0.0609,-0.17869 -0.0939,-0.18538 c -0.22544,-0.44463 -0.28569,-1.04457 -0.12236,-1.21843 0.0506,-0.0539 0.11,-0.0793 0.18562,-0.0793 h 0.11118 l -0.0842,-0.15078 c -0.13137,-0.23505 -0.10462,-0.39973 0.0751,-0.46238 0.14613,-0.051 0.29301,0.0376 0.40316,0.24317 0.16492,0.30775 0.24069,1.16462 0.14059,1.59015 l -0.0455,0.19345 0.12353,0.18138 c 0.15027,0.22065 0.24508,0.30967 0.29619,0.27809 0.0914,-0.0565 0.2561,-0.50216 0.279,-0.75481 0.0197,-0.21701 0.036,-0.26663 0.11306,-0.34371 0.24084,-0.24084 0.61979,0.026 0.4408,0.31035 -0.025,0.0397 -0.0553,0.1555 -0.0672,0.25732 -0.0263,0.22266 -0.21036,0.67331 -0.3441,0.84217 -0.16738,0.21134 -0.42589,0.2829 -0.66061,0.18288 -0.0577,-0.0246 -0.17188,-0.11139 -0.25374,-0.1929 l -0.14884,-0.1482 -0.0575,0.10668 c -0.0729,0.13555 -0.34484,0.34453 -0.44695,0.34359 -0.0429,-3.7e-4 -0.13712,-0.0276 -0.20944,-0.0605 z m -13.51075,-0.26298 c -0.12584,-0.0383 -0.3267,-0.17587 -0.4613,-0.31614 -0.18606,-0.1939 -0.2916,-0.46452 -0.31138,-0.79836 -0.0219,-0.37012 0.006,-0.49532 0.13898,-0.6435 0.15251,-0.1688 0.59504,-0.37497 0.80487,-0.37497 0.086,0 0.15601,-0.008 0.15565,-0.0181 -3.7e-4,-0.01 -0.0138,-0.10618 -0.0299,-0.21374 -0.0161,-0.10757 -0.0522,-0.34958 -0.0803,-0.53781 -0.15349,-1.02891 -0.27847,-2.18124 -0.24602,-2.2684 0.0723,-0.19402 0.31559,-0.24289 0.45709,-0.0918 0.0724,0.0772 0.079,0.11094 0.079,0.39927 0,0.17321 0.0266,0.51293 0.0591,0.75493 0.10049,0.74776 0.18321,1.33493 0.24908,1.76786 0.0918,0.60306 0.10929,0.9134 0.0718,1.26957 -0.0567,0.53963 -0.20857,0.89787 -0.44035,1.03921 -0.10553,0.0643 -0.2952,0.078 -0.44643,0.032 z m 0.31283,-0.72598 c 0.0359,-0.10554 0.0641,-0.30459 0.0727,-0.51441 l 0.0139,-0.34224 -0.17443,0.003 c -0.22315,0.003 -0.46832,0.10947 -0.49451,0.21461 -0.0256,0.10245 0.0221,0.40686 0.0865,0.55349 0.0676,0.15369 0.30148,0.33096 0.38075,0.28853 0.0311,-0.0166 0.0829,-0.1077 0.11519,-0.20239 z m -3.53025,0.39713 c -0.0883,-0.0354 -0.12107,-0.11001 -0.17151,-0.38924 -0.0269,-0.14955 -0.0652,-0.24192 -0.13104,-0.31691 -0.11796,-0.13434 -0.16349,-0.28549 -0.18461,-0.61281 -0.0154,-0.23745 -0.0105,-0.26644 0.0536,-0.32432 0.0422,-0.0381 0.11719,-0.0636 0.18708,-0.0636 0.14119,0 0.23655,0.0972 0.32228,0.32846 0.032,0.0865 0.0624,0.16275 0.0676,0.16953 0.006,0.007 0.0797,-0.0328 0.16573,-0.0881 0.20095,-0.12895 0.3753,-0.20134 0.48492,-0.20134 0.33689,0 0.66413,0.29602 0.94526,0.85505 0.0968,0.19244 0.17593,0.37746 0.17593,0.4112 0,0.11563 -0.12512,0.23309 -0.2483,0.23309 -0.14819,0 -0.24836,-0.1015 -0.37189,-0.37682 -0.0893,-0.19902 -0.27275,-0.46486 -0.38666,-0.56026 -0.0785,-0.0658 -0.1379,-0.0491 -0.38365,0.10777 l -0.23258,0.1485 0.0467,0.20029 c 0.0559,0.23974 0.0354,0.35943 -0.0765,0.44754 -0.0901,0.0709 -0.14773,0.0779 -0.26227,0.0318 z m 7.92109,-0.03 c -0.0954,-0.0895 -0.12302,-0.20847 -0.0752,-0.32383 0.0619,-0.14942 0.16247,-0.17466 0.72743,-0.18254 0.28273,-0.004 0.51976,-0.013 0.52673,-0.02 0.007,-0.007 -0.1118,-0.10821 -0.26389,-0.22474 -0.48524,-0.37174 -0.74275,-0.60261 -0.80132,-0.71844 -0.0354,-0.0701 -0.0569,-0.18663 -0.0569,-0.30827 1.2e-4,-0.3108 0.16756,-0.5092 0.64135,-0.76001 0.22066,-0.11681 0.76016,-0.20061 1.00085,-0.15547 0.23583,0.0442 0.32494,0.27119 0.16807,0.42804 -0.0711,0.0712 -0.10805,0.08 -0.33409,0.0804 -0.3272,4.2e-4 -0.53851,0.0583 -0.76676,0.20989 -0.1999,0.13273 -0.23706,0.18716 -0.18904,0.2769 0.0293,0.0546 0.54471,0.46426 0.96871,0.76981 0.39001,0.28105 0.4033,0.61172 0.0328,0.81631 -0.15968,0.0882 -0.19941,0.0949 -0.69093,0.1166 -0.28683,0.0127 -0.58751,0.0322 -0.66819,0.0435 -0.12157,0.0169 -0.15915,0.009 -0.2196,-0.048 z m -8.9068,-0.1197 c -0.3927,-0.0592 -0.67234,-0.14716 -0.9636,-0.30324 l -0.23023,-0.12337 -0.0531,0.0924 c -0.0892,0.15547 -0.23903,0.22395 -0.49017,0.22409 -0.21912,1.2e-4 -0.22312,-0.002 -0.38776,-0.1547 -0.0915,-0.0852 -0.19321,-0.21349 -0.22604,-0.28521 -0.0738,-0.16121 -0.0796,-0.47725 -0.0122,-0.66818 0.0269,-0.0762 0.0489,-0.20076 0.0489,-0.27675 0,-0.16028 0.0865,-0.29186 0.21258,-0.3235 0.24516,-0.0615 0.66394,0.21927 0.89515,0.60025 0.11701,0.19281 0.19082,0.273 0.34935,0.37961 0.24956,0.16779 0.6169,0.29121 1.01564,0.34124 0.22936,0.0287 0.32578,0.056 0.38809,0.10961 0.11318,0.0974 0.1092,0.26598 -0.009,0.36738 -0.0969,0.0833 -0.11468,0.0841 -0.53793,0.0202 z m -1.62384,-0.71283 c 0.0303,-0.0664 0.0258,-0.10244 -0.0247,-0.1961 -0.0373,-0.0694 -0.0791,-0.10806 -0.10563,-0.0979 -0.0242,0.009 -0.0629,0.0168 -0.0863,0.0168 -0.0563,0 -0.0872,0.12613 -0.0486,0.19831 0.0909,0.16986 0.20786,0.20465 0.26518,0.0788 z m 26.18062,-0.53255 c -0.0352,-0.0329 -0.0916,-0.14018 -0.12491,-0.23838 -0.0536,-0.15776 -0.0554,-0.18968 -0.0149,-0.27397 0.15038,-0.31377 0.55033,-0.12635 0.55033,0.25788 0,0.12035 -0.0177,0.17189 -0.0799,0.2343 -0.0958,0.0958 -0.23983,0.10461 -0.33047,0.0201 z m -27.09722,-4.60636 c -0.0679,-0.0633 -0.0737,-0.0904 -0.0569,-0.2689 0.0102,-0.1092 0.0501,-0.26952 0.0885,-0.3563 0.0656,-0.14799 0.0698,-0.20866 0.0687,-0.97783 -8.7e-4,-0.82046 -0.0291,-1.31668 -0.10874,-1.92825 -0.0244,-0.18733 -0.0411,-0.61935 -0.0394,-1.01583 0.003,-0.68304 0.004,-0.6917 0.0923,-0.87244 0.15232,-0.31136 0.12039,-0.30554 1.53442,-0.27956 0.72462,0.0133 0.75213,0.0162 0.82302,0.087 0.0969,0.0968 0.0962,0.25188 -0.002,0.34959 -0.10508,0.10507 -0.40575,0.12957 -1.03168,0.0841 -0.2788,-0.0202 -0.5876,-0.032 -0.6862,-0.026 l -0.17927,0.0109 -0.041,0.37483 c -0.0418,0.3818 -0.0365,0.49383 0.0699,1.49934 l 0.0362,0.34225 0.29336,-0.003 c 0.16134,-0.002 0.54362,-0.0131 0.84952,-0.0257 l 0.55616,-0.0229 0.0876,0.0812 c 0.11712,0.10854 0.11765,0.25507 8.8e-4,0.36288 -0.0763,0.0707 -0.11879,0.0806 -0.36669,0.086 -0.50964,0.0111 -0.70053,0.0189 -1.04641,0.0431 l -0.34223,0.0239 -8.8e-4,0.91683 c -8.7e-4,0.8618 -0.006,0.92562 -0.0697,1.06349 -0.0376,0.0807 -0.0777,0.19731 -0.0888,0.25918 -0.0435,0.24037 -0.27915,0.34288 -0.44118,0.19194 z m 38.18233,-0.11188 c -0.34452,-0.0665 -0.49896,-0.13482 -0.55648,-0.24605 -0.0817,-0.15822 0.018,-0.35394 0.18049,-0.35394 0.0476,0 0.20616,0.0302 0.35236,0.0672 0.14621,0.037 0.32134,0.0626 0.38918,0.057 0.10987,-0.009 0.12237,-0.019 0.11425,-0.0911 -0.008,-0.0745 -0.18141,-0.25526 -0.86044,-0.89898 -0.25857,-0.24511 -0.45167,-0.52478 -0.49064,-0.71062 -0.0306,-0.14601 -0.0266,-0.18701 0.0311,-0.31749 0.052,-0.11741 0.0976,-0.16496 0.21092,-0.21984 0.20645,-0.0999 0.39401,-0.0937 0.48023,0.0159 0.11861,0.15079 0.0667,0.30131 -0.14571,0.42255 -0.0593,0.0339 -0.0552,0.0458 0.0742,0.21724 0.0753,0.0998 0.22178,0.2519 0.32542,0.33804 0.10366,0.0862 0.33159,0.3026 0.50652,0.48102 0.34503,0.35191 0.3939,0.44636 0.39254,0.75868 -0.002,0.43151 -0.3628,0.60422 -1.00394,0.4804 z m -18.46469,-0.0792 c -0.44579,-0.0779 -0.8184,-0.37183 -1.05265,-0.83047 -0.12557,-0.24585 -0.13398,-0.28017 -0.14716,-0.60056 -0.0167,-0.40851 0.0234,-0.61214 0.18766,-0.94812 0.13086,-0.26777 0.34818,-0.60316 0.44594,-0.6882 0.0335,-0.0292 0.13423,-0.0916 0.22372,-0.13854 0.38047,-0.19982 0.72454,-0.0414 0.85042,0.39167 0.0699,0.24047 0.0348,0.32031 -0.27905,0.63442 -0.27918,0.27941 -0.43124,0.3547 -0.58654,0.29039 -0.19643,-0.0814 -0.20083,-0.34894 -0.008,-0.46444 0.0486,-0.029 0.15358,-0.11976 0.23344,-0.20164 0.1096,-0.11241 0.13597,-0.15808 0.10759,-0.18646 -0.12816,-0.12817 -0.57704,0.53129 -0.65736,0.96576 -0.0585,0.31625 -0.0452,0.43874 0.0748,0.68588 0.20075,0.41376 0.51341,0.61111 0.96432,0.60869 0.39412,-0.002 0.81741,-0.17021 0.90737,-0.36034 0.10382,-0.21938 0.33458,-0.26143 0.45193,-0.0823 0.0482,0.0735 0.0504,0.10819 0.017,0.2684 -0.0465,0.22364 -0.14173,0.31643 -0.49524,0.48273 -0.39649,0.18652 -0.82169,0.24597 -1.23858,0.17316 z m 5.43511,-0.27871 c -0.10394,-0.0564 -0.0986,-0.0331 -0.10455,-0.45397 -0.005,-0.30739 -0.07,-0.78463 -0.14803,-1.07562 -0.0192,-0.0716 -0.0626,-0.32105 -0.0964,-0.5541 -0.0687,-0.47356 -0.0554,-0.55215 0.10727,-0.63009 0.0729,-0.035 0.11105,-0.036 0.18554,-0.006 0.13022,0.054 0.18702,0.15448 0.26271,0.465 0.0836,0.34301 0.2548,0.86521 0.29097,0.88757 0.029,0.0179 0.26032,-0.20252 0.26032,-0.24804 0,-0.0669 0.60544,-0.72565 0.75995,-0.82689 0.11952,-0.0783 0.34537,-0.0799 0.44695,-0.003 0.0453,0.0342 0.1407,0.15142 0.21198,0.26038 0.11792,0.18029 0.20227,0.34169 0.45196,0.86474 0.0466,0.0977 0.0849,0.16167 0.0849,0.14209 0,-0.0601 0.37352,-0.60422 0.52506,-0.76477 0.0787,-0.0833 0.18873,-0.2044 0.24445,-0.2689 0.0843,-0.0976 0.1226,-0.11715 0.22817,-0.11655 0.23359,8.8e-4 0.37166,0.18529 0.48603,0.64751 0.0489,0.1978 0.0808,0.42082 0.0808,0.56535 0,0.19723 0.0112,0.24823 0.0644,0.29372 0.10448,0.0895 0.11365,0.20024 0.0295,0.35694 -0.12243,0.22807 -0.18853,0.28699 -0.32199,0.28699 -0.0819,0 -0.1398,-0.0229 -0.18574,-0.0733 -0.0587,-0.0645 -0.069,-0.13065 -0.0852,-0.54596 -0.0174,-0.44165 -0.072,-0.81486 -0.11935,-0.81486 -0.0646,0 -0.296,0.30386 -0.46015,0.60429 -0.19878,0.36381 -0.34733,0.50393 -0.53429,0.50393 -0.18089,0 -0.32467,-0.16817 -0.50231,-0.58749 -0.10666,-0.25181 -0.25692,-0.55285 -0.37195,-0.74524 l -0.066,-0.11043 -0.18122,0.19192 c -0.0997,0.10555 -0.26594,0.3079 -0.36947,0.44965 -0.10354,0.14176 -0.22122,0.28003 -0.26151,0.30726 -0.0403,0.0272 -0.1283,0.0983 -0.19558,0.15784 -0.0691,0.0611 -0.1578,0.10832 -0.20372,0.10832 -0.0801,0 -0.0814,0.005 -0.0814,0.26388 0,0.30386 -0.0545,0.43176 -0.20692,0.48486 -0.11863,0.0414 -0.11565,0.0416 -0.22497,-0.0178 z m 10.71324,-0.15666 c -0.27509,-0.12811 -0.4457,-0.45028 -0.51931,-0.98064 -0.0123,-0.089 -0.0431,-0.19125 -0.0682,-0.22726 -0.0635,-0.0905 -0.0573,-0.22299 0.0146,-0.31546 0.0333,-0.0428 0.0709,-0.1364 0.0835,-0.2081 0.0512,-0.28935 0.15619,-0.57593 0.25023,-0.68304 0.12962,-0.14762 0.36979,-0.22826 0.59946,-0.20127 0.20195,0.0237 0.37268,0.09 0.44534,0.17269 0.2245,0.25566 0.20504,0.59819 -0.0573,1.00827 -0.14082,0.22015 -0.30599,0.33172 -0.54978,0.3714 -0.10393,0.0169 -0.19517,0.0369 -0.20275,0.0445 -0.027,0.027 0.0864,0.39438 0.14688,0.47543 0.0339,0.0455 0.10695,0.0956 0.16225,0.11146 0.0852,0.0245 0.13349,0.0108 0.3156,-0.0894 0.26468,-0.14549 0.40756,-0.15466 0.50378,-0.0323 0.14634,0.18604 0.0612,0.32329 -0.31894,0.51477 -0.29178,0.14694 -0.54686,0.15926 -0.80533,0.0388 z m 0.2505,-1.63721 c 0.0653,-0.0591 0.19166,-0.31402 0.19166,-0.38663 0,-0.0585 -0.13288,-0.0971 -0.24075,-0.07 -0.0643,0.0162 -0.0875,0.0576 -0.13384,0.23985 -0.0308,0.12118 -0.0621,0.24054 -0.0695,0.26525 -0.018,0.0602 0.17275,0.0236 0.2524,-0.0485 z m -23.03179,1.6451 c -0.13001,-0.073 -0.17779,-0.16819 -0.17855,-0.3554 -3.7e-4,-0.0993 -0.0213,-0.26065 -0.0467,-0.35853 -0.0857,-0.33161 -0.0948,-0.47071 -0.0379,-0.5808 0.0733,-0.14187 0.17499,-0.19886 0.34548,-0.19376 0.0802,0.003 0.32182,-0.0114 0.53694,-0.0308 0.59366,-0.0534 0.76596,-2.5e-4 0.76596,0.23626 0,0.20352 -0.038,0.22027 -0.60373,0.26635 -0.28265,0.0231 -0.51728,0.0458 -0.52142,0.0507 -0.005,0.006 0.0132,0.11888 0.0387,0.25332 0.0906,0.47798 0.0912,0.5331 0.006,0.6284 -0.0905,0.10149 -0.21381,0.13554 -0.30506,0.0843 z m 4.29558,-0.10149 c -0.091,-0.0994 -0.1182,-0.20377 -0.0745,-0.28557 0.0356,-0.0666 -0.0186,-0.53761 -0.0976,-0.84708 -0.016,-0.0627 -0.0462,-0.18742 -0.0671,-0.27706 -0.021,-0.0896 -0.0446,-0.18812 -0.0526,-0.21887 -0.008,-0.0328 -0.0603,-0.0645 -0.12531,-0.0766 -0.0609,-0.0114 -0.16618,-0.0688 -0.23403,-0.1274 -0.10733,-0.0928 -0.1229,-0.12405 -0.11984,-0.2407 0.005,-0.18149 0.13533,-0.3527 0.29128,-0.38196 0.10328,-0.0194 0.11345,-0.0304 0.0983,-0.10729 -0.0202,-0.10302 -0.0243,-0.57544 -0.008,-0.92758 0.014,-0.30027 0.0761,-0.39343 0.26189,-0.39343 0.23595,0 0.303,0.17893 0.24648,0.65778 -0.0295,0.2497 -0.0281,0.40653 0.007,0.74052 l 0.044,0.42373 0.37484,0.0332 c 0.20615,0.0182 0.40853,0.0522 0.44974,0.0753 0.14946,0.0841 0.16595,0.31727 0.0291,0.41305 -0.0538,0.0376 -0.13712,0.0432 -0.40371,0.0269 -0.39249,-0.024 -0.37477,-0.0479 -0.27309,0.36786 0.0346,0.1414 0.0707,0.33776 0.0803,0.43635 0.0595,0.61318 0.0614,0.57097 -0.0308,0.68059 -0.10877,0.12927 -0.29191,0.14237 -0.39627,0.0284 z m 15.14693,-0.0283 c -0.13519,-0.0535 -0.32371,-0.25945 -0.4673,-0.51045 -0.27528,-0.48121 -0.51438,-0.86171 -0.53102,-0.84507 -0.006,0.006 0.006,0.0681 0.0251,0.13882 0.0514,0.18621 0.0191,0.559 -0.062,0.7153 -0.10592,0.20412 -0.32603,0.39731 -0.50276,0.44128 -0.12751,0.0318 -0.17965,0.029 -0.31613,-0.0163 -0.41936,-0.13928 -0.6835,-0.5271 -0.77078,-1.13166 -0.0244,-0.16853 0.0395,-0.59689 0.0959,-0.64348 0.0195,-0.0161 0.13655,-0.0819 0.26011,-0.14628 0.27932,-0.14546 0.46777,-0.15535 0.70172,-0.0368 0.17243,0.0874 0.37495,0.29848 0.44684,0.46577 0.0731,0.17016 0.0831,0.12183 0.0129,-0.0628 -0.0353,-0.0928 -0.10854,-0.20933 -0.16284,-0.25892 -0.0842,-0.0769 -0.0987,-0.11365 -0.0987,-0.24992 0,-0.19335 0.0767,-0.28068 0.24673,-0.28068 0.0944,0 0.13702,0.0267 0.25761,0.16134 0.0901,0.10059 0.16982,0.23497 0.21174,0.35691 0.037,0.10757 0.10003,0.24987 0.14006,0.31623 0.46991,0.7789 0.59376,0.96854 0.61721,0.94508 0.0364,-0.0364 0.0907,-0.3745 0.091,-0.56605 0,-0.0837 0.0216,-0.23771 0.0479,-0.34224 0.0263,-0.10452 0.0629,-0.31472 0.0815,-0.4671 0.0471,-0.38691 0.14545,-0.50081 0.38149,-0.44157 0.14071,0.0353 0.17382,0.17995 0.12349,0.53935 -0.0238,0.17031 -0.0581,0.37564 -0.0762,0.45633 -0.0179,0.0806 -0.0483,0.29834 -0.0672,0.48371 -0.0599,0.58636 -0.18732,0.86244 -0.44853,0.97159 -0.12131,0.0508 -0.12855,0.0509 -0.23786,0.008 z m -1.47037,-0.79668 c 0.0388,-0.14046 8.4e-4,-0.32602 -0.10663,-0.52125 -0.18074,-0.32838 -0.36922,-0.35667 -0.47689,-0.0715 -0.0538,0.14244 -0.0545,0.17001 -0.01,0.34224 0.0576,0.22195 0.16086,0.36922 0.30934,0.44114 0.10287,0.0498 0.11152,0.049 0.18162,-0.0168 0.0405,-0.0381 0.0866,-0.11619 0.10248,-0.17369 z m -27.87409,0.67 c -0.24444,-0.0313 -0.58551,-0.2044 -0.70841,-0.35956 -0.16398,-0.20705 -0.19768,-0.37448 -0.12679,-0.62979 0.0282,-0.10159 0.0593,-0.136 0.16209,-0.17927 0.10439,-0.044 0.12321,-0.0652 0.10494,-0.11875 -0.0727,-0.21288 0.0319,-0.38463 0.31031,-0.50953 0.17879,-0.0802 0.24931,-0.0935 0.49752,-0.0935 0.31423,0 0.44045,0.0395 0.65854,0.2059 0.14159,0.10805 0.28254,0.33233 0.33248,0.52901 0.0265,0.10399 0.0772,0.17282 0.21309,0.28883 0.19854,0.16946 0.28802,0.20482 0.3859,0.15243 0.2427,-0.12988 0.4785,0.1885 0.30578,0.41285 -0.0369,0.048 -0.11841,0.0861 -0.23559,0.11018 -0.22273,0.0457 -0.38466,0.007 -0.61437,-0.14779 l -0.16292,-0.10964 -0.10166,0.12649 c -0.0559,0.0695 -0.14866,0.15087 -0.2061,0.18067 -0.10471,0.0543 -0.53218,0.17627 -0.59338,0.1693 -0.0179,-0.002 -0.11756,-0.0145 -0.22143,-0.0279 z m 0.50904,-0.56581 c 0.0569,-0.0238 0.12428,-0.0821 0.14963,-0.12954 0.0546,-0.10228 0.0349,-0.15104 -0.16047,-0.39645 -0.0714,-0.0897 -0.12984,-0.18836 -0.12992,-0.21939 -3.7e-4,-0.14195 -0.36395,-0.0896 -0.48147,0.0694 -0.0387,0.0525 -0.11497,0.1052 -0.16925,0.11711 -0.0866,0.019 -0.0944,0.0297 -0.0638,0.0867 0.0191,0.0358 0.0256,0.11967 0.0144,0.1864 -0.024,0.1421 0.035,0.21283 0.25515,0.30572 0.15082,0.0636 0.40665,0.0549 0.58585,-0.02 z m 11.91898,0.57617 c -0.0269,-0.0102 -0.0819,-0.0486 -0.12224,-0.0852 -0.0878,-0.0798 -0.0989,-0.2651 -0.0224,-0.37425 0.0381,-0.0543 0.0507,-0.15439 0.0498,-0.39752 -4.2e-4,-0.17871 -0.0104,-0.36159 -0.0216,-0.40642 -0.016,-0.0637 0.002,-0.10404 0.0819,-0.18393 0.0865,-0.0865 0.11863,-0.0992 0.2066,-0.0816 0.0574,0.0114 0.12425,0.0409 0.14875,0.0654 0.095,0.095 0.13998,1.04209 0.0586,1.23436 -0.0742,0.17528 -0.24673,0.27953 -0.37932,0.22923 z m -4.85347,-0.15464 c -0.16122,-0.11895 -0.32424,-0.31416 -0.36934,-0.4423 -0.039,-0.11094 -0.0465,-0.49686 -0.0208,-1.06641 0.008,-0.19255 0.0279,-0.2862 0.068,-0.33319 0.12791,-0.14942 0.35661,-0.10822 0.43453,0.0783 0.0594,0.14234 0.0595,0.24876 1e-4,0.53116 -0.0926,0.44005 0.0279,0.80616 0.25765,0.78355 0.16342,-0.0161 0.24158,-0.20168 0.26649,-0.63278 0.0178,-0.30575 0.0315,-0.36935 0.0994,-0.46066 0.0646,-0.0868 0.10105,-0.10593 0.20194,-0.10593 0.0866,0 0.14411,0.0224 0.19391,0.0754 0.0726,0.0772 0.0954,0.24464 0.041,0.30102 -0.0164,0.017 -0.0348,0.17794 -0.0407,0.35757 -0.01,0.29799 -0.0209,0.34613 -0.12497,0.54962 -0.17675,0.34557 -0.33509,0.44328 -0.7189,0.44367 -0.14076,1.2e-4 -0.20497,-0.0175 -0.28842,-0.079 z m 23.45143,-0.0537 c -0.1569,-0.18644 -0.0923,-0.58419 0.0949,-0.58419 0.0394,0 0.0489,-0.0509 0.0489,-0.26237 0,-0.27332 0.0494,-0.42918 0.14813,-0.46706 0.12052,-0.0463 0.23865,-0.0197 0.30934,0.0694 0.067,0.0846 0.0703,0.1152 0.0573,0.54596 -0.0145,0.47756 -0.0326,0.54811 -0.1826,0.70893 -0.0684,0.0733 -0.11161,0.0897 -0.23757,0.0897 -0.13193,0 -0.16607,-0.0144 -0.23836,-0.10028 z m -25.59571,-0.30508 c -0.38817,-0.18073 -0.49895,-0.33585 -0.49895,-0.69865 0,-0.20695 0.008,-0.23316 0.0897,-0.30279 0.0765,-0.0651 0.0882,-0.0969 0.0795,-0.21822 -0.0148,-0.207 0.0926,-0.35134 0.36471,-0.48988 0.19701,-0.10032 0.23361,-0.1084 0.40147,-0.0886 0.21625,0.0254 0.36541,0.10876 0.55342,0.30921 0.1573,0.16774 0.20623,0.32134 0.20623,0.64752 0,0.39796 -0.24997,0.76941 -0.58447,0.86848 -0.24518,0.0727 -0.4135,0.0652 -0.61148,-0.0269 z m 0.50465,-0.49313 c 0.12477,-0.0874 0.21017,-0.29429 0.18544,-0.44925 -0.0228,-0.14253 -0.19818,-0.34716 -0.29764,-0.34716 -0.076,0 -0.23952,0.10599 -0.23952,0.15518 0,0.0238 -0.033,0.0764 -0.0733,0.11678 -0.0556,0.0556 -0.0746,0.11492 -0.0783,0.24396 -0.005,0.16183 8.7e-4,0.17467 0.1135,0.25104 0.13566,0.0921 0.28426,0.10341 0.38985,0.0294 z m -2.47809,0.49062 c -0.25427,-0.0934 -0.55486,-0.34869 -0.80539,-0.68403 -0.0669,-0.0896 -0.22106,-0.35841 -0.34243,-0.59727 -0.12138,-0.23886 -0.23739,-0.43855 -0.25779,-0.44372 -0.17831,-0.0453 -0.23781,-0.0798 -0.27627,-0.16004 -0.0555,-0.11572 -0.006,-0.2545 0.12627,-0.34805 0.11032,-0.0785 0.34501,-0.0856 0.44792,-0.0136 0.0399,0.028 0.20378,0.31027 0.36426,0.62744 0.31047,0.61359 0.54906,0.9327 0.79733,1.0664 0.14344,0.0772 0.15261,0.068 0.24377,-0.24526 0.0732,-0.25178 0.18352,-1.04915 0.15526,-1.1228 -0.0218,-0.0567 0.0649,-0.52034 0.11523,-0.61561 0.0174,-0.0329 0.081,-0.0805 0.14142,-0.10571 0.13458,-0.0562 0.24824,-0.0212 0.32842,0.10114 0.0528,0.0807 0.0526,0.0951 -0.003,0.27035 -0.0323,0.10184 -0.0567,0.23648 -0.0542,0.29923 0.009,0.20385 -0.12551,1.11869 -0.19622,1.34141 -0.18434,0.58058 -0.41513,0.76587 -0.78475,0.6301 z m 8.75698,-1.85767 c -0.1867,-0.19795 -0.18443,-0.52627 0.005,-0.65006 0.10893,-0.0714 0.31249,-0.0647 0.39587,0.0129 0.059,0.0549 0.0681,0.1014 0.0681,0.3455 0,0.33065 -0.045,0.40593 -0.24224,0.40593 -0.0931,0 -0.14139,-0.0245 -0.2262,-0.11431 z m 18.9812,-0.19724 c -0.12722,-0.0691 -0.15564,-0.143 -0.15564,-0.40499 0,-0.34662 0.11794,-0.52202 0.35098,-0.52202 0.2142,0 0.34725,0.26393 0.22268,0.44177 -0.0391,0.0558 -0.0391,0.074 0,0.12756 0.067,0.0915 0.0569,0.2668 -0.0196,0.3433 -0.0782,0.0783 -0.26815,0.0851 -0.39847,0.0144 z"
       id="path953" />
  </g>
</svg>
