<?xml version="1.0" encoding="UTF-8" standalone="no"?>
<!-- Created with Inkscape (http://www.inkscape.org/) -->

<svg
   width="43.423126mm"
   height="9.1852036mm"
   viewBox="0 0 43.423126 9.1852035"
   version="1.1"
   id="svg5"
   inkscape:version="1.1.1 (3bf5ae0d25, 2021-09-20)"
   sodipodi:docname="favourite-games.svg"
   xmlns:inkscape="http://www.inkscape.org/namespaces/inkscape"
   xmlns:sodipodi="http://sodipodi.sourceforge.net/DTD/sodipodi-0.dtd"
   xmlns="http://www.w3.org/2000/svg"
   xmlns:svg="http://www.w3.org/2000/svg">
  <sodipodi:namedview
     id="namedview7"
     pagecolor="#ffffff"
     bordercolor="#666666"
     borderopacity="1.0"
     inkscape:pageshadow="2"
     inkscape:pageopacity="0.0"
     inkscape:pagecheckerboard="0"
     inkscape:document-units="mm"
     showgrid="false"
     fit-margin-top="0"
     fit-margin-left="0"
     fit-margin-right="0"
     fit-margin-bottom="0"
     inkscape:zoom="0.71446409"
     inkscape:cx="263.13429"
     inkscape:cy="97.275708"
     inkscape:window-width="1920"
     inkscape:window-height="991"
     inkscape:window-x="-9"
     inkscape:window-y="-9"
     inkscape:window-maximized="1"
     inkscape:current-layer="layer1" />
  <defs
     id="defs2" />
  <g
     inkscape:label="Capa 1"
     inkscape:groupmode="layer"
     id="layer1"
     transform="translate(-33.843426,-61.751444)">
    <path
       style="fill:#000000;stroke-width:0.0355105"
       d="m 59.712847,70.897396 c -0.613097,-0.137244 -1.131287,-0.396193 -1.384269,-0.691743 -0.226708,-0.264858 -0.265357,-0.576038 -0.0774,-0.623209 0.162352,-0.04078 0.261121,0.0119 0.340965,0.181759 0.122022,0.259607 0.379823,0.428899 0.919118,0.603577 0.387221,0.125425 0.829993,0.140297 1.047564,0.0352 0.234648,-0.11335 0.497974,-0.415334 0.598724,-0.6866 0.269752,-0.726331 0.270126,-1.322792 0.0017,-2.186366 -0.107966,-0.346924 -0.10968,-0.349612 -0.19376,-0.304613 -0.03778,0.02022 -0.154188,0.0526 -0.258633,0.07191 -0.23563,0.04352 -0.613306,-0.03329 -0.816221,-0.166164 -0.154695,-0.101266 -0.307127,-0.386096 -0.307684,-0.574931 -5.33e-4,-0.194788 0.130361,-0.450932 0.268545,-0.525348 0.138225,-0.07443 0.150933,-0.10637 0.05451,-0.136968 -0.09716,-0.03083 -0.15755,-0.196681 -0.113658,-0.312119 0.04968,-0.130557 0.138475,-0.167441 0.463686,-0.19252 0.368438,-0.02841 0.523799,0.03008 0.812917,0.306044 0.302749,0.288976 0.414243,0.533515 0.379306,0.831941 -0.03795,0.324154 -0.0367,0.33395 0.08523,0.679335 0.16494,0.46719 0.251193,0.90283 0.274196,1.384909 0.02239,0.46893 -0.03704,0.815837 -0.224071,1.308502 -0.161478,0.425338 -0.582229,0.851158 -0.953463,0.964957 -0.266939,0.08181 -0.63784,0.09497 -0.916987,0.03246 z m 1.068719,-4.108864 c 0.05168,-0.04105 0.02264,-0.09617 -0.215831,-0.409974 -0.10576,-0.139158 -0.150767,-0.175786 -0.171173,-0.139314 -0.01523,0.02721 -0.09201,0.07849 -0.170616,0.113931 -0.164233,0.07406 -0.204305,0.158615 -0.144076,0.30403 0.03978,0.09612 0.115514,0.138292 0.336912,0.187702 0.09509,0.02122 0.308634,-0.01182 0.364784,-0.05634 z m 12.845148,1.748661 c -0.870024,-0.09402 -1.012052,-0.150609 -1.012052,-0.403225 0,-0.215631 0.161977,-0.29421 0.378865,-0.18379 0.08644,0.04403 0.27333,0.07548 0.855127,0.143851 0.0635,0.0075 0.115414,-8.32e-4 0.115414,-0.01881 0,-0.06858 -0.141072,-0.257842 -0.480298,-0.644264 -0.435673,-0.49631 -0.682921,-0.820322 -0.767326,-1.005605 -0.0926,-0.203262 -0.08737,-0.520954 0.01148,-0.696816 0.121623,-0.216398 0.213168,-0.258423 0.543456,-0.249473 0.156377,0.0042 0.309866,0.01546 0.341074,0.02492 0.08787,0.02666 0.142803,0.177619 0.102856,0.282675 -0.04269,0.112399 -0.163592,0.159302 -0.41049,0.159302 h -0.192995 v 0.144521 c 0,0.172276 0.08592,0.307421 0.485666,0.763842 0.654026,0.746745 0.74578,0.871621 0.826914,1.125352 0.05626,0.175884 0.0159,0.405173 -0.08994,0.510991 -0.0911,0.0911 -0.218295,0.09947 -0.707739,0.0466 z m -2.833401,-0.200842 c -0.284166,-0.107675 -0.502843,-0.302642 -0.630566,-0.562198 -0.0764,-0.155353 -0.08709,-0.224753 -0.08709,-0.567608 0,-0.375203 0.005,-0.401127 0.12754,-0.656947 0.274878,-0.574018 0.594796,-0.973056 0.876923,-1.093814 0.268436,-0.114898 0.46605,-0.129411 0.602719,-0.04426 0.157808,0.09833 0.256827,0.272228 0.256993,0.451337 4.08e-4,0.319821 -0.297623,0.839389 -0.622318,1.085349 -0.208474,0.157924 -0.571311,0.289767 -0.705067,0.256194 -0.126358,-0.03171 -0.149278,0.04527 -0.07765,0.260955 0.07573,0.228082 0.236645,0.375978 0.507403,0.466408 0.273297,0.09129 0.337312,0.09162 0.619389,0.0033 0.123811,-0.03878 0.258583,-0.07074 0.299504,-0.07099 0.175526,-8.33e-4 0.255162,0.257459 0.118518,0.384766 -0.208882,0.194601 -0.882824,0.240523 -1.286298,0.08763 z m 0.213251,-1.732823 c 0.206802,-0.138661 0.468813,-0.529192 0.470977,-0.701998 0.0017,-0.146832 -0.287095,-0.03392 -0.451628,0.176484 -0.154845,0.19802 -0.400553,0.619262 -0.380313,0.652009 0.02322,0.03758 0.218153,-0.03073 0.360964,-0.126495 z m -17.194752,1.707697 c -0.309124,-0.0972 -0.693657,-0.422058 -0.841769,-0.711159 -0.04502,-0.08781 -0.07823,-0.240856 -0.09019,-0.414909 -0.01606,-0.234856 -0.0042,-0.322232 0.07856,-0.588834 0.106851,-0.343176 0.311238,-0.722057 0.46853,-0.86853 0.05543,-0.05161 0.188659,-0.139389 0.296084,-0.195064 0.170774,-0.08851 0.233208,-0.101066 0.497142,-0.09995 0.346999,0.0015 0.493946,0.05945 0.60733,0.239661 0.05809,0.09231 0.06758,0.150148 0.05052,0.307635 -0.04436,0.40885 -0.152581,0.647563 -0.449746,0.991686 -0.169668,0.196473 -0.354531,0.288185 -0.579575,0.287528 -0.231061,-6.66e-4 -0.33623,-0.05651 -0.435033,-0.23097 l -0.08006,-0.141363 -5.91e-4,0.205945 c -3.24e-4,0.113275 0.02214,0.249103 0.04985,0.301842 0.07582,0.144259 0.340816,0.387238 0.489977,0.449314 0.194434,0.08089 0.538854,0.06774 0.937534,-0.03587 0.386797,-0.100492 0.479175,-0.08821 0.552869,0.07349 0.03462,0.07607 0.02971,0.105627 -0.03096,0.186936 -0.165248,0.221332 -1.109049,0.371891 -1.52043,0.242546 z m 0.224453,-1.60192 c 0.232975,-0.19604 0.470087,-0.728208 0.358143,-0.803819 -0.09095,-0.06143 -0.408959,-0.01374 -0.553826,0.08306 -0.139731,0.09336 -0.343279,0.395487 -0.386621,0.57386 -0.02255,0.09278 -0.01789,0.09942 0.05376,0.07669 0.113674,-0.03608 0.242637,0.0062 0.268628,0.08814 0.03054,0.09625 0.132616,0.08921 0.259939,-0.01793 z m 22.778756,1.385557 c -0.145316,-0.06283 -0.187452,-0.203057 -0.104461,-0.347665 0.03237,-0.05643 0.05884,-0.138709 0.05884,-0.182925 0,-0.112193 0.114799,-0.205686 0.235414,-0.191713 0.144467,0.01673 0.261737,0.206127 0.261737,0.422741 0,0.144983 -0.01431,0.17997 -0.09765,0.238667 -0.144401,0.101707 -0.226692,0.115864 -0.353874,0.06092 z M 50.997935,67.980779 c -0.145216,-0.184547 -0.169767,-0.279056 -0.100118,-0.385357 0.03137,-0.04785 0.08064,-0.08704 0.109481,-0.08704 0.04394,0 0.05243,-0.08808 0.05243,-0.545586 v -0.545588 l -0.15879,-0.06065 c -0.178281,-0.06808 -0.338635,-0.234805 -0.33782,-0.351226 8.33e-4,-0.161381 0.09748,-0.396006 0.191431,-0.46615 0.09259,-0.06913 0.09992,-0.06948 0.204129,-0.0097 l 0.108091,0.06203 -0.01157,-1.096707 c -0.01265,-1.195994 -0.01015,-1.21222 0.185063,-1.21222 0.05618,0 0.131085,0.0325 0.16916,0.07337 0.09587,0.102908 0.123129,0.540213 0.107175,1.719911 -0.01132,0.835486 -0.0058,0.958343 0.04028,0.955341 0.02929,-0.0019 0.222197,-0.01476 0.428666,-0.02858 0.336039,-0.0225 0.383975,-0.01819 0.457195,0.0411 0.09694,0.0785 0.107799,0.230883 0.02314,0.324444 -0.04594,0.05079 -0.136594,0.0702 -0.418438,0.08961 -0.197871,0.01363 -0.401177,0.03309 -0.451786,0.04324 l -0.09203,0.01847 -0.0017,0.689808 c -0.0017,0.637381 -0.0075,0.697219 -0.07457,0.787383 -0.05077,0.06824 -0.110146,0.100816 -0.197714,0.10834 -0.108481,0.0093 -0.139332,-0.0075 -0.231427,-0.124286 z m -1.980855,0.01074 c -0.06466,-0.09874 -0.04452,-0.226783 0.064,-0.407311 0.06691,-0.111278 0.07032,-0.158149 0.04968,-0.683388 l -0.02222,-0.563924 0.08756,-0.05737 c 0.120749,-0.07912 0.250394,-0.03869 0.326726,0.101891 0.05251,0.09676 0.06242,0.210669 0.06275,0.721582 l 4e-4,0.60668 -0.106434,0.156801 c -0.132825,0.195683 -0.151192,0.208841 -0.292239,0.209515 -0.08206,3.91e-4 -0.130402,-0.02364 -0.170299,-0.08447 z m 13.907784,0.02904 c -0.104903,-0.02821 -0.248721,-0.07856 -0.319602,-0.111885 -0.30374,-0.142803 -0.642117,-0.632347 -0.697485,-1.009074 -0.04036,-0.274795 0.122612,-0.527573 0.340191,-0.527573 0.181951,0 0.271932,0.216324 0.157775,0.379309 -0.0466,0.06656 -0.04669,0.09299 -8.08e-4,0.222949 0.117378,0.332676 0.3342,0.532462 0.651788,0.600572 0.356945,0.07657 0.521993,0.03021 0.62891,-0.176533 0.08222,-0.158932 0.06217,-0.232509 -0.11752,-0.431121 -0.197805,-0.218671 -0.286912,-0.340721 -0.408601,-0.559665 -0.04885,-0.08789 -0.126641,-0.179537 -0.172871,-0.203662 -0.112726,-0.05883 -0.281511,-0.05445 -0.366049,0.0095 -0.102872,0.07781 -0.225019,0.06326 -0.327267,-0.03899 -0.07324,-0.07325 -0.08679,-0.112854 -0.06899,-0.201855 0.0605,-0.302374 0.344694,-0.365694 0.931825,-0.207596 0.310215,0.08353 0.802613,0.564826 0.924369,0.903525 0.06059,0.168569 0.08064,0.188918 0.260597,0.26401 0.165098,0.06891 0.235713,0.0784 0.461273,0.06192 0.146481,-0.01074 0.316681,-0.02888 0.378225,-0.04036 0.197089,-0.03678 0.335864,0.189749 0.21638,0.353157 -0.10596,0.144909 -0.76195,0.216231 -1.050943,0.114266 l -0.145674,-0.05143 -0.07365,0.166804 c -0.205595,0.465485 -0.631773,0.637016 -1.201786,0.483694 z M 33.957845,67.920293 c -0.149735,-0.149744 -0.151991,-0.238094 -0.0098,-0.385615 l 0.110895,-0.11509 -0.02197,-0.621436 c -0.04894,-1.380632 -0.06383,-3.721625 -0.0268,-4.197714 0.05484,-0.704615 0.128846,-0.833637 0.48391,-0.84374 0.337462,-0.0096 0.429756,-0.0081 1.308169,0.02202 0.867045,0.02969 0.883198,0.03162 0.94991,0.11403 0.08652,0.106875 0.08656,0.225594 1e-4,0.30384 -0.06142,0.05558 -0.140498,0.05937 -0.843376,0.0404 -0.426586,-0.01151 -0.85551,-0.02405 -0.953164,-0.02786 -0.273713,-0.01067 -0.432062,0.03218 -0.459867,0.124442 -0.01307,0.04346 -0.03312,0.412401 -0.04452,0.819862 l -0.02072,0.740839 0.07681,-0.0411 c 0.08306,-0.04445 0.386289,-0.0155 0.963251,0.09194 0.436731,0.08132 0.8565,0.250314 1.071807,0.431479 0.119442,0.100506 0.132641,0.250432 0.03021,0.343137 -0.09765,0.08837 -0.214208,0.07885 -0.380255,-0.03103 -0.306511,-0.20284 -1.05478,-0.386638 -1.501264,-0.368759 l -0.255495,0.01023 0.02805,1.065318 c 0.04594,1.745057 0.03803,2.3234 -0.03371,2.458055 -0.117494,0.220633 -0.293328,0.245501 -0.472083,0.06674 z m 12.816319,-0.05742 c -0.101107,-0.04028 -0.153247,-0.141879 -0.153247,-0.29853 0,-0.06941 -0.03387,-0.249595 -0.07523,-0.400387 -0.05642,-0.205795 -0.07107,-0.338752 -0.05859,-0.533254 0.01881,-0.293033 0.08387,-0.400737 0.242097,-0.400737 0.05351,0 0.204787,-0.03321 0.336172,-0.07379 0.131384,-0.04058 0.273488,-0.0651 0.315782,-0.05449 0.04228,0.01061 0.161819,-0.0031 0.265623,-0.03049 0.213776,-0.05639 0.33167,-0.02975 0.395411,0.08935 0.107932,0.20167 -0.07124,0.341879 -0.498008,0.389755 -0.126949,0.01424 -0.316423,0.04786 -0.421052,0.07472 l -0.190223,0.04883 0.01947,0.165163 c 0.01074,0.09084 0.05426,0.279747 0.09681,0.419795 0.08064,0.265416 0.07698,0.472051 -0.0098,0.553984 -0.06799,0.06417 -0.177814,0.08492 -0.265199,0.0501 z m 18.954874,-0.115356 c -0.182925,-0.09401 -0.227042,-0.207509 -0.254763,-0.655433 -0.01423,-0.230029 -0.04511,-0.623795 -0.06866,-0.875032 -0.04785,-0.510662 -0.02963,-0.602132 0.128147,-0.641721 0.06999,-0.01758 0.123894,-0.0052 0.189266,0.04365 0.09309,0.0695 0.109347,0.121252 0.180744,0.57547 0.05568,0.354005 0.137726,0.64723 0.200643,0.716755 0.05243,0.05792 0.06425,0.05851 0.151392,0.0067 0.12783,-0.07548 0.23295,-0.234459 0.464127,-0.701811 0.160388,-0.324254 0.217521,-0.406713 0.319594,-0.461269 0.115522,-0.06175 0.133632,-0.06252 0.256785,-0.01097 0.114366,0.04788 0.151799,0.09609 0.27358,0.352419 0.07756,0.163325 0.172322,0.325226 0.210505,0.359778 0.063,0.05706 0.07865,0.05795 0.1703,0.0097 0.05551,-0.02921 0.188767,-0.143463 0.296191,-0.253891 0.304988,-0.313535 0.473898,-0.369879 0.698426,-0.232976 0.134822,0.08221 0.293861,0.395747 0.410574,0.809453 l 0.08023,0.28444 0.128513,-0.01723 c 0.105519,-0.01415 0.1389,-0.0025 0.186603,0.06575 0.03196,0.04561 0.05809,0.116197 0.05809,0.156826 0,0.105644 -0.194426,0.355621 -0.315632,0.40583 -0.25339,0.104961 -0.414336,-0.02796 -0.497143,-0.410698 -0.09629,-0.445012 -0.204438,-0.784099 -0.275452,-0.863637 -0.0075,-0.0084 -0.09268,0.07326 -0.189208,0.181565 -0.27953,0.313634 -0.644231,0.451543 -0.89435,0.33821 -0.102398,-0.04644 -0.321325,-0.293749 -0.407511,-0.460414 -0.02954,-0.05713 -0.05975,-0.09788 -0.06708,-0.09055 -0.0075,0.0073 -0.07706,0.140647 -0.154987,0.296262 -0.0779,0.155618 -0.198612,0.349437 -0.268228,0.430721 -0.13096,0.152923 -0.438695,0.331611 -0.571094,0.331611 -0.06408,0 -0.07324,0.01648 -0.05984,0.107933 0.02988,0.203655 -0.17,0.310098 -0.379822,0.202257 z m -27.098,-0.209639 c -0.08788,-0.04452 -0.290483,-0.206311 -0.450205,-0.359525 -0.275128,-0.263917 -0.292505,-0.274645 -0.330313,-0.203988 -0.02197,0.04103 -0.105402,0.122013 -0.185438,0.179987 -0.128363,0.09298 -0.174844,0.105419 -0.394103,0.105419 -0.200485,0 -0.286089,-0.01889 -0.442498,-0.09766 -0.106659,-0.05368 -0.233808,-0.14485 -0.282552,-0.20254 -0.07615,-0.09013 -0.08644,-0.131285 -0.07307,-0.292416 0.01798,-0.216765 0.100418,-0.330663 0.239334,-0.330663 0.146489,0 0.224794,0.07809 0.230045,0.22942 0.0033,0.103614 0.02422,0.143456 0.09212,0.177948 0.188609,0.09581 0.271549,0.09466 0.390475,-0.0054 0.110612,-0.09307 0.112585,-0.09994 0.08932,-0.310712 -0.02705,-0.244963 -0.141089,-0.51482 -0.291689,-0.69018 -0.08223,-0.09578 -0.130702,-0.120484 -0.243686,-0.124288 -0.115656,-0.0039 -0.139158,0.0063 -0.130677,0.05699 0.0114,0.06811 -0.05226,0.20765 -0.113309,0.248432 -0.07224,0.04822 -0.198312,0.02774 -0.269893,-0.04384 -0.08814,-0.08814 -0.09605,-0.345749 -0.0154,-0.501702 0.06833,-0.132134 0.296358,-0.24217 0.504058,-0.24324 0.199012,-9.99e-4 0.439935,0.115568 0.584502,0.282863 0.160579,0.185825 0.260738,0.291354 0.345876,0.364425 0.0506,0.04345 0.0724,0.105219 0.0724,0.205366 0,0.207532 0.142711,0.459291 0.417697,0.73688 0.468264,0.472694 0.611941,0.529186 0.726381,0.285584 0.09552,-0.20334 0.320767,-0.229505 0.417631,-0.04852 0.06932,0.129537 2.66e-4,0.325728 -0.175102,0.496901 -0.126607,0.123637 -0.165165,0.140531 -0.347266,0.152241 -0.160912,0.01032 -0.239117,-0.0042 -0.364642,-0.06783 z m 6.047857,-0.101067 c -0.425104,-0.216555 -0.852614,-1.09964 -0.754286,-1.558101 0.02147,-0.10034 0.06375,-0.207038 0.09379,-0.237105 0.08106,-0.08109 0.25681,-0.05022 0.338294,0.05943 0.05759,0.07745 0.063,0.113473 0.03321,0.22129 -0.03936,0.142488 0.0017,0.341293 0.130061,0.635036 0.08797,0.200788 0.344295,0.48935 0.434692,0.48935 0.09036,0 0.23449,-0.201683 0.279588,-0.391263 0.02081,-0.08754 0.06117,-0.306755 0.08969,-0.487156 0.06025,-0.38152 0.127223,-0.532263 0.250086,-0.563099 0.199885,-0.05017 0.407727,0.086 0.407727,0.267128 0,0.09642 -0.02064,0.128597 -0.153389,0.238797 -0.02796,0.02321 -0.06633,0.172765 -0.0886,0.345254 -0.06017,0.466161 -0.248971,0.84982 -0.475945,0.96719 -0.180162,0.09317 -0.417465,0.09854 -0.584902,0.01323 z m -2.240078,-0.104054 c -0.154579,-0.09694 -0.318945,-0.363094 -0.349463,-0.565868 -0.03162,-0.210095 0.04586,-0.765166 0.129936,-0.93042 0.07191,-0.141339 0.261363,-0.300695 0.425662,-0.357971 0.256486,-0.08941 0.599224,0.06987 0.77212,0.358837 0.125651,0.21 0.197015,0.609752 0.149611,0.838093 -0.04869,0.234705 -0.216289,0.491166 -0.400603,0.613138 -0.195084,0.129104 -0.556822,0.151083 -0.727263,0.04419 z m 0.536298,-0.484983 c 0.195675,-0.211026 0.195101,-0.599624 -8.32e-4,-0.832949 -0.107632,-0.127912 -0.185454,-0.131902 -0.295151,-0.01514 -0.06658,0.07087 -0.08589,0.135045 -0.09348,0.310718 -0.005,0.121768 -0.01972,0.263292 -0.03204,0.314495 -0.01381,0.05699 -2.58e-4,0.136174 0.03495,0.20419 0.07648,0.147896 0.259007,0.15671 0.386996,0.01864 z m -2.586303,0.236753 c -0.267246,-0.126341 -0.608761,-0.66028 -0.836177,-1.307322 -0.04635,-0.131777 -0.09854,-0.221941 -0.128555,-0.221941 -0.0278,0 -0.08977,-0.03922 -0.137709,-0.08716 -0.17134,-0.171344 -0.09181,-0.478348 0.138924,-0.536259 0.21911,-0.05499 0.413478,0.193838 0.584577,0.748391 0.08857,0.287074 0.351343,0.76798 0.502893,0.920334 l 0.103713,0.104273 0.07523,-0.175294 c 0.08089,-0.188466 0.11137,-0.316908 0.193453,-0.814485 0.109264,-0.662346 0.20155,-1.012399 0.290307,-1.101153 0.121373,-0.12138 0.465709,-0.01036 0.551437,0.177796 0.05751,0.12621 -0.0104,0.26188 -0.1445,0.2887 -0.0857,0.01714 -0.109605,0.04581 -0.139948,0.167866 -0.0352,0.141768 -0.119467,0.614058 -0.168727,0.946183 -0.01298,0.08789 -0.06991,0.287636 -0.126341,0.443883 -0.171257,0.473962 -0.40677,0.612495 -0.758555,0.44619 z m 36.373146,-1.18636 c -0.04469,-0.04577 -0.13726,-0.10417 -0.205619,-0.129769 -0.153381,-0.05744 -0.213069,-0.127452 -0.213069,-0.249928 0,-0.147295 0.111436,-0.224466 0.294361,-0.203849 0.08473,0.0096 0.200377,0.03964 0.256993,0.06686 0.12913,0.06208 0.265391,0.260579 0.265391,0.386594 0,0.20249 -0.248072,0.283563 -0.398057,0.130092 z M 48.934215,65.224064 c -0.20894,-0.251756 -0.161769,-0.711827 0.08247,-0.8047 0.178606,-0.0679 0.516076,0.118761 0.516076,0.285454 0,0.04193 -0.04794,0.121008 -0.106534,0.175741 -0.06217,0.05806 -0.106534,0.135661 -0.106534,0.186296 0,0.04773 -0.02921,0.113228 -0.06491,0.145551 -0.0779,0.07052 -0.266048,0.07736 -0.320568,0.01166 z"
       id="path1191" />
  </g>
</svg>
