<?xml version="1.0" encoding="UTF-8" standalone="no"?>
<!-- Created with Inkscape (http://www.inkscape.org/) -->

<svg
   width="47.465988mm"
   height="6.7671604mm"
   viewBox="0 0 47.465987 6.7671607"
   version="1.1"
   id="svg5"
   inkscape:version="1.1.1 (3bf5ae0d25, 2021-09-20)"
   sodipodi:docname="favourite-books.svg"
   xmlns:inkscape="http://www.inkscape.org/namespaces/inkscape"
   xmlns:sodipodi="http://sodipodi.sourceforge.net/DTD/sodipodi-0.dtd"
   xmlns="http://www.w3.org/2000/svg"
   xmlns:svg="http://www.w3.org/2000/svg">
  <sodipodi:namedview
     id="namedview7"
     pagecolor="#ffffff"
     bordercolor="#666666"
     borderopacity="1.0"
     inkscape:pageshadow="2"
     inkscape:pageopacity="0.0"
     inkscape:pagecheckerboard="0"
     inkscape:document-units="mm"
     showgrid="false"
     fit-margin-top="0"
     fit-margin-left="0"
     fit-margin-right="0"
     fit-margin-bottom="0"
     inkscape:zoom="0.5052024"
     inkscape:cx="-104.90845"
     inkscape:cy="179.13612"
     inkscape:window-width="1920"
     inkscape:window-height="991"
     inkscape:window-x="-9"
     inkscape:window-y="-9"
     inkscape:window-maximized="1"
     inkscape:current-layer="layer1" />
  <defs
     id="defs2" />
  <g
     inkscape:label="Capa 1"
     inkscape:groupmode="layer"
     id="layer1"
     transform="translate(-13.139714,-56.126821)">
    <path
       style="fill:#000000;stroke-width:0.0376613"
       d="m 13.410136,62.816337 c -0.129585,-0.129584 -0.170016,-0.405378 -0.07965,-0.543294 0.05886,-0.08983 0.06351,-0.164433 0.04168,-0.668421 -0.03516,-0.811427 -0.09628,-1.821279 -0.138108,-2.280897 -0.07297,-0.802127 -0.122457,-2.570198 -0.07669,-2.740189 0.05781,-0.214662 0.18767,-0.302585 0.35667,-0.241474 0.06703,0.02424 0.205426,0.04394 0.307526,0.04376 0.245116,-3.95e-4 0.834101,-0.06767 0.976521,-0.11152 0.09881,-0.03042 0.481134,-0.08017 1.084169,-0.141054 0.09917,-0.01002 0.220345,-0.0081 0.269283,0.0042 0.110169,0.02765 0.175247,0.193114 0.127125,0.323211 -0.04324,0.11688 -0.09531,0.150062 -0.237753,0.151503 -0.06214,6.53e-4 -0.180775,0.02556 -0.263629,0.0554 -0.08285,0.02985 -0.23813,0.05502 -0.345055,0.05592 -0.106925,9.39e-4 -0.327245,0.02755 -0.489597,0.05921 -0.162354,0.03164 -0.519745,0.06816 -0.794202,0.08113 l -0.499013,0.02359 2.84e-4,0.399051 c 1.42e-4,0.219479 0.01079,0.51077 0.02373,0.647315 l 0.02346,0.248263 0.15517,-0.03008 c 0.08535,-0.01653 0.690751,-0.03081 1.345346,-0.03171 1.178018,-0.0017 1.191488,-7.56e-4 1.318147,0.08431 0.174844,0.117418 0.194026,0.285721 0.04585,0.402276 -0.07965,0.06266 -0.132546,0.07653 -0.218612,0.05733 -0.06244,-0.01392 -0.539908,-0.03103 -1.061024,-0.03802 -0.897102,-0.01204 -0.950981,-0.0088 -1.013281,0.06 -0.05213,0.0576 -0.116558,0.0727 -0.310139,0.0727 h -0.244343 l 0.02681,0.386027 c 0.0731,1.053093 0.10079,1.639039 0.121443,2.570387 0.02161,0.974146 0.01947,1.019607 -0.05052,1.082318 -0.04019,0.03601 -0.125914,0.07602 -0.1905,0.08895 -0.09373,0.01875 -0.136327,0.0045 -0.211066,-0.07014 z m 41.939519,-0.02814 c -0.123459,-0.05095 -0.183128,-0.200836 -0.128064,-0.321702 0.06097,-0.133831 0.254715,-0.203852 0.738805,-0.267024 0.71889,-0.09381 0.703096,-0.07239 0.265188,-0.359546 -0.597847,-0.392023 -0.860021,-0.654766 -1.122504,-1.124907 -0.13163,-0.235767 -0.223262,-0.570162 -0.191927,-0.700361 0.07075,-0.293907 0.295028,-0.558305 0.572018,-0.674342 0.203605,-0.0853 0.566745,-0.109782 0.80325,-0.05418 0.388464,0.09135 0.482819,0.188906 0.40331,0.416989 -0.04926,0.141345 -0.168442,0.172093 -0.426784,0.110116 -0.388742,-0.09325 -0.775871,0.02277 -0.832798,0.249577 -0.03774,0.150276 0.206845,0.600276 0.471284,0.867193 0.123626,0.12478 0.419467,0.355988 0.657426,0.513796 0.465369,0.308616 0.592787,0.424347 0.687932,0.624848 0.05495,0.115773 0.05524,0.140006 0.0035,0.248692 -0.07488,0.157005 -0.228976,0.226166 -0.666873,0.299287 -0.784338,0.13097 -1.00118,0.168813 -1.073345,0.187319 -0.04141,0.01063 -0.113596,0.0035 -0.160365,-0.01577 z m 4.736217,-0.300915 c -0.174743,-0.174741 -0.01787,-0.466999 0.250681,-0.466999 0.260217,0 0.360713,0.259314 0.170952,0.441122 -0.129037,0.123625 -0.312621,0.134893 -0.421633,0.02587 z M 34.926027,62.39499 c -0.39394,-0.145131 -0.779086,-0.471953 -1.003977,-0.851942 -0.485228,-0.819861 -0.207131,-1.803701 0.647934,-2.292233 0.266371,-0.152189 0.319647,-0.168485 0.5983,-0.183005 0.271899,-0.01417 0.329317,-0.0048 0.516688,0.08401 0.11594,0.05498 0.267372,0.15832 0.33652,0.229661 0.108097,0.111527 0.128033,0.161635 0.142189,0.357399 0.02323,0.320733 -0.06137,0.515577 -0.362187,0.834458 -0.273265,0.289677 -0.467969,0.417088 -0.722762,0.472961 -0.256471,0.05625 -0.416934,0.05444 -0.620977,-0.0069 -0.101875,-0.03066 -0.192519,-0.04845 -0.20143,-0.03955 -0.04779,0.04779 0.210186,0.450749 0.402048,0.627965 0.272089,0.251324 0.529532,0.352464 0.804358,0.316009 0.29542,-0.03919 0.653277,-0.219898 0.861951,-0.435262 0.205371,-0.211956 0.353409,-0.246465 0.486471,-0.113403 0.101394,0.101395 0.09489,0.185928 -0.02823,0.36663 -0.178632,0.262157 -0.488645,0.471562 -0.902685,0.609733 -0.271168,0.09049 -0.740982,0.102077 -0.954196,0.02353 z m 0.0821,-1.853634 c 0.08639,-0.01711 0.202295,-0.100244 0.361856,-0.259508 0.246359,-0.245903 0.32877,-0.39194 0.29004,-0.513969 -0.0249,-0.07847 -0.308776,-0.218204 -0.443174,-0.218156 -0.129165,3.8e-5 -0.523293,0.202643 -0.659822,0.339172 -0.213681,0.213682 -0.247253,0.285102 -0.194212,0.413156 0.08886,0.214522 0.326237,0.302551 0.645312,0.239305 z M 54.50355,62.31688 C 54.206535,61.997307 53.633904,61.452342 53.269174,61.142144 53.05168,60.957167 52.80107,60.722329 52.712251,60.62028 l -0.161476,-0.185542 0.02967,0.489598 c 0.03085,0.509119 0.02783,0.956408 -0.0074,1.100908 -0.02588,0.105965 -0.205401,0.201323 -0.324345,0.172249 -0.211016,-0.05158 -0.268827,-0.197663 -0.177829,-0.449322 0.04362,-0.12066 0.0077,-0.847044 -0.08259,-1.671216 -0.01702,-0.155354 -0.04966,-0.477358 -0.07249,-0.715565 -0.05464,-0.570055 -0.139878,-1.054222 -0.210434,-1.195655 -0.113011,-0.226536 0.09086,-0.4438 0.325301,-0.346687 0.181033,0.07499 0.268238,0.342034 0.340706,1.043329 0.05328,0.515878 0.04527,0.506291 0.341018,0.407378 0.251732,-0.08418 0.729478,-0.195862 1.12359,-0.262631 0.197801,-0.0335 0.418008,-0.07767 0.489346,-0.09813 0.311169,-0.08924 0.50055,-0.0026 0.50055,0.229006 0,0.155655 -0.121086,0.268357 -0.300844,0.28001 -0.213719,0.01386 -0.988945,0.161465 -1.302806,0.248071 -0.150221,0.04145 -0.37906,0.101795 -0.508519,0.134095 -0.129464,0.0323 -0.235384,0.07449 -0.235384,0.09375 0,0.01955 0.03412,0.01677 0.07719,-0.0062 0.13455,-0.072 0.272684,-0.02942 0.355414,0.109586 0.119485,0.200772 0.420345,0.514559 0.829055,0.864686 0.790208,0.676935 1.261659,1.177351 1.261659,1.339179 0,0.122088 -0.134373,0.248519 -0.264126,0.248519 -0.07805,0 -0.146826,-0.03904 -0.23392,-0.132737 z m -10.053061,0.06001 c -0.400921,-0.127721 -0.747253,-0.648353 -1.033602,-1.553797 -0.341594,-1.080132 -0.491352,-2.095537 -0.529406,-3.589579 -0.022,-0.863355 -0.01967,-0.907953 0.05152,-0.994887 0.09907,-0.120961 0.296964,-0.124389 0.39219,-0.0068 0.06072,0.075 0.06812,0.165422 0.06741,0.825411 -3.95e-4,0.407654 0.01698,0.936087 0.03867,1.174294 0.03449,0.378662 0.07087,0.623546 0.227111,1.529792 0.140683,0.81598 0.566992,1.857339 0.845567,2.065509 0.09753,0.07287 0.100929,0.07291 0.231752,0.0023 0.288413,-0.155321 0.53787,-0.535135 0.566609,-0.862704 0.02076,-0.236707 -0.09569,-0.487861 -0.285911,-0.616607 -0.171819,-0.116286 -0.269061,-0.106611 -0.450301,0.0448 -0.08528,0.07126 -0.190603,0.140828 -0.234054,0.15462 -0.11561,0.03669 -0.274329,-0.09452 -0.288734,-0.238693 -0.0095,-0.09534 0.01755,-0.144898 0.148821,-0.272278 0.08825,-0.08564 0.207598,-0.180097 0.265209,-0.209889 0.417632,-0.215965 0.993675,0.03648 1.244392,0.545331 0.0719,0.145923 0.08564,0.234662 0.08564,0.552866 0,0.356145 -0.0076,0.393687 -0.125683,0.621413 -0.140454,0.270851 -0.437021,0.5976 -0.665205,0.732903 -0.171928,0.101944 -0.405513,0.142488 -0.552018,0.09582 z M 26.082632,62.220724 c -0.375035,-0.07371 -0.649881,-0.268836 -0.928391,-0.659132 -0.383959,-0.538071 -0.517099,-1.020285 -0.364366,-1.319669 0.09551,-0.187225 0.168366,-0.249711 0.291134,-0.249711 0.138038,0 0.243434,0.111629 0.243434,0.25783 0,0.06807 -0.01696,0.134229 -0.03765,0.147031 -0.113824,0.07035 0.0045,0.45429 0.251601,0.815809 0.217717,0.318637 0.499984,0.521168 0.726359,0.521168 0.115078,0 0.151844,-0.19893 0.152434,-0.824754 7.58e-4,-0.642758 0.02689,-0.750581 0.197613,-0.810619 0.07645,-0.0269 0.135657,-0.02016 0.233594,0.02654 0.15401,0.07345 0.202432,0.207454 0.138669,0.383784 -0.02375,0.06567 -0.04331,0.279186 -0.04345,0.474496 -3.95e-4,0.722606 -0.116024,1.081037 -0.387952,1.204493 -0.171541,0.07787 -0.224608,0.08155 -0.473012,0.03274 z m -5.210147,-0.251289 c -0.313639,-0.301763 -0.447636,-0.502103 -0.745263,-1.11427 -0.143777,-0.295719 -0.290192,-0.533893 -0.412727,-0.671371 -0.139521,-0.156542 -0.189903,-0.243372 -0.189903,-0.327296 0,-0.138576 0.115422,-0.231482 0.287583,-0.231482 0.182261,0 0.460453,0.354098 0.739703,0.941533 0.217836,0.458247 0.463517,0.848934 0.625346,0.994448 0.04388,0.03946 0.07979,0.06465 0.07979,0.05597 0,-0.0086 0.03421,-0.108757 0.07603,-0.222391 0.04428,-0.120306 0.09035,-0.379924 0.110309,-0.621546 0.03595,-0.435013 0.132813,-1.053709 0.187303,-1.196177 0.06589,-0.17228 0.16939,-0.225313 0.386792,-0.198192 0.287499,0.03587 0.394357,0.0871 0.447061,0.214331 0.04045,0.09763 0.03674,0.125248 -0.02874,0.213322 -0.0504,0.0678 -0.11733,0.105286 -0.202954,0.11365 -0.07027,0.0068 -0.139316,0.03117 -0.153432,0.05402 -0.0262,0.04239 -0.07051,0.354369 -0.145673,1.025686 -0.08575,0.765951 -0.328191,1.223993 -0.647831,1.223993 -0.13296,0 -0.177889,-0.02762 -0.413395,-0.254214 z m -1.945712,0.0084 c -0.222815,-0.127376 -0.631541,-0.455774 -0.660199,-0.53045 -0.01904,-0.04962 -0.05119,-0.03521 -0.178948,0.08021 -0.171977,0.155371 -0.510134,0.320562 -0.811214,0.396282 -0.342733,0.0862 -0.598919,-0.0491 -0.685289,-0.361916 -0.05968,-0.216149 0.05587,-0.582666 0.205122,-0.650674 0.236612,-0.107808 0.44656,0.168202 0.314968,0.41408 -0.06102,0.114027 -0.02275,0.122356 0.217497,0.04732 0.145145,-0.04533 0.274774,-0.121043 0.385559,-0.225174 l 0.166893,-0.156868 -0.119815,-0.180895 c -0.06591,-0.09949 -0.11982,-0.194937 -0.11982,-0.212099 0,-0.05921 -0.170088,-0.03018 -0.370941,0.06331 -0.110804,0.05159 -0.247995,0.09378 -0.304869,0.09378 -0.184945,0 -0.285244,-0.199404 -0.189905,-0.377549 0.03891,-0.07271 0.289529,-0.20594 0.526762,-0.280013 0.115892,-0.03619 0.133219,-0.05803 0.143469,-0.180829 0.01203,-0.144024 0.114281,-0.253788 0.236443,-0.253788 0.102317,0 0.248952,0.140841 0.273283,0.262479 0.01909,0.09548 0.04061,0.114135 0.131671,0.114135 0.05987,0 0.153842,0.03538 0.208832,0.07864 0.159971,0.125834 0.211466,0.2659 0.211466,0.575218 v 0.280995 l 0.25421,0.233179 c 0.316262,0.290093 0.506731,0.394753 0.613956,0.337366 0.249922,-0.133755 0.452721,0.227695 0.244551,0.435865 -0.131665,0.131671 -0.460936,0.130424 -0.693682,-0.0027 z m 30.896378,0.07148 c -0.722776,-0.158607 -1.035689,-0.408604 -1.035689,-0.827461 0,-0.154425 0.07623,-0.352148 0.16376,-0.424734 0.08788,-0.07288 0.239146,-0.06433 0.330902,0.0187 0.06764,0.06121 0.07474,0.09826 0.05399,0.281535 -0.02813,0.248497 -0.01477,0.265095 0.299282,0.373158 0.272422,0.09372 0.443961,0.09393 0.649237,7.58e-4 0.249341,-0.113177 0.348212,-0.242105 0.348212,-0.454057 0,-0.09817 -0.02303,-0.233205 -0.05114,-0.300088 -0.06055,-0.144015 -0.377809,-0.477252 -0.48752,-0.512072 -0.08604,-0.02732 -0.177942,0.07388 -0.308722,0.339964 -0.05108,0.103889 -0.10385,0.157289 -0.163897,0.165788 -0.404052,0.0572 -0.429436,-0.362433 -0.04902,-0.809884 0.110893,-0.130421 0.31531,-0.238047 0.452423,-0.2382 0.183935,-1.84e-4 0.548183,0.209275 0.747776,0.430054 0.269698,0.298308 0.368907,0.54375 0.366539,0.906784 -0.0023,0.341091 -0.07223,0.517668 -0.286614,0.722942 -0.243015,0.232696 -0.739831,0.390405 -1.029567,0.326824 z m -19.603687,-0.109247 -0.0894,-0.09517 0.06418,-0.30969 c 0.07563,-0.364918 0.07984,-0.59522 0.01921,-1.050637 -0.04272,-0.320743 -0.04125,-0.338598 0.03401,-0.413835 0.04325,-0.04325 0.124295,-0.07863 0.180107,-0.07863 0.233671,0 0.320954,0.264266 0.31889,0.965503 -0.0018,0.607575 -0.04984,0.929242 -0.151036,1.011189 -0.117593,0.09522 -0.270475,0.08353 -0.375945,-0.02874 z m 16.534286,0.03547 c -0.366099,-0.09678 -0.720365,-0.423549 -0.775019,-0.714887 -0.03571,-0.190504 0.0707,-0.451648 0.202851,-0.497718 0.208725,-0.07276 0.366672,0.0638 0.336233,0.290741 -0.03406,0.253893 0.126956,0.384478 0.561197,0.455152 0.272234,0.04429 0.489593,-0.03356 0.740616,-0.265319 l 0.195778,-0.180753 -0.06891,-0.129709 c -0.07919,-0.149095 -0.361318,-0.373543 -0.548713,-0.436538 -0.07041,-0.02369 -0.133381,-0.04304 -0.139932,-0.04304 -0.0066,0 -0.06392,0.05085 -0.127492,0.112984 -0.148978,0.145628 -0.303741,0.150799 -0.411545,0.01375 -0.09833,-0.12501 -0.09908,-0.253298 -0.0023,-0.409736 0.1041,-0.168433 0.245334,-0.217799 0.573032,-0.200284 0.322315,0.01723 0.551781,0.118011 0.822987,0.361462 0.314402,0.282229 0.456165,0.620392 0.367905,0.877627 -0.102147,0.297716 -0.515082,0.658601 -0.879212,0.768383 -0.234066,0.07057 -0.57562,0.06971 -0.847382,-0.0022 z m -23.564265,-0.08882 c -0.242108,-0.109919 -0.366305,-0.313928 -0.479619,-0.78784 -0.05337,-0.223212 -0.09704,-0.425834 -0.09704,-0.450271 0,-0.08397 0.150364,-0.195076 0.264,-0.195076 0.16314,0 0.228134,0.09978 0.323333,0.496412 0.09299,0.387391 0.199998,0.533031 0.362083,0.492761 0.282572,-0.0702 0.435849,-0.371639 0.368788,-0.725256 -0.04507,-0.2377 -0.14727,-0.459989 -0.222239,-0.483434 -0.04142,-0.01295 -0.0479,0.01483 -0.0302,0.129763 0.01237,0.08044 0.03359,0.183422 0.04713,0.228859 0.03161,0.105996 -0.128895,0.27517 -0.261058,0.27517 -0.189417,0 -0.350828,-0.354749 -0.311811,-0.685296 0.04292,-0.363579 0.17516,-0.482207 0.537563,-0.482207 0.200801,0 0.214417,0.0068 0.403089,0.197724 0.230549,0.233452 0.322798,0.459761 0.353641,0.867586 0.03863,0.510699 -0.158674,0.896254 -0.561306,1.096894 -0.235785,0.117497 -0.472722,0.125736 -0.69634,0.02421 z m 4.509935,0.0074 c -0.108869,-0.0882 -0.146452,-0.265729 -0.191821,-0.90607 -0.04497,-0.63463 -0.01949,-0.776723 0.168833,-0.94208 0.176187,-0.154697 0.434501,-0.205142 0.969004,-0.189238 0.375375,0.01117 0.455477,0.02469 0.546089,0.09214 0.233971,0.174168 0.101666,0.506468 -0.176271,0.442736 -0.212904,-0.04881 -0.83592,-0.03488 -0.937652,0.02097 -0.08959,0.04919 -0.0901,0.05294 -0.06755,0.501347 0.0176,0.349974 0.04007,0.48506 0.09969,0.599454 0.09525,0.182747 0.09779,0.303148 0.0081,0.384319 -0.09018,0.08161 -0.31564,0.07967 -0.418411,-0.0035 z m 4.329954,-0.07619 c -0.07989,-0.06469 -0.08284,-0.09427 -0.09506,-0.95095 -0.0069,-0.486297 -0.02459,-0.97201 -0.03921,-1.079359 -0.02644,-0.193931 -0.02792,-0.195711 -0.230275,-0.277842 -0.232555,-0.09439 -0.352228,-0.223305 -0.352228,-0.379439 0,-0.130924 0.118329,-0.25855 0.239719,-0.25855 0.049,0 0.13461,0.03583 0.190265,0.0796 l 0.10119,0.0796 -0.02471,-0.29615 c -0.01359,-0.16288 -0.04972,-0.533415 -0.08031,-0.823406 -0.03057,-0.289994 -0.05532,-0.584041 -0.05498,-0.653442 7.57e-4,-0.164583 0.09808,-0.269262 0.250238,-0.269262 0.193125,0 0.249658,0.09851 0.285632,0.497714 0.01734,0.192316 0.04869,0.536089 0.06968,0.763942 0.02099,0.22785 0.04822,0.526608 0.06049,0.663906 l 0.02231,0.249635 0.232876,0.02522 c 0.308532,0.0334 0.701374,0.129164 0.809351,0.1973 0.120051,0.07576 0.103084,0.296223 -0.03039,0.3948 -0.09203,0.06797 -0.103919,0.06747 -0.526342,-0.02229 -0.237703,-0.05049 -0.437433,-0.08658 -0.443844,-0.08017 -0.0064,0.0064 0.0075,0.396843 0.03106,0.867627 0.02349,0.470786 0.03147,0.930957 0.01774,1.022604 -0.04172,0.278231 -0.249535,0.397641 -0.433199,0.248918 z m 27.63028,-1.893718 c -0.225619,-0.234024 -0.268784,-0.405524 -0.137309,-0.545476 0.108048,-0.115012 0.332,-0.127526 0.425876,-0.0238 0.0343,0.03789 0.06233,0.0848 0.06233,0.104243 0,0.01945 0.04236,0.09772 0.09414,0.173929 0.167267,0.24615 0.09157,0.482873 -0.153609,0.480393 -0.08192,-8.49e-4 -0.156354,-0.04917 -0.291437,-0.189294 z M 29.865568,58.714363 C 29.750636,58.58009 29.73082,58.529713 29.73082,58.37181 c 0,-0.421301 0.429757,-0.626435 0.729808,-0.348356 0.127377,0.118048 0.124993,0.225294 -0.0079,0.358252 -0.07333,0.07332 -0.106707,0.144939 -0.106707,0.228941 0,0.08176 -0.0284,0.145229 -0.08577,0.191686 -0.137152,0.11106 -0.244791,0.08706 -0.394613,-0.08798 z"
       id="path2108" />
  </g>
</svg>
