<?xml version="1.0" encoding="UTF-8" standalone="no"?>
<!-- Created with Inkscape (http://www.inkscape.org/) -->

<svg
   width="146.81914"
   height="23.354515"
   viewBox="0 0 38.845896 6.1792156"
   version="1.1"
   id="svg5"
   inkscape:version="1.1.2 (0a00cf5339, 2022-02-04, custom)"
   sodipodi:docname="game-accounts.svg"
   xmlns:inkscape="http://www.inkscape.org/namespaces/inkscape"
   xmlns:sodipodi="http://sodipodi.sourceforge.net/DTD/sodipodi-0.dtd"
   xmlns="http://www.w3.org/2000/svg"
   xmlns:svg="http://www.w3.org/2000/svg">
  <sodipodi:namedview
     id="namedview7"
     pagecolor="#ffffff"
     bordercolor="#666666"
     borderopacity="1.0"
     inkscape:pageshadow="2"
     inkscape:pageopacity="0.0"
     inkscape:pagecheckerboard="0"
     inkscape:document-units="mm"
     showgrid="false"
     units="px"
     fit-margin-top="0"
     fit-margin-left="0"
     fit-margin-right="0"
     fit-margin-bottom="0"
     inkscape:zoom="0.733172"
     inkscape:cx="379.8563"
     inkscape:cy="295.97421"
     inkscape:window-width="1920"
     inkscape:window-height="1009"
     inkscape:window-x="-8"
     inkscape:window-y="-8"
     inkscape:window-maximized="1"
     inkscape:current-layer="layer1" />
  <defs
     id="defs2" />
  <g
     inkscape:label="Capa 1"
     inkscape:groupmode="layer"
     id="layer1"
     transform="translate(-4.1895047,-0.35751128)">
    <path
       style="fill:#000000;stroke-width:0.0292055"
       d="M 5.6603399,6.5175853 C 5.4491906,6.5061877 5.324573,6.4851129 5.2602157,6.4499207 5.2088089,6.4218111 5.1466358,6.3988114 5.1220537,6.3988114 5.075958,6.3988114 4.7636383,6.1951962 4.5067262,5.997652 4.4264112,5.9358961 4.328001,5.8267564 4.2880364,5.755118 4.2194599,5.6321927 4.2144036,5.5920199 4.1981268,5.04076 4.1711764,4.1280268 4.1973294,3.9197193 4.4235891,3.2446266 4.4478169,3.1723435 4.4853932,3.0540609 4.5070945,2.981778 4.56336,2.7943689 4.663278,2.515464 4.7127021,2.4078587 4.7359502,2.3572416 4.7549915,2.3046718 4.7550149,2.2910374 4.7550385,2.2774013 4.8488829,2.0822509 4.9635579,1.8573692 5.078233,1.6324876 5.1968576,1.3990945 5.2271681,1.3387187 5.3305443,1.1328029 5.4554889,0.95574706 5.6529118,0.73540456 6.0060194,0.34130416 6.00228,0.34435836 6.1068926,0.36456506 6.2390728,0.39009436 6.312406,0.48758326 6.2923588,0.61111896 6.2809555,0.68139086 6.225333,0.76022836 6.0985119,0.88587476 5.753957,1.2272388 5.7246296,1.2718986 5.3508,2.0244864 5.1142708,2.500665 5.0590624,2.6263689 5.0329732,2.7481442 5.0209292,2.8043592 5.0013312,2.8634962 4.9894202,2.8795591 4.9665082,2.9104601 4.843615,3.2774422 4.749808,3.5950917 4.718974,3.6995015 4.674267,3.8506395 4.650458,3.930954 4.593466,4.1232086 4.58957,5.3904789 4.645568,5.5205308 4.677882,5.5955748 4.955363,5.843909 5.0069006,5.843909 c 0.011005,0 0.062353,0.032299 0.1141089,0.071775 C 5.3232264,6.0699218 5.5857347,6.1203214 6.1860348,6.120157 6.4121747,6.1200995 6.7744099,6.0589001 6.9066029,5.9984247 7.0630963,5.9268327 7.3036287,5.7407343 7.5470883,5.502885 7.7831873,5.2722259 7.8049248,5.2124007 7.7650792,4.9029428 7.7409711,4.7157118 7.7087966,4.6426893 7.5362657,4.3836379 7.4663452,4.2786539 7.3193319,4.1792002 7.2340645,4.1792002 c -0.026449,0 -0.1353787,-0.032857 -0.2420672,-0.073014 -0.1066885,-0.040157 -0.2142698,-0.073014 -0.2390694,-0.073014 -0.0248,0 -0.088166,0.032857 -0.1408156,0.073014 C 6.4956066,4.19505 6.4224935,4.1981894 6.3214008,4.1186692 6.2091143,4.0303442 6.2200557,3.9221449 6.3568633,3.7679823 6.466212,3.644761 6.4747742,3.6410213 6.6708215,3.6308538 c 0.1511915,-0.00784 0.2453221,0.005 0.3767763,0.051389 0.096378,0.034012 0.2429866,0.078873 0.3257973,0.09969 0.1843284,0.046336 0.4657928,0.2347903 0.5279048,0.3534585 0.02522,0.04819 0.05691,0.1073304 0.07041,0.1314249 0.159534,0.2847166 0.175557,0.3353722 0.207651,0.6564976 0.0496,0.4962682 0.0026,0.5981747 -0.4600347,0.9985491 C 7.3112194,6.2750057 7.1196107,6.3908302 6.8431599,6.4514899 6.4143475,6.5455812 6.2986634,6.5520461 5.6603404,6.5175847 Z M 42.042587,6.4078087 c -0.02834,-0.00738 -0.07181,-0.052696 -0.09663,-0.1006846 -0.04204,-0.081298 -0.04074,-0.096302 0.01908,-0.2198954 0.08386,-0.1732247 0.262857,-0.360141 0.344887,-0.360141 0.07374,0 0.207632,0.1215113 0.207632,0.1884297 0,0.02478 -0.03974,0.1291699 -0.08831,0.2319737 -0.06718,0.1421837 -0.11192,0.198118 -0.186947,0.2337209 -0.101382,0.048108 -0.11188,0.049506 -0.199723,0.026597 z M 15.860527,6.2679704 C 15.742136,6.2162174 15.315211,5.778271 15.250771,5.6424716 15.139546,5.4080828 15.09216,5.0258597 15.151087,4.8383957 c 0.0155,-0.04933 0.03514,-0.1245348 0.04364,-0.1671227 0.02734,-0.1370302 0.261588,-0.3897281 0.46484,-0.5014498 0.290732,-0.1598064 0.548697,-0.2297924 0.761354,-0.206558 0.244361,0.0267 0.466944,0.11481 0.555304,0.2198205 0.153875,0.182871 0.07238,0.5213042 -0.188016,0.7808039 -0.348274,0.3470728 -0.966358,0.5630036 -1.161523,0.4057845 -0.026,-0.020947 -0.03651,-0.017 -0.03651,0.01371 0,0.044351 0.0457,0.100657 0.297127,0.366093 L 16.033,5.9032908 16.271573,5.8861978 c 0.350314,-0.025102 0.446694,-0.069013 0.618244,-0.2816582 0.226281,-0.280491 0.26644,-0.315532 0.36162,-0.315532 0.09315,0 0.207885,0.1121652 0.207885,0.2032365 0,0.1064729 -0.374372,0.5611634 -0.54514,0.662095 -0.181827,0.1074688 -0.284715,0.1306049 -0.637679,0.1433961 -0.234792,0.00851 -0.346754,5.411e-4 -0.415981,-0.029763 z m 0.153132,-1.3134401 c 0.21713,-0.077267 0.352849,-0.157219 0.467624,-0.2754797 C 16.623124,4.5329028 16.656289,4.4547044 16.58863,4.425944 16.455905,4.369526 16.277995,4.363442 16.147516,4.410858 c -0.224756,0.081679 -0.428926,0.1989892 -0.4788,0.2751069 -0.04622,0.070534 -0.04522,0.07306 0.04039,0.1029041 0.05757,0.02007 0.09841,0.061127 0.118703,0.1193392 0.0356,0.1021348 0.03172,0.1011679 0.185851,0.046321 z m 22.587155,1.1424738 c -0.07406,-0.018731 -0.156203,-0.052092 -0.182536,-0.074137 -0.07087,-0.059337 -0.06108,-0.2225987 0.01783,-0.2972801 0.05734,-0.054261 0.08619,-0.059587 0.226343,-0.041787 0.250437,0.031806 0.703391,0.038138 0.832354,0.011637 0.515874,-0.1060115 0.496907,-0.0998 0.486839,-0.1594276 -0.0053,-0.031443 -0.07347,-0.1425936 -0.15147,-0.2470034 C 39.752174,5.1845971 39.634341,5.0268879 39.568325,4.938541 39.365301,4.666844 39.084177,4.2163061 38.956983,3.9587865 38.865073,3.7726947 38.821602,3.450184 38.866723,3.2890453 c 0.05904,-0.2108819 0.181051,-0.3782682 0.327338,-0.4490852 0.104834,-0.05075 0.178813,-0.062022 0.390281,-0.059467 0.391159,0.00472 0.622802,0.053355 0.690784,0.1450174 0.06951,0.093727 0.04572,0.2151593 -0.05511,0.2812233 -0.06131,0.040175 -0.102778,0.041897 -0.31037,0.01289 -0.455115,-0.063596 -0.570285,-0.036254 -0.631747,0.149977 -0.04164,0.1261606 0.01965,0.3654172 0.148294,0.5788907 0.24901,0.4132242 0.541857,0.8513208 0.642035,0.9604773 0.10738,0.117009 0.284521,0.4049816 0.318142,0.5172012 0.05386,0.1797802 0.01623,0.369017 -0.0914,0.4595794 -0.09244,0.077784 -0.286498,0.147066 -0.551915,0.1970463 -0.239336,0.045068 -0.983613,0.054327 -1.142246,0.014209 z M 12.162484,5.8417895 c -0.09336,-0.07344 -0.101366,-0.1926101 -0.01989,-0.2961908 0.07678,-0.09761 0.119043,-0.3784074 0.08478,-0.5632499 -0.05574,-0.3006601 -0.05916,-0.4419245 -0.0159,-0.6571222 0.02422,-0.1204718 0.03716,-0.2616667 0.02877,-0.3137651 -0.02735,-0.1698017 0.01375,-0.2945449 0.114137,-0.3464579 0.08294,-0.042888 0.0995,-0.042997 0.187088,-0.00122 0.116224,0.055424 0.148989,0.1558127 0.169607,0.5196584 0.04126,0.728075 0.393121,0.9701212 0.63418,0.436251 0.147491,-0.3266445 0.182356,-0.3895604 0.295613,-0.5334497 0.11484,-0.1459003 0.23894,-0.2282924 0.343857,-0.2282924 0.03418,0 0.114199,0.05257 0.177812,0.1168224 0.06361,0.064252 0.127957,0.1168213 0.142987,0.1168213 0.08154,0 0.150133,0.2862311 0.17299,0.7218465 0.0036,0.068348 0.217055,0.2711374 0.285415,0.2711374 0.111536,0 0.191691,0.1050125 0.174901,0.2291422 -0.02518,0.1861671 -0.0806,0.3669782 -0.128807,0.4202466 -0.06391,0.070617 -0.217038,0.065003 -0.314325,-0.011523 -0.06849,-0.05387 -0.07804,-0.078943 -0.06557,-0.1719764 0.01325,-0.098794 0.0018,-0.1221627 -0.123625,-0.2515686 -0.161282,-0.1664437 -0.264211,-0.4089105 -0.264211,-0.6223928 0,-0.1534118 -0.04,-0.2928595 -0.08401,-0.2928595 -0.03931,0 -0.141868,0.1843216 -0.197922,0.3556959 -0.05596,0.1710711 -0.181021,0.344807 -0.340828,0.4734602 -0.09741,0.078422 -0.138415,0.09112 -0.321259,0.099483 -0.163611,0.00748 -0.233274,-0.00276 -0.317514,-0.046684 -0.130866,-0.068238 -0.131861,-0.066571 -0.158061,0.2651336 -0.02346,0.2969691 -0.07584,0.3715933 -0.260871,0.3715933 -0.0796,0 -0.1493,-0.021163 -0.199347,-0.06053 z M 9.6906879,5.8535545 C 9.5275539,5.7978907 9.3991789,5.7181755 9.3378759,5.6344767 9.1526229,5.3815459 9.0598989,5.1047724 9.0876749,4.8876432 c 0.05996,-0.4687003 0.123485,-0.6330889 0.318245,-0.8235034 0.06887,-0.067328 0.118245,-0.089378 0.200158,-0.089378 0.108529,0 0.108677,-2.207e-4 0.07591,-0.086993 -0.02805,-0.074313 -0.02393,-0.09879 0.02828,-0.1679306 0.05525,-0.073181 0.07775,-0.080696 0.234706,-0.07841 0.1483751,0.00216 0.1940621,0.017014 0.3144501,0.1022189 0.361656,0.2559696 0.524434,0.5237182 0.522244,0.859032 -7.4e-4,0.1124402 -0.01023,0.2767205 -0.02109,0.3650674 l -0.01976,0.1606301 0.131523,0.095433 c 0.07234,0.052489 0.164878,0.1081165 0.205646,0.1236163 0.111502,0.042393 0.418445,0.00242 0.590926,-0.076961 0.224462,-0.1033005 0.304379,-0.1129942 0.386088,-0.04683 0.07783,0.063019 0.09424,0.2076619 0.03207,0.2825709 -0.02058,0.024794 -0.128278,0.091388 -0.239334,0.1479856 -0.191472,0.097579 -0.218879,0.1032609 -0.529658,0.1098033 -0.366846,0.00773 -0.461351,-0.017504 -0.644993,-0.1721761 l -0.112817,-0.095021 -0.07275,0.086455 c -0.09948,0.1182274 -0.478752,0.2905182 -0.6330031,0.2875546 -0.06601,-0.00128 -0.139724,-0.00903 -0.163819,-0.017253 z M 10.107061,5.348525 c 0.135862,-0.081133 0.162433,-0.1722091 0.09431,-0.32327 -0.04208,-0.093311 -0.04841,-0.1635053 -0.03472,-0.3851628 0.0092,-0.1490815 0.02542,-0.299585 0.03603,-0.3344528 0.01582,-0.051978 -0.0062,-0.082093 -0.122226,-0.1672066 -0.07784,-0.057096 -0.1714001,-0.104137 -0.2079121,-0.1045357 -0.06434,-6.551e-4 -0.06489,0.00157 -0.01794,0.073209 0.07456,0.1137967 0.02453,0.2522749 -0.10649,0.2947414 -0.14162,0.045901 -0.197246,0.1573703 -0.221066,0.4429988 -0.01826,0.218922 -0.01371,0.2534628 0.04956,0.376491 0.124858,0.2427636 0.276163,0.279042 0.5304471,0.1271874 z M 22.226527,5.6945184 C 21.8952,5.5305141 21.735586,5.0826948 21.842573,4.6172816 c 0.04934,-0.2146357 0.233319,-0.6473875 0.335405,-0.7889335 0.121613,-0.1686195 0.410644,-0.4446822 0.530421,-0.5066212 0.148364,-0.076723 0.307273,-0.062572 0.41369,0.036837 0.04989,0.046601 0.09079,0.1024572 0.09089,0.1241232 3.42e-4,0.064863 0.16997,0.1463828 0.23369,0.1122813 0.08479,-0.045376 0.169603,-0.034479 0.234165,0.030082 0.05225,0.052254 0.05848,0.092333 0.0533,0.3431634 -0.0048,0.2307713 0.005,0.3067952 0.05186,0.405623 0.06034,0.1271575 0.228833,0.3408551 0.372743,0.472757 0.04641,0.042539 0.09999,0.092433 0.119061,0.1108759 0.117582,0.1136988 0.724908,0.3607417 0.886842,0.3607417 0.133468,0 0.193465,-0.040256 0.260695,-0.1749201 0.106745,-0.213809 0.363791,-0.183691 0.38077,0.044614 0.01366,0.1836879 -0.09559,0.3598984 -0.284256,0.4584557 C 25.228306,5.7997102 24.858263,5.738579 24.27879,5.4410073 24.048768,5.3228857 23.840681,5.1502075 23.659922,4.9274453 l -0.09195,-0.1133134 -0.01979,0.1425194 c -0.04008,0.2886739 -0.182894,0.4818581 -0.464759,0.6286791 -0.34173,0.1780054 -0.640868,0.2161216 -0.856902,0.1091873 z M 22.673598,5.30754 c 0.174384,-0.04644 0.377532,-0.1683888 0.423455,-0.2541959 0.01804,-0.033705 0.04735,-0.2226132 0.06514,-0.4197943 0.03018,-0.3345257 0.02836,-0.3690432 -0.02715,-0.5159506 -0.05623,-0.1488124 -0.06783,-0.160163 -0.211729,-0.2071353 -0.104473,-0.034104 -0.173675,-0.041545 -0.220564,-0.023718 -0.205072,0.077968 -0.509802,0.7768735 -0.473258,1.0854293 0.02182,0.1842399 0.07435,0.2913219 0.165549,0.3374498 0.09081,0.045933 0.09847,0.045875 0.278556,-0.00208 z m 14.875858,0.2119102 c -0.05317,-0.053168 -0.05965,-0.086178 -0.04728,-0.2409442 0.0079,-0.098634 0.04371,-0.3041882 0.07962,-0.4567867 0.05884,-0.2500555 0.06622,-0.3678426 0.07479,-1.1928614 l 0.0095,-0.9154112 -0.07863,0.02009 c -0.204698,0.052303 -0.477005,0.1002264 -0.662727,0.1166359 -0.165126,0.01459 -0.223957,0.00793 -0.305933,-0.034685 -0.115953,-0.060264 -0.194184,-0.2243991 -0.164095,-0.3442846 0.04755,-0.1894587 0.255261,-0.2537864 0.36578,-0.1132835 0.05513,0.070082 0.07372,0.075519 0.20508,0.059962 0.07945,-0.00942 0.245197,-0.040546 0.368321,-0.06919 l 0.22386,-0.052082 -0.01857,-0.1811865 c -0.0102,-0.099653 -0.03629,-0.2314241 -0.05795,-0.2928231 -0.02167,-0.0614 -0.05654,-0.275832 -0.0775,-0.4765143 -0.02096,-0.2006824 -0.05553,-0.39080104 -0.07682,-0.42248544 -0.134425,-0.2000794 0.07736,-0.4464812 0.287224,-0.3341669 0.09111,0.048761 0.170298,0.262522 0.185053,0.49956234 0.01994,0.3201087 0.048,0.523056 0.08818,0.637612 0.01985,0.056585 0.04562,0.1850689 0.05728,0.2855214 l 0.02119,0.1826415 0.10656,-0.019215 c 0.05861,-0.010574 0.126279,-0.028877 0.150373,-0.040686 0.02409,-0.011808 0.17166,-0.038664 0.327917,-0.059677 0.265133,-0.035655 0.28805,-0.034637 0.343161,0.01524 0.05907,0.053456 0.07956,0.2021769 0.03671,0.2663624 -0.03579,0.053596 -0.129472,0.091102 -0.313511,0.1255128 -0.09638,0.018019 -0.270519,0.054979 -0.386972,0.082131 l -0.211739,0.049369 v 0.1085006 c 0,0.059675 -0.0051,0.507172 -0.01136,0.9944375 -0.0098,0.763985 -0.01991,0.9258115 -0.07336,1.1756164 -0.04156,0.1941718 -0.05597,0.3351064 -0.04372,0.4274579 0.01541,0.1160486 0.0085,0.1475145 -0.04346,0.1995112 -0.08425,0.084252 -0.272788,0.084317 -0.356983,1.105e-4 z m -8.864072,0.00469 C 28.414442,5.4594592 28.073489,5.1917471 27.981421,4.9713989 27.923511,4.8327937 27.915471,4.0933005 27.970111,3.9309551 28.113697,3.5043436 28.259675,3.1500088 28.34647,3.0174094 c 0.05551,-0.084811 0.211281,-0.2523778 0.346144,-0.3723683 0.224311,-0.1995717 0.25591,-0.2181647 0.370785,-0.2181647 0.101207,0 0.141753,0.016883 0.208923,0.086994 0.148962,0.1554827 0.07668,0.387611 -0.120687,0.3875822 -0.20529,-2.99e-5 -0.469797,0.2916554 -0.615768,0.6790377 -0.187193,0.4967828 -0.195548,0.5355658 -0.190378,0.8837237 0.0045,0.3060847 0.01018,0.3357674 0.08153,0.4293091 0.07945,0.104166 0.280872,0.2202511 0.38216,0.2202511 0.03197,0 0.102653,-0.032856 0.157084,-0.073013 0.12687,-0.093602 0.271858,-0.097118 0.334206,-0.0081 0.08061,0.1150837 0.05752,0.2121167 -0.07866,0.3305009 -0.201569,0.1752371 -0.323476,0.2118211 -0.536425,0.1609833 z m 6.286531,-0.1204331 c -0.126858,-0.099784 -0.08043,-0.374928 0.08112,-0.4807806 0.04144,-0.02715 0.150541,-0.1497397 0.242451,-0.2724221 0.254453,-0.3396365 0.680047,-0.822415 0.780395,-0.8852502 0.100184,-0.062733 0.273856,-0.053447 0.38716,0.020702 0.12739,0.083369 0.247661,0.3005423 0.271746,0.490695 0.01253,0.099 0.03682,0.2128575 0.05397,0.2530149 0.01714,0.040157 0.04629,0.1507926 0.06476,0.2458553 0.02777,0.1428914 0.0533,0.1905347 0.147324,0.2749412 0.133678,0.1200059 0.145671,0.2092579 0.04204,0.312885 -0.09773,0.097735 -0.299707,0.1008402 -0.388544,0.00597 C 36.582382,5.2924748 36.47879,5.0613028 36.441675,4.894733 36.326332,4.3771311 36.277902,4.1972316 36.251524,4.1884396 36.214614,4.1761363 35.891137,4.5539385 35.531136,5.0298104 35.184104,5.4885431 35.127702,5.5262521 34.971915,5.4037071 Z m -1.391387,0.00404 C 33.366337,5.3425935 33.208958,5.2004317 32.9641,4.8509259 32.714025,4.493976 32.688567,4.440915 32.495924,3.8750703 32.37368,3.5160164 32.359426,3.3474985 32.438232,3.1930258 32.557696,2.9588589 32.724716,2.8851232 32.85058,3.0109849 c 0.0753,0.075297 0.0742,0.1866085 -0.0031,0.311651 -0.05947,0.09623 -0.0599,0.1040333 -0.01296,0.237091 0.02671,0.075672 0.0605,0.1835839 0.0751,0.2398042 0.08414,0.3240415 0.429233,0.9337356 0.631138,1.1150745 0.08192,0.073576 0.215535,0.1161127 0.30382,0.096722 0.09235,-0.020283 0.116465,-0.066539 0.251123,-0.4816601 0.149038,-0.4594481 0.148901,-0.458874 0.18742,-0.7875497 0.03174,-0.2708139 0.04509,-0.3149294 0.117129,-0.3869716 0.09758,-0.097581 0.16796,-0.1023866 0.274314,-0.018728 0.08914,0.07012 0.08902,0.054106 0.0046,0.5945387 -0.07761,0.4967253 -0.297987,1.1534667 -0.444485,1.3246163 -0.135506,0.1583096 -0.417972,0.2240182 -0.654158,0.1521744 z m -7.214662,-0.067628 c -0.178235,-0.089879 -0.249614,-0.2431474 -0.275125,-0.5907645 -0.01732,-0.2359497 -0.0098,-0.3016572 0.07211,-0.628562 0.117205,-0.4678847 0.242633,-0.8339223 0.380406,-1.1101373 0.236014,-0.4731774 0.690467,-0.7101071 0.833079,-0.4343272 0.03714,0.071823 0.03997,0.106292 0.01389,0.1692432 -0.03323,0.080224 -0.165722,0.1777988 -0.241423,0.1777988 -0.145319,0 -0.352011,0.443064 -0.548489,1.1757357 -0.09875,0.3682694 -0.112935,0.4575328 -0.09742,0.6133148 0.0199,0.1998191 0.05156,0.2846878 0.106052,0.2842495 0.01951,-1.102e-4 0.106984,-0.03357 0.194377,-0.07425 0.133041,-0.061929 0.171632,-0.06869 0.237156,-0.041549 0.171367,0.070983 0.162693,0.260574 -0.01755,0.3836705 -0.219534,0.1499282 -0.455742,0.177098 -0.657063,0.075577 z m 4.210555,-0.032098 C 30.296634,5.1770476 30.196756,5.1009618 30.146395,4.9804304 c -0.05853,-0.1400745 -0.05125,-0.2453529 0.02958,-0.4281246 0.08664,-0.1959148 0.144089,-0.2562809 0.243885,-0.2562809 0.05971,0 0.06898,-0.00779 0.04172,-0.035047 -0.0476,-0.047598 -0.04404,-0.1880003 0.01013,-0.3994625 0.115673,-0.451516 0.401649,-0.736523 0.838147,-0.8353044 0.433434,-0.09809 0.677874,-0.00423 0.876683,0.3366319 0.142444,0.2442217 0.167182,0.339643 0.167378,0.6456314 2.23e-4,0.4123545 -0.170505,0.821288 -0.433354,1.0377208 -0.06215,0.051177 -0.235124,0.1480363 -0.384378,0.2152418 -0.228673,0.102965 -0.308604,0.1241694 -0.507982,0.134753 -0.221741,0.011771 -0.250136,0.00623 -0.451791,-0.08817 z m 0.817405,-0.4393946 c 0.368053,-0.1713051 0.522573,-0.4051155 0.545451,-0.8253501 0.01233,-0.2266035 0.0082,-0.2467273 -0.08437,-0.4152053 -0.06125,-0.1114138 -0.126154,-0.188994 -0.17506,-0.2092513 -0.151584,-0.062787 -0.475014,0.044748 -0.630238,0.2095427 -0.09204,0.097717 -0.214201,0.4062809 -0.214201,0.5410615 0,0.083805 -0.09616,0.1850125 -0.175789,0.1850125 -0.04801,0 -0.05563,0.013309 -0.04099,0.071608 0.0099,0.039386 -0.0042,0.1384298 -0.03135,0.2200987 -0.0577,0.1737003 -0.03929,0.2123374 0.126344,0.2652296 0.05895,0.018825 0.120326,0.046999 0.136389,0.062609 0.05281,0.051319 0.317282,8.72e-5 0.543816,-0.1053559 z M 42.722009,3.5366836 c -0.02409,-0.01557 -0.07933,-0.028512 -0.122748,-0.028758 -0.181923,-9.968e-4 -0.286589,-0.111374 -0.28568,-0.301177 5.69e-4,-0.1107116 0.02056,-0.1458024 0.110176,-0.1930085 0.06818,-0.035914 0.164337,-0.021044 0.23603,0.036499 0.02199,0.017657 0.08526,0.033675 0.140582,0.035596 0.124229,0.00432 0.210215,0.085511 0.231871,0.2189607 0.03011,0.1855721 -0.160928,0.328373 -0.310231,0.2318878 z"
       id="path836" />
  </g>
</svg>
