<?xml version="1.0" encoding="UTF-8" standalone="no"?>
<!-- Created with Inkscape (http://www.inkscape.org/) -->

<svg
   width="26.299063mm"
   height="5.0567513mm"
   viewBox="0 0 26.299063 5.0567515"
   version="1.1"
   id="svg5"
   inkscape:version="1.1.1 (3bf5ae0d25, 2021-09-20)"
   sodipodi:docname="more-books.svg"
   xmlns:inkscape="http://www.inkscape.org/namespaces/inkscape"
   xmlns:sodipodi="http://sodipodi.sourceforge.net/DTD/sodipodi-0.dtd"
   xmlns="http://www.w3.org/2000/svg"
   xmlns:svg="http://www.w3.org/2000/svg">
  <sodipodi:namedview
     id="namedview7"
     pagecolor="#ffffff"
     bordercolor="#666666"
     borderopacity="1.0"
     inkscape:pageshadow="2"
     inkscape:pageopacity="0.0"
     inkscape:pagecheckerboard="0"
     inkscape:document-units="mm"
     showgrid="false"
     fit-margin-top="0"
     fit-margin-left="0"
     fit-margin-right="0"
     fit-margin-bottom="0"
     inkscape:zoom="1.0104048"
     inkscape:cx="82.145295"
     inkscape:cy="-44.041754"
     inkscape:window-width="1920"
     inkscape:window-height="991"
     inkscape:window-x="-9"
     inkscape:window-y="-9"
     inkscape:window-maximized="1"
     inkscape:current-layer="layer1" />
  <defs
     id="defs2" />
  <g
     inkscape:label="Capa 1"
     inkscape:groupmode="layer"
     id="layer1"
     transform="translate(-16.111323,-56.377306)">
    <path
       style="fill:#000000;stroke-width:0.0202161"
       d="m 35.041785,61.420303 c -0.0075,-0.0075 -0.08428,-0.01452 -0.170547,-0.01556 -0.126765,-0.0014 -0.178175,-0.01231 -0.268008,-0.05626 -0.330698,-0.161795 -0.798536,-0.854582 -0.992606,-1.469872 -0.07569,-0.239998 -0.102976,-0.302688 -0.08853,-0.203425 0.02657,0.182688 0.03481,0.943115 0.01112,1.029802 -0.05343,0.195531 -0.241672,0.287688 -0.355383,0.173977 -0.06115,-0.06116 -0.06428,-0.14556 -0.0092,-0.24834 0.06531,-0.121854 0.05764,-0.338413 -0.05924,-1.673111 -0.0214,-0.244616 -0.04993,-0.603958 -0.0633,-0.798538 l -0.02435,-0.353783 -0.06807,-0.06467 c -0.06734,-0.06398 -0.07665,-0.08965 -0.0682,-0.18803 0.01717,-0.200025 0.236602,-0.313632 0.361177,-0.186998 0.0938,0.09535 0.128521,0.285767 0.167979,0.921281 0.02097,0.337835 0.03019,0.403562 0.05877,0.418855 0.02791,0.01494 0.04014,0.0013 0.06936,-0.07726 0.08246,-0.221781 0.175384,-0.307491 0.333438,-0.307547 0.180577,-6.1e-5 0.484673,0.215226 0.583495,0.413099 0.02664,0.05334 0.0432,0.124833 0.0432,0.186461 0,0.08672 -0.0089,0.108592 -0.06732,0.165206 -0.100244,0.09715 -0.245507,0.144841 -0.441222,0.144841 h -0.164447 l 0.01229,0.126351 c 0.0068,0.0695 0.02151,0.153643 0.0328,0.186999 0.01128,0.03337 0.04876,0.149389 0.08329,0.257852 0.126948,0.398631 0.426324,0.897662 0.685124,1.14204 0.09457,0.0893 0.124353,0.09387 0.212695,0.03273 0.07308,-0.05058 0.159767,-0.03434 0.230286,0.04315 0.05654,0.06212 0.07624,0.07075 0.161607,0.07075 0.05348,0 0.102244,-0.0049 0.108397,-0.01117 0.01901,-0.01899 -0.03892,-0.182631 -0.09731,-0.275018 -0.03052,-0.04829 -0.07578,-0.119644 -0.100564,-0.158559 -0.119848,-0.188196 -0.456696,-0.890627 -0.493789,-1.029694 -0.04348,-0.163064 0.0288,-0.321228 0.189989,-0.415695 0.120572,-0.07066 0.301621,-0.08422 0.67221,-0.05031 0.283429,0.02592 0.293581,0.02846 0.34159,0.08552 0.06404,0.07611 0.06257,0.138129 -0.0049,0.218682 l -0.0547,0.06499 -0.233389,-0.0165 c -0.342378,-0.02422 -0.521471,-0.02245 -0.549353,0.0055 -0.01868,0.01871 -0.01201,0.04748 0.0297,0.12786 0.02957,0.05705 0.05382,0.112156 0.05382,0.122466 0,0.03594 0.277592,0.57546 0.40319,0.783614 0.159056,0.263604 0.230736,0.462196 0.212528,0.588821 -0.0199,0.138551 -0.05821,0.211869 -0.13565,0.259727 -0.06136,0.03791 -0.100224,0.04352 -0.302193,0.04352 -0.127483,0 -0.237942,-0.0062 -0.245469,-0.01369 z m -0.948334,-2.55017 c 0.01823,-0.01157 0.007,-0.03324 -0.04042,-0.07813 -0.03608,-0.03417 -0.08481,-0.07195 -0.108258,-0.08394 -0.03642,-0.01865 -0.04597,-0.01446 -0.0657,0.02885 -0.03887,0.0853 -0.02908,0.126035 0.03252,0.135366 0.09847,0.01492 0.15608,0.01425 0.181876,-0.0022 z m 6.609985,2.288495 c -0.0044,-0.0043 -0.511925,-0.01288 -1.127927,-0.01897 -1.099117,-0.01083 -1.120844,-0.01182 -1.164799,-0.05312 -0.07765,-0.07295 -0.09308,-0.216679 -0.05625,-0.524118 0.01785,-0.148861 0.04949,-0.438954 0.07035,-0.644654 0.02084,-0.205699 0.05591,-0.5332 0.07789,-0.727781 0.0556,-0.492198 0.08175,-0.819034 0.09978,-1.247302 0.01473,-0.349842 0.0179,-0.370434 0.06398,-0.419516 0.02669,-0.02839 0.081,-0.06065 0.120744,-0.07169 0.09306,-0.02585 0.536499,-0.02615 0.696627,-4.74e-4 0.06799,0.0109 0.210055,0.02941 0.315682,0.04112 0.38689,0.0429 0.632425,0.103578 0.677062,0.167309 0.05204,0.07431 0.0388,0.172313 -0.03229,0.23871 -0.07124,0.06654 -0.142872,0.07457 -0.270103,0.03024 -0.177481,-0.06183 -0.750985,-0.141036 -1.031702,-0.142488 l -0.181944,-9.37e-4 -0.01423,0.272918 c -0.02291,0.438812 -0.05786,0.927426 -0.07877,1.101779 -0.01067,0.08895 -0.03219,0.266347 -0.04782,0.394215 -0.01563,0.127866 -0.03419,0.305263 -0.04125,0.394214 -0.007,0.08895 -0.02524,0.261799 -0.04047,0.384107 -0.01517,0.122307 -0.03313,0.272413 -0.03981,0.333566 l -0.01223,0.111189 0.420313,7.78e-4 c 0.231175,4.21e-4 0.73996,0.008 1.130635,0.01696 0.584734,0.01334 0.713301,0.01141 0.727216,-0.01087 0.0093,-0.01488 0.02363,-0.253855 0.0318,-0.531038 0.0081,-0.277183 0.02485,-0.56957 0.03696,-0.649748 0.01218,-0.08018 0.02018,-0.18544 0.01779,-0.233918 -0.0059,-0.121246 0.01523,-0.174361 0.0835,-0.20966 0.106406,-0.05502 0.255087,-0.03207 0.317332,0.049 0.03547,0.0462 0.03146,0.176679 -0.0072,0.235773 -0.05504,0.08396 -0.06744,0.196196 -0.08603,0.776786 -0.0154,0.480962 -0.02357,0.573667 -0.06075,0.687348 -0.04514,0.138152 -0.08679,0.201427 -0.157482,0.23926 -0.03863,0.02069 -0.417356,0.03023 -0.436587,0.011 z m -10.900792,-0.04858 c -0.283975,-0.04217 -0.527315,-0.186239 -0.699307,-0.414045 -0.102832,-0.136207 -0.159322,-0.370087 -0.120594,-0.499346 0.03219,-0.107422 0.127794,-0.152564 0.23142,-0.109266 0.07397,0.0309 0.09939,0.08446 0.122967,0.259012 0.01,0.07398 0.03252,0.116965 0.101698,0.19389 0.196555,0.21862 0.503842,0.277321 0.76883,0.146868 0.158206,-0.07788 0.272229,-0.198503 0.272229,-0.287976 0,-0.141997 -0.154537,-0.342852 -0.317756,-0.41301 -0.06618,-0.02844 -0.25929,-0.03799 -0.317399,-0.01569 -0.01757,0.0067 -0.03197,0.03353 -0.03197,0.05953 0,0.02599 -0.02107,0.07174 -0.04681,0.101678 -0.03753,0.04363 -0.06432,0.05443 -0.135067,0.05443 -0.07559,0 -0.09787,-0.0105 -0.155346,-0.07322 -0.0551,-0.06014 -0.06709,-0.0894 -0.06709,-0.163783 0,-0.125731 0.07642,-0.20899 0.259445,-0.282672 0.129945,-0.05231 0.156754,-0.05594 0.359964,-0.04872 0.180793,0.0064 0.237263,0.01644 0.319807,0.05669 0.150593,0.07344 0.33559,0.269975 0.425634,0.452171 0.07025,0.142128 0.07532,0.164014 0.06571,0.283652 -0.01935,0.241085 -0.180789,0.448396 -0.457803,0.587899 -0.126603,0.06376 -0.385526,0.13784 -0.453515,0.129759 -0.01317,-0.0015 -0.06943,-0.0096 -0.125026,-0.01785 z m 1.734261,-0.150141 c -0.215353,-0.0673 -0.438266,-0.270881 -0.504431,-0.460679 -0.04664,-0.133844 -0.05198,-0.674852 -0.0082,-0.829864 0.02847,-0.100697 0.0995,-0.176121 0.165906,-0.176121 0.03058,0 0.0377,-0.01545 0.0377,-0.08187 0,-0.27088 0.321653,-0.425729 0.610965,-0.294131 0.295583,0.13445 0.586986,0.50452 0.654558,0.831269 0.04281,0.207049 0.03024,0.446962 -0.03075,0.585863 -0.04637,0.105606 -0.190907,0.268885 -0.294744,0.332911 -0.174311,0.107484 -0.452715,0.148349 -0.631023,0.09263 z m 0.315926,-0.346023 c 0.148681,-0.04415 0.27583,-0.164117 0.301499,-0.284456 0.02679,-0.125724 -0.0069,-0.380399 -0.06229,-0.471727 -0.134243,-0.220987 -0.32138,-0.40481 -0.443259,-0.435398 -0.04687,-0.01176 -0.05874,-0.0045 -0.08897,0.05395 -0.04237,0.08197 -0.08483,0.116571 -0.144112,0.117425 -0.0357,5.12e-4 -0.0442,0.01181 -0.04225,0.05624 0.0011,0.03057 -0.0081,0.132682 -0.02102,0.2269 -0.03108,0.227134 -0.02957,0.336479 0.0063,0.457471 0.04209,0.141699 0.146524,0.240787 0.313863,0.297758 0.04964,0.01691 0.06853,0.015 0.180194,-0.01817 z m -4.137868,0.294415 c -0.232131,-0.04886 -0.418167,-0.210622 -0.600907,-0.522502 -0.157204,-0.268301 -0.31672,-0.829358 -0.365451,-1.285374 -0.05038,-0.471211 -0.05939,-1.196419 -0.02002,-1.607265 0.01856,-0.193856 0.0387,-0.360455 0.04476,-0.370218 0.0061,-0.0098 -0.0028,-0.0331 -0.01946,-0.05186 -0.09307,-0.104327 -0.0094,-0.311105 0.137116,-0.338579 0.133071,-0.02497 0.223181,0.0431 0.244403,0.184605 0.0074,0.04923 -0.0011,0.176084 -0.01996,0.2945 -0.09417,0.594585 -0.07459,1.675939 0.04014,2.215929 0.01424,0.06689 0.04931,0.09136 0.04931,0.03438 0,-0.161007 0.319507,-0.434133 0.576162,-0.492528 0.186364,-0.0424 0.462506,0.06389 0.648069,0.249453 0.125998,0.126001 0.174305,0.215388 0.22119,0.409289 0.04337,0.179345 0.03424,0.512963 -0.01801,0.659274 -0.152327,0.426401 -0.552966,0.697585 -0.9173,0.620899 z m 0.265956,-0.374205 c 0.163515,-0.07759 0.264366,-0.204476 0.327279,-0.411758 0.03709,-0.122235 0.03608,-0.235205 -0.0039,-0.41007 -0.02774,-0.122035 -0.04609,-0.156659 -0.126348,-0.238716 -0.05554,-0.0568 -0.133098,-0.11063 -0.189917,-0.131864 -0.09211,-0.03442 -0.09993,-0.0344 -0.192052,4.51e-4 -0.05282,0.01999 -0.129244,0.06929 -0.169846,0.109567 -0.06867,0.06812 -0.07307,0.07977 -0.06325,0.167035 0.0092,0.08149 0.0039,0.100647 -0.04153,0.145882 -0.0605,0.06049 -0.161562,0.0695 -0.231364,0.02062 -0.02474,-0.01731 -0.04492,-0.02812 -0.04492,-0.02401 0,0.0041 0.02608,0.08422 0.0579,0.178037 0.161484,0.475743 0.430716,0.712047 0.677719,0.594838 z m -11.743304,0.05258 c -0.06601,-0.02809 -0.108451,-0.08866 -0.122005,-0.174127 -0.01057,-0.06662 -0.0034,-0.09407 0.04197,-0.160729 l 0.0547,-0.08039 -0.01268,-0.334038 c -0.03575,-0.941649 -0.03763,-1.82966 -0.0049,-2.224299 0.0308,-0.36949 0.09244,-0.693704 0.153609,-0.807987 0.03008,-0.05618 0.148458,-0.121904 0.219593,-0.121904 0.05293,0 0.08074,0.02152 0.176152,0.136459 0.112405,0.135396 0.142971,0.179223 0.356022,0.510458 0.126788,0.197119 0.267129,0.451661 0.289795,0.52562 0.06654,0.217074 0.32659,0.584316 0.394112,0.556541 0.05054,-0.02079 0.221056,-0.25169 0.296479,-0.401455 0.03902,-0.07751 0.119559,-0.264643 0.178958,-0.415865 0.220673,-0.561829 0.496725,-1.053619 0.651684,-1.161008 0.106144,-0.07356 0.249526,-0.07577 0.315225,-0.0049 0.04687,0.05059 0.08707,0.234665 0.134938,0.618032 0.04209,0.337113 0.06184,1.355631 0.03909,2.016468 -0.01935,0.562564 -0.0183,0.636587 0.0098,0.676685 0.04903,0.07001 0.03864,0.164994 -0.02908,0.265321 -0.0641,0.095 -0.09375,0.114379 -0.174856,0.114379 -0.07154,0 -0.123407,-0.03274 -0.158061,-0.09975 -0.02613,-0.05057 -0.02718,-0.14564 -0.008,-0.732235 0.02457,-0.752195 0.0089,-1.902052 -0.03014,-2.200437 l -0.02508,-0.192054 -0.05321,0.09098 c -0.08907,0.152233 -0.250962,0.502835 -0.347377,0.752297 -0.235706,0.609868 -0.488642,0.962429 -0.742628,1.035126 -0.201698,0.05774 -0.26237,0.02325 -0.523222,-0.297346 -0.07255,-0.08916 -0.262287,-0.449012 -0.262287,-0.497439 0,-0.02891 -0.133192,-0.272089 -0.222568,-0.40637 -0.0407,-0.06116 -0.110565,-0.168593 -0.155237,-0.238753 l -0.08123,-0.127564 -0.02557,0.157888 c -0.04264,0.263185 -0.05592,0.998876 -0.03508,1.938249 0.02251,1.012922 0.01607,1.136828 -0.06333,1.222536 -0.05774,0.06233 -0.166978,0.09087 -0.235751,0.06161 z m 7.317243,-0.06336 c -0.281712,-0.108397 -0.567767,-0.461054 -0.696149,-0.858233 -0.02518,-0.07784 -0.05159,-0.14801 -0.05869,-0.155952 -0.0071,-0.0079 -0.05377,-3.82e-4 -0.103631,0.0168 -0.08599,0.02963 -0.380413,0.03982 -0.676959,0.02344 l -0.101079,-0.0056 v 0.346923 c 0,0.339291 -0.0011,0.348074 -0.04898,0.399268 -0.09946,0.106228 -0.307725,0.04406 -0.302767,-0.09037 0.0011,-0.02714 3.4e-4,-0.22225 -0.0016,-0.433588 -0.0022,-0.230683 0.0056,-0.406831 0.01818,-0.440746 0.03786,-0.09964 0.140603,-0.175701 0.237267,-0.175701 0.04692,0 0.09052,0.0085 0.09695,0.01888 0.0064,0.01038 0.04237,0.01391 0.07987,0.0078 0.03753,-0.0061 0.101831,4.1e-5 0.142949,0.01361 0.04114,0.01356 0.148992,0.02365 0.239732,0.0224 0.136616,-0.0019 0.184051,-0.0118 0.275951,-0.05776 l 0.110976,-0.0555 0.03458,-0.175453 c 0.06397,-0.324625 0.199357,-0.517794 0.440318,-0.628225 0.1207,-0.05531 0.144895,-0.05932 0.313352,-0.05193 0.151639,0.0066 0.204805,0.01855 0.313957,0.07021 0.25397,0.120196 0.3854,0.318084 0.400339,0.602779 0.0069,0.130829 0.0011,0.179915 -0.02697,0.234675 -0.06889,0.13376 -0.169508,0.234169 -0.302138,0.301491 -0.125814,0.06386 -0.138224,0.06611 -0.30837,0.05619 -0.144067,-0.0085 -0.201581,-0.02217 -0.306958,-0.07346 -0.07132,-0.03471 -0.145569,-0.07749 -0.164999,-0.09508 -0.03313,-0.03001 -0.0343,-0.02785 -0.01874,0.03525 0.07983,0.323321 0.214046,0.56425 0.401017,0.719848 0.138296,0.115091 0.223041,0.139033 0.404497,0.114283 0.154618,-0.02109 0.187598,-0.01507 0.240715,0.04397 0.09024,0.100286 0.03241,0.249955 -0.11211,0.290087 -0.125892,0.03496 -0.405258,0.02404 -0.520643,-0.02036 z M 23.81287,59.11989 c 0.01907,-0.01299 0.05443,-0.0488 0.07864,-0.07957 0.04081,-0.05187 0.04225,-0.06379 0.0199,-0.163716 -0.03797,-0.169704 -0.160056,-0.268462 -0.352764,-0.285378 -0.153824,-0.0135 -0.26863,0.05206 -0.339616,0.193985 -0.02957,0.05918 -0.05766,0.12768 -0.06235,0.152245 -0.0079,0.04121 -0.0022,0.04399 0.07403,0.03609 0.07405,-0.0077 0.09173,-6.1e-5 0.171432,0.07397 0.04887,0.0454 0.112549,0.08773 0.141509,0.09407 0.02896,0.0063 0.06175,0.01406 0.07287,0.01716 0.03614,0.0101 0.160823,-0.01461 0.196365,-0.03885 z m -3.3703,1.373953 c -0.114944,-0.06049 -0.242077,-0.189654 -0.286348,-0.29093 -0.04247,-0.09714 -0.06065,-0.414297 -0.02736,-0.476555 0.03275,-0.06122 0.119482,-0.09799 0.189601,-0.08038 0.08746,0.02194 0.12682,0.09211 0.140025,0.249603 0.01201,0.142949 0.06211,0.247758 0.131163,0.274257 0.01635,0.0063 0.07692,-0.0102 0.134548,-0.03654 0.08051,-0.03686 0.12149,-0.07323 0.176902,-0.157005 0.0786,-0.118831 0.10076,-0.192117 0.10076,-0.333152 0,-0.215197 -0.06773,-0.351119 -0.189301,-0.379831 -0.05282,-0.01248 -0.05443,-0.01031 -0.0512,0.07043 0.0028,0.06825 -0.0069,0.09202 -0.05277,0.131522 -0.08187,0.07041 -0.177663,0.06493 -0.244063,-0.01398 -0.04504,-0.05352 -0.05231,-0.08131 -0.05231,-0.199172 0,-0.108765 0.0094,-0.150735 0.04548,-0.203805 0.06721,-0.09874 0.134977,-0.140643 0.249405,-0.154196 0.195433,-0.02314 0.464741,0.119719 0.552388,0.293032 0.05221,0.103207 0.102884,0.342262 0.102884,0.485206 0,0.405722 -0.34874,0.823576 -0.721169,0.864093 -0.07946,0.0087 -0.116357,7.22e-4 -0.198667,-0.04257 z m 18.895503,-0.481336 c -0.06262,-0.06667 -0.05993,-0.192872 0.0057,-0.263609 0.02724,-0.02942 0.05847,-0.0535 0.06932,-0.0535 0.09795,0 0.811094,-0.67097 1.11732,-1.051239 0.08506,-0.10563 0.242711,-0.292123 0.350328,-0.414431 0.107623,-0.122307 0.258206,-0.31335 0.334635,-0.424538 0.13387,-0.194762 0.347916,-0.434421 0.424683,-0.475507 0.06302,-0.03373 0.134983,-0.02201 0.199819,0.03255 0.05243,0.04412 0.0622,0.06657 0.0622,0.143043 0,0.07333 -0.0102,0.09912 -0.05315,0.134663 -0.169419,0.140037 -0.260079,0.237234 -0.349624,0.374832 -0.118375,0.181891 -0.143843,0.213364 -0.617858,0.763386 -0.518235,0.601342 -0.905742,0.98458 -1.180938,1.167945 -0.195688,0.130385 -0.28657,0.14704 -0.362326,0.0664 z m 2.680843,-1.490909 -0.06192,-0.06192 0.01179,-0.317132 c 0.0065,-0.174423 0.03046,-0.462141 0.05337,-0.639372 0.02291,-0.177231 0.04158,-0.407275 0.04158,-0.51121 v -0.188976 l -0.116247,0.07932 c -0.161396,0.110131 -0.631752,0.52413 -0.631752,0.556056 0,0.05495 -0.09145,0.114128 -0.176396,0.114128 -0.06767,0 -0.0924,-0.01138 -0.13516,-0.0622 -0.05916,-0.07031 -0.06596,-0.135853 -0.02274,-0.219389 0.03069,-0.05933 0.326524,-0.345755 0.415177,-0.401952 0.0278,-0.01762 0.09603,-0.07399 0.151623,-0.125269 0.108062,-0.09967 0.358668,-0.270351 0.445327,-0.303298 0.07733,-0.0294 0.205261,-0.02436 0.27315,0.01074 0.03269,0.01691 0.07773,0.06658 0.100069,0.110383 0.06954,0.136305 0.05554,0.624224 -0.03948,1.375087 -0.01057,0.08339 -0.01957,0.240753 -0.02007,0.349693 -0.0011,0.187684 -0.0039,0.200673 -0.05437,0.247648 -0.07461,0.06915 -0.156765,0.06481 -0.233915,-0.01234 z"
       id="path3111" />
  </g>
</svg>
