<?xml version="1.0" encoding="UTF-8" standalone="no"?>
<!-- Created with Inkscape (http://www.inkscape.org/) -->

<svg
   width="107.36163"
   height="26.765394"
   viewBox="0 0 14.203048 3.5408383"
   version="1.1"
   id="svg5"
   inkscape:version="1.1.1 (3bf5ae0d25, 2021-09-20)"
   sodipodi:docname="quotes.svg"
   xmlns:inkscape="http://www.inkscape.org/namespaces/inkscape"
   xmlns:sodipodi="http://sodipodi.sourceforge.net/DTD/sodipodi-0.dtd"
   xmlns="http://www.w3.org/2000/svg"
   xmlns:svg="http://www.w3.org/2000/svg">
  <sodipodi:namedview
     id="namedview7"
     pagecolor="#ffffff"
     bordercolor="#666666"
     borderopacity="1.0"
     inkscape:pageshadow="2"
     inkscape:pageopacity="0.0"
     inkscape:pagecheckerboard="0"
     inkscape:document-units="mm"
     showgrid="false"
     inkscape:zoom="1.4289282"
     inkscape:cx="8.3979029"
     inkscape:cy="46.538378"
     inkscape:window-width="1920"
     inkscape:window-height="991"
     inkscape:window-x="-9"
     inkscape:window-y="-9"
     inkscape:window-maximized="1"
     inkscape:current-layer="layer1"
     fit-margin-top="0"
     fit-margin-left="0"
     fit-margin-right="0"
     fit-margin-bottom="0"
     units="px" />
  <defs
     id="defs2" />
  <g
     inkscape:label="Capa 1"
     inkscape:groupmode="layer"
     id="layer1"
     transform="translate(145.38673,41.695984)">
    <path
       style="fill:#000000;stroke-width:0.0134117"
       d="m -138.54137,-38.174626 c -0.0327,-0.01425 -0.0467,-0.03275 -0.0629,-0.0833 -0.0286,-0.08907 -0.063,-0.489697 -0.0713,-0.829452 -0.004,-0.154906 -0.009,-0.288973 -0.0119,-0.297926 -0.004,-0.01176 -0.0225,-0.0085 -0.0683,0.0117 -0.20281,0.08971 -0.50253,-0.07981 -0.54629,-0.308989 -0.012,-0.06295 0.0124,-0.134153 0.0719,-0.209585 l 0.0506,-0.06412 -0.0342,-0.02948 c -0.0421,-0.03621 -0.0462,-0.103978 -0.009,-0.140878 0.0142,-0.01386 0.0709,-0.05121 0.1263,-0.08301 0.0969,-0.05569 0.10477,-0.05781 0.21459,-0.05788 0.0937,-5.3e-5 0.12294,0.0052 0.16429,0.02965 0.0277,0.01634 0.0503,0.0239 0.0503,0.01677 0,-0.0072 0.012,-0.02503 0.0268,-0.03978 0.0354,-0.03534 0.0997,-0.03446 0.13598,0.0019 0.0274,0.02745 0.0283,0.03632 0.0195,0.207593 -0.0147,0.283555 -0.009,0.785979 0.0123,1.171959 0.011,0.195477 0.0201,0.363269 0.0201,0.372873 5e-5,0.0096 0.0173,0.02349 0.0385,0.03085 0.0386,0.01348 0.0689,0.05952 0.0689,0.104921 0,0.02394 -0.0265,0.09853 -0.0562,0.157953 -0.0108,0.02168 -0.0811,0.06319 -0.0967,0.05711 -7.4e-4,-2.88e-4 -0.0203,-0.0088 -0.0434,-0.01884 z m -0.25267,-1.395199 c 0.0149,-0.0094 0.0444,-0.04882 0.0654,-0.08757 0.0353,-0.0648 0.0377,-0.07792 0.0297,-0.163473 -0.0201,-0.215795 -0.11359,-0.303418 -0.25644,-0.240227 -0.0533,0.0236 -0.0811,0.05502 -0.0486,0.05502 0.006,0 0.0191,0.01756 0.028,0.03902 0.0179,0.04325 0.009,0.06998 -0.0434,0.127298 -0.0555,0.06088 -0.0902,0.112749 -0.0902,0.134569 0,0.03282 0.11267,0.138659 0.16329,0.153399 0.0503,0.01465 0.11194,0.0073 0.15219,-0.01803 z m 5.74759,0.587933 c -0.0168,-0.02137 -0.0285,-0.05716 -0.0295,-0.09053 -7.3e-4,-0.03036 -0.004,-0.07028 -0.006,-0.08872 -0.003,-0.01844 -0.0104,-0.130094 -0.0172,-0.248117 -0.0128,-0.221109 -0.0268,-0.333764 -0.0616,-0.496229 -0.0249,-0.115847 -0.0283,-0.542718 -0.004,-0.587649 0.009,-0.01611 0.0567,-0.07041 0.10731,-0.120648 0.0506,-0.05024 0.0919,-0.09655 0.0919,-0.1029 0,-0.02529 0.0989,-0.03838 0.34471,-0.04563 l 0.25753,-0.0076 0.0393,0.03305 c 0.0488,0.04109 0.0573,0.07149 0.0348,0.124876 -0.0202,0.04797 -0.0714,0.06711 -0.12011,0.0449 -0.0209,-0.0095 -0.0563,-0.01057 -0.10295,-0.003 -0.0391,0.0063 -0.1254,0.0098 -0.19179,0.0077 l -0.12071,-0.0037 -0.0838,0.08727 -0.0838,0.08727 v 0.169279 c 0,0.09926 0.009,0.213662 0.0211,0.276573 0.0356,0.181748 0.0587,0.364144 0.068,0.5369 0.004,0.09096 0.0131,0.172278 0.0183,0.180704 0.007,0.01113 0.0238,0.0092 0.0617,-0.007 0.0342,-0.01461 0.11834,-0.02635 0.24385,-0.03402 0.10537,-0.0065 0.19615,-0.01454 0.20172,-0.01798 0.005,-0.0034 0.0875,0.0027 0.18196,0.01362 0.0945,0.01094 0.19684,0.01806 0.22744,0.01583 l 0.0556,-0.0041 -0.003,-0.38894 c -0.002,-0.213917 -0.006,-0.405621 -0.0117,-0.42601 -0.007,-0.02747 -8.8e-4,-0.04899 0.0224,-0.08309 0.0412,-0.06009 0.0795,-0.07739 0.13141,-0.05931 0.061,0.02127 0.074,0.07822 0.0621,0.27251 -0.0111,0.180359 -0.0107,0.581506 7.3e-4,0.684835 0.007,0.0634 0.004,0.0701 -0.0438,0.122871 -0.0281,0.0307 -0.0644,0.06238 -0.0805,0.07042 -0.0405,0.02018 -0.1391,0.01827 -0.32842,-0.0064 -0.1346,-0.01751 -0.19428,-0.01851 -0.36293,-0.0061 -0.20762,0.01531 -0.22395,0.01984 -0.34193,0.09465 -0.0802,0.05086 -0.1393,0.05231 -0.17703,0.0043 z m -8.78114,-0.0048 c -0.16026,-0.04201 -0.2572,-0.122018 -0.32447,-0.267784 -0.0272,-0.05879 -0.0355,-0.101089 -0.0397,-0.201873 -0.004,-0.111012 -7.3e-4,-0.141358 0.0303,-0.234705 0.0473,-0.142162 0.10313,-0.223523 0.23042,-0.335891 0.0581,-0.05126 0.10859,-0.09711 0.11228,-0.101884 0.0119,-0.01541 0.1258,-0.07184 0.18218,-0.09025 0.0497,-0.01623 0.0599,-0.0153 0.10952,0.01004 0.0703,0.03586 0.10754,0.08905 0.12571,0.179521 0.0129,0.06442 0.0112,0.07995 -0.0155,0.142001 -0.0376,0.08737 -0.13757,0.180243 -0.26212,0.243484 -0.0791,0.04015 -0.10851,0.04762 -0.20341,0.05167 -0.1053,0.0045 -0.1114,0.0065 -0.11934,0.03808 -0.004,0.01834 -0.005,0.06958 -8.8e-4,0.113867 0.01,0.110481 0.0619,0.192773 0.15015,0.238232 0.11626,0.05988 0.37567,0.05129 0.4665,-0.01544 0.013,-0.0095 0.0344,-0.04753 0.0475,-0.08441 0.0294,-0.08268 0.0757,-0.112028 0.13306,-0.08452 0.0512,0.02456 0.0667,0.07678 0.0459,0.155246 -0.0335,0.126958 -0.1219,0.197931 -0.3044,0.244608 -0.12856,0.03288 -0.2383,0.03288 -0.36371,7e-6 z m 0.0735,-0.838966 c 0.0523,-0.02613 0.11038,-0.06582 0.12921,-0.08821 0.0368,-0.04369 0.0462,-0.105692 0.016,-0.105692 -0.0247,0 -0.0963,0.04981 -0.16952,0.117912 -0.0332,0.03086 -0.0642,0.05618 -0.0689,0.05627 -0.004,9.4e-5 -0.0184,0.01525 -0.0305,0.0337 -0.0207,0.03169 -0.0205,0.03353 0.004,0.03353 0.0139,0 0.0681,-0.02139 0.12032,-0.04751 z m 6.91806,0.67689 c -0.0195,-0.01529 -0.0354,-0.03943 -0.0354,-0.05365 0,-0.03143 -0.009,-0.03178 -0.10454,-0.004 -0.15163,0.04409 -0.34705,-0.004 -0.45505,-0.112021 -0.10881,-0.108809 -0.16867,-0.344693 -0.13866,-0.546401 0.0176,-0.11798 0.0824,-0.274937 0.1503,-0.363637 0.0538,-0.07023 0.19333,-0.186533 0.27807,-0.231703 0.13979,-0.07451 0.30313,-0.06919 0.42513,0.01382 0.0874,0.05944 0.11118,0.178876 0.0577,0.289306 -0.053,0.109426 -0.24712,0.242289 -0.45494,0.311332 -0.0701,0.02329 -0.10386,0.0271 -0.17715,0.02 l -0.0905,-0.0088 v 0.09558 c 0,0.112293 0.0365,0.229766 0.0881,0.283637 0.0454,0.04733 0.16485,0.08525 0.23091,0.07328 0.0274,-0.005 0.0828,-0.02398 0.12314,-0.04224 0.16807,-0.0761 0.2887,-0.204676 0.39175,-0.417567 l 0.0541,-0.111746 -0.0365,-0.114704 c -0.0463,-0.145234 -0.0422,-0.235265 0.0127,-0.282437 0.0695,-0.05976 0.14854,-0.02774 0.20215,0.08184 0.0317,0.0648 0.0354,0.08633 0.0322,0.191339 -0.004,0.114852 -0.002,0.122596 0.0595,0.263762 0.0916,0.211342 0.11613,0.29252 0.11613,0.38457 0,0.109665 -0.0237,0.150625 -0.11208,0.193874 -0.0781,0.03822 -0.26444,0.07399 -0.38587,0.07407 -0.0415,2.7e-5 -0.0971,0.0091 -0.12363,0.02017 -0.0616,0.02577 -0.0654,0.02551 -0.10755,-0.0077 z m 0.37372,-0.220389 c 0.0442,-0.0045 0.10051,-0.01445 0.12501,-0.02215 0.0433,-0.01365 0.0443,-0.01547 0.0352,-0.06965 -0.0119,-0.07114 -0.0728,-0.236704 -0.087,-0.236704 -0.006,0 -0.0333,0.03691 -0.0607,0.08204 -0.0274,0.04512 -0.0851,0.119681 -0.1281,0.165697 -0.0431,0.04601 -0.074,0.08787 -0.0689,0.09301 0.005,0.0051 0.0307,0.0063 0.0567,0.0027 0.026,-0.0037 0.0836,-0.01037 0.12784,-0.01485 z m -0.58019,-0.714336 c 0.10877,-0.05404 0.22479,-0.148193 0.22479,-0.182411 0,-0.02707 -0.057,-0.05098 -0.12397,-0.05199 -0.0688,-0.0011 -0.15146,0.04069 -0.24202,0.122182 -0.0685,0.06169 -0.13226,0.148646 -0.12157,0.165941 0.0179,0.02891 0.15144,0.0016 0.26277,-0.05372 z m -10.21861,0.911849 c -0.0552,-0.0087 -0.0619,-0.03409 -0.0651,-0.24819 -0.002,-0.112242 -0.01,-0.252358 -0.0177,-0.31137 -0.0447,-0.328494 -0.0579,-0.895545 -0.0228,-0.979571 0.0258,-0.0617 0.0783,-0.08276 0.1368,-0.05487 0.034,0.01624 0.0555,0.04745 0.10916,0.158505 0.0367,0.07606 0.0851,0.186568 0.10744,0.24558 0.0224,0.05902 0.061,0.151276 0.0858,0.205033 l 0.0452,0.09774 0.0293,-0.03964 c 0.0468,-0.06329 0.15921,-0.28103 0.20164,-0.390542 0.0508,-0.131238 0.11028,-0.229967 0.15282,-0.253859 0.0442,-0.02482 0.1078,-0.0011 0.13052,0.04881 0.0297,0.06521 0.0554,0.223006 0.0691,0.425143 0.008,0.111307 0.0226,0.320063 0.0334,0.463904 0.0254,0.338231 0.0254,0.340251 -0.012,0.383722 -0.0408,0.04736 -0.10296,0.04906 -0.15092,0.0041 -0.0321,-0.03005 -0.034,-0.03828 -0.0261,-0.112882 0.004,-0.04425 0.002,-0.149876 -0.007,-0.234705 -0.009,-0.08483 -0.0194,-0.250799 -0.0241,-0.368822 l -0.009,-0.214588 -0.0427,0.08717 c -0.0752,0.153336 -0.18651,0.32662 -0.23533,0.366137 -0.0279,0.0226 -0.0704,0.04143 -0.10346,0.04586 -0.0515,0.0069 -0.0606,0.0032 -0.11064,-0.04465 -0.05,-0.04781 -0.12829,-0.190799 -0.17915,-0.327116 -0.0166,-0.04454 -0.0175,-0.04076 -0.0179,0.07377 -1.5e-4,0.06639 0.005,0.165971 0.0125,0.221294 0.0192,0.151184 0.0527,0.534592 0.0529,0.605851 3e-4,0.09581 -0.0625,0.160821 -0.14302,0.148178 z m 2.50216,-0.122193 c -0.0256,-0.02066 -0.0308,-0.0367 -0.0286,-0.08689 0.002,-0.03386 -0.0147,-0.12958 -0.036,-0.212721 -0.0579,-0.226757 -0.0762,-0.371775 -0.0531,-0.420167 0.0243,-0.05075 0.0784,-0.07001 0.13701,-0.04882 0.0585,0.02116 0.11432,0.02028 0.17984,-0.0028 0.0627,-0.02211 0.10696,-0.0073 0.13269,0.0443 0.0203,0.04058 8.9e-4,0.09929 -0.0394,0.120103 -0.0507,0.02613 -0.14548,0.05566 -0.17875,0.05566 -0.0405,0 -0.0404,0.01534 8.8e-4,0.167647 0.0518,0.190338 0.0634,0.283502 0.0415,0.335811 -0.0306,0.07333 -0.0991,0.0943 -0.15638,0.04791 z m -0.93167,-0.06715 c -0.0843,-0.03827 -0.16114,-0.156305 -0.17652,-0.271017 -0.005,-0.03971 -0.0157,-0.05839 -0.038,-0.06857 -0.0393,-0.01787 -0.065,-0.07974 -0.0532,-0.127601 0.005,-0.02043 0.0265,-0.0643 0.0477,-0.0975 0.17946,-0.281064 0.56239,-0.321797 0.68786,-0.07317 0.0653,0.1295 0.0723,0.2636 0.0211,0.402412 -0.0684,0.18499 -0.16856,0.261141 -0.34282,0.260579 -0.0598,-1.96e-4 -0.11028,-0.0089 -0.14606,-0.02513 z m 0.22123,-0.179294 c 0.10816,-0.05528 0.14094,-0.311541 0.0507,-0.39632 -0.0624,-0.05864 -0.22376,-0.02456 -0.29154,0.06161 l -0.0275,0.03492 0.0307,0.01642 c 0.0429,0.02294 0.0646,0.08123 0.0479,0.128836 -0.0395,0.113313 0.0799,0.210622 0.18966,0.154533 z m 5.72055,0.07939 c -0.12542,-0.05714 -0.19226,-0.258323 -0.19719,-0.593548 -0.004,-0.265283 0.003,-0.327657 0.0378,-0.362885 0.0381,-0.03811 0.0859,-0.04021 0.12837,-0.0057 0.0311,0.02532 0.0316,0.02907 0.0274,0.231352 -0.006,0.292329 0.0188,0.469061 0.0755,0.537061 0.0171,0.02047 0.0232,0.02089 0.056,0.004 0.0569,-0.02942 0.21011,-0.202444 0.24757,-0.279583 0.051,-0.105039 0.0773,-0.251419 0.0668,-0.37235 -0.008,-0.09505 -0.007,-0.103919 0.0221,-0.130764 0.0699,-0.06506 0.14678,-0.01493 0.1741,0.113408 0.0149,0.0702 0.0135,0.09528 -0.0122,0.223261 -0.0336,0.16666 -0.0752,0.268648 -0.14972,0.36743 -0.0678,0.08979 -0.17591,0.197895 -0.24097,0.240957 -0.0626,0.04143 -0.1758,0.05459 -0.2355,0.02739 z m 0.95952,-0.07496 c -0.10162,-0.03091 -0.19629,-0.116839 -0.24144,-0.219149 -0.0221,-0.05005 -0.0263,-0.07788 -0.0192,-0.127411 0.0115,-0.07981 0.0377,-0.110319 0.0946,-0.110319 0.063,0 0.099,0.04288 0.099,0.117869 0,0.0494 0.008,0.06669 0.0456,0.104766 0.0571,0.05715 0.1036,0.0594 0.15546,0.0075 0.0535,-0.05349 0.0658,-0.144043 0.0328,-0.241138 -0.0372,-0.109627 -0.0635,-0.136571 -0.1329,-0.136571 -0.0469,0 -0.0717,0.01032 -0.12943,0.05365 -0.0393,0.0295 -0.0825,0.05365 -0.0961,0.05365 -0.0393,0 -0.0768,-0.02565 -0.0906,-0.06181 -0.0333,-0.08749 0.0811,-0.194144 0.25169,-0.234796 0.0894,-0.0213 0.10366,-0.02157 0.15799,-0.0031 0.0654,0.02228 0.18537,0.14022 0.1983,0.19493 0.004,0.01703 0.0174,0.05813 0.0299,0.09132 0.0308,0.08242 0.0221,0.253786 -0.0166,0.328587 -0.0448,0.08662 -0.11653,0.150864 -0.19407,0.173892 -0.0755,0.02242 -0.0943,0.02346 -0.14499,0.008 z m 0.71652,-0.03428 c -0.0288,-0.02883 -0.0325,-0.04213 -0.0267,-0.09723 0.004,-0.03511 0.0102,-0.188392 0.0144,-0.340627 l 0.008,-0.276792 -0.15075,-0.0098 c -0.14098,-0.0092 -0.1532,-0.01228 -0.18832,-0.04741 -0.0963,-0.09633 0.0202,-0.267012 0.11925,-0.174705 0.0205,0.01908 0.0516,0.02699 0.11908,0.03017 l 0.0913,0.0043 0.0103,-0.04694 c 0.005,-0.02582 0.0167,-0.236527 0.0246,-0.468245 0.014,-0.41431 0.0138,-0.421783 -0.0128,-0.450157 -0.0304,-0.03237 -0.0346,-0.08795 -0.0118,-0.155887 0.0225,-0.06691 0.0501,-0.09253 0.0996,-0.09253 0.0536,0 0.10766,0.05788 0.12115,0.129767 0.01,0.05174 -0.003,0.73578 -0.0171,0.935071 l -0.009,0.119312 0.0389,-0.0095 c 0.0823,-0.01999 0.26613,-0.02297 0.30022,-0.0049 0.047,0.02492 0.0678,0.07208 0.0519,0.117537 -0.0171,0.04914 -0.0603,0.06638 -0.16424,0.06558 -0.0477,-3.63e-4 -0.11932,0.0061 -0.15928,0.01441 l -0.0726,0.01509 -0.008,0.341252 c -0.005,0.226031 -0.0137,0.351521 -0.0244,0.371665 -0.0376,0.07052 -0.10113,0.08315 -0.15374,0.03054 z m 3.51339,-0.229247 c -0.10108,-0.04986 -0.093,-0.193926 0.012,-0.213922 0.054,-0.01029 0.0866,-0.03683 0.13936,-0.113549 0.0581,-0.08448 0.39815,-0.428032 0.48803,-0.493024 0.041,-0.02965 0.1026,-0.08511 0.1369,-0.123252 0.0549,-0.06109 0.0634,-0.07887 0.0714,-0.149463 0.0114,-0.100521 0.0442,-0.146257 0.10497,-0.146257 0.0425,0 0.0784,0.02595 0.0904,0.06529 0.004,0.01136 0.0188,-0.0015 0.0402,-0.03383 0.0371,-0.05597 0.0918,-0.159126 0.0918,-0.172888 0,-0.0046 -0.0468,-0.0041 -0.10394,0.0012 -0.1125,0.01036 -0.18031,0.03293 -0.34355,0.114418 -0.058,0.02896 -0.11713,0.05266 -0.13137,0.05266 -0.0362,0 -0.0917,-0.05942 -0.0917,-0.09817 0,-0.03751 0.0471,-0.103007 0.074,-0.103007 0.0102,0 0.0474,-0.01545 0.0829,-0.03434 0.15345,-0.08181 0.26107,-0.115355 0.39446,-0.122952 0.16719,-0.0095 0.21465,3.62e-4 0.275,0.05727 0.0483,0.04554 0.0491,0.04793 0.041,0.123524 -0.006,0.05763 -0.0257,0.10925 -0.0775,0.204499 -0.0381,0.07008 -0.0881,0.16203 -0.11111,0.204343 -0.0683,0.125561 -0.0807,0.135635 -0.15707,0.126593 -0.0628,-0.0074 -0.0673,-0.0057 -0.10261,0.03893 -0.0203,0.02569 -0.0951,0.0949 -0.16621,0.153788 -0.0711,0.05889 -0.1586,0.137849 -0.19446,0.175459 -0.0358,0.03761 -0.10196,0.105419 -0.14688,0.150689 -0.0449,0.04527 -0.0958,0.103433 -0.11303,0.12925 -0.041,0.06141 -0.15937,0.19003 -0.19391,0.210759 -0.036,0.0216 -0.059,0.02076 -0.1092,-0.004 z"
       id="path3555" />
  </g>
</svg>
