<?xml version="1.0" encoding="UTF-8" standalone="no"?>
<!-- Created with Inkscape (http://www.inkscape.org/) -->

<svg
   width="24.604971mm"
   height="4.784483mm"
   viewBox="0 0 24.604971 4.7844829"
   version="1.1"
   id="svg5"
   inkscape:version="1.1.1 (3bf5ae0d25, 2021-09-20)"
   sodipodi:docname="more-favourite-movies.svg"
   xmlns:inkscape="http://www.inkscape.org/namespaces/inkscape"
   xmlns:sodipodi="http://sodipodi.sourceforge.net/DTD/sodipodi-0.dtd"
   xmlns="http://www.w3.org/2000/svg"
   xmlns:svg="http://www.w3.org/2000/svg">
  <sodipodi:namedview
     id="namedview7"
     pagecolor="#ffffff"
     bordercolor="#666666"
     borderopacity="1.0"
     inkscape:pageshadow="2"
     inkscape:pageopacity="0.0"
     inkscape:pagecheckerboard="0"
     inkscape:document-units="mm"
     showgrid="false"
     fit-margin-top="0"
     fit-margin-left="0"
     fit-margin-right="0"
     fit-margin-bottom="0"
     inkscape:zoom="0.71446409"
     inkscape:cx="-293.9266"
     inkscape:cy="30.092485"
     inkscape:window-width="1920"
     inkscape:window-height="991"
     inkscape:window-x="-9"
     inkscape:window-y="-9"
     inkscape:window-maximized="1"
     inkscape:current-layer="layer1" />
  <defs
     id="defs2" />
  <g
     inkscape:label="Capa 1"
     inkscape:groupmode="layer"
     id="layer1"
     transform="translate(-182.77728,-140.92061)">
    <path
       style="fill:#000000;stroke-width:0.0342077"
       d="m 202.77386,145.60341 c -0.093,-0.11053 -0.0957,-0.12421 -0.0761,-0.38899 0.0461,-0.62305 0.33252,-2.48351 0.45511,-2.9564 0.0428,-0.16503 0.0888,-0.251 0.18658,-0.34881 0.20288,-0.20288 0.31213,-0.24399 0.69375,-0.26107 0.36027,-0.0161 0.56253,0.0194 0.77809,0.13647 0.1238,0.0673 0.26937,0.2832 0.26937,0.39958 0,0.12187 -0.19114,0.21791 -0.29242,0.14693 -0.0197,-0.0138 -0.07,-0.074 -0.11164,-0.13369 -0.0923,-0.13227 -0.20324,-0.16192 -0.58173,-0.15552 -0.22203,0.004 -0.30966,0.0203 -0.39892,0.0755 -0.15612,0.0965 -0.16546,0.12658 -0.32932,1.06087 -0.0787,0.44872 -0.30016,1.99735 -0.30368,2.12356 -2.5e-4,0.0109 0.088,0.008 0.19615,-0.006 0.75489,-0.10022 0.82768,-0.10342 1.43897,-0.0633 0.59662,0.0391 0.62272,0.0381 0.83811,-0.0336 l 0.22232,-0.074 0.0238,-0.20499 c 0.0131,-0.11275 0.0127,-0.44115 -7.7e-4,-0.72977 -0.0237,-0.50558 -0.022,-0.52742 0.0478,-0.59715 0.0907,-0.0907 0.18068,-0.0922 0.26023,-0.004 0.0556,0.0614 0.062,0.14938 0.0652,0.89299 l 0.004,0.82488 -0.1104,0.0923 c -0.25057,0.20956 -0.54676,0.24718 -1.6513,0.20973 -0.27248,-0.009 -0.59503,0.002 -0.78677,0.0274 -0.72778,0.0965 -0.72744,0.0965 -0.83589,-0.0324 z m -2.91222,-0.022 c -0.62137,-0.22311 -0.76293,-0.81868 -0.39007,-1.64102 0.1799,-0.39677 0.38642,-0.55683 0.71842,-0.55683 0.4616,0 0.66109,0.28861 0.47096,0.68137 -0.16276,0.33622 -0.59255,0.61286 -0.89102,0.57353 -0.12663,-0.0167 -0.12828,-0.0154 -0.12828,0.10066 0,0.31485 0.21746,0.50987 0.56443,0.50618 0.2874,-0.003 0.48302,-0.0677 0.62024,-0.20489 0.13181,-0.13181 0.21468,-0.14708 0.29806,-0.0549 0.0889,0.0982 0.0692,0.2272 -0.0546,0.35742 -0.22988,0.2419 -0.85504,0.36532 -1.20818,0.23852 z m 0.25976,-1.44588 c 0.1065,-0.0758 0.2044,-0.23039 0.2044,-0.32267 0,-0.0801 -0.21141,-0.0678 -0.32131,0.0186 -0.0895,0.0704 -0.22601,0.29757 -0.22601,0.37616 0,0.0607 0.22192,0.014 0.34292,-0.0721 z m -2.10969,1.36036 c -0.0779,-0.0877 -0.16907,-0.52816 -0.20396,-0.98489 -0.0211,-0.27678 -0.0179,-0.29731 0.0614,-0.38953 0.0769,-0.0894 0.10467,-0.0979 0.34119,-0.10417 0.14159,-0.004 0.36852,-0.0356 0.50429,-0.0708 0.25714,-0.0667 0.31835,-0.0568 0.39448,0.064 0.027,0.0429 0.023,0.0819 -0.0156,0.15067 -0.0626,0.11155 -0.3067,0.19541 -0.67036,0.23032 l -0.24353,0.0234 0.0164,0.15999 c 0.009,0.088 0.0438,0.30623 0.0774,0.48496 0.0444,0.23659 0.0513,0.34358 0.0253,0.39339 -0.0736,0.14099 -0.18515,0.15761 -0.28708,0.0428 z m -14.55887,-0.05 c -0.0329,-0.0366 -0.0596,-0.10387 -0.0593,-0.14943 0.001,-0.15678 0.0449,-0.1816 0.33067,-0.18676 0.18855,-0.003 0.35321,-0.0327 0.55821,-0.0993 0.27615,-0.0897 0.51311,-0.22522 0.51311,-0.29337 0,-0.0664 -0.24619,-0.27253 -0.53072,-0.4444 -0.91391,-0.55203 -1.48753,-1.14778 -1.48753,-1.54492 0,-0.16601 0.13782,-0.44482 0.26416,-0.5344 0.0523,-0.037 0.17199,-0.0947 0.26606,-0.12813 0.21393,-0.076 0.82798,-0.10827 1.01185,-0.0532 0.14546,0.0436 0.27094,0.17884 0.27094,0.29206 0,0.19136 -0.22801,0.27102 -0.34879,0.12186 -0.0581,-0.0717 -0.0828,-0.0758 -0.37835,-0.062 -0.55106,0.0257 -0.79172,0.20338 -0.65774,0.48573 0.1356,0.28576 0.5802,0.67325 1.26094,1.09897 0.52433,0.32791 0.73928,0.55911 0.73955,0.79547 3.7e-4,0.32849 -0.70422,0.70524 -1.40239,0.74987 -0.25861,0.0165 -0.29739,0.0112 -0.35063,-0.048 z m 2.32967,-0.0294 c -0.28067,-0.0864 -0.4739,-0.41005 -0.4739,-0.79376 0,-0.0991 -0.0235,-0.18074 -0.0684,-0.23786 -0.0876,-0.11132 -0.0861,-0.15329 0.01,-0.27182 0.043,-0.0532 0.0976,-0.17366 0.12138,-0.26773 0.0528,-0.20901 0.22535,-0.50439 0.36845,-0.6308 0.0705,-0.0623 0.17742,-0.10782 0.31825,-0.13552 0.1908,-0.0375 0.22304,-0.0353 0.32142,0.0219 0.21861,0.12719 0.2887,0.44571 0.15765,0.71643 -0.11902,0.24587 -0.39071,0.44167 -0.79232,0.571 -0.0464,0.0149 -0.0594,0.0561 -0.0579,0.18284 0.006,0.50966 0.34632,0.66336 0.82058,0.37062 0.21859,-0.13491 0.31092,-0.13819 0.3777,-0.0134 0.0582,0.1088 0.0113,0.21221 -0.14735,0.32484 -0.29001,0.20586 -0.62883,0.26378 -0.95525,0.16329 z m 0.23809,-1.57724 c 0.13615,-0.10361 0.24181,-0.3024 0.18886,-0.35535 -0.10129,-0.10129 -0.32061,0.0783 -0.43546,0.35652 l -0.0545,0.13193 0.0939,-0.0234 c 0.0516,-0.0129 0.14486,-0.0622 0.20721,-0.10968 z m 6.62333,1.5126 c -0.0348,-0.0531 -0.0477,-0.11936 -0.0349,-0.17959 0.0113,-0.0533 -0.0177,-0.26178 -0.0656,-0.47175 -0.10892,-0.47755 -0.1722,-0.91195 -0.14368,-0.98628 0.0122,-0.0317 0.0604,-0.0751 0.10721,-0.0964 0.12864,-0.0586 0.23969,0.0313 0.31117,0.25186 0.0884,0.27281 0.25889,0.67689 0.28559,0.67689 0.013,0 0.10006,-0.13335 0.19351,-0.29634 0.26322,-0.45908 0.45225,-0.61885 0.63548,-0.53709 0.0373,0.0166 0.17266,0.17634 0.30079,0.35488 0.12813,0.17854 0.25383,0.32462 0.27933,0.32462 0.0255,0 0.1316,-0.10887 0.23579,-0.24194 0.59901,-0.765 0.62006,-0.7837 0.77105,-0.68476 0.0968,0.0634 0.10896,0.12588 0.13631,0.70205 0.0176,0.37034 0.0289,0.43137 0.0873,0.4723 0.0807,0.0565 0.0874,0.18893 0.0134,0.26302 -0.0548,0.0548 -0.20414,0.0708 -0.3039,0.0325 -0.0832,-0.0319 -0.15515,-0.19662 -0.158,-0.36189 -0.001,-0.0809 -0.0129,-0.21589 -0.0257,-0.29999 l -0.0231,-0.1529 -0.13421,0.18711 c -0.0738,0.10291 -0.21855,0.27563 -0.32163,0.38381 -0.15295,0.16052 -0.20783,0.19669 -0.2984,0.19669 -0.12619,0 -0.19953,-0.0725 -0.47724,-0.47149 -0.0941,-0.13517 -0.18307,-0.24601 -0.19777,-0.24631 -0.0147,-2.6e-4 -0.0369,0.0264 -0.0494,0.0593 -0.0331,0.0875 -0.33234,0.55494 -0.43722,0.68306 -0.055,0.0672 -0.13426,0.11836 -0.20354,0.13136 -0.0999,0.0187 -0.11595,0.037 -0.13444,0.1526 -0.0378,0.23618 -0.23683,0.32461 -0.34818,0.15468 z m -4.48117,-0.0976 c -0.13291,-0.0443 -0.28684,-0.10731 -0.34208,-0.14004 -0.14965,-0.0887 -0.28145,-0.29484 -0.34363,-0.53758 -0.0982,-0.38341 -0.0138,-0.69341 0.2762,-1.01439 0.20319,-0.22487 0.40699,-0.3465 0.622,-0.37123 0.31682,-0.0364 0.54288,0.21509 0.51396,0.57181 -0.009,0.10513 -0.0402,0.2389 -0.0704,0.29726 -0.12101,0.23401 -0.59158,0.58829 -0.78215,0.58886 -0.20744,6.5e-4 -0.0608,0.13766 0.25664,0.2398 0.24962,0.0803 0.24855,0.0804 0.87432,-0.0368 0.37582,-0.0704 0.46144,-0.0583 0.50244,0.0709 0.0567,0.17867 -0.0282,0.2344 -0.49237,0.32314 -0.50917,0.0973 -0.74201,0.0992 -1.01495,0.008 z m 0.13845,-1.17546 c 0.17031,-0.14928 0.25205,-0.33746 0.19383,-0.44625 -0.0583,-0.10894 -0.20178,-0.0568 -0.40619,0.1476 -0.17151,0.17152 -0.22208,0.25442 -0.26884,0.44072 l -0.0205,0.0817 0.17622,-0.0465 c 0.10959,-0.0289 0.23266,-0.096 0.32549,-0.17733 z m 8.24122,1.05525 c -0.25171,-0.18246 -0.43396,-0.6838 -0.3017,-0.82994 0.0325,-0.036 0.0953,-0.0654 0.13938,-0.0654 0.0724,0 0.0802,-0.0152 0.0802,-0.15504 0,-0.18843 0.0726,-0.3738 0.16589,-0.42374 0.24073,-0.12884 0.59971,0.0504 0.78241,0.39063 0.29743,0.5539 -0.003,1.18017 -0.56552,1.18017 -0.12931,0 -0.19754,-0.0219 -0.30068,-0.0967 z m 0.48379,-0.35767 c 0.16768,-0.14423 0.14653,-0.46447 -0.0451,-0.68303 -0.0947,-0.10796 -0.14024,-0.0719 -0.15127,0.11973 -0.009,0.16483 -0.0194,0.18381 -0.12077,0.2309 -0.12415,0.0577 -0.13784,0.11688 -0.0556,0.2404 0.126,0.18923 0.22988,0.21487 0.37274,0.092 z m 6.34528,0.14876 c -0.0592,-0.11063 -0.0401,-0.19903 0.0587,-0.27209 0.42536,-0.31454 1.06531,-0.90117 1.42817,-1.30917 0.0753,-0.0846 0.28806,-0.28811 0.47289,-0.45219 0.18483,-0.16407 0.38269,-0.35143 0.43969,-0.41635 0.16418,-0.18699 0.37021,-0.15167 0.37021,0.0635 0,0.12567 -0.0819,0.22227 -0.52024,0.61351 -0.19363,0.17283 -0.41363,0.38283 -0.48889,0.46666 -0.28114,0.31318 -0.65895,0.67846 -0.94071,0.90953 -0.15992,0.13116 -0.31094,0.26594 -0.3356,0.29952 -0.11499,0.15658 -0.41965,0.21769 -0.48418,0.0971 z m 3.54174,-1.86902 c -0.0662,-0.0662 -0.0665,-0.17013 -0.002,-0.93826 0.0274,-0.32925 0.0502,-0.61791 0.0506,-0.64147 7.8e-4,-0.0494 -0.1293,0.0142 -0.37557,0.18343 -0.34409,0.23649 -0.85782,0.52645 -0.93272,0.52645 -0.10935,0 -0.16193,-0.0618 -0.16193,-0.19043 0,-0.098 0.0263,-0.12523 0.2763,-0.28601 0.15197,-0.0977 0.30206,-0.18715 0.33353,-0.19873 0.0315,-0.0116 0.1034,-0.0557 0.15985,-0.098 0.25142,-0.18863 0.79173,-0.49248 0.87574,-0.49248 0.0504,0 0.12616,0.028 0.16841,0.0622 l 0.0768,0.0622 -0.0572,0.69892 c -0.0314,0.38441 -0.0661,0.81437 -0.0769,0.95548 -0.0109,0.1411 -0.0415,0.29119 -0.068,0.33352 -0.0564,0.0901 -0.18813,0.1016 -0.26651,0.0232 z"
       id="path1442" />
  </g>
</svg>
