<?xml version="1.0" encoding="UTF-8" standalone="no"?>
<!-- Created with Inkscape (http://www.inkscape.org/) -->

<svg
   width="30.503927mm"
   height="10.866172mm"
   viewBox="0 0 30.503926 10.866172"
   version="1.1"
   id="svg5"
   inkscape:version="1.1.1 (3bf5ae0d25, 2021-09-20)"
   sodipodi:docname="parent.svg"
   xmlns:inkscape="http://www.inkscape.org/namespaces/inkscape"
   xmlns:sodipodi="http://sodipodi.sourceforge.net/DTD/sodipodi-0.dtd"
   xmlns="http://www.w3.org/2000/svg"
   xmlns:svg="http://www.w3.org/2000/svg">
  <sodipodi:namedview
     id="namedview7"
     pagecolor="#ffffff"
     bordercolor="#666666"
     borderopacity="1.0"
     inkscape:pageshadow="2"
     inkscape:pageopacity="0.0"
     inkscape:pagecheckerboard="0"
     inkscape:document-units="mm"
     showgrid="false"
     fit-margin-top="0"
     fit-margin-left="0"
     fit-margin-right="0"
     fit-margin-bottom="0"
     inkscape:zoom="1.0104048"
     inkscape:cx="-55.423331"
     inkscape:cy="-21.2786"
     inkscape:window-width="1920"
     inkscape:window-height="991"
     inkscape:window-x="-9"
     inkscape:window-y="-9"
     inkscape:window-maximized="1"
     inkscape:current-layer="layer1" />
  <defs
     id="defs2" />
  <g
     inkscape:label="Capa 1"
     inkscape:groupmode="layer"
     id="layer1"
     transform="translate(0.65501542,2.39557)">
    <path
       style="fill:#000000;stroke-width:0.0253197"
       d="M 8.4293385,8.4118771 C 8.3831495,8.3730109 8.3400943,8.2970672 8.3109127,8.2029901 8.2856969,8.1216892 8.1989583,7.9355349 8.1181668,7.7893142 7.7985201,7.2108041 7.6207424,6.9003677 7.5850855,6.8584414 7.5645366,6.8342773 7.5167805,6.7632366 7.4789591,6.7005709 7.3747678,6.5279275 7.3189016,6.4726942 7.2484708,6.4726942 c -0.035244,0 -0.071121,-0.011396 -0.079724,-0.025319 -0.00861,-0.013925 -0.024444,-0.025319 -0.035199,-0.025319 -0.023081,0 -0.1767529,0.3831527 -0.2691103,0.6709699 -0.03575,0.1114068 -0.1152242,0.3335865 -0.1766116,0.4937328 -0.061386,0.1601469 -0.1185696,0.3196603 -0.1270707,0.3544748 -0.00851,0.034816 -0.069221,0.124256 -0.1349326,0.1987592 -0.1054464,0.1195542 -0.1309132,0.13546 -0.2168801,0.13546 -0.2175445,0 -0.2959064,-0.2282255 -0.1516564,-0.4416945 C 6.1395376,7.7120372 6.2537987,7.4323312 6.3960802,7.0044075 6.5243389,6.6186572 6.7675042,6.0002179 6.8325001,5.8944639 6.9016989,5.7818679 6.978201,5.7131068 7.0342646,5.7131068 c 0.040926,0 0.045656,-0.02386 0.04395,-0.2215466 C 7.0760549,5.238898 7.0549773,4.9150372 6.9914085,4.1559503 6.9540421,3.7097304 6.9372396,3.6034904 6.8869102,3.4951975 6.8539233,3.4242246 6.8269394,3.3543234 6.8269394,3.3398615 6.8269394,3.3254 6.796589,3.2936806 6.759491,3.2693759 6.6472469,3.1958303 6.4711525,3.0238436 6.39754,2.9158687 6.2620547,2.7171367 6.0665092,2.3210928 6.0262173,2.1638183 5.9823266,1.9925146 5.9932528,1.6102119 6.0463863,1.4577911 6.0697727,1.3906904 6.0652442,1.3746491 6.0078432,1.3214561 5.8689289,1.1927146 5.8980755,1.0314906 6.1002568,0.81027231 6.2768159,0.61708873 6.5169552,0.44211851 6.7636331,0.32692314 c 0.041776,-0.0195095 0.097041,-0.0469432 0.1228067,-0.0609627 0.1387148,-0.0754776 0.9298015,-0.0837532 1.1234344,-0.0117527 0.1675964,0.0623197 0.5671089,0.29137902 0.670795,0.38459834 0.051705,0.046493 0.1393728,0.11316027 0.1947996,0.14814978 0.1391919,0.0878679 0.2622412,0.21576964 0.3204489,0.33308594 0.06724,0.1355055 0.071503,0.7222428 0.00656,0.8964008 -0.082659,0.2214939 -0.3170999,0.6174507 -0.512115,0.8649008 -0.1288139,0.1634693 -0.4419355,0.3582949 -0.64806,0.4032357 -0.4516858,0.09848 -0.6623909,0.1715261 -0.6473841,0.2244308 0.00611,0.0216 0.018754,0.1481061 0.028064,0.2811285 l 0.016922,0.2418596 0.1176319,0.042837 c 0.0647,0.02356 0.2064059,0.1089289 0.314906,0.1897092 0.2077229,0.1546529 0.252158,0.1801093 0.5369952,0.3076327 C 8.7039666,4.7040408 8.8509441,4.911811 8.7659573,5.0761591 8.6883757,5.2261832 8.4929625,5.232518 8.3433872,5.0898593 8.3070405,5.0552126 8.1971484,4.9942392 8.0991641,4.954364 8.0011814,4.9144902 7.8372077,4.8202975 7.73478,4.7450483 7.6323515,4.6697993 7.5356282,4.6006135 7.5198385,4.5913019 c -0.020549,-0.01212 -0.025814,0.027928 -0.018523,0.1409939 0.00558,0.086858 0.02717,0.4174145 0.047934,0.7345702 l 0.037746,0.5766458 0.088359,0.1196433 C 7.9166837,6.4899294 8.0308665,6.6764188 8.487751,7.4900093 8.6722306,7.8185179 8.797063,8.0797723 8.8148458,8.1745674 8.8582551,8.4059375 8.6064767,8.5609266 8.4293436,8.4118786 Z M 7.7325166,2.8780228 C 8.0254847,2.8041594 8.196686,2.7181978 8.3243837,2.5808416 8.4194469,2.4785886 8.5880905,2.2102119 8.6949556,1.9911213 8.7810455,1.8146226 8.7876372,1.7845747 8.7883875,1.5652456 L 8.7892064,1.3292669 8.7005872,1.2534282 C 8.4199021,1.0132177 8.231651,0.88256682 8.0220572,0.78250783 L 7.7866138,0.67010887 7.4523647,0.67766531 c -0.3371329,0.007621 -0.4522198,0.0341358 -0.6186812,0.14252882 -0.051748,0.0336971 -0.053364,0.0413823 -0.018992,0.0904589 0.020661,0.0294989 0.037567,0.0917459 0.037567,0.13832967 0,0.069989 -0.026589,0.1110392 -0.1531087,0.2363859 -0.084208,0.083429 -0.1641994,0.1808615 -0.1777554,0.216517 -0.052217,0.1373322 -0.075316,0.4118674 -0.044993,0.5347032 0.043734,0.1771588 0.2430074,0.531737 0.3817653,0.6792866 0.116654,0.124046 0.1267781,0.1292064 0.2305411,0.1175106 0.096692,-0.010899 0.1166399,-0.00354 0.1829057,0.067377 0.053112,0.056847 0.088857,0.075259 0.1250172,0.064394 0.027855,-0.00837 0.1790037,-0.047578 0.3358937,-0.087134 z M 7.2700252,2.3000426 C 7.149219,2.2242677 7.0041697,2.0487746 7.0041697,1.9783888 c 0,-0.034776 -0.00984,-0.063227 -0.021868,-0.063227 -0.057951,0 -0.1553698,-0.1376694 -0.1553698,-0.2195603 0,-0.1772834 0.1458804,-0.2906889 0.354789,-0.275809 0.1562659,0.011131 0.2379734,0.1069541 0.2208364,0.2589911 -0.018166,0.1611248 0.012766,0.174426 0.2648992,0.1139319 0.2449804,-0.058779 0.4329134,-0.088171 0.5382026,-0.084179 0.1078073,0.00407 0.1961532,0.1020953 0.1961532,0.2176011 0,0.1594561 -0.1242486,0.2471525 -0.3987617,0.2814505 -0.079266,0.00991 -0.2025635,0.041077 -0.2739951,0.069279 -0.1862855,0.073541 -0.364397,0.082533 -0.4590303,0.023174 z M 7.9064683,1.5698953 c -0.053142,-0.053143 -0.066749,-0.090958 -0.066749,-0.185484 0,-0.1266294 0.055688,-0.2053709 0.1696625,-0.239898 0.089908,-0.027235 0.2510229,0.030143 0.3222221,0.1147599 0.083362,0.099069 0.083226,0.2000855 -3.998e-4,0.2994719 -0.059263,0.070428 -0.079577,0.077902 -0.2117642,0.077902 -0.1242196,0 -0.1562561,-0.010042 -0.2129662,-0.066752 z M 3.5165721,7.9455349 C 3.4853356,7.9362034 3.4283693,7.8967606 3.3899737,7.8578794 3.3515796,7.8189988 3.2871997,7.7612137 3.2469092,7.729469 3.1948408,7.6884496 3.1721037,7.6466409 3.1682933,7.584945 3.1653142,7.5372015 3.126652,7.4263655 3.0823063,7.3386427 3.0379612,7.2509205 2.9728737,7.0971035 2.9376651,6.9968279 2.9024588,6.8965526 2.841064,6.7347521 2.8012362,6.6372714 2.7614046,6.5397912 2.6812723,6.3403989 2.6231545,6.1941782 2.3756276,5.5714128 2.2800796,5.3757717 2.2114731,5.3512357 2.1945964,5.3452002 2.151137,5.3552217 2.1149059,5.3734756 2.028262,5.4171625 1.5124293,5.9767844 1.1933174,6.3733005 1.0540589,6.5463368 0.87681004,6.7562745 0.79943113,6.8398292 0.72205241,6.9233842 0.60811386,7.0502244 0.54623497,7.1216964 0.39796673,7.292952 0.10564952,7.541615 -0.07596164,7.6509755 c -0.12125456,0.073014 -0.17003561,0.0877 -0.29130808,0.0877 -0.19963743,0 -0.2877457,-0.072165 -0.2877457,-0.2356859 0,-0.1391511 0.0593379,-0.2132884 0.18704294,-0.2336906 0.0503109,-0.00804 0.11657353,-0.019738 0.14725385,-0.026 C -0.15555246,7.209589 0.36843188,6.6568107 1.1173581,5.7262002 1.2450955,5.567474 1.7999531,5.0123959 1.915043,4.9281973 c 0.073928,-0.054082 0.1112304,-0.062677 0.2562283,-0.059034 0.093338,0.00233 0.1934794,0.016989 0.2225361,0.032538 0.052114,0.027892 0.052829,0.024405 0.052612,-0.2574629 C 2.4462922,4.4870853 2.4345922,4.2274747 2.4204039,4.0673283 2.4062156,3.9071815 2.3837006,3.6143906 2.3703612,3.4166816 2.3570221,3.2189722 2.3387373,2.9944807 2.3297254,2.9178111 L 2.3133399,2.7784122 2.221737,2.8253894 C 2.1713592,2.8512276 2.1016495,2.8975241 2.0668349,2.9282731 1.9442687,3.0365271 1.7066781,3.186422 1.4449697,3.3206058 1.2994922,3.3951961 1.1609531,3.475735 1.1371064,3.4995828 1.0626144,3.574074 0.79322855,3.687493 0.6907428,3.687514 0.51825899,3.6875391 0.3823425,3.5914639 0.36842973,3.4596574 0.35211876,3.3051302 0.42252412,3.2299779 0.60706745,3.2049352 0.7062873,3.1914722 0.79256804,3.1580459 0.88366955,3.0977826 0.95648807,3.0496116 1.1300093,2.9514177 1.269267,2.8795745 1.4085247,2.8077309 1.5566448,2.7236591 1.5984216,2.6927469 1.6401971,2.6618335 1.7370471,2.5894972 1.8136386,2.5319955 1.890231,2.4744937 1.9927749,2.4076849 2.0415149,2.3835311 2.0902542,2.3593759 2.164904,2.3136203 2.2074012,2.2818477 L 2.2846677,2.2240794 2.2400397,1.8391937 C 2.1970425,1.4684181 2.1720103,1.3834486 2.1057638,1.3834486 2.026515,1.3834486 1.7416701,1.2098403 1.5934971,1.0712323 1.4323298,0.92046737 1.2523825,0.69006323 1.1716648,0.53111866 1.0773197,0.3453392 1.0034025,-0.03032528 1.0037899,-0.32206807 c 4.349e-4,-0.32601762 0.035534,-0.49422466 0.1698344,-0.81378553 0.1666759,-0.3966071 0.4368794,-0.8143156 0.6491269,-1.0034889 0.2481868,-0.2212054 0.4937541,-0.2818082 1.0013314,-0.2471164 0.6584398,0.045003 0.8115746,0.066812 0.9521871,0.1356071 0.6200897,0.3033815 0.9123808,1.2385572 0.7204394,2.30502014 C 4.4014636,0.5833703 4.1976223,0.99003956 3.9371204,1.1705681 3.7744248,1.2833162 2.9993102,1.5100468 2.7765581,1.5100468 H 2.6714079 l 0.014673,0.1076081 c 0.036189,0.2654451 0.068954,0.5776856 0.077699,0.7405989 0.026366,0.4909215 0.06978,1.1030864 0.1023444,1.4432184 0.042803,0.4470046 0.049447,1.5864923 0.00969,1.6607804 -0.020982,0.039207 -0.00795,0.093459 0.061929,0.2578613 0.112732,0.2651941 0.401717,1.0045751 0.4574291,1.1703518 0.048396,0.1440027 0.1483911,0.3285512 0.3114367,0.5747738 0.081781,0.1234996 0.1123476,0.1949873 0.1123476,0.2627485 0,0.1524698 -0.1526327,0.2622769 -0.302389,0.2175447 z M 2.9739478,1.0032762 C 3.1025177,0.97521388 3.2558006,0.93455711 3.3145767,0.9129245 3.3733562,0.89129352 3.455625,0.86445413 3.497402,0.85328374 3.7120059,0.7959079 3.80953,0.68368881 3.9365761,0.34793625 4.0359898,0.08521007 4.1045932,-0.42442383 4.0817109,-0.7302158 4.0623011,-0.98957448 3.9871751,-1.3112175 3.9112323,-1.4600781 3.8326506,-1.6141098 3.6460099,-1.7994291 3.5267088,-1.8418778 3.3934571,-1.8892904 2.6733096,-1.9458007 2.4713515,-1.9246915 c -0.160783,0.016806 -0.2492466,0.054016 -0.3544464,0.1490937 -0.1166459,0.1054214 -0.1502047,0.1710228 -0.1234658,0.2413512 0.050601,0.1330846 -0.063323,0.3097763 -0.1997208,0.3097763 -0.049685,0 -0.075244,0.034508 -0.1576363,0.2128458 -0.1241496,0.26872072 -0.1769093,0.47147194 -0.1769093,0.67984719 0,0.20361329 0.083496,0.5480177 0.1729655,0.71344184 0.082359,0.15227904 0.2793706,0.37222442 0.4004278,0.44704245 l 0.089318,0.0552023 0.096195,-0.0540649 c 0.05291,-0.0297367 0.1156738,-0.0540646 0.1394804,-0.0540646 0.075557,0 0.1871062,0.0828748 0.2194959,0.16307258 C 2.631373,1.0733371 2.643737,1.0753448 2.9739478,1.0032762 Z M 2.4387735,0.37235834 c -0.2532639,-0.01328 -0.2774653,-0.019084 -0.3238258,-0.0776513 -0.069378,-0.087644 -0.051927,-0.26087951 0.035028,-0.34783557 0.070226,-0.07022768 0.1623954,-0.07960301 0.4405407,-0.04481446 0.09826,0.01229069 0.2302283,0.0079639 0.3544747,-0.01161008 l 0.1979373,-0.0311872 0.1772377,-0.2011543 c 0.2598287,-0.29489152 0.3804807,-0.34141388 0.5209993,-0.20089555 0.053566,0.0535606 0.074011,0.0984577 0.074011,0.16248624 0,0.0758323 -0.030752,0.12184578 -0.2152169,0.32200059 -0.1183693,0.12843896 -0.215217,0.24122056 -0.215217,0.25062527 0,0.0477535 -0.2170015,0.12717988 -0.4461149,0.16328517 -0.14092,0.0222084 -0.2719485,0.0382903 -0.2911762,0.0357383 -0.01923,-0.002551 -0.1581322,-0.0110946 -0.3086788,-0.0189897 z M 2.0162046,-0.50808259 c -0.1569474,-0.0573732 -0.2065499,-0.27025024 -0.091817,-0.39404909 0.079365,-0.0856353 0.2487915,-0.17042072 0.3405516,-0.17042072 0.1076368,0 0.2070183,0.10886404 0.2070183,0.22677166 0,0.19413153 -0.2803105,0.40183226 -0.4557529,0.33769815 z M 3.0796287,-0.77306402 C 2.9092253,-0.82132812 2.8300753,-0.95217385 2.8816998,-1.1002663 c 0.040703,-0.116757 0.1105094,-0.1434951 0.3746363,-0.1434951 0.2273504,0 0.2416005,0.00327 0.3093268,0.070996 0.2280095,0.22800968 -0.1102047,0.50614732 -0.4860342,0.39970138 z M 27.424442,7.2391875 c -0.07603,-0.017957 -0.15999,-0.1056165 -0.177498,-0.1853266 -0.0086,-0.038929 0.0024,-0.1313628 0.02443,-0.2054047 0.05172,-0.1741262 0.09094,-0.6275417 0.09168,-1.0593919 4.46e-4,-0.2631686 -0.0973,-2.1001893 -0.112688,-2.11781 -0.004,-0.00452 -0.431072,-0.053402 -0.747794,-0.085575 -0.131027,-0.013311 -0.264668,-0.04152 -0.296975,-0.062689 -0.13508,-0.088507 -0.171679,-0.3081619 -0.07007,-0.4204503 0.06773,-0.07484 0.196963,-0.087115 0.294179,-0.027941 0.05945,0.03619 0.151914,0.055759 0.323758,0.068519 0.132296,0.00983 0.291809,0.027279 0.354476,0.038795 0.06267,0.011515 0.121027,0.013203 0.129694,0.00376 0.0087,-0.00946 0.03512,-0.3729974 0.05878,-0.8078809 0.03914,-0.7194079 0.03943,-0.7958202 0.0032,-0.8475116 -0.0654,-0.093366 -0.04917,-0.1869287 0.05177,-0.2986689 0.07923,-0.087701 0.105919,-0.1013514 0.198141,-0.1013514 0.08181,0 0.120842,0.015177 0.167963,0.06531 0.06018,0.064035 0.06138,0.074048 0.06138,0.5127223 0,0.2460767 -0.01538,0.6726501 -0.03418,0.9479417 -0.0188,0.2752912 -0.0277,0.5174099 -0.01979,0.5380415 0.02101,0.054745 1.540616,0.054312 1.636439,-4.477e-4 0.180423,-0.1031384 0.473301,0.034222 0.486833,0.2283244 0.0066,0.093698 -0.03148,0.1878803 -0.08835,0.2188829 -0.07739,0.042193 -0.377476,0.053752 -1.278341,0.049238 -0.605169,-0.00304 -0.765837,0.00292 -0.765534,0.028376 2.61e-4,0.017715 0.01781,0.2714819 0.03912,0.5639238 0.0634,0.8700846 0.08154,1.467084 0.05886,1.9369507 -0.0184,0.3812872 -0.03649,0.5227413 -0.112433,0.8795365 -0.01921,0.090263 -0.16855,0.1657927 -0.277111,0.140153 z M 23.724946,7.0054556 c -0.153602,-0.063627 -0.219556,-0.3212823 -0.107825,-0.421229 0.05188,-0.04641 0.05338,-0.06307 0.03968,-0.4406875 -0.01598,-0.4402778 -0.113773,-1.1731838 -0.208255,-1.5606002 -0.09431,-0.3867094 -0.08219,-0.5138245 0.05601,-0.5874318 0.170113,-0.090602 0.313279,0.024881 0.363084,0.2928797 0.04051,0.2179492 0.215171,0.7692889 0.290931,0.9183266 0.03186,0.062666 0.08708,0.1411381 0.122724,0.1743826 0.132117,0.1232247 0.362172,0.00511 0.519741,-0.2668313 0.15524,-0.2679233 0.308192,-0.4850893 0.370332,-0.5258049 0.03362,-0.022029 0.112822,-0.040057 0.175992,-0.040057 0.101721,0 0.126707,0.012209 0.218452,0.1067482 0.134926,0.1390307 0.190826,0.2547658 0.352011,0.7287993 0.07339,0.2158498 0.166702,0.4665138 0.207351,0.5570317 0.117293,0.26119 0.198589,0.5771253 0.168722,0.6556822 -0.03818,0.1004159 -0.09582,0.1519425 -0.189672,0.1695489 -0.159019,0.02983 -0.246095,-0.072073 -0.313575,-0.366963 -0.0172,-0.075207 -0.06242,-0.2062369 -0.100492,-0.2911754 C 25.6521,6.0231358 25.567634,5.7998247 25.502461,5.6118268 25.43728,5.4238282 25.372133,5.2417757 25.357673,5.2072647 25.332322,5.1467627 25.330406,5.1463097 25.304091,5.1946036 25.191094,5.402009 25.03427,5.603648 24.910146,5.7011235 24.715207,5.8542118 24.57062,5.8994694 24.322384,5.8850994 l -0.1967,-0.011386 -0.01015,0.4450777 c -0.0083,0.3587446 -0.01869,0.4609936 -0.0539,0.5271279 -0.07058,0.1325963 -0.224998,0.205779 -0.336629,0.159536 z M 22.034639,6.7782605 C 21.502123,6.5414127 21.158003,6.1991703 20.901734,5.6515367 20.769595,5.369162 20.710598,4.825133 20.779636,4.5256455 c 0.0458,-0.198672 0.189085,-0.4685335 0.3449,-0.6495709 0.128605,-0.1494226 0.184655,-0.1921706 0.359665,-0.2742975 0.20417,-0.095811 0.211055,-0.097127 0.453201,-0.086576 0.213558,0.0093 0.268022,0.021528 0.414323,0.092983 0.226734,0.110738 0.432929,0.3259576 0.487121,0.5084406 0.0451,0.1518396 0.02491,0.3887133 -0.04581,0.5377509 -0.07278,0.1533985 -0.293007,0.3997644 -0.427981,0.4788033 -0.07212,0.042238 -0.232234,0.1380415 -0.355798,0.2129021 -0.191915,0.1162691 -0.500004,0.2404275 -0.596604,0.2404275 -0.05244,0 0.15075,0.2894788 0.306153,0.4361709 0.165059,0.1558058 0.301146,0.241268 0.53847,0.3381569 0.176184,0.071928 0.262708,0.074857 0.628199,0.021258 0.335236,-0.049162 0.43478,-0.02761 0.490707,0.1062468 0.04285,0.1025542 0.02609,0.1880925 -0.05109,0.2605899 -0.06996,0.06572 -0.308247,0.1033795 -0.749357,0.118429 L 22.259234,6.878159 Z M 21.536653,5.067801 c 0.164407,-0.058007 0.663582,-0.3807381 0.741792,-0.4795905 0.08272,-0.1045575 0.120054,-0.194636 0.120054,-0.289685 0,-0.1418709 -0.286333,-0.3308276 -0.502967,-0.3319178 -0.333815,-0.00169 -0.652523,0.4021357 -0.681174,0.8630717 -0.01119,0.180102 -0.0082,0.195365 0.04734,0.2342062 0.07339,0.051405 0.137751,0.052322 0.274949,0.00389 z m -8.464737,1.6972778 c -0.05125,-0.047506 -0.06698,-0.086245 -0.06698,-0.164921 0,-0.056558 0.01302,-0.1236728 0.02892,-0.1491452 0.022,-0.035228 0.01839,-0.1457633 -0.01506,-0.4617393 -0.02419,-0.2284841 -0.05417,-0.5179702 -0.06661,-0.643302 -0.02016,-0.2031209 -0.12788,-1.074491 -0.237877,-1.9242914 -0.049,-0.378552 -0.1145,-1.264427 -0.1145,-1.5485795 0,-0.3037757 0.04301,-0.6612209 0.118289,-0.98338224 0.117671,-0.50348792 0.456984,-1.08463916 0.732814,-1.25511088 0.09729,-0.0601278 0.513693,-0.15006934 0.693394,-0.14976998 0.172564,2.954e-4 0.343468,0.0622554 0.595011,0.21574689 0.335828,0.20491997 0.613915,0.48245484 0.706228,0.70482333 0.05675,0.13668631 0.05363,0.51806569 -0.0055,0.68948668 -0.06112,0.176825 -0.242178,0.4702476 -0.389892,0.6318722 -0.284241,0.3110048 -0.799091,0.6047155 -1.285525,0.7333644 -0.14622,0.03867 -0.296622,0.08569 -0.334226,0.1044868 -0.09074,0.045354 -0.19859,0.043244 -0.26781,-0.00524 -0.05596,-0.039194 -0.05629,-0.038678 -0.05629,0.090098 0,0.071233 0.0106,0.2057561 0.02354,0.2989416 0.01295,0.093186 0.03659,0.2947593 0.05255,0.4479433 0.01594,0.1531836 0.05055,0.443726 0.07686,0.6456502 0.100092,0.7679023 0.127932,0.9948871 0.177454,1.4464379 0.09175,0.8365912 0.102532,1.0080172 0.07018,1.1159955 -0.06229,0.2079269 -0.292197,0.292851 -0.434861,0.1606347 z M 13.481979,2.053531 C 13.602556,2.017318 13.741087,1.975618 13.789828,1.960861 14.156905,1.849727 14.554535,1.5983309 14.753069,1.3518661 14.963533,1.0905894 15.068071,0.80236978 15.020753,0.61384 14.977793,0.44264414 14.497115,0.04726883 14.240501,-0.02795523 14.134357,-0.05907057 14.102386,-0.0585368 13.982343,-0.02365663 13.906993,-0.00174838 13.8138,0.0161728 13.775261,0.0161728 c -0.112885,0 -0.262406,0.18060335 -0.421771,0.50944815 -0.20306,0.41900727 -0.25338,0.65357415 -0.267086,1.24503855 l -0.01103,0.4758467 0.09369,-0.063578 c 0.05152,-0.034969 0.19234,-0.093205 0.312917,-0.1294169 z m 2.07305,4.5753847 C 15.348737,6.5693464 15.266162,6.4915895 15.076157,6.1779852 14.867123,5.8329724 14.817457,5.7324685 14.777421,5.5734655 c -0.02908,-0.1154936 -0.027,-0.1385326 0.02295,-0.2546767 0.0541,-0.1257844 0.153274,-0.2133541 0.241601,-0.2133541 0.150443,0 0.263214,0.1585906 0.221137,0.3109833 -0.02943,0.1066133 -5.83e-4,0.1788229 0.204296,0.5110489 0.157273,0.2550454 0.196195,0.2786189 0.417821,0.2530533 0.115113,-0.01328 0.149884,-0.031669 0.256836,-0.1358438 0.133383,-0.1299195 0.213962,-0.267175 0.272424,-0.4640374 0.04284,-0.1442648 0.03604,-0.1579371 -0.138257,-0.2778553 -0.110606,-0.0761 -0.115064,-0.076869 -0.431889,-0.074564 -0.282477,0.00206 -0.33353,-0.00429 -0.434067,-0.053897 -0.15802,-0.077981 -0.220722,-0.2047519 -0.177546,-0.3589625 0.03771,-0.1346727 0.148064,-0.2728305 0.258956,-0.3241933 0.04574,-0.021189 0.214197,-0.051459 0.374344,-0.067273 0.607954,-0.060034 0.951166,0.063141 1.036989,0.3721617 0.01439,0.051789 0.02622,0.1840187 0.02629,0.2938433 l 1.51e-4,0.1996809 0.12027,0.1041545 c 0.06614,0.057286 0.171538,0.1568429 0.234205,0.2212401 0.176475,0.181349 0.387343,0.3422741 0.527508,0.4025723 l 0.127573,0.054881 0.141823,-0.053064 c 0.196781,-0.073625 0.279879,-0.068918 0.369746,0.02095 0.05338,0.053379 0.07401,0.098517 0.07401,0.1619201 0,0.1172939 -0.06858,0.1792145 -0.303835,0.2743365 -0.23053,0.09321 -0.354362,0.087137 -0.603856,-0.029615 C 17.404722,6.3476604 17.27345,6.252592 17.029095,6.0212569 l -0.196028,-0.1855835 -0.09635,0.1855835 c -0.106368,0.2048981 -0.351597,0.4690923 -0.509233,0.5486165 -0.09149,0.046157 -0.375394,0.1076118 -0.477462,0.1033539 -0.02671,-0.00112 -0.114459,-0.021054 -0.194995,-0.04431 z m 3.286062,-0.05356 c -0.148016,-0.060581 -0.188034,-0.2119136 -0.113212,-0.4281201 0.02959,-0.085502 0.05431,-0.21531 0.05494,-0.2884636 0.0018,-0.2139694 -0.07663,-0.8731695 -0.13337,-1.1204715 -0.02877,-0.1253323 -0.05874,-0.3422728 -0.06662,-0.4820901 l -0.01433,-0.2542135 0.07946,-0.079468 c 0.09173,-0.091731 0.27217,-0.1272333 0.493127,-0.097024 0.07173,0.00981 0.215878,0.027113 0.320322,0.03846 0.104439,0.011345 0.263958,0.040402 0.354475,0.064569 0.09052,0.024169 0.255255,0.043995 0.366083,0.044058 0.186715,1.011e-4 0.206695,0.00531 0.272186,0.070799 0.07676,0.076768 0.09451,0.2062611 0.03822,0.2790346 C 20.405562,4.4346674 20.331525,4.4550012 20.074427,4.437206 19.939188,4.427846 19.743084,4.397958 19.638641,4.370788 19.534202,4.343621 19.397396,4.321194 19.334639,4.320956 19.271889,4.3207283 19.183577,4.309924 19.138411,4.29697 c -0.0783,-0.022455 -0.08213,-0.020337 -0.08213,0.045495 0,0.037976 0.02254,0.1723358 0.0501,0.2985781 0.05126,0.2348347 0.08009,0.4434991 0.128644,0.9309985 0.03186,0.3198633 0.0063,0.582576 -0.07915,0.8107169 -0.04435,0.1185472 -0.07014,0.1520069 -0.139491,0.1809819 -0.09571,0.039986 -0.104557,0.040573 -0.175322,0.01161 z M 6.5737358,5.0014289 C 6.4934531,4.9699293 6.4231095,4.8809993 6.422381,4.8100858 6.421999,4.7736088 6.377552,4.7227894 6.2894951,4.6581679 6.2167139,4.6047603 6.1113248,4.5177731 6.0552881,4.4648636 5.9992498,4.4119534 5.9135264,4.3471077 5.8647864,4.3207625 5.7298791,4.2478406 5.5270441,4.0461645 5.4247819,3.8832715 5.2954939,3.6773313 5.3041478,3.5423705 5.4516838,3.4637951 c 0.1334595,-0.071081 0.2818634,-0.010216 0.3630331,0.1488878 0.026559,0.052057 0.1177704,0.1500126 0.2026962,0.2176789 0.084926,0.067668 0.2021146,0.1641034 0.2604207,0.2143034 0.058303,0.0502 0.1914632,0.1563734 0.2959072,0.2359407 0.2512909,0.1914384 0.3291546,0.2950843 0.3291546,0.4381426 0,0.1464275 -0.05571,0.2480767 -0.1549267,0.2826626 -0.093363,0.032547 -0.091326,0.032547 -0.1742279,1.78e-5 z M 4.3586936,3.8123897 C 4.3032214,3.770426 4.2472286,3.7166238 4.2342595,3.6928257 4.2212852,3.6690289 4.1983084,3.641969 4.1831964,3.6326956 4.0775871,3.5679038 3.9539342,3.4692774 3.7416167,3.2804874 3.6072991,3.1610534 3.4268983,3.0158374 3.3407257,2.9577847 3.2545532,2.899732 3.1774342,2.8415326 3.1693496,2.8284525 3.1612684,2.8153701 3.0935578,2.7869094 3.018887,2.7652024 2.8604152,2.7191332 2.8011139,2.6474223 2.8011139,2.5018572 c 0,-0.2044282 0.2165226,-0.2970931 0.4345111,-0.1859566 0.1702806,0.086814 0.6272709,0.4307153 0.8535629,0.6423359 0.078367,0.073285 0.1994526,0.1719192 0.269082,0.2191864 0.069631,0.047268 0.1759358,0.1329556 0.2362373,0.1904185 0.1946882,0.1855229 0.2276192,0.3116823 0.1159866,0.4443499 -0.089016,0.1057901 -0.212126,0.1058587 -0.3517995,2.031e-4 z"
       id="path3045" />
  </g>
</svg>
