<?xml version="1.0" encoding="UTF-8" standalone="no"?>
<!-- Created with Inkscape (http://www.inkscape.org/) -->

<svg
   width="30.48877mm"
   height="7.21311mm"
   viewBox="0 0 30.48877 7.2131102"
   version="1.1"
   id="svg5"
   inkscape:version="1.1.1 (3bf5ae0d25, 2021-09-20)"
   sodipodi:docname="powered-by.svg"
   xmlns:inkscape="http://www.inkscape.org/namespaces/inkscape"
   xmlns:sodipodi="http://sodipodi.sourceforge.net/DTD/sodipodi-0.dtd"
   xmlns="http://www.w3.org/2000/svg"
   xmlns:svg="http://www.w3.org/2000/svg">
  <sodipodi:namedview
     id="namedview7"
     pagecolor="#ffffff"
     bordercolor="#666666"
     borderopacity="1.0"
     inkscape:pageshadow="2"
     inkscape:pageopacity="0.0"
     inkscape:pagecheckerboard="0"
     inkscape:document-units="mm"
     showgrid="false"
     fit-margin-top="0"
     fit-margin-left="0"
     fit-margin-right="0"
     fit-margin-bottom="0"
     inkscape:zoom="1.0104048"
     inkscape:cx="123.71279"
     inkscape:cy="10.391875"
     inkscape:window-width="1920"
     inkscape:window-height="991"
     inkscape:window-x="-9"
     inkscape:window-y="-9"
     inkscape:window-maximized="1"
     inkscape:current-layer="layer1" />
  <defs
     id="defs2" />
  <g
     inkscape:label="Capa 1"
     inkscape:groupmode="layer"
     id="layer1"
     transform="translate(-5.129665,-42.027462)">
    <path
       style="fill:#414141;fill-opacity:1;stroke-width:0.0264334"
       d="m 30.239223,49.211038 c -0.08674,-0.04974 -0.117222,-0.107307 -0.118108,-0.223014 -0.0011,-0.121385 0.07377,-0.387678 0.176884,-0.63058 0.121217,-0.285537 0.543814,-1.18574 0.636565,-1.355992 0.04989,-0.09157 0.08518,-0.172015 0.07842,-0.178772 -0.0067,-0.0067 -0.05848,0.007 -0.114925,0.0306 -0.07717,0.03225 -0.162137,0.04028 -0.342395,0.0324 -0.288573,-0.01262 -0.419197,-0.07628 -0.600189,-0.292498 -0.245268,-0.292999 -0.542489,-0.852807 -0.615613,-1.159485 -0.04302,-0.180428 0.141276,-0.357622 0.295067,-0.283695 0.07906,0.038 0.103912,0.07952 0.195268,0.326199 0.172262,0.465133 0.442418,0.878902 0.623158,0.95442 0.09763,0.04078 0.295662,0.01559 0.43216,-0.055 0.10507,-0.05433 0.217995,-0.05084 0.281931,0.0088 0.05204,0.04848 0.0547,0.04527 0.22306,-0.269523 0.198845,-0.371793 0.36696,-0.664484 0.488288,-0.850102 0.04752,-0.07269 0.124018,-0.199833 0.170013,-0.282535 0.113413,-0.203937 0.26519,-0.338651 0.381542,-0.338651 0.117938,0 0.19913,0.07013 0.218043,0.188332 0.01328,0.08298 0.0031,0.109534 -0.07636,0.198251 -0.205292,0.229333 -0.736113,1.164306 -1.281292,2.256832 -0.47489,0.951668 -0.700192,1.488648 -0.664255,1.58317 0.03278,0.08625 0.0127,0.162091 -0.0652,0.246151 -0.114881,0.123959 -0.218153,0.154345 -0.322055,0.09476 z M 5.422461,47.535045 C 5.384484,47.497065 5.347897,47.428673 5.341164,47.383052 5.301202,47.112536 5.245766,46.29419 5.246016,45.978433 5.2461728,45.774896 5.219564,45.316936 5.186875,44.960746 5.149181,44.549966 5.128283,44.139122 5.129736,43.837324 c 0.00213,-0.426639 0.00842,-0.491549 0.061533,-0.628206 0.1024139,-0.263493 0.2398243,-0.379381 0.5177154,-0.43663 0.1911368,-0.03938 0.6121628,-0.03751 0.9818614,0.0043 0.4949893,0.05606 0.7161589,0.18702 0.8948669,0.529875 0.129139,0.247756 0.1291221,0.422605 -5.32e-5,0.691198 -0.1119716,0.232798 -0.1962013,0.306751 -0.5521874,0.484819 -0.2791039,0.13961 -0.4568481,0.187573 -0.8847972,0.238752 -0.1361754,0.01629 -0.2813,0.04704 -0.3224975,0.06834 -0.041211,0.02131 -0.1027072,0.03873 -0.1366724,0.03873 -0.061347,0 -0.061621,0.0014 -0.041689,0.218077 0.011038,0.119942 0.031829,0.563032 0.046216,0.984645 0.023883,0.700308 0.03904,0.874798 0.1067397,1.228767 0.026319,0.137625 -0.01607,0.269994 -0.1010285,0.315463 -0.092661,0.04959 -0.203368,0.03342 -0.2772799,-0.04049 z m 0.4319054,-3.223719 c 0.0945,-0.02031 0.2156462,-0.03714 0.2692149,-0.03739 0.142055,-6.6e-4 0.4534552,-0.0709 0.6113859,-0.13789 0.4135262,-0.175401 0.5744769,-0.396718 0.4556388,-0.626528 -0.048944,-0.09465 -0.209508,-0.236119 -0.2859951,-0.251983 -0.3890761,-0.08069 -1.0959201,-0.08682 -1.2123911,-0.01052 -0.099726,0.06534 -0.1326922,0.220295 -0.130404,0.612941 0.00248,0.426893 0.018187,0.528967 0.077718,0.505357 0.023662,-0.0094 0.120337,-0.03368 0.2148365,-0.05399 z M 19.902495,47.527067 C 19.722097,47.423594 19.586024,47.26625 19.475293,47.033083 l -0.09238,-0.194538 -0.228599,0.117261 c -0.600913,0.308238 -0.893997,0.369807 -1.324985,0.278345 -0.191453,-0.04063 -0.441096,-0.194359 -0.56167,-0.345873 -0.105703,-0.132831 -0.204269,-0.427622 -0.204949,-0.612954 -0.0017,-0.450757 0.335041,-1.107144 0.70843,-1.381118 0.163776,-0.12017 0.357737,-0.174476 0.678769,-0.190047 0.229864,-0.01115 0.280532,-0.0055 0.388552,0.04323 0.447843,0.202068 0.266939,0.73001 -0.383104,1.118037 -0.271253,0.161918 -0.48792,0.231962 -0.717525,0.231962 -0.216077,0 -0.226311,0.0083 -0.226311,0.185005 0,0.41732 0.443342,0.649424 0.951605,0.498199 0.05088,-0.01514 0.248559,-0.10516 0.439279,-0.200046 l 0.346765,-0.172519 0.01324,-0.232606 c 0.02235,-0.391953 0.213566,-0.719946 0.469232,-0.804863 0.298342,-0.09909 0.73577,0.109239 0.739469,0.352187 0.0014,0.07922 -0.135323,0.216043 -0.215577,0.216043 -0.03409,0 -0.103404,-0.02782 -0.154028,-0.06181 -0.144256,-0.09687 -0.207361,-0.103436 -0.276566,-0.02876 -0.1536,0.165738 -0.155893,0.503998 -0.0058,0.868525 0.199365,0.484465 0.431585,0.573621 0.652139,0.250377 0.159317,-0.23349 0.206641,-0.455658 0.280974,-1.319098 0.05793,-0.672922 0.08563,-3.130624 0.03695,-3.278141 -0.05805,-0.175886 0.05539,-0.344401 0.230492,-0.342401 0.07588,8.79e-4 0.125435,0.03025 0.190353,0.112889 0.07814,0.09948 0.0629,2.331636 -0.02487,3.63982 -0.04589,0.684021 -0.156917,1.200508 -0.295269,1.37358 -0.03353,0.04193 -0.09618,0.125055 -0.139266,0.184732 -0.183035,0.253545 -0.580674,0.34196 -0.848089,0.188573 z m -1.783008,-1.994154 c 0.229352,-0.111858 0.504324,-0.343558 0.459249,-0.386978 -0.0127,-0.01224 -0.121984,-0.0062 -0.242846,0.01337 -0.159823,0.0259 -0.244833,0.05475 -0.311725,0.105772 -0.109741,0.08371 -0.301182,0.319798 -0.301182,0.371435 0,0.05758 0.142205,0.02042 0.396504,-0.103599 z m 9.383494,1.993046 c -0.191047,-0.04993 -0.415785,-0.15506 -0.550496,-0.257534 -0.273582,-0.208107 -0.547787,-0.775443 -0.652886,-1.35084 -0.127938,-0.70042 -0.127095,-0.688158 -0.12915,-1.882629 l -0.002,-1.150474 -0.05948,-0.07564 c -0.19041,-0.242153 0.137052,-0.51442 0.408382,-0.33955 0.110344,0.07112 0.116974,0.154108 0.09905,1.239786 -0.01872,1.132998 0.0017,1.519529 0.107453,2.051731 0.139919,0.703073 0.349109,1.100644 0.654618,1.244104 0.178343,0.08375 0.422581,0.133245 0.553868,0.112252 0.140282,-0.02243 0.371389,-0.198096 0.460367,-0.349923 0.10573,-0.180415 0.120044,-0.491603 0.03217,-0.699585 -0.06635,-0.157051 -0.242048,-0.33076 -0.469217,-0.463899 -0.13048,-0.07647 -0.251104,-0.07524 -0.491983,0.005 -0.208176,0.06937 -0.251117,0.105916 -0.251117,0.213677 0,0.06858 -0.02085,0.114796 -0.07727,0.171208 -0.100265,0.100261 -0.194571,0.100261 -0.294836,0 -0.06256,-0.06257 -0.07727,-0.09996 -0.07727,-0.19653 0,-0.338531 0.254782,-0.563783 0.753351,-0.666037 0.116308,-0.02386 0.268138,-0.038 0.337398,-0.03141 0.165819,0.01574 0.408963,0.145655 0.648888,0.346703 0.162302,0.135998 0.210325,0.196236 0.299585,0.37577 0.08872,0.178443 0.108681,0.248527 0.120686,0.423689 0.03233,0.471509 -0.09117,0.789165 -0.410491,1.055944 -0.319545,0.266965 -0.604086,0.330134 -1.009663,0.224152 z M 14.658142,47.085222 c -0.09371,-0.0362 -0.242398,-0.124369 -0.330417,-0.195933 -0.228329,-0.185638 -0.513577,-0.51503 -0.593695,-0.685573 -0.06193,-0.13183 -0.06838,-0.175451 -0.06649,-0.449967 0.0017,-0.26916 0.01063,-0.325181 0.07657,-0.489019 0.17878,-0.444187 0.442904,-0.645051 0.879438,-0.668808 0.183628,-0.01 0.239826,-0.0026 0.356851,0.04713 0.256073,0.108751 0.341419,0.232373 0.346844,0.502392 l 0.0035,0.175392 0.0793,0.0018 c 0.04362,9.74e-4 0.263675,0.01216 0.489021,0.02481 0.225346,0.01265 0.510825,0.01542 0.634401,0.0061 0.322313,-0.02418 0.417706,0.03802 0.391959,0.255558 -0.02092,0.17681 -0.252078,0.224482 -0.960277,0.198048 -0.203539,-0.0076 -0.377298,-0.004 -0.386137,0.0081 -0.0089,0.01206 -0.02283,0.166689 -0.03111,0.343634 -0.02496,0.534396 -0.15914,0.824508 -0.437431,0.945837 -0.148882,0.06491 -0.244351,0.06078 -0.452346,-0.01956 z m 0.333446,-0.439344 c 0.0679,-0.09287 0.140918,-0.551141 0.140918,-0.884414 v -0.118852 l -0.10355,0.115698 c -0.130047,0.145298 -0.512828,0.363513 -0.679628,0.38744 l -0.123516,0.01772 0.227007,0.226995 c 0.215326,0.215311 0.317483,0.278999 0.458375,0.285759 0.03094,0.0015 0.06711,-0.01217 0.08039,-0.03034 z m -0.497682,-1.040353 c 0.158139,-0.08204 0.400699,-0.354323 0.400699,-0.449788 0,-0.0759 -0.08271,-0.115691 -0.240471,-0.115691 -0.225778,0 -0.397201,0.134633 -0.493057,0.387237 -0.07434,0.195912 -0.07446,0.194216 0.01322,0.194704 0.03998,2.14e-4 0.09054,0.01194 0.112344,0.02603 0.05499,0.03554 0.05811,0.03489 0.207269,-0.04249 z m -6.4059136,1.472953 c -0.1844839,-0.04884 -0.4038339,-0.18828 -0.561785,-0.35713 -0.242699,-0.259446 -0.3109369,-0.389767 -0.3086141,-0.589393 0.00115,-0.09981 0.021314,-0.206715 0.051638,-0.27396 l 0.049733,-0.110281 -0.069718,-0.05079 c -0.08135,-0.05926 -0.1377568,-0.207194 -0.1117254,-0.293008 0.072101,-0.237667 0.4312286,-0.369719 1.0033456,-0.368929 0.5801473,8.25e-4 0.9226522,0.113301 1.1647568,0.38258 0.1855142,0.206336 0.2806011,0.43305 0.2954023,0.704322 0.017088,0.313107 -0.045135,0.476485 -0.2616771,0.687061 -0.2115978,0.205772 -0.4042582,0.269268 -0.8548467,0.281738 -0.1744602,0.0049 -0.3528865,-6.6e-4 -0.3965016,-0.01222 z m 0.7651565,-0.482997 c 0.1481719,-0.06 0.2507834,-0.162127 0.2942222,-0.292839 0.037658,-0.113333 0.03772,-0.138468 6.591e-4,-0.266021 -0.07832,-0.269421 -0.2584843,-0.446232 -0.5313526,-0.521469 -0.1421852,-0.03921 -0.6929065,-0.0522 -0.8108011,-0.01913 l -0.070666,0.01982 0.077275,0.07728 c 0.1113993,0.1114 0.095606,0.242408 -0.0423,0.350884 -0.032069,0.02523 -0.073226,0.08188 -0.091461,0.125905 -0.038438,0.0928 -0.014661,0.140911 0.1670304,0.338027 0.1292577,0.140228 0.2793874,0.223136 0.4405037,0.243267 0.1478663,0.01848 0.4592674,-0.01213 0.5669054,-0.05571 z m 2.1780541,0.3638 c -0.176088,-0.0629 -0.333707,-0.17256 -0.450224,-0.313235 -0.129709,-0.156602 -0.285793,-0.376619 -0.285793,-0.402856 0,-0.0096 -0.04553,-0.07303 -0.10119,-0.141063 -0.05565,-0.06804 -0.153,-0.212906 -0.2163256,-0.321944 -0.1325735,-0.228278 -0.3651868,-0.555103 -0.395085,-0.555103 -0.01118,0 -0.051691,-0.03136 -0.090015,-0.06969 -0.1200075,-0.120008 -0.085177,-0.318518 0.065971,-0.375983 0.2035833,-0.0774 0.4440596,0.155037 0.8165996,0.789306 0.06404,0.109038 0.159134,0.251778 0.211311,0.317201 0.05218,0.06542 0.109899,0.149409 0.128272,0.186636 0.114069,0.231128 0.386532,0.474201 0.531538,0.474201 0.07666,0 0.248377,-0.114072 0.31717,-0.210686 l 0.05799,-0.08144 -0.182797,-0.217398 c -0.159098,-0.189213 -0.376871,-0.511095 -0.376871,-0.557041 0,-0.0085 -0.04594,-0.109545 -0.102097,-0.224453 -0.143185,-0.293004 -0.188687,-0.440269 -0.188572,-0.610292 1.71e-4,-0.250606 0.137572,-0.398401 0.370394,-0.398401 0.139199,0 0.195672,0.03124 0.237057,0.131157 0.04183,0.100994 9.75e-4,0.215562 -0.09538,0.2671 -0.08201,0.0439 -0.0755,0.0763 0.08731,0.434396 0.157951,0.34741 0.377862,0.683562 0.419771,0.641653 0.03098,-0.03099 0.141834,-0.676295 0.158155,-0.92076 0.01026,-0.153509 0.03302,-0.298756 0.05057,-0.322771 0.08976,-0.122746 0.305043,-0.09832 0.399136,0.04529 0.03917,0.05978 0.04121,0.08892 0.01529,0.218084 -0.01648,0.082 -0.0302,0.191703 -0.0305,0.243797 -3.16e-4,0.0521 -0.03504,0.261248 -0.07714,0.464786 -0.06853,0.331244 -0.08865,0.41509 -0.145863,0.607969 -0.01199,0.04046 0.0068,0.06733 0.08039,0.11447 0.208539,0.133717 0.328288,0.104406 0.572924,-0.140231 0.182431,-0.182431 0.247988,-0.31401 0.298437,-0.598973 0.07644,-0.431792 0.0997,-0.539507 0.137575,-0.636955 0.08005,-0.205963 0.397546,-0.291776 0.526194,-0.142216 0.107448,0.124915 0.07798,0.231949 -0.100882,0.366469 -0.0303,0.02278 -0.06135,0.137247 -0.100561,0.370737 -0.03122,0.185774 -0.07427,0.387482 -0.09571,0.44824 -0.0595,0.168669 -0.189827,0.360158 -0.366521,0.538558 -0.198383,0.200304 -0.394749,0.303781 -0.608804,0.320817 -0.138855,0.01105 -0.18412,0.0015 -0.355482,-0.07527 -0.153437,-0.06871 -0.199046,-0.0799 -0.20862,-0.05118 -0.02891,0.08675 -0.224239,0.259149 -0.383315,0.338319 -0.189925,0.09452 -0.353558,0.109741 -0.524273,0.04876 z m 24.104452,-0.472003 c -0.106346,-0.08076 -0.110598,-0.246782 -0.0092,-0.359363 0.194497,-0.21596 0.491979,-0.171845 0.491979,0.07295 0,0.08998 -0.016,0.11758 -0.122673,0.211469 -0.09592,0.08443 -0.143818,0.10798 -0.219633,0.10798 -0.05333,0 -0.116538,-0.01486 -0.140468,-0.03304 z m -0.065,-2.079402 c -0.206773,-0.01942 -0.283675,-0.08452 -0.283675,-0.240133 0,-0.121447 0.07115,-0.211169 0.172307,-0.21727 0.239095,-0.01441 0.338266,0.0062 0.419211,0.08713 0.09847,0.09847 0.106307,0.205447 0.02187,0.298341 -0.07362,0.08098 -0.121698,0.09146 -0.3297,0.07192 z"
       id="path3636" />
  </g>
</svg>
