<?xml version="1.0" encoding="UTF-8" standalone="no"?>
<!-- Created with Inkscape (http://www.inkscape.org/) -->

<svg
   width="21.872mm"
   height="19.049999mm"
   viewBox="0 0 21.872 19.049999"
   version="1.1"
   id="svg5"
   sodipodi:docname="en.svg"
   inkscape:version="1.1.1 (3bf5ae0d25, 2021-09-20)"
   xmlns:inkscape="http://www.inkscape.org/namespaces/inkscape"
   xmlns:sodipodi="http://sodipodi.sourceforge.net/DTD/sodipodi-0.dtd"
   xmlns="http://www.w3.org/2000/svg"
   xmlns:svg="http://www.w3.org/2000/svg">
  <sodipodi:namedview
     id="namedview7"
     pagecolor="#ffffff"
     bordercolor="#666666"
     borderopacity="1.0"
     inkscape:pageshadow="2"
     inkscape:pageopacity="0.0"
     inkscape:pagecheckerboard="0"
     inkscape:document-units="mm"
     showgrid="false"
     inkscape:zoom="5"
     inkscape:cx="71.8"
     inkscape:cy="25.7"
     inkscape:window-width="1920"
     inkscape:window-height="991"
     inkscape:window-x="-9"
     inkscape:window-y="-9"
     inkscape:window-maximized="1"
     inkscape:current-layer="layer1" />
  <defs
     id="defs2" />
  <g
     inkscape:label="Capa 1"
     inkscape:groupmode="layer"
     id="layer1">
    <path
       style="fill:#414141;stroke-width:0.352778;fill-opacity:1"
       d="m 15.844945,12.259027 c -0.601048,-0.824618 -1.42629,-2.134305 -1.833873,-2.9104164 l -0.741059,-1.411111 -0.373201,1.8387158 c -0.42799,2.1086496 -1.02787,2.9393936 -1.663528,2.3037356 -0.307116,-0.307116 -0.308153,-0.529151 -0.0042,-0.895411 0.222309,-0.267865 0.525143,-1.8095487 0.672965,-3.4259619 0.284848,-3.1147648 0.750291,-3.8174328 1.464859,-2.2114636 0.827762,1.8603672 3.340355,6.0945515 3.616548,6.0945515 0.152399,0 0.322525,-1.545973 0.378058,-3.4354965 0.08398,-2.8575697 0.198591,-3.4541712 0.681284,-3.5465101 0.517419,-0.098982 0.562984,0.3020472 0.420403,3.7000795 -0.194645,4.6388291 -0.336114,5.3985941 -1.005226,5.3985941 -0.286128,0 -1.011999,-0.674688 -1.613046,-1.499306 z M 5.2986189,12.946903 C 3.9887039,12.292393 3.5387416,11.050378 3.5329782,8.0732693 3.5269393,4.9537981 4.0240653,4.0474612 6.3053972,3.0187238 7.924287,2.2887063 9.1852516,2.4855464 8.4632016,3.3555632 8.2235642,3.6443089 7.7462238,3.8805554 7.4024454,3.8805554 c -1.0427105,0 -2.8162541,1.9214834 -2.8169773,3.0519544 L 4.5848253,7.9374996 6.7021346,7.8179711 c 1.7496285,-0.098772 2.1173094,-0.022195 2.1173094,0.4409722 0,0.4190481 -0.3573276,0.5605007 -1.4158979,0.5605007 -2.420482,0 -3.2633171,1.1420421 -2.0177315,2.734028 0.4158986,0.531561 3.1447467,0.588743 3.6568611,0.07663 0.4647646,-0.464765 1.5406573,-0.06549 1.5406573,0.571754 0,0.266586 -0.357188,0.557104 -0.7937502,0.645596 -2.2960004,0.465403 -3.6964914,0.496417 -4.4909639,0.09945 z"
       id="path14712" />
  </g>
</svg>
