<?xml version="1.0" encoding="UTF-8" standalone="no"?>
<!-- Created with Inkscape (http://www.inkscape.org/) -->

<svg
   width="160mm"
   height="160mm"
   viewBox="0 0 160 160"
   version="1.1"
   id="svg5"
   inkscape:version="1.1.1 (3bf5ae0d25, 2021-09-20)"
   sodipodi:docname="favicon.svg"
   xmlns:inkscape="http://www.inkscape.org/namespaces/inkscape"
   xmlns:sodipodi="http://sodipodi.sourceforge.net/DTD/sodipodi-0.dtd"
   xmlns="http://www.w3.org/2000/svg"
   xmlns:svg="http://www.w3.org/2000/svg">
  <sodipodi:namedview
     id="namedview7"
     pagecolor="#ffffff"
     bordercolor="#666666"
     borderopacity="1.0"
     inkscape:pageshadow="2"
     inkscape:pageopacity="0.0"
     inkscape:pagecheckerboard="0"
     inkscape:document-units="mm"
     showgrid="false"
     inkscape:zoom="0.71446409"
     inkscape:cx="397.50074"
     inkscape:cy="296.02608"
     inkscape:window-width="1920"
     inkscape:window-height="991"
     inkscape:window-x="-9"
     inkscape:window-y="-9"
     inkscape:window-maximized="1"
     inkscape:current-layer="layer1" />
  <defs
     id="defs2" />
  <g
     inkscape:label="Capa 1"
     inkscape:groupmode="layer"
     id="layer1">
    <path
       style="fill:#000000;stroke-width:0.264583"
       d="m 78.052088,150.23959 c -0.509323,-0.14815 -1.819011,-0.36015 -2.910417,-0.47112 -1.091406,-0.11097 -2.74288,-0.4047 -3.669943,-0.65272 -1.025438,-0.27434 -2.683359,-0.45281 -4.233334,-0.45572 -1.526098,-0.003 -3.34351,-0.19579 -4.53214,-0.48113 -4.259726,-1.02257 -11.262562,-4.61019 -15.492551,-7.93698 -1.026579,-0.80738 -3.030427,-2.18234 -4.452996,-3.05546 -1.42257,-0.87313 -3.712682,-2.50416 -5.089137,-3.62452 -1.376455,-1.12035 -3.128158,-2.39489 -3.892674,-2.8323 -0.764517,-0.43741 -2.218384,-1.5113 -3.230814,-2.38642 -1.012434,-0.87512 -2.436101,-2.00628 -3.163705,-2.51369 -3.283181,-2.28959 -7.989961,-7.00086 -10.318751,-10.32859 -0.582083,-0.83177 -1.445542,-2.0078 -1.918797,-2.6134 -0.473256,-0.60559 -1.206997,-1.63686 -1.630536,-2.29171 -0.423539,-0.65484 -1.063514,-1.54781 -1.422168,-1.98437 -0.358652,-0.43656 -0.836533,-1.33763 -1.061956,-2.00237 -0.225423,-0.66474 -0.645637,-1.61724 -0.933808,-2.11667 C 9.2842866,103.08156 8.2641746,100.32961 7.8002071,98.292708 7.5681789,97.274062 7.0973599,95.25 6.7539427,93.794792 5.7950013,89.731342 5.4118217,83.591016 5.8045597,78.58125 5.9813842,76.325677 6.2456188,73.944427 6.3917482,73.289583 6.5378776,72.63474 7.1812141,69.598646 7.8213851,66.542708 8.4615562,63.486771 9.2675824,59.974427 9.6125546,58.7375 10.90302,54.110424 14.991718,45.059325 16.87106,42.669439 c 0.431451,-0.548661 1.353594,-1.890533 2.049208,-2.981939 1.486501,-2.332297 11.17,-12.16588 14.549526,-14.775029 1.164166,-0.89879 2.673546,-2.079517 3.354176,-2.623838 4.905589,-3.923156 10.892676,-7.920711 12.917699,-8.625098 0.99771,-0.347044 4.821429,-2.006723 5.423959,-2.354259 0.291042,-0.167872 1.755934,-0.354092 3.255317,-0.413824 3.340034,-0.133058 4.558216,0.254281 6.116516,1.944839 0.593567,0.643941 1.079209,1.292525 1.079209,1.441297 0,0.49984 0.486903,0.277922 2.668863,-1.216405 1.194112,-0.817795 2.77876,-1.760034 3.521441,-2.093864 0.742677,-0.33383 2.299017,-1.1524817 3.458535,-1.8192257 1.159518,-0.6667441 2.528737,-1.2834461 3.042709,-1.3704493 0.956982,-0.1619943 3.34359,-0.8438327 5.696995,-1.627596 0.727604,-0.2423165 2.156354,-0.524786 3.175,-0.6277099 1.756723,-0.1774995 3.197345,-0.4309679 5.996033,-1.0549652 0.793978,-0.1770259 3.245284,-0.2087452 6.879164,-0.089015 4.90975,0.1617681 5.89403,0.1254276 7.55127,-0.2788002 1.36681,-0.3333861 2.37677,-0.4156369 3.57188,-0.2908911 0.91643,0.095658 3.39264,0.264464 5.5027,0.3751247 3.72675,0.1954474 3.89698,0.2304454 5.95312,1.2239363 1.79144,0.865591 2.60451,1.5074159 5.29167,4.1771541 1.74625,1.7349303 4.00844,3.7840633 5.02708,4.5536293 4.22937,3.195198 10.75509,9.643068 12.7923,12.639696 0.46735,0.687454 1.29262,1.776664 1.83393,2.420469 2.1499,2.556989 4.28615,5.718728 5.56461,8.235866 0.73911,1.455208 1.5898,3.00302 1.89043,3.439583 0.64509,0.936778 1.42767,3.496262 1.86067,6.085417 0.76174,4.5549 0.76111,18.136819 -0.001,22.339739 -0.14339,0.79071 -0.26039,1.921804 -0.26001,2.513542 0.001,1.709808 -0.71274,4.692761 -2.72682,11.394635 -1.53475,5.106895 -2.49173,7.665704 -4.45288,11.90625 -0.8749,1.891771 -1.96902,4.26552 -2.43138,5.274992 -0.46236,1.00948 -1.28857,2.53376 -1.83602,3.3873 -0.54746,0.85354 -1.35794,2.23025 -1.80106,3.05938 -1.24121,2.32241 -2.31177,3.93766 -5.05814,7.6316 -1.39067,1.87049 -2.67649,3.69855 -2.85738,4.06235 -0.18089,0.36381 -0.94033,1.29043 -1.68764,2.05918 -0.74731,0.76875 -2.72796,3.20431 -4.40145,5.41237 -3.04025,4.0114 -3.97204,4.94771 -10.3264,10.37648 -4.70987,4.02382 -8.54499,6.67251 -13.07327,9.02894 -3.34141,1.73881 -4.13763,2.0342 -7.82117,2.90158 -6.642666,1.56419 -17.710354,2.62521 -20.108334,1.92771 z m 8.334375,-11.20574 c 5.854253,-0.66557 7.058118,-0.85193 9.789584,-1.51547 3.574693,-0.86839 5.959163,-2.11259 10.683993,-5.57483 6.5028,-4.7651 11.12638,-9.00337 14.06005,-12.88833 2.51243,-3.32713 2.58309,-3.80468 0.37115,-2.5084 -0.61878,0.36263 -1.8794,0.77267 -2.80137,0.9112 -0.92198,0.13854 -2.50976,0.44127 -3.52841,0.67274 -1.01864,0.23148 -2.2688,0.49516 -2.77812,0.58597 -0.50932,0.0908 -1.16417,0.31653 -1.45521,0.50161 -1.30755,0.83146 -4.85022,1.43146 -9.27127,1.57019 -2.431793,0.0763 -4.971989,0.26751 -5.644877,0.42489 -0.672891,0.15737 -2.951419,0.32632 -5.063398,0.37544 -2.111978,0.0491 -4.671822,0.23537 -5.688542,0.41391 -2.091915,0.36733 -2.401771,0.37366 -5.155872,0.10534 -1.461489,-0.14238 -2.598542,-0.47152 -4.315161,-1.2491 -1.614427,-0.73129 -2.834209,-1.09659 -3.96875,-1.18855 -1.848694,-0.14985 -5.561513,-1.26592 -6.010318,-1.80669 -0.162721,-0.19607 -1.104659,-0.60681 -2.093198,-0.91276 -0.988539,-0.30594 -2.522686,-1.02758 -3.409215,-1.60364 C 59.221,114.77132 58.424477,114.3 58.33748,114.3 c -0.300408,0 -3.304144,-2.13701 -3.304144,-2.35073 0,-0.1179 -0.787614,-1.13743 -1.75025,-2.26564 -1.611567,-1.88874 -3.618955,-5.51152 -4.185944,-7.55446 -0.100968,-0.36381 -0.486754,-1.36072 -0.857303,-2.21537 -1.265309,-2.918352 -0.471758,-5.817087 2.049182,-7.485364 2.157463,-1.427742 5.44385,-1.037757 7.094157,0.84184 l 0.787,0.896345 0.810234,-1.641123 c 1.010947,-2.047663 3.150386,-4.621326 4.513366,-5.429401 1.076558,-0.638262 3.129042,-1.051412 6.130137,-1.233945 0.967057,-0.05882 2.217214,-0.306099 2.778125,-0.549513 0.805368,-0.349499 1.687539,-0.427003 4.194839,-0.368546 4.477314,0.104389 9.363388,0.06912 14.287501,-0.103116 3.244411,-0.113488 4.694659,-0.0532 6.208157,0.258074 2.563382,0.527201 3.706093,0.523629 5.962673,-0.01863 3.04556,-0.731856 3.83792,-0.760582 5.44432,-0.197358 0.95082,0.333369 1.62304,0.434819 1.89027,0.285273 0.22808,-0.127642 1.23095,-0.290777 2.2286,-0.362518 0.99764,-0.07175 2.29015,-0.248624 2.87223,-0.393068 0.58208,-0.144441 2.1299,-0.266422 3.43959,-0.271068 1.30968,-0.0047 3.75046,-0.19566 5.42395,-0.424474 1.67349,-0.228814 5.24537,-0.450466 7.9375,-0.492562 3.80386,-0.05947 5.20628,-0.180078 6.29237,-0.541117 0.84946,-0.28238 1.73147,-0.401437 2.24896,-0.303567 1.96125,0.370916 1.74008,0.654515 2.9624,-3.798708 1.59666,-5.817026 1.94524,-7.480456 2.14418,-10.232075 l 0.17547,-2.426867 -1.02471,0.233749 c -1.16554,0.265872 -2.69731,-0.05146 -3.95058,-0.818425 -1.12273,-0.687086 -3.44707,-4.174363 -4.05784,-6.088108 -0.40265,-1.261615 -3.01792,-3.73222 -6.25692,-5.91081 -0.73392,-0.493636 -1.49915,-1.096047 -1.70052,-1.338688 -0.20138,-0.242642 -0.732,-0.62842 -1.17916,-0.857287 -0.44716,-0.228865 -1.19743,-0.750922 -1.66726,-1.16013 -0.46983,-0.409204 -1.29461,-0.826624 -1.83285,-0.927597 -0.86732,-0.162708 -1.05062,-0.09649 -1.6119,0.582263 -0.34832,0.421217 -0.95997,1.123037 -1.35922,1.5596 -0.39925,0.436562 -1.06506,1.389062 -1.47959,2.116667 -0.71665,1.257908 -2.00431,3.175322 -3.96821,5.908923 -0.86894,1.209511 -1.79085,3.225292 -2.31437,5.060466 -0.40165,1.407933 -2.1925,3.858474 -3.30625,4.524161 -0.55025,0.32888 -1.29811,0.870352 -1.66191,1.203275 -2.69847,2.469409 -7.09448,1.702816 -8.750389,-1.525924 -1.63644,-3.190777 -0.912498,-6.009648 2.075589,-8.081894 1.21041,-0.839422 1.5467,-1.28492 2.54141,-3.366762 0.63052,-1.31963 1.59891,-3.054172 2.15198,-3.854537 2.73186,-3.953333 4.11556,-6.102011 4.91725,-7.635706 0.5049,-0.965938 1.27842,-1.974908 1.8161,-2.36892 0.51513,-0.377486 1.77678,-1.48554 2.80367,-2.462342 1.55696,-1.481027 2.12825,-1.847125 3.43958,-2.204212 0.86488,-0.235514 2.01437,-0.560716 2.55441,-0.722673 1.76025,-0.527894 4.54442,-0.08115 7.07301,1.13492 1.22875,0.590936 2.53844,1.309211 2.91042,1.596168 0.37199,0.286956 1.05585,0.782923 1.5197,1.102148 2.60444,1.792417 4.0602,2.885956 5.24206,3.937746 0.7276,0.647528 1.86142,1.543124 2.5196,1.990215 1.20366,0.817634 2.70761,2.341538 3.99632,4.049339 l 0.69508,0.921128 -0.10926,-1.454843 c -0.0601,-0.800163 -0.24638,-2.167972 -0.41396,-3.039573 -0.43147,-2.244111 -3.34766,-7.743772 -5.12223,-9.66007 -0.47166,-0.509323 -1.07639,-1.296268 -1.34385,-1.748766 -0.26745,-0.452498 -0.96253,-1.429067 -1.54462,-2.170155 -0.58208,-0.741084 -1.65364,-2.136126 -2.38125,-3.100093 -0.7276,-0.963965 -1.79656,-2.130521 -2.37545,-2.592346 -0.5789,-0.461825 -2.3053,-1.953445 -3.83646,-3.314712 -1.53116,-1.361268 -3.56892,-2.98563 -4.52837,-3.609696 -0.95945,-0.624065 -2.00984,-1.474832 -2.33419,-1.890594 -1.161,-1.488199 -3.4101,-3.723333 -4.28803,-4.261388 -0.76976,-0.471769 -1.38925,-0.556863 -4.46562,-0.613409 -2.42633,-0.0446 -4.39921,0.0773 -6.15152,0.38009 -1.95527,0.337856 -3.26806,0.40116 -5.42395,0.261547 -5.030533,-0.325769 -7.914121,-0.13841 -12.369327,0.803688 -1.164166,0.246175 -2.711979,0.566867 -3.439583,0.712649 -2.04927,0.41059 -4.930262,1.322896 -5.953125,1.88514 -0.509323,0.279963 -1.770452,0.912476 -2.80251,1.405585 -1.03206,0.493109 -2.034611,1.087111 -2.227897,1.320006 -0.193284,0.232894 -0.718093,0.580054 -1.166239,0.771467 -0.448148,0.191413 -1.707782,1.14786 -2.799188,2.125438 -1.091407,0.977577 -2.460625,2.090032 -3.042709,2.47212 -0.582083,0.382087 -1.437095,1.015275 -1.900026,1.407083 -1.617572,1.36906 -5.426493,2.163577 -8.011184,1.671087 -2.468803,-0.470411 -3.279542,-0.936614 -5.3745,-3.090542 l -1.791962,-1.8424 -0.957014,0.754413 c -0.52636,0.414926 -1.744041,1.373647 -2.705958,2.130485 -0.961916,0.75684 -2.284722,1.701398 -2.939565,2.099013 -0.654844,0.397619 -1.676229,1.147607 -2.269745,1.666637 -0.593516,0.519033 -1.961684,1.65807 -3.040374,2.531195 -6.330834,5.124368 -11.977054,11.73576 -15.026192,17.594792 -1.389162,2.669325 -3.740774,8.358954 -3.740774,9.050649 0,0.268164 -0.240855,1.169205 -0.535233,2.002314 -0.294378,0.83311 -0.763459,2.764901 -1.042401,4.29287 -0.278943,1.527969 -0.69698,3.588041 -0.928973,4.57794 -0.980735,4.184735 -1.504517,9.964097 -1.180956,13.030546 0.640424,6.069426 1.367717,9.975559 2.263568,12.157139 1.313489,3.198619 3.577221,7.356319 4.674967,8.586319 0.330887,0.37076 1.170666,1.52921 1.866176,2.57434 1.588323,2.38676 6.288127,7.11157 8.60415,8.64994 0.966255,0.64182 2.173546,1.61011 2.682869,2.15176 0.509323,0.54166 1.938073,1.64076 3.175001,2.44244 1.236927,0.80169 3.320521,2.32301 4.630208,3.38071 1.309688,1.05771 3.512344,2.60408 4.894792,3.43638 1.382448,0.83231 3.287448,2.13205 4.233334,2.88831 2.242113,1.79263 5.692272,3.85466 8.483857,5.07048 1.819143,0.79229 2.598653,0.98372 4.216143,1.03534 2.529248,0.0807 6.068267,0.55183 7.937501,1.05661 0.800364,0.21613 2.229115,0.40275 3.175,0.41471 0.945886,0.012 1.957917,0.12406 2.248959,0.24912 0.790971,0.3399 2.782908,0.29864 6.614583,-0.13698 z M 44.053127,71.495145 c -3.592943,-1.632471 -4.586221,-2.72333 -4.8192,-5.292651 -0.334986,-3.694287 1.805924,-6.052021 5.703044,-6.280621 2.690132,-0.1578 3.911158,-0.678902 5.87497,-2.50729 0.234447,-0.218281 1.175078,-0.992187 2.09029,-1.719791 0.91521,-0.727605 2.251073,-1.830475 2.968586,-2.450825 1.726726,-1.492896 4.954741,-3.089246 7.675748,-3.79589 2.004319,-0.520517 2.392765,-0.543541 4.319064,-0.255984 5.514928,0.823269 6.723028,1.291643 9.463649,3.669001 0.693859,0.601892 2.137008,1.509784 3.206993,2.017535 1.069989,0.507754 2.254478,1.290465 2.6322,1.739363 0.945666,1.12386 2.252242,3.938074 2.537656,5.465815 0.774398,4.145153 -2.065772,7.777636 -6.066539,7.758906 -1.00294,-0.0047 -2.997039,-0.808185 -3.79371,-1.528617 C 75.19867,67.728827 74.464769,66.251397 74.24309,65.0875 74.09835,64.327551 73.747888,63.935623 72.289089,62.902309 71.311393,62.209778 70.175135,61.37634 69.764065,61.050226 69.13301,60.549589 68.700564,60.458964 66.985939,60.468039 c -2.180928,0.01154 -2.615475,0.188513 -4.67656,1.904513 -0.582084,0.484627 -1.415521,1.173774 -1.852084,1.53144 -0.436562,0.357667 -1.805781,1.490123 -3.042708,2.516569 -1.236928,1.026448 -2.78474,2.172687 -3.439584,2.547202 -0.654844,0.374515 -1.721215,1.038751 -2.369712,1.476084 -1.44689,0.975749 -3.740253,1.789919 -5.013896,1.779995 -0.522923,-0.0041 -1.665142,-0.331989 -2.538268,-0.728697 z m 35.610384,37.732665 c -0.158678,-0.45518 -0.29615,-1.31586 -0.305493,-1.9126 -0.0093,-0.59675 -0.167285,-1.79788 -0.35098,-2.66918 -0.590664,-2.80161 0.193815,-4.946029 2.311762,-6.319331 2.179567,-1.413256 5.00483,-1.070925 6.858086,0.83098 1.210402,1.242171 1.644861,2.291161 2.052563,4.955861 0.178118,1.16417 0.479258,2.65245 0.6692,3.30729 0.189939,0.65485 0.426098,1.59295 0.524793,2.08468 l 0.179449,0.89406 1.625118,-0.17832 c 0.893818,-0.0981 3.291996,-0.27995 5.329288,-0.40416 2.037293,-0.12421 4.120103,-0.35699 4.628463,-0.5173 0.50836,-0.1603 1.29842,-0.29146 1.75569,-0.29146 0.45727,0 1.17051,-0.17593 1.58498,-0.39096 0.41447,-0.21503 1.38058,-0.52113 2.14691,-0.68022 0.76633,-0.15909 1.39333,-0.37245 1.39333,-0.47413 0,-0.10169 -0.53602,-0.89692 -1.19116,-1.76718 -2.25048,-2.98945 -2.28588,-5.705171 -0.10373,-7.959968 l 0.79495,-0.821421 -1.22088,-0.341823 c -1.40907,-0.394517 -2.13242,-0.422992 -3.96772,-0.156196 -3.25382,0.473006 -5.327229,0.479628 -7.41917,0.02368 -2.373927,-0.517393 -6.410468,-0.601075 -8.594395,-0.178171 -0.796914,0.154319 -1.806123,0.272415 -2.242685,0.262435 -0.436563,-0.01 -1.805781,0.06974 -3.042709,0.177147 -1.722887,0.149608 -2.629236,0.09551 -3.874648,-0.231246 -1.996348,-0.523788 -3.084994,-0.52383 -4.459727,-1.8e-4 -0.582083,0.221721 -1.927405,0.498912 -2.989604,0.615976 -1.962716,0.216313 -3.228105,0.919745 -3.228105,1.79451 0,0.199845 -0.581274,0.944629 -1.29172,1.655077 -1.404934,1.40493 -2.83669,1.97413 -4.55381,1.81038 -0.851307,-0.0812 -0.954312,-0.0339 -0.751467,0.34514 0.592577,1.10724 4.175985,3.43442 6.063399,3.93777 0.652407,0.17399 1.749777,0.60193 2.438601,0.95098 0.688824,0.34905 1.497645,0.63464 1.797378,0.63464 0.888601,0 4.687097,1.05394 6.168216,1.71145 0.755809,0.33552 1.414727,0.50189 1.464265,0.36971 0.04954,-0.13217 -0.03976,-0.61274 -0.198438,-1.06793 z m 44.556009,-5.90996 c 0.7289,-0.61847 1.92059,-1.48898 2.6482,-1.93447 0.7276,-0.44548 1.78241,-1.36138 2.34403,-2.03532 0.56161,-0.673942 1.30346,-1.353995 1.64856,-1.511231 0.34509,-0.157237 0.69749,-0.506582 0.7831,-0.776325 0.0856,-0.269743 0.45991,-0.852016 0.83176,-1.293939 0.37185,-0.441923 0.62568,-0.853914 0.56406,-0.915536 -0.22542,-0.225417 -3.3586,-0.169346 -7.22985,0.129384 -2.18281,0.168442 -4.98078,0.357675 -6.21771,0.420519 -1.23692,0.06284 -2.94367,0.2516 -3.79276,0.419457 l -1.5438,0.305197 0.88235,0.370908 c 1.20812,0.50786 3.82084,3.123841 4.57685,4.582556 0.34172,0.65936 0.70677,1.76867 0.81121,2.46512 l 0.18989,1.26629 1.08941,-0.18405 c 0.72332,-0.12221 1.53477,-0.56194 2.4147,-1.30856 z"
       id="path836" />
  </g>
</svg>
