<?xml version="1.0" encoding="UTF-8" standalone="no"?>
<!-- Created with Inkscape (http://www.inkscape.org/) -->

<svg
   width="33.595058mm"
   height="1.3191057mm"
   viewBox="0 0 33.595058 1.3191058"
   version="1.1"
   id="svg5"
   inkscape:version="1.1.1 (3bf5ae0d25, 2021-09-20)"
   sodipodi:docname="hr.svg"
   xmlns:inkscape="http://www.inkscape.org/namespaces/inkscape"
   xmlns:sodipodi="http://sodipodi.sourceforge.net/DTD/sodipodi-0.dtd"
   xmlns="http://www.w3.org/2000/svg"
   xmlns:svg="http://www.w3.org/2000/svg">
  <sodipodi:namedview
     id="namedview7"
     pagecolor="#ffffff"
     bordercolor="#666666"
     borderopacity="1.0"
     inkscape:pageshadow="2"
     inkscape:pageopacity="0.0"
     inkscape:pagecheckerboard="0"
     inkscape:document-units="mm"
     showgrid="false"
     fit-margin-top="0"
     fit-margin-left="0"
     fit-margin-right="0"
     fit-margin-bottom="0"
     inkscape:zoom="0.5052024"
     inkscape:cx="25.732261"
     inkscape:cy="-137.56863"
     inkscape:window-width="1920"
     inkscape:window-height="991"
     inkscape:window-x="-9"
     inkscape:window-y="-9"
     inkscape:window-maximized="1"
     inkscape:current-layer="layer1" />
  <defs
     id="defs2" />
  <g
     inkscape:label="Capa 1"
     inkscape:groupmode="layer"
     id="layer1"
     transform="translate(-5.607866,-64.368001)">
    <path
       style="fill:#585858;stroke-width:0.0318374;fill-opacity:1"
       d="m 17.479463,65.669975 c -0.126857,-0.0147 -0.370418,-0.05463 -0.541234,-0.08872 -0.247258,-0.04935 -0.359261,-0.05655 -0.549357,-0.03528 -0.1892,0.02116 -0.259953,0.01672 -0.340742,-0.02138 -0.194004,-0.09151 -0.216103,-0.383786 -0.04022,-0.531793 0.08354,-0.0703 0.120381,-0.0774 0.403591,-0.07784 0.178849,-2.89e-4 0.440531,0.02506 0.614108,0.05946 0.482197,0.09556 0.870159,0.128633 1.299375,0.110771 0.342008,-0.01424 0.409476,-0.02583 0.467533,-0.08037 0.09403,-0.08834 0.275291,-0.08411 0.383475,0.0089 0.116162,0.09992 0.139385,0.316003 0.04937,0.459347 -0.04915,0.07827 -0.103655,0.113057 -0.232567,0.148443 -0.203578,0.05588 -1.179509,0.08711 -1.513348,0.04842 z M 5.8188416,65.631688 C 5.6856947,65.586348 5.5815831,65.40748 5.6137505,65.279323 c 0.032667,-0.130254 0.1604782,-0.23464 0.3097984,-0.253058 0.073738,-0.0091 0.2128736,-0.03198 0.3091772,-0.05085 0.09631,-0.01887 0.371584,-0.03315 0.6117185,-0.03173 0.2401345,0.0014 0.4483963,-0.0047 0.4628018,-0.01361 0.014412,-0.0089 0.1612212,-0.0251 0.32626,-0.03598 0.1650389,-0.01089 0.3696817,-0.04257 0.4547632,-0.07039 0.1196381,-0.03914 0.2028621,-0.04462 0.3673566,-0.0242 0.3295907,0.04091 0.653007,0.03092 1.1041125,-0.0341 0.227638,-0.03281 0.4754013,-0.05747 0.5505863,-0.05481 0.0973,0.0035 0.154413,-0.01287 0.198173,-0.05663 0.03382,-0.03381 0.09794,-0.07063 0.142499,-0.08181 0.297039,-0.07455 0.572492,0.452186 0.35185,0.672829 -0.07447,0.07448 -0.09653,0.07815 -0.469599,0.07829 -0.224896,9.5e-5 -0.5743364,0.02712 -0.8212609,0.06353 -0.4872442,0.07185 -0.7204416,0.07869 -1.003434,0.0294 -0.1619452,-0.0282 -0.2175944,-0.02558 -0.3142502,0.01481 -0.1646226,0.06879 -0.8491628,0.129711 -1.3412624,0.119378 -0.297891,-0.0063 -0.4545389,0.0044 -0.5571518,0.0379 -0.2219434,0.07245 -0.3559229,0.08464 -0.4770471,0.0434 z m 28.0265834,-0.02687 c -0.09637,-0.04853 -0.178027,-0.230977 -0.153452,-0.342862 0.05509,-0.250827 0.252593,-0.297488 1.141973,-0.269801 0.595265,0.01853 0.772953,0.01107 1.532922,-0.06436 0.472787,-0.04693 1.053024,-0.119772 1.289416,-0.16188 0.236395,-0.04211 0.506477,-0.08643 0.600187,-0.0985 0.149124,-0.01921 0.17425,-0.03303 0.20137,-0.11082 0.04188,-0.120134 0.156144,-0.188594 0.314782,-0.188594 0.296198,0 0.48734,0.206349 0.414952,0.447958 -0.07191,0.239998 -0.356965,0.392099 -0.862704,0.460316 -0.18386,0.0248 -0.456071,0.06747 -0.604911,0.09483 -0.148841,0.02736 -0.39956,0.06249 -0.557155,0.07807 -0.157595,0.01559 -0.565911,0.05859 -0.907367,0.09556 -0.46357,0.05019 -0.794219,0.06581 -1.305336,0.06166 -0.376478,-0.0031 -0.763302,0.0033 -0.859611,0.01405 -0.104981,0.01175 -0.203122,0.0055 -0.245066,-0.01563 z m -7.157139,-0.03129 c -0.437765,-0.01591 -1.039494,-0.02819 -1.337173,-0.02732 -0.458135,0.0013 -0.558248,-0.0071 -0.652033,-0.05503 -0.20813,-0.106369 -0.315993,-0.377275 -0.220934,-0.554894 0.01892,-0.03535 0.08271,-0.08446 0.141746,-0.109129 0.115858,-0.04841 0.234251,-0.02344 0.339213,0.07156 0.04381,0.03965 0.132786,0.04704 0.47762,0.03971 0.233083,-0.0049 0.895788,0.0076 1.472678,0.02797 l 1.048891,0.03698 0.08161,-0.09776 c 0.0963,-0.115348 0.26274,-0.136631 0.394315,-0.05042 0.141817,0.09292 0.191226,0.451024 0.08062,0.584299 -0.137163,0.165271 -0.411829,0.185427 -1.826553,0.134034 z"
       id="path2437" />
  </g>
</svg>
