<?xml version="1.0" encoding="UTF-8" standalone="no"?>
<!-- Created with Inkscape (http://www.inkscape.org/) -->

<svg
   width="40.170288mm"
   height="6.4107194mm"
   viewBox="0 0 40.170287 6.4107197"
   version="1.1"
   id="svg5"
   inkscape:version="1.1.1 (3bf5ae0d25, 2021-09-20)"
   sodipodi:docname="favourite-books.svg"
   xmlns:inkscape="http://www.inkscape.org/namespaces/inkscape"
   xmlns:sodipodi="http://sodipodi.sourceforge.net/DTD/sodipodi-0.dtd"
   xmlns="http://www.w3.org/2000/svg"
   xmlns:svg="http://www.w3.org/2000/svg">
  <sodipodi:namedview
     id="namedview7"
     pagecolor="#ffffff"
     bordercolor="#666666"
     borderopacity="1.0"
     inkscape:pageshadow="2"
     inkscape:pageopacity="0.0"
     inkscape:pagecheckerboard="0"
     inkscape:document-units="mm"
     showgrid="false"
     fit-margin-top="0"
     fit-margin-left="0"
     fit-margin-right="0"
     fit-margin-bottom="0"
     inkscape:zoom="2.0208096"
     inkscape:cx="43.546903"
     inkscape:cy="25.484835"
     inkscape:window-width="1920"
     inkscape:window-height="991"
     inkscape:window-x="-9"
     inkscape:window-y="-9"
     inkscape:window-maximized="1"
     inkscape:current-layer="layer1" />
  <defs
     id="defs2" />
  <g
     inkscape:label="Capa 1"
     inkscape:groupmode="layer"
     id="layer1"
     transform="translate(-18.435687,-58.839015)">
    <path
       style="fill:#000000;stroke-width:0.031158"
       d="m 22.325866,65.185869 c -0.08498,-0.09392 -0.07469,-0.259881 0.02248,-0.364137 0.18132,-0.194371 0.215019,-0.419865 0.119648,-0.800554 -0.03688,-0.147033 -0.06251,-0.30538 -0.05713,-0.351883 0.01246,-0.107379 0.13743,-0.182153 0.255004,-0.152647 0.239106,0.06002 0.355512,0.939339 0.177869,1.343612 -0.08969,0.204134 -0.269486,0.389475 -0.37779,0.389475 -0.0453,0 -0.108324,-0.02874 -0.140116,-0.06386 z m -3.644084,-0.29197 c -0.05511,-0.02368 -0.124557,-0.09582 -0.169284,-0.175912 -0.103391,-0.185157 -0.10255,-0.454209 0.0034,-1.166366 0.04599,-0.308463 0.09196,-0.644971 0.102143,-0.747792 0.0101,-0.102826 0.03879,-0.34819 0.06355,-0.545266 0.02476,-0.197073 0.06733,-0.547601 0.09448,-0.778952 0.02721,-0.231345 0.06223,-0.504758 0.07786,-0.607579 0.05057,-0.332144 0.09793,-1.598446 0.06233,-1.66494 -0.0523,-0.09777 -0.03768,-0.236723 0.03161,-0.299419 0.08966,-0.08114 0.262913,-0.07523 0.349664,0.01194 0.06688,0.06717 0.06908,0.08829 0.06067,0.574863 -0.0079,0.476857 -0.08559,1.566996 -0.117091,1.65062 -0.0079,0.02119 -0.07048,0.536253 -0.138912,1.144613 -0.06846,0.608362 -0.153046,1.295397 -0.188035,1.526746 -0.03504,0.231348 -0.0596,0.476716 -0.05469,0.545264 l 0.0089,0.124635 0.171374,0.0101 c 0.09425,0.0055 0.367661,-0.01141 0.607582,-0.03775 0.239914,-0.02628 0.532812,-0.05666 0.650878,-0.06753 0.248042,-0.02279 0.666422,-0.140993 0.820259,-0.231762 0.0583,-0.03437 0.141229,-0.06248 0.184418,-0.06248 0.09623,0 0.260664,0.156625 0.260664,0.248285 0,0.07583 -0.130343,0.219087 -0.199342,0.219087 -0.02555,0 -0.173288,0.04252 -0.328396,0.09448 -0.528308,0.177002 -2.119754,0.335957 -2.354384,0.235159 z m 6.106964,-0.06696 c -0.321118,-0.16667 -0.534643,-0.624697 -0.667167,-1.431108 -0.168275,-1.023986 -0.220654,-1.594975 -0.221199,-2.411483 -2.02e-4,-0.301691 -0.02114,-0.772868 -0.04661,-1.047059 -0.02545,-0.274191 -0.04624,-0.501381 -0.04636,-0.504868 -6.1e-5,-0.0034 -0.04073,0.01697 -0.09035,0.04544 -0.113101,0.06491 -0.237948,0.01888 -0.285094,-0.105135 -0.06356,-0.167124 0.172533,-0.496561 0.379959,-0.530222 0.215923,-0.03504 0.360998,0.193892 0.434978,0.686402 0.01571,0.104662 0.04215,0.645972 0.05865,1.202922 0.06442,2.168812 0.341212,3.635796 0.703151,3.726636 0.111459,0.02798 0.343949,-0.09122 0.403851,-0.207042 0.128441,-0.248389 0.207768,-0.684891 0.168849,-0.929107 -0.03511,-0.220049 -0.178056,-0.520333 -0.318831,-0.669567 -0.109819,-0.116433 -0.11764,-0.119307 -0.2683,-0.09859 -0.19901,0.02737 -0.267944,0.0039 -0.313695,-0.106473 -0.04537,-0.109623 0.01362,-0.246478 0.134155,-0.310982 0.132506,-0.07092 0.433182,-0.03129 0.587973,0.07752 0.458217,0.322046 0.706039,1.038556 0.576107,1.66563 -0.106225,0.512569 -0.274132,0.78651 -0.565186,0.92204 -0.188528,0.08779 -0.481398,0.09955 -0.624894,0.02506 z m 24.12059,-0.153811 c -0.08994,-0.08994 -0.09019,-0.167573 -8.77e-4,-0.319619 0.11617,-0.198232 0.137971,-0.536519 0.05065,-0.786307 -0.07198,-0.205898 -0.04626,-0.322994 0.0805,-0.367192 0.137262,-0.04784 0.218689,0.0055 0.309761,0.203171 0.07355,0.159669 0.08252,0.215904 0.08067,0.506759 -0.0028,0.355943 -0.04679,0.526483 -0.184236,0.706705 -0.06189,0.08112 -0.101539,0.103402 -0.184109,0.103402 -0.05786,0 -0.126367,-0.02111 -0.152168,-0.04691 z m 6.116541,-0.07287 c -0.04715,-0.03816 -0.07093,-0.09099 -0.07093,-0.157275 0,-0.170069 0.06205,-0.200687 0.454117,-0.223968 0.343275,-0.02038 0.459847,-0.04312 0.459847,-0.08963 0,-0.06848 -0.227046,-0.337815 -0.627482,-0.744322 -0.635059,-0.644682 -0.726834,-0.79544 -0.646839,-1.062464 0.06215,-0.207392 0.176756,-0.257818 0.582206,-0.256146 0.320548,0.0014 0.336551,0.0046 0.403897,0.08291 0.09244,0.107471 0.0892,0.214291 -0.0089,0.291402 -0.0684,0.05379 -0.110056,0.05976 -0.311578,0.04451 -0.169602,-0.01286 -0.232646,-0.0075 -0.232646,0.01968 0,0.03846 0.220601,0.278699 0.703632,0.766295 0.382812,0.386428 0.520355,0.600192 0.537342,0.835133 0.01632,0.225505 -0.02422,0.308161 -0.20265,0.412696 -0.228046,0.133649 -0.909577,0.186853 -1.040062,0.08119 z m 3.086389,-0.03602 c -0.07014,-0.07011 -0.08197,-0.23666 -0.02237,-0.31428 0.08006,-0.104296 0.16924,-0.12726 0.310673,-0.08002 0.155803,0.05205 0.229643,0.156911 0.19834,0.28166 -0.03968,0.158179 -0.365651,0.233619 -0.486638,0.112628 z m -7.664872,-0.249252 c -0.07312,-0.07316 -0.0804,-0.192267 -0.01773,-0.289306 0.07347,-0.113666 0.124844,-0.6526 0.09265,-0.972289 l -0.02819,-0.280118 -0.144012,-0.06821 c -0.07916,-0.03751 -0.173842,-0.106145 -0.210315,-0.152507 -0.07988,-0.101539 -0.08725,-0.281373 -0.01581,-0.383448 0.04116,-0.05883 0.07285,-0.07005 0.171375,-0.06063 0.137598,0.01313 0.13635,0.01683 0.09058,-0.270546 -0.01643,-0.102827 -0.05837,-0.411286 -0.09334,-0.685476 -0.03706,-0.290456 -0.08523,-0.539489 -0.115607,-0.59667 -0.106315,-0.200475 0.06093,-0.436855 0.260437,-0.368038 0.122378,0.0422 0.188572,0.196451 0.226808,0.528495 0.03415,0.296258 0.110043,0.860762 0.161342,1.199583 0.01685,0.111394 0.03846,0.275136 0.048,0.363882 l 0.01729,0.161353 0.159908,0.03515 c 0.512123,0.112588 0.602535,0.136439 0.665123,0.175497 0.152494,0.09516 0.167398,0.279441 0.02984,0.369539 -0.06479,0.04246 -0.100005,0.0396 -0.377395,-0.03076 -0.460147,-0.116722 -0.422558,-0.144939 -0.422558,0.317109 0,0.577655 -0.07154,0.920234 -0.215098,1.029776 -0.07592,0.05798 -0.213968,0.04708 -0.283427,-0.02237 z m -3.642927,-0.0286 c -0.03862,-0.03862 -0.06663,-0.124032 -0.07916,-0.241475 -0.01076,-0.09995 -0.04609,-0.30791 -0.07857,-0.462141 -0.112812,-0.535403 -0.125225,-0.611481 -0.125225,-0.766955 0,-0.188434 0.03486,-0.261038 0.15517,-0.323255 0.128244,-0.06632 0.31156,-0.0588 0.753684,0.03087 0.698059,0.141584 0.823077,0.186897 0.853844,0.309497 0.05539,0.220816 -0.0841,0.339128 -0.305144,0.258698 -0.186279,-0.06778 -0.985741,-0.224731 -1.011848,-0.198632 -0.01181,0.01181 0.02299,0.248965 0.07733,0.527 0.147146,0.75289 0.149675,0.783132 0.07207,0.860758 -0.08208,0.08208 -0.232934,0.08479 -0.312095,0.0057 z m 6.119994,0.03938 c -0.290835,-0.04385 -0.50409,-0.242778 -0.533935,-0.498073 -0.02203,-0.188652 0.0639,-0.322832 0.206775,-0.322832 0.103456,0 0.2181,0.124123 0.2181,0.236121 0,0.03956 0.03116,0.09374 0.06926,0.120435 0.293188,0.205357 0.960216,-0.289435 0.851588,-0.631694 -0.07059,-0.222329 -0.428283,-0.447046 -0.565641,-0.355331 -0.0646,0.04312 -0.105398,0.158005 -0.08768,0.246731 0.03829,0.191391 -0.212937,0.343208 -0.338436,0.204527 -0.09708,-0.107261 -0.121945,-0.227013 -0.08218,-0.395673 0.04642,-0.197057 0.120041,-0.302984 0.29316,-0.422095 0.260584,-0.179288 0.607556,-0.100056 0.929571,0.21226 0.215405,0.208918 0.283242,0.351644 0.284102,0.597776 5.98e-4,0.16661 -0.01552,0.232082 -0.09116,0.369171 -0.223861,0.406091 -0.753029,0.699066 -1.153572,0.638682 z M 26.87059,64.25244 c -0.123349,-0.04971 -0.136648,-0.125265 -0.12739,-0.723779 0.0079,-0.499492 0.01624,-0.581382 0.06962,-0.669823 0.110489,-0.183111 0.417626,-0.271989 0.871329,-0.252145 0.39489,0.01728 0.641054,0.143106 0.641054,0.327703 0,0.167086 -0.201624,0.245405 -0.385243,0.149643 -0.101855,-0.0531 -0.56013,-0.06467 -0.684848,-0.01723 -0.06969,0.02649 -0.07927,0.05236 -0.09961,0.269559 -0.01286,0.136867 -0.0079,0.341354 0.0105,0.475199 0.03774,0.268981 1.33e-4,0.39017 -0.137331,0.442433 -0.0431,0.01639 -0.08101,0.02892 -0.08419,0.02785 -0.0034,-9.62e-4 -0.03634,-0.01432 -0.07384,-0.02941 z m 10.582967,-0.08548 c -0.0725,-0.06516 -0.109649,-0.141675 -0.154881,-0.31937 -0.06969,-0.27374 -0.205565,-1.047635 -0.235857,-1.343301 -0.02108,-0.205778 -0.02114,-0.205981 -0.157752,-0.272323 -0.326755,-0.158753 -0.348629,-0.565915 -0.02837,-0.52853 l 0.11045,0.01286 v -0.615361 c 0,-0.658304 0.02537,-0.851489 0.145726,-1.108515 0.0863,-0.18431 0.231547,-0.3179 0.467714,-0.430149 0.358356,-0.170325 0.675215,-0.05022 0.981046,0.371845 0.22484,0.310306 -0.05075,0.596569 -0.296296,0.307804 -0.220392,-0.259147 -0.293918,-0.320268 -0.385254,-0.320268 -0.125185,0 -0.334829,0.143794 -0.395678,0.271386 -0.103035,0.216079 -0.135815,0.786578 -0.0855,1.489041 l 0.0201,0.280423 0.202529,0.02106 c 0.111381,0.01155 0.419083,0.0363 0.68376,0.05493 0.564332,0.03971 0.624874,0.06405 0.624874,0.251179 0,0.188467 -0.08681,0.232098 -0.379887,0.190946 -0.125226,-0.0176 -0.420479,-0.03978 -0.656117,-0.04931 -0.409524,-0.01659 -0.428424,-0.01469 -0.428424,0.04324 0,0.09296 0.151589,0.959977 0.204415,1.169179 0.0258,0.102091 0.0698,0.210929 0.09779,0.241878 0.06761,0.07469 0.06469,0.226405 -0.0062,0.304326 -0.08023,0.08865 -0.214643,0.07927 -0.328459,-0.02298 z m -8.427309,-0.0046 c -0.145707,-0.06761 -0.309383,-0.23095 -0.356406,-0.355677 -0.08594,-0.228006 -0.0034,-0.457552 0.164026,-0.457552 0.0902,0 0.207953,0.121026 0.207953,0.213741 0,0.207987 0.338648,0.300548 0.525218,0.143556 0.141992,-0.119478 0.208548,-0.39992 0.144671,-0.6096 -0.05679,-0.186533 -0.295988,-0.386529 -0.295988,-0.247511 0,0.03035 -0.02966,0.09291 -0.06592,0.138999 -0.143426,0.182338 -0.401449,0.0098 -0.401449,-0.268369 0,-0.139912 0.09021,-0.250181 0.264141,-0.32285 0.138518,-0.05787 0.220057,-0.05674 0.403071,0.0057 0.186788,0.06363 0.345787,0.220938 0.450018,0.445191 0.06812,0.146486 0.08093,0.218492 0.08129,0.454485 3.87e-4,0.326808 -0.06619,0.500177 -0.268197,0.698175 -0.21112,0.206948 -0.597136,0.28022 -0.852376,0.161792 z m 2.392208,-0.0646 c -0.124031,-0.07562 -0.158697,-0.19106 -0.08924,-0.297079 0.05382,-0.08216 0.08515,-0.09092 0.281056,-0.0788 l 0.122549,0.0076 -0.05786,-0.08891 c -0.569346,-0.875598 -0.764455,-1.194634 -0.825901,-1.350527 -0.113652,-0.288363 -0.02862,-0.498877 0.201561,-0.498787 0.16142,6.2e-5 0.542187,0.08371 0.623437,0.136935 0.102012,0.06684 0.13025,0.185236 0.06716,0.281527 -0.06453,0.09848 -0.147024,0.122023 -0.289657,0.08265 -0.0639,-0.01765 -0.121735,-0.0265 -0.128559,-0.01968 -0.01181,0.01181 0.187896,0.331498 0.600948,0.962257 0.328307,0.501358 0.360313,0.649821 0.180511,0.837492 -0.0776,0.08093 -0.100135,0.08681 -0.334392,0.0867 -0.194759,-9.7e-5 -0.273796,-0.01387 -0.351658,-0.06136 z m 10.033538,-0.128341 c -0.276746,-0.145238 -0.407468,-0.235888 -0.58713,-0.407186 l -0.126064,-0.1202 -0.107629,0.113048 c -0.125042,0.131364 -0.46508,0.305058 -0.700209,0.357676 -0.332258,0.07435 -0.576273,-0.06129 -0.575359,-0.319828 5.44e-4,-0.154008 0.01737,-0.188167 0.119202,-0.241817 0.09147,-0.04821 0.242565,0.0057 0.271462,0.09666 0.02371,0.07467 0.132206,0.0575 0.381205,-0.06032 0.189045,-0.08945 0.255899,-0.168467 0.255828,-0.302373 -6.1e-5,-0.123704 -0.199603,-0.409265 -0.344092,-0.49246 l -0.110462,-0.0636 -0.08287,0.08287 c -0.09966,0.09966 -0.174445,0.104479 -0.284015,0.01828 -0.170935,-0.134457 -0.07409,-0.399419 0.181347,-0.495942 0.154424,-0.05836 0.487226,0.03762 0.671417,0.193662 0.07154,0.06057 0.28734,0.334432 0.38735,0.49149 0.154608,0.242805 0.330546,0.434088 0.527834,0.573862 0.303968,0.215359 0.434936,0.271453 0.579713,0.248302 0.274938,-0.04397 0.370575,0.281688 0.120685,0.410915 -0.151985,0.07859 -0.314633,0.05523 -0.578213,-0.08308 z m 3.537906,0.01888 c -0.301834,-0.111014 -0.469854,-0.277549 -0.587314,-0.582132 -0.05134,-0.133101 -0.09333,-0.282346 -0.09333,-0.331653 0,-0.172371 0.212694,-0.263744 0.341844,-0.146859 0.03266,0.02952 0.08374,0.131368 0.113638,0.226278 0.133505,0.424463 0.51171,0.590428 0.873112,0.383148 0.199709,-0.114544 0.291632,-0.283004 0.291632,-0.534454 0,-0.245292 -0.170041,-0.504836 -0.384041,-0.586199 -0.07812,-0.02972 -0.09807,-0.02329 -0.179097,0.05774 -0.05125,0.05126 -0.09117,0.124647 -0.09117,0.167654 0,0.152805 -0.189238,0.218191 -0.3242,0.112025 -0.07978,-0.06279 -0.08646,-0.08299 -0.07312,-0.222058 0.02854,-0.297016 0.309016,-0.553653 0.605091,-0.553653 0.396498,0 0.837332,0.480586 0.875358,0.954298 0.03467,0.432063 -0.191055,0.834831 -0.567766,1.013046 -0.160244,0.07581 -0.225229,0.08872 -0.437463,0.08688 -0.137097,-0.0012 -0.300518,-0.02102 -0.363159,-0.04405 z m -1.630956,-0.293594 c -0.189229,-0.08818 -0.412133,-0.342538 -0.769663,-0.87822 -0.419565,-0.628643 -0.438192,-0.651388 -0.533407,-0.651388 -0.179934,0 -0.279223,-0.316958 -0.144568,-0.461495 0.04502,-0.04833 0.100044,-0.06819 0.188967,-0.06819 0.109138,0 0.144426,0.01961 0.271426,0.150956 0.08032,0.08302 0.25244,0.310869 0.382558,0.506318 0.130119,0.195448 0.288,0.43248 0.350841,0.526731 0.06284,0.09425 0.175317,0.240213 0.249956,0.324354 l 0.1357,0.152982 0.07216,-0.215298 c 0.03968,-0.118415 0.108534,-0.390563 0.152984,-0.604775 0.0444,-0.214211 0.09234,-0.407866 0.106434,-0.430346 0.04372,-0.06974 0.168345,-0.101198 0.251255,-0.06342 0.165318,0.0753 0.162394,0.250586 -0.01537,0.919162 -0.137604,0.517579 -0.238351,0.736152 -0.370908,0.804701 -0.118113,0.06107 -0.176008,0.05895 -0.328397,-0.01207 z M 22.415518,62.550651 c -0.155882,-0.167382 -0.194497,-0.276825 -0.218505,-0.619247 -0.0152,-0.217302 -0.0096,-0.258919 0.04372,-0.324563 0.09266,-0.11398 0.243225,-0.102616 0.359138,0.02714 0.07304,0.08169 0.08689,0.118991 0.06883,0.18435 -0.01246,0.04506 -0.02248,0.142598 -0.02231,0.216747 3.15e-4,0.108468 0.01939,0.154431 0.09765,0.235168 0.120002,0.123808 0.129515,0.258761 0.02519,0.356799 -0.112379,0.105568 -0.202422,0.08613 -0.353747,-0.07637 z M 57.73458,61.895119 c -0.02782,-0.0073 -0.09439,-0.06805 -0.147998,-0.134771 -0.173463,-0.215851 -0.11398,-0.467683 0.110476,-0.467683 0.106539,0 0.158882,0.05077 0.251736,0.244188 0.07725,0.160834 0.05028,0.287257 -0.07321,0.343521 -0.04284,0.01949 -0.08067,0.03382 -0.0841,0.03184 -0.0034,-0.0021 -0.02903,-0.0097 -0.05688,-0.0171 z m -9.449567,-0.261168 c -0.135902,-0.11932 -0.220532,-0.329987 -0.192531,-0.479253 0.02978,-0.15872 0.200967,-0.329403 0.330372,-0.329403 0.147061,0 0.31085,0.132173 0.31085,0.25085 0,0.0916 -0.09251,0.21652 -0.160341,0.21652 -0.01967,0 0.0017,0.03438 0.0467,0.07641 0.09326,0.08645 0.105227,0.188785 0.03397,0.290556 -0.07304,0.104256 -0.233787,0.09306 -0.369031,-0.02568 z"
       id="path1782" />
  </g>
</svg>
