<?xml version="1.0" encoding="UTF-8" standalone="no"?>
<!-- Created with Inkscape (http://www.inkscape.org/) -->

<svg
   width="25.594032mm"
   height="12.230458mm"
   viewBox="0 0 25.594032 12.230458"
   version="1.1"
   id="svg5"
   inkscape:version="1.1.1 (3bf5ae0d25, 2021-09-20)"
   sodipodi:docname="favourite-movies.svg"
   xmlns:inkscape="http://www.inkscape.org/namespaces/inkscape"
   xmlns:sodipodi="http://sodipodi.sourceforge.net/DTD/sodipodi-0.dtd"
   xmlns="http://www.w3.org/2000/svg"
   xmlns:svg="http://www.w3.org/2000/svg">
  <sodipodi:namedview
     id="namedview7"
     pagecolor="#ffffff"
     bordercolor="#666666"
     borderopacity="1.0"
     inkscape:pageshadow="2"
     inkscape:pageopacity="0.0"
     inkscape:pagecheckerboard="0"
     inkscape:document-units="mm"
     showgrid="false"
     fit-margin-top="0"
     fit-margin-left="0"
     fit-margin-right="0"
     fit-margin-bottom="0"
     inkscape:zoom="0.71446409"
     inkscape:cx="-235.14128"
     inkscape:cy="55.286194"
     inkscape:window-width="1920"
     inkscape:window-height="991"
     inkscape:window-x="-9"
     inkscape:window-y="-9"
     inkscape:window-maximized="1"
     inkscape:current-layer="layer1" />
  <defs
     id="defs2" />
  <g
     inkscape:label="Capa 1"
     inkscape:groupmode="layer"
     id="layer1"
     transform="translate(-167.26474,-133.94457)">
    <path
       style="fill:#000000;stroke-width:0.0304437"
       d="m 185.40134,146.15054 c -0.10049,-0.0501 -0.14294,-0.17917 -0.0909,-0.27639 0.0567,-0.10601 0.0907,-0.11452 0.52646,-0.13197 0.27597,-0.0111 0.38816,-0.0263 0.38816,-0.0526 0,-0.0445 -0.3079,-0.46248 -0.4952,-0.67218 -0.41103,-0.46017 -0.72405,-0.97886 -0.78514,-1.30097 -0.0582,-0.30681 0.0918,-0.53901 0.34815,-0.53901 0.23161,0 0.47623,0.24363 0.41387,0.41221 -0.0382,0.10329 -0.11252,0.14512 -0.22528,0.12682 l -0.10377,-0.0168 0.0466,0.11184 c 0.11718,0.28141 0.27571,0.50853 0.72816,1.04321 0.29091,0.34378 0.49183,0.64421 0.51561,0.77097 0.0443,0.2361 -0.0796,0.44383 -0.29755,0.49894 -0.20293,0.0513 -0.88179,0.0695 -0.96913,0.0259 z m -17.30141,-0.17449 c -0.0921,-0.0724 -0.10557,-0.19159 -0.0334,-0.29462 0.0406,-0.058 0.043,-0.14106 0.0182,-0.62893 -0.0157,-0.30915 -0.0376,-0.57667 -0.0486,-0.59448 -0.0288,-0.0466 -0.17374,-0.0381 -0.24295,0.0143 -0.14257,0.10783 -0.3519,-0.004 -0.3519,-0.1879 0,-0.16177 0.20595,-0.28495 0.47642,-0.28495 0.0729,0 0.13248,-0.0103 0.13252,-0.0228 5.9e-4,-0.2253 0.10531,-0.92705 0.15587,-1.04458 0.13892,-0.32295 0.59577,-0.52346 0.93554,-0.4106 0.21439,0.0712 0.30894,0.1893 0.30894,0.38589 0,0.16407 -0.0599,0.31247 -0.13836,0.34256 -0.16701,0.0641 -0.34026,-0.0616 -0.30791,-0.22332 0.0173,-0.0864 0.0125,-0.0927 -0.071,-0.0927 -0.0492,0 -0.13821,0.0232 -0.19769,0.0516 -0.0879,0.0419 -0.11636,0.0792 -0.15182,0.19859 -0.024,0.0808 -0.0516,0.23231 -0.0613,0.33658 -0.01,0.10426 -0.0245,0.25464 -0.0329,0.33417 l -0.0153,0.14461 h 0.34643 c 0.29221,0 0.3536,0.008 0.39219,0.0533 0.072,0.0838 0.0882,0.1587 0.0499,0.23053 -0.0661,0.12407 -0.11921,0.14043 -0.45945,0.14143 l -0.32753,9.3e-4 0.0146,0.15982 c 0.008,0.0879 0.0221,0.41061 0.0314,0.71711 l 0.0168,0.55728 -0.0897,0.0897 c -0.10771,0.10771 -0.23365,0.11729 -0.349,0.0265 z m 15.57099,-0.30799 c -0.13639,-0.0576 -0.27857,-0.14631 -0.36057,-0.22488 l -0.13538,-0.12972 -0.13886,0.0881 c -0.22487,0.14261 -0.43393,0.18871 -0.79919,0.17621 -0.28758,-0.01 -0.33493,-0.0198 -0.47187,-0.0999 -0.0837,-0.0489 -0.1899,-0.12901 -0.23594,-0.17803 -0.0744,-0.0791 -0.0837,-0.11225 -0.0837,-0.29563 0,-0.1524 0.014,-0.22302 0.0533,-0.26948 0.14465,-0.17094 0.36297,-0.0742 0.37892,0.16788 0.008,0.12479 0.021,0.14672 0.11579,0.19896 0.0879,0.0484 0.15196,0.0566 0.36533,0.0469 0.30467,-0.0138 0.48885,-0.092 0.56527,-0.23977 0.0805,-0.15573 0.0388,-0.26417 -0.17468,-0.45362 -0.23752,-0.2108 -0.28917,-0.24019 -0.42446,-0.24151 -0.0775,-8.1e-4 -0.14396,0.0259 -0.2249,0.0902 -0.14517,0.11536 -0.26293,0.11913 -0.3479,0.0111 -0.0347,-0.0441 -0.0631,-0.0996 -0.0631,-0.12328 0,-0.0947 0.0966,-0.21973 0.24168,-0.31284 0.13159,-0.0845 0.18166,-0.0986 0.359,-0.10119 0.28652,-0.004 0.47273,0.0889 0.78911,0.39456 0.19712,0.19048 0.25564,0.26761 0.28459,0.3751 0.02,0.0744 0.0556,0.16273 0.0791,0.19625 0.0235,0.0335 0.0427,0.0858 0.0427,0.11626 0,0.26497 0.44085,0.55182 0.66775,0.43449 0.12172,-0.063 0.20305,-0.0588 0.276,0.0142 0.0841,0.0841 0.0803,0.24582 -0.008,0.32536 -0.17286,0.1564 -0.43306,0.16826 -0.75034,0.0342 z m -3.4585,0.0303 c -0.0998,-0.0566 -0.10634,-0.0866 -0.0914,-0.42027 0.008,-0.17582 0.0216,-0.48483 0.0305,-0.68671 l 0.0162,-0.36704 -0.14513,-0.0353 c -0.0798,-0.0194 -0.19993,-0.0444 -0.26691,-0.0556 -0.20449,-0.034 -0.31358,-0.11463 -0.38287,-0.28309 -0.038,-0.0924 0.0419,-0.35993 0.13046,-0.43694 0.13711,-0.11922 0.33461,-0.0221 0.33461,0.1645 0,0.10622 0.004,0.1099 0.17155,0.15653 0.0943,0.0263 0.17406,0.0452 0.17713,0.0422 0.003,-0.003 0.0209,-0.122 0.0395,-0.2643 0.0187,-0.1423 0.0548,-0.36432 0.0803,-0.4934 0.0337,-0.17061 0.0376,-0.25109 0.0142,-0.29482 -0.0576,-0.10767 -0.0367,-0.21659 0.0604,-0.31361 0.0774,-0.0774 0.10849,-0.0895 0.19027,-0.0737 0.21727,0.042 0.25619,0.26255 0.1466,0.83082 -0.0317,0.16449 -0.0667,0.37576 -0.0777,0.46951 l -0.02,0.17044 0.27819,0.018 c 0.34515,0.0224 0.42524,0.0658 0.42524,0.23073 0,0.19548 -0.0601,0.22416 -0.41799,0.19951 l -0.30304,-0.0209 -0.02,0.23694 c -0.011,0.13032 -0.0204,0.389 -0.0208,0.57484 -8.5e-4,0.39728 -0.0327,0.56162 -0.12291,0.63473 -0.0756,0.0612 -0.13986,0.066 -0.22646,0.0169 z m -7.01728,-0.0763 c -0.11899,-0.0464 -0.22088,-0.15024 -0.31666,-0.32284 -0.1191,-0.21461 -0.40795,-1.00976 -0.50525,-1.39087 -0.0384,-0.1504 -0.0956,-0.29137 -0.13917,-0.34319 -0.21436,-0.25475 0.0466,-0.51192 0.31317,-0.30861 0.1183,0.0902 0.13695,0.13137 0.24015,0.52978 0.0949,0.3664 0.41608,1.25603 0.45855,1.27019 0.0403,0.0134 0.14133,-0.21938 0.20777,-0.47866 0.0756,-0.29498 0.2453,-0.7914 0.33621,-0.98341 0.1182,-0.24965 0.26367,-0.28785 0.44793,-0.11763 0.1356,0.12527 0.11406,0.2365 -0.0753,0.38855 -0.0366,0.0293 -0.1871,0.46835 -0.34062,0.99319 -0.14896,0.50926 -0.42292,0.84295 -0.62683,0.7635 z m 5.41958,-0.10932 c -0.17384,-0.0875 -0.20145,-0.31003 -0.0539,-0.43446 l 0.0989,-0.0834 -0.008,-0.38051 c -0.007,-0.3208 -2.2e-4,-0.38934 0.0428,-0.43682 0.0674,-0.0745 0.22986,-0.0733 0.29825,0.002 0.12234,0.13518 0.13541,0.85348 0.0203,1.11379 -0.0854,0.19296 -0.25957,0.28884 -0.39816,0.21912 z m -8.44873,-0.0496 c -0.16052,-0.0394 -0.46104,-0.21943 -0.51287,-0.30716 -0.0893,-0.15117 -0.0309,-0.51361 0.0903,-0.56011 0.0342,-0.0131 0.0372,-0.031 0.0129,-0.0765 -0.10765,-0.20113 0.0249,-0.36595 0.38316,-0.4765 0.27995,-0.0864 0.3479,-0.0904 0.46946,-0.0275 0.0847,0.0438 0.0898,0.043 0.0898,-0.013 0,-0.0705 0.13587,-0.18565 0.21915,-0.18565 0.0851,0 0.18185,0.11658 0.47992,0.57843 0.34864,0.54023 0.41628,0.61178 0.55675,0.58899 0.1399,-0.0227 0.23592,0.0653 0.23592,0.21622 0,0.20644 -0.29488,0.3298 -0.51557,0.21567 -0.1072,-0.0554 -0.28892,-0.25989 -0.48008,-0.54013 l -0.14599,-0.21404 -0.0171,0.20914 c -0.0194,0.23739 -0.0433,0.29225 -0.18591,0.42624 -0.14642,0.1376 -0.47181,0.21699 -0.67987,0.16587 z m 0.37378,-0.47603 c 0.045,-0.0315 0.0677,-0.0788 0.0677,-0.14108 0,-0.13686 -0.0617,-0.32036 -0.12781,-0.3802 -0.0508,-0.046 -0.0744,-0.0476 -0.20043,-0.0139 -0.0786,0.021 -0.16555,0.0588 -0.19329,0.0839 -0.0447,0.0404 -0.0455,0.0555 -0.007,0.13179 0.0319,0.064 0.035,0.10712 0.012,0.16762 -0.0406,0.1069 -0.0433,0.0994 0.0527,0.15144 0.11005,0.0597 0.3117,0.0599 0.39661,4.6e-4 z m 5.82152,0.38227 c -0.0671,-0.0671 -0.0808,-0.21142 -0.0254,-0.26688 0.0268,-0.0268 0.0271,-0.0859 0.001,-0.24203 -0.0959,-0.5781 -0.0779,-0.78822 0.0733,-0.85711 0.11279,-0.0514 0.19632,-0.0407 0.33139,0.0425 0.15927,0.0981 0.34385,0.0979 0.60594,-8e-4 0.24022,-0.0904 0.35604,-0.096 0.42442,-0.0204 0.0517,0.0572 0.0669,0.20704 0.0271,0.26751 -0.0311,0.0473 -0.26144,0.16083 -0.42975,0.21191 -0.0773,0.0235 -0.25518,0.0428 -0.39522,0.043 l -0.25462,3.4e-4 0.0189,0.0989 c 0.0367,0.19164 0.0565,0.50594 0.0368,0.58437 -0.0475,0.18939 -0.28418,0.26863 -0.41413,0.13867 z m 12.27412,-0.0705 c -0.0976,-0.10392 -0.0901,-0.29161 0.017,-0.42192 0.11064,-0.13463 0.1291,-0.14593 0.23932,-0.14647 0.2023,-0.001 0.26409,0.25404 0.11502,0.47477 -0.044,0.0651 -0.0954,0.12848 -0.11417,0.14078 -0.0681,0.0446 -0.19246,0.0218 -0.25721,-0.0472 z m -13.99802,0.0205 c -0.11104,-0.0244 -0.20147,-0.14831 -0.20495,-0.28087 -0.006,-0.21377 0.17237,-0.31696 0.34188,-0.19823 0.0514,0.036 0.10683,0.0444 0.20404,0.0311 0.23686,-0.0325 0.33127,-0.09 0.40494,-0.24669 0.0725,-0.1542 0.0676,-0.20317 -0.0369,-0.36718 -0.11387,-0.17879 -0.24993,-0.13101 -0.38416,0.13489 -0.0493,0.0977 -0.11204,0.18626 -0.13934,0.19674 -0.1618,0.0621 -0.31867,-0.0345 -0.31867,-0.19624 0,-0.10254 0.11744,-0.32917 0.24092,-0.46492 0.0433,-0.0476 0.14658,-0.12116 0.22949,-0.16345 0.12522,-0.0639 0.17842,-0.074 0.31415,-0.06 0.18814,0.0194 0.21719,0.0392 0.37865,0.25774 0.2069,0.28007 0.24787,0.48016 0.15222,0.74346 -0.11624,0.31996 -0.30136,0.49022 -0.61522,0.56583 -0.16901,0.0407 -0.48001,0.067 -0.56704,0.0478 z m 3.78155,-1.93126 c -0.10107,-0.12012 -0.11002,-0.33177 -0.0179,-0.42387 0.15614,-0.15615 0.4871,8e-4 0.4871,0.23099 0,0.0736 -0.0265,0.12081 -0.10762,0.19206 -0.14232,0.12496 -0.25688,0.12522 -0.36156,8.1e-4 z m 10.43949,-0.0953 c -0.15191,-0.0871 -0.17945,-0.24536 -0.0657,-0.3776 0.14644,-0.17025 0.4158,-0.0596 0.4158,0.17082 0,0.19201 -0.18516,0.30137 -0.3501,0.20678 z m -11.87083,-1.5941 c -0.0918,-0.0918 -0.0868,-0.18156 0.0257,-0.45919 0.13073,-0.32257 0.58992,-1.23553 0.79755,-1.58567 0.0818,-0.13795 0.28698,-0.46674 0.45595,-0.73065 0.16897,-0.26391 0.34223,-0.54148 0.38502,-0.61683 l 0.0778,-0.137 -0.14931,0.0106 c -0.36179,0.0256 -0.60998,-0.25221 -0.75741,-0.84777 -0.0352,-0.14233 -0.0908,-0.31502 -0.12347,-0.38377 -0.0742,-0.15616 -0.0389,-0.29238 0.0897,-0.34563 0.19357,-0.0802 0.32781,0.0905 0.43266,0.55007 0.10108,0.44308 0.20368,0.60554 0.38243,0.60554 0.10173,0 0.22302,0.0861 0.22302,0.15831 0,0.057 0.26182,-0.31695 0.38215,-0.54587 0.0596,-0.11335 0.13074,-0.22322 0.15812,-0.24415 0.12691,-0.097 0.3426,0.0156 0.3426,0.17881 0,0.0418 -0.048,0.15556 -0.10656,0.25289 -0.0586,0.0973 -0.10655,0.1831 -0.10655,0.19063 0,0.008 -0.0617,0.10008 -0.137,0.20568 -0.0753,0.10559 -0.13699,0.19855 -0.13699,0.20658 0,0.0475 -0.75141,1.27696 -0.87018,1.42374 -0.18493,0.22856 -0.98635,1.82616 -0.98678,1.96713 -7e-5,0.0187 -0.0285,0.07 -0.0632,0.11416 -0.0734,0.0933 -0.23747,0.11017 -0.31523,0.0324 z m 14.58185,-2.12463 c -0.12404,-0.12404 -0.093,-0.28776 0.0658,-0.34757 0.0467,-0.0176 0.23558,-0.049 0.41976,-0.0699 0.18419,-0.0209 0.34421,-0.0522 0.35561,-0.0696 0.0567,-0.0863 -0.37068,-0.76079 -0.84962,-1.34075 -0.0401,-0.0485 -0.13507,-0.21524 -0.21111,-0.37049 -0.12067,-0.24634 -0.13559,-0.29804 -0.11729,-0.40636 0.0138,-0.0815 0.0488,-0.14623 0.10203,-0.18849 0.0706,-0.0561 0.10784,-0.0622 0.28918,-0.0473 0.11446,0.009 0.22891,0.0343 0.25433,0.0554 0.1293,0.1073 0.10065,0.29751 -0.0545,0.36177 -0.0855,0.0354 -0.0859,0.0369 -0.0382,0.13144 0.0265,0.0526 0.18229,0.27373 0.34611,0.4914 0.32208,0.42796 0.62196,0.90364 0.68854,1.09219 0.059,0.16717 0.0511,0.28983 -0.0278,0.4291 -0.11327,0.19998 -0.20656,0.24218 -0.63371,0.28664 -0.20767,0.0216 -0.40772,0.0462 -0.44455,0.0547 -0.0454,0.0105 -0.092,-0.01 -0.14461,-0.0622 z m -1.31804,-0.31362 c -0.17555,-0.0621 -0.44242,-0.33954 -0.58105,-0.60399 -0.11062,-0.21101 -0.11172,-0.21671 -0.11172,-0.57843 0,-0.41596 0.0531,-0.63066 0.21374,-0.86505 0.12318,-0.17966 0.2839,-0.26818 0.53331,-0.29373 0.16797,-0.0172 0.21953,-0.01 0.34204,0.0476 0.35055,0.16477 0.38953,0.42115 0.10552,0.69403 -0.12694,0.12197 -0.50247,0.2802 -0.665,0.2802 -0.12813,0 -0.12735,-0.001 -0.11884,0.21311 0.008,0.19838 0.10404,0.3956 0.27501,0.564 0.13942,0.13731 0.16214,0.14832 0.3317,0.16058 0.21004,0.0152 0.28652,0.0751 0.28652,0.22431 0,0.14309 -0.0988,0.20853 -0.31034,0.20557 -0.0944,-0.001 -0.22983,-0.023 -0.30089,-0.0482 z m 0.0455,-1.8217 c 0.0712,-0.0288 0.12938,-0.0645 0.12938,-0.0795 0,-0.0716 -0.24406,0.009 -0.30047,0.0996 -0.0338,0.0541 -0.0337,0.0621 5.8e-4,0.0485 0.0226,-0.009 0.0993,-0.0398 0.17045,-0.0686 z m -19.26276,1.61999 c -0.10319,-0.0522 -0.1484,-0.18644 -0.0924,-0.27438 0.0235,-0.0369 0.0517,-0.13497 0.0626,-0.21803 0.0169,-0.1278 -0.0166,-1.75474 -0.0439,-2.13226 -0.005,-0.067 -0.0199,-0.54835 -0.0335,-1.06971 l -0.0247,-0.94794 0.0795,-0.0795 c 0.15645,-0.15645 0.3114,-0.0616 0.41413,0.25364 0.0851,0.26115 0.0848,0.44029 -8.3e-4,0.50028 -0.0647,0.0453 -0.0648,0.046 -0.0288,0.75521 0.0571,1.1252 0.0908,2.61756 0.0641,2.83298 -0.0288,0.23179 -0.0912,0.34105 -0.22064,0.38618 -0.0516,0.018 -0.0953,0.0325 -0.0969,0.0323 -0.002,-2.4e-4 -0.0371,-0.0177 -0.0787,-0.0387 z m 11.87403,-0.11359 c -0.12786,-0.0301 -0.18415,-0.10083 -0.18415,-0.23141 0,-0.14285 0.11943,-0.23068 0.27899,-0.20517 0.0793,0.0127 0.15695,0.003 0.23215,-0.0297 0.148,-0.0638 0.42849,-0.11156 0.65893,-0.11214 0.2735,-6.9e-4 0.29409,-0.0242 0.19239,-0.21949 -0.046,-0.0883 -0.18047,-0.27704 -0.29883,-0.41936 -0.38484,-0.46276 -0.50973,-0.84706 -0.36401,-1.12002 0.16151,-0.30253 0.34952,-0.40217 0.75887,-0.40217 0.32772,0 0.56767,0.0759 0.68653,0.21716 0.0939,0.11156 0.0971,0.17572 0.0143,0.28106 -0.0791,0.10055 -0.16702,0.10183 -0.34897,0.005 -0.1246,-0.0662 -0.16886,-0.0734 -0.37455,-0.0607 -0.20205,0.0125 -0.24241,0.0248 -0.30175,0.0921 -0.0377,0.0427 -0.0684,0.10081 -0.0682,0.12918 5.8e-4,0.10596 0.1488,0.36452 0.34063,0.59434 0.45217,0.5417 0.57223,0.89271 0.38623,1.12916 -0.10827,0.13764 -0.23018,0.17944 -0.59016,0.2023 -0.23864,0.0152 -0.40115,0.0442 -0.5655,0.101 -0.2431,0.084 -0.28421,0.0885 -0.45288,0.0488 z m 3.90583,-0.0135 c -0.0971,-0.042 -0.11157,-0.0675 -0.1478,-0.26002 -0.011,-0.0586 -0.0476,-0.223 -0.0813,-0.36532 -0.0774,-0.32699 -0.07,-0.82475 0.0141,-0.95318 0.07,-0.10676 0.26456,-0.20368 0.40896,-0.20368 0.0636,0 0.16344,-0.0139 0.22193,-0.0308 0.17594,-0.051 0.69383,-0.0705 0.79196,-0.0298 0.14497,0.0601 0.17351,0.25846 0.0517,0.35955 -0.026,0.0216 -0.17527,0.0453 -0.3459,0.0549 -0.16504,0.009 -0.34802,0.0293 -0.40663,0.0445 -0.0586,0.0152 -0.14765,0.0279 -0.19788,0.0282 -0.0502,3.5e-4 -0.11068,0.0129 -0.13432,0.0279 -0.0671,0.0425 -0.0486,0.3398 0.0437,0.70251 0.11547,0.45368 0.12212,0.52406 0.055,0.58304 -0.0854,0.0751 -0.16814,0.0879 -0.27361,0.0423 z m -19.20528,-0.0224 c -0.0957,-0.0543 -0.10553,-0.086 -0.10161,-0.32895 0.002,-0.12558 -0.0131,-0.35847 -0.0335,-0.51754 -0.0205,-0.15907 -0.0424,-0.34402 -0.0487,-0.41099 -0.0545,-0.57786 -0.0791,-0.83351 -0.105,-1.09286 -0.0166,-0.16572 -0.0217,-0.35402 -0.0114,-0.41843 0.0119,-0.0742 0.005,-0.13376 -0.019,-0.16253 -0.0236,-0.0284 -0.0309,-0.0883 -0.0195,-0.16 0.01,-0.063 0.0257,-0.26528 0.0348,-0.44946 0.0176,-0.35528 0.0839,-0.65159 0.20885,-0.93313 0.17038,-0.38393 0.36106,-0.48989 0.88325,-0.4908 0.2525,-4.4e-4 0.33243,0.0112 0.44536,0.0648 0.27287,0.12962 0.60824,0.54882 0.60824,0.76027 0,0.19552 -0.0723,0.32496 -0.31768,0.56893 -0.18271,0.18165 -0.30395,0.27244 -0.47386,0.35484 -0.23308,0.11304 -0.72002,0.2687 -0.84056,0.2687 -0.0587,0 -0.0685,0.0196 -0.0802,0.15983 -0.007,0.0879 0.004,0.33108 0.025,0.54038 0.0211,0.2093 0.0477,0.49364 0.0592,0.63187 0.0115,0.13824 0.0332,0.25892 0.0482,0.26818 0.015,0.009 0.0273,0.004 0.0273,-0.0112 0,-0.0154 0.082,-0.15147 0.18218,-0.30229 0.42439,-0.63878 0.84768,-0.86108 1.26746,-0.66562 0.21244,0.0989 0.32272,0.24898 0.3405,0.46332 0.0121,0.14616 -7e-5,0.19484 -0.0988,0.39454 -0.0619,0.1253 -0.16372,0.28157 -0.22622,0.34727 -0.15281,0.16063 -0.52672,0.33671 -0.73937,0.34817 -0.0894,0.005 -0.2006,0.0107 -0.24708,0.0131 -0.0823,0.004 -0.0833,0.007 -0.0408,0.0881 0.024,0.046 0.087,0.12482 0.13978,0.17505 0.0838,0.0797 0.1183,0.0913 0.27054,0.0913 0.14927,0 0.2211,-0.0231 0.49688,-0.15983 0.17731,-0.0879 0.35765,-0.15983 0.40075,-0.15983 0.16782,0 0.26665,0.23696 0.14482,0.34722 -0.0799,0.0723 -0.50165,0.28683 -0.70055,0.35635 -0.0905,0.0316 -0.23964,0.0575 -0.33135,0.0575 -0.26952,0 -0.39685,-0.0543 -0.60764,-0.25916 l -0.19028,-0.1849 v 0.10177 c 0,0.13539 -0.0685,0.26123 -0.16658,0.30591 -0.0964,0.0439 -0.10609,0.0439 -0.18352,0 z m 1.27647,-1.31162 c 0.15114,-0.0821 0.19697,-0.12778 0.28186,-0.28074 0.11588,-0.2088 0.11794,-0.28844 0.009,-0.34056 -0.18946,-0.0905 -0.45202,0.0824 -0.70205,0.46233 l -0.12022,0.18266 0.0842,0.0367 c 0.13707,0.0597 0.25593,0.0437 0.44737,-0.0604 z m -0.82147,-2.13818 c 0.348,-0.10085 0.51962,-0.19109 0.73125,-0.38451 0.20304,-0.18556 0.23786,-0.25442 0.18256,-0.36099 -0.0555,-0.10698 -0.25827,-0.29342 -0.34888,-0.3208 -0.12369,-0.0374 -0.48053,-0.0191 -0.57436,0.0294 -0.0966,0.05 -0.18457,0.22734 -0.25765,0.51968 -0.0615,0.24595 -0.0808,0.59365 -0.0329,0.59365 0.0198,0 0.15486,-0.0344 0.30002,-0.0765 z m 17.17191,3.40695 c -0.20518,-0.10469 -0.30268,-0.20317 -0.38072,-0.38458 -0.27705,-0.64401 -0.13258,-1.35561 0.37897,-1.86668 0.26,-0.25975 0.39185,-0.31271 0.63682,-0.25576 0.49712,0.11557 0.48489,0.65795 -0.0241,1.06941 -0.179,0.14469 -0.58127,0.35997 -0.67264,0.35997 -0.042,0 -0.0469,0.0212 -0.0299,0.12939 0.0774,0.49212 0.25389,0.6663 0.56524,0.55789 0.19593,-0.0682 0.31996,-0.0617 0.37701,0.0197 0.11467,0.16372 0.0112,0.3205 -0.26435,0.40061 -0.24085,0.07 -0.40705,0.0615 -0.58635,-0.03 z m 0.30225,-1.73924 c 0.1231,-0.0869 0.26052,-0.25558 0.26084,-0.32021 7e-5,-0.0125 -0.0323,-0.0228 -0.0718,-0.0228 -0.08,0 -0.31439,0.23036 -0.39701,0.39013 -0.0474,0.0916 -0.047,0.0944 0.01,0.0733 0.0324,-0.0121 0.12166,-0.0662 0.19834,-0.12037 z m -13.21344,1.70384 c -0.0906,-0.0605 -0.10615,-0.1561 -0.0545,-0.33394 0.0449,-0.15431 0.0485,-0.28723 0.0306,-1.11908 -0.0112,-0.51918 -0.01,-0.95903 0.003,-0.97746 0.0448,-0.0636 0.15959,-0.10491 0.23716,-0.0854 0.16132,0.0405 0.17124,0.10916 0.17697,1.22557 0.006,1.07899 -0.009,1.21737 -0.13218,1.28344 -0.0659,0.0353 -0.21311,0.0392 -0.26139,0.007 z m 0.67754,-0.0324 c -0.0673,-0.0744 -0.064,-0.22699 0.006,-0.29062 0.0312,-0.0282 0.1305,-0.0633 0.22072,-0.078 0.31592,-0.0515 0.61829,-0.19502 0.66503,-0.31571 0.0339,-0.0875 -0.11103,-0.35174 -0.42419,-0.77352 -0.12798,-0.17237 -0.27952,-0.4058 -0.33676,-0.51873 -0.0886,-0.17486 -0.10416,-0.23695 -0.10471,-0.41843 -8.8e-4,-0.28429 0.0582,-0.36558 0.38892,-0.53491 0.23762,-0.12167 0.25719,-0.12664 0.34002,-0.0863 0.1101,0.0536 0.16022,0.18802 0.10712,0.28725 -0.0209,0.0391 -0.11793,0.11361 -0.21561,0.16567 -0.0977,0.0521 -0.18553,0.10749 -0.19523,0.12317 -0.0555,0.0898 0.09,0.35959 0.476,0.88234 0.19973,0.27051 0.3782,0.58673 0.4057,0.71883 0.0281,0.13523 -0.0348,0.35189 -0.13889,0.47819 -0.24373,0.29568 -1.0366,0.5352 -1.19441,0.36082 z m 15.82039,-0.005 c -0.14142,-0.057 -0.17071,-0.24651 -0.0684,-0.44239 0.0558,-0.10671 0.0619,-0.164 0.0533,-0.49741 l -0.01,-0.37681 0.0806,-0.0606 c 0.0644,-0.0484 0.098,-0.0549 0.16744,-0.0319 0.14906,0.0492 0.17821,0.15524 0.17821,0.64827 0,0.50985 -0.0326,0.64415 -0.17819,0.7329 -0.10579,0.0645 -0.12621,0.0671 -0.2232,0.028 z m -0.35543,-2.4965 c -0.1228,-0.10781 -0.15861,-0.21919 -0.109,-0.33896 0.0809,-0.19529 0.44262,-0.2846 0.57541,-0.14207 0.0731,0.0785 0.0796,0.17261 0.0174,0.25483 -0.0246,0.0325 -0.0451,0.0946 -0.0457,0.13809 -0.002,0.19263 -0.26006,0.24446 -0.43812,0.0881 z m -16.16656,-0.3508 c -0.0518,-0.0518 -0.10945,-0.23339 -0.10971,-0.34548 -3.5e-4,-0.14744 0.24479,-0.30803 0.47021,-0.30803 0.0882,0 0.19938,0.12117 0.19938,0.21737 0,0.0777 -0.11119,0.20884 -0.17701,0.20884 -0.0198,0 -0.0361,0.039 -0.0361,0.0866 0,0.0476 -0.0251,0.10929 -0.0557,0.137 -0.0699,0.0633 -0.22951,0.0653 -0.2911,0.004 z"
       id="path836" />
  </g>
</svg>
