<?xml version="1.0" encoding="UTF-8" standalone="no"?>
<!-- Created with Inkscape (http://www.inkscape.org/) -->

<svg
   width="24.112377mm"
   height="5.1581073mm"
   viewBox="0 0 24.112377 5.1581075"
   version="1.1"
   id="svg5"
   inkscape:version="1.1.1 (3bf5ae0d25, 2021-09-20)"
   sodipodi:docname="more-books.svg"
   xmlns:inkscape="http://www.inkscape.org/namespaces/inkscape"
   xmlns:sodipodi="http://sodipodi.sourceforge.net/DTD/sodipodi-0.dtd"
   xmlns="http://www.w3.org/2000/svg"
   xmlns:svg="http://www.w3.org/2000/svg">
  <sodipodi:namedview
     id="namedview7"
     pagecolor="#ffffff"
     bordercolor="#666666"
     borderopacity="1.0"
     inkscape:pageshadow="2"
     inkscape:pageopacity="0.0"
     inkscape:pagecheckerboard="0"
     inkscape:document-units="mm"
     showgrid="false"
     fit-margin-top="0"
     fit-margin-left="0"
     fit-margin-right="0"
     fit-margin-bottom="0"
     inkscape:zoom="0.5052024"
     inkscape:cx="-114.80547"
     inkscape:cy="177.15672"
     inkscape:window-width="1920"
     inkscape:window-height="991"
     inkscape:window-x="-9"
     inkscape:window-y="-9"
     inkscape:window-maximized="1"
     inkscape:current-layer="layer1" />
  <defs
     id="defs2" />
  <g
     inkscape:label="Capa 1"
     inkscape:groupmode="layer"
     id="layer1"
     transform="translate(-15.497581,-56.418096)">
    <path
       style="fill:#000000;stroke-width:0.0191823"
       d="m 25.120557,61.518974 -0.05873,-0.05874 0.01704,-0.195433 c 0.02342,-0.268382 0.01824,-1.167771 -0.0081,-1.413508 -0.01188,-0.110779 -0.03406,-0.313631 -0.04927,-0.450784 -0.01521,-0.137153 -0.03725,-0.370218 -0.04897,-0.517921 -0.03524,-0.444149 -0.0592,-0.70092 -0.08138,-0.87253 -0.03408,-0.263597 -0.03019,-0.802601 0.0076,-1.055289 0.01815,-0.121328 0.03798,-0.260836 0.04408,-0.310018 0.03273,-0.264173 0.335342,-0.250811 0.366965,0.0162 0.0085,0.07179 0.0034,0.108442 -0.02013,0.144334 -0.08151,0.124399 -0.123742,0.803618 -0.07251,1.166141 0.01117,0.07913 0.02985,0.256083 0.04149,0.393237 0.04538,0.535066 0.09759,1.086151 0.127198,1.342759 0.03273,0.2836 0.04775,1.29479 0.02369,1.594156 -0.01349,0.167802 -0.03686,0.22349 -0.107262,0.255569 -0.0737,0.03358 -0.119582,0.02394 -0.181704,-0.03818 z m 7.492991,-0.08255 c -0.05375,-0.02515 -0.103387,-0.06048 -0.110297,-0.07849 -0.02397,-0.06247 -0.01235,-0.139794 0.02888,-0.192209 0.0433,-0.05505 0.07816,-0.0574 0.275063,-0.01857 0.08919,0.01759 0.160724,-0.01959 0.194859,-0.101284 0.02746,-0.06573 0.02719,-0.08044 -0.0033,-0.177041 -0.03236,-0.102655 -0.108959,-0.267342 -0.205619,-0.442077 -0.02626,-0.04748 -0.08043,-0.146745 -0.120378,-0.220597 -0.03994,-0.07385 -0.09654,-0.173119 -0.125767,-0.220596 -0.130018,-0.211199 -0.177393,-0.554443 -0.105665,-0.76556 0.04692,-0.138085 0.160241,-0.250858 0.296096,-0.294655 0.157034,-0.05062 0.243859,-0.04423 0.310985,0.0229 0.113232,0.113231 0.0475,0.262804 -0.121967,0.277539 -0.145749,0.01267 -0.190499,0.07397 -0.188777,0.258577 0.0013,0.13776 0.03598,0.222509 0.248281,0.606521 0.234559,0.424264 0.277022,0.510593 0.329366,0.669608 0.07143,0.216992 0.02893,0.441694 -0.112235,0.593524 -0.08155,0.0877 -0.150919,0.113286 -0.328152,0.121012 -0.141521,0.0062 -0.176913,9.08e-4 -0.261415,-0.03862 z m 5.433562,-0.120923 c -0.0039,-0.0039 -0.48089,-0.0116 -1.060099,-0.01725 -1.194658,-0.01164 -1.126966,-0.0019 -1.174153,-0.168968 -0.02134,-0.07556 -0.02055,-0.133555 0.005,-0.372038 0.01668,-0.155389 0.05147,-0.481061 0.07734,-0.723717 0.02585,-0.242655 0.05601,-0.505932 0.06701,-0.585059 0.03267,-0.235175 0.07686,-0.874887 0.07749,-1.122164 7.32e-4,-0.270672 0.01849,-0.363218 0.08203,-0.426758 0.04116,-0.04116 0.07203,-0.0487 0.261874,-0.06397 0.183174,-0.01472 0.277085,-0.01014 0.630852,0.03083 0.2286,0.02647 0.440665,0.05661 0.471251,0.06698 0.03059,0.01037 0.07573,0.01885 0.100321,0.01885 0.08306,0 0.19925,0.06005 0.229551,0.118646 0.05989,0.115817 -0.04095,0.245817 -0.190692,0.245817 -0.03731,0 -0.0725,-0.0075 -0.07818,-0.01672 -0.02444,-0.03955 -0.762368,-0.141249 -1.006715,-0.138738 -0.0781,7.84e-4 -0.14378,0.0037 -0.14596,0.0065 -0.0022,0.0028 -0.01852,0.233819 -0.0363,0.5134 -0.03145,0.494182 -0.05072,0.701744 -0.0891,0.959114 -0.01022,0.06858 -0.03575,0.310274 -0.05672,0.537103 -0.02097,0.226831 -0.04673,0.464212 -0.05726,0.527513 -0.01052,0.0633 -0.01918,0.145306 -0.01925,0.182232 l -2.18e-4,0.06713 0.388447,6.79e-4 c 0.213647,3.76e-4 0.687441,0.0076 1.052881,0.01603 0.546121,0.01262 0.667288,0.01079 0.680483,-0.01027 0.0088,-0.0141 0.02198,-0.229569 0.02924,-0.478833 0.0073,-0.249264 0.02363,-0.536126 0.03639,-0.637472 0.01275,-0.101346 0.01828,-0.203042 0.01228,-0.225991 -0.01935,-0.07401 0.03334,-0.163254 0.11162,-0.189093 0.206362,-0.0681 0.356123,0.08667 0.26081,0.269538 -0.05754,0.110394 -0.07754,0.287661 -0.09537,0.845364 -0.01475,0.461596 -0.01806,0.492228 -0.06368,0.592274 -0.07569,0.16591 -0.102992,0.181905 -0.314353,0.184107 -0.09897,0.0011 -0.183097,-0.0013 -0.186943,-0.0051 z m -9.873546,-0.05275 c -0.123183,-0.03814 -0.192388,-0.09626 -0.321476,-0.270001 -0.2443,-0.328799 -0.329939,-0.480127 -0.434279,-0.767393 -0.118976,-0.327561 -0.218038,-0.743764 -0.307951,-1.293844 -0.06119,-0.374356 -0.07631,-0.513885 -0.123777,-1.142306 -0.06083,-0.805405 -0.07497,-0.938644 -0.101655,-0.958332 -0.06905,-0.05094 -0.09609,-0.21456 -0.05027,-0.304163 0.03063,-0.05989 0.09607,-0.108114 0.14737,-0.108611 0.06067,-5.74e-4 0.145795,0.04626 0.180425,0.0993 0.04265,0.06533 0.087,0.348038 0.110731,0.705929 0.01154,0.17408 0.0293,0.402828 0.03946,0.50833 0.01016,0.105503 0.02726,0.316916 0.03801,0.469807 0.01075,0.152891 0.03682,0.385956 0.05795,0.517922 0.02112,0.131965 0.04308,0.27015 0.04878,0.307075 0.0188,0.121697 0.122404,0.581719 0.172794,0.767291 0.118044,0.434717 0.210073,0.622662 0.487732,0.996058 0.156147,0.209986 0.194697,0.201506 0.230497,-0.0507 0.03967,-0.279485 -0.0057,-0.532875 -0.158185,-0.883789 -0.07165,-0.164875 -0.07989,-0.176 -0.110101,-0.148663 -0.03329,0.03012 -0.126236,0.03912 -0.182229,0.01763 -0.08023,-0.03079 -0.113998,-0.232045 -0.06043,-0.360249 0.03482,-0.08334 0.09879,-0.126575 0.187278,-0.126575 0.194349,0 0.313151,0.122429 0.469513,0.48384 0.179037,0.413822 0.231847,0.762374 0.171032,1.128814 -0.04831,0.291151 -0.107053,0.367167 -0.317647,0.411114 -0.07763,0.0162 -0.124807,0.01661 -0.173571,0.0015 z m -6.90939,-0.152999 c -0.05849,-0.04439 -0.07876,-0.134418 -0.04498,-0.199745 0.03557,-0.06879 0.114361,-0.09959 0.254748,-0.09959 0.1242,0 0.219977,-0.0369 0.283876,-0.10937 0.07585,-0.08602 0.07678,-0.113612 0.0065,-0.194466 -0.436228,-0.502078 -0.540056,-0.6401 -0.633148,-0.841674 -0.05148,-0.111477 -0.06132,-0.157916 -0.0687,-0.324244 -0.01021,-0.23021 0.02069,-0.358904 0.115428,-0.480654 0.174829,-0.224681 0.291027,-0.355967 0.331293,-0.374313 0.09612,-0.0438 0.220212,0.03536 0.220212,0.140472 0,0.07553 -0.0521,0.16165 -0.2039,0.337067 -0.09656,0.111576 -0.122135,0.155209 -0.132841,0.226598 -0.03968,0.26463 0.0784,0.491585 0.492086,0.945803 0.234957,0.257976 0.291073,0.350707 0.277602,0.458733 -0.02561,0.205385 -0.205459,0.427786 -0.406868,0.503142 -0.125551,0.04697 -0.435404,0.0547 -0.491334,0.01225 z m 5.287068,-0.06092 c -0.0575,-0.06097 -0.06461,-0.08032 -0.06461,-0.175864 0,-0.05904 -0.0088,-0.164177 -0.01951,-0.233618 -0.05118,-0.331325 -0.06377,-0.401252 -0.08752,-0.486558 -0.01405,-0.05047 -0.02033,-0.106571 -0.01395,-0.124686 0.0452,-0.128283 0.196512,-0.16222 0.280143,-0.06283 0.04767,0.05665 0.07063,0.134287 0.108107,0.365584 0.04631,0.285796 0.05883,0.380807 0.05883,0.446428 0,0.03807 0.0086,0.07457 0.01918,0.08109 0.01054,0.0065 0.01918,0.04626 0.01918,0.08832 0,0.102279 -0.06598,0.170635 -0.16471,0.170635 -0.05603,0 -0.08382,-0.01409 -0.135145,-0.0685 z m 2.492879,0.02133 c -0.09943,-0.04325 -0.118784,-0.09365 -0.14063,-0.366203 -0.01095,-0.136627 -0.02867,-0.341609 -0.03938,-0.455516 -0.02337,-0.248649 -0.01261,-0.319257 0.0591,-0.387961 l 0.05441,-0.05214 0.418564,-0.01729 c 0.332004,-0.01372 0.442146,-0.02515 0.532588,-0.05525 0.19889,-0.06622 0.299979,-0.04641 0.34785,0.06817 0.04861,0.116358 -0.0206,0.210005 -0.176501,0.238779 -0.05146,0.0095 -0.141024,0.02919 -0.199052,0.04377 -0.06135,0.01541 -0.22978,0.02846 -0.402484,0.03118 -0.163341,0.0025 -0.299584,0.0073 -0.302764,0.01046 -0.0032,0.0032 0.0043,0.1472 0.01642,0.320047 0.01779,0.251841 0.02936,0.32438 0.05819,0.365184 0.06927,0.09802 0.02928,0.224932 -0.08324,0.264155 -0.07191,0.02507 -0.06805,0.02527 -0.143087,-0.0074 z m 1.730324,-0.175234 c -0.140626,-0.05147 -0.21549,-0.147349 -0.265944,-0.34056 -0.03714,-0.142201 -0.01537,-0.216363 0.07451,-0.253918 0.116536,-0.0487 0.216593,0.01784 0.248111,0.164969 0.02031,0.09483 0.0427,0.114811 0.128596,0.114811 0.211891,0 0.428278,-0.256791 0.450235,-0.534303 0.0087,-0.109823 0.003,-0.143431 -0.04112,-0.242579 -0.02816,-0.0633 -0.08258,-0.147535 -0.12092,-0.187185 l -0.06972,-0.07209 -0.0239,0.08094 c -0.02787,0.09437 -0.0074,0.217923 0.05219,0.314259 0.05481,0.08868 0.0493,0.187585 -0.01319,0.23674 -0.116354,0.09152 -0.252685,0.01134 -0.329162,-0.193605 -0.06245,-0.167351 -0.07111,-0.281355 -0.03314,-0.436307 0.05417,-0.221032 0.165206,-0.328266 0.339009,-0.327388 0.183431,9.08e-4 0.360299,0.151818 0.491278,0.419129 0.07082,0.144528 0.0717,0.149183 0.0717,0.378817 v 0.23249 l -0.08297,0.163641 c -0.145317,0.286582 -0.346206,0.451346 -0.600643,0.492632 -0.153525,0.02491 -0.181088,0.02386 -0.274923,-0.01049 z M 15.619873,60.85024 c -0.06797,-0.02855 -0.106417,-0.08984 -0.118066,-0.188207 -0.0096,-0.08061 -0.0044,-0.105526 0.03186,-0.154597 0.04134,-0.05592 0.04395,-0.08161 0.05909,-0.58271 0.02205,-0.729621 0.05344,-1.484278 0.06652,-1.598416 0.0061,-0.05275 0.02743,-0.221076 0.04754,-0.374055 0.0201,-0.152978 0.0449,-0.377423 0.05511,-0.498765 0.01355,-0.161349 0.03351,-0.261311 0.07425,-0.372073 0.07271,-0.197681 0.115127,-0.241733 0.23277,-0.241733 0.103897,0 0.190137,0.0529 0.274478,0.168361 0.06741,0.09228 0.232827,0.413632 0.263872,0.512609 0.02797,0.08919 0.190294,0.429905 0.250888,0.526629 l 0.04151,0.06625 0.05616,-0.06625 c 0.09879,-0.116548 0.199229,-0.272127 0.302017,-0.467838 0.05505,-0.104819 0.154771,-0.268827 0.221603,-0.364463 0.171648,-0.245638 0.276657,-0.316236 0.414978,-0.278991 0.151358,0.04075 0.268931,0.274539 0.303685,0.603845 0.01003,0.09495 0.02378,0.630139 0.03056,1.189302 0.0068,0.559163 0.01629,1.030739 0.02111,1.047945 0.0048,0.0172 0.03375,0.03628 0.06428,0.04239 0.07567,0.01513 0.135178,0.0838 0.135178,0.156002 0,0.136358 -0.190075,0.541653 -0.272565,0.58119 -0.06518,0.03124 -0.134243,0.01435 -0.196685,-0.04809 -0.04479,-0.04479 -0.04876,-0.0626 -0.0497,-0.223493 -4.7e-4,-0.09615 -0.01266,-0.757481 -0.02687,-1.469624 -0.02198,-1.101736 -0.03058,-1.310015 -0.05765,-1.396824 l -0.03181,-0.10202 -0.05216,0.07324 c -0.08523,0.119668 -0.168219,0.257115 -0.235348,0.389755 -0.106886,0.211209 -0.258371,0.429806 -0.397034,0.572942 -0.130495,0.134704 -0.13404,0.136802 -0.231189,0.136802 -0.08904,0 -0.105928,-0.0073 -0.173168,-0.07451 -0.06561,-0.06561 -0.126904,-0.157584 -0.253516,-0.380419 -0.01927,-0.03393 -0.07023,-0.146146 -0.113213,-0.249369 -0.114476,-0.27487 -0.158013,-0.371651 -0.200486,-0.445679 -0.03777,-0.06582 -0.03804,-0.06592 -0.05108,-0.01918 -0.0073,0.02585 -0.01398,0.08777 -0.01502,0.137598 -9.08e-4,0.04983 -0.02754,0.291528 -0.05885,0.537103 -0.05683,0.445739 -0.07681,0.789301 -0.115226,1.981083 -0.0092,0.284857 -0.02599,0.548076 -0.03736,0.584933 -0.01137,0.03685 -0.02066,0.09067 -0.02066,0.119586 0,0.105362 -0.146367,0.208974 -0.239778,0.169736 z M 20.5689,60.726195 c -0.03165,-0.01216 -0.07604,-0.03251 -0.09864,-0.04524 -0.06231,-0.0351 -0.373623,-0.264222 -0.434868,-0.320074 -0.02968,-0.02706 -0.05682,-0.0492 -0.06033,-0.0492 -0.0035,0 -0.02983,0.04532 -0.05849,0.100707 -0.06484,0.125303 -0.09021,0.154192 -0.198313,0.225795 -0.0742,0.04915 -0.104275,0.05714 -0.214917,0.05714 -0.155496,0 -0.242365,-0.03349 -0.354162,-0.136543 -0.153252,-0.141263 -0.258725,-0.360205 -0.258725,-0.53707 0,-0.218013 0.175008,-0.355013 0.313921,-0.245744 0.04032,0.03171 0.05048,0.05597 0.05025,0.119889 -1.44e-4,0.04407 -0.0078,0.09199 -0.01699,0.106479 -0.03987,0.06293 0.07539,0.288811 0.173161,0.339372 0.07463,0.03859 0.118726,0.03437 0.165955,-0.0159 0.06199,-0.06599 0.10017,-0.174598 0.10017,-0.28498 0,-0.09535 -0.0044,-0.103865 -0.108163,-0.206825 -0.192645,-0.191248 -0.211075,-0.247899 -0.131641,-0.404653 0.05521,-0.108939 0.09254,-0.134327 0.197562,-0.134327 0.08147,0 0.164062,0.06218 0.18733,0.14101 0.04877,0.16525 0.269467,0.521261 0.395176,0.637467 0.03519,0.03253 0.12656,0.103837 0.203049,0.158467 l 0.139072,0.09933 v -0.05414 c 0,-0.108628 0.133717,-0.188243 0.228859,-0.136261 0.07177,0.03921 0.160631,0.229575 0.170435,0.365106 0.0077,0.106988 0.0051,0.114836 -0.05941,0.179381 -0.06132,0.06132 -0.0769,0.06729 -0.170125,0.06521 -0.05644,-0.0013 -0.128521,-0.01223 -0.160172,-0.02438 z m 16.209026,-0.456871 c -0.05729,-0.03285 -0.08503,-0.07627 -0.08571,-0.134182 -0.0011,-0.09385 0.04024,-0.147656 0.168635,-0.219456 0.217008,-0.121357 0.615739,-0.515826 1.120028,-1.108054 0.371453,-0.436226 0.419233,-0.49494 0.497422,-0.611231 0.09995,-0.148655 0.209297,-0.281497 0.321417,-0.390473 0.07006,-0.0681 0.09951,-0.08385 0.156618,-0.08385 0.08347,0 0.161825,0.05507 0.179704,0.126312 0.01845,0.07353 -0.02038,0.170501 -0.08072,0.201522 -0.07391,0.03799 -0.184364,0.15818 -0.290194,0.315773 -0.106554,0.158665 -0.205091,0.285115 -0.352967,0.452952 -0.05888,0.06683 -0.19943,0.229415 -0.312331,0.361293 -0.403366,0.471176 -0.758518,0.816224 -1.02154,0.992483 -0.180741,0.121121 -0.230282,0.137107 -0.300354,0.09692 z M 26.239801,59.188703 c -0.08948,-0.07529 -0.13576,-0.165732 -0.14884,-0.290877 -0.01989,-0.190217 0.07381,-0.317112 0.209082,-0.283163 0.07935,0.01992 0.117012,0.07668 0.119354,0.179926 0.0016,0.07154 0.01431,0.107146 0.05576,0.156396 0.140761,0.167287 -0.06821,0.378359 -0.235352,0.237718 z M 39.28809,58.883699 c -0.09234,-0.04026 -0.110587,-0.12168 -0.09677,-0.431825 0.0064,-0.142912 0.0201,-0.307316 0.03053,-0.365343 0.03375,-0.187855 0.05936,-0.472926 0.05936,-0.660806 v -0.18349 l -0.100707,0.07037 c -0.05539,0.0387 -0.143867,0.107741 -0.196618,0.153421 -0.05275,0.04568 -0.159041,0.135798 -0.236195,0.200266 -0.07716,0.06446 -0.147381,0.13576 -0.156054,0.15843 -0.01812,0.0474 -0.07093,0.09668 -0.123803,0.115552 -0.05924,0.02114 -0.162675,-0.02395 -0.194025,-0.08457 -0.0687,-0.13283 -0.01661,-0.210016 0.356978,-0.529159 0.341488,-0.291715 0.546558,-0.427904 0.665552,-0.441996 0.129248,-0.01531 0.221337,0.02729 0.271475,0.125565 0.06662,0.130572 0.05412,0.571129 -0.03652,1.287427 -0.01,0.07913 -0.01859,0.226402 -0.01904,0.327278 -7.32e-4,0.157358 -0.0064,0.189374 -0.03995,0.225392 -0.02152,0.02309 -0.0467,0.04198 -0.05598,0.04198 -0.0093,0 -0.02836,0.004 -0.04241,0.0089 -0.01405,0.0049 -0.05266,-0.0029 -0.08581,-0.01738 z M 19.422461,58.607582 c -0.08328,-0.05491 -0.108732,-0.101529 -0.109388,-0.200363 -7.32e-4,-0.114573 0.02493,-0.17641 0.15169,-0.365092 0.156812,-0.233412 0.309378,-0.38519 0.465909,-0.4635 0.119404,-0.05973 0.15215,-0.06756 0.282591,-0.06756 0.129417,0 0.15266,0.0054 0.189245,0.0444 0.04727,0.05032 0.0552,0.156833 0.01555,0.209015 -0.03317,0.04366 -0.113578,0.07269 -0.201339,0.07269 -0.148703,0 -0.298352,0.12635 -0.495439,0.418299 -0.06022,0.0892 -0.06603,0.107701 -0.04694,0.149565 0.03452,0.07577 0.02588,0.121536 -0.03431,0.181721 -0.0655,0.06549 -0.139153,0.07254 -0.217575,0.02083 z"
       id="path2240" />
  </g>
</svg>
