<?xml version="1.0" encoding="UTF-8" standalone="no"?>
<!-- Created with Inkscape (http://www.inkscape.org/) -->

<svg
   width="23.012957mm"
   height="5.3429279mm"
   viewBox="0 0 23.012957 5.3429279"
   version="1.1"
   id="svg5"
   inkscape:version="1.1.1 (3bf5ae0d25, 2021-09-20)"
   sodipodi:docname="more-favourite-movies.svg"
   xmlns:inkscape="http://www.inkscape.org/namespaces/inkscape"
   xmlns:sodipodi="http://sodipodi.sourceforge.net/DTD/sodipodi-0.dtd"
   xmlns="http://www.w3.org/2000/svg"
   xmlns:svg="http://www.w3.org/2000/svg">
  <sodipodi:namedview
     id="namedview7"
     pagecolor="#ffffff"
     bordercolor="#666666"
     borderopacity="1.0"
     inkscape:pageshadow="2"
     inkscape:pageopacity="0.0"
     inkscape:pagecheckerboard="0"
     inkscape:document-units="mm"
     showgrid="false"
     fit-margin-top="0"
     fit-margin-left="0"
     fit-margin-right="0"
     fit-margin-bottom="0"
     inkscape:zoom="0.71446409"
     inkscape:cx="-300.92485"
     inkscape:cy="31.492136"
     inkscape:window-width="1920"
     inkscape:window-height="991"
     inkscape:window-x="-9"
     inkscape:window-y="-9"
     inkscape:window-maximized="1"
     inkscape:current-layer="layer1" />
  <defs
     id="defs2" />
  <g
     inkscape:label="Capa 1"
     inkscape:groupmode="layer"
     id="layer1"
     transform="translate(-184.61655,-140.37087)">
    <path
       style="fill:#000000;stroke-width:0.0318154"
       d="m 202.4924,145.65792 c -0.12003,-0.12003 -0.14806,-0.29071 -0.10434,-0.63504 0.0923,-0.7266 0.23335,-1.68445 0.3384,-2.29759 0.17038,-0.99435 0.19351,-1.07118 0.37784,-1.25552 0.21495,-0.21495 0.37151,-0.2729 0.78405,-0.29026 0.29349,-0.0123 0.39773,-0.003 0.59499,0.0506 0.26838,0.0737 0.37283,0.14205 0.47693,0.31243 0.10046,0.16442 0.0961,0.33808 -0.0103,0.40777 -0.11265,0.0738 -0.22619,0.0291 -0.33545,-0.13211 -0.10994,-0.16218 -0.23346,-0.20087 -0.65155,-0.20405 -0.30823,-0.003 -0.32668,0.002 -0.45287,0.0928 -0.16658,0.12067 -0.19737,0.19863 -0.30154,0.76372 -0.14937,0.81037 -0.40366,2.53634 -0.40366,2.7399 v 0.0781 l 0.58063,-0.0737 c 0.31934,-0.0406 0.6373,-0.0655 0.70657,-0.0554 0.40971,0.0598 1.35806,0.0751 1.42759,0.023 0.0205,-0.0153 0.0961,-0.0465 0.16813,-0.0691 l 0.13088,-0.0412 0.0164,-0.34553 c 0.009,-0.19005 0.005,-0.5499 -0.01,-0.79968 -0.0234,-0.41042 -0.0205,-0.46181 0.0309,-0.53369 0.0753,-0.10532 0.25295,-0.12451 0.33309,-0.0359 0.0506,0.0558 0.0583,0.15672 0.0721,0.93749 0.0132,0.7497 0.008,0.88861 -0.0339,0.97047 -0.0612,0.11823 -0.17759,0.20088 -0.38444,0.27287 -0.30615,0.10655 -0.50805,0.11987 -1.25671,0.0829 -0.61812,-0.0305 -0.77014,-0.0283 -1.11354,0.0162 -0.21873,0.0284 -0.51411,0.0594 -0.65637,0.0689 -0.23197,0.0155 -0.26547,0.0104 -0.32429,-0.0483 z m -3.01537,-0.47539 c -0.0192,-0.0128 -0.0526,-0.0569 -0.0743,-0.0979 -0.0995,-0.18874 0.10832,-0.34031 0.58649,-0.42785 0.27011,-0.0495 0.27045,-0.054 0.0301,-0.40688 -0.0953,-0.13998 -0.17332,-0.26502 -0.17332,-0.27785 0,-0.0128 -0.0435,-0.076 -0.0965,-0.14042 -0.18218,-0.22102 -0.26937,-0.45776 -0.26937,-0.73144 0,-0.2902 0.0223,-0.32231 0.28373,-0.40856 0.21294,-0.0703 0.32054,-0.0448 0.37095,0.0878 0.0435,0.11443 -0.003,0.21394 -0.12835,0.27915 -0.0644,0.0333 -0.0966,0.0738 -0.0961,0.12084 7.2e-4,0.0807 0.0955,0.28715 0.18569,0.40482 0.15756,0.20557 0.46519,0.69641 0.52173,0.83245 0.0759,0.1826 0.0574,0.33153 -0.0582,0.46893 -0.0867,0.10304 -0.18146,0.14111 -0.48195,0.19363 -0.10884,0.019 -0.24797,0.0556 -0.30917,0.0811 -0.12064,0.0504 -0.23604,0.0592 -0.2915,0.0222 z m -1.42916,-0.34549 c -0.13963,-0.081 -0.28422,-0.17475 -0.32132,-0.20848 -0.0672,-0.0611 -0.0676,-0.0609 -0.13132,0.0469 -0.0808,0.13698 -0.35077,0.27689 -0.53423,0.27689 -0.30389,0 -0.54813,-0.23911 -0.65259,-0.63889 -0.0981,-0.37531 -0.0301,-0.60987 0.17661,-0.60987 0.0449,0 0.10625,0.0223 0.13632,0.0495 0.051,0.0461 0.054,0.0404 0.044,-0.0845 -0.009,-0.11082 0.004,-0.14865 0.0743,-0.21896 0.0919,-0.0919 0.30508,-0.14269 0.43416,-0.10342 0.20241,0.0616 0.37825,0.28159 0.42523,0.53199 0.027,0.14395 0.12334,0.27705 0.30498,0.42146 0.16019,0.12734 0.2054,0.13716 0.22828,0.0496 0.019,-0.0724 0.1466,-0.11269 0.26388,-0.0833 0.0599,0.015 0.10296,0.0666 0.16078,0.19296 0.0948,0.20703 0.0799,0.36487 -0.0438,0.46208 -0.13166,0.10357 -0.27966,0.0816 -0.56542,-0.084 z M 197.238,144.4192 c 0.088,-0.11181 0.0788,-0.19839 -0.0406,-0.38326 -0.0899,-0.13922 -0.11435,-0.15803 -0.18701,-0.14364 -0.046,0.009 -0.11399,2.4e-4 -0.15112,-0.0195 -0.0634,-0.0339 -0.0675,-0.0286 -0.0675,0.0865 0,0.18854 0.087,0.44104 0.17609,0.51112 0.0954,0.075 0.18411,0.0582 0.27011,-0.0512 z m 5.99057,0.50112 c -0.1579,-0.0636 -0.17924,-0.24907 -0.0409,-0.35527 0.053,-0.0407 0.2284,-0.18862 0.38974,-0.3287 0.16133,-0.14008 0.38057,-0.32173 0.4872,-0.40367 0.10662,-0.082 0.33525,-0.30781 0.50806,-0.50192 0.17281,-0.19411 0.48619,-0.50639 0.69641,-0.69396 0.21021,-0.18757 0.42541,-0.38996 0.47822,-0.44977 0.18148,-0.20557 0.20759,-0.22531 0.29786,-0.22531 0.11836,0 0.196,0.0896 0.19518,0.22521 -7.2e-4,0.13846 -0.12218,0.27453 -0.70466,0.7901 -0.23917,0.21172 -0.43961,0.39878 -0.44541,0.41569 -0.0281,0.0821 -0.58466,0.64144 -0.84214,0.84646 -0.15992,0.12731 -0.38365,0.31839 -0.49719,0.4246 -0.16515,0.15449 -0.38888,0.29893 -0.4439,0.28656 -0.005,-7.2e-4 -0.0402,-0.0147 -0.0785,-0.0301 z M 186.00638,144.721 c -0.11374,-0.0559 -0.25394,-0.36683 -0.5412,-1.20034 -0.21619,-0.6273 -0.40414,-1.1367 -0.43279,-1.173 -0.005,-0.007 -0.0324,0.0115 -0.0608,0.0398 -0.0656,0.0656 -0.21839,0.0664 -0.28325,0.002 -0.0761,-0.076 -0.0886,-0.17152 -0.0521,-0.39673 0.0183,-0.11305 0.0334,-0.21578 0.0336,-0.22828 1.3e-4,-0.0126 0.0446,-0.0734 0.099,-0.13523 0.0713,-0.0812 0.12493,-0.11245 0.19298,-0.11245 0.20011,0 0.25268,0.0726 0.46854,0.64731 0.0695,0.18501 0.14726,0.38348 0.17282,0.44106 0.0256,0.0576 0.079,0.20491 0.11886,0.3274 0.11563,0.3558 0.3455,1.00981 0.39029,1.11044 l 0.0411,0.0923 0.0702,-0.11892 c 0.1876,-0.31795 0.49843,-1.26503 0.58004,-1.76735 0.0184,-0.11346 0.0564,-0.23158 0.0844,-0.26248 0.0657,-0.0726 0.23946,-0.0728 0.302,-4.7e-4 0.0832,0.0961 0.0851,0.18947 0.0109,0.50898 -0.23913,1.02814 -0.55636,1.78675 -0.89,2.12826 -0.12013,0.12296 -0.20097,0.14903 -0.30446,0.0982 z m 2.11351,0.0109 c -0.25333,-0.0614 -0.49883,-0.37772 -0.60675,-0.78173 -0.0594,-0.22251 -0.055,-0.72797 0.008,-0.94074 0.11171,-0.3763 0.30151,-0.65271 0.49959,-0.72755 0.23611,-0.0892 0.4186,-0.0116 0.60769,0.25832 0.0822,0.11726 0.0674,0.45669 -0.0282,0.64811 -0.10856,0.21752 -0.41699,0.57594 -0.52929,0.61508 -0.0511,0.0178 -0.10091,0.0532 -0.11065,0.0786 -0.0229,0.0596 0.085,0.26968 0.18763,0.36543 0.0761,0.071 0.0879,0.0726 0.25603,0.0351 0.1543,-0.0346 0.18626,-0.0329 0.25732,0.0137 0.095,0.0623 0.11263,0.23838 0.0319,0.31902 -0.0847,0.0847 -0.42216,0.15339 -0.57347,0.11671 z m -0.0188,-1.57107 c 0.14598,-0.18983 0.19596,-0.36954 0.12025,-0.43238 -0.0268,-0.0223 -0.0655,-0.0301 -0.0859,-0.0175 -0.0567,0.035 -0.20965,0.39396 -0.23632,0.55445 -0.0211,0.12652 -0.0182,0.13787 0.0257,0.10151 0.0272,-0.0225 0.10649,-0.11526 0.17634,-0.20608 z m 1.1533,1.34897 c -0.0551,-0.055 -0.0594,-0.0975 -0.0455,-0.45337 0.0225,-0.57768 0.0567,-0.80074 0.13988,-0.91325 0.0968,-0.13094 0.12551,-0.13971 0.49129,-0.15031 0.1842,-0.005 0.37677,-0.0301 0.45738,-0.0589 0.27688,-0.0987 0.43193,-0.0317 0.41183,0.17803 -0.009,0.0917 -0.0322,0.11772 -0.16973,0.18862 -0.15387,0.0794 -0.47222,0.13556 -0.75098,0.13264 l -0.11514,-0.002 -0.02,0.19212 c -0.011,0.10567 -0.02,0.3108 -0.02,0.45581 0,0.26507 -0.0353,0.42099 -0.1054,0.46556 -0.0696,0.0443 -0.21215,0.0257 -0.27352,-0.0358 z m 3.6569,-0.0593 c -0.0612,-0.0495 -0.0714,-0.0948 -0.083,-0.36875 -0.008,-0.17177 -0.0276,-0.4363 -0.045,-0.58783 -0.0637,-0.55614 -0.0325,-0.67322 0.17963,-0.67322 0.10989,0 0.2337,0.11275 0.2337,0.21284 0,0.036 0.008,0.1074 0.0185,0.15857 l 0.0185,0.093 0.20587,-0.20184 c 0.23926,-0.2346 0.32833,-0.27854 0.46941,-0.23159 0.10115,0.0336 0.16975,0.11886 0.32093,0.39853 0.0473,0.0875 0.0965,0.17019 0.10935,0.18376 0.0128,0.0136 0.14788,-0.082 0.30008,-0.21238 0.29628,-0.25383 0.42354,-0.30883 0.53925,-0.23301 0.10877,0.0713 0.13901,0.15885 0.24404,0.70666 0.0959,0.50029 0.0966,0.50997 0.0382,0.58859 -0.0768,0.10333 -0.23331,0.12242 -0.31707,0.0387 -0.0409,-0.0409 -0.0794,-0.16463 -0.11694,-0.3757 -0.0308,-0.17313 -0.0661,-0.3334 -0.0783,-0.35615 -0.0159,-0.0295 -0.0783,0.009 -0.21684,0.13222 -0.10699,0.0955 -0.23729,0.18296 -0.28956,0.19444 -0.18521,0.0407 -0.4335,-0.14638 -0.58284,-0.43908 l -0.066,-0.12939 -0.11008,0.12568 c -0.19808,0.22613 -0.36626,0.3961 -0.39193,0.3961 -0.0139,0 -0.024,0.0967 -0.0227,0.21477 0.003,0.26638 -0.0196,0.33829 -0.12189,0.3849 -0.10964,0.05 -0.15398,0.0462 -0.23551,-0.0198 z m 4.20592,-1.55565 c -0.0583,-0.0235 -0.13454,-0.18403 -0.13454,-0.28328 0,-0.16168 0.41949,-0.69029 0.62012,-0.78145 0.18023,-0.0819 0.47314,-0.0796 0.55704,0.004 0.1318,0.1318 0.0426,0.34997 -0.1429,0.34997 -0.14178,0 -0.26699,0.0498 -0.34297,0.13644 -0.12809,0.14603 -0.24588,0.33871 -0.24588,0.40221 0,0.13411 -0.17045,0.22831 -0.31087,0.17181 z m 9.98277,-0.13778 c -0.0761,-0.076 -0.0771,-0.1154 -0.0185,-0.77947 0.0246,-0.27998 0.0543,-0.62808 0.0658,-0.77357 l 0.021,-0.26452 -0.10576,0.054 c -0.0582,0.0297 -0.23097,0.13802 -0.38398,0.24065 -0.15303,0.10265 -0.28936,0.18662 -0.30298,0.18662 -0.0136,0 -0.10262,0.0512 -0.19778,0.11395 -0.33297,0.21929 -0.44196,0.27338 -0.50839,0.25229 -0.10578,-0.0335 -0.16024,-0.10976 -0.16024,-0.22416 0,-0.0958 0.0206,-0.12182 0.18294,-0.23184 0.10062,-0.0681 0.26884,-0.17194 0.37383,-0.23059 0.10499,-0.0587 0.31462,-0.18596 0.46582,-0.28289 0.60673,-0.38892 0.71172,-0.44667 0.81203,-0.44667 0.0556,0 0.1241,0.009 0.15242,0.0197 0.0705,0.0271 0.15198,0.19321 0.12951,0.264 -0.0101,0.0318 -0.0314,0.24945 -0.0472,0.4836 -0.0416,0.61146 -0.0994,1.33115 -0.11699,1.45354 -0.0297,0.20666 -0.22902,0.29778 -0.36154,0.16526 z"
       id="path1235" />
  </g>
</svg>
