<?xml version="1.0" encoding="UTF-8" standalone="no"?>
<!-- Created with Inkscape (http://www.inkscape.org/) -->

<svg
   width="88.037422"
   height="17.676556"
   viewBox="0 0 11.646617 2.3384608"
   version="1.1"
   id="svg5"
   inkscape:version="1.1.1 (3bf5ae0d25, 2021-09-20)"
   sodipodi:docname="quotes.svg"
   xmlns:inkscape="http://www.inkscape.org/namespaces/inkscape"
   xmlns:sodipodi="http://sodipodi.sourceforge.net/DTD/sodipodi-0.dtd"
   xmlns="http://www.w3.org/2000/svg"
   xmlns:svg="http://www.w3.org/2000/svg">
  <sodipodi:namedview
     id="namedview7"
     pagecolor="#ffffff"
     bordercolor="#666666"
     borderopacity="1.0"
     inkscape:pageshadow="2"
     inkscape:pageopacity="0.0"
     inkscape:pagecheckerboard="0"
     inkscape:document-units="mm"
     showgrid="false"
     inkscape:zoom="1.4289282"
     inkscape:cx="-13.29668"
     inkscape:cy="44.438903"
     inkscape:window-width="1920"
     inkscape:window-height="991"
     inkscape:window-x="-9"
     inkscape:window-y="-9"
     inkscape:window-maximized="1"
     inkscape:current-layer="layer1"
     fit-margin-top="0"
     fit-margin-left="0"
     fit-margin-right="0"
     fit-margin-bottom="0"
     units="px" />
  <defs
     id="defs2" />
  <g
     inkscape:label="Capa 1"
     inkscape:groupmode="layer"
     id="layer1"
     transform="translate(142.54304,41.399961)">
    <path
       style="fill:#000000;fill-opacity:1;stroke-width:0.0110845"
       d="m -132.68793,-39.086628 c -0.0329,-0.03507 -0.0373,-0.0649 -0.0572,-0.395736 -0.0128,-0.212924 -0.0281,-0.339197 -0.0583,-0.482172 -0.0193,-0.09113 -0.0236,-0.151271 -0.0243,-0.338076 l -7.7e-4,-0.22723 0.0298,-0.04309 c 0.0164,-0.0237 0.0419,-0.05114 0.0569,-0.06097 0.0148,-0.0098 0.0531,-0.04865 0.0849,-0.08629 0.071,-0.08406 0.0943,-0.09081 0.32178,-0.09313 0.0884,-9.15e-4 0.19445,-0.0022 0.23568,-0.0028 0.0703,-0.0011 0.0772,0.0011 0.1103,0.03415 0.0478,0.04781 0.0492,0.104565 0.003,0.143883 -0.0264,0.02275 -0.0386,0.02607 -0.0715,0.01955 -0.0219,-0.0043 -0.12591,-0.0068 -0.23136,-0.0057 l -0.19172,0.0022 -0.0841,0.08488 -0.0841,0.08488 0.007,0.188436 c 0.004,0.116998 0.0147,0.228356 0.0281,0.293737 0.0308,0.15133 0.045,0.269771 0.0561,0.469031 0.004,0.09641 0.0123,0.177812 0.0154,0.180891 0.003,0.0031 0.0293,-0.0052 0.0584,-0.01849 0.0414,-0.01883 0.0881,-0.02638 0.21446,-0.0346 0.0889,-0.0058 0.18652,-0.01313 0.21701,-0.01633 0.0304,-0.0031 0.11169,0.002 0.18049,0.01165 0.0687,0.0096 0.15763,0.01749 0.1974,0.01749 h 0.0724 l -0.002,-0.296509 c -0.001,-0.163079 0.002,-0.325179 0.006,-0.36022 0.007,-0.04981 0.004,-0.07225 -0.01,-0.102815 -0.0212,-0.04477 -0.016,-0.07174 0.0239,-0.125125 0.0369,-0.04929 0.0717,-0.06156 0.11888,-0.04188 0.0569,0.02375 0.0666,0.06762 0.0565,0.255412 -0.009,0.176748 -0.009,0.551351 9.9e-4,0.661643 l 0.007,0.07364 -0.0473,0.05134 c -0.0747,0.081 -0.0974,0.08783 -0.24539,0.07401 -0.069,-0.0065 -0.16711,-0.01687 -0.21784,-0.02316 -0.0627,-0.0077 -0.1426,-0.0078 -0.24941,-3.31e-4 -0.23845,0.01685 -0.24019,0.0173 -0.36222,0.09408 -0.0743,0.04677 -0.12885,0.05133 -0.16416,0.01375 z m -7.00952,-0.235914 c -0.0637,-0.01962 -0.0977,-0.05961 -0.0977,-0.115047 0,-0.07703 0.0778,-0.113336 0.152,-0.07083 0.023,0.01317 0.0436,0.01611 0.0736,0.01048 0.023,-0.0042 0.0401,-0.0113 0.0382,-0.01551 -0.004,-0.01026 -0.0742,-0.11983 -0.17196,-0.270969 -0.0438,-0.06785 -0.0909,-0.15301 -0.10438,-0.189243 -0.0226,-0.06059 -0.0235,-0.07127 -0.0112,-0.133064 0.03,-0.145496 0.0975,-0.223313 0.22498,-0.259793 0.16874,-0.04826 0.24315,-0.04129 0.27027,0.02533 0.0299,0.07328 -0.0355,0.138368 -0.13894,0.138368 -0.0962,0 -0.15302,0.04231 -0.17141,0.127833 -0.007,0.03323 0.0212,0.08891 0.12742,0.251122 0.20705,0.315949 0.20413,0.310722 0.20413,0.365703 0,0.07987 -0.0289,0.102792 -0.16471,0.130716 -0.1268,0.02606 -0.15989,0.02677 -0.23085,0.0049 z m 5.7034,-0.02725 c -0.16256,-0.03218 -0.2642,-0.161515 -0.18733,-0.238382 0.0371,-0.03706 0.0817,-0.03509 0.13332,0.0058 0.023,0.0182 0.0598,0.03813 0.0819,0.04428 0.0537,0.01493 0.23421,0.01479 0.23421,-1.75e-4 0,-0.0064 -0.009,-0.02502 -0.0193,-0.04157 -0.0265,-0.04161 -0.17666,-0.231144 -0.22574,-0.285033 -0.071,-0.07803 -0.14847,-0.188861 -0.19068,-0.272953 -0.12075,-0.240638 -0.12736,-0.379605 -0.0226,-0.476752 0.0469,-0.04353 0.0888,-0.06112 0.18321,-0.07695 0.0988,-0.01658 0.20192,-0.0031 0.27929,0.0363 0.0564,0.02878 0.0725,0.04924 0.0731,0.09272 7.6e-4,0.0662 -0.0729,0.110175 -0.13738,0.08207 -0.0482,-0.02106 -0.21523,-0.02611 -0.25023,-0.0076 -0.0242,0.01282 -0.0275,0.02161 -0.0264,0.06994 0.003,0.104053 0.10082,0.280837 0.25264,0.454675 0.20861,0.238774 0.27325,0.3403 0.28065,0.440759 0.006,0.07782 -0.0208,0.127039 -0.0858,0.158894 -0.0437,0.02146 -0.067,0.02439 -0.18844,0.02372 -0.0762,-4.31e-4 -0.15923,-0.0049 -0.1845,-0.0098 z m -6.8045,-0.04192 c -0.10149,-0.02985 -0.16312,-0.07815 -0.21835,-0.171095 -0.0445,-0.07498 -0.0474,-0.08483 -0.0474,-0.16317 0,-0.06805 0.006,-0.09579 0.0312,-0.150903 0.065,-0.140503 0.29583,-0.314149 0.39926,-0.300276 0.0777,0.01048 0.11765,0.07226 0.0896,0.138991 -0.0111,0.0261 -0.0247,0.03626 -0.062,0.04579 -0.0571,0.01463 -0.14858,0.06067 -0.18489,0.09313 -0.0385,0.03446 -0.09,0.12947 -0.0902,0.166299 -1.1e-4,0.04559 0.0536,0.125222 0.0997,0.147347 0.0213,0.01026 0.0677,0.02085 0.10283,0.02351 0.11805,0.0089 0.21293,-0.03608 0.24672,-0.11695 0.0306,-0.07306 0.0188,-0.103484 -0.0541,-0.141436 -0.08,-0.04156 -0.10583,-0.108859 -0.063,-0.163413 0.0273,-0.03473 0.0653,-0.04265 0.1116,-0.02322 0.0332,0.01397 0.0374,0.01315 0.0609,-0.01236 0.0326,-0.03515 0.0717,-0.04461 0.1195,-0.02886 0.0701,0.02315 0.0778,0.04138 0.0791,0.186631 9.9e-4,0.141111 0.0124,0.180144 0.0575,0.200739 0.0505,0.02301 0.10305,0.01505 0.14526,-0.02202 0.0317,-0.02782 0.0454,-0.03304 0.0728,-0.02758 0.0628,0.01256 0.0957,0.0658 0.0746,0.121055 -0.006,0.01509 -0.0278,0.04477 -0.049,0.06593 -0.0838,0.08369 -0.25899,0.08611 -0.37595,0.0051 l -0.0307,-0.02125 -0.0596,0.05441 c -0.0796,0.07277 -0.16943,0.106361 -0.29473,0.110231 -0.0651,0.002 -0.11485,-0.0031 -0.16101,-0.01674 z m -1.71631,-0.142044 c -0.0361,-0.03613 -0.0376,-0.079 -0.004,-0.121441 0.0249,-0.03171 0.0249,-0.03194 0.0223,-0.428196 -0.002,-0.218059 0.002,-0.427667 0.008,-0.465798 0.006,-0.03813 0.0211,-0.161604 0.0339,-0.274388 0.0158,-0.140037 0.0301,-0.21946 0.0447,-0.250466 0.046,-0.09684 0.15243,-0.09188 0.19253,0.0089 0.01,0.02614 0.0344,0.07248 0.0532,0.10296 0.0189,0.03048 0.0589,0.102803 0.0891,0.160724 0.084,0.161245 0.17479,0.310364 0.18915,0.310364 0.007,0 0.0403,-0.03611 0.0737,-0.08025 0.0335,-0.04414 0.0764,-0.09776 0.0953,-0.119158 0.0358,-0.04037 0.0634,-0.09154 0.18544,-0.343729 0.0758,-0.156895 0.1275,-0.226356 0.17739,-0.238881 0.0363,-0.0091 0.0926,0.01242 0.10796,0.04121 0.0358,0.06693 0.057,0.592794 0.0329,0.818405 -0.048,0.449808 -0.0656,0.65214 -0.0637,0.733138 0.002,0.08023 -9.9e-4,0.09955 -0.0187,0.118941 -0.0448,0.04964 -0.14899,0.03521 -0.16893,-0.0234 -0.0165,-0.04872 0.003,-0.310877 0.0627,-0.828681 0.004,-0.04573 0.01,-0.170424 0.01,-0.277111 l 8e-5,-0.193978 -0.0553,0.109528 c -0.0662,0.131111 -0.09,0.165712 -0.21723,0.317225 -0.20786,0.247557 -0.30903,0.226935 -0.49154,-0.100183 -0.0321,-0.05768 -0.0714,-0.127322 -0.0873,-0.154756 l -0.0288,-0.04989 -0.003,0.03879 c -0.002,0.02135 -0.009,0.07121 -0.0162,0.110844 -0.009,0.04825 -0.0134,0.22769 -0.0137,0.543137 -5.3e-4,0.444059 -0.002,0.4731 -0.0218,0.506167 -0.04,0.06627 -0.13621,0.08157 -0.18786,0.02991 z m 7.60795,0.01198 c -0.0457,-0.0077 -0.1016,-0.02077 -0.12421,-0.02891 -0.0642,-0.02316 -0.13668,-0.09078 -0.16986,-0.158592 -0.0258,-0.05284 -0.0293,-0.0716 -0.0255,-0.138833 0.004,-0.09396 0.0293,-0.126396 0.0936,-0.126396 0.0601,0 0.093,0.04264 0.093,0.120589 0,0.103617 0.0667,0.149871 0.21594,0.149871 0.0414,0 0.0521,-0.0049 0.0724,-0.03348 l 0.0238,-0.03348 -0.0501,-0.08567 c -0.069,-0.118116 -0.0977,-0.189146 -0.0939,-0.233187 0.003,-0.03013 -0.002,-0.04034 -0.0243,-0.05261 -0.0152,-0.0084 -0.04,-0.01549 -0.0553,-0.01579 -0.03,-6.09e-4 -0.0905,-0.02033 -0.12999,-0.04238 -0.0309,-0.01721 -0.0473,-0.07479 -0.0332,-0.116138 0.006,-0.01694 0.0255,-0.03859 0.0438,-0.0481 0.0299,-0.01542 0.0383,-0.01551 0.0792,-7.63e-4 0.0252,0.009 0.0701,0.02224 0.0999,0.02923 0.0775,0.01822 0.12995,0.04782 0.19205,0.108336 0.0849,0.08281 0.16947,0.242422 0.16947,0.320129 0,0.02278 0.004,0.02678 0.0216,0.02121 0.0325,-0.01026 0.0852,0.02225 0.0987,0.06087 0.0221,0.06339 -0.0193,0.115938 -0.10149,0.12918 -0.0273,0.0044 -0.0488,0.01641 -0.0609,0.03408 -0.0921,0.133842 -0.17367,0.168184 -0.33469,0.140864 z m -2.8903,-0.0538 c -0.14111,-0.06718 -0.21795,-0.198185 -0.21856,-0.372611 -2.4e-4,-0.08471 0.003,-0.101934 0.0355,-0.166268 0.053,-0.105982 0.20908,-0.286371 0.31114,-0.359508 0.047,-0.03361 0.0894,-0.06577 0.0945,-0.07145 0.0616,-0.06917 0.0745,-0.07864 0.10684,-0.07864 0.0543,0 0.0891,0.04219 0.0888,0.107566 -2.6e-4,0.06753 -0.0138,0.08381 -0.13683,0.164707 -0.1278,0.08407 -0.29044,0.272562 -0.31644,0.366753 -0.0163,0.05887 0.0284,0.177385 0.0816,0.216466 0.0524,0.03844 0.0772,0.0303 0.17655,-0.05786 0.0558,-0.04946 0.0828,-0.06607 0.10762,-0.06607 0.0474,0 0.0877,0.04346 0.0877,0.09474 0,0.03481 -0.01,0.05009 -0.0714,0.111613 -0.077,0.077 -0.15887,0.122098 -0.23997,0.132181 -0.0381,0.0048 -0.0619,-7.8e-5 -0.10717,-0.02162 z m 1.95921,0.0029 c -0.0843,-0.0328 -0.10595,-0.118648 -0.0425,-0.168373 0.0302,-0.0237 0.0363,-0.03727 0.0443,-0.0978 0.0207,-0.161554 0.03,-0.357173 0.0238,-0.504764 l -0.007,-0.157387 -0.1064,9.4e-4 c -0.12265,0.0011 -0.19205,-0.0147 -0.22956,-0.05222 -0.0296,-0.0296 -0.0351,-0.08716 -0.0113,-0.118456 0.0212,-0.02799 0.069,-0.04317 0.0995,-0.03158 0.0278,0.0106 0.0848,0.01443 0.18832,0.01279 0.0646,-9.93e-4 0.0646,-0.0011 0.058,-0.03153 -0.004,-0.01677 -0.002,-0.137035 0.004,-0.267241 0.01,-0.230177 0.01,-0.237591 -0.012,-0.267522 -0.0167,-0.02266 -0.0209,-0.03958 -0.0155,-0.06414 0.0113,-0.0513 0.0443,-0.07444 0.10606,-0.07444 0.0652,0 0.10573,0.03241 0.11593,0.0931 0.004,0.02244 0.002,0.154051 -0.004,0.292468 -0.007,0.138416 -0.009,0.264095 -0.004,0.279282 l 0.007,0.02761 0.13085,-0.007 0.13085,-0.007 0.0287,0.03097 c 0.0355,0.03838 0.037,0.08343 0.004,0.121964 -0.0221,0.02564 -0.037,0.03011 -0.13024,0.03911 -0.058,0.0056 -0.11871,0.01026 -0.13509,0.01048 l -0.0298,3.04e-4 0.001,0.252171 c 9.9e-4,0.264913 -0.0199,0.492123 -0.0544,0.586479 -0.0298,0.08123 -0.0984,0.125329 -0.15872,0.101889 z m -0.91608,-0.08209 c -0.0317,-0.03168 -0.0316,-0.04811 0.002,-0.187832 0.0135,-0.05632 0.0194,-0.138183 0.0215,-0.298619 l 0.003,-0.221027 0.0298,-0.02559 c 0.0598,-0.05146 0.13374,-0.015 0.15101,0.07448 0.0159,0.08263 0.0113,0.284257 -0.01,0.453568 -0.0205,0.159544 -0.0209,0.160294 -0.0606,0.196748 -0.0498,0.04578 -0.0958,0.04857 -0.13609,0.0083 z m 4.51973,-0.231011 c -0.0606,-0.03355 -0.0767,-0.131784 -0.0294,-0.179013 0.0149,-0.01497 0.0384,-0.0272 0.052,-0.0272 0.0361,0 0.0885,-0.04013 0.12034,-0.09201 0.0539,-0.08821 0.39874,-0.431911 0.53269,-0.530947 0.018,-0.01331 0.0571,-0.05309 0.087,-0.08841 0.045,-0.0532 0.0555,-0.07424 0.0617,-0.12258 0.0156,-0.123085 0.0359,-0.152574 0.10539,-0.152574 0.0349,0 0.0889,0.04102 0.0889,0.0675 0,0.0265 0.0826,-0.10635 0.12057,-0.193891 0.006,-0.01327 -0.217,-8.63e-4 -0.23458,0.01308 -0.007,0.0058 -0.0327,0.01685 -0.0562,0.02441 -0.0235,0.0076 -0.0712,0.02982 -0.10583,0.04947 -0.12117,0.06849 -0.17518,0.07702 -0.21779,0.03439 -0.0328,-0.03274 -0.0365,-0.09284 -0.008,-0.125302 0.0162,-0.01832 0.12417,-0.07193 0.30954,-0.153677 0.057,-0.02511 0.14318,-0.03743 0.26208,-0.03743 0.13154,0 0.19147,0.02204 0.23015,0.08461 0.0198,0.03206 0.0226,0.04831 0.0165,0.09474 -0.007,0.05242 -0.0926,0.241763 -0.13939,0.308357 -0.0112,0.01523 -0.0378,0.06225 -0.0601,0.104476 -0.0223,0.04222 -0.0491,0.08322 -0.0596,0.09109 -0.024,0.01829 -0.0934,0.01919 -0.11108,0.0014 -0.0111,-0.01071 -0.0292,0.0028 -0.0881,0.0641 -0.0409,0.04273 -0.11097,0.107443 -0.15545,0.143819 -0.13495,0.11032 -0.36377,0.343549 -0.4183,0.426375 -0.0181,0.02743 -0.0687,0.08604 -0.11232,0.130242 -0.0715,0.07233 -0.0837,0.08032 -0.12193,0.07997 -0.0234,-2.22e-4 -0.0543,-0.007 -0.0689,-0.01508 z m -7.99033,-1.018155 c -0.0564,-0.06051 -0.0367,-0.136552 0.0439,-0.168518 0.0262,-0.01037 0.06,-0.03023 0.0753,-0.04416 0.0153,-0.01392 0.0577,-0.04554 0.0942,-0.07026 0.0366,-0.02474 0.088,-0.06751 0.11431,-0.09504 0.0524,-0.05494 0.0976,-0.07157 0.13722,-0.05047 0.0375,0.02001 0.0525,0.04423 0.053,0.08552 2.7e-4,0.03083 -0.0117,0.0486 -0.0745,0.110844 -0.0696,0.06899 -0.25571,0.212375 -0.2763,0.21293 -0.004,1.29e-4 -0.0216,0.01004 -0.0368,0.02193 -0.0386,0.03016 -0.10082,0.02883 -0.13025,-0.0028 z m 3.45156,-0.04863 c -0.063,-0.06297 -0.0272,-0.170297 0.0568,-0.170297 0.0884,0 0.13996,0.124115 0.0733,0.176546 -0.041,0.03233 -0.0939,0.0298 -0.13,-0.0062 z"
       id="path3343" />
  </g>
</svg>
