<?xml version="1.0" encoding="UTF-8" standalone="no"?>
<!-- Created with Inkscape (http://www.inkscape.org/) -->

<svg
   width="27.559074mm"
   height="11.189235mm"
   viewBox="0 0 27.559073 11.189235"
   version="1.1"
   id="svg5"
   inkscape:version="1.1.1 (3bf5ae0d25, 2021-09-20)"
   sodipodi:docname="parent.svg"
   xmlns:inkscape="http://www.inkscape.org/namespaces/inkscape"
   xmlns:sodipodi="http://sodipodi.sourceforge.net/DTD/sodipodi-0.dtd"
   xmlns="http://www.w3.org/2000/svg"
   xmlns:svg="http://www.w3.org/2000/svg">
  <sodipodi:namedview
     id="namedview7"
     pagecolor="#ffffff"
     bordercolor="#666666"
     borderopacity="1.0"
     inkscape:pageshadow="2"
     inkscape:pageopacity="0.0"
     inkscape:pagecheckerboard="0"
     inkscape:document-units="mm"
     showgrid="false"
     fit-margin-top="0"
     fit-margin-left="0"
     fit-margin-right="0"
     fit-margin-bottom="0"
     inkscape:zoom="1.0104048"
     inkscape:cx="-58.392438"
     inkscape:cy="-19.299196"
     inkscape:window-width="1920"
     inkscape:window-height="991"
     inkscape:window-x="-9"
     inkscape:window-y="-9"
     inkscape:window-maximized="1"
     inkscape:current-layer="layer1" />
  <defs
     id="defs2" />
  <g
     inkscape:label="Capa 1"
     inkscape:groupmode="layer"
     id="layer1"
     transform="translate(-0.16165056,2.9338571)">
    <path
       style="fill:#000000;stroke-width:0.025281"
       d="M 9.5244829,8.1973241 C 9.4877526,8.1653003 9.4284517,8.0575838 9.3887821,7.9508338 9.3500267,7.8465501 9.2548649,7.6474621 9.1773067,7.5084163 8.7710031,6.7799948 8.69304,6.6446606 8.6530064,6.5982998 8.6289947,6.5704903 8.5792184,6.496544 8.5423972,6.4339732 8.4485811,6.2745505 8.3941512,6.2167195 8.3220383,6.1998446 8.2877244,6.1918133 8.2368962,6.1783312 8.2090874,6.1698837 8.1643448,6.1562881 8.1462068,6.1873403 8.0515377,6.439614 7.9926948,6.5964148 7.9169669,6.8100295 7.8832541,6.914314 7.8495395,7.0185978 7.7798548,7.2119976 7.728394,7.344091 7.6769325,7.4761843 7.6235606,7.6240782 7.6097884,7.6727443 7.5819346,7.7711596 7.4061114,8.0141093 7.3460622,8.0371525 7.2547974,8.0721731 7.1314235,8.0510383 7.0702931,7.9899053 6.991051,7.910664 6.9855724,7.7452629 7.0585333,7.6348222 7.0860905,7.593108 7.1200701,7.5419146 7.1340398,7.5210575 7.1665684,7.4724981 7.385858,6.8909787 7.4772407,6.610941 7.5158069,6.4927523 7.6023969,6.2595391 7.6696583,6.0926896 7.7369204,5.92584 7.7919527,5.7797238 7.7919527,5.7679875 c 0,-0.011735 0.036976,-0.083247 0.082163,-0.1589118 0.057468,-0.096218 0.1100692,-0.149902 0.1749996,-0.1785941 l 0.092835,-0.04102 -0.011507,-0.2804144 C 8.1167841,4.7763912 8.0853217,4.3431355 8.0283847,3.7036268 7.9972379,3.3537991 7.9749422,3.2148574 7.9399116,3.1523201 7.9141527,3.1063347 7.8930805,3.047565 7.8930805,3.0217194 c 0,-0.025848 -0.046572,-0.083881 -0.103499,-0.1289654 C 7.6503096,2.7824477 7.4876069,2.620528 7.4230771,2.5280121 7.3044406,2.3579235 7.0818963,1.9042043 7.0433977,1.7539275 6.9999987,1.5845203 7.0084837,1.2758933 7.0625137,1.0587569 7.0862597,0.96331693 7.0830547,0.94925881 7.0240797,0.89028719 6.8728835,0.73909062 6.9233091,0.57685722 7.2104469,0.29069042 c 0.1889697,-0.1883306 0.456584,-0.3643848 0.7215764,-0.4747 0.1549775,-0.064518 0.771366,-0.099861 0.9975789,-0.057202 0.1878002,0.035411 0.6654962,0.2764095 0.8353707,0.4214393 0.075872,0.064774 0.1799689,0.1443067 0.2313269,0.1767375 0.1328602,0.083896 0.2559742,0.2133844 0.3118742,0.3280229 0.06854,0.1405555 0.08348,0.62209618 0.02623,0.84554388 C 10.288263,1.7106487 10.123161,2.0307175 9.9343973,2.3059984 9.7137677,2.6277492 9.4077211,2.8593587 9.1244721,2.9189314 8.9744168,2.9504884 8.6473318,3.0354343 8.54198,3.0702032 l -0.088795,0.029305 0.013886,0.1440531 c 0.045581,0.4728628 0.035475,0.4390056 0.1420564,0.4758513 0.053165,0.018378 0.2238117,0.1225815 0.3792151,0.2315597 0.1582511,0.1109756 0.3637595,0.2300518 0.4671494,0.2706772 0.2522627,0.099123 0.4345918,0.2802864 0.4347078,0.431929 C 9.8902758,4.7641547 9.8288275,4.844873 9.7192345,4.8781176 9.642156,4.9014981 9.5062338,4.8536579 9.4353404,4.7781975 9.4035057,4.7443125 9.2913547,4.680743 9.1861107,4.6369297 9.0808667,4.5931146 8.911064,4.495375 8.8087712,4.4197258 8.5531665,4.2306968 8.5581032,4.2310147 8.568145,4.4042502 c 0.00466,0.08046 0.02528,0.4165435 0.045815,0.7468529 l 0.037336,0.6005627 0.088569,0.1199463 c 0.1997572,0.2705239 0.3913616,0.56767 0.5187005,0.8044156 0.074232,0.1380099 0.1641494,0.2964333 0.1998179,0.3520517 0.2110237,0.3290514 0.4640713,0.8638882 0.4640713,0.9808516 0,0.2079544 -0.2433888,0.3231728 -0.3979682,0.1883951 z M 8.6285001,2.5426859 C 8.731533,2.5159682 8.8827239,2.4763904 8.9644819,2.4547309 9.1426105,2.4075408 9.330307,2.2919612 9.443417,2.1598173 9.5509139,2.0342316 9.789947,1.6292182 9.844074,1.4809527 9.87083,1.4076528 9.887075,1.28296 9.888318,1.141315 L 9.8902695,0.91750002 9.795466,0.82896482 C 9.5808741,0.62855842 9.3330609,0.45407702 9.1068315,0.34410392 l -0.2399013,-0.1166189 -0.346903,0.0072 c -0.3553739,0.00738 -0.4397267,0.02591 -0.6206255,0.13636 -0.077148,0.047102 -0.079844,0.053461 -0.044244,0.1042907 0.020851,0.029771 0.037916,0.095443 0.037916,0.1459376 0,0.092686 -0.00341,0.097536 -0.2022915,0.28879758 -0.04338,0.0417148 -0.095293,0.1066585 -0.1153654,0.1443219 -0.058597,0.1099435 -0.09439,0.4341112 -0.063724,0.5770981 0.03533,0.1647266 0.2778208,0.5937939 0.4066928,0.719601 0.093071,0.090858 0.1165615,0.101149 0.2314519,0.1013975 0.1081183,2.36e-4 0.1362344,0.010731 0.1820419,0.067946 0.066026,0.082471 0.06474,0.082374 0.2966207,0.02225 z M 8.3607736,1.9197071 C 8.244889,1.8597854 8.0740787,1.6812328 8.0566258,1.6017688 8.0480494,1.5627294 8.0020544,1.4918088 7.9544151,1.4441674 7.8583561,1.3481084 7.8449795,1.2676911 7.9055715,1.1505208 7.9627235,1.0399993 8.0396086,0.9985557 8.1874925,0.9985557 c 0.1057323,0 0.1472561,0.0132738 0.2120393,0.0677861 0.074326,0.06254 0.079654,0.077209 0.068854,0.1895931 -0.016586,0.1725994 0.014119,0.1907936 0.2278595,0.1350149 C 8.8952695,1.3390086 9.1607338,1.2945023 9.2766246,1.2936393 9.427738,1.2925023 9.534209,1.4459135 9.4852598,1.5942307 9.4462649,1.7123922 9.3704814,1.7510624 9.0492965,1.8166968 8.8930817,1.8486194 8.7288611,1.8937505 8.6843621,1.9169864 8.5833437,1.9697351 8.4595415,1.9707763 8.3607736,1.919699 Z M 9.0335029,1.1908048 c -0.1748487,-0.096911 -0.169435,-0.37092528 0.009,-0.45559928 0.1830723,-0.086873 0.4432736,0.05948 0.4432736,0.24931928 0,0.1439534 -0.1097473,0.2418394 -0.2698262,0.240664 C 9.1488343,1.2247006 9.0667315,1.2092212 9.0335004,1.1908048 Z M 4.3272242,7.6194374 C 4.2653278,7.5623106 4.1890902,7.4928574 4.1578051,7.4650977 4.1186143,7.4303232 4.1008296,7.3859655 4.1006215,7.3224755 4.100436,7.2698911 4.0721747,7.1814791 4.0347706,7.1165607 3.9761865,7.01488 3.861293,6.7306859 3.6463899,6.1558824 3.5421705,5.877126 3.5249056,5.8342938 3.4272971,5.6123406 3.1856912,5.0629479 3.1613295,5.0264 3.0545902,5.0531893 2.988258,5.0698382 2.4542799,5.6231136 2.2099523,5.9283528 1.4972077,6.8187862 1.0363393,7.2818306 0.69614459,7.4493078 c -0.17525622,0.086279 -0.30577422,0.089181 -0.42737782,0.0095 -0.2001365,-0.1311294 -0.1008222,-0.443372 0.1410097,-0.443372 0.20146012,0 0.47634028,-0.2556155 1.18277603,-1.0998813 0.1629564,-0.1947486 0.3396119,-0.40794 0.3925672,-0.4737567 0.125582,-0.1560822 0.714978,-0.7467141 0.8263233,-0.828057 0.071429,-0.052181 0.1153534,-0.063192 0.2519008,-0.06314 0.090963,2.52e-5 0.1966723,0.0098 0.2349097,0.021703 l 0.069523,0.02164 -0.0012,-0.2871523 C 3.3658827,4.1488568 3.3547228,3.9058742 3.3417328,3.7668285 3.3287428,3.6277827 3.3070716,3.3547479 3.2935839,3.1600843 3.247289,2.4921032 3.2379078,2.4142946 3.2037077,2.4142946 c -0.017835,0 -0.084532,0.036976 -0.1482094,0.082163 -0.063677,0.04519 -0.1846508,0.1310972 -0.2688307,0.1909047 -0.084181,0.059808 -0.26374,0.1662943 -0.3990212,0.2366371 C 2.2523645,2.9943412 2.10755,3.0774853 2.0658363,3.108764 2.0241224,3.1400439 1.9168049,3.2025751 1.8273527,3.2477252 1.686189,3.3189759 1.6452898,3.3284117 1.5176348,3.3191782 1.3328371,3.3058095 1.2189222,3.2137797 1.2189222,3.0778492 c 0,-0.1628945 0.078459,-0.2347185 0.2705466,-0.2476687 0.074405,-0.00505 0.1528956,-0.035734 0.2421088,-0.094747 C 1.8041836,2.6874041 1.9773531,2.5903258 2.1163982,2.519703 2.3554143,2.3983046 2.4479945,2.3394327 2.7124683,2.1406626 2.7739546,2.0944501 2.8890462,2.0221 2.9682213,1.979886 3.2089453,1.8515389 3.2031582,1.8680688 3.154253,1.4485556 3.1310743,1.2497226 3.1063745,1.0673532 3.0993656,1.04329 3.0922216,1.0187424 2.9921324,0.95525972 2.8713401,0.8986545 2.6197838,0.78077122 2.3457836,0.53415472 2.1658936,0.26371102 2.0367856,0.06961222 2.0197157,0.02841082 1.9378221,-0.28678128 1.8582215,-0.59314788 1.8530873,-0.99929358 1.9254695,-1.2640929 2.0597974,-1.7555185 2.420243,-2.3988383 2.7035009,-2.6527137 2.8569983,-2.7902901 2.9455238,-2.8352094 3.182699,-2.8958686 c 0.1713069,-0.043815 0.2282545,-0.046376 0.5483884,-0.02468 0.1964774,0.013318 0.4448312,0.029904 0.551898,0.036863 0.2407365,0.015646 0.3037275,0.03051 0.4596766,0.1084768 0.2139693,0.1069707 0.4335403,0.3426563 0.5719103,0.6138851 0.1407907,0.2759722 0.2463357,0.8789007 0.2187925,1.24985702 -0.040093,0.5399969 -0.09809,0.7967112 -0.2583744,1.1436856 -0.12504,0.2706803 -0.2300241,0.4104737 -0.3857039,0.5135916 -0.173101,0.11465749 -0.9901086,0.35387178 -1.2086058,0.35387178 -0.08479,0 -0.087193,0.00265 -0.0741,0.082164 0.016025,0.09729 0.063403,0.5101124 0.089219,0.7773911 0.010075,0.1042844 0.020031,0.1604675 0.022131,0.1248521 0.00794,-0.1347854 0.1704198,-0.2388977 0.3292685,-0.2109879 0.091948,0.016157 0.3037522,0.1354075 0.3797521,0.2138116 0.022321,0.023027 0.1031557,0.082236 0.1796306,0.1315734 0.076475,0.049335 0.2538055,0.1903686 0.3940682,0.313403 0.1402623,0.1230347 0.3328514,0.2805817 0.4279748,0.3501042 0.230178,0.1682287 0.3212555,0.2843966 0.324656,0.4140912 0.00303,0.114484 -0.071186,0.2153075 -0.1781898,0.2421638 -0.081048,0.02034 -0.2680244,-0.0682 -0.3361098,-0.1591623 C 5.1668993,3.2827837 5.1518053,3.268438 5.0484571,3.1980064 4.9974498,3.1632445 4.8288117,3.026321 4.6737055,2.8937305 4.5185992,2.7611402 4.3282566,2.6111069 4.2507231,2.560323 4.173189,2.5095429 4.0950049,2.4502192 4.0769805,2.4285016 c -0.018025,-0.021715 -0.062975,-0.039487 -0.099894,-0.039487 -0.083931,0 -0.1687934,-0.058244 -0.2345118,-0.1609565 l -0.050679,-0.079213 0.013558,0.1643266 c 0.00746,0.09038 0.026251,0.3349736 0.041771,0.5435417 0.01552,0.2085683 0.044579,0.5558246 0.064574,0.7716797 0.048591,0.5244814 0.049033,1.3864177 7.571e-4,1.5019212 -0.033576,0.080354 -0.030655,0.096386 0.051695,0.2835997 0.048004,0.109136 0.1214869,0.2894418 0.1632907,0.400678 0.041803,0.1112362 0.1094319,0.2818831 0.1502844,0.3792152 0.04085,0.097332 0.1019729,0.2588941 0.1358231,0.359028 0.066703,0.1973157 0.1891885,0.4314602 0.3608821,0.6898642 0.1343182,0.2021521 0.1426894,0.2991284 0.035109,0.4067105 -0.1134923,0.1134923 -0.23748,0.1037753 -0.3823873,-0.029967 z M 3.8733934,0.57859722 c 0.1042844,-0.022763 0.3147492,-0.082568 0.4676991,-0.1328945 0.3578128,-0.117735 0.3892569,-0.1493488 0.5690769,-0.572152 0.046314,-0.1088943 0.073871,-0.2399915 0.1142563,-0.5435418 C 5.1156367,-1.3555621 4.9723967,-1.9617794 4.6508942,-2.2508376 4.5154079,-2.3726512 4.5050292,-2.3756593 4.0756415,-2.4175534 c -0.5339896,-0.052099 -0.6205538,-0.053247 -0.7879573,-0.010448 -0.1280871,0.032749 -0.183669,0.064128 -0.2781085,0.1570229 -0.1152221,0.1133371 -0.1179267,0.1195721 -0.1137647,0.2622681 0.0036,0.1232679 -0.00536,0.1564141 -0.057026,0.2115442 -0.033709,0.035954 -0.084904,0.065549 -0.1137648,0.065761 -0.028863,2.189e-4 -0.066219,0.00912 -0.083016,0.019797 -0.043077,0.02738 -0.2057685,0.392303 -0.2491521,0.5588649 -0.08063,0.30955762 -0.016819,0.82820522 0.1340391,1.08949732 0.086603,0.1499993 0.3989076,0.4717973 0.4768664,0.4913637 0.042509,0.010669 0.078445,-3.539e-4 0.1163975,-0.035715 0.1121466,-0.1044814 0.3138224,-0.04656 0.3763509,0.108088 0.054912,0.1358137 0.08448,0.1419415 0.3768866,0.078109 z m -0.7837289,-0.6872788 c -0.1564533,-0.075773 -0.1505506,-0.3429309 0.0099,-0.448062 0.06558,-0.04297 0.079397,-0.042875 0.4325365,0.0029 0.069523,0.00902 0.2193381,0.00195 0.3329231,-0.015715 l 0.2065192,-0.032106 0.1853372,-0.2126092 C 4.5058779,-1.0999113 4.5971604,-1.1451459 4.75738,-1.0622933 c 0.09261,0.04789 0.1400247,0.17844902 0.1015551,0.27963332 -0.014971,0.039374 -0.1120115,0.1603401 -0.2156474,0.2688149 -0.1036366,0.1084748 -0.1884297,0.2082491 -0.1884297,0.2217198 0,0.046635 -0.2156008,0.1502604 -0.3792152,0.1822634 -0.2402407,0.046989 -0.8897792,0.047765 -0.9859776,0.0012 z M 2.8388116,-1.0388129 c -0.063026,-0.053033 -0.077782,-0.08467 -0.077782,-0.1667443 0,-0.1293219 0.066735,-0.2233771 0.2068188,-0.2914877 0.1601463,-0.077864 0.1885622,-0.08361 0.2711403,-0.054824 0.2367053,0.082517 0.1856318,0.4080726 -0.083169,0.5301399 -0.1422444,0.064595 -0.2252528,0.060124 -0.3170081,-0.017084 z M 4.014723,-1.2629182 c -0.07196,-0.019324 -0.1434374,-0.058445 -0.1700848,-0.093097 -0.066472,-0.086433 -0.060306,-0.2311881 0.013507,-0.3169995 0.059279,-0.068915 0.066481,-0.070447 0.3312602,-0.070447 0.2647796,0 0.2719825,0.00151 0.3312607,0.070447 0.1161767,0.1350635 0.066648,0.3029099 -0.1170353,0.3966182 -0.1126677,0.05748 -0.2122148,0.060931 -0.3889088,0.013482 z M 25.206521,6.2565859 C 24.745934,6.1572546 24.328955,5.8596025 24.061024,5.4388945 23.944689,5.2562247 23.922073,5.1861212 23.896771,4.9297531 23.852831,4.4845521 24.008033,3.9779077 24.3326,3.5070088 c 0.295151,-0.4282231 0.712388,-0.6213006 1.24266,-0.5750439 0.113223,0.00987 0.242219,0.03808 0.293259,0.064119 0.460241,0.2347969 0.601712,0.9005814 0.275422,1.2961705 -0.115992,0.1406255 -0.413597,0.3195516 -0.667922,0.401567 -0.101968,0.032881 -0.553654,0.095148 -0.695228,0.095838 -0.06957,3.369e-4 -0.166996,-0.024226 -0.250802,-0.063236 -0.149652,-0.069662 -0.184228,-0.056496 -0.165662,0.063094 0.0055,0.035418 0.01664,0.1155875 0.02477,0.1781577 0.02378,0.1831838 0.165552,0.3798416 0.419088,0.5813338 0.262235,0.2084049 0.500244,0.2759628 0.977059,0.2773325 0.170073,4.883e-4 0.391915,-0.011046 0.49298,-0.025633 0.408567,-0.058963 0.81131,-0.2389134 1.014406,-0.453241 0.07865,-0.082994 0.113547,-0.1017016 0.189739,-0.1017016 0.241957,0 0.321259,0.2677481 0.136717,0.4616047 -0.190566,0.2001857 -0.66414,0.4513748 -0.980138,0.5198791 -0.431508,0.093545 -1.073709,0.1066976 -1.432424,0.029336 z m 0.231576,-2.0695453 c 0.104285,-0.044415 0.235114,-0.1190326 0.290732,-0.1658105 0.09869,-0.083001 0.101114,-0.088949 0.100717,-0.2467041 -3.37e-4,-0.1303143 -0.01176,-0.1761375 -0.059,-0.2363627 -0.08525,-0.1086874 -0.149489,-0.1360112 -0.322108,-0.1370156 -0.297011,-0.0017 -0.520264,0.1066756 -0.688385,0.3342544 -0.112423,0.1521789 -0.257349,0.4012495 -0.257349,0.4422761 0,0.015154 0.034,0.035014 0.07555,0.044144 0.04156,0.00913 0.08289,0.028466 0.09186,0.042983 0.01047,0.016939 0.116931,0.022201 0.297341,0.014694 0.244472,-0.010176 0.3057,-0.022201 0.470642,-0.092455 z M 14.908555,6.1461194 C 14.80123,6.0993265 14.762796,6.0130961 14.776576,5.8499972 c 0.012,-0.1419775 -0.03988,-0.6190824 -0.08618,-0.7924649 -0.05669,-0.2123573 -0.219242,-1.328523 -0.278169,-1.9100909 -0.0468,-0.4618362 -0.04747,-2.0538135 -9.85e-4,-2.35113368 0.064,-0.4094719 0.155009,-0.8277276 0.205955,-0.9465818 0.02815,-0.065677 0.05118,-0.1292361 0.05118,-0.1412431 0,-0.058376 0.199574,-0.3509281 0.343421,-0.5034136 0.116899,-0.1239183 0.205272,-0.1909924 0.319869,-0.24277372 0.144176,-0.065148 0.184355,-0.071572 0.449075,-0.071793 0.29028,-2.359e-4 0.291007,-9.07e-5 0.467698,0.097437 0.358867,0.19808292 0.671004,0.49843082 0.815278,0.78448722 0.18218,0.3612178 0.305908,0.9388231 0.270769,1.26405078 -0.04231,0.3916297 -0.299251,0.5551223 -0.777752,0.4948927 -0.129037,-0.016239 -0.38202,-0.030339 -0.562185,-0.031317 -0.38898,-0.00215 -0.495062,0.032365 -0.660063,0.2146293 -0.119206,0.1316809 -0.203419,0.1631956 -0.313853,0.1174531 -0.07703,-0.03191 -0.150003,-0.1372136 -0.150003,-0.2164878 0,-0.1519246 0.238619,-0.4075426 0.475416,-0.5092827 0.185235,-0.079586 0.495507,-0.1080654 0.889759,-0.081667 0.201615,0.013501 0.407685,0.030945 0.457932,0.038768 0.151365,0.023558 0.18357,-0.031109 0.162256,-0.27544048 -0.01834,-0.2103341 -0.134409,-0.6424441 -0.210876,-0.7851149 -0.112196,-0.2093341 -0.392392,-0.4735884 -0.629515,-0.5936999 -0.185883,-0.094157 -0.452063,-0.062048 -0.60599,0.073104 -0.284967,0.2502042 -0.455054,0.7422637 -0.541587,1.56680978 -0.04109,0.3915623 -0.04241,1.2284737 -0.0028,1.7696711 0.0319,0.4356272 0.13931,1.3186276 0.18144,1.4915797 0.01185,0.048666 0.03454,0.1851832 0.05041,0.3033719 0.01587,0.1181891 0.03929,0.2490182 0.05204,0.2907318 0.03311,0.1083234 0.127054,0.7756517 0.131159,0.9316639 0.0042,0.1576803 -0.05321,0.260147 -0.173859,0.310555 -0.09893,0.041336 -0.10179,0.041324 -0.197892,-5.728e-4 z m 5.154883,-0.1021413 c -0.09861,-0.042931 -0.412584,-0.3530353 -0.47221,-0.4663944 -0.04388,-0.083402 -0.04783,-0.085034 -0.176623,-0.07266 -0.230068,0.022106 -0.448757,-0.068352 -0.699984,-0.2895434 -0.07577,-0.066715 -0.146344,-0.1213007 -0.156823,-0.1213007 -0.01047,0 -0.04069,0.048925 -0.06714,0.108729 -0.07048,0.159342 -0.188395,0.280692 -0.349165,0.3593499 -0.130939,0.064062 -0.15941,0.068501 -0.3644,0.056811 C 17.435353,5.5994875 17.25953,5.4946967 17.010064,5.1618316 16.811923,4.8974506 16.716152,4.693966 16.716152,4.5373607 c 0,-0.1278494 0.0549,-0.277557 0.101772,-0.277557 0.04278,0 0.02685,-0.046049 -0.03858,-0.1114659 -0.04736,-0.047354 -0.0632,-0.089831 -0.0632,-0.1693901 0,-0.090947 0.01448,-0.1199545 0.100832,-0.2021074 0.169992,-0.1617091 0.697728,-0.3750967 0.930624,-0.3762922 0.0713,-3.704e-4 0.189271,0.058364 0.313781,0.156202 0.10474,0.082306 0.373444,0.5591292 0.424685,0.753616 0.03812,0.1446884 0.03586,0.1421706 0.346948,0.3876067 0.393502,0.3104635 0.409183,0.3202619 0.512557,0.3202619 h 0.09385 l 0.01405,-0.1360516 c 0.01632,-0.158161 0.179156,-0.5193088 0.287611,-0.6378999 0.10881,-0.1189766 0.335739,-0.3005694 0.496838,-0.3975784 0.106968,-0.064412 0.186512,-0.091185 0.310303,-0.1044422 l 0.166461,-0.017829 -0.01411,-0.1178517 c -0.0078,-0.064818 -0.02098,-0.1974867 -0.0294,-0.2948188 -0.02192,-0.2536963 -0.08228,-0.7229674 -0.12518,-0.973238 -0.07686,-0.4483611 -0.113161,-0.7045588 -0.139728,-0.9860401 -0.01509,-0.1599028 -0.03806,-0.3305491 -0.05105,-0.37921509 -0.01298,-0.0486664 -0.02367,-0.17563979 -0.02375,-0.28216449 -1.26e-4,-0.1853131 0.0032,-0.1965076 0.07764,-0.2591301 0.160056,-0.1346787 0.345354,-0.045304 0.39856,0.1922396 0.01653,0.073791 0.04733,0.32556889 0.06844,0.55950518 0.03616,0.400666 0.108977,0.9357557 0.163398,1.20074 0.06277,0.3056517 0.131559,1.0755111 0.144279,1.6147995 0.01255,0.532013 0.0086,0.6152126 -0.04223,0.8974761 -0.0556,0.3085791 -0.142803,0.581853 -0.240948,0.7551112 -0.188767,0.3332348 -0.566283,0.5100593 -0.837181,0.3921263 z m 0.340641,-0.5302087 c 0.03306,-0.029216 0.09107,-0.1214559 0.128915,-0.2049836 0.0871,-0.1922345 0.182975,-0.7045007 0.172675,-0.9225746 -0.0069,-0.1467917 -0.01365,-0.1651645 -0.06293,-0.1721806 -0.03035,-0.00429 -0.09291,0.011621 -0.139045,0.035425 -0.118466,0.061133 -0.414363,0.3086744 -0.446258,0.3733335 -0.171761,0.3482101 -0.181765,0.4641855 -0.05861,0.6794375 0.09861,0.1723496 0.238222,0.302397 0.300893,0.2802781 0.02434,-0.00859 0.07131,-0.039525 0.104366,-0.068736 z M 17.916427,5.1403011 c 0.09811,-0.044705 0.164343,-0.1718873 0.171385,-0.3291114 0.0057,-0.1283408 -0.0029,-0.1511254 -0.132275,-0.3481831 -0.122651,-0.1868273 -0.138663,-0.226329 -0.140511,-0.3466361 -0.003,-0.1917765 -0.045,-0.2290223 -0.214475,-0.1899054 -0.07073,0.016321 -0.190672,0.05808 -0.266559,0.092792 -0.136881,0.062609 -0.137584,0.063503 -0.08859,0.1124987 0.08443,0.084432 0.0923,0.2127914 0.02049,0.3343836 l -0.06251,0.1058427 0.05156,0.090402 c 0.02836,0.04972 0.112405,0.1669296 0.186774,0.2604638 0.111767,0.1405662 0.155939,0.1764346 0.254687,0.2068068 0.150371,0.04625 0.142694,0.045878 0.220023,0.010643 z m 4.027936,0.3211445 c -0.07126,-0.071261 -0.129198,-0.2383532 -0.10674,-0.3078373 0.0083,-0.025791 0.02704,-0.071766 0.04157,-0.1021722 0.01903,-0.039846 0.01439,-0.1563327 -0.01663,-0.4171365 -0.08646,-0.7268652 -0.09432,-0.8201091 -0.08371,-0.9938783 0.01387,-0.22717 0.0835,-0.3688118 0.211072,-0.4293498 0.08858,-0.042036 0.10203,-0.042131 0.247168,-0.00176 0.08442,0.023469 0.267518,0.1032864 0.406885,0.1773671 0.223399,0.1187488 0.460597,0.2087828 0.847498,0.3216864 0.194033,0.056622 0.246345,0.2657873 0.102461,0.4096719 -0.07919,0.079195 -0.27271,0.060211 -0.61072,-0.059909 -0.158455,-0.056313 -0.387641,-0.1530724 -0.509305,-0.2150193 l -0.221209,-0.1126317 8.2e-4,0.094023 c 4.55e-4,0.051714 0.01211,0.1736575 0.02591,0.2709896 0.06461,0.4559569 0.08449,0.6808066 0.08572,0.9691084 l 0.0013,0.3118029 -0.08256,0.073732 c -0.108616,0.096966 -0.249234,0.1016555 -0.339567,0.011324 z M 7.5980135,4.6780106 C 7.5120127,4.640599 7.4632975,4.572547 7.4632975,4.4898162 c 0,-0.033197 -0.0515,-0.089693 -0.1453659,-0.1594871 C 7.2379805,4.2708806 7.1270603,4.178911 7.0714419,4.1259455 7.0158229,4.0729825 6.9298997,4.0083972 6.8805,3.9824286 6.6558106,3.8643126 6.325652,3.4509696 6.325652,3.2877855 c 0,-0.095451 0.1253202,-0.2161869 0.2243947,-0.2161869 0.1151944,0 0.2005724,0.049076 0.2604557,0.1497071 0.072175,0.1212863 0.2406527,0.2960364 0.3494227,0.3624291 0.048666,0.029702 0.1624309,0.1181388 0.2528105,0.1965184 0.09038,0.078379 0.2179452,0.1801524 0.2834786,0.226163 0.1416785,0.09947 0.2376175,0.2313761 0.2606563,0.3583764 0.02328,0.1283275 -0.046547,0.2696022 -0.1558235,0.3152608 -0.1002821,0.041897 -0.1020549,0.041885 -0.2030335,-0.00202 z"
       id="path2848" />
  </g>
</svg>
