<?xml version="1.0" encoding="UTF-8" standalone="no"?>
<!-- Created with Inkscape (http://www.inkscape.org/) -->

<svg
   width="21.872mm"
   height="19.049999mm"
   viewBox="0 0 21.872 19.049999"
   version="1.1"
   id="svg5"
   sodipodi:docname="en_selected.svg"
   inkscape:version="1.1.1 (3bf5ae0d25, 2021-09-20)"
   xmlns:inkscape="http://www.inkscape.org/namespaces/inkscape"
   xmlns:sodipodi="http://sodipodi.sourceforge.net/DTD/sodipodi-0.dtd"
   xmlns="http://www.w3.org/2000/svg"
   xmlns:svg="http://www.w3.org/2000/svg">
  <sodipodi:namedview
     id="namedview7"
     pagecolor="#ffffff"
     bordercolor="#666666"
     borderopacity="1.0"
     inkscape:pageshadow="2"
     inkscape:pageopacity="0.0"
     inkscape:pagecheckerboard="0"
     inkscape:document-units="mm"
     showgrid="false"
     inkscape:zoom="5"
     inkscape:cx="71.8"
     inkscape:cy="25.7"
     inkscape:window-width="1920"
     inkscape:window-height="991"
     inkscape:window-x="-9"
     inkscape:window-y="-9"
     inkscape:window-maximized="1"
     inkscape:current-layer="layer1" />
  <defs
     id="defs2" />
  <g
     inkscape:label="Capa 1"
     inkscape:groupmode="layer"
     id="layer1">
    <path
       style="fill:#414141;stroke-width:0.352778;fill-opacity:1"
       d="m 3.8805553,17.471558 c 0,-1.185662 2.0947612,-1.733757 6.7027777,-1.753783 5.13302,-0.02231 6.599117,0.136417 7.126195,0.771507 0.657446,0.792174 0.09727,0.864248 -3.437178,0.442242 -3.691873,-0.440802 -7.1674426,-0.212196 -8.6985814,0.57215 -1.2223421,0.626161 -1.6932133,0.617229 -1.6932133,-0.03212 z M 15.084692,10.934855 13.229166,8.060969 13.007463,9.8156235 c -0.258541,2.0462035 -0.498472,2.5315985 -1.251373,2.5315985 -0.411915,0 -0.484209,-0.198731 -0.288747,-0.79375 0.143409,-0.436563 0.336516,-2.0925327 0.429128,-3.6799331 0.211017,-3.6169299 0.76347,-4.0116988 1.983677,-1.4174865 0.474508,1.0088238 1.415004,2.6911405 2.089991,3.7384816 l 1.227249,1.904257 0.148799,-3.4021673 c 0.151341,-3.460293 0.659307,-4.8606439 1.362018,-3.7547862 0.18391,0.2894199 0.234827,0.7643428 0.113149,1.0553844 -0.121678,0.2910417 -0.318448,2.1150057 -0.437266,4.0532541 -0.288212,4.701511 -0.754215,4.82642 -3.299396,0.884379 z M 4.777763,12.570944 C 3.2011968,10.994378 3.1542034,5.7442492 4.7036289,4.2886395 5.6544048,3.3954317 8.023021,2.3716453 8.4821948,2.6554305 9.1307481,3.0562584 8.8090324,3.5226592 7.5094383,4.0656642 5.6322126,4.8500193 4.9389197,5.5997342 4.9386692,6.8456482 4.9384522,7.9269688 4.9546147,7.9365443 6.6143635,7.8384495 7.5361161,7.7839721 8.5090531,7.8852857 8.7764456,8.0635912 9.4573459,8.5176356 8.9048772,9.2468829 8.0786611,8.9846523 7.703888,8.8657037 6.8441231,8.9509338 6.1680722,9.1740495 4.737183,9.6462856 4.5516004,10.548822 5.6579044,11.655126 c 0.5783791,0.578379 0.9751405,0.671929 2.0284721,0.478282 0.7202011,-0.132405 1.4015232,-0.381964 1.5140498,-0.554576 0.3272871,-0.50205 1.3829067,0.07806 1.3829067,0.759974 0,0.444298 -0.377427,0.684039 -1.3229169,0.840319 C 6.7598731,13.592439 5.648469,13.44165 4.777763,12.570944 Z"
       id="path13821" />
  </g>
</svg>
