<?xml version="1.0" encoding="UTF-8" standalone="no"?>
<!-- Created with Inkscape (http://www.inkscape.org/) -->

<svg
   width="22.225mm"
   height="19.049999mm"
   viewBox="0 0 22.225001 19.049999"
   version="1.1"
   id="svg5"
   sodipodi:docname="es.svg"
   inkscape:version="1.1.1 (3bf5ae0d25, 2021-09-20)"
   xmlns:inkscape="http://www.inkscape.org/namespaces/inkscape"
   xmlns:sodipodi="http://sodipodi.sourceforge.net/DTD/sodipodi-0.dtd"
   xmlns="http://www.w3.org/2000/svg"
   xmlns:svg="http://www.w3.org/2000/svg">
  <sodipodi:namedview
     id="namedview7"
     pagecolor="#ffffff"
     bordercolor="#666666"
     borderopacity="1.0"
     inkscape:pageshadow="2"
     inkscape:pageopacity="0.0"
     inkscape:pagecheckerboard="0"
     inkscape:document-units="mm"
     showgrid="false"
     inkscape:zoom="5"
     inkscape:cx="71.8"
     inkscape:cy="25.7"
     inkscape:window-width="1920"
     inkscape:window-height="991"
     inkscape:window-x="-9"
     inkscape:window-y="-9"
     inkscape:window-maximized="1"
     inkscape:current-layer="layer1" />
  <defs
     id="defs2" />
  <g
     inkscape:label="Capa 1"
     inkscape:groupmode="layer"
     id="layer1">
    <path
       style="fill:#414141;stroke-width:0.352778;fill-opacity:1"
       d="M 4.6784422,13.822862 C 4.4381826,13.670267 3.9999842,12.159853 3.7046683,10.466386 3.218899,7.6807786 3.2207377,7.2848484 3.7239624,6.311719 4.3446619,5.1114185 5.8196879,4.3652508 7.9375,4.1802267 c 1.0631692,-0.092884 1.4111111,0.00479 1.4111111,0.3961207 0,0.3381421 -0.5392007,0.611452 -1.5450774,0.783168 -2.3290692,0.3976021 -3.2174226,1.1182113 -3.2174226,2.6098898 0,1.0223231 0.1125936,1.2184365 0.6173611,1.0753093 C 7.7842674,8.3129281 9.9352019,8.0302015 10.282154,8.3771538 10.67771,8.772709 10.371165,9.6535408 9.9323363,9.3823295 9.7951297,9.2975312 8.7463715,9.4458468 7.6017628,9.7119199 6.4571538,9.977993 5.3897583,10.11479 5.2297725,10.015913 c -0.405771,-0.2507798 -0.3633551,1.03643 0.071873,2.181166 0.3520172,0.925876 0.4241108,0.94771 2.435152,0.737515 1.5863249,-0.165804 2.1161089,-0.102694 2.2587701,0.269076 0.1025064,0.267126 0.091479,0.580579 -0.024504,0.696562 -0.3113211,0.311321 -4.7835651,0.245943 -5.2926214,-0.07737 z m 7.1984098,-0.299715 c -0.129352,-0.129351 -0.235185,-0.464061 -0.235185,-0.743799 0,-0.359614 0.246119,-0.446842 0.840128,-0.297755 0.46207,0.115972 1.341468,0.03609 1.954216,-0.177515 L 15.5501,11.915705 13.772272,10.035914 C 12.765988,8.9719166 11.994444,7.8254514 11.994444,7.3941728 c 0,-1.0810112 2.24988,-3.2418742 3.226065,-3.0984259 1.173574,0.1724544 1.121029,0.7574403 -0.121142,1.3486972 -0.61145,0.2910417 -1.328029,0.8661661 -1.592399,1.2780539 -0.444028,0.6917951 -0.331744,0.9014301 1.472846,2.7498035 2.045755,2.0953895 2.117604,2.2229945 1.65873,2.9459485 -0.521044,0.820906 -4.155083,1.511507 -4.761692,0.904897 z"
       id="path14054" />
  </g>
</svg>
