<?xml version="1.0" encoding="UTF-8" standalone="no"?>
<!-- Created with Inkscape (http://www.inkscape.org/) -->

<svg
   width="22.225mm"
   height="19.049999mm"
   viewBox="0 0 22.225001 19.049999"
   version="1.1"
   id="svg5"
   sodipodi:docname="es_selected.svg"
   inkscape:version="1.1.1 (3bf5ae0d25, 2021-09-20)"
   xmlns:inkscape="http://www.inkscape.org/namespaces/inkscape"
   xmlns:sodipodi="http://sodipodi.sourceforge.net/DTD/sodipodi-0.dtd"
   xmlns="http://www.w3.org/2000/svg"
   xmlns:svg="http://www.w3.org/2000/svg">
  <sodipodi:namedview
     id="namedview7"
     pagecolor="#ffffff"
     bordercolor="#666666"
     borderopacity="1.0"
     inkscape:pageshadow="2"
     inkscape:pageopacity="0.0"
     inkscape:pagecheckerboard="0"
     inkscape:document-units="mm"
     showgrid="false"
     inkscape:zoom="5"
     inkscape:cx="71.8"
     inkscape:cy="25.7"
     inkscape:window-width="1920"
     inkscape:window-height="991"
     inkscape:window-x="-9"
     inkscape:window-y="-9"
     inkscape:window-maximized="1"
     inkscape:current-layer="layer1" />
  <defs
     id="defs2" />
  <g
     inkscape:label="Capa 1"
     inkscape:groupmode="layer"
     id="layer1">
    <path
       style="fill:#414141;stroke-width:0.352778;fill-opacity:1"
       d="M 3.0074799,16.594905 C 2.8826863,16.392985 2.8629707,16.09447 2.9636674,15.931539 3.2443353,15.477409 17.912112,15.102043 18.70913,15.528594 c 1.03371,0.553225 0.482392,1.525036 -0.677083,1.193497 -0.975609,-0.278964 -13.2085284,-0.218284 -14.2099972,0.07049 -0.3232198,0.0932 -0.6897763,0.0042 -0.8145699,-0.197673 z M 4.8576893,13.873362 C 4.1448979,13.68176 3.6502735,12.047208 3.3283457,8.819444 3.1172671,6.7030942 3.1671743,6.4538275 3.9759759,5.5847845 4.8460318,4.6499255 6.8325827,3.8862958 8.4043393,3.8825228 9.7284893,3.8793478 9.2245977,5.0108165 7.8343668,5.1623769 6.3828006,5.3206238 4.7375822,6.1519869 4.4637321,6.8656288 4.3493986,7.1635771 4.4464707,8.6053894 4.6794441,10.069657 L 5.103035,12.73196 7.3171166,12.66028 c 2.3499872,-0.07608 2.7612444,0.0665 2.459554,0.85269 -0.1872093,0.48786 -3.5328814,0.73298 -4.9189813,0.360389 z m 6.9401527,-0.615353 c -0.927128,-0.677932 -0.448468,-1.040571 1.419836,-1.075687 0.856892,-0.0161 1.671809,-0.143106 1.810925,-0.282222 C 15.16772,11.760983 14.541945,10.896991 13.637993,9.9801163 11.973074,8.291396 11.649996,7.2999998 12.34276,6.0055602 c 0.454634,-0.8494914 2.711119,-2.2380684 3.173029,-1.9525921 0.600648,0.371221 0.401164,1.2386983 -0.28485,1.2386983 -0.964479,0 -2.288894,1.5648043 -2.025857,2.3935611 0.120396,0.3793338 0.92913,1.3360629 1.797188,2.1260649 2.078931,1.8919956 2.062637,2.6573476 -0.07206,3.3847116 -2.019331,0.688055 -2.269425,0.693006 -3.13237,0.062 z M 5.0357673,9.6213974 C 4.7996038,9.0059653 5.5121002,8.479634 6.5916175,8.4720683 7.0155491,8.469105 7.768233,8.3123697 8.2642484,8.1237846 8.7602642,7.9351998 9.4055988,7.8728093 9.6983254,7.985139 10.43961,8.2695965 10.366276,9.1722217 9.6018802,9.1722217 9.2561089,9.1722217 8.1322118,9.3903725 7.104331,9.6570015 5.4773788,10.079027 5.2096077,10.074418 5.0357673,9.6213974 Z"
       id="path14269" />
  </g>
</svg>
