<?xml version="1.0" encoding="UTF-8" standalone="no"?>
<!-- Created with Inkscape (http://www.inkscape.org/) -->

<svg
   width="456mm"
   height="63mm"
   viewBox="0 0 456 63"
   version="1.1"
   id="svg5"
   inkscape:version="1.1.1 (3bf5ae0d25, 2021-09-20)"
   sodipodi:docname="nombre.svg"
   xmlns:inkscape="http://www.inkscape.org/namespaces/inkscape"
   xmlns:sodipodi="http://sodipodi.sourceforge.net/DTD/sodipodi-0.dtd"
   xmlns="http://www.w3.org/2000/svg"
   xmlns:svg="http://www.w3.org/2000/svg">
  <sodipodi:namedview
     id="namedview7"
     pagecolor="#ffffff"
     bordercolor="#666666"
     borderopacity="1.0"
     inkscape:pageshadow="2"
     inkscape:pageopacity="0.0"
     inkscape:pagecheckerboard="0"
     inkscape:document-units="mm"
     showgrid="false"
     inkscape:zoom="0.35723204"
     inkscape:cx="613.04691"
     inkscape:cy="466.08361"
     inkscape:window-width="1920"
     inkscape:window-height="991"
     inkscape:window-x="-9"
     inkscape:window-y="-9"
     inkscape:window-maximized="1"
     inkscape:current-layer="layer1" />
  <defs
     id="defs2" />
  <g
     inkscape:label="Capa 1"
     inkscape:groupmode="layer"
     id="layer1">
    <path
       style="fill:#000000;stroke-width:0.352778"
       d="m 229.32571,62.219832 c -2.82084,-0.60232 -3.97369,-1.51591 -3.61995,-2.86863 0.25814,-0.98713 1.2951,-1.12159 3.43868,-0.44589 1.90693,0.60111 1.9766,0.59882 2.91949,-0.0961 1.24179,-0.91514 3.13504,-4.04408 3.8018,-6.28315 0.34081,-1.14451 0.44089,-2.34901 0.28981,-3.48794 -0.20199,-1.522706 -0.51931,-2.045569 -2.54378,-4.191622 -1.29457,-1.372313 -3.82315,-3.447648 -5.74278,-4.713386 -4.78195,-3.153065 -5.53022,-4.24615 -4.3987,-6.425636 0.49141,-0.946531 5.22063,-5.71512 5.66793,-5.71512 0.79554,0 1.59861,0.843259 1.59861,1.678616 0,0.688562 -0.59136,1.544902 -2.15945,3.12705 -1.18769,1.198351 -2.05393,2.349553 -1.92496,2.558232 0.12897,0.208675 1.81004,1.428295 3.7357,2.710261 3.73211,2.484564 6.95002,5.644099 8.15603,8.008073 0.63207,1.23897 0.71624,1.905907 0.58642,4.646762 -0.13046,2.75443 -0.31426,3.51957 -1.31956,5.49323 -1.61781,3.17619 -3.07824,4.92011 -4.76002,5.68398 -1.54005,0.6995 -1.83474,0.72491 -3.72527,0.32123 z m 59.08904,-1.19509 c -0.42088,-0.64235 -0.46334,-1.05351 -0.18453,-1.78686 1.40267,-3.68928 -1.21708,-39.653346 -3.55859,-48.85261 -0.84656,-3.3259213 -0.83566,-4.0017563 0.0778,-4.8277813 0.67498,-0.610349 1.34691,-0.671936 7.32014,-0.670932 9.18572,0.0016 21.33307,1.363292 22.96116,2.574005 1.0948,0.814133 1.31529,1.899981 0.54269,2.6725843 -0.70902,0.709013 -2.75894,0.750089 -3.32615,0.06665 -0.23119,-0.2785713 -0.84594,-0.5969163 -1.36611,-0.7074343 -2.80776,-0.596555 -14.55348,-1.608299 -18.67133,-1.608299 h -4.75807 l 0.21501,0.970139 c 0.11826,0.533576 0.73208,4.2818833 1.36405,8.3295703 l 1.14903,7.359432 2.29305,-0.213787 c 8.35819,-0.779251 15.43139,-0.581224 20.05024,0.561344 2.05074,0.507295 2.73354,1.795998 1.48657,2.805732 -0.46537,0.37684 -1.08831,0.582934 -1.39842,0.462661 -2.74249,-1.063635 -11.5677,-1.494391 -17.73457,-0.865621 l -4.61093,0.470126 0.22433,2.319228 c 0.51584,5.332948 0.9885,15.505123 1.04277,22.441613 0.0514,6.5726 -0.0136,7.53184 -0.56743,8.37847 -0.77071,1.17806 -1.82563,1.22843 -2.55074,0.12177 z m 156.98734,-0.45274 c -2.33144,-0.34745 -4.97554,-1.29699 -6.72126,-2.4137 -2.18941,-1.40056 -3.21892,-3.48369 -2.85292,-5.77264 l 0.21908,-1.37 -6.78773,0.009 c -6.58664,0.009 -6.84519,-0.0179 -8.728,-0.90792 -1.06715,-0.50446 -2.19798,-1.12762 -2.51298,-1.3848 -0.94823,-0.774203 -2.07042,-2.863635 -2.07183,-3.857643 0,-0.832108 -0.1554,-0.94778 -1.42518,-1.068875 -1.28743,-0.122777 -1.44152,-0.05026 -1.60786,0.756695 -0.85633,4.153983 -1.39435,5.529653 -2.74218,7.011423 -1.76678,1.94239 -4.5224,2.36199 -7.15197,1.08904 -3.82555,-1.85192 -6.73862,-7.969279 -5.43175,-11.406563 0.45836,-1.205607 2.80225,-2.846302 5.09771,-3.568305 2.58829,-0.814126 3.20576,-0.643004 3.20576,0.888443 0,1.170051 -0.0985,1.266063 -2.16757,2.111837 -1.19218,0.487331 -2.42249,1.10393 -2.73403,1.370221 -1.96871,1.682722 1.87819,8.158887 4.84646,8.158887 0.63525,0 1.41626,-0.19844 1.7356,-0.44097 1.04411,-0.79303 2.02879,-3.812487 2.43028,-7.452233 0.43043,-3.902234 0.217,-14.097433 -0.42774,-20.435485 -0.29785,-2.927571 -0.28942,-3.929028 0.0363,-4.321528 0.52938,-0.637883 1.88806,-0.663974 2.40083,-0.0461 0.45173,0.544275 1.46455,13.204884 1.46455,18.30706 0,3.215298 0.068,3.573152 0.79375,4.178617 1.29847,1.08324 2.22762,0.859547 3.37968,-0.81366 1.27523,-1.852144 4.0162,-4.323528 5.83756,-5.263399 1.77179,-0.914294 4.80314,-1.23118 6.20861,-0.649019 4.08901,1.693721 -1.53917,7.963528 -8.92084,9.937817 -1.37269,0.367142 -1.65431,0.582873 -1.65431,1.267276 0,2.117535 3.99168,3.862913 7.8729,3.442469 1.19969,-0.12996 2.80095,-0.395121 3.55833,-0.589245 1.65411,-0.423957 5.187,-2.710116 8.32432,-5.386712 1.26118,-1.075972 2.81856,-2.208477 3.46086,-2.516681 1.06786,-0.512424 1.24142,-0.51212 2.02847,0.0036 1.2361,0.809936 1.11136,2.324682 -0.41649,5.056724 l -1.2772,2.283798 3.83484,-0.250666 c 3.66571,-0.239613 5.64561,-0.542145 6.86347,-1.048752 0.90692,-0.377264 2.2274,0.915561 1.92105,1.880814 -0.42083,1.325855 -2.30784,1.811945 -8.93082,2.300565 -6.77608,0.49992 -6.89948,0.54824 -7.33559,2.87295 -0.28345,1.51087 0.28575,2.46898 1.98039,3.33352 3.70628,1.89081 9.37542,2.24767 10.93474,0.68833 0.85262,-0.8526 1.12723,-0.86302 2.03598,-0.0773 1.19331,1.03181 1.28951,2.07549 0.28409,3.08094 -0.72961,0.72959 -1.2277,0.88781 -2.79491,0.88781 -1.04888,0 -2.60393,0.0634 -3.4556,0.14089 -0.85171,0.0775 -2.02481,0.0699 -2.60689,-0.0168 z m -6.66926,-13.933714 c 0.66738,-0.751632 0.66668,-0.75407 -0.10206,-0.35088 -0.8575,0.449753 -1.3855,1.107768 -0.8889,1.107768 0.17541,0 0.62135,-0.3406 0.99096,-0.756888 z m -12.68011,-9.548139 1.00493,-1.067654 -0.88195,0.258509 c -1.25313,0.367316 -2.86872,1.394047 -3.86912,2.458953 l -0.85849,0.913811 1.79984,-0.747981 c 0.98993,-0.411392 2.25206,-1.228429 2.80479,-1.815638 z M 0.44345468,56.265672 c -0.51916,-0.32931 -0.52712,-0.6087 -0.12202,-4.28438 0.16037,-1.45521 0.15341,-5.265213 -0.0155,-8.466672 -0.42607,-8.076515 -0.40462,-20.173933 0.0488,-27.516666 0.58343,-9.4481063 0.85212002,-10.5624373 2.55062002,-10.5779313 0.87507,-0.008 1.56473,0.833476 2.23112,2.722188 2.53875,7.1955393 4.76838,12.0890763 5.5081103,12.0890763 0.83407,0 2.4057,-1.134443 3.61333,-2.608185 0.71869,-0.877074 2.3965,-3.625598 3.72846,-6.107831 3.81157,-7.1032313 4.59784,-7.9458543 6.88,-7.3730693 1.90824,0.478937 2.53991,4.651318 3.01781,19.9335813 0.35616,11.389412 0.92432,18.70283 1.74311,22.437449 0.17015,0.776111 0.50346,2.31282 0.74069,3.4149 0.36153,1.6796 0.59356,2.07101 1.43417,2.41919 2.37403,0.98336 1.31786,3.60252 -1.19808,2.97106 -1.61631,-0.40566 -2.69423,-1.97472 -3.40567,-4.95738 -1.38648,-5.812753 -1.80301,-10.224948 -2.32814,-24.661659 -0.34169,-9.393648 -0.68763,-15.008108 -0.98686,-16.0163823 l -0.46075,-1.552492 -2.04969,3.8455483 c -4.48023,8.405639 -6.56219,10.678437 -10.33435,11.281629 -2.2132403,0.353912 -2.9999803,-0.414715 -5.3937403,-5.269602 l -2.09696,-4.252944 -0.0212,1.572399 c -0.0117,0.864819 -0.14835,4.350524 -0.30374,7.74601 -0.15849,3.463366 -0.1347,9.813086 0.0542,14.463889 0.48527,11.948014 0.41005,17.197374 -0.26111,18.221694 -0.54616,0.83354 -1.71236,1.07225 -2.57261002,0.52658 z M 169.78681,54.715312 c -0.54874,-0.67474 -3.57904,-7.158349 -4.54457,-9.723526 -2.64955,-7.039198 -8.13361,-29.285693 -9.46866,-38.4103743 -0.64231,-4.389902 -0.44612,-5.400125 1.0487,-5.400125 1.13523,0 1.94645,1.240854 1.95403,2.988912 0.0234,5.393527 6.93126,33.7787803 10.05993,41.3373873 0.65449,1.581199 1.50746,3.396956 1.89549,4.035016 l 0.7055,1.1601 0.36986,-0.97279 c 0.76143,-2.002719 1.37615,-8.083141 2.32244,-22.972236 0.65614,-10.323918 1.47619,-20.4156633 1.78384,-21.9525053 0.12536,-0.626239 0.43818,-1.313113 0.69516,-1.526386 0.61508,-0.510468 1.94733,-0.295524 2.30537,0.371947 0.85099,1.586426 1.42167,3.20342 1.31751,3.73307 -0.0915,0.464995 -1.02959,1.282614 -1.60274,1.396842 -0.11269,0.02246 -0.72521,8.0429513 -1.50759,19.7409213 -0.87699,13.112637 -1.34582,18.141618 -1.92392,20.637497 -0.55249,2.38535 -2.08311,5.47963 -2.85755,5.77681 -0.93531,0.35892 -2.16816,0.2524 -2.5528,-0.22056 z m 47.19933,-0.60306 c -0.21604,-0.40367 -0.27649,-1.48651 -0.1453,-2.60271 0.31102,-2.64633 -0.69584,-15.404461 -2.32925,-29.514366 -0.81254,-7.018984 -1.28166,-15.6528593 -0.92723,-17.0650393 0.37114,-1.47875 1.66545,-1.885995 3.12573,-0.983492 2.27556,1.406371 2.7881,4.00743 0.83362,4.230467 l -1.02228,0.116658 0.23446,4.1166753 c 0.12895,2.264172 0.54338,6.73605 0.92095,9.937509 0.86693,7.350753 1.28175,11.565759 1.94423,19.755555 0.86835,10.734773 0.67437,12.700003 -1.25357,12.700003 -0.64338,0 -1.14603,-0.25153 -1.38136,-0.69126 z m -107.78127,0.009 c -4.3587,-1.05995 -10.054155,-6.249197 -10.054155,-9.160535 0,-1.008009 -0.76618,-1.34766 -1.2129,-0.537686 -0.73035,1.324215 -3.60909,3.87236 -5.84879,5.177121 -1.94328,1.13207 -2.57828,1.32291 -4.40187,1.32291 -2.69656,0 -4.3332,-1.01593 -5.52025,-3.426666 -0.71914,-1.460483 -0.8297,-2.195756 -0.81836,-5.442539 0.0141,-4.053153 0.31789,-4.889127 1.77644,-4.889127 1.207,0 1.51925,0.902081 1.30281,3.763836 -0.43825,5.794752 1.62443,8.180796 5.43192,6.283448 2.66205,-1.326553 4.61981,-3.196089 5.80447,-5.542893 l 1.0686,-2.116882 1.33087,0.212813 c 1.30268,0.208308 1.33972,0.183303 1.7482,-1.180098 0.626655,-2.091606 3.403265,-4.917546 5.228175,-5.321081 2.89605,-0.640387 5.75234,1.328091 5.75234,3.964357 0,1.306725 -0.87597,3.399275 -1.86892,4.464523 -0.97505,1.04605 -3.84364,2.52578 -4.91032,2.532934 -0.44301,0.0028 -1.02361,0.143577 -1.29022,0.312452 -0.93886,0.594713 1.38902,3.374513 4.54343,5.425443 0.48602,0.31601 1.86367,0.80317 3.06143,1.08259 1.89015,0.44094 2.27298,0.44133 2.89892,0.003 1.33987,-0.93848 1.88157,-3.692801 2.07152,-10.532954 0.19257,-6.934179 -0.76616,-32.6286603 -1.375,-36.8509823 -0.35854,-2.486411 -0.33867,-2.66457 0.36023,-3.23050397 0.95459,-0.772986 1.95365,-0.498034 2.50159,0.68846897 0.27129,0.587457 0.54443,3.98461 0.72796,9.0541283 0.16156,4.462639 0.47983,12.003264 0.70727,16.756945 0.47191,9.863469 0.26794,19.436902 -0.46976,22.048608 -1.14402,4.05025 -2.66245,5.49101 -5.7234,5.43063 -0.97014,-0.0191 -2.24014,-0.15061 -2.82223,-0.29216 z m -3.9999,-13.647593 c 1.16607,-0.586899 2.4124,-2.132326 2.4124,-2.991312 0,-0.355064 -0.28524,-0.79823 -0.63387,-0.984811 -1.35486,-0.725096 -3.88759,1.527062 -4.51111,4.011369 -0.21856,0.870811 -0.17362,0.909987 0.78084,0.680678 0.55702,-0.133823 1.4353,-0.45599 1.95174,-0.715924 z M 317.0737,53.361332 c -3.0981,-0.7299 -6.13317,-3.22295 -7.67547,-6.304752 -0.89382,-1.786012 -1.06309,-4.895427 -0.39648,-7.283464 0.89071,-3.190868 4.75607,-6.629764 7.94292,-7.066569 1.11525,-0.152863 1.97172,-0.0021 3.34341,0.587798 2.41546,1.039103 3.2293,2.09793 3.2293,4.201424 0,1.399907 -0.17208,1.81041 -1.14653,2.735154 -2.10968,2.002059 -4.27959,2.668823 -8.60417,2.643875 -2.56171,-0.01478 -2.68463,0.186909 -1.5725,2.5801 1.95658,4.210334 7.74466,6.609224 10.14801,4.205874 0.89535,-0.89535 0.90554,-0.96398 0.65912,-4.43967 -0.30921,-4.361477 0.0297,-5.429412 1.88081,-5.926141 1.42055,-0.381194 6.81617,0.325328 8.2193,1.076261 0.63086,0.337623 0.82071,0.327759 0.94635,-0.04916 0.32915,-0.987453 1.7366,-2.054031 2.46064,-1.864691 1.02124,0.267063 1.55534,1.013139 2.69607,3.766146 1.57477,3.800471 2.20527,3.81575 7.38696,0.178989 3.57269,-2.507481 4.37716,-2.268517 5.13013,1.523887 0.24398,1.228735 0.50486,2.472824 0.57979,2.764642 0.11232,0.437426 0.89563,0.527014 4.46155,0.510275 4.5315,-0.02127 5.7454,-0.341499 7.55339,-1.99257 l 0.75861,-0.692796 -1.71203,-1.794979 c -0.94163,-0.987238 -1.75927,-2.125348 -1.81698,-2.529131 -0.0894,-0.625648 -0.31997,-0.720912 -1.55984,-0.644549 -1.69954,0.104669 -2.35384,-0.466627 -2.18655,-1.90923 0.0719,-0.620095 0.45635,-1.17179 1.0462,-1.501334 0.81255,-0.453983 1.12765,-0.456579 2.44993,-0.02018 2.16013,0.712907 5.28567,3.149416 6.31895,4.925945 0.48507,0.83397 1.3582,1.979849 1.94028,2.5464 1.27515,1.241132 6.32354,3.760498 8.11939,4.051921 l 1.29018,0.20937 -0.25813,-3.314302 c -0.14199,-1.822862 -0.47261,-3.642751 -0.73476,-4.044195 -0.26215,-0.401443 -0.57739,-1.693838 -0.70055,-2.871988 -0.21166,-2.025005 -0.17445,-2.174484 0.68065,-2.734758 1.45415,-0.9528 2.70838,0.167121 3.14572,2.808866 0.12654,0.764314 0.53943,0.798029 4.06382,0.331847 3.33845,-0.441586 4.71484,0.782147 7.1743,6.378628 0.85634,1.94855 1.38208,2.712586 1.96769,2.859567 1.13147,0.283983 1.64772,1.039802 1.3958,2.04353 -0.28165,1.12233 -1.19757,1.38554 -2.88621,0.82944 -1.27194,-0.41888 -1.50301,-0.72874 -3.49056,-4.680935 -1.42727,-2.838107 -2.34626,-4.273042 -2.78966,-4.355835 -0.36365,-0.06791 -1.59396,0.08346 -2.73403,0.336384 -2.39864,0.532144 -2.31119,0.227909 -1.70917,5.944221 0.33087,3.142065 0.30931,3.378885 -0.36919,4.056945 -0.69687,0.69641 -0.75596,0.69979 -1.79722,0.10273 -0.59214,-0.33955 -1.46576,-0.61736 -1.94137,-0.61736 -1.25935,0 -6.02188,-1.91436 -8.23669,-3.310847 l -1.91086,-1.204821 -1.60902,1.341741 c -2.35969,1.967707 -4.14108,2.428677 -10.2188,2.644317 l -5.26585,0.18684 -0.71201,-0.90514 c -0.39952,-0.50794 -0.81735,-1.748598 -0.95211,-2.827223 -0.13208,-1.057148 -0.2975,-1.922085 -0.36756,-1.922085 -0.0701,0 -1.17471,0.702395 -2.45473,1.560876 -3.92849,2.634692 -6.78898,2.512852 -8.6153,-0.366963 -0.90737,-1.430775 -1.0014,-1.490098 -1.19814,-0.755908 -0.39974,1.491781 -0.23702,3.697403 0.30604,4.148103 1.17514,0.97528 -0.017,3.175 -1.72069,3.175 -1.49268,0 -1.80709,-0.84867 -1.80709,-4.877866 v -3.71071 l -1.03755,-0.627638 c -0.57066,-0.3452 -1.92003,-0.72765 -2.99861,-0.849884 -1.07858,-0.122237 -2.25195,-0.30347 -2.60748,-0.402738 -0.60487,-0.168885 -0.63052,0.02293 -0.39895,2.983064 0.28214,3.606612 -0.10471,5.338412 -1.53477,6.870642 -1.45074,1.5544 -4.34814,2.04814 -7.5677,1.28962 z m 1.88335,-14.439822 c 1.72012,-0.906917 1.81777,-1.842262 0.27279,-2.612997 -1.86147,-0.928624 -2.99722,-0.605423 -5.32566,1.51553 -1.11345,1.014236 -1.24279,1.703945 -0.35278,1.881336 1.01841,0.202981 4.48825,-0.300179 5.40565,-0.783869 z M 44.557305,52.227582 c -1.49706,-0.55697 -3.01539,-2.01238 -3.77971,-3.623052 -1.29673,-2.732652 -1.06812,-10.436976 0.37821,-12.746341 0.83787,-1.337836 2.58113,-1.388748 4.56091,-0.133205 1.92083,1.218152 2.28122,1.310238 2.28122,0.582891 0,-0.638669 0.95881,-1.612699 1.5875,-1.612699 0.91354,0 1.50308,1.033646 1.7505,3.069149 0.15659,1.288242 0.61486,2.634139 1.23723,3.633629 0.54369,0.873125 1.17915,2.187091 1.41215,2.919927 0.54554,1.715929 3.01055,3.077295 5.572,3.077295 1.87762,0 2.55173,0.434746 2.55173,1.645646 0,1.77644 -3.82764,2.12463 -6.82212,0.62059 l -1.8093,-0.90876 -0.71138,0.86215 c -1.89703,2.29914 -5.75311,3.52647 -8.20894,2.61278 z m 3.98402,-3.2753 c 0.64855,-0.307758 1.42353,-0.932481 1.72218,-1.388274 0.50627,-0.772664 0.47187,-0.963908 -0.50851,-2.827651 -0.57833,-1.099414 -1.0515,-2.275713 -1.0515,-2.613995 0,-0.338279 -0.27782,-0.861896 -0.61737,-1.163588 -1.03735,-0.921696 -4.39379,-2.781145 -4.61709,-2.557844 -0.11554,0.115542 -0.2726,1.766768 -0.34902,3.669394 -0.11746,2.92445 -0.0266,3.713374 0.58789,5.102457 1.00757,2.277781 2.57065,2.853261 4.83342,1.779501 z m 26.54003,3.04143 c -0.65115,-0.5122 -0.98992,-1.27195 -1.29774,-2.91042 -0.2291,-1.219507 -0.66076,-3.355171 -0.95924,-4.74592 l -0.54269,-2.52864 -2.8069,1.911279 c -1.54379,1.0512 -3.03888,1.911276 -3.32242,1.911276 -0.40814,0 -0.51554,0.573257 -0.51554,2.751667 0,2.824218 -0.31333,3.598338 -1.45647,3.598338 -1.20418,0 -1.71853,-0.99785 -1.71853,-3.333963 0,-1.633682 -0.23807,-2.745228 -0.89554,-4.181337 -0.7878,-1.720783 -0.88329,-2.347412 -0.79375,-5.20874 0.0827,-2.642492 0.2176,-3.325477 0.71915,-3.640966 1.34789,-0.847856 2.47715,0.754496 3.05338,4.33258 0.19913,1.236444 0.44619,2.332218 0.54902,2.435056 0.34815,0.348142 1.88546,-0.58323 4.19105,-2.539122 4.20272,-3.565278 5.09344,-3.129781 6.42361,3.140654 1.36974,6.456968 1.31474,6.299858 2.28457,6.526538 0.67068,0.15676 0.89827,0.4662 0.98324,1.33686 0.0925,0.94752 -0.0412,1.19058 -0.81672,1.48544 -1.35958,0.51691 -2.09126,0.43596 -3.07848,-0.34058 z m 129.549915,-1.126 c -6.29099,-4.899183 -7.05556,-5.376206 -7.05556,-4.402056 0,0.859793 -1.49732,2.413496 -2.97088,3.082756 -1.64924,0.74905 -3.45351,0.83808 -5.67062,0.2798 -2.15651,-0.54301 -2.71349,-1.269621 -2.58005,-3.365802 0.10489,-1.647712 0.15269,-1.717276 1.25304,-1.823423 0.96549,-0.09314 1.21208,0.04447 1.58032,0.881944 0.57615,1.310287 0.90426,1.509646 2.4952,1.516066 0.95456,0.0038 1.58652,-0.242168 2.20131,-0.856953 1.10304,-1.103041 0.83998,-1.740543 -1.00968,-2.446934 -2.09758,-0.801074 -4.11808,-2.552845 -4.11808,-3.570365 0,-0.987566 0.85623,-1.939791 1.74424,-1.939791 1.05889,0 3.88858,1.404281 5.25693,2.608834 0.70901,0.624138 2.51122,1.824228 4.00492,2.666862 1.49369,0.842638 3.67651,2.309403 4.85069,3.25948 l 2.13488,1.727412 -0.001,-1.8681 c -0.002,-3.150623 -0.70404,-11.466876 -1.43743,-17.037544 -0.38315,-2.910416 -1.00777,-7.831666 -1.38802,-10.936111 -0.38026,-3.104444 -0.76654,-6.1827 -0.85839,-6.840568 -0.0919,-0.657869 -0.009,-1.491306 0.18404,-1.8520833 0.40957,-0.765281 1.82656,-0.86945 2.40161,-0.176554 0.75956,0.9152233 1.45684,3.9060913 1.24794,5.3528813 -0.11709,0.810888 0.25336,4.830625 0.86155,9.348611 1.58169,11.749893 1.91868,15.461997 1.95546,21.540394 0.0363,6.001684 -0.15474,6.684424 -1.86199,6.653684 -0.55881,-0.0101 -1.83764,-0.72591 -3.22,-1.80244 z M 356.90956,32.286148 c -0.32114,-0.354827 -0.58385,-0.857221 -0.58385,-1.116432 0,-1.276689 5.37354,-9.870926 7.36434,-11.778219 1.30676,-1.251969 3.53109,-1.615824 4.79904,-0.785028 1.64042,1.074849 0.99473,2.530617 -1.21645,2.742522 -0.9986,0.0957 -1.51525,0.48294 -2.83619,2.125819 -0.88833,1.10484 -2.47018,3.565465 -3.51525,5.468056 -2.35412,4.285809 -2.81276,4.66804 -4.01164,3.343282 z"
       id="path854" />
  </g>
</svg>
