<?xml version="1.0" encoding="UTF-8" standalone="no"?>
<!-- Created with Inkscape (http://www.inkscape.org/) -->

<svg
   width="30.715631mm"
   height="11.817246mm"
   viewBox="0 0 30.71563 11.817247"
   version="1.1"
   id="svg5"
   inkscape:version="1.1.1 (3bf5ae0d25, 2021-09-20)"
   sodipodi:docname="atheist.svg"
   xmlns:inkscape="http://www.inkscape.org/namespaces/inkscape"
   xmlns:sodipodi="http://sodipodi.sourceforge.net/DTD/sodipodi-0.dtd"
   xmlns="http://www.w3.org/2000/svg"
   xmlns:svg="http://www.w3.org/2000/svg">
  <sodipodi:namedview
     id="namedview7"
     pagecolor="#ffffff"
     bordercolor="#666666"
     borderopacity="1.0"
     inkscape:pageshadow="2"
     inkscape:pageopacity="0.0"
     inkscape:pagecheckerboard="0"
     inkscape:document-units="mm"
     showgrid="false"
     fit-margin-top="0"
     fit-margin-left="0"
     fit-margin-right="0"
     fit-margin-bottom="0"
     inkscape:zoom="1.0104048"
     inkscape:cx="-12.86613"
     inkscape:cy="-20.288898"
     inkscape:window-width="1920"
     inkscape:window-height="991"
     inkscape:window-x="-9"
     inkscape:window-y="-9"
     inkscape:window-maximized="1"
     inkscape:current-layer="layer1" />
  <defs
     id="defs2" />
  <g
     inkscape:label="Capa 1"
     inkscape:groupmode="layer"
     id="layer1"
     transform="translate(11.727172,2.8956424)">
    <path
       style="fill:#000000;stroke-width:0.0243614"
       d="M -7.1994303,8.8674573 C -7.2840615,8.7886063 -7.3155164,8.6869599 -7.3340555,8.4324022 -7.3608053,8.0651538 -7.3043389,8.1036583 -7.8175806,8.1026621 -8.2222972,8.1018597 -8.4184694,8.0828993 -8.6995654,8.0173371 -9.301132,7.8770323 -9.2473253,7.8953012 -9.6996793,7.6777646 -10.024614,7.5215048 -10.155599,7.4398485 -10.645288,7.0882712 c -0.132346,-0.095017 -0.163333,-0.108201 -0.187076,-0.07959 -0.01565,0.018862 -0.06692,0.044912 -0.113931,0.057889 -0.190287,0.052543 -0.347758,-0.051682 -0.347758,-0.2301766 0,-0.061749 0.01459,-0.1154252 0.03625,-0.1334039 0.01994,-0.016547 0.05863,-0.066299 0.08598,-0.1105576 l 0.04973,-0.080476 -0.06389,-0.1664918 c -0.03514,-0.09157 -0.09981,-0.2487109 -0.143715,-0.3492014 -0.0439,-0.1004905 -0.09382,-0.2430047 -0.110927,-0.316698 -0.0171,-0.073697 -0.04656,-0.1778381 -0.06545,-0.2314333 -0.04774,-0.1354847 -0.175249,-0.761323 -0.205969,-1.0109979 -0.02998,-0.2436785 -0.01246,-1.1755536 0.02679,-1.4251409 0.09685,-0.6157567 0.122236,-0.7484241 0.195782,-1.023178 0.06768,-0.2528685 0.09042,-0.3295889 0.133565,-0.4506865 0.0509,-0.1428889 0.394834,-0.83670433 0.477005,-0.96227543 0.390549,-0.5968172 0.450552,-0.67541 0.649569,-0.8508159 0.113342,-0.0998956 0.2762385,-0.22339312 0.3619921,-0.27444118 0.1469702,-0.0874867 0.1894659,-0.1293546 0.1312966,-0.1293546 -0.014006,0 -0.052374,-0.0269057 -0.085264,-0.0597918 -0.064531,-0.0645347 -0.080752,-0.19658648 -0.034709,-0.28261309 0.033873,-0.063286 0.1502215,-0.120457 0.245145,-0.120457 0.092216,0 0.3682688,-0.081762 0.4756875,-0.1408897 0.041785,-0.023 0.1192853,-0.065699 0.1722172,-0.094885 0.052929,-0.029184 0.1509331,-0.096295 0.2177818,-0.1491349 0.066846,-0.052844 0.1464548,-0.1039814 0.1769062,-0.113646 0.030456,-0.00967 0.1394373,-0.1019493 0.2421928,-0.2050779 0.2462758,-0.2471735 0.320991,-0.2997637 0.6704424,-0.471902 0.2141501,-0.1054902 0.3382772,-0.1512182 0.4537241,-0.1671453 0.087406,-0.012064 0.2340873,-0.041019 0.3259604,-0.064349 0.1547795,-0.03931 0.1706243,-0.049578 0.21591,-0.1398949 0.081381,-0.1623028 0.136066,-0.207097 0.2528234,-0.207097 0.1306308,0 0.2449529,0.088453 0.2671342,0.2066823 l 0.015365,0.081941 0.1864379,0.016329 c 0.3339692,0.029263 0.6033876,0.1008712 0.8777274,0.2332922 0.142343,0.068708 0.3883588,0.1777114 0.5466994,0.2422341 0.158343,0.064522 0.3564344,0.1619671 0.4402043,0.2165451 0.08377,0.054578 0.159673,0.099233 0.168672,0.099233 0.01692,0 0.20207,0.1316255 0.309118,0.2197497 0.0335,0.027572 0.144622,0.1098489 0.246948,0.1828291 0.118729,0.084683 0.213688,0.1757738 0.262451,0.2517667 0.04203,0.065491 0.09938,0.1451218 0.127467,0.17695981 0.05944,0.067397 0.120286,0.20116167 0.189338,0.41627318 0.02705,0.084261 0.07786,0.22994071 0.112909,0.32373298 0.03505,0.093791 0.100357,0.2856375 0.145122,0.4263241 0.04477,0.1406865 0.103162,0.3160894 0.129773,0.3897818 0.02661,0.073693 0.08234,0.2568849 0.123835,0.407093 0.152649,0.55253983 0.240524,1.64196033 0.173903,2.15594813 -0.01266,0.097688 -0.03537,0.2927237 -0.05045,0.4334104 -0.0297,0.2769127 -0.0385,0.3118868 -0.202159,0.8039265 -0.215869,0.6489788 -0.514381,1.2886447 -0.702411,1.5051634 -0.03822,0.044012 -0.06949,0.088645 -0.06949,0.099186 0,0.010541 -0.07182,0.095118 -0.159614,0.1879526 -0.08779,0.092835 -0.172747,0.1961963 -0.188802,0.2296934 -0.01605,0.033495 -0.07587,0.083328 -0.132936,0.1107354 -0.05706,0.027409 -0.155356,0.092971 -0.218434,0.1456965 -0.4768501,0.3985963 -1.1153951,0.7434166 -1.6694569,0.9015224 -0.063695,0.018171 -0.1678393,0.06043 -0.2314317,0.0939 -0.1901983,0.1001013 -0.3575833,0.1452591 -1.1086856,0.2991117 l -0.067329,0.013789 0.015807,0.198167 c 0.00869,0.1089914 0.023775,0.2091297 0.03352,0.2225287 0.075369,0.1036415 0.047228,0.3585588 -0.050364,0.4561438 -0.086313,0.08631 -0.2294361,0.09338 -0.3130783,0.01545 z m -0.213962,-1.2652232 c 0.018726,-0.025729 -0.030931,-3.1068969 -0.053564,-3.3234486 -0.014006,-0.1339884 -0.025737,-0.4961771 -0.02609,-0.8048655 -5.354e-4,-0.5138021 -0.00474,-0.5693904 -0.049705,-0.6575224 -0.026991,-0.052953 -0.043787,-0.1100808 -0.037307,-0.126958 0.015317,-0.039896 -0.046931,-0.038593 -0.1694063,0.00354 -0.053596,0.018444 -0.2180351,0.046537 -0.3654209,0.062432 -0.4557293,0.04915 -0.5438548,0.073206 -0.6259139,0.1708849 -0.03959,0.047132 -0.1500672,0.2446449 -0.2454956,0.4389277 -0.095427,0.1942819 -0.1917927,0.3806458 -0.2141445,0.4141429 -0.041262,0.061829 -0.250019,0.5306439 -0.3254385,0.7308418 -0.095067,0.2523442 -0.494688,1.0727499 -0.65859,1.3520578 -0.04718,0.080394 -0.144255,0.2637139 -0.21573,0.4073811 l -0.129955,0.2612142 0.06676,0.067666 c 0.153134,0.1552145 0.6110364,0.4589526 0.9484718,0.6291484 0.2533629,0.1277886 0.4092874,0.1859627 0.6935561,0.258758 0.053596,0.013725 0.1577392,0.040917 0.2314341,0.060414 0.2056998,0.05444 0.4916345,0.07873 0.8464085,0.071896 0.1774506,-0.00346 0.3260143,-0.010854 0.3301365,-0.016523 z m 0.8576302,-0.1925758 c 0.31756,-0.06006 0.5285559,-0.1277717 0.7387019,-0.2370421 0.084717,-0.044052 0.1730598,-0.080089 0.1963193,-0.080089 0.074308,0 0.4458591,-0.1447952 0.6898134,-0.2688258 0.2713007,-0.1379325 0.3125638,-0.1626666 0.5440494,-0.326128 0.2182377,-0.1541042 0.3037608,-0.2330365 0.3039468,-0.2805227 7.4e-5,-0.020945 0.01598,-0.068406 0.03531,-0.1054795 0.03314,-0.063534 0.02965,-0.077612 -0.06074,-0.2452037 C -4.2160865,5.6666512 -4.3971833,5.1575631 -4.4911234,4.790375 -4.5254069,4.6563866 -4.6082507,4.3932837 -4.6752296,4.2057009 -4.7422046,4.0181181 -4.8125387,3.8211652 -4.83152,3.7680283 -4.8504949,3.7148906 -4.9049512,3.588821 -4.9525259,3.487873 -5.0391173,3.3041253 -5.187365,2.9074449 -5.2805904,2.6100297 c -0.027304,-0.087092 -0.059023,-0.1682485 -0.070496,-0.1803482 -0.012398,-0.013073 -0.1374312,-0.01075 -0.3082494,0.00571 -0.1580656,0.015252 -0.4299057,0.03405 -0.6040896,0.041769 -0.3745079,0.016603 -0.7858576,0.05325 -0.8175754,0.072852 -0.012494,0.00772 -8.844e-4,0.056515 0.026291,0.1096282 0.045411,0.089022 0.048804,0.1429355 0.04849,0.7721483 -1.753e-4,0.3720444 0.010436,0.7477013 0.023582,0.8347936 0.013475,0.089174 0.024137,0.7643148 0.02441,1.5454818 5.347e-4,1.4458894 0.014352,1.683492 0.096737,1.6593287 0.020752,-0.00611 0.1583293,-0.033881 0.3057151,-0.061757 z M -10.529415,5.484674 c 0.18736,-0.3337553 0.496672,-0.9921227 0.5898947,-1.2555745 0.094587,-0.2673191 0.8565995,-1.7725364 1.0539729,-2.0819356 0.055558,-0.087093 0.1085998,-0.174794 0.117875,-0.1948921 0.020414,-0.044237 0.215894,-0.3751279 0.3314543,-0.561052 0.046054,-0.0741 0.171467,-0.3043156 0.2786896,-0.51158843 0.5609635,-1.0844005 0.6684257,-1.31202951 0.7874545,-1.66801651 0.0672,-0.2009815 0.1938582,-0.51513196 0.281461,-0.69811166 0.087601,-0.1829815 0.1652938,-0.3775679 0.1726514,-0.4324149 l 0.013371,-0.099722 h -0.127825 c -0.1060615,0 -0.1759735,0.023592 -0.410602,0.1385445 -0.2420608,0.1185972 -0.3161915,0.1700247 -0.5148674,0.3571916 -0.2021026,0.1903937 -0.336436,0.2930205 -0.6375545,0.4870774 l -0.069668,0.0449013 0.054858,0.076907 c 0.1656547,0.23224318 -0.054561,0.51345595 -0.3079327,0.39322224 l -0.087366,-0.0414577 -0.2134297,0.1584144 c -0.1173853,0.0871275 -0.2572801,0.18259953 -0.3108761,0.21215803 -0.110995,0.0612173 -0.2264122,0.1455118 -0.3232532,0.2360926 -0.036591,0.0342247 -0.1028037,0.0901156 -0.1471382,0.1241986 -0.044334,0.0340833 -0.098027,0.0958066 -0.1193116,0.1371586 -0.02128,0.0413524 -0.07358,0.1190396 -0.116193,0.1726351 -0.230189,0.2894648 -0.64514,1.09962293 -0.723696,1.41295933 -0.01345,0.053596 -0.04424,0.1632218 -0.06844,0.243615 -0.04495,0.1492873 -0.07465,0.2917614 -0.119375,0.5724916 -0.10502,0.6592228 -0.1055,0.6656188 -0.09365,1.2442451 0.0064,0.3138735 0.02369,0.6090479 0.03834,0.655944 0.01465,0.046899 0.04857,0.2006594 0.07536,0.3416967 0.02679,0.141038 0.06393,0.2999961 0.08253,0.3532408 0.0186,0.053242 0.04796,0.1571024 0.06525,0.2307957 0.01729,0.073697 0.06353,0.2044688 0.102738,0.2906132 l 0.0713,0.1566264 0.09254,-0.1688065 c 0.0509,-0.092844 0.132541,-0.2400637 0.181431,-0.327156 z m 7.0966627,0.1157171 c 0.204844,-0.2850647 0.239765,-0.3501968 0.414693,-0.7734742 0.242677,-0.5872059 0.376435,-1.0268387 0.40766,-1.3398769 0.0087,-0.087091 0.03292,-0.3063439 0.05388,-0.4872284 0.022011,-0.1900753 0.03174,-0.3957083 0.023064,-0.4872268 -0.081974,-0.8641234 -0.115458,-1.1000391 -0.198813,-1.4007801 -0.048277,-0.17418453 -0.096581,-0.33862373 -0.107341,-0.36542123 -0.05999,-0.1493773 -0.098683,-0.2615022 -0.142923,-0.4141435 -0.027184,-0.0937923 -0.078465,-0.247268 -0.113954,-0.3410602 -0.035489,-0.0937905 -0.091715,-0.2561056 -0.12494,-0.3606986 -0.087353,-0.27498178 -0.269986,-0.53475365 -0.474711,-0.67521627 -0.161047,-0.1104938 -0.258433,-0.1824305 -0.386759,-0.2856899 -0.037465,-0.030146 -0.082981,-0.054929 -0.1011451,-0.055071 -0.018171,-1.747e-4 -0.087839,-0.043877 -0.1548319,-0.097186 -0.066991,-0.053312 -0.1327703,-0.097083 -0.1461677,-0.097271 -0.041061,-5.351e-4 -0.3490567,-0.1324316 -0.6821198,-0.2920191 -0.3156785,-0.1512583 -0.5413727,-0.2185191 -0.7359368,-0.2193214 l -0.10254,-5.35e-4 0.074404,0.2009821 c 0.1364294,0.3685445 0.3165766,0.92875642 0.3866414,1.20236027 0.038102,0.14879541 0.1132262,0.4064166 0.1669372,0.5724924 0.053717,0.1660771 0.1209729,0.4225455 0.1494698,0.5699322 0.028495,0.1473859 0.062489,0.3021741 0.07553,0.343976 0.013049,0.041799 0.044575,0.24460793 0.070054,0.45068463 0.025479,0.2060781 0.07393,0.4843118 0.1076599,0.6182995 0.1352805,0.5373944 0.1639768,0.6392132 0.2197163,0.7795654 0.031928,0.080394 0.07204,0.1955 0.08914,0.2557935 0.017101,0.060294 0.07963,0.2137722 0.1389556,0.3410607 0.1811861,0.3887479 0.4034011,1.0168986 0.5127741,1.4495026 0.072,0.2847632 0.253743,0.7939566 0.34348,0.9623234 0.04283,0.080362 0.08144,0.1461194 0.08579,0.1461194 0.0043,0 0.0729,-0.090442 0.152331,-0.200981 z M -8.0539876,2.2543567 c 0.1004913,-0.020028 0.2484858,-0.046931 0.3288798,-0.059779 0.080394,-0.012848 0.1947113,-0.039743 0.254044,-0.059755 0.059329,-0.020012 0.1340487,-0.03639 0.1660407,-0.03639 0.031992,0 0.078255,-0.01075 0.1028117,-0.023895 0.050878,-0.027232 0.5307194,-0.070472 0.9631474,-0.086802 0.1607848,-0.00611 0.3581123,-0.015903 0.4385055,-0.021853 0.1729432,-0.0128 0.338569,-0.075031 0.3210671,-0.1206425 -0.012253,-0.031936 -0.036486,-0.1861256 -0.1018694,-0.6481785 -0.045877,-0.32418473 -0.1616612,-0.88005713 -0.2131265,-1.02316903 -0.065906,-0.1832697 -0.1412656,-0.4368279 -0.2135897,-0.71866088 -0.065528,-0.2553484 -0.2550892,-0.84641769 -0.3631913,-1.13246249 -0.027779,-0.073503 -0.051095,-0.139279 -0.051811,-0.1461678 -6.786e-4,-0.00689 -0.021299,0.049979 -0.045725,0.1263826 -0.024426,0.076398 -0.1048796,0.2627624 -0.1787852,0.4141435 -0.073905,0.1513793 -0.1915191,0.44515706 -0.2613667,0.65283789 -0.097994,0.29137045 -0.2062023,0.53337378 -0.4738342,1.05972118 -0.4111528,0.80860013 -0.5583786,1.08498973 -0.6511738,1.22245873 -0.037805,0.056008 -0.068744,0.1110175 -0.068744,0.1222416 0,0.011224 -0.028985,0.063076 -0.064426,0.1152178 -0.066975,0.098565 -0.2279132,0.3767005 -0.2279132,0.3938872 0,0.020149 0.1640933,0.00611 0.3410606,-0.02913 z M 0.43909573,4.630329 c -0.104831,-0.082741 -0.137126,-0.1865512 -0.137126,-0.4407833 0,-0.2107595 0.0041,-0.2290574 0.06546,-0.2931193 0.05145,-0.053701 0.08744,-0.068326 0.168156,-0.068326 h 0.102696 l 0.04917,-0.1644391 c 0.04296,-0.1436254 0.199183,-0.7663642 0.199183,-0.793955 0,-0.00555 -0.03235,-0.02355 -0.07189,-0.039936 -0.09832,-0.040724 -0.147356,-0.1246208 -0.147356,-0.2521062 0,-0.1662128 0.104328,-0.2538012 0.284403,-0.2387684 0.03237,0.00273 0.05785,-0.012398 0.06552,-0.038842 0.02453,-0.084571 0.159315,-0.6553893 0.200046,-0.8471916 0.03647,-0.1717281 0.148952,-0.63219713 0.303502,-1.24243123 0.164828,-0.65081864 0.220265,-0.77374422 0.381007,-0.84484898 0.09908,-0.0438272 0.123145,-0.0458203 0.22392,-0.0185688 0.167237,0.0452221 0.241997,0.088977 0.281035,0.16446513 0.01923,0.0371811 0.07971,0.12175797 0.1344,0.18794135 0.0547,0.066185 0.09944,0.1277051 0.09944,0.1367125 0,0.009 0.03982,0.085948 0.08848,0.1709756 0.179026,0.3127996 0.421448,0.7939623 0.507474,1.00724893 0.04864,0.1205891 0.108434,0.2576218 0.132881,0.3045172 0.02444,0.046896 0.05189,0.1167655 0.06098,0.1552644 0.0091,0.038496 0.06666,0.175533 0.127927,0.3045172 0.06127,0.1289858 0.158091,0.3551077 0.215172,0.5024943 0.123579,0.3190948 0.179132,0.4548842 0.320113,0.7824671 0.05835,0.1355836 0.106092,0.254122 0.106092,0.263418 0,0.00929 0.02615,0.073769 0.05812,0.143266 0.03196,0.0695 0.115227,0.2740174 0.185033,0.454483 0.145491,0.3761345 0.149035,0.4556071 0.02529,0.5671625 -0.09316,0.083984 -0.185149,0.085835 -0.302662,0.00611 -0.04936,-0.033495 -0.09831,-0.060905 -0.108779,-0.060905 -0.03588,0 -0.121356,-0.1096129 -0.138106,-0.1770927 -0.0095,-0.038119 -0.0037,-0.098984 0.01327,-0.1399245 0.02581,-0.062312 0.02246,-0.092099 -0.02394,-0.21269 -0.07217,-0.1875723 -0.260377,-0.6445728 -0.332358,-0.8070227 -0.03189,-0.07196 -0.05798,-0.1411876 -0.05798,-0.1538332 0,-0.012647 -0.02363,-0.077926 -0.05252,-0.1450735 -0.05839,-0.1357275 -0.04342,-0.1339956 -0.284994,-0.032965 -0.307178,0.1284664 -0.385176,0.1388977 -1.002364,0.1340495 -0.314872,-0.00249 -0.621826,-0.00627 -0.682119,-0.00844 l -0.109626,-0.00394 -0.102907,0.4141437 c -0.16224,0.6529338 -0.33194591,1.1550937 -0.42786691,1.2660574 -0.07145,0.082652 -0.09594,0.094614 -0.213472,0.1042565 -0.111192,0.00913 -0.14413,0.00193 -0.20271,-0.044318 z M 2.8355537,2.3803886 c 0.0737,-0.023839 0.190655,-0.070971 0.25991,-0.1047317 l 0.125922,-0.061379 -0.08547,-0.1858163 C 3.0535267,1.8493652 3.0010257,1.7229764 2.8369287,1.3087126 2.7528337,1.0964127 2.4367977,0.45225277 2.3879577,0.39359937 c -0.016949,-0.0203523 -0.068246,-0.1116164 -0.113998,-0.2028155 -0.080041,-0.1595369 -0.156396,-0.2571165 -0.181529,-0.2319845 -0.0066,0.00659 -0.02938,0.087831 -0.05064,0.1805322 -0.02126,0.092701 -0.06416,0.2562468 -0.09533,0.3634385 -0.06862,0.2359317 -0.26706,1.07730933 -0.313152,1.32769503 -0.0062,0.033495 -0.03953,0.1705303 -0.07413,0.3045179 -0.0346,0.1339868 -0.06305,0.2513746 -0.0632,0.2608605 -3.67e-4,0.021958 0.26615,0.03196 0.791458,0.029684 0.326924,-0.00145 0.44236,-0.010919 0.54813,-0.045138 z M 16.648465,4.20017 C 16.473442,4.151253 16.43352,4.0614146 16.475582,3.8110924 c 0.02323,-0.1381805 0.02426,-0.2433191 0.0043,-0.4415134 -0.0144,-0.143077 -0.04366,-0.5342057 -0.06507,-0.8691751 -0.0214,-0.3349686 -0.04426,-0.6145161 -0.05079,-0.621216 -0.0065,-0.00667 -0.20557,-0.017664 -0.442317,-0.024362 -0.423449,-0.01198 -0.432546,-0.013371 -0.558416,-0.085265 -0.166686,-0.095206 -0.220487,-0.1967607 -0.172344,-0.3253171 0.02353,-0.062834 0.06067,-0.1022766 0.126925,-0.1347909 0.09269,-0.045489 0.09496,-0.045426 0.219253,0.00609 0.106677,0.044215 0.17414,0.052055 0.447909,0.052055 h 0.322321 v -0.061919 c 0,-0.034054 -0.02197,-0.1957553 -0.0488,-0.35933063 -0.02682,-0.1635752 -0.05972,-0.36445 -0.07308,-0.4463876 -0.01337,-0.081937 -0.02464,-0.2683015 -0.02506,-0.4141435 -3.82e-4,-0.1944698 -0.01031,-0.2777736 -0.03656,-0.3124546 -0.05475,-0.072397 -0.04516,-0.21954733 0.01906,-0.29203324 0.132358,-0.14942432 0.344288,-0.15279501 0.43325,-0.00689 0.04011,0.0657705 0.04772,0.12322973 0.0478,0.36061094 0,0.3093235 0.02135,0.5113349 0.110009,1.0453221 0.03224,0.19428233 0.06182,0.39709033 0.06572,0.45068573 l 0.0071,0.097445 h 0.535952 c 0.410985,0 0.598435,0.010597 0.803928,0.045435 0.147386,0.024989 0.365279,0.05842 0.484213,0.074292 0.19572,0.026123 0.222883,0.036285 0.286249,0.1072089 0.09708,0.1086602 0.09501,0.2193569 -0.0059,0.3203596 l -0.076,0.075996 -0.210256,-0.015461 c -0.11569,-0.00851 -0.248674,-0.025841 -0.295567,-0.038529 -0.195919,-0.053001 -0.551576,-0.081929 -0.980811,-0.079775 -0.251375,0.00129 -0.463091,0.00834 -0.470479,0.015727 -0.01799,0.018018 0.03171,0.8447416 0.07738,1.2864576 0.04273,0.4133479 0.0183,0.7314786 -0.06675,0.8690924 -0.02712,0.043916 -0.05127,0.079855 -0.05361,0.079855 -0.0023,0 -0.0371,0.00928 -0.07719,0.020607 -0.04011,0.011337 -0.08937,0.016016 -0.109463,0.010396 z M 10.631202,4.0466085 C 10.375851,4.0217965 10.194139,3.9809763 10.121038,3.931993 10.086771,3.9090221 10.018158,3.8680251 9.9685937,3.8408919 9.7948697,3.745781 9.6629407,3.5493781 9.6079477,3.3040023 c -0.01574,-0.070183 -0.05362,-0.14238 -0.09804,-0.1868053 -0.08609,-0.086089 -0.09692,-0.2087615 -0.02724,-0.3085155 0.02484,-0.035562 0.05233,-0.1189074 0.0611,-0.1852046 0.0353,-0.2672395 0.234867,-0.7244208 0.4863443,-1.1142405 0.269357,-0.4175416 0.528365,-0.53688953 0.733552,-0.3380141 0.146794,0.1422772 0.208621,0.5195852 0.136185,0.8310587 -0.05904,0.2538687 -0.325018,0.6601773 -0.619107,0.9457445 l -0.210093,0.2040073 0.02423,0.089916 c 0.05856,0.21749 0.36983,0.3425377 0.852637,0.3425377 0.291326,0 0.595169,-0.1574184 0.732389,-0.379447 0.05746,-0.092972 0.159012,-0.1565051 0.25016,-0.1565051 0.07192,0 0.183271,0.083924 0.212159,0.1599037 0.05161,0.1357435 -0.109367,0.3989783 -0.359244,0.5874535 -0.211869,0.1598023 -0.358976,0.2197823 -0.615164,0.2508166 -0.222298,0.026927 -0.258481,0.026919 -0.536589,-9.32e-5 z m -0.332043,-1.906413 c 0.0629,-0.1043233 0.120392,-0.2249127 0.127766,-0.2679752 l 0.01341,-0.078296 -0.04925,0.0608 c -0.05268,0.065013 -0.296141,0.5337739 -0.295943,0.5697948 1.95e-4,0.03315 0.07801,-0.075288 0.20403,-0.2843185 z M 5.0749287,3.9274189 c -0.08499,-0.084989 -0.09583,-0.2146847 -0.02632,-0.314811 0.04111,-0.059216 0.04428,-0.1138831 0.0376,-0.6493374 -0.004,-0.3215704 -0.0078,-0.603858 -0.0083,-0.6273057 -9.65e-4,-0.037676 -0.02924,-0.042629 -0.243575,-0.042629 -0.182765,0 -0.29532,-0.014698 -0.456777,-0.05965 -0.117836,-0.032812 -0.276729,-0.071839 -0.353095,-0.086736 -0.183984,-0.035891 -0.287478,-0.1445485 -0.287478,-0.3018229 0,-0.187742 0.183345,-0.2953835 0.348751,-0.2047511 0.102361,0.056088 0.590949,0.1688459 0.793053,0.183024 l 0.203891,0.014304 -0.01816,-0.3020432 c -0.01,-0.1661227 -0.01835,-0.57610783 -0.01857,-0.91107723 -3.67e-4,-0.4837481 -0.0074,-0.6171133 -0.03421,-0.6483095 -0.0732,-0.085076 -0.08263,-0.1916058 -0.02818,-0.31817531 0.06635,-0.1542322 0.14413,-0.21504292 0.275062,-0.21504292 0.117921,0 0.192948,0.0627763 0.235544,0.19708127 0.01597,0.0503132 0.02934,0.40013446 0.03392,0.88700026 0.0041,0.4421596 0.01494,0.89436773 0.02399,1.00490853 0.01865,0.2284874 -0.0031,0.2148665 0.280004,0.1765838 0.100493,-0.013596 0.299995,-0.040627 0.44334,-0.060068 0.200877,-0.027248 0.294707,-0.029347 0.409289,-0.00916 0.08177,0.0144 0.151963,0.022175 0.15599,0.017278 0.004,-0.0049 -0.01287,-0.233646 -0.03759,-0.5083208 -0.02468,-0.27467353 -0.05499,-0.61999943 -0.06734,-0.76738533 -0.01234,-0.1473847 -0.04099,-0.3535432 -0.06367,-0.4581238 -0.05088,-0.23462577 -0.03442,-0.37737913 0.05364,-0.46545452 0.08258,-0.0825788 0.222106,-0.0862765 0.3111,-0.008232 0.07472,0.0655156 0.175317,0.39032002 0.208332,0.67265652 0.02499,0.2136014 0.102585,0.7234081 0.156275,1.02655083 0.02017,0.1138894 0.05969,0.3386233 0.0878,0.4994081 0.02812,0.1607857 0.05906,0.3003974 0.06874,0.3102482 0.0097,0.00985 0.07436,-0.020293 0.1437,-0.066991 0.06934,-0.046698 0.131505,-0.084905 0.138144,-0.084905 0.0067,0 0.06463,-0.030577 0.128859,-0.067948 0.06423,-0.037371 0.199567,-0.103676 0.30074,-0.147344 0.1697,-0.073246 0.196806,-0.078078 0.349846,-0.0624 0.200182,0.02051 0.361597,0.116546 0.446251,0.2655093 0.07001,0.1231976 0.191288,0.511472 0.224471,0.7186617 0.03879,0.2422055 0.03289,0.6463336 -0.01066,0.7305724 -0.134917,0.2609022 -0.499549,0.1474493 -0.499549,-0.1554333 0,-0.04677 0.01249,-0.092748 0.02773,-0.1021749 0.0191,-0.011811 0.02357,-0.086845 0.01437,-0.2414112 -0.01566,-0.2623422 -0.139537,-0.7042263 -0.204417,-0.7291228 -0.07683,-0.029483 -0.340918,0.091296 -0.714671,0.3268424 -0.238562,0.1503462 -0.327677,0.1950884 -0.388572,0.1950884 -0.06202,0 -0.06295,0.033278 -0.01066,0.3829541 0.06527,0.4366346 0.01658,0.6822911 -0.148987,0.7514642 -0.109864,0.045902 -0.218318,0.02088 -0.29271,-0.06753 -0.06572,-0.078103 -0.07578,-0.1538831 -0.03292,-0.2479415 0.02029,-0.044559 0.02048,-0.1229484 7.41e-4,-0.299574 -0.03293,-0.2938333 -0.09727,-0.7773294 -0.11477,-0.8624197 l -0.01295,-0.06289 -0.333934,0.00466 c -0.183665,0.00257 -0.421638,0.01719 -0.528826,0.032515 -0.107191,0.015317 -0.255188,0.036068 -0.328881,0.046103 l -0.133988,0.018251 -7.41e-4,0.7429672 c -3.82e-4,0.6497829 -0.0058,0.7525327 -0.04175,0.819239 -0.11146,0.2068745 -0.323386,0.2681497 -0.458862,0.1326723 z M 13.623536,3.8152002 c -0.07598,-0.041262 -0.127028,-0.1728435 -0.103473,-0.2667017 0.02178,-0.08679 0.220675,-0.2411699 0.381154,-0.295853 0.07873,-0.026822 0.202009,-0.044141 0.318683,-0.04476 0.13813,-7.276e-4 0.179123,-0.00764 0.149553,-0.025367 -0.102865,-0.061516 -0.49601,-0.407414 -0.584629,-0.5143689 -0.16031,-0.1934795 -0.196462,-0.2556061 -0.260642,-0.4479061 -0.0834,-0.2498864 -0.102846,-0.445474 -0.05867,-0.5900498 0.0497,-0.1626871 0.192163,-0.3465399 0.315142,-0.4067189 0.05653,-0.027666 0.135681,-0.072259 0.175878,-0.099098 0.235921,-0.15752273 0.498833,0.057499 0.374579,0.3063484 -0.01398,0.02802 -0.09483,0.091546 -0.179657,0.1411643 -0.08482,0.049616 -0.165235,0.1034903 -0.178701,0.1197154 -0.09498,0.1144435 -0.01601,0.4182306 0.166767,0.6413519 0.121056,0.1478015 0.363923,0.3565051 0.563396,0.4841409 0.127455,0.081558 0.441299,0.3207158 0.527993,0.4023464 0.07434,0.069998 0.102043,0.1484334 0.102043,0.2889143 0,0.096345 -0.01253,0.1284238 -0.07531,0.1926168 -0.103415,0.1057753 -0.204587,0.1194397 -0.49719,0.067152 -0.473661,-0.08465 -0.512498,-0.089487 -0.604169,-0.075248 -0.05093,0.00788 -0.150469,0.047051 -0.221222,0.086981 -0.142041,0.080161 -0.21397,0.088322 -0.311528,0.035337 z M 12.37304,3.6721255 C 12.265835,3.6248009 12.209818,3.550265 12.209818,3.454929 c 0,-0.1093661 0.03862,-0.1781468 0.125157,-0.2228954 0.07883,-0.040764 0.07973,-0.071445 0.01222,-0.4167391 -0.01853,-0.094785 -0.05526,-0.3030755 -0.08162,-0.4628657 -0.02636,-0.1597927 -0.06503,-0.3707259 -0.08594,-0.4687432 -0.0694,-0.3252721 -0.04378,-0.4603202 0.100271,-0.5286761 0.06796,-0.032251 0.0981,-0.034256 0.16802,-0.011182 0.112828,0.037237 0.154893,0.1078727 0.183179,0.3076107 0.01291,0.091183 0.03381,0.2043957 0.04646,0.2515821 0.01265,0.047188 0.04586,0.2337882 0.07382,0.414672 0.02796,0.1808829 0.06806,0.3918008 0.0891,0.4687045 0.04997,0.1826172 0.03534,0.6270492 -0.02438,0.7413536 -0.0846,0.1619056 -0.267973,0.2216596 -0.443064,0.1443739 z M 12.30283,0.60423187 c -0.169551,-0.095718 -0.220973,-0.176742 -0.20199,-0.3182784 0.02808,-0.2093124 0.218589,-0.2691562 0.434305,-0.1364242 0.06533,0.040199 0.127666,0.073084 0.138527,0.073084 0.01085,0 0.04608,0.028023 0.07825,0.062278 0.08314,0.088496 0.08054,0.2323895 -0.0057,0.3186925 -0.10267,0.1026682 -0.262197,0.1029027 -0.443331,6.788e-4 z"
       id="path1537" />
  </g>
</svg>
