<?xml version="1.0" encoding="UTF-8" standalone="no"?>
<!-- Created with Inkscape (http://www.inkscape.org/) -->

<svg
   width="158.81891"
   height="32.145905"
   viewBox="0 0 21.010416 4.2526351"
   version="1.1"
   id="svg5"
   inkscape:version="1.1.1 (3bf5ae0d25, 2021-09-20)"
   sodipodi:docname="things_i_like.svg"
   xmlns:inkscape="http://www.inkscape.org/namespaces/inkscape"
   xmlns:sodipodi="http://sodipodi.sourceforge.net/DTD/sodipodi-0.dtd"
   xmlns="http://www.w3.org/2000/svg"
   xmlns:svg="http://www.w3.org/2000/svg">
  <sodipodi:namedview
     id="namedview7"
     pagecolor="#ffffff"
     bordercolor="#666666"
     borderopacity="1.0"
     inkscape:pageshadow="2"
     inkscape:pageopacity="0.0"
     inkscape:pagecheckerboard="0"
     inkscape:document-units="mm"
     showgrid="false"
     inkscape:zoom="2.8578563"
     inkscape:cx="97.975534"
     inkscape:cy="30.267442"
     inkscape:window-width="1920"
     inkscape:window-height="991"
     inkscape:window-x="-9"
     inkscape:window-y="-9"
     inkscape:window-maximized="1"
     inkscape:current-layer="layer1"
     fit-margin-top="0"
     fit-margin-left="0"
     fit-margin-right="0"
     fit-margin-bottom="0"
     units="px" />
  <defs
     id="defs2" />
  <g
     inkscape:label="Capa 1"
     inkscape:groupmode="layer"
     id="layer1"
     transform="translate(83.564536,11.118815)">
    <path
       style="fill:#414141;fill-opacity:1;stroke-width:0.0170138"
       d="m -77.269443,-6.8752306 c -0.126409,-0.017456 -0.266895,-0.073877 -0.327335,-0.1314608 -0.132604,-0.1263313 -0.131849,-0.3621594 0.0012,-0.3621594 0.05528,0 0.104998,0.059169 0.104998,0.1249662 0,0.1069884 0.127498,0.1667607 0.357758,0.1677165 0.13182,5.531e-4 0.156713,-0.00495 0.272221,-0.060015 0.25866,-0.1233285 0.369401,-0.2876654 0.386089,-0.572943 0.01364,-0.2322544 -0.07073,-0.4795376 -0.209325,-0.6138631 l -0.05852,-0.056712 -0.02919,0.041799 c -0.05283,0.075666 -0.106289,0.1142546 -0.186133,0.1343606 -0.100211,0.025234 -0.236255,0.00866 -0.321532,-0.039178 -0.200145,-0.1122672 -0.21217,-0.4104557 -0.01455,-0.3608571 0.03141,0.00788 0.04554,0.028214 0.0603,0.086865 0.02154,0.085574 0.02792,0.091812 0.11389,0.1111967 0.08845,0.019949 0.146815,0.00265 0.179871,-0.053306 0.03287,-0.055634 0.0326,-0.055785 -0.125511,-0.073367 -0.0808,-0.00898 -0.153428,-0.069033 -0.152871,-0.1264067 6.27e-4,-0.063628 0.07674,-0.1631729 0.15594,-0.2039192 0.07004,-0.036037 0.08685,-0.038608 0.139305,-0.021298 0.08897,0.029361 0.146754,0.082237 0.188608,0.1725745 0.02063,0.044522 0.08666,0.1311866 0.146738,0.1925884 0.133039,0.1359622 0.21869,0.273714 0.272681,0.438522 0.05366,0.1637816 0.05804,0.4802275 0.0087,0.6262052 -0.04999,0.1478751 -0.119969,0.2574802 -0.217755,0.3410979 -0.230309,0.1969292 -0.475085,0.2749363 -0.745531,0.2375906 z m -3.495291,-0.9745373 c -0.04565,-0.069683 -0.07976,-0.1894773 -0.06962,-0.2445141 0.0054,-0.029363 0.02901,-0.072553 0.05244,-0.095977 0.03332,-0.033321 0.04481,-0.066287 0.05276,-0.1515029 0.0094,-0.1008289 0.0041,-0.1934638 -0.04719,-0.8050281 -0.01074,-0.1289265 -0.0284,-0.2368835 -0.04223,-0.2588312 -0.01306,-0.020708 -0.03125,-0.089614 -0.04041,-0.1531236 -0.01958,-0.1354037 -0.02238,-0.4304441 -0.0044,-0.4574542 0.02785,-0.04171 0.08559,-0.05869 0.130297,-0.03833 0.05002,0.02279 0.05237,0.02917 0.07773,0.210169 0.01044,0.074868 0.02626,0.1820478 0.03503,0.2381923 0.02434,0.1556468 0.08417,0.7794774 0.08443,0.8804474 1.41e-4,0.049136 0.0049,0.1066286 0.01059,0.1277616 0.0096,0.035622 0.01364,0.033143 0.05711,-0.034028 0.08347,-0.1292021 0.245504,-0.2510961 0.333776,-0.2510961 0.112237,0 0.200471,0.1139181 0.250365,0.3232616 0.01451,0.060824 0.0461,0.1948076 0.07022,0.297741 0.02412,0.1029337 0.05141,0.2004458 0.06064,0.2166947 0.02694,0.047459 0.01958,0.089485 -0.0226,0.1291223 -0.05592,0.052543 -0.132314,0.04664 -0.164054,-0.012679 -0.0084,-0.01576 -0.04655,-0.1660691 -0.08469,-0.3340204 -0.07413,-0.3263479 -0.0969,-0.3989418 -0.125191,-0.3989418 -0.02909,0 -0.153453,0.1401502 -0.196946,0.2219523 -0.02217,0.041684 -0.06618,0.126826 -0.0978,0.189206 -0.03162,0.062379 -0.06531,0.11602 -0.07485,0.1191999 -0.0096,0.00318 -0.02153,0.047845 -0.02663,0.099255 -0.01848,0.1860177 -0.03998,0.2210755 -0.135534,0.2210755 -0.04145,0 -0.06513,-0.010981 -0.08321,-0.03856 z m -1.245168,0.00479 c -0.01987,-0.00802 -0.0449,-0.039684 -0.05558,-0.070343 -0.01131,-0.032339 -0.02663,-0.2811265 -0.0366,-0.5925649 -0.0094,-0.2952515 -0.02851,-0.651664 -0.04236,-0.7920277 -0.01393,-0.1403634 -0.03309,-0.3700503 -0.04274,-0.5104137 -0.0096,-0.1403649 -0.02588,-0.3040888 -0.03605,-0.3638338 l -0.01852,-0.108624 -0.376412,0.0094 c -0.416641,0.01044 -0.686645,0.05069 -0.774051,0.115298 -0.08206,0.06068 -0.172321,0.01305 -0.172321,-0.0909 0,-0.131748 0.325359,-0.212723 0.927051,-0.230743 0.356678,-0.01074 0.37434,-0.01277 0.379219,-0.04523 0.0132,-0.08797 0.0236,-0.109248 0.05913,-0.121303 0.08124,-0.02756 0.148831,0.02061 0.148831,0.106086 v 0.05607 l 0.208419,-0.0084 c 0.307828,-0.01233 0.387682,-0.0228 0.398945,-0.05215 0.03936,-0.102575 0.294367,-0.01918 0.294367,0.09625 0,0.110612 -0.08266,0.134388 -0.531424,0.152856 -0.186243,0.0077 -0.341716,0.01703 -0.345497,0.02082 -0.0038,0.0038 -1.01e-4,0.03323 0.0081,0.06547 0.0083,0.03222 0.02354,0.192575 0.03393,0.3563332 0.01044,0.1637566 0.02988,0.4125838 0.04335,0.5529474 0.01349,0.1403634 0.03284,0.4539743 0.04308,0.6969123 0.01088,0.2586802 0.0261,0.4507417 0.0367,0.4635124 0.01059,0.012708 0.01509,0.068949 0.01088,0.1347813 -0.0058,0.092344 -0.01436,0.1187749 -0.04641,0.1447299 -0.04288,0.034726 -0.05978,0.036947 -0.114122,0.014998 z m 5.99594,-0.021525 c -0.01487,-0.011692 -0.03219,-0.03855 -0.03847,-0.059671 -0.01262,-0.042684 0.02636,-0.08675 0.168029,-0.189621 0.123813,-0.089907 0.13021,-0.1149814 0.04789,-0.1876472 -0.329953,-0.2912571 -0.362166,-0.3297767 -0.385794,-0.4613282 -0.02164,-0.1204722 0.07934,-0.3559505 0.20922,-0.4879062 0.07088,-0.072013 0.111831,-0.087809 0.240831,-0.092904 0.116647,-0.0046 0.157398,0.020872 0.157398,0.098415 0,0.064954 -0.05888,0.108819 -0.146502,0.109144 -0.03875,1.362e-4 -0.08021,0.00647 -0.09215,0.014042 -0.03438,0.021822 -0.139074,0.1926719 -0.156318,0.2551051 -0.02959,0.1071508 0.0046,0.1553677 0.256924,0.362377 0.146409,0.1201109 0.166068,0.1429108 0.183737,0.2130807 0.01821,0.072318 0.01622,0.085509 -0.02486,0.165547 -0.02724,0.053063 -0.07839,0.1135003 -0.131197,0.1550237 -0.156654,0.1231704 -0.232013,0.1509242 -0.288734,0.106337 z m -3.432008,-0.057589 c -0.0498,-0.063311 -0.04561,-0.1317219 0.01088,-0.1760964 0.04005,-0.031502 0.04767,-0.052855 0.0582,-0.1632212 0.0075,-0.079258 0.0036,-0.1923076 -0.01044,-0.3008134 -0.02381,-0.1830411 -0.0177,-0.2186833 0.04303,-0.2511802 0.04954,-0.026515 0.121217,0.013259 0.138682,0.076945 0.03071,0.1120133 0.0462,0.3610441 0.03138,0.5044378 -0.02895,0.2802017 -0.16916,0.4401883 -0.271623,0.3099287 z m 0.789921,-0.108278 c -0.02794,-0.030868 -0.02968,-0.056404 -0.01884,-0.2764737 0.0065,-0.1333553 0.01629,-0.3457615 0.02163,-0.4720144 0.01073,-0.2549255 0.02177,-0.3008354 0.07714,-0.3213145 0.09634,-0.035638 0.141569,0.022286 0.174041,0.2228963 0.02211,0.1365467 0.06371,0.2514841 0.091,0.2513432 0.02067,-1.021e-4 0.119896,-0.064732 0.235926,-0.1536659 0.123625,-0.094751 0.201574,-0.1101507 0.260301,-0.051425 0.04963,0.049621 0.100486,0.2361054 0.119693,0.4388858 0.01918,0.2023305 0.0051,0.2426543 -0.08434,0.2426543 -0.07841,0 -0.119432,-0.062912 -0.119432,-0.1831573 0,-0.1149118 -0.02926,-0.2762146 -0.05011,-0.2762146 -0.0073,0 -0.04303,0.023971 -0.07941,0.053268 -0.08244,0.066396 -0.222531,0.1335309 -0.278813,0.1336121 -0.02339,3.4e-5 -0.06473,-0.011518 -0.09186,-0.025659 -0.02713,-0.014144 -0.05224,-0.022807 -0.05579,-0.019246 -0.0035,0.00355 -0.01102,0.097487 -0.01674,0.208723 -0.01117,0.2214198 -0.02787,0.2617971 -0.107841,0.2617971 -0.02517,0 -0.05961,-0.015306 -0.07655,-0.03401 z m 13.811787,-0.055944 c -0.272723,-0.1129998 -0.384931,-0.2494237 -0.407956,-0.4959995 -0.01103,-0.1187023 0.0087,-0.2274938 0.07462,-0.4093515 0.101618,-0.2805243 0.233225,-0.4434082 0.397727,-0.4922604 0.162617,-0.048292 0.250632,-0.027176 0.359342,0.086203 0.168411,0.1756448 0.127382,0.3950544 -0.115355,0.6169026 -0.09637,0.088081 -0.291554,0.1922252 -0.41985,0.224027 -0.04445,0.011011 -0.08082,0.029458 -0.08082,0.040979 0,0.011518 0.02359,0.053504 0.05241,0.093294 0.03997,0.05517 0.08325,0.086601 0.182362,0.1323892 0.128847,0.05953 0.131487,0.059966 0.309135,0.050914 0.115066,-0.00586 0.198217,-0.018909 0.232383,-0.036463 0.02926,-0.015033 0.106797,-0.084664 0.172285,-0.1547348 0.0655,-0.070071 0.132009,-0.1274004 0.147827,-0.1274004 0.04937,0 0.0902,0.031318 0.101966,0.078221 0.01407,0.056345 -0.03869,0.1367295 -0.1758,0.2675167 -0.14663,0.13986 -0.221443,0.1674675 -0.477622,0.1762497 -0.211162,0.00724 -0.214494,0.00676 -0.352665,-0.050487 z m 0.03574,-0.7503533 c 0.102895,-0.060301 0.176302,-0.1242452 0.233881,-0.2037282 0.06412,-0.088519 0.06399,-0.1597617 -4.3e-4,-0.2214726 -0.04211,-0.04035 -0.05771,-0.04524 -0.111802,-0.03509 -0.08211,0.015405 -0.149294,0.073613 -0.211022,0.1828327 -0.046,0.081378 -0.138653,0.3168448 -0.138653,0.3523457 0,0.022352 0.14125,-0.02404 0.228024,-0.074888 z m -2.922985,0.7401313 c -0.03347,-0.036986 -0.03319,-0.032155 -0.01738,-0.2929497 0.01452,-0.239602 -0.01262,-0.4838535 -0.0712,-0.6393269 -0.03593,-0.095466 -0.03853,-0.1159606 -0.01967,-0.155303 0.02337,-0.048764 0.06054,-0.063077 0.123029,-0.047391 0.08914,0.022372 0.179209,0.3919134 0.178725,0.7332435 -3.21e-4,0.2262432 -0.02402,0.3847773 -0.06162,0.4122751 -0.04245,0.031037 -0.09828,0.02657 -0.131864,-0.010546 z m 4.988608,-0.034805 c -0.04545,-0.035753 -0.07452,-0.1309792 -0.05692,-0.1864403 0.01378,-0.043228 0.08521,-0.072519 0.132372,-0.054234 0.02109,0.00818 0.05743,0.05029 0.08074,0.09358 0.03953,0.0734 0.04065,0.081843 0.01648,0.1250997 -0.03361,0.060142 -0.111555,0.070072 -0.172681,0.021993 z m -4.120906,-0.1013062 c -0.03947,-0.043611 -0.03995,-0.085513 -0.0019,-0.1647291 0.02734,-0.056958 0.03316,-0.118521 0.03925,-0.4156431 0.0071,-0.3470365 -0.01364,-0.6817729 -0.04465,-0.7200352 -0.02894,-0.035686 -0.03149,-0.086995 -0.0068,-0.1371445 0.01561,-0.03174 0.02045,-0.073736 0.01378,-0.1190983 -0.0057,-0.038529 -0.02173,-0.2379047 -0.03563,-0.4430387 -0.01897,-0.280107 -0.03162,-0.37999 -0.05079,-0.401162 -0.0434,-0.04796 -0.02304,-0.207572 0.03084,-0.241832 0.03625,-0.02305 0.1079,-0.01407 0.136086,0.0171 0.0423,0.04674 0.05983,0.164856 0.08788,0.591949 0.03489,0.5311378 0.03825,0.5530034 0.0835,0.5433813 0.0198,-0.00421 0.124045,-0.015885 0.23166,-0.025938 0.107609,-0.010009 0.267539,-0.034656 0.35539,-0.05466 0.142947,-0.032553 0.164402,-0.033771 0.204166,-0.011605 0.05076,0.028346 0.06782,0.1090743 0.03242,0.1534091 -0.01204,0.015159 -0.07469,0.040386 -0.139059,0.056039 -0.105361,0.025618 -0.518566,0.077378 -0.621441,0.077842 -0.03737,1.697e-4 -0.0387,0.00276 -0.01535,0.029956 0.04256,0.049553 0.04657,0.082152 0.0217,0.1764192 -0.0224,0.084888 -0.02157,0.094687 0.01393,0.1662682 0.04677,0.09439 0.28966,0.3377467 0.43751,0.4383439 0.187251,0.1274048 0.228161,0.1558973 0.27222,0.1895873 0.08172,0.062485 0.148563,0.086621 0.265251,0.095775 0.09213,0.00722 0.124002,0.017044 0.147333,0.045386 0.04034,0.049004 0.0375,0.077263 -0.01291,0.1276166 -0.03685,0.036851 -0.05588,0.042104 -0.140365,0.038744 -0.166855,-0.00664 -0.220702,-0.029293 -0.449378,-0.1890607 -0.04368,-0.030522 -0.131733,-0.091624 -0.195658,-0.1357866 -0.06393,-0.044162 -0.179142,-0.1403548 -0.256029,-0.2137613 l -0.139799,-0.1334656 -0.0083,0.069144 c -0.0046,0.038029 -0.01277,0.1418779 -0.01809,0.2307752 -0.01015,0.1682746 -0.04564,0.3105303 -0.09013,0.3615425 -0.03418,0.039178 -0.110105,0.037961 -0.146577,-0.00235 z m -1.896285,-0.029307 c -0.03801,-0.026622 -0.03879,-0.032574 -0.02761,-0.2084187 0.01262,-0.1994258 -0.0054,-0.4653157 -0.06944,-1.0231963 -0.02311,-0.2011889 -0.04951,-0.4347029 -0.05866,-0.5189209 -0.01731,-0.15916 -0.04011,-0.358181 -0.06892,-0.601691 -0.0093,-0.07828 -0.02814,-0.158455 -0.04197,-0.178176 -0.02871,-0.04098 -0.0336,-0.190896 -0.0084,-0.25717 0.02479,-0.06521 0.0976,-0.08758 0.15225,-0.04678 0.05337,0.03985 0.05717,0.05798 0.111018,0.530871 0.02397,0.210546 0.05932,0.520621 0.07854,0.6890578 0.138595,1.2144177 0.149199,1.5099729 0.05749,1.6016784 -0.04732,0.04732 -0.0714,0.049791 -0.124291,0.012751 z m -4.340384,-0.086283 c -0.01973,-0.025098 -0.03178,-0.056349 -0.02675,-0.069447 0.0051,-0.013099 0.0091,-0.030117 0.0091,-0.03782 0,-0.036533 0.155066,-0.099863 0.306249,-0.1250721 0.297016,-0.049527 0.364915,-0.062236 0.510412,-0.095541 0.07954,-0.018207 0.165496,-0.03349 0.191014,-0.033961 0.02948,-5.449e-4 0.05608,-0.015648 0.07298,-0.041436 0.02427,-0.037036 0.02347,-0.065619 -0.0091,-0.3275149 -0.01964,-0.1578154 -0.05002,-0.3596708 -0.06749,-0.4485668 -0.01747,-0.088896 -0.04826,-0.2496771 -0.06841,-0.3572892 -0.02016,-0.1076092 -0.05465,-0.2683929 -0.07664,-0.3572889 -0.04747,-0.191823 -0.08373,-0.430555 -0.07175,-0.4722 0.0046,-0.01635 0.01407,-0.04324 0.02092,-0.05978 0.01161,-0.02811 -0.0059,-0.02985 -0.269863,-0.02675 -0.252586,0.0029 -0.28585,4.5e-5 -0.316687,-0.02787 -0.01895,-0.01715 -0.03445,-0.05177 -0.03445,-0.07694 0,-0.09316 0.01728,-0.09661 0.54142,-0.108392 0.26503,-0.0059 0.495876,-0.01832 0.512989,-0.02748 0.04699,-0.02514 0.134505,0.01117 0.147009,0.06101 0.01451,0.05752 -0.0051,0.121854 -0.04327,0.142265 -0.01783,0.0096 -0.09743,0.01855 -0.176879,0.02005 l -0.144456,0.0028 -0.01117,0.06126 c -0.0179,0.0984 -0.01044,0.203827 0.02576,0.367509 0.129514,0.5843974 0.271478,1.4245252 0.271478,1.6066553 v 0.047795 l 0.08082,-0.016958 c 0.119606,-0.025098 0.541096,-0.024442 0.650563,0.00101 0.116241,0.027029 0.187366,0.089861 0.187366,0.1655002 0,0.1014614 -0.09267,0.1406028 -0.176598,0.074587 -0.07063,-0.05556 -0.244928,-0.07413 -0.473106,-0.050404 -0.105868,0.01101 -0.280524,0.027126 -0.388136,0.035819 -0.107609,0.00869 -0.249252,0.027609 -0.314755,0.042031 -0.22429,0.049386 -0.340398,0.071643 -0.484892,0.092946 -0.07954,0.011721 -0.168489,0.035695 -0.197667,0.053262 -0.07516,0.045249 -0.133228,0.040733 -0.176034,-0.013694 z m 10.222938,-1.0822082 c -0.04693,-0.031629 -0.05781,-0.049941 -0.05781,-0.097327 0,-0.066324 0.04707,-0.1012264 0.137116,-0.1016615 0.08137,-3.903e-4 0.117314,0.03602 0.117314,0.1188517 0,0.1182294 -0.0873,0.1538095 -0.196622,0.080137 z m -16.612212,-0.032413 c -0.04596,-0.02606 -0.05898,-0.048112 -0.05929,-0.1003821 -2.83e-4,-0.048829 0.03028,-0.081643 0.116937,-0.1255973 0.06895,-0.034961 0.127527,-0.016508 0.157684,0.049699 0.02373,0.052107 -0.01117,0.1134988 -0.09291,0.1633261 -0.06244,0.038071 -0.07565,0.039469 -0.12242,0.012954 z m 11.489826,-0.3706988 c -0.04593,-0.028302 -0.06735,-0.1187067 -0.05008,-0.2111939 0.01858,-0.09943 0.051,-0.135041 0.122957,-0.135041 0.06016,0 0.117257,0.05398 0.117257,0.110859 0,0.01835 0.01146,0.04484 0.02552,0.05888 0.04065,0.040647 0.03209,0.1200839 -0.01636,0.1518314 -0.05247,0.03438 -0.161604,0.047886 -0.199284,0.024661 z"
       id="path1281" />
  </g>
</svg>
