<?xml version="1.0" encoding="UTF-8" standalone="no"?>
<!-- Created with Inkscape (http://www.inkscape.org/) -->

<svg
   width="26.921312mm"
   height="6.4776149mm"
   viewBox="0 0 26.921312 6.4776148"
   version="1.1"
   id="svg5"
   inkscape:version="1.1.1 (3bf5ae0d25, 2021-09-20)"
   sodipodi:docname="more-games.svg"
   xmlns:inkscape="http://www.inkscape.org/namespaces/inkscape"
   xmlns:sodipodi="http://sodipodi.sourceforge.net/DTD/sodipodi-0.dtd"
   xmlns="http://www.w3.org/2000/svg"
   xmlns:svg="http://www.w3.org/2000/svg">
  <sodipodi:namedview
     id="namedview7"
     pagecolor="#ffffff"
     bordercolor="#666666"
     borderopacity="1.0"
     inkscape:pageshadow="2"
     inkscape:pageopacity="0.0"
     inkscape:pagecheckerboard="0"
     inkscape:document-units="mm"
     showgrid="false"
     fit-margin-top="0"
     fit-margin-left="0"
     fit-margin-right="0"
     fit-margin-bottom="0"
     inkscape:zoom="0.71446409"
     inkscape:cx="132.9668"
     inkscape:cy="88.877805"
     inkscape:window-width="1920"
     inkscape:window-height="991"
     inkscape:window-x="-9"
     inkscape:window-y="-9"
     inkscape:window-maximized="1"
     inkscape:current-layer="layer1" />
  <defs
     id="defs2" />
  <g
     inkscape:label="Capa 1"
     inkscape:groupmode="layer"
     id="layer1"
     transform="translate(-51.295893,-63.785757)">
    <path
       style="fill:#000000;stroke-width:0.0207079"
       d="m 63.476887,70.244266 c -0.127861,-0.02517 -0.329419,-0.108712 -0.608849,-0.252371 -0.200953,-0.103318 -0.260856,-0.145606 -0.347752,-0.245519 -0.145552,-0.167337 -0.193858,-0.283076 -0.194613,-0.466274 -5.28e-4,-0.157262 0.02052,-0.204559 0.106103,-0.2371 0.05578,-0.0212 0.14553,0.0076 0.184876,0.0594 0.01482,0.0195 0.02724,0.08668 0.02765,0.149321 0.0014,0.195236 0.116272,0.329692 0.404877,0.47334 0.399613,0.198893 0.60233,0.251409 0.814021,0.210875 0.237793,-0.04553 0.385822,-0.219424 0.445217,-0.523008 0.127368,-0.651076 0.06786,-1.386874 -0.156166,-1.931738 -0.04008,-0.09753 -0.05963,-0.122863 -0.09069,-0.117812 -0.355404,0.05777 -0.5804,-0.02542 -0.792228,-0.292928 -0.132164,-0.166899 -0.168875,-0.241901 -0.168875,-0.345011 0,-0.244903 0.347712,-0.252022 0.360201,-0.0074 0.0048,0.09309 0.07107,0.188525 0.19033,0.273912 0.06608,0.04729 0.22945,0.09213 0.262132,0.07193 0.04591,-0.02836 -0.164627,-0.264377 -0.265501,-0.297671 -0.132143,-0.04361 -0.179139,-0.198014 -0.08641,-0.283905 0.06533,-0.0605 0.323874,-0.09821 0.462392,-0.06743 0.295748,0.06571 0.473103,0.367216 0.371892,0.632236 l -0.03547,0.09293 0.0739,0.18092 c 0.178522,0.436971 0.259998,0.857872 0.260677,1.346555 6.87e-4,0.65861 -0.09706,1.092754 -0.298849,1.324401 -0.09595,0.110149 -0.283293,0.221321 -0.423705,0.251432 -0.122853,0.02635 -0.36359,0.02678 -0.49515,7.54e-4 z m 7.794693,-1.801738 c -0.05263,-0.06253 -0.06628,-0.127675 -0.04076,-0.194209 0.01688,-0.04396 0.127306,-0.100379 0.166816,-0.08522 0.08562,0.03286 0.484246,-0.103783 0.592771,-0.203189 0.08773,-0.08035 0.09735,-0.150316 0.04679,-0.34023 -0.03507,-0.131671 -0.05112,-0.157349 -0.245505,-0.39154 -0.186022,-0.224147 -0.341077,-0.453868 -0.473035,-0.700846 -0.08672,-0.1623 -0.100709,-0.204907 -0.100709,-0.306767 0,-0.09798 0.0087,-0.127016 0.05084,-0.169118 0.07468,-0.07468 0.219,-0.07084 0.339396,0.009 0.099,0.06568 0.196753,0.174551 0.218368,0.243204 0.01983,0.06302 -0.0282,0.154263 -0.09627,0.182893 l -0.05812,0.02444 0.11866,0.174488 c 0.06526,0.09597 0.180141,0.246775 0.255278,0.335132 0.25199,0.296327 0.339175,0.500355 0.338406,0.79192 -5.28e-4,0.185174 -0.05036,0.286634 -0.20122,0.409539 -0.125014,0.101833 -0.243516,0.154205 -0.524127,0.231634 -0.257315,0.071 -0.319935,0.06919 -0.387557,-0.01117 z m 5.444349,-0.204706 c -0.05695,-0.0097 -0.144316,-0.03245 -0.194153,-0.0506 -0.07583,-0.02763 -0.198366,-0.03301 -0.751319,-0.03301 -0.612547,0 -0.669939,0.0031 -0.787453,0.0427 -0.207979,0.07006 -0.343204,0.0246 -0.384778,-0.129365 -0.01187,-0.0439 -0.0055,-0.262732 0.01695,-0.607054 0.01949,-0.296121 0.04632,-0.808644 0.05956,-1.138935 0.02223,-0.555213 0.05984,-0.916584 0.108724,-1.045132 0.09063,-0.238376 0.361003,-0.352989 0.831155,-0.352332 0.383269,5.26e-4 0.581697,0.07507 0.63574,0.238808 0.06313,0.191245 -0.125858,0.315537 -0.264362,0.173875 -0.05578,-0.05705 -0.08125,-0.06555 -0.258667,-0.08631 -0.166253,-0.01944 -0.223473,-0.01768 -0.368619,0.01145 -0.09451,0.01894 -0.19241,0.04795 -0.217566,0.06443 -0.07557,0.04951 -0.111654,0.270818 -0.135265,0.82956 -0.01153,0.273346 -0.03685,0.769297 -0.05627,1.102115 l -0.03527,0.605126 0.08284,-0.01495 c 0.04556,-0.0082 0.40432,-0.01432 0.797251,-0.01355 0.636638,0.0013 0.725704,0.0055 0.817967,0.03905 0.05695,0.0207 0.181754,0.04229 0.277344,0.04795 l 0.173809,0.01029 -0.0131,-0.204653 c -0.04028,-0.629872 -0.04103,-0.843948 -0.0034,-0.971039 0.02017,-0.06824 0.03952,-0.156662 0.04302,-0.196514 0.0041,-0.04975 0.02635,-0.09031 0.07009,-0.129424 0.0761,-0.06799 0.141626,-0.07226 0.21563,-0.01405 0.04508,0.03544 0.05455,0.0598 0.05455,0.139778 -7e-6,0.05327 -0.01969,0.148113 -0.04378,0.210754 -0.0542,0.141163 -0.0575,0.269071 -0.02127,0.841631 0.03829,0.605008 0.02759,0.625414 -0.335312,0.639081 -0.115785,0.0044 -0.25711,1.3e-5 -0.314055,-0.0097 z m -17.936058,-0.05165 c -0.312292,-0.09569 -0.675909,-0.471957 -0.776667,-0.803666 -0.087,-0.286429 -0.02052,-0.666777 0.165999,-0.949608 0.219906,-0.333469 0.462907,-0.539872 0.72884,-0.619071 0.119854,-0.0357 0.15491,-0.03826 0.250234,-0.01834 0.0937,0.0196 0.128843,0.04149 0.227116,0.141544 0.245959,0.250422 0.20964,0.441446 -0.121562,0.639415 -0.07681,0.04592 -0.17693,0.09293 -0.222485,0.104499 -0.258111,0.06551 -0.414998,0.08951 -0.541583,0.08284 l -0.139746,-0.0074 -0.02875,0.09319 c -0.01585,0.05125 -0.03026,0.163076 -0.03211,0.248494 -0.0027,0.128619 0.0061,0.174885 0.05057,0.269205 0.07481,0.158238 0.295466,0.389366 0.442082,0.463071 0.103351,0.05195 0.133673,0.0579 0.245848,0.04819 0.339217,-0.02936 0.566533,-0.113951 0.738557,-0.274865 0.07696,-0.07199 0.113143,-0.09144 0.170061,-0.09144 0.10401,0 0.149703,0.05805 0.143294,0.18208 -0.0071,0.136464 -0.380525,0.390748 -0.644688,0.43895 -0.07387,0.01347 -0.157614,0.03226 -0.186084,0.04172 -0.096,0.03193 -0.379144,0.03867 -0.46891,0.01116 z m 0.07255,-1.799563 c 0.170871,-0.04438 0.334235,-0.130594 0.334235,-0.176389 0,-0.0088 -0.02258,-0.03721 -0.05009,-0.06309 -0.04055,-0.03812 -0.06313,-0.04422 -0.119065,-0.03215 -0.108683,0.02346 -0.221751,0.08862 -0.33079,0.190619 -0.158411,0.14817 -0.135678,0.159282 0.165696,0.081 z m -7.500698,1.426905 c -0.06963,-0.06453 -0.07495,-0.177555 -0.01134,-0.241157 0.03556,-0.03556 0.0469,-0.08348 0.06249,-0.264025 0.01047,-0.121322 0.02334,-0.234562 0.02858,-0.251646 0.0052,-0.01707 0.01889,-0.161523 0.03035,-0.320974 0.06157,-0.857157 0.216186,-1.931514 0.333782,-2.31929 0.05175,-0.170617 0.228583,-0.525822 0.289012,-0.580508 0.02747,-0.02486 0.08442,-0.04125 0.163075,-0.04694 0.114753,-0.0083 0.124987,-0.005 0.202337,0.06487 0.147246,0.133027 0.304455,0.520292 0.407842,1.004663 0.115541,0.541331 0.173661,0.7541 0.201323,0.737003 0.03076,-0.01902 0.147367,-0.261402 0.278315,-0.578546 0.06584,-0.159451 0.14579,-0.352856 0.177676,-0.429787 0.21349,-0.515068 0.38414,-0.719504 0.600589,-0.719504 0.08159,0 0.201112,0.08187 0.248335,0.170105 0.09971,0.186313 0.12767,0.84691 0.06861,1.621132 -0.04487,0.588127 -0.05433,1.576744 -0.01534,1.600859 0.04549,0.02812 0.06924,0.123873 0.04593,0.185163 -0.06677,0.175616 -0.281006,0.236937 -0.354249,0.101399 -0.06068,-0.112285 -0.05664,-1.096885 0.0079,-1.928836 0.0495,-0.637956 0.0231,-1.429619 -0.04626,-1.386757 -0.05542,0.03425 -0.348512,0.65326 -0.46312,0.978096 -0.05911,0.167532 -0.238953,0.517805 -0.325234,0.633447 -0.08513,0.114092 -0.20374,0.199726 -0.27665,0.199726 -0.01779,0 -0.07353,-0.03797 -0.123876,-0.08437 -0.125241,-0.115445 -0.190119,-0.310594 -0.331807,-0.998043 -0.06852,-0.33243 -0.230623,-0.802015 -0.276868,-0.802015 -0.02686,0 -0.142675,0.258278 -0.186155,0.415153 -0.04109,0.148268 -0.100058,0.45481 -0.159145,0.827324 -0.03606,0.227364 -0.08418,0.679852 -0.133817,1.2584 -0.02176,0.253632 -0.04375,0.467958 -0.04886,0.476284 -0.0051,0.0083 -0.02036,0.140937 -0.03388,0.294695 -0.03215,0.365535 -0.06995,0.434866 -0.237009,0.434866 -0.04322,0 -0.0876,-0.01839 -0.122552,-0.05078 z m 19.199157,0.03051 c -0.226855,-0.04065 -0.432859,-0.202414 -0.542001,-0.425607 -0.07491,-0.153186 -0.09435,-0.39991 -0.04892,-0.620576 0.0164,-0.07973 0.0258,-0.183182 0.02079,-0.229903 -0.0082,-0.07631 -0.002,-0.09105 0.06176,-0.144955 0.03898,-0.03301 0.106378,-0.120577 0.149847,-0.19461 0.09443,-0.160832 0.26111,-0.34013 0.367282,-0.395093 0.131072,-0.06785 0.266935,-0.04814 0.354875,0.05149 0.106995,0.121205 0.153058,0.28748 0.116163,0.419272 -0.03136,0.111906 -0.178427,0.282072 -0.295412,0.341754 -0.116073,0.05921 -0.303378,0.119869 -0.372043,0.120477 -0.06697,5.26e-4 -0.08674,0.03897 -0.108114,0.210086 -0.01709,0.136835 0.0089,0.244466 0.08979,0.372056 0.102418,0.161497 0.293373,0.213774 0.52519,0.14378 0.118818,-0.03588 0.188993,-0.0082 0.222465,0.08783 0.03472,0.09964 -0.0089,0.161769 -0.154452,0.219849 -0.142483,0.05687 -0.248716,0.06897 -0.387255,0.04415 z m 0.01098,-1.473226 c 0.121062,-0.06219 0.195382,-0.179696 0.136624,-0.216008 -0.0269,-0.0166 -0.155157,0.101977 -0.197233,0.182301 -0.03266,0.06239 -0.01468,0.0724 0.06059,0.0337 z m -15.320064,1.267921 c -0.134599,-0.07739 -0.229661,-0.198425 -0.300126,-0.382122 -0.108595,-0.283103 -0.137258,-0.726833 -0.05297,-0.819972 0.05929,-0.06551 0.182538,-0.05813 0.239639,0.01436 0.03709,0.04708 0.04265,0.07367 0.0321,0.153484 -0.01489,0.112681 0.01786,0.348564 0.06787,0.488725 0.05187,0.145361 0.106311,0.225981 0.17907,0.265165 0.0618,0.03328 0.06938,0.03297 0.156763,-0.0065 0.231638,-0.104745 0.385854,-0.336137 0.406568,-0.61003 0.009,-0.118575 0.0039,-0.167877 -0.02236,-0.218736 -0.05479,-0.105948 -0.101454,-0.119157 -0.232743,-0.06586 -0.06205,0.02517 -0.124723,0.06278 -0.139263,0.08354 -0.06126,0.08746 -0.234165,0.0801 -0.269303,-0.01147 -0.05005,-0.130437 0.009,-0.229882 0.196244,-0.330713 0.132962,-0.07159 0.172,-0.08261 0.317801,-0.08973 0.160427,-0.0078 0.169321,-0.0058 0.255188,0.05822 0.333254,0.24852 0.287006,0.902312 -0.09019,1.27521 -0.251242,0.248373 -0.527272,0.321246 -0.744261,0.196483 z m 10.423495,-0.08871 c -0.04735,-0.0126 -0.134216,-0.07425 -0.233066,-0.16534 -0.268952,-0.247824 -0.361613,-0.519524 -0.269433,-0.79005 0.04886,-0.143465 0.130126,-0.221291 0.230994,-0.221291 0.150148,0 0.206435,0.141573 0.108799,0.273633 -0.06141,0.0831 -0.06306,0.204248 -0.0041,0.318875 0.05991,0.116833 0.241272,0.277226 0.313485,0.277226 0.09488,0 0.240813,-0.06069 0.330496,-0.137458 l 0.08539,-0.07309 -0.04378,-0.05521 c -0.07661,-0.09655 -0.267093,-0.404436 -0.267093,-0.431708 0,-0.01444 -0.02696,-0.04018 -0.05991,-0.05721 -0.139052,-0.07191 -0.118118,-0.2626 0.03753,-0.34201 0.146039,-0.0745 0.243277,-0.07597 0.395847,-0.006 0.236531,0.10851 0.309252,0.239393 0.325692,0.586154 l 0.0105,0.221273 0.126613,0.07406 c 0.127779,0.07474 0.325596,0.138339 0.430258,0.138339 0.143527,0 0.239921,0.11998 0.180889,0.225155 -0.04556,0.08112 -0.116224,0.109533 -0.246384,0.09905 -0.142319,-0.01147 -0.389603,-0.09705 -0.517409,-0.179058 -0.05338,-0.03427 -0.106042,-0.06231 -0.116973,-0.06231 -0.01091,0 -0.05668,0.03807 -0.101725,0.08459 -0.09444,0.09758 -0.186474,0.149162 -0.367364,0.205872 -0.139135,0.04362 -0.230938,0.04795 -0.349042,0.0165 z m 9.515294,-0.120593 c -0.05386,-0.02152 -0.110934,-0.09894 -0.110934,-0.150574 0,-0.0691 0.05833,-0.152017 0.148783,-0.211488 0.126105,-0.08292 1.034153,-0.999237 1.471561,-1.48497 0.488075,-0.541986 0.617426,-0.666842 0.775575,-0.748598 0.163173,-0.08435 0.296119,-0.0084 0.296119,0.169086 0,0.148181 -0.05668,0.214074 -0.178762,0.207755 -0.08548,-0.0044 -0.09929,0.0027 -0.206888,0.107873 -0.06341,0.06194 -0.261145,0.275692 -0.439419,0.475007 -0.392375,0.438689 -1.258752,1.319928 -1.474787,1.500083 -0.170074,0.141827 -0.213578,0.162838 -0.281248,0.135826 z m -18.467734,-0.06123 c -0.03287,-0.0363 -0.03746,-0.100494 -0.04399,-0.613039 -0.0086,-0.672041 -0.0048,-0.689519 0.150732,-0.758459 0.08944,-0.03957 0.107249,-0.04109 0.192246,-0.01644 0.100593,0.02918 0.286807,0.04982 0.716735,0.07944 0.275204,0.01897 0.345551,0.03753 0.368489,0.09732 0.02649,0.06904 0.01201,0.153319 -0.03383,0.196704 -0.04385,0.04154 -0.06176,0.04349 -0.305443,0.03325 -0.142368,-0.006 -0.37533,-0.02441 -0.517697,-0.04096 -0.142368,-0.01654 -0.262222,-0.02699 -0.266339,-0.02323 -0.0041,0.0038 0.0041,0.182098 0.01887,0.396275 0.03026,0.447655 0.02038,0.559135 -0.05661,0.63608 -0.06587,0.06587 -0.169869,0.07196 -0.223172,0.01305 z m 10.940272,0.01716 c -0.07398,-0.02711 -0.11083,-0.118941 -0.08361,-0.208373 0.01146,-0.03769 0.02649,-0.166365 0.03328,-0.285952 0.01146,-0.200403 0.0869,-0.668834 0.137702,-0.855058 0.02827,-0.103622 0.129508,-0.158318 0.222065,-0.119976 0.07551,0.03128 0.09589,0.0724 0.13939,0.281319 0.01894,0.09111 0.05222,0.206432 0.07391,0.256262 0.03671,0.08437 0.04371,0.08974 0.102254,0.07803 0.03458,-0.0069 0.121501,-0.03604 0.193192,-0.06472 0.0717,-0.02868 0.154801,-0.05214 0.18469,-0.05214 0.02985,0 0.125111,-0.03727 0.21161,-0.08283 0.12841,-0.06763 0.178254,-0.08283 0.271553,-0.08283 0.06285,0 0.132363,0.0097 0.154471,0.02152 0.0483,0.02584 0.163714,0.247641 0.26887,0.516605 0.07135,0.18251 0.08153,0.197408 0.143637,0.210109 0.09027,0.01846 0.132672,0.06579 0.132672,0.148062 0,0.119519 -0.127326,0.242646 -0.25092,0.242646 -0.105492,0 -0.18725,-0.119075 -0.326577,-0.475627 -0.09091,-0.232667 -0.138306,-0.331983 -0.158417,-0.331983 -0.0087,0 -0.08666,0.03728 -0.173163,0.08283 -0.08651,0.04556 -0.183023,0.08283 -0.214491,0.08283 -0.0315,0 -0.116657,0.02331 -0.189315,0.05177 -0.09672,0.0379 -0.171359,0.05177 -0.278676,0.05177 -0.122221,0 -0.159234,-0.0086 -0.22276,-0.05177 -0.04193,-0.02847 -0.07992,-0.05177 -0.08448,-0.05177 -0.0048,0 -0.01434,0.105643 -0.02168,0.234759 -0.01674,0.293047 -0.03884,0.361126 -0.129645,0.399061 -0.03794,0.01587 -0.07163,0.0281 -0.07485,0.0272 -0.0034,-8.56e-4 -0.03053,-0.01069 -0.06073,-0.02173 z M 77.954662,66.22689 c -0.105122,-0.05204 -0.139869,-0.102068 -0.185918,-0.267701 -0.04056,-0.145939 -0.03012,-0.278646 0.06381,-0.807638 0.0293,-0.165147 0.05332,-0.372486 0.05332,-0.460754 0,-0.139172 -0.0048,-0.160444 -0.03623,-0.160171 -0.0795,8.55e-4 -0.215171,0.058 -0.456478,0.192834 -0.139162,0.07775 -0.301738,0.167406 -0.361276,0.199219 -0.08664,0.04629 -0.110941,0.07101 -0.121742,0.123802 -0.04508,0.220512 -0.349578,0.120449 -0.349578,-0.114884 0,-0.07286 0.136117,-0.20287 0.300894,-0.287392 0.06663,-0.03416 0.238247,-0.128045 0.381417,-0.208614 0.330557,-0.186026 0.41873,-0.215897 0.637276,-0.215897 0.155213,0 0.178441,0.0051 0.222898,0.04963 0.130208,0.13021 0.142236,0.421694 0.04069,0.985769 -0.103215,0.573183 -0.102865,0.60353 0.0082,0.72179 0.03589,0.03822 0.06526,0.08671 0.06526,0.107742 0,0.06486 -0.04357,0.138058 -0.09644,0.162165 -0.0658,0.02999 -0.06526,0.03007 -0.166158,-0.01989 z"
       id="path1585" />
  </g>
</svg>
