<?xml version="1.0" encoding="UTF-8" standalone="no"?>
<!-- Created with Inkscape (http://www.inkscape.org/) -->

<svg
   width="39.299622mm"
   height="11.9031mm"
   viewBox="0 0 39.299619 11.9031"
   version="1.1"
   id="svg5"
   inkscape:version="1.1.1 (3bf5ae0d25, 2021-09-20)"
   sodipodi:docname="open_marriage.svg"
   xmlns:inkscape="http://www.inkscape.org/namespaces/inkscape"
   xmlns:sodipodi="http://sodipodi.sourceforge.net/DTD/sodipodi-0.dtd"
   xmlns="http://www.w3.org/2000/svg"
   xmlns:svg="http://www.w3.org/2000/svg">
  <sodipodi:namedview
     id="namedview7"
     pagecolor="#ffffff"
     bordercolor="#666666"
     borderopacity="1.0"
     inkscape:pageshadow="2"
     inkscape:pageopacity="0.0"
     inkscape:pagecheckerboard="0"
     inkscape:document-units="mm"
     showgrid="false"
     fit-margin-top="0"
     fit-margin-left="0"
     fit-margin-right="0"
     fit-margin-bottom="0"
     inkscape:zoom="1.0104048"
     inkscape:cx="-30.680773"
     inkscape:cy="-20.288898"
     inkscape:window-width="1920"
     inkscape:window-height="991"
     inkscape:window-x="-9"
     inkscape:window-y="-9"
     inkscape:window-maximized="1"
     inkscape:current-layer="layer1" />
  <defs
     id="defs2" />
  <g
     inkscape:label="Capa 1"
     inkscape:groupmode="layer"
     id="layer1"
     transform="translate(6.9919993,2.8375423)">
    <path
       style="fill:#000000;stroke-width:0.0300923"
       d="M 26.306148,9.0466692 C 25.913227,8.9848382 25.506836,8.8618852 25.280494,8.7363569 24.946869,8.5513324 24.803903,8.2499051 24.973988,8.0901215 c 0.123331,-0.1158633 0.286192,-0.084608 0.384034,0.073701 0.0712,0.1151948 0.148478,0.1621632 0.407197,0.2474734 0.56383,0.1859153 1.153391,0.2210421 1.606695,0.095728 0.509809,-0.1409356 0.681383,-0.2623987 0.764096,-0.5409377 0.06287,-0.2117207 0.0633,-0.6721969 7.05e-4,-0.9150533 -0.06053,-0.2353296 -0.281873,-0.6960526 -0.397697,-0.8277623 l -0.089,-0.1012016 -0.05488,0.092911 c -0.03019,0.051102 -0.111802,0.1337829 -0.181362,0.1837373 -0.192469,0.1382221 -0.554675,0.3019093 -0.668059,0.3019093 -0.119363,0 -0.502174,-0.1597241 -0.603145,-0.2516562 -0.09586,-0.08728 -0.185148,-0.2685218 -0.185148,-0.3758223 0,-0.068879 -0.01641,-0.092332 -0.07486,-0.1069999 -0.109916,-0.027587 -0.176771,-0.1459769 -0.153246,-0.2713753 0.03375,-0.1799012 0.219673,-0.506046 0.419726,-0.736271 0.285184,-0.328195 0.499501,-0.4540238 0.774044,-0.4544503 0.168441,-2.816e-4 0.45733,0.1607462 0.610855,0.3404521 0.195968,0.2293807 0.244062,0.3707048 0.244062,0.7171738 0,0.2702963 0.0037,0.2884282 0.05414,0.2614605 0.08438,-0.045167 0.246294,0.023895 0.338043,0.1441839 0.109447,0.1434951 0.354773,0.646335 0.42383,0.8687201 0.04535,0.1460315 0.05612,0.2783691 0.05637,0.6921248 l 2.35e-4,0.5115701 -0.09952,0.2101777 c -0.116037,0.2450633 -0.148672,0.2853084 -0.356441,0.4395956 -0.16715,0.1241214 -0.471509,0.243464 -0.807918,0.3167959 -0.258894,0.056434 -0.840621,0.078162 -1.080812,0.040368 z m 0.562915,-2.8911417 c 0.327997,-0.1647082 0.42218,-0.2981845 0.425465,-0.6029465 0.0018,-0.1781769 -0.0081,-0.2144972 -0.09218,-0.3310161 -0.120928,-0.167773 -0.249154,-0.2455474 -0.359266,-0.2179103 -0.16244,0.040769 -0.576769,0.547268 -0.631209,0.7716322 -0.01699,0.070007 -0.01052,0.082754 0.04194,0.082754 0.03646,0 0.102943,0.050927 0.161247,0.1234948 0.07749,0.096452 0.252426,0.2261952 0.318584,0.2362833 0.0048,7.276e-4 0.06574,-0.0273 0.135415,-0.062291 z m 3.10821,1.6574187 C 29.538947,7.65726 29.230239,7.3102619 29.052315,6.77326 c -0.05978,-0.1804242 -0.06901,-0.26998 -0.06956,-0.6744802 -4.68e-4,-0.4143245 0.0086,-0.5009465 0.08181,-0.7753879 0.09998,-0.3747273 0.203543,-0.5864697 0.425708,-0.8704036 0.312884,-0.3998824 0.648723,-0.4702784 1.131604,-0.2371998 0.404266,0.1951326 0.430319,0.2114688 0.524164,0.3286887 0.08941,0.1116613 0.09273,0.1264171 0.09266,0.4105835 0,0.2930169 -8.98e-4,0.296475 -0.146921,0.5847705 -0.168836,0.3334187 -0.346801,0.517255 -0.525985,0.543343 -0.06019,0.00876 -0.184728,0.0294 -0.276752,0.045862 -0.09203,0.01646 -0.294083,0.029928 -0.449019,0.029928 -0.225561,0 -0.293542,-0.010493 -0.341165,-0.052661 -0.05878,-0.05206 -0.05923,-0.050118 -0.03931,0.1704143 0.04281,0.4738281 0.269127,0.87406 0.582208,1.0295703 0.123316,0.061252 0.184473,0.07087 0.429658,0.067565 0.467811,-0.00629 0.92406,-0.1902439 1.26388,-0.5095462 0.09103,-0.085533 0.195699,-0.1712206 0.2326,-0.1904175 0.08972,-0.046681 0.206383,-0.013571 0.279446,0.079316 0.109203,0.1388256 0.08113,0.2123245 -0.176266,0.4615594 -0.277665,0.2688585 -0.477399,0.3854841 -0.907533,0.5299211 -0.269913,0.090634 -0.366419,0.1079552 -0.662034,0.1188249 -0.296301,0.010897 -0.371681,0.00362 -0.524247,-0.050564 z M 29.847027,5.6636718 c 0.346016,-0.016275 0.535496,-0.046719 0.630603,-0.1013141 0.09567,-0.054923 0.252508,-0.3551799 0.282061,-0.5399972 0.02417,-0.1511592 -0.006,-0.1975059 -0.180337,-0.2757996 -0.06763,-0.030398 -0.186552,-0.083893 -0.264261,-0.1188798 -0.188609,-0.084918 -0.214796,-0.081589 -0.355034,0.045109 -0.182672,0.165034 -0.329471,0.4316598 -0.409711,0.7441664 -0.08621,0.3357257 -0.086,0.3303357 -0.01176,0.290612 0.03311,-0.017721 0.171915,-0.037474 0.308447,-0.043898 z M 5.7715543,7.7945134 C 5.595107,7.7062847 5.5294792,7.4716036 5.6414066,7.329102 5.6916826,7.26509 5.6989136,7.1874314 5.7083426,6.6103501 c 0.00583,-0.3558424 0.00539,-0.7857363 -8.973e-4,-0.9553203 -0.00974,-0.2608324 -0.0035,-0.3172065 0.040605,-0.3659252 0.107789,-0.1191071 0.3016939,-0.1024 0.3908548,0.033676 0.029856,0.045562 0.067914,0.2855063 0.1111801,0.7009911 0.036182,0.347444 0.074849,0.6420228 0.08591,0.6546192 0.01108,0.012597 0.093437,-0.075424 0.1830379,-0.1956002 C 6.7332442,6.1954886 6.9765117,5.9315762 7.1638873,5.7832111 7.247223,5.7172281 7.3351752,5.6442542 7.359346,5.6210461 7.4235097,5.5594356 7.5867261,5.4969152 7.6830658,5.4970447 c 0.1235643,1.82e-4 0.2586689,0.095487 0.399252,0.2816877 0.1280358,0.1695826 0.3581739,0.6557654 0.4211939,0.8898058 L 8.538904,6.7999618 8.7246012,6.5170358 C 9.0760966,5.9815047 9.4226706,5.5402309 9.5723327,5.437663 9.8293054,5.2615529 10.091847,5.2439381 10.309816,5.3881831 c 0.09805,0.064888 0.149921,0.1411794 0.289128,0.4252659 0.199141,0.4063984 0.246053,0.5941533 0.270542,1.0827782 0.03106,0.6199422 -0.07914,0.9479096 -0.318521,0.9479096 -0.04894,0 -0.126375,-0.033731 -0.178876,-0.077906 -0.08458,-0.071168 -0.09259,-0.093635 -0.09259,-0.2597565 0,-0.133198 0.0172,-0.2096802 0.06429,-0.2858718 0.05717,-0.092506 0.06207,-0.1307008 0.04419,-0.3450396 -0.01105,-0.13256 -0.03493,-0.3107848 -0.05307,-0.3960547 C 10.301227,6.3211211 10.065868,5.8181655 10.008967,5.7829989 9.9548094,5.7495333 9.7880639,5.8800932 9.6625982,6.0541824 9.5963912,6.1460437 9.4964006,6.2782922 9.4403881,6.3480684 9.3843727,6.4178444 9.2509593,6.6103494 9.1439047,6.7758574 9.036852,6.9413654 8.9100254,7.1331609 8.8620694,7.2020698 c -0.04795,0.068908 -0.087196,0.1449466 -0.087196,0.1689732 0,0.024026 -0.02807,0.079364 -0.062372,0.122973 C 8.6498536,7.5736588 8.5167156,7.5993757 8.3996367,7.554448 8.3378559,7.5307387 8.1809605,7.219213 8.0529885,6.8661354 7.8973251,6.4366681 7.8115188,6.241505 7.7320704,6.1362259 7.6666328,6.0495179 7.6505471,6.0423023 7.5920883,6.0734572 7.4754929,6.1356023 7.1462217,6.4683272 6.978978,6.6930055 6.7192264,7.0419534 6.3756923,7.3626592 6.2616574,7.3626592 c -0.068461,0 -0.074722,0.011308 -0.074722,0.1349408 0,0.1054067 -0.018123,0.1545685 -0.082753,0.2246186 C 5.999505,7.8356539 5.8980058,7.8577173 5.7716038,7.7945131 Z M 19.790821,7.4940166 c -0.112549,-0.143084 -0.07219,-0.2888051 0.105388,-0.3805628 0.0755,-0.03901 0.09981,-0.078175 0.13211,-0.2128221 0.06322,-0.2635193 0.02924,-0.5370723 -0.103567,-0.8340765 C 19.77211,5.725218 19.76165,5.6415517 19.859416,5.5437943 c 0.106962,-0.1069618 0.242105,-0.1031398 0.34597,0.00978 0.04388,0.047707 0.133948,0.2135907 0.20015,0.3686313 l 0.120371,0.2818925 v 0.4212935 c 0,0.3759619 -0.0075,0.4374425 -0.06919,0.5713797 -0.119467,0.2591952 -0.270246,0.3765297 -0.483851,0.3765297 -0.09345,0 -0.133348,-0.017377 -0.182049,-0.079289 z M -2.2841153,7.4609782 c -0.033105,-0.0083 -0.095278,-0.039965 -0.138168,-0.070392 -0.070148,-0.049762 -0.08443,-0.050808 -0.1421326,-0.010391 -0.097329,0.068172 -0.3469182,0.069842 -0.4209925,0.00283 C -3.0614076,7.3142557 -3.089295,7.2081348 -3.0553453,7.1168889 -3.0259411,7.0378563 -3.092513,6.925516 -3.3573049,6.6073364 -3.4978377,6.4384616 -3.576581,6.3134668 -3.8103818,5.8881315 -3.860419,5.7971022 -3.945401,5.6549158 -3.9992278,5.5721616 -4.1150282,5.394133 -4.2764306,5.0771003 -4.3898904,4.8048064 c -0.04483,-0.10758 -0.091852,-0.2065283 -0.1045012,-0.2198841 -0.01265,-0.013357 -0.1366519,0.034039 -0.2755637,0.1053234 C -5.0206996,4.8189182 -5.0247987,4.8198484 -5.338491,4.8192873 -5.6536144,4.818724 -5.6550875,4.8183721 -5.8892481,4.6897538 -6.1398831,4.5520812 -6.1595483,4.5380467 -6.4188846,4.311792 -6.6439868,4.1154057 -6.888286,3.751941 -6.9471916,3.5257899 -7.001415,3.3176263 -7.0068608,3.0233302 -6.9611512,2.7715763 -6.8242784,2.0176683 -6.3633731,1.4531195 -5.710365,1.2395318 l 0.1514477,-0.049536 -0.037949,-0.1463174 c -0.071099,-0.27409626 -0.1105496,-0.7367763 -0.1077954,-1.26429628 0.00421,-0.80915752 0.107013,-1.40765872 0.3179808,-1.85144152 0.10526,-0.2214211 0.164719,-0.303919 0.3218697,-0.4465893 0.1060182,-0.096248 0.2502824,-0.2088937 0.3205879,-0.250323 0.1172099,-0.069068 0.1522066,-0.074467 0.4212939,-0.064981 0.2575239,0.00908 0.3192619,0.022533 0.5041101,0.1098528 0.2984167,0.1409699 0.6919916,0.4155624 0.8258525,0.5761861 0.062701,0.075241 0.1922991,0.2654448 0.287992,0.4226773 0.095693,0.1572325 0.2340475,0.3776844 0.3074571,0.4898925 0.1575384,0.24080407 0.4181504,0.78353635 0.5370004,1.11831752 l 0.084385,0.2376926 0.1442443,-0.1631192 c 0.079334,-0.08971542 0.1858729,-0.23759749 0.2367535,-0.32862692 0.317638,-0.56827254 0.69580983,-1.1188528 0.87119055,-1.2683607 0.247799,-0.2112439 0.46810415,-0.322235 0.7329345,-0.3692558 0.33126564,-0.058816 0.81990175,-0.059519 0.90302395,-0.00129 0.034567,0.024211 0.1038865,0.044019 0.1540466,0.044019 0.1386902,0 0.4727065,0.1040232 0.6050441,0.1884294 0.1629032,0.1039016 0.2366744,0.1905742 0.3262657,0.3833256 0.069116,0.1487081 0.076957,0.202583 0.077226,0.53076162 2.351e-4,0.32667393 -0.012156,0.41408241 -0.1175948,0.82754015 -0.064836,0.25425938 -0.147194,0.52999605 -0.1830106,0.61274996 -0.069977,0.16167616 -0.1517501,0.38745916 -0.1416302,0.39104345 0.00341,0.001197 0.060359,0.0206054 0.1265598,0.0431112 0.0662,0.022504 0.1933605,0.087416 0.2825724,0.1442454 0.2709569,0.1726056 0.4235287,0.3561401 0.6091439,0.7327593 0.3443559,0.6987126 0.4473946,1.0496144 0.4473946,1.5236237 0,0.4265516 -0.1445827,0.6575088 -0.560927,0.8960332 L 2.4921455,4.4479883 1.9847941,4.4927442 c -0.4900788,0.043231 -1.2051396,0.041812 -1.36744808,-0.00272 -0.0711794,-0.019528 -0.0821783,-0.00959 -0.13111114,0.1185547 -0.0293814,0.076928 -0.0962805,0.1965603 -0.1486701,0.2658493 -0.13036297,0.1724165 -0.35935962,0.5247317 -0.42417192,0.6525967 -0.0293635,0.057928 -0.10186254,0.1662603 -0.16111345,0.240739 -0.20114129,0.252841 -0.77171081,0.8006598 -0.95305761,0.9150566 -0.2014184,0.1270599 -0.5685869,0.4714187 -0.6333463,0.5940031 -0.023147,0.043819 -0.1008999,0.108142 -0.1727807,0.1429387 -0.1315033,0.063659 -0.1666739,0.068889 -0.2771976,0.041216 z m 0.00692,-0.519612 c 0.031364,0 0.1392797,-0.092984 0.2451112,-0.2111881 0.1062143,-0.1186378 0.297494,-0.2833295 0.4364715,-0.3758073 0.1360669,-0.090541 0.3102329,-0.229098 0.3870365,-0.3079054 0.076804,-0.078808 0.1682044,-0.1703691 0.2031132,-0.2034705 0.25587327,-0.2426248 0.38587827,-0.3997163 0.54788886,-0.6620324 0.10221492,-0.165508 0.2446337,-0.3853297 0.31648142,-0.4884929 C -0.06924474,4.5893063 0.01541058,4.4445377 0.04703489,4.370761 L 0.10453278,4.2366221 -0.02152569,4.1643474 C -0.09085692,4.1245958 -0.17131899,4.0835785 -0.20032901,4.0731982 -0.22934261,4.0628165 -0.43391996,3.9333836 -0.65495539,3.7855673 -1.1238131,3.4720213 -1.1890112,3.4362461 -1.4345144,3.3578176 -1.5355525,3.3255393 -1.7029118,3.2517691 -1.8064206,3.1938832 l -0.1882,-0.1052476 -0.075683,0.075685 c -0.081784,0.081783 -0.217959,0.099753 -0.3243683,0.042806 -0.054698,-0.029272 -0.1015386,0.00667 -0.4268366,0.3274583 -0.3844356,0.3791087 -0.5744173,0.5176945 -0.974501,0.7108673 l -0.243812,0.1177206 0.055201,0.1400392 c 0.075782,0.1922633 0.3569617,0.7578429 0.4042681,0.8131678 0.021226,0.024827 0.103131,0.160242 0.1820078,0.3009236 0.078878,0.140682 0.1777779,0.3163758 0.2197775,0.3904309 0.042004,0.074056 0.1724095,0.2522242 0.289798,0.3959317 0.1173875,0.1437072 0.2650466,0.3370517 0.328131,0.4296539 0.09797,0.1438112 0.1229176,0.1639688 0.1710519,0.1382077 0.030996,-0.016587 0.081568,-0.03016 0.1123843,-0.03016 z M -4.9402456,4.2280628 C -4.7951615,4.1591146 -4.6765144,4.0880217 -4.676587,4.070078 -4.6767008,4.0372084 -4.7384001,3.861087 -4.9146097,3.3904669 -4.9672811,3.2497851 -5.0427855,3.0263491 -5.0823927,2.8939428 -5.1220014,2.7615364 -5.186707,2.551642 -5.2261831,2.4275111 -5.2656574,2.3033801 -5.3298542,2.0934858 -5.368837,1.9610793 -5.4078179,1.8286729 -5.448817,1.7094506 -5.4599434,1.696141 -5.4710684,1.682831 -5.5689265,1.707473 -5.6774037,1.7509 -6.283737,1.9936321 -6.6907439,2.9703427 -6.4192586,3.5311575 c 0.1303236,0.269214 0.5862239,0.6739171 0.8701258,0.7724125 0.214628,0.074462 0.3210973,0.06126 0.6088872,-0.075507 z M 1.9011839,4.0108455 C 2.34784,3.9727771 2.3577095,3.9703835 2.5245054,3.859671 2.6177196,3.7977994 2.7234128,3.6995613 2.7593802,3.6413646 2.8980668,3.4169647 2.7741651,2.8516796 2.4362749,2.1672937 2.2635641,1.8174684 2.1390595,1.6638063 1.931134,1.5438559 1.6809908,1.3995502 1.6708199,1.4036074 1.5424728,1.6988911 1.3462721,2.1502859 1.1677406,2.614293 1.1000324,2.8488043 1.0031293,3.1844335 0.96567614,3.2937164 0.8318494,3.6313257 0.76487766,3.8002836 0.71007834,3.9494968 0.71007834,3.9629103 c 0,0.091311 0.46336816,0.1099601 1.19110556,0.047935 z M -3.8839233,3.7440521 C -3.6110277,3.6019973 -3.5347929,3.541496 -3.1278685,3.1440308 -2.6331819,2.6608425 -2.629527,2.6525304 -2.8908586,2.6047588 -3.0831613,2.5696064 -3.1528881,2.487026 -3.1337359,2.3171108 -3.1211669,2.2055939 -3.1304121,2.1808337 -3.2133844,2.103723 -3.4454644,1.8880467 -3.7388392,1.7354546 -4.1813738,1.6002461 -4.4212681,1.5269504 -4.4787255,1.5201939 -4.70619,1.538537 c -0.1404863,0.011328 -0.2595408,0.02471 -0.2645666,0.029737 -0.00503,0.00503 0.017018,0.088693 0.048984,0.185926 0.031966,0.097233 0.1219012,0.3866821 0.199853,0.6432196 0.077952,0.2565373 0.175265,0.5612227 0.2162527,0.6770783 0.2086891,0.5898878 0.296706,0.8271233 0.3069459,0.8273214 0.0062,1.251e-4 0.1478744,-0.070875 0.3148004,-0.1577663 z M 0.49377443,3.1333375 C 0.54326979,2.9851195 0.63357447,2.7081226 0.69446174,2.5177884 0.75535082,2.327454 0.88388368,1.9889148 0.98009599,1.765479 L 1.1550281,1.359232 0.9701682,1.3425748 c -0.372675,-0.03358 -0.82616919,0.1041439 -1.30277468,0.3956469 -0.1017791,0.06225 -0.3455266,0.1966682 -0.54166272,0.2987072 -0.1961352,0.1020388 -0.3812258,0.2075088 -0.4113114,0.2343786 -0.03009,0.02687 -0.099606,0.076393 -0.154488,0.1100515 -0.3129612,0.1919355 -0.4164064,0.2868904 -0.3125387,0.2868904 0.019235,0 0.097103,0.039429 0.1730321,0.087622 0.075924,0.048193 0.206568,0.1076343 0.2903145,0.132095 0.2200683,0.064278 0.49910585,0.2115209 0.82573771,0.4357264 0.15723151,0.1079274 0.3806677,0.2476966 0.49652386,0.3105981 l 0.21064648,0.1143673 0.08007,-0.1729168 C 0.36775817,3.4806367 0.44428177,3.2815549 0.49377273,3.1333372 Z M -2.1096038,2.2382093 C -1.8492799,2.0357168 -1.405587,1.7555959 -1.1172111,1.611672 -0.94801795,1.5272303 -0.70125246,1.3922229 -0.56884759,1.3116572 -0.28366912,1.1381345 0.08634141,0.9736998 0.35267985,0.90212689 0.49499281,0.86388354 0.64669068,0.85201762 0.93982323,0.85620057 l 0.39525247,0.005642 0.036057,-0.0973671 C 1.3909599,0.71092364 1.4280376,0.61971275 1.4535165,0.56178502 1.5396958,0.36586306 1.6127109,0.13188615 1.7059232,-0.24702395 1.7833199,-0.5616507 1.7970824,-0.67064901 1.788568,-0.90166757 1.779478,-1.148227 1.7700517,-1.1877217 1.7031244,-1.2592952 1.5966173,-1.3732029 1.5018099,-1.4157766 1.2640831,-1.4564469 1.1497136,-1.476013 1.0292146,-1.5060734 0.99630837,-1.5232478 c -0.0648545,-0.033848 -0.52868733,-0.036604 -0.72002106,-0.00428 -0.0650339,0.010988 -0.21003643,0.078813 -0.32222597,0.1507256 -0.23112649,0.1481485 -0.38260282,0.3444494 -0.78275378,1.01438408 C -0.95704401,-0.14752845 -1.1271271,0.10959949 -1.2066552,0.20898069 -1.4303633,0.48853454 -1.5991546,0.76529103 -1.6203271,0.8872533 -1.6649241,1.1441609 -1.773675,1.2511125 -1.9462574,1.2077968 -2.0801641,1.1741889 -2.1229651,1.0948298 -2.1517642,0.82675996 -2.1944952,0.42901788 -2.286917,0.10188138 -2.4722461,-0.3076004 c -0.04038,-0.0892173 -0.099918,-0.22403682 -0.1323081,-0.29959916 -0.032387,-0.0755619 -0.1097555,-0.21246035 -0.1719239,-0.30421854 -0.062172,-0.0917579 -0.1591236,-0.2480822 -0.2154562,-0.3473869 -0.099854,-0.1760253 -0.3052861,-0.4774803 -0.4124535,-0.6052389 -0.163481,-0.1948916 -0.7354151,-0.4930734 -0.9458185,-0.4931089 -0.2957729,-5.02e-5 -0.6153764,0.3888836 -0.7325119,0.8914123 -0.1437349,0.61664066 -0.1804998,1.46085736 -0.090262,2.07266204 0.077549,0.52578986 0.022025,0.47022686 0.4471981,0.44751386 0.3588195,-0.01917 0.3714765,-0.017623 0.7141376,0.087213 0.6443156,0.1971257 0.9296609,0.3767122 1.4137334,0.8897568 0.1718002,0.1820824 0.3262272,0.3231095 0.3431725,0.3133939 0.016946,-0.00972 0.08225,-0.057682 0.1451317,-0.1065906 z M 14.251641,7.455595 C 14.056085,7.41639 13.816259,7.2806323 13.637523,7.1079669 l -0.177778,-0.1717422 -0.07635,0.1003712 c -0.219515,0.2885465 -0.421787,0.4163405 -0.658988,0.4163405 -0.44954,0 -0.754755,-0.3368681 -0.783775,-0.8650549 -0.0095,-0.1724494 -0.0021,-0.2620332 0.02411,-0.2936294 0.03123,-0.037626 0.0241,-0.059111 -0.04137,-0.1245739 -0.109159,-0.1091589 -0.107659,-0.2577961 0.0036,-0.361576 0.138787,-0.1294009 0.31757,-0.2419787 0.505648,-0.3184016 0.09851,-0.040026 0.222035,-0.11571 0.274512,-0.1681868 0.05247,-0.052476 0.117438,-0.095413 0.14436,-0.095413 0.07957,0 0.220874,0.085288 0.23973,0.1446964 0.0096,0.030294 0.05813,0.085133 0.107815,0.1218656 0.15234,0.1126303 0.360155,0.5050433 0.3606,0.6809226 2.36e-4,0.097761 0.124574,0.2759297 0.357977,0.5130133 0.29307,0.2976938 0.364468,0.317561 0.851364,0.2369012 0.09301,-0.015408 0.123668,-0.00586 0.188077,0.058545 0.09278,0.092783 0.104284,0.2562758 0.02319,0.3296633 -0.12896,0.116708 -0.499362,0.189852 -0.728639,0.1438861 z M 12.893243,6.848278 c 0.120085,-0.124973 0.208223,-0.3441222 0.174129,-0.4329668 -0.0099,-0.025664 -0.08708,-0.1544904 -0.171618,-0.2862826 l -0.15371,-0.2396228 -0.110357,0.045828 c -0.138845,0.057657 -0.336049,0.1864638 -0.336049,0.2194939 0,0.013752 0.02709,0.049512 0.06018,0.079468 0.04555,0.041214 0.06018,0.092683 0.06018,0.2115271 0,0.2886787 0.130126,0.5222969 0.292282,0.5247346 0.03947,5.869e-4 0.114781,-0.049149 0.184952,-0.1221792 z m 2.691739,0.6055083 c -0.03627,-0.015238 -0.0891,-0.063031 -0.117386,-0.1062051 -0.04197,-0.064063 -0.04559,-0.097552 -0.01966,-0.1821022 0.04047,-0.1318503 -0.0038,-0.3088196 -0.201902,-0.8054938 -0.234779,-0.5888935 -0.257668,-0.7550783 -0.121033,-0.8787321 0.07468,-0.067592 0.274743,-0.068535 0.433875,-0.00205 0.08904,0.037203 0.227299,0.048393 0.611454,0.049487 l 0.496395,0.00141 0.08643,0.086422 c 0.111608,0.1116081 0.111985,0.2205794 0.0011,0.3314213 l -0.08529,0.085279 -0.515095,-0.0088 -0.515093,-0.0088 0.06125,0.1544259 c 0.203867,0.5140432 0.245359,0.6664915 0.248563,0.913263 0.0027,0.209862 -0.0058,0.2564108 -0.05708,0.3077152 -0.07179,0.071975 -0.214907,0.1012734 -0.306587,0.062762 z m 1.801509,-0.070497 c -0.05307,-0.056492 -0.0655,-0.1062251 -0.06583,-0.2633084 -2.16e-4,-0.1065135 -0.02923,-0.3629305 -0.06449,-0.5698155 -0.09854,-0.5782973 -0.102231,-0.7174952 -0.02383,-0.8997386 0.03871,-0.08996 0.112162,-0.1908427 0.175501,-0.2410057 0.104741,-0.082958 0.374336,-0.1833199 0.492437,-0.1833199 0.03121,0 0.101116,-0.033854 0.155365,-0.075231 0.180997,-0.1380531 0.414139,-0.088259 0.516865,0.1103909 0.08322,0.1609199 -0.0234,0.3560404 -0.194545,0.3560404 -0.04763,0 -0.132266,0.018646 -0.188078,0.041434 -0.0558,0.022788 -0.167497,0.050956 -0.248192,0.062596 -0.194994,0.028124 -0.303801,0.1319167 -0.279704,0.2668134 0.101482,0.5681156 0.139395,0.8573314 0.139918,1.0674357 4.72e-4,0.2253542 -0.0065,0.2568131 -0.07324,0.3234931 -0.09773,0.097734 -0.252539,0.099641 -0.342188,0.00421 z M 22.22603,7.0511979 C 22.075073,7.0104603 21.671354,6.7532067 21.493743,6.5845767 21.374302,6.4711781 21.202978,6.171657 21.202978,6.0762409 c 0,-0.077311 0.08406,-0.1872339 0.167419,-0.2189267 0.126281,-0.048012 0.242933,0.019419 0.34638,0.2002242 0.146051,0.2552654 0.54236,0.5277345 0.767595,0.5277345 0.163675,0 0.230464,-0.050817 0.278789,-0.2121151 0.0546,-0.1822005 0.0449,-0.2106749 -0.130219,-0.3830274 C 22.54223,5.9008567 22.440535,5.7739572 22.406956,5.7081321 22.325651,5.548763 22.214317,5.4974171 21.902317,5.4753992 21.685443,5.460094 21.630251,5.4454644 21.572852,5.3880644 c -0.09417,-0.094171 -0.09068,-0.2332419 0.0083,-0.3322565 0.07544,-0.075441 0.08422,-0.076829 0.368633,-0.058305 0.623817,0.04063 0.622004,0.040194 0.77978,0.1879239 0.32891,0.307976 0.377705,0.3658443 0.471494,0.5591666 0.08202,0.1690709 0.147068,0.2452832 0.393781,0.4614015 0.162537,0.1423835 0.330693,0.2733015 0.373681,0.2909291 0.043,0.017627 0.159456,0.029319 0.258822,0.025982 0.222575,-0.00748 0.315857,0.05911 0.315857,0.2254691 0,0.1515604 -0.109653,0.2437467 -0.321401,0.2702031 C 23.95042,7.0524842 23.683505,6.9435502 23.384907,6.677026 L 23.234755,6.542959 23.181795,6.6644083 C 23.03662,6.9973279 22.632488,7.1608813 22.226054,7.0511988 Z M 19.984237,4.7747156 c -0.01024,-0.016553 -0.08441,-0.030092 -0.164822,-0.030092 -0.189238,0 -0.234226,-0.019159 -0.287677,-0.1225219 -0.126677,-0.2449684 0.02755,-0.4819139 0.282635,-0.4342485 0.06033,0.011271 0.12322,0.030956 0.139772,0.043743 0.01654,0.012786 0.06628,0.031883 0.110527,0.042437 0.11055,0.026371 0.255122,0.1538013 0.278028,0.2450676 0.02183,0.087015 -0.04591,0.2389388 -0.119072,0.2670138 -0.07535,0.028914 -0.218696,0.022088 -0.239391,-0.011399 z M 12.16328,3.9603705 C 12.0968,3.8813735 12.08616,3.8409693 12.08863,3.6768872 12.09023,3.5716417 12.08293,3.471928 12.07282,3.4553007 12.03213,3.3894707 11.82477,2.2176004 11.72588,1.4946477 11.70664,1.353966 11.67786,1.157613 11.66193,1.0583084 11.61624,0.77338581 11.57347,0.23979667 11.57344,-0.04561856 c -6.1e-5,-0.49783826 0.145073,-0.92708419 0.387477,-1.14608014 0.400023,-0.3613956 1.311081,-0.2191154 1.919486,0.29976601 0.177175,0.15110565 0.389447,0.45912179 0.4442,0.64455858 l 0.03713,0.12572474 0.07133,-0.11719183 c 0.192599,-0.31640076 0.467525,-0.53158421 0.841814,-0.65888865 0.286917,-0.0975863 0.785016,-0.11622565 0.908675,-0.0340035 0.124202,0.0825857 0.15901,0.22502844 0.10199,0.41739575 -0.143814,0.48520864 -0.599408,0.93686521 -1.122037,1.11234586 -0.112583,0.0378021 -0.210257,0.0721159 -0.217052,0.0762537 -0.03274,0.0199318 0.121569,0.14472011 0.283186,0.22902014 0.161646,0.0843162 0.206123,0.0938229 0.424751,0.0907875 0.197789,-0.002749 0.294329,-0.0223113 0.507974,-0.10294499 0.243714,-0.091984 0.269767,-0.0961945 0.342602,-0.0553696 0.204761,0.11477221 0.178692,0.34410069 -0.05242,0.46113149 -0.494004,0.2501515 -1.07206,0.2548709 -1.506278,0.012299 C 14.723471,1.1847237 14.441038,0.91075937 14.360602,0.74108167 14.249222,0.50614132 14.225676,0.49463636 14.102281,0.61485955 13.959694,0.75377822 13.710623,0.87529265 13.454188,0.9310413 13.172967,0.9921793 12.491357,0.9809542 12.283148,0.9117549 12.201808,0.8847194 12.131401,0.8664464 12.126699,0.8711485 c -0.0047,0.004693 0.0031,0.0622779 0.01722,0.12794636 0.01418,0.0656696 0.04087,0.24127244 0.05933,0.39022974 0.07045,0.5687784 0.280196,1.7417659 0.365217,2.0424619 0.01812,0.064104 0.03524,0.1949702 0.03805,0.2908161 0.0043,0.1470273 -0.0062,0.1864287 -0.06786,0.252081 -0.107502,0.1146644 -0.272128,0.108387 -0.375374,-0.014313 z m 1.40168,-3.57018527 c 0.182011,-0.0825883 0.337687,-0.28653434 0.313023,-0.41008143 -0.08635,-0.43257586 -0.638345,-0.830979 -1.219332,-0.88006313 -0.365876,-0.0309102 -0.517226,0.13271312 -0.574964,0.62158434 -0.03608,0.30554587 -0.01103,0.63235779 0.04676,0.61017602 0.02141,-0.008217 0.0978,0.0113345 0.169759,0.0434441 0.07195,0.0321106 0.151145,0.0665563 0.175974,0.076547 0.02483,0.00999 0.248263,0.0145966 0.496525,0.0102355 0.385007,-0.006764 0.472097,-0.0173266 0.592242,-0.0718423 z m 1.713948,-0.38817742 c 0.166779,-0.10076119 0.349552,-0.27684051 0.415743,-0.4005169 0.03095,-0.0578344 0.02575,-0.0628107 -0.06522,-0.06239 -0.263645,0.001219 -0.57778,0.17724103 -0.732621,0.41051851 -0.151272,0.22790038 -0.14276,0.25935986 0.05448,0.20134296 0.08689,-0.0255578 0.234319,-0.09258788 0.327618,-0.14895457 z M 7.9116937,2.6039989 C 7.6839388,2.5712774 7.4188706,2.4544936 7.1173919,2.254043 6.7929984,2.0383574 6.6606752,1.8610538 6.5394201,1.4796016 6.4277939,1.1284416 6.3661656,0.31912261 6.4247051,-0.0268453 c 0.046508,-0.27487244 0.1445781,-0.57108541 0.2384955,-0.72038825 0.041646,-0.0662029 0.1324902,-0.24224344 0.2018779,-0.39120075 0.069385,-0.1489573 0.1821586,-0.3382909 0.2505999,-0.4207416 0.068444,-0.082449 0.1244401,-0.1717572 0.1244401,-0.1984595 0,-0.049282 0.075621,-0.1311192 0.1761307,-0.1906211 0.030441,-0.018019 0.1463357,-0.1004718 0.2575446,-0.183226 0.2503631,-0.1863025 0.7456411,-0.4434348 1.0258054,-0.5325639 0.310238,-0.098697 0.7726175,-0.093796 1.0231418,0.010847 0.2604228,0.1087765 0.429617,0.226251 0.621389,0.4314413 0.301896,0.3230221 0.471848,0.6477407 0.597078,1.1408006 0.07302,0.28750408 0.07708,0.5927302 0.01372,1.03246193 C 10.895461,0.36415552 10.800767,0.65297973 10.592174,1.057913 10.31294,1.59998 10.11216,1.8494873 9.7227468,2.1383414 9.3090632,2.4451968 9.1140463,2.5228688 8.5792353,2.5937819 8.2143399,2.6421641 8.1809123,2.6426775 7.9116995,2.6039984 Z M 8.6093225,2.0945765 C 9.0230377,2.0373442 9.2690394,1.9103659 9.6549986,1.5548325 9.9033093,1.326096 10.239226,0.74781506 10.380434,0.3059991 c 0.08307,-0.25992191 0.146643,-0.73640063 0.130484,-0.97800173 -0.01666,-0.24921012 -0.127979,-0.61552577 -0.265175,-0.87267847 -0.190753,-0.3575328 -0.5904255,-0.6609847 -0.9333388,-0.708635 -0.3973154,-0.05521 -1.449594,0.4471717 -1.5774162,0.7530945 -0.023075,0.055243 -0.072776,0.125479 -0.1104339,0.1560803 -0.1241682,0.1009052 -0.1585673,0.1678522 -0.1737883,0.3382214 -0.013897,0.15548107 -0.023147,0.17274274 -0.1203696,0.22485823 -0.1028485,0.055124 -0.2627446,0.27555005 -0.3319842,0.45766725 C 6.91644,-0.1077964 6.8738059,0.24716778 6.8938966,0.54673804 6.9438496,1.2916334 7.0552523,1.6108107 7.3326542,1.8038528 c 0.260779,0.181474 0.4996738,0.2933257 0.6840519,0.3202731 0.1782525,0.026054 0.1976963,0.025082 0.5926164,-0.029549 z M 17.542375,1.4132666 c -0.127549,-0.024217 -0.175792,-0.1188359 -0.178703,-0.350498 -0.004,-0.32160356 -0.06726,-0.78303282 -0.149028,-1.08778552 -0.083,-0.30930023 -0.177623,-0.85916624 -0.1709,-0.99304798 0.0054,-0.105191 0.126571,-0.2256927 0.227162,-0.2256927 0.08892,0 0.197916,0.079251 0.231883,0.1685917 0.01512,0.039733 0.06879,0.27195825 0.11931,0.51605663 0.116286,0.5619534 0.111875,0.54920733 0.189992,0.54877616 0.07396,-3.9896e-4 0.282096,-0.11244173 0.423256,-0.22781828 0.529262,-0.4325894 0.639894,-0.49746739 0.883582,-0.51815613 0.222217,-0.018866 0.32122,0.0312493 0.426289,0.2157832 0.102167,0.17944217 0.227208,0.55754197 0.270001,0.81643127 0.100129,0.60576052 0.10025,0.60738361 0.05231,0.70011498 -0.08557,0.16548887 -0.334321,0.19841357 -0.423232,0.0560212 -0.02198,-0.035207 -0.04916,-0.17234429 -0.06039,-0.30475067 -0.0327,-0.3855319 -0.155294,-0.88055412 -0.240655,-0.97176917 -0.04027,-0.0430278 -0.106272,-0.001804 -0.551856,0.34461932 -0.260488,0.20252304 -0.464416,0.3164176 -0.661616,0.36951868 l -0.127552,0.0343462 0.01812,0.12668854 c 0.01,0.0696793 0.03028,0.17408445 0.04513,0.23201234 0.05257,0.20489896 0.0343,0.35273906 -0.05539,0.44855686 -0.08765,0.093643 -0.162173,0.1220343 -0.26769,0.1020015 z"
       id="path2252" />
  </g>
</svg>
