<?xml version="1.0" encoding="UTF-8" standalone="no"?>
<!-- Created with Inkscape (http://www.inkscape.org/) -->

<svg
   width="23.946541mm"
   height="5.5521321mm"
   viewBox="0 0 23.94654 5.5521322"
   version="1.1"
   id="svg5"
   inkscape:version="1.1.1 (3bf5ae0d25, 2021-09-20)"
   sodipodi:docname="about.svg"
   xmlns:inkscape="http://www.inkscape.org/namespaces/inkscape"
   xmlns:sodipodi="http://sodipodi.sourceforge.net/DTD/sodipodi-0.dtd"
   xmlns="http://www.w3.org/2000/svg"
   xmlns:svg="http://www.w3.org/2000/svg">
  <sodipodi:namedview
     id="namedview7"
     pagecolor="#ffffff"
     bordercolor="#666666"
     borderopacity="1.0"
     inkscape:pageshadow="2"
     inkscape:pageopacity="0.0"
     inkscape:pagecheckerboard="0"
     inkscape:document-units="mm"
     showgrid="false"
     fit-margin-top="0"
     fit-margin-left="0"
     fit-margin-right="0"
     fit-margin-bottom="0"
     inkscape:zoom="2.8578563"
     inkscape:cx="31.492136"
     inkscape:cy="-54.0615"
     inkscape:window-width="1920"
     inkscape:window-height="991"
     inkscape:window-x="-9"
     inkscape:window-y="-9"
     inkscape:window-maximized="1"
     inkscape:current-layer="layer1" />
  <defs
     id="defs2" />
  <g
     inkscape:label="Capa 1"
     inkscape:groupmode="layer"
     id="layer1">
    <path
       style="fill:#414141;stroke-width:0.0266323;fill-opacity:1"
       d="m 15.822115,5.5217772 c -0.175013,-0.096797 -0.225367,-0.2490074 -0.11984,-0.3622712 0.02928,-0.031445 0.05327,-0.09196 0.05327,-0.1344775 0,-0.1007484 0.09859,-0.7427774 0.119187,-0.7760886 0.0088,-0.014104 0.02643,-0.1748628 0.03936,-0.3572303 0.02323,-0.3275814 0.04962,-0.425238 0.132113,-0.4885723 0.119741,-0.091932 0.348401,0.031326 0.348677,0.1879472 2.03e-4,0.1069371 0.125166,0.8708704 0.145854,0.8915614 0.02408,0.024076 0.502906,-0.4606703 0.718598,-0.7274763 0.106574,-0.1318299 0.229413,-0.273099 0.272974,-0.3139306 0.150515,-0.1410824 0.394287,-0.1192549 0.478093,0.042809 0.02302,0.044503 0.0941,0.2795099 0.15798,0.5222389 0.162586,0.6178221 0.169726,0.6410678 0.196918,0.6410678 0.01335,0 0.165667,-0.136192 0.338496,-0.3026503 0.35835,-0.345143 0.540353,-0.4572489 0.706218,-0.4350016 0.05653,0.00758 0.121189,0.029045 0.143653,0.047692 0.145091,0.1204154 0.325143,0.7436042 0.285845,0.9893597 -0.02941,0.183939 -0.200102,0.2602898 -0.338509,0.1514185 -0.05988,-0.047096 -0.07019,-0.075701 -0.07019,-0.1948862 0,-0.1289933 -0.08133,-0.5059428 -0.116828,-0.5414359 -0.0083,-0.00847 -0.126473,0.093062 -0.262215,0.2256288 -0.30164,0.2945761 -0.625561,0.5618726 -0.706217,0.5827716 -0.08533,0.022113 -0.188,-0.00938 -0.257649,-0.079022 -0.07114,-0.071141 -0.119371,-0.2000251 -0.215957,-0.5770352 -0.0394,-0.1538022 -0.09514,-0.3617666 -0.123888,-0.4621435 l -0.05224,-0.1825028 -0.13788,0.1824566 c -0.152973,0.2024328 -0.210721,0.262517 -0.668191,0.6952231 -0.181376,0.1715562 -0.340632,0.3009255 -0.372608,0.3026814 -0.12484,0.00684 -0.166055,-0.00953 -0.245131,-0.097511 l -0.08275,-0.092067 -0.01712,0.1637439 c -0.0094,0.09006 -0.01711,0.2033685 -0.01711,0.2517981 0,0.2131714 -0.167879,0.3371793 -0.332904,0.245907 z M 0.25547413,5.2830406 C 0.05405565,5.2359758 -0.04118989,5.1034751 0.01678605,4.9509881 0.07102053,4.8083393 0.21149972,4.7655634 0.33610314,4.853756 0.42867414,4.9192762 0.87217596,4.916608 1.0943943,4.8492003 1.6018693,4.6952431 1.8892789,4.5546929 2.0484874,4.3826189 L 2.1453606,4.2779183 1.979415,4.0319215 C 1.7878077,3.7478834 1.5476157,3.4774997 1.2876405,3.2531896 1.1873439,3.1666518 0.95118037,2.9295242 0.76283427,2.7262393 0.46486675,2.404638 0.40406636,2.3230821 0.29473779,2.0983434 0.01531745,1.523961 -0.00720477,1.3814837 0.13536208,1.0900882 0.22907962,0.89853557 0.3597809,0.76736503 0.63695554,0.58669401 0.93075281,0.39518674 1.120509,0.31464388 1.4590046,0.23777023 2.0090798,0.1128462 2.3061686,0.16089613 2.3061686,0.374787 c 0,0.15067668 -0.061572,0.18706222 -0.3487172,0.20607276 C 1.4699793,0.61313285 1.0557045,0.76789064 0.72369951,1.041744 0.62601399,1.1223196 0.52624896,1.2298504 0.50199946,1.2807012 0.44608604,1.3979528 0.47139638,1.5029353 0.64167943,1.8600767 0.74644718,2.079809 0.80714793,2.16295 1.0726946,2.4504275 1.2426857,2.6344578 1.4669173,2.85812 1.5709863,2.9474542 1.7642455,3.1133491 2.119266,3.4888617 2.1961385,3.6086914 2.219631,3.6453112 2.300786,3.7623439 2.3764813,3.8687647 2.5564877,4.1218338 2.597225,4.2774912 2.5257418,4.4390896 2.4575341,4.5932856 2.2625495,4.783613 2.039084,4.9141237 1.7943725,5.0570429 1.6507488,5.1176085 1.334086,5.2114185 1.1141314,5.2765792 1.0074822,5.2921205 0.72154141,5.3006802 0.53111879,5.3063806 0.32138896,5.2984438 0.25547413,5.283041 Z M 3.8433417,5.2467457 C 3.6918908,5.2050938 3.3818826,5.0230379 3.2873438,4.9202302 3.0566338,4.6693405 2.9988521,4.4994121 3.0842695,4.3230208 3.1078312,4.2743633 3.1428786,4.1811436 3.1621516,4.1158663 3.2090535,3.9570102 3.4225244,3.7458667 3.6489049,3.6344195 3.8036473,3.55824 3.851462,3.5478128 4.0583298,3.5451382 4.2778397,3.5422982 4.3051392,3.5483182 4.4929739,3.6410412 4.9656322,3.8743524 5.0909251,4.0860631 4.9860738,4.4742428 4.9093608,4.7582497 4.6428636,5.1059388 4.4000484,5.238808 4.2993085,5.293934 4.028942,5.297788 3.8433417,5.246738 Z M 4.2938897,4.8004913 C 4.43184,4.6794822 4.5679197,4.4565935 4.5861911,4.3217226 4.5992589,4.2252397 4.5921,4.1991041 4.5391584,4.1499897 4.424753,4.043861 4.2116269,3.9548719 4.0733563,3.9554971 3.8474738,3.9565163 3.5794279,4.1262693 3.5444924,4.2904195 c -0.00905,0.042512 -0.027924,0.098449 -0.04195,0.1243031 -0.067484,0.1244054 0.1833292,0.3524429 0.476429,0.433166 0.1842441,0.050743 0.2069303,0.047328 0.3149183,-0.047397 z M 23.32378,5.2248933 c -0.08252,-0.087818 -0.07406,-0.1926322 0.02337,-0.290061 0.07436,-0.074364 0.09179,-0.079838 0.204893,-0.064334 0.157161,0.021542 0.246475,0.1016007 0.246475,0.2209356 0,0.138537 -0.07587,0.1951006 -0.261682,0.1951006 -0.127738,0 -0.16538,-0.010895 -0.21306,-0.06164 z M 7.7556592,5.1722706 C 7.7018183,5.1184283 7.6925737,5.0754742 7.676884,4.806075 7.6668156,4.6333297 7.6358728,4.4199692 7.6055661,4.3144498 7.5761195,4.2119151 7.5445117,4.001228 7.535325,3.8462564 7.5192429,3.5749577 7.5209198,3.5623426 7.5806586,3.5066932 c 0.084281,-0.078519 0.1809542,-0.072607 0.306413,0.018741 0.1473031,0.1072525 0.1928022,0.1158119 0.3927918,0.073891 0.096904,-0.020312 0.2069935,-0.031045 0.2446408,-0.023847 0.1360116,0.026001 0.1925166,0.2105616 0.099599,0.3253098 C 8.5682822,3.969724 8.3248264,4.0337855 8.116352,4.0343949 l -0.1421612,4.126e-4 0.018749,0.113187 c 0.010314,0.062254 0.031557,0.1371564 0.047213,0.1664527 0.015655,0.029296 0.033689,0.2220352 0.040079,0.4283105 l 0.011601,0.3750461 -0.073393,0.057729 c -0.094618,0.07443 -0.1862284,0.07329 -0.262786,-0.00327 z M 20.427416,4.9319394 c -0.06107,-0.052534 -0.0712,-0.081293 -0.06867,-0.19473 0.0016,-0.073201 -0.03868,-0.3116675 -0.08963,-0.5299251 -0.108719,-0.4658296 -0.112127,-0.5250785 -0.03433,-0.5975556 0.114486,-0.1066517 0.286058,-0.048269 0.34019,0.1157536 0.06269,0.1899908 0.214069,0.8847311 0.214069,0.9825361 0,0.2468102 -0.194805,0.3674283 -0.361644,0.2239202 z M 6.109384,4.8608131 C 5.8536222,4.7836743 5.6283336,4.487754 5.5586351,4.1373957 5.5275852,3.9813129 5.4607011,2.3490741 5.4838222,2.3116627 5.4916935,2.298923 5.5120314,1.8585817 5.5290135,1.3331263 5.5533515,0.58002545 5.5529329,0.35291139 5.5270406,0.26042176 5.497415,0.15460991 5.4994341,0.13606654 5.547606,0.07154531 5.592572,0.01131973 5.621183,0 5.728437,0 c 0.1087552,0 0.1356351,0.01100312 0.1835528,0.07513339 0.069215,0.09263422 0.071136,0.26022056 0.018974,1.65597291 -0.046176,1.2356119 -0.014759,2.2486618 0.07611,2.4541576 0.07024,0.1588452 0.1783115,0.2756642 0.2550207,0.2756642 0.080219,0 0.2295826,-0.052938 0.2852897,-0.101112 0.027003,-0.023352 0.046605,-0.077641 0.046605,-0.1290728 0,-0.1263272 -0.1458341,-0.5598787 -0.2366768,-0.7036167 C 6.2860218,3.4143217 6.2737267,3.4064058 6.1857708,3.4166753 6.1107759,3.4254393 6.0768281,3.4135363 6.0229185,3.3596302 5.8651756,3.2018872 6.0067853,2.9695139 6.2606574,2.9695139 c 0.2598957,0 0.4750519,0.2639812 0.6604426,0.8103159 0.1505625,0.4436983 0.09508,0.8117169 -0.1425071,0.9452479 -0.2434189,0.1368098 -0.49587,0.1880141 -0.669205,0.1357359 z m 4.559362,-0.017969 C 10.312458,4.787639 10.038353,4.6456196 9.8288234,4.4076632 9.7707828,4.3417481 9.7114248,4.2828621 9.6969179,4.2768057 c -0.014503,-0.00606 -0.060718,-0.045354 -0.1026943,-0.08733 -0.066274,-0.066272 -0.07396,-0.089364 -0.058422,-0.1754154 0.00983,-0.054504 0.017242,-0.1458465 0.016451,-0.2029848 -0.0033,-0.2383248 0.1619149,-0.651252 0.3777062,-0.9438884 0.1782822,-0.2417721 0.4810182,-0.3358586 0.7065552,-0.219588 0.167329,0.086265 0.32039,0.2379484 0.435324,0.431411 0.105793,0.178076 0.109474,0.1918753 0.09711,0.3640444 -0.0077,0.1061033 -0.03544,0.2232033 -0.06835,0.2876534 -0.07705,0.150879 -0.349599,0.3952797 -0.557945,0.5003146 l -0.174427,0.087935 0.116965,0.04686 c 0.133455,0.053464 0.450256,0.084327 0.592223,0.057694 0.05267,-0.00987 0.130815,-0.047452 0.173641,-0.083488 0.204606,-0.1721646 0.461471,0.056179 0.308645,0.274369 -0.124672,0.1779928 -0.53597,0.2834538 -0.890957,0.2284504 z m -0.32919,-0.9788172 c 0.171044,-0.07964 0.352433,-0.2411068 0.400886,-0.3568544 0.03368,-0.080443 0.03159,-0.098893 -0.02376,-0.2097194 -0.07081,-0.1417898 -0.219956,-0.2746748 -0.30828,-0.2746748 -0.08688,0 -0.176159,0.1070167 -0.297891,0.3570743 -0.1130615,0.2322438 -0.1498487,0.3759417 -0.1233122,0.4816715 0.014155,0.0564 0.032172,0.066715 0.1161182,0.066495 0.05465,-1.309e-4 0.160961,-0.028939 0.236243,-0.063992 z M 23.573127,3.5188794 c -0.123377,-0.1233797 -0.140409,-0.35418 -0.03175,-0.4302876 0.132439,-0.092769 0.283466,-0.033615 0.377265,0.1477731 0.118235,0.2286392 -0.16654,0.4614884 -0.345513,0.2825145 z M 20.322993,2.619815 c -0.08785,-0.049112 -0.11984,-0.1075266 -0.11984,-0.2187962 0,-0.088706 0.0172,-0.1219268 0.107709,-0.2080353 0.05925,-0.056359 0.158119,-0.1281311 0.219718,-0.1594917 0.06159,-0.031362 0.22585,-0.1429338 0.365004,-0.2479405 0.350232,-0.2642866 0.476336,-0.3340851 0.603585,-0.3340851 0.172551,0 0.272077,0.1496621 0.195132,0.293434 -0.01479,0.027633 -0.0897,0.081721 -0.166451,0.1201953 -0.07676,0.038475 -0.180077,0.1019671 -0.229591,0.1410937 -0.220992,0.1746272 -0.397399,0.2998101 -0.495889,0.3518915 -0.05859,0.030982 -0.148475,0.1028477 -0.199742,0.159698 -0.102156,0.1132849 -0.197374,0.1480271 -0.27964,0.1020367 z"
       id="path836" />
  </g>
</svg>
