<?xml version="1.0" encoding="UTF-8" standalone="no"?>
<!-- Created with Inkscape (http://www.inkscape.org/) -->

<svg
   width="27.301672mm"
   height="12.956025mm"
   viewBox="0 0 27.301671 12.956026"
   version="1.1"
   id="svg5"
   inkscape:version="1.1.1 (3bf5ae0d25, 2021-09-20)"
   sodipodi:docname="atheist.svg"
   xmlns:inkscape="http://www.inkscape.org/namespaces/inkscape"
   xmlns:sodipodi="http://sodipodi.sourceforge.net/DTD/sodipodi-0.dtd"
   xmlns="http://www.w3.org/2000/svg"
   xmlns:svg="http://www.w3.org/2000/svg">
  <sodipodi:namedview
     id="namedview7"
     pagecolor="#ffffff"
     bordercolor="#666666"
     borderopacity="1.0"
     inkscape:pageshadow="2"
     inkscape:pageopacity="0.0"
     inkscape:pagecheckerboard="0"
     inkscape:document-units="mm"
     showgrid="false"
     fit-margin-top="0"
     fit-margin-left="0"
     fit-margin-right="0"
     fit-margin-bottom="0"
     inkscape:zoom="1.0104048"
     inkscape:cx="-4.9485117"
     inkscape:cy="-14.350684"
     inkscape:window-width="1920"
     inkscape:window-height="991"
     inkscape:window-x="-9"
     inkscape:window-y="-9"
     inkscape:window-maximized="1"
     inkscape:current-layer="layer1" />
  <defs
     id="defs2" />
  <g
     inkscape:label="Capa 1"
     inkscape:groupmode="layer"
     id="layer1"
     transform="translate(13.729457,4.4499922)">
    <path
       style="fill:#000000;stroke-width:0.0224744"
       d="M -8.6966583,8.4786687 C -8.8480409,8.4008939 -8.8653112,8.3493444 -8.9132297,7.8322664 -8.9372725,7.5728519 -8.922614,7.5886168 -9.1207162,7.6091228 c -0.095211,0.00985 -0.2489619,0.015434 -0.3416685,0.012409 -0.2178075,-0.00713 -0.8902273,-0.085179 -0.9776363,-0.1134898 -0.03708,-0.012006 -0.163502,-0.043255 -0.280931,-0.069428 -0.258342,-0.057588 -0.296693,-0.072485 -0.75489,-0.293289 -0.41001,-0.1975827 -0.423146,-0.2056832 -1.066253,-0.6574703 l -0.154189,-0.1083194 -0.06942,0.051333 c -0.08855,0.065468 -0.278017,0.071131 -0.36971,0.011056 -0.06283,-0.041164 -0.125137,-0.1585337 -0.125137,-0.2357138 0,-0.023678 0.04652,-0.1109992 0.103379,-0.1940395 l 0.103379,-0.1509811 -0.09633,-0.250552 c -0.05298,-0.1378036 -0.113727,-0.2808923 -0.134991,-0.3179749 -0.02126,-0.037086 -0.0545,-0.1230477 -0.07385,-0.1910327 -0.01935,-0.067986 -0.06537,-0.2298005 -0.102268,-0.3595905 -0.08319,-0.2926467 -0.195128,-0.8298793 -0.241162,-1.1574317 -0.02698,-0.1919734 -0.03207,-0.3702632 -0.0228,-0.7978412 0.0065,-0.3028427 0.02231,-0.5843503 0.035,-0.6255732 0.01269,-0.041219 0.03368,-0.1702058 0.04666,-0.2866289 0.01298,-0.1164231 0.0333,-0.2546241 0.04516,-0.3071144 0.01185,-0.052489 0.03804,-0.1864577 0.05818,-0.2977056 0.02014,-0.1112487 0.05497,-0.2629504 0.07737,-0.33711572 0.02241,-0.0741633 0.05203,-0.18541388 0.06584,-0.24721886 0.0138,-0.0618015 0.03966,-0.14776905 0.05747,-0.19103261 0.165751,-0.40262363 0.248588,-0.58276732 0.346527,-0.75357265 0.06298,-0.10983669 0.114506,-0.21125126 0.114506,-0.2253673 0,-0.0141121 0.03231,-0.0701645 0.07179,-0.12455221 0.03948,-0.0543894 0.102695,-0.15144832 0.140464,-0.2156892 0.179816,-0.30583865 0.388485,-0.58024585 0.523779,-0.68878765 0.07725,-0.061976 0.140465,-0.1200399 0.140465,-0.1290235 0,-0.02154 0.17502,-0.146456 0.369409,-0.2636639 0.08575,-0.051697 0.139911,-0.094002 0.120368,-0.094002 -0.06082,0 -0.170704,-0.1220838 -0.186724,-0.2074754 -0.02984,-0.1590437 0.09831,-0.3094355 0.263661,-0.3094355 0.158864,0 0.640664,-0.1601009 0.681722,-0.2265354 0.0073,-0.011752 0.04537,-0.034924 0.08471,-0.05149 0.03933,-0.016567 0.129556,-0.077569 0.200511,-0.13556 0.07096,-0.057992 0.165337,-0.1206163 0.209742,-0.1391703 0.0444,-0.018555 0.168395,-0.1219999 0.2755326,-0.2298797 0.2329729,-0.2345869 0.3915763,-0.3552658 0.5880986,-0.4474774 0.080346,-0.037696 0.2245334,-0.1061035 0.3204164,-0.1520114 0.129166,-0.061842 0.2223278,-0.088994 0.3595904,-0.1047953 0.1018921,-0.011736 0.2307682,-0.035051 0.286393,-0.051816 0.055625,-0.016765 0.1269383,-0.036128 0.1584758,-0.043025 0.042883,-0.00938 0.073277,-0.045868 0.1205221,-0.1447264 0.071004,-0.1485642 0.1467475,-0.2063136 0.2705894,-0.2063136 0.1585241,0 0.2819653,0.1047177 0.2819653,0.2391975 0,0.082572 0.0086,0.085697 0.3034042,0.1101407 0.3609519,0.029927 0.5881224,0.097899 1.0105188,0.3023518 0.1240659,0.060051 0.3495013,0.1596828 0.5009695,0.2214022 0.1514665,0.061723 0.3465277,0.1560019 0.4334691,0.2095161 0.263945,0.162464 0.5023537,0.3197655 0.5497583,0.3627289 0.083338,0.075534 0.3990298,0.3076665 0.4184075,0.3076665 0.010572,0 0.043896,0.037925 0.074061,0.08428 0.030156,0.046351 0.095889,0.1399029 0.1460664,0.2078879 0.1129521,0.1530362 0.194129,0.3201052 0.2620816,0.5393849 0.056836,0.1834057 0.154963,0.4565601 0.1897316,0.5281492 0.012006,0.024724 0.047579,0.1359702 0.079058,0.2472189 0.031479,0.11124785 0.086213,0.27306404 0.1216427,0.35958964 0.03543,0.0865264 0.081361,0.22811528 0.1020646,0.31464168 0.020701,0.0865264 0.061327,0.23822893 0.090268,0.33711649 C -3.184326,0.369405 -3.0917445,1.5173438 -3.1442,2.0451097 -3.2167,2.7745564 -3.238951,2.9448715 -3.2792618,3.0789324 -3.415354,3.5315407 -3.4806726,3.7221092 -3.5771116,3.9479263 c -0.058943,0.138022 -0.1248,0.3048417 -0.1463451,0.3707107 -0.1124485,0.3437758 -0.5040682,0.9712932 -0.7493517,1.2007277 -0.064273,0.060123 -0.1358489,0.1465282 -0.1590555,0.192017 -0.048054,0.094189 -0.1426295,0.1768549 -0.2023381,0.1768549 -0.022253,0 -0.1043218,0.055902 -0.1823825,0.1242243 -0.480096,0.4202092 -1.2525632,0.8385501 -1.8650451,1.0100412 -0.057731,0.016164 -0.1639195,0.060075 -0.2359813,0.097579 -0.177821,0.092547 -0.3793483,0.1535121 -0.8052536,0.2436014 -0.1977744,0.041837 -0.3888078,0.082298 -0.4245172,0.089922 l -0.064929,0.013859 0.012425,0.2083433 c 0.0085,0.1423974 0.024716,0.2270944 0.051245,0.2675855 0.031384,0.047903 0.036421,0.090946 0.026292,0.2248478 -0.013882,0.183503 -0.034583,0.2369635 -0.1112344,0.2871857 -0.089174,0.058428 -0.1791166,0.066379 -0.2630605,0.02325 z m -0.3646778,-1.4132912 0.097644,-0.011871 -0.01557,-0.1050566 c -0.00856,-0.057779 -0.023592,-0.8635685 -0.033388,-1.7906374 -0.010113,-0.9566457 -0.027781,-1.7438957 -0.040847,-1.8204272 -0.01267,-0.074163 -0.023884,-0.4253637 -0.02493,-0.7804419 -0.00174,-0.6037643 -0.00483,-0.6503636 -0.046763,-0.7191809 -0.024676,-0.040476 -0.044902,-0.1013972 -0.04495,-0.1353897 -8.48e-5,-0.071804 -0.02299,-0.075795 -0.1756559,-0.03064 -0.154411,0.045671 -0.3525836,0.07921 -0.5555933,0.094032 -0.2870727,0.020963 -0.4551457,0.06904 -0.5309897,0.1518903 -0.06647,0.072619 -0.236975,0.3855695 -0.375553,0.689315 -0.04229,0.092707 -0.09566,0.1954112 -0.118586,0.2282325 -0.02292,0.032818 -0.08294,0.1491257 -0.133365,0.2584555 -0.05043,0.1093298 -0.105791,0.2291218 -0.123036,0.2662045 -0.01725,0.037085 -0.06107,0.1483313 -0.09739,0.247218 -0.03633,0.098888 -0.08812,0.2303627 -0.115123,0.2921677 -0.115646,0.2647449 -0.515261,1.0577886 -0.674562,1.3386792 -0.09509,0.167671 -0.210432,0.3850184 -0.256314,0.4829937 l -0.08342,0.1781369 0.07832,0.06763 c 0.122416,0.1057013 0.303167,0.2410237 0.420547,0.3148477 0.05896,0.037085 0.154847,0.1007936 0.213078,0.1415793 0.147743,0.1034767 0.784866,0.4100392 0.883844,0.4252758 0.04496,0.00689 0.109704,0.026664 0.143875,0.043872 0.03417,0.017208 0.135305,0.04533 0.224743,0.062506 0.08944,0.017169 0.241319,0.047602 0.337511,0.06763 0.1907098,0.039699 0.6863092,0.076698 0.8476899,0.063267 0.055625,-0.0046 0.1450749,-0.013756 0.1987792,-0.020281 z M -8.0928472,6.854356 c 0.3846572,-0.07467 0.6084613,-0.1448089 0.844191,-0.2645739 0.086527,-0.04396 0.197775,-0.087401 0.2472187,-0.096533 0.1374591,-0.025389 0.5406822,-0.1829733 0.7416558,-0.289845 0.2991216,-0.159065 0.3736773,-0.2043504 0.5830889,-0.3541722 0.2885945,-0.2064711 0.3495987,-0.2644495 0.3495987,-0.3322588 0,-0.031891 0.014112,-0.085298 0.031368,-0.1186769 0.02946,-0.056995 0.025373,-0.070956 -0.067092,-0.2292462 C -5.4193848,5.0722009 -5.5036614,4.8705817 -5.5609103,4.6951278 -5.6157115,4.5271782 -5.6773565,4.3501919 -5.6978989,4.3018259 -5.7349927,4.2144934 -5.7946784,4.0004039 -5.8539999,3.7419247 -5.8850353,3.6066988 -5.9069954,3.5425063 -6.0577239,3.1463534 -6.1024042,3.0289246 -6.1495878,2.8974494 -6.162577,2.8541858 -6.1755645,2.810923 -6.2317436,2.6794478 -6.287419,2.562019 -6.387047,2.3518828 -6.5234717,1.9873989 -6.6554482,1.5787638 l -0.067139,-0.207888 h -0.094626 c -0.052046,0 -0.1299539,0.010461 -0.173136,0.023251 -0.043184,0.01279 -0.2605547,0.028066 -0.4830505,0.033957 -0.2224975,0.00586 -0.5056752,0.020456 -0.6292842,0.032373 -0.1236083,0.011919 -0.2820358,0.026965 -0.3520593,0.033435 -0.2035649,0.018824 -0.2063991,0.021699 -0.1415041,0.1432306 l 0.055846,0.1045822 -1.75e-4,0.7528924 c -8.47e-5,0.4140907 0.00976,0.81863 0.021944,0.8989762 0.01218,0.080345 0.027583,0.8236872 0.034243,1.6518686 0.010208,1.2708898 0.023456,1.8772858 0.041022,1.8764385 0.00198,-9.35e-5 0.1597302,-0.030482 0.3505537,-0.06752 z M -12.628782,5.1384809 c 0.02405,-0.051175 0.08944,-0.168892 0.145321,-0.2615986 0.184413,-0.3059456 0.657609,-1.2924191 0.727694,-1.5170222 0.02894,-0.092729 0.188666,-0.445351 0.300323,-0.6629948 0.03487,-0.067986 0.149741,-0.2954818 0.255251,-0.5055476 0.10551,-0.2100664 0.21137,-0.4093723 0.235245,-0.4429024 0.02388,-0.03353 0.05567,-0.094267 0.07066,-0.1349723 0.01499,-0.040705 0.07783,-0.1626604 0.139624,-0.2710115 0.0618,-0.108351 0.132598,-0.2362839 0.15732,-0.2842943 0.02472,-0.048014 0.06101,-0.10600619 0.08066,-0.12887695 0.03379,-0.0393431 0.110816,-0.16848414 0.290168,-0.48646065 0.04326,-0.0767058 0.104985,-0.17991244 0.137162,-0.22935621 0.07016,-0.10782203 0.2929095,-0.53287217 0.6514055,-1.24305129 0.1454487,-0.2881289 0.2744389,-0.5359084 0.2866472,-0.5506224 0.030022,-0.036175 0.1186056,-0.2730355 0.2537735,-0.6785094 0.06181,-0.1854147 0.1867856,-0.4938753 0.2777254,-0.6854694 0.090941,-0.191595 0.1719916,-0.3942008 0.1801136,-0.4502365 l 0.014769,-0.1018834 -0.1647606,0.013684 c -0.1457908,0.012101 -0.1994025,0.031321 -0.4656275,0.1669186 -0.2624001,0.1336482 -0.3243696,0.1765333 -0.4846907,0.3354234 -0.2188695,0.2169174 -0.3223677,0.3006626 -0.5008804,0.405286 -0.0734,0.043018 -0.146984,0.09452 -0.163525,0.1144512 -0.01654,0.019933 -0.05909,0.051245 -0.09457,0.069587 l -0.06449,0.033356 0.05635,0.066965 c 0.141788,0.1685048 0.07929,0.4160689 -0.118486,0.4693234 -0.0877,0.023616 -0.20428,0.00349 -0.263213,-0.045409 -0.02433,-0.020194 -0.06347,-0.00119 -0.183236,0.088916 -0.187802,0.1413046 -0.337358,0.2419272 -0.50774,0.3416075 -0.194536,0.1138105 -0.537059,0.4278741 -0.607204,0.55675342 -0.03278,0.0602179 -0.07498,0.12226038 -0.09379,0.13786841 -0.03112,0.0258325 -0.222194,0.32134135 -0.302526,0.46789083 -0.01814,0.0330787 -0.08584,0.15622364 -0.15045,0.273652491764 C -12.665707,0.23973358 -12.85435,0.70054779 -12.91098,0.92139635 c -0.103465,0.40349715 -0.131033,0.53634235 -0.191216,0.92145025 -0.0145,0.092707 -0.042,0.2646356 -0.06113,0.3820645 -0.04672,0.2867326 -0.03308,1.3342168 0.02006,1.539497 0.0192,0.074163 0.05173,0.2208106 0.07229,0.3258783 0.02056,0.1050685 0.05838,0.2668838 0.08403,0.3595904 0.02565,0.092707 0.0706,0.2567148 0.0999,0.3644624 0.05959,0.2191666 0.16342,0.4487889 0.194306,0.4297003 0.01114,-0.00689 0.03993,-0.054381 0.06397,-0.1055508 z m 7.9888593,-0.2503612 c 0.1915792,-0.2662519 0.293476,-0.4554141 0.453995,-0.84279 0.3518415,-0.8490953 0.4239335,-1.1291608 0.5116842,-1.9878067 0.040736,-0.3986204 0.038448,-0.5106626 -0.022783,-1.11366123 -0.058238,-0.57351845 -0.075866,-0.68992573 -0.1350571,-0.89198671 -0.031907,-0.10891171 -0.068683,-0.23847523 -0.081723,-0.287919 -0.026284,-0.0996462 -0.097474,-0.29880002 -0.1458193,-0.40793585 -0.017256,-0.0389548 -0.031502,-0.0895191 -0.031661,-0.11237243 -3.366e-4,-0.0510395 -0.061825,-0.24236199 -0.1685856,-0.52475098 -0.044395,-0.1174297 -0.1049868,-0.2944342 -0.1346452,-0.3933454 -0.036824,-0.122791 -0.096297,-0.2439863 -0.1875046,-0.3820645 -0.1576459,-0.2386582 -0.1728723,-0.2534972 -0.4416631,-0.4304448 -0.04944,-0.032548 -0.1272891,-0.090594 -0.1729895,-0.1289877 -0.1510333,-0.1268876 -0.2157668,-0.1709431 -0.2511784,-0.1709431 -0.019243,0 -0.068216,-0.02866 -0.1088175,-0.063694 -0.040602,-0.035035 -0.1041641,-0.079855 -0.1412467,-0.099611 -0.1109256,-0.059093 -0.3214871,-0.151339 -0.3454602,-0.151339 -0.012298,0 -0.1722134,-0.071646 -0.3553632,-0.1592147 -0.183149,-0.087568 -0.3817074,-0.1787055 -0.441241,-0.2025275 -0.1425432,-0.057043 -0.4896545,-0.1162251 -0.5502264,-0.093819 -0.047404,0.017533 -0.047357,0.017976 0.021842,0.2084739 0.2052208,0.5649847 0.435715,1.2978137 0.4806376,1.5281281 0.00844,0.043263 0.0639,0.2253063 0.1232559,0.4045401 0.059355,0.179233 0.1347744,0.46240992 0.1676052,0.62928255 0.032833,0.16687342 0.07391,0.35397179 0.091284,0.41577748 0.017375,0.0618018 0.051657,0.28429992 0.076183,0.49443614 0.038733,0.33187473 0.08331,0.55227035 0.2136192,1.05629673 0.051539,0.199347 0.1070982,0.38148 0.1234032,0.4045392 0.018301,0.025872 0.072002,0.1788743 0.1143957,0.3258791 0.016036,0.055625 0.093202,0.2442919 0.1714697,0.4192619 0.078266,0.1749701 0.1423056,0.3258791 0.1423056,0.3353529 0,0.00947 0.025658,0.083756 0.057011,0.1650726 0.03136,0.081316 0.083295,0.2186407 0.1154182,0.3051671 0.03212,0.086527 0.071994,0.1887416 0.088598,0.2271444 0.016607,0.0384 0.046763,0.144595 0.067013,0.2359815 0.1243867,0.5612728 0.4744147,1.5038619 0.5483083,1.4765381 0.010216,-0.00381 0.076785,-0.087773 0.1479354,-0.1866604 z m -5.0696815,-3.685903 c 0.2261291,-0.042169 0.386382,-0.075462 0.5618613,-0.1167289 0.080345,-0.018895 0.1978867,-0.042273 0.261201,-0.05195 0.063315,-0.00968 0.1354507,-0.028477 0.1603029,-0.0417817 0.050691,-0.0271312 0.5922133,-0.0709328 1.2753134,-0.10315762 0.3088456,-0.0145715 0.3990204,-0.0253411 0.4719622,-0.0563849 0.024723,-0.0105163 0.062095,-0.0245737 0.083047,-0.0312254 0.031772,-0.0100894 0.034528,-0.0244311 0.016615,-0.0863171 -0.011816,-0.0408153 -0.036476,-0.19558138 -0.054794,-0.34391194 -0.05568,-0.45088902 -0.075462,-0.58137354 -0.098812,-0.65175736 -0.012298,-0.0370858 -0.048846,-0.20395606 -0.081204,-0.37082789 -0.032366,-0.16687263 -0.088826,-0.39442569 -0.1254789,-0.50567359 -0.1190079,-0.3612202 -0.1522418,-0.4706087 -0.167286,-0.5506231 -0.00814,-0.043263 -0.028129,-0.1241705 -0.044426,-0.1797953 -0.1924312,-0.6565848 -0.4148185,-1.3107948 -0.4618223,-1.3585771 -0.013138,-0.01336 -0.021002,-0.00491 -0.021018,0.022475 -1.74e-5,0.065666 -0.0757,0.2522713 -0.2148386,0.529702 -0.068493,0.1365713 -0.1635775,0.3662981 -0.2112972,0.5105011 -0.1761731,0.5323733 -0.2500421,0.705788 -0.5575557,1.3089078 -0.590152,1.1574594 -0.645673,1.26008562 -0.9474839,1.75134372 -0.049361,0.0803455 -0.115145,0.19412278 -0.146184,0.25283678 l -0.05643,0.1067529 0.094884,-0.00119 c 0.052188,-6.74e-4 0.1707357,-0.015332 0.2634414,-0.03262 z m 18.091897,3.723559 C 7.9088485,4.7296011 7.6162252,4.4677633 7.4108904,4.0565663 7.1703705,3.5749142 7.1061621,3.0410862 7.242331,2.6551753 7.3045683,2.4787861 7.4874576,2.1440422 7.6124762,1.9776844 7.9484341,1.5306393 8.5331896,1.3115219 9.1656484,1.3956868 c 0.1862611,0.024787 0.4036922,0.1025653 0.4814357,0.1722166 0.066818,0.059862 0.175752,0.2979622 0.1895215,0.4142245 0.010463,0.088265 5.35e-4,0.1404509 -0.050688,0.2678049 -0.052404,0.1301717 -0.08965,0.1817489 -0.2103879,0.2913171 -0.080695,0.07323 -0.1565987,0.1331407 -0.1686852,0.1331407 -0.012097,0 -0.047818,0.024169 -0.079396,0.053716 C 9.1636103,2.8813793 8.6629749,3.0061183 8.3117324,2.981187 8.0170473,2.9602726 7.8928729,2.8896018 7.8318797,2.7081063 c -0.013209,-0.039288 -0.021248,-0.033617 -0.063845,0.044949 -0.042938,0.079198 -0.048537,0.1233374 -0.04708,0.3708279 0.00158,0.2636584 0.00649,0.2941704 0.080911,0.4962916 0.091746,0.2493309 0.1428719,0.3307938 0.3312,0.5277373 0.1879994,0.1965999 0.4070499,0.3009675 0.5867609,0.2795642 0.1393942,-0.016599 0.2208215,-0.050224 0.4186859,-0.1728769 0.076,-0.047111 0.1872483,-0.1153636 0.247218,-0.1516717 0.05997,-0.03631 0.142187,-0.094399 0.1827045,-0.12909 0.1083968,-0.092811 0.2394163,-0.1532483 0.3322254,-0.1532483 0.1216516,0 0.2346296,0.1186682 0.2346296,0.2464482 0,0.051491 -0.01043,0.1130924 -0.02316,0.1368881 -0.0612,0.1143356 -0.7965748,0.5943366 -1.0588983,0.6911659 -0.1892736,0.069864 -0.537915,0.085811 -0.6709508,0.030687 z M 8.6632229,2.4254263 C 8.7497488,2.4106568 8.8559405,2.379534 8.8992025,2.3562673 9.0216876,2.2904105 9.2408325,2.1256352 9.2756164,2.0732463 9.3510893,1.9595885 9.1477592,1.8946374 8.7799226,1.9148971 8.511614,1.9296747 8.3020262,2.0241145 8.1274194,2.2089132 7.9358244,2.4116869 7.9333431,2.4211749 8.074552,2.4110438 c 0.064193,-0.0046 0.1672739,0.0057 0.2290791,0.022982 0.061804,0.017248 0.1325989,0.028406 0.1573225,0.024803 0.024722,-0.00364 0.1157415,-0.018634 0.2022693,-0.033412 z M 1.1925885,4.8482447 C 1.0175645,4.7852631 0.97079989,4.5658851 1.0834193,4.3361353 1.1163792,4.2689009 1.1639858,4.1380363 1.1892132,4.0453297 1.2144439,3.9526223 1.2714847,3.7705796 1.3159766,3.6407904 1.3604668,3.5110004 1.4218789,3.318844 1.452444,3.2137763 1.5230203,2.9711759 1.6131705,2.6699495 1.6542302,2.5395441 1.6717476,2.4839194 1.7260023,2.3069347 1.7747999,2.1462422 1.8235982,1.9855506 1.8986424,1.7529403 1.9415616,1.6293313 1.9844839,1.5057223 2.0604658,1.257942 2.1104204,1.0787082 2.3423496,0.24655927 2.4012006,0.04962917 2.4596707,-0.0899601 c 0.028477,-0.06798668 0.08226,-0.2146304 0.119518,-0.32587908 0.03726,-0.11124868 0.1499871,-0.43993671 0.25051,-0.73041762 0.4134627,-1.1947961 0.4684999,-1.2999558 0.6903534,-1.3190966 0.1287772,-0.01111 0.2329215,0.042558 0.2875475,0.1482015 0.019109,0.036951 0.065801,0.1916297 0.1037556,0.3437282 0.037957,0.1520993 0.1081388,0.4029618 0.1559639,0.5574733 0.047824,0.1545115 0.1337606,0.44274565 0.1909716,0.64052074 0.057217,0.19777508 0.143815,0.48927357 0.192451,0.64777557 0.048632,0.1585012 0.088427,0.30209681 0.088427,0.31909941 0,0.0170026 0.024312,0.10981768 0.054025,0.20625263 0.029713,0.0964342 0.081199,0.27647091 0.1144093,0.4000808 0.033205,0.12360898 0.08974,0.31576455 0.1256205,0.42701325 0.1293323,0.4010089 0.2207044,0.6776873 0.2857471,0.8652648 0.036437,0.1050677 0.091487,0.2668831 0.1223404,0.3595897 0.030853,0.092707 0.088318,0.2494663 0.1276978,0.3483539 0.039375,0.098887 0.090151,0.2455328 0.1128262,0.3258783 0.18431,0.6530632 0.203526,0.7351881 0.203526,0.8698175 0,0.078638 -0.014563,0.1778257 -0.032358,0.220421 C 5.5704243,4.4117584 5.2421592,4.4574343 5.1169663,4.2887006 5.0611919,4.2135232 5.0588708,4.0743489 5.111898,3.9845733 5.1505835,3.9190891 5.1496965,3.9116846 5.0679779,3.616327 4.9680605,3.2552026 4.9198545,3.1071825 4.8197696,2.854185 4.7782015,2.7491173 4.7233703,2.5923584 4.6979106,2.505832 4.6724583,2.4193047 4.6440202,2.3373247 4.634723,2.3236522 4.6140063,2.293179 4.3017713,2.3162873 4.0222531,2.3689265 3.69578,2.4304432 3.1279539,2.4977781 2.7524489,2.5195061 2.5546738,2.5309496 2.3524046,2.5426702 2.3029608,2.5455447 l -0.089897,0.00522 -0.084761,0.2584554 c -0.04662,0.1421546 -0.1104238,0.3587205 -0.1417879,0.4812605 -0.03136,0.1225406 -0.070418,0.2489595 -0.086782,0.2809302 -0.016369,0.03197 -0.050644,0.1289237 -0.076167,0.21545 -0.025524,0.086526 -0.072406,0.2432854 -0.1041704,0.3483531 -0.031772,0.1050678 -0.068074,0.255382 -0.080671,0.334032 -0.026561,0.1658106 -0.090282,0.3032688 -0.1619888,0.3494467 -0.074488,0.047967 -0.1974298,0.060749 -0.284155,0.029539 z M 3.0808083,1.9552745 c 0.2976731,-0.025064 0.6266502,-0.070094 0.9751601,-0.133482 0.1359709,-0.024732 0.2800885,-0.045282 0.3202612,-0.045671 0.040174,-3.905e-4 0.073039,-0.00404 0.073039,-0.00813 0,-0.00411 -0.044079,-0.1431473 -0.097957,-0.3090229 C 4.2974371,1.2930907 4.2303682,1.0714082 4.2022716,0.96634054 4.174182,0.86127357 4.1279416,0.69945738 4.099525,0.60674999 4.0711108,0.51404342 4.0413978,0.40279557 4.0334944,0.35953197 4.0255752,0.31626917 3.9902475,0.18985039 3.9549356,0.07860171 3.9196316,-0.03264697 3.8551389,-0.25008633 3.8116219,-0.40459782 3.6723478,-0.89909809 3.5545063,-1.2935562 3.5229402,-1.3709145 l -0.030687,-0.075201 -0.1152138,0.3465831 c -0.06337,0.19062 -0.1623025,0.47805829 -0.2198524,0.63875074 C 3.099638,-0.30008999 3.0388736,-0.12310369 3.022156,-0.06747975 3.0054385,-0.01185501 2.96509,0.09745979 2.9324817,0.1754445 2.8998782,0.25342525 2.844084,0.43041391 2.8084982,0.56874641 2.772917,0.70707806 2.7278605,0.86503922 2.7083799,0.91977064 2.6888986,0.97450052 2.6371464,1.1514876 2.593372,1.3130725 2.5495945,1.4746575 2.4887327,1.6815009 2.4581153,1.7727258 c -0.030616,0.091224 -0.051752,0.169779 -0.046961,0.1745654 0.018713,0.018721 0.277715,0.048205 0.343771,0.039137 0.038448,-0.0053 0.1850916,-0.019292 0.3258783,-0.031146 z m 8.9985257,2.760654 C 11.609286,4.5507007 11.23307,4.3483396 10.978837,4.1239899 10.808074,3.9732971 10.801475,3.9203316 10.909369,3.5664193 11.039663,3.1390385 11.241871,2.6926024 11.349112,2.595549 c 0.02461,-0.022269 0.04475,-0.054532 0.04475,-0.071685 0,-0.052845 0.194848,-0.2428253 0.317516,-0.3095909 0.06398,-0.034821 0.188113,-0.077435 0.275852,-0.094695 0.141116,-0.027757 0.182864,-0.027092 0.361797,0.00579 0.111247,0.020431 0.23932,0.052331 0.284609,0.070893 0.14445,0.059204 0.386488,0.2425488 0.485744,0.3679485 0.05286,0.066798 0.133777,0.166281 0.179794,0.2210789 0.119374,0.1421465 0.173058,0.2438643 0.23007,0.4359004 0.04152,0.1399044 0.04826,0.2060055 0.03975,0.3895774 -0.0091,0.1948941 -0.01985,0.241734 -0.09138,0.3954132 -0.11595,0.2491947 -0.356543,0.4859459 -0.634155,0.6240353 -0.199611,0.09929 -0.205518,0.1006686 -0.449492,0.1050257 -0.13597,0.00245 -0.277557,-0.00626 -0.31464,-0.019283 z m 0.550252,-0.5733862 c 0.241786,-0.1250535 0.427385,-0.3873688 0.427385,-0.604044 0,-0.1100687 -0.0842,-0.3179519 -0.166862,-0.4119413 -0.03933,-0.044736 -0.103297,-0.1255587 -0.142134,-0.1796068 -0.229978,-0.3200704 -0.763303,-0.4117989 -0.89648,-0.1541883 -0.02065,0.039961 -0.06644,0.1086075 -0.101739,0.1525419 -0.06312,0.078559 -0.183903,0.340117 -0.269276,0.5831141 -0.02979,0.084783 -0.0389,0.1506921 -0.02901,0.2098322 0.01283,0.07669 0.03205,0.097627 0.173849,0.1893554 0.173966,0.1125395 0.484979,0.2523671 0.562547,0.2529143 0.02687,1.751e-4 0.06396,0.010786 0.08249,0.023552 0.05367,0.036944 0.225864,0.00745 0.359223,-0.061525 z M 6.4788062,3.8003647 C 6.3435045,3.7154831 6.3401799,3.700214 6.3388471,3.1575909 6.3377385,2.7226076 6.2969069,1.9615506 6.2513459,1.5281963 6.2371862,1.3935336 6.2315953,1.3816841 6.1798035,1.3766244 5.7715881,1.3367511 5.2196528,1.1756001 5.0950538,1.0599087 4.9530377,0.92804224 4.9712123,0.65178836 5.1272138,0.57111659 c 0.1047145,-0.0541516 0.237711,-0.0410533 0.3092131,0.0304498 0.034234,0.0342353 0.091607,0.07574 0.1274973,0.0922417 0.096064,0.0441658 0.3651031,0.11175555 0.5148781,0.12935837 L 6.209549,0.83852951 6.1947795,0.58217106 C 6.1866623,0.44117378 6.1799627,0.10249642 6.1799072,-0.17044571 l -8.63e-5,-0.49625755 -0.058103,-0.0310989 c -0.121516,-0.0650328 -0.1630674,-0.27742679 -0.075938,-0.38818994 0.025159,-0.031986 0.057185,-0.091505 0.071163,-0.1322594 0.090616,-0.2642483 0.3350915,-0.3682912 0.5032605,-0.2141758 l 0.080123,0.073427 0.00618,1.05591108 c 0.00341,0.58075189 0.013621,1.08710962 0.022752,1.1252408 0.01534,0.0640821 0.027076,0.0712888 0.1549939,0.0952098 0.07612,0.0142309 0.2477201,0.0325006 0.3813343,0.0405783 C 7.54309,0.97473602 7.6471052,0.95263543 7.7827697,0.84803937 7.9010805,0.756828 8.0118541,0.74520335 8.1126545,0.81342444 8.2223619,0.88766767 8.2658156,1.0148305 8.2193121,1.1255502 8.1456828,1.300864 7.8343028,1.4710484 7.5362398,1.4988814 7.4136864,1.5103249 6.988946,1.4789088 6.8341073,1.4469467 l -0.053692,-0.011087 0.013573,0.2091012 c 0.00745,0.1150056 0.02394,0.3506901 0.036603,0.5237429 0.046827,0.6396401 0.067741,1.3669795 0.041798,1.4540998 C 6.8182144,3.8047969 6.6249365,3.8919956 6.478855,3.800351 Z"
       id="path1340" />
  </g>
</svg>
