<?xml version="1.0" encoding="UTF-8" standalone="no"?>
<!-- Created with Inkscape (http://www.inkscape.org/) -->

<svg
   width="39.156372mm"
   height="9.473423mm"
   viewBox="0 0 39.15637 9.4734234"
   version="1.1"
   id="svg5"
   inkscape:version="1.1.1 (3bf5ae0d25, 2021-09-20)"
   sodipodi:docname="bisexual.svg"
   xmlns:inkscape="http://www.inkscape.org/namespaces/inkscape"
   xmlns:sodipodi="http://sodipodi.sourceforge.net/DTD/sodipodi-0.dtd"
   xmlns="http://www.w3.org/2000/svg"
   xmlns:svg="http://www.w3.org/2000/svg">
  <sodipodi:namedview
     id="namedview7"
     pagecolor="#ffffff"
     bordercolor="#666666"
     borderopacity="1.0"
     inkscape:pageshadow="2"
     inkscape:pageopacity="0.0"
     inkscape:pagecheckerboard="0"
     inkscape:document-units="mm"
     showgrid="false"
     fit-margin-top="0"
     fit-margin-left="0"
     fit-margin-right="0"
     fit-margin-bottom="0"
     inkscape:zoom="1.0104048"
     inkscape:cx="-54.433629"
     inkscape:cy="-24.247707"
     inkscape:window-width="1920"
     inkscape:window-height="991"
     inkscape:window-x="-9"
     inkscape:window-y="-9"
     inkscape:window-maximized="1"
     inkscape:current-layer="layer1" />
  <defs
     id="defs2" />
  <g
     inkscape:label="Capa 1"
     inkscape:groupmode="layer"
     id="layer1"
     transform="translate(0.88308769,1.7063185)">
    <path
       style="fill:#000000;stroke-width:0.0308597"
       d="M 1.2799544,7.7092105 C 1.1940973,7.6233516 1.1419869,7.4098278 1.1700942,7.2590165 1.1973686,7.1127313 1.1877429,6.3731418 1.1581543,6.3420575 1.1402355,6.3232058 0.84811323,6.3162229 0.49659415,6.3262457 0.32870133,6.3310361 0.21903739,6.2152189 0.2149863,6.0288493 0.2127352,5.9209288 0.22906922,5.8718443 0.2891197,5.80756 0.3600835,5.731575 0.379878,5.726451 0.5359975,5.743645 0.6293499,5.753926 0.80640565,5.770968 0.92945646,5.781521 L 1.1531911,5.8007067 1.1518404,5.4494769 1.1504898,5.098247 1.0416461,5.028813 C 0.98177575,4.9906243 0.91247142,4.959379 0.88762643,4.959379 0.76832326,4.959379 0.49344441,4.7743874 -0.38279467,4.1043921 -0.63513546,3.9114464 -0.78571998,3.693139 -0.8395241,3.4422552 -0.97871263,2.7932585 -0.79237695,2.310395 -0.16462116,1.6933801 0.76867083,0.77604542 0.74893674,0.7878286 1.6005658,0.63953444 1.9253094,0.58298758 2.1442753,0.60200131 2.4912129,0.71687521 2.7910484,0.81615354 3.3548485,1.0822481 3.4675776,1.1776875 3.493024,1.1992441 3.6295221,1.2953436 3.7708807,1.3912465 L 4.0278929,1.5656156 4.1589253,1.5211284 C 4.2309966,1.4966606 4.3791887,1.4240509 4.4882502,1.3597738 4.6562646,1.2607484 4.719517,1.2411551 4.9025535,1.2314357 5.0896194,1.221502 5.1637727,1.1975791 5.4558355,1.0529315 L 5.7930979,0.88589782 h 0.3591927 c 0.2271887,0 0.4151236,0.0167257 0.5113772,0.0455119 0.1673048,0.0500331 0.7972145,0.38890938 0.8886373,0.47806368 0.055665,0.054285 0.063049,0.053586 0.2270005,-0.021473 0.1563294,-0.07157 0.1961172,-0.076555 0.5133645,-0.064321 l 0.3439068,0.013262 0.3639308,0.1909248 C 9.3556762,1.7141949 9.366314,1.7175608 9.4424284,1.6676913 9.5302894,1.6101193 9.9183709,1.0991617 10.014923,0.91392489 10.049683,0.84725709 10.136789,0.72688452 10.208518,0.64643092 10.350402,0.48728535 10.553374,0.1572746 10.58371,0.03640673 10.59704,-0.01664282 10.58821,-0.04488968 10.55421,-0.0579261 10.486142,-0.08404649 10.024923,0.07492611 9.9238879,0.15933139 9.3591969,0.63109135 9.01304,0.74071261 8.8540859,0.49811668 8.7323362,0.31230065 8.8328715,0.11123265 9.0686,0.06911691 9.151585,0.05429023 9.2614143,-0.00897213 9.4037229,-0.12391662 c 0.2810863,-0.22703526 0.406183,-0.29191661 0.7912551,-0.41038777 0.330301,-0.1016193 0.347606,-0.10895088 0.509185,-0.2156918 0.104355,-0.0689388 0.320505,-0.081861 0.426349,-0.0254915 0.148775,0.079238 0.147264,0.0648417 0.129063,1.22829397 -0.01667,1.06490152 -0.0189,1.09636982 -0.08334,1.16495352 -0.09168,0.097587 -0.296698,0.098145 -0.387073,0.00105 -0.09669,-0.1038735 -0.17215,-0.3172351 -0.150179,-0.4245985 0.01038,-0.050766 0.02781,-0.1366978 0.03873,-0.1909595 l 0.01983,-0.0986589 -0.09269,0.1063737 c -0.05098,0.058504 -0.117463,0.1549769 -0.147732,0.214382 -0.06913,0.135674 -0.362193,0.5347738 -0.5013364,0.6827363 L 9.8506128,2.0199206 10.150479,2.3246945 c 0.328933,0.3343144 0.563894,0.6635911 0.640383,0.8974481 0.02718,0.083131 0.06484,0.2778341 0.08367,0.4326724 0.03873,0.3183852 0.01078,0.5452721 -0.09191,0.7465641 -0.03467,0.067927 -0.06301,0.1499195 -0.06301,0.182208 0,0.032288 -0.04229,0.1119235 -0.09398,0.176968 -0.05169,0.065044 -0.115671,0.1639605 -0.142175,0.2198133 -0.02652,0.055854 -0.137103,0.1847251 -0.245772,0.2863823 C 10.030227,5.4608155 9.9979568,5.474828 9.4888215,5.5919555 9.2618159,5.6441784 8.9805421,5.636521 8.8652009,5.5749758 8.8381967,5.5605589 8.747921,5.5398847 8.6646139,5.5290335 8.4323539,5.4987732 8.2339811,5.4267304 7.8883771,5.2471224 7.7144846,5.156751 7.5519035,5.082812 7.5270891,5.082812 c -0.024825,0 -0.083894,0.051478 -0.1312962,0.1143969 C 7.2497818,5.3910269 6.9153945,5.729473 6.774713,5.8258202 6.5924428,5.9506553 6.3428016,6.0519199 6.0126968,6.1349317 5.7905398,6.190796 5.647265,6.2048222 5.2883038,6.2058469 4.8836712,6.2070084 4.8142508,6.1988955 4.5630986,6.1211306 4.4103449,6.0738331 4.2228738,6.0036207 4.1464965,5.9651023 3.9276413,5.8547334 3.5652395,5.4058781 3.2656579,4.8741341 c -0.0027,-0.00446 -0.066975,0.01952 -0.1432612,0.053267 C 2.9522618,5.0026601 2.5908891,5.0528619 2.0711783,5.073435 L 1.6777184,5.089011 1.6781641,5.3867943 C 1.6790556,5.8496843 1.6470091,5.8167808 2.1050169,5.828707 2.3197939,5.834297 2.5700592,5.827994 2.661165,5.814736 2.8750821,5.783557 3.0667782,5.86655 3.140709,6.0223485 3.201561,6.1505956 3.202254,6.2037315 3.144759,6.3153894 3.0766785,6.4470352 2.9616705,6.4739397 2.692314,6.4212248 2.5672435,6.3967445 2.2968399,6.371415 2.0914175,6.3649309 l -0.3734898,-0.011788 0.00225,0.6134285 c 0.00225,0.5746235 -0.0018,0.6188741 -0.061626,0.6995176 C 1.5741807,7.779524 1.3731953,7.8024167 1.2799861,7.709211 Z M 5.9342962,5.6020058 C 6.3209244,5.5007385 6.4608486,5.4166965 6.7517301,5.111029 6.8973766,4.9579819 7.0165366,4.81372 7.0165366,4.7904467 7.0165366,4.7492145 6.8180495,4.5705305 6.5690719,4.3876335 6.5011785,4.3377598 6.2998226,4.1556154 6.1216071,3.9828669 5.7888334,3.6603005 5.6501212,3.5398311 5.6114878,3.5398311 c -0.01212,0 -0.1075155,0.079849 -0.2119605,0.1774435 C 5.2950868,3.8148683 5.1406214,3.929435 5.0562752,3.9718671 4.9719308,4.0142987 4.8056542,4.1129136 4.6867698,4.1910097 4.472497,4.3317646 4.0696113,4.5448315 3.8765646,4.6194835 c -0.055161,0.02133 -0.1002957,0.047916 -0.1002957,0.059077 0,0.037983 0.3660648,0.5735322 0.4686918,0.6856914 C 4.3231997,5.4497549 4.4087052,5.496378 4.609484,5.563001 4.7537528,5.610873 4.9412239,5.66 5.0260861,5.6721712 c 0.223053,0.031989 0.6416703,-3.52e-4 0.9082101,-0.070165 z M 9.5306471,5.016066 C 9.8466288,4.9360555 9.9705357,4.8302976 10.129659,4.5048019 10.185829,4.3899023 10.245535,4.2699027 10.262332,4.2381356 10.342189,4.0871335 10.369994,3.91671 10.346343,3.7231992 10.298559,3.3322565 10.219579,3.1908642 9.791563,2.7300185 9.5604794,2.4812141 9.4961618,2.4288816 9.4214472,2.4288816 c -0.087001,0 -0.2138676,-0.091104 -0.2138676,-0.153578 0,-0.016579 -0.052073,-0.056296 -0.1157248,-0.088263 C 9.0282025,2.155073 8.8650361,2.0729204 8.7292522,2.0044813 8.5934691,1.9360414 8.4495209,1.8701625 8.409371,1.8580837 c -0.099368,-0.02989 -0.4483958,0.010313 -0.5154985,0.059383 -0.059618,0.043595 -0.048021,0.1353308 0.083876,0.662935 0.061383,0.2455552 0.07462,0.6569928 0.026869,0.8359907 -0.03075,0.1152776 -0.084948,0.3399436 -0.1897177,0.7861699 -0.035784,0.1523412 -0.071189,0.2930286 -0.078708,0.3126379 -0.00774,0.020206 0.1308855,0.1131581 0.3199522,0.214514 0.2606492,0.1397344 0.4112643,0.1972334 0.6885176,0.2628529 0.4416002,0.1045148 0.4634333,0.1051681 0.7859659,0.0235 z M 2.6035998,4.4985832 C 2.730898,4.4812119 2.9027221,4.4357396 2.9854367,4.3975347 L 3.1358241,4.3280701 3.109081,4.1268235 C 3.058206,3.7440275 3.0811853,3.2092348 3.1595417,2.9534969 3.2357641,2.7046408 3.5375059,2.0454101 3.5900539,2.0129357 3.6539222,1.9734639 3.6180396,1.9179276 3.4749531,1.834743 3.3945706,1.7880191 3.2663215,1.7021478 3.1899442,1.6439189 3.1135688,1.5856901 3.0349575,1.5371262 3.0152639,1.5359992 2.9955622,1.5348646 2.8844711,1.4806814 2.7683861,1.4155745 2.4944608,1.2619434 2.0521213,1.121894 1.9003518,1.1407458 1.5727962,1.1814341 1.1549902,1.2714258 1.0510711,1.3236727 0.93941535,1.3798116 0.05902794,2.1976955 -0.00208957,2.3020642 c -0.01591081,0.027154 -0.06249068,0.084158 -0.10351842,0.1266708 -0.0969353,0.1004317 -0.21973668,0.3728667 -0.24230986,0.537579 -0.009806,0.07141 -8.9144e-4,0.2123066 0.0198277,0.3131024 0.0312814,0.1522828 0.0606088,0.2054158 0.1735314,0.314287 0.07474569,0.072062 0.19309079,0.1671233 0.26298761,0.2112476 0.0698923,0.044124 0.19937498,0.1379197 0.28773176,0.2084347 0.0883514,0.070515 0.19238214,0.1490397 0.23117679,0.174499 0.0388181,0.025461 0.0880542,0.063034 0.10947214,0.083499 0.12321199,0.1177406 0.32255995,0.1718487 0.98729695,0.2679819 0.1298698,0.01878 0.6041948,-0.00321 0.8795014,-0.040783 z M 7.3763632,3.7531173 C 7.5292997,3.1072923 7.5328789,3.0287248 7.4295883,2.5842306 7.382126,2.379979 7.3311952,2.212864 7.3164127,2.212864 c -0.014794,0 -0.1033978,0.054796 -0.1969285,0.12177 C 7.025958,2.4016079 6.851554,2.4938076 6.7319168,2.539523 6.5486967,2.6095359 6.4735584,2.6630228 6.2553993,2.8787428 L 5.9963997,3.1348439 6.3679194,3.4839213 c 0.2043346,0.1919921 0.4612668,0.4185111 0.5709568,0.5033755 0.1096865,0.084864 0.2232844,0.1782702 0.2524353,0.2075683 0.029147,0.029298 0.057376,0.048899 0.062716,0.043559 0.00531,-0.00534 0.060393,-0.2237293 0.1223386,-0.4853054 z M 3.9293981,4.0033161 C 4.0637819,3.9357487 4.2772082,3.8142385 4.403687,3.7332938 4.5301604,3.6523486 4.7052829,3.5475437 4.79285,3.5003938 L 4.9520625,3.4146672 4.8909135,3.336932 C 4.857264,3.294175 4.820733,3.2180585 4.8096846,3.16778 4.779961,3.0323832 4.5536484,2.9377883 4.1513426,2.8925846 3.9757438,2.872855 3.815466,2.8503358 3.7951665,2.8425497 3.7476411,2.8243131 3.6319659,3.2121475 3.6042548,3.4826269 c -0.01827,0.1782394 0.030525,0.6435383 0.067479,0.6435383 0.00729,0 0.1232786,-0.055283 0.2576633,-0.1228493 z M 5.7985087,2.5680113 C 5.9961449,2.3429009 6.3202113,2.1122224 6.5443962,2.0370717 6.6258591,2.0097613 6.760287,1.9339932 6.8431268,1.8686943 c 0.082841,-0.065299 0.1626874,-0.118726 0.1774438,-0.118726 0.059357,0 0.021566,-0.057723 -0.058042,-0.088668 C 6.9158582,1.643157 6.7888635,1.5793076 6.6803233,1.5194123 6.496444,1.4179395 6.4644234,1.4105113 6.2108922,1.4105113 c -0.2477026,0 -0.2927499,0.00981 -0.5025709,0.1093989 C 5.5149892,1.6116783 5.4746305,1.6439448 5.4578957,1.7201224 5.4303062,1.8457229 5.2987462,1.9436509 5.1808378,1.9263459 5.1072267,1.9155433 5.0542177,1.9389224 4.9269276,2.0383389 L 4.7660492,2.1639864 4.9605753,2.3658682 c 0.1069851,0.1110352 0.2002124,0.2163237 0.2071647,0.2339745 0.00693,0.017652 0.089018,0.075083 0.1823683,0.1276254 0.1188044,0.066869 0.1849986,0.087508 0.220611,0.068788 0.027986,-0.014711 0.1304894,-0.1174199 0.2277858,-0.2282448 z M 17.153949,5.5508655 C 16.927608,5.4921027 16.727533,5.3739466 16.561546,5.2010203 16.35755,4.9884926 15.747242,3.4641371 15.674051,2.9843566 c -0.01163,-0.076378 -0.04104,-0.2389632 -0.06527,-0.3613005 -0.09169,-0.4624956 -0.04287,-1.66495337 0.09686,-2.38521319 0.09,-0.46396101 0.08899,-0.42989873 0.01216,-0.40980617 -0.09522,0.0249035 -0.338265,0.27518027 -0.338265,0.34833803 0,0.1010694 -0.135391,0.21592223 -0.253189,0.21478533 -0.113277,-0.001117 -0.181931,-0.0429439 -0.235526,-0.14357378 -0.05808,-0.10903957 -0.04131,-0.23075421 0.0549,-0.39848014 0.166,-0.2894173 0.375638,-0.435526 0.950717,-0.66261199 0.07911,-0.0312363 0.09334,-0.0904605 0.02175,-0.0904605 -0.02625,0 -0.08178,-0.0340844 -0.123439,-0.075747 -0.104814,-0.10481239 -0.103104,-0.27001679 0.004,-0.37701979 0.07419,-0.074186 0.0948,-0.07867 0.300879,-0.065425 0.32468,0.020866 0.421825,0.1050068 0.421825,0.3653458 v 0.12198632 h 0.385305 c 0.211915,0 0.444523,0.0136777 0.516902,0.0303899 0.07238,0.0167167 0.247904,0.0517268 0.390056,0.0778027 0.430351,0.0789427 0.868109,0.3631219 1.066731,0.69248461 0.1833,0.30396371 0.209982,0.64598763 0.08091,1.03722754 -0.09256,0.28057503 -0.249989,0.49964533 -0.625587,0.87055203 -0.198711,0.196229 -0.355071,0.3668495 -0.347463,0.3791573 0.0077,0.012309 0.05215,0.031557 0.09898,0.042775 0.13655,0.032702 0.563644,0.2905662 0.756044,0.4564698 0.132303,0.1140778 0.206506,0.212188 0.293169,0.3876163 0.115493,0.2337891 0.116032,0.2366761 0.116032,0.6221233 V 4.0490158 L 19.12386,4.3113232 C 19.0531,4.4555922 18.969786,4.6101608 18.938702,4.6548079 18.907642,4.6994549 18.830718,4.8133425 18.767809,4.9078901 18.630527,5.114228 18.37369,5.324202 18.07983,5.4703405 17.8016,5.6087086 17.483435,5.6363823 17.154043,5.5508652 Z M 17.86302,4.9873268 c 0.198021,-0.09308 0.39022,-0.2738902 0.567197,-0.5335912 0.253986,-0.3727009 0.29758,-0.488495 0.29758,-0.7904656 0,-0.4106591 -0.100612,-0.5606121 -0.555475,-0.8278948 -0.270841,-0.1591487 -0.477186,-0.2212889 -0.73824,-0.2223166 -0.276621,-0.00107 -0.338822,-0.02944 -0.39063,-0.1780553 -0.04878,-0.1399128 0.02862,-0.2684063 0.278471,-0.4624787 0.395148,-0.306906 0.942396,-0.8565557 1.043174,-1.04775317 0.107435,-0.2038346 0.165402,-0.44445352 0.139465,-0.57891977 -0.03926,-0.20358365 -0.229386,-0.41764565 -0.486541,-0.5478163 -0.155522,-0.0787265 -0.29545,-0.11312542 -0.732,-0.17994903 -0.22205,-0.0339908 -0.868106,-0.0277507 -0.904592,0.008734 -0.0089,0.008959 -0.06344,0.25772962 -0.121055,0.55282024 -0.184708,0.94594603 -0.222869,1.82789593 -0.106721,2.46635313 0.06106,0.3355962 0.17222,0.7683939 0.249404,0.9709869 0.06822,0.1790666 0.311395,0.7422955 0.384149,0.8897519 0.04047,0.082016 0.07357,0.1669356 0.07357,0.1887115 0,0.075802 0.12471,0.1973266 0.283908,0.2766595 0.209937,0.1046146 0.51443,0.1110678 0.718328,0.015223 z m 8.409972,0.1612727 c -0.155624,-0.039325 -0.246877,-0.1436085 -0.246877,-0.282146 0,-0.089019 0.162523,-0.2465327 0.254369,-0.2465327 0.04069,0 0.100764,-0.031561 0.133528,-0.070136 0.03276,-0.038577 0.130789,-0.1531416 0.217834,-0.2545929 0.186296,-0.2171228 0.505219,-0.6345974 0.505219,-0.6613392 0,-0.021026 -0.317894,-0.5616206 -0.400078,-0.6803555 -0.02937,-0.042432 -0.09942,-0.1604706 -0.155673,-0.2623074 -0.05625,-0.1018373 -0.183929,-0.3309707 -0.28373,-0.5091852 -0.491608,-0.8778602 -0.596222,-1.1900951 -0.457519,-1.365542 0.05158,-0.0652361 0.09353,-0.084864 0.181424,-0.084864 0.155499,0 0.243401,0.0699067 0.282753,0.22486263 0.05075,0.19986787 0.144831,0.41872987 0.274772,0.63920877 0.06502,0.1103235 0.222255,0.388061 0.349415,0.6171943 0.338006,0.609063 0.522081,0.902793 0.547738,0.8740225 0.08832,-0.09904 0.3946,-0.5891384 0.482846,-0.7726086 0.119298,-0.2480368 0.221859,-0.3482916 0.356287,-0.3482916 0.122485,0 0.241312,0.1228729 0.241312,0.2495326 0,0.1215742 -0.228481,0.576626 -0.447006,0.8902773 -0.08945,0.128396 -0.193577,0.2947765 -0.231382,0.3697347 l -0.06874,0.1362876 0.311846,0.3085941 c 0.288587,0.2855842 0.311842,0.3175202 0.311842,0.4283046 0,0.161106 -0.107605,0.2712036 -0.265061,0.2712036 -0.101419,0 -0.143716,-0.029565 -0.39538,-0.2763613 L 27.490923,4.0671983 27.301255,4.3204147 c -0.267419,0.3570234 -0.653337,0.7636252 -0.771723,0.8130908 -0.106325,0.044428 -0.13401,0.046055 -0.25654,0.015094 z m -5.876471,-0.106965 c -0.21339,-0.2133931 -0.01667,-0.4473423 0.524868,-0.6241097 0.237523,-0.077536 0.367062,-0.1348393 0.576697,-0.2551171 0.06399,-0.036718 0.193305,-0.099206 0.287344,-0.1388641 l 0.17099,-0.072105 -0.184762,-0.182659 C 21.670043,3.668317 21.446585,3.4623839 21.275091,3.31115 20.749636,2.8477721 20.568372,2.4925174 20.654866,2.0956083 c 0.02108,-0.096751 0.07268,-0.2355161 0.114642,-0.3083664 0.160624,-0.2788211 0.578702,-0.4831173 1.059689,-0.517823 0.276907,-0.01998 0.361337,0.014571 0.442938,0.1812588 0.114921,0.2347691 -0.06101,0.4086109 -0.375803,0.3713288 -0.119228,-0.014119 -0.203555,-0.0016 -0.358863,0.053212 -0.239186,0.084439 -0.311833,0.1444723 -0.352334,0.2911546 -0.06447,0.2334967 0.04118,0.3755838 0.780688,1.0498329 0.438686,0.3999776 0.604008,0.620827 0.604008,0.8068775 0,0.075354 -0.02175,0.1790688 -0.04834,0.2304779 -0.04967,0.096058 -0.25005,0.2101141 -0.371364,0.2113825 -0.03565,3.735e-4 -0.243949,0.09002 -0.462893,0.1992161 -0.360703,0.1798937 -0.563198,0.2669409 -0.73754,0.3170438 -0.03396,0.00976 -0.08588,0.038634 -0.115413,0.064175 -0.02954,0.025541 -0.122231,0.053023 -0.206002,0.061072 -0.133016,0.012782 -0.162371,0.00457 -0.231761,-0.064817 z m 3.484847,-0.058411 C 23.648292,4.9001441 23.461204,4.7258955 23.226225,4.3730431 22.989598,4.017718 22.917102,3.8802341 22.847451,3.6547244 22.788373,3.4634539 22.785829,3.4173473 22.81514,3.0691483 22.845134,2.712952 22.855075,2.6747745 22.987289,2.4061075 23.097893,2.1813871 23.184044,2.0617149 23.394167,1.8409074 23.540781,1.686842 23.698215,1.5414083 23.74402,1.517721 c 0.09936,-0.05138 0.463905,-0.1167031 0.615647,-0.1103178 0.181326,0.00763 0.344073,0.1460363 0.42249,0.3593036 0.09168,0.2493423 0.09788,0.6747251 0.01226,0.8408479 -0.170398,0.3305923 -0.615888,0.5311001 -1.179992,0.5311001 h -0.269392 l -0.0096,0.115724 c -0.01109,0.1340331 0.05552,0.4020944 0.117552,0.4730404 0.02344,0.026797 0.04261,0.058184 0.04261,0.069752 0,0.061411 0.392417,0.5857134 0.467399,0.6244894 0.07983,0.041286 0.09881,0.039739 0.210271,-0.017122 0.06739,-0.034378 0.20835,-0.1390914 0.313258,-0.2326991 0.104909,-0.093607 0.222411,-0.1781432 0.261116,-0.1878573 0.163928,-0.041143 0.350945,0.1453141 0.309872,0.308952 -0.04971,0.1980646 -0.51393,0.5643194 -0.860934,0.6792551 -0.168205,0.055714 -0.187957,0.056405 -0.315233,0.011035 z m 0.195841,-2.4570371 c 0.206625,-0.078617 0.249529,-0.1349975 0.25017,-0.3287526 8.92e-4,-0.2145821 -0.02437,-0.2435206 -0.194405,-0.2243554 -0.165518,0.018655 -0.34585,0.1719453 -0.55092,0.4683051 l -0.126095,0.1822304 0.228133,-0.017327 c 0.125476,-0.00953 0.302375,-0.045575 0.393117,-0.080101 z m 6.126802,2.2668588 C 29.968324,4.7348426 29.806857,4.6260147 29.482403,4.3066883 29.158729,3.9881293 29.091524,3.8623797 29.005146,3.4136233 28.96513,3.2057404 28.965887,3.175275 29.01352,3.0786164 c 0.06462,-0.1312861 0.185738,-0.1785136 0.317666,-0.1238672 0.111443,0.046162 0.166789,0.1474261 0.193287,0.3536342 0.03432,0.2672087 0.17708,0.5087569 0.421608,0.713407 0.332436,0.2782219 0.47461,0.3192587 0.624517,0.1802578 0.121135,-0.1123223 0.179195,-0.2429907 0.362816,-0.8165157 0.229921,-0.7181324 0.213181,-0.6811073 0.329953,-0.7298969 0.09088,-0.037974 0.116661,-0.037315 0.206426,0.00529 0.09818,0.046591 0.172844,0.1532393 0.172844,0.2468917 0,0.064252 -0.352797,1.11545 -0.440508,1.3125422 -0.04113,0.092467 -0.139291,0.2394758 -0.218092,0.3266879 -0.213168,0.2359212 -0.480002,0.3200832 -0.779968,0.2460052 z m 3.043278,-0.194632 C 33.120057,4.5526905 32.91033,4.3918629 32.878861,4.3158885 c -0.04095,-0.098868 -0.0027,-0.2359038 0.08418,-0.3019506 0.07617,-0.057863 0.283827,-0.052009 0.352272,0.00993 0.06267,0.05672 0.262529,0.060625 0.457666,0.00894 0.134665,-0.035666 0.283769,-0.1858816 0.366809,-0.3695425 0.07922,-0.1752174 0.07937,-0.2392921 8.91e-4,-0.3548865 -0.134678,-0.1982193 -0.30701,-0.5067006 -0.30701,-0.5495463 0,-0.091526 -0.324641,-0.079525 -0.509189,0.018825 -0.03396,0.018089 -0.09806,0.051264 -0.142482,0.073718 -0.09045,0.045722 -0.375161,0.2860067 -0.39489,0.3332685 -0.007,0.01681 -0.05108,0.068886 -0.09792,0.115724 -0.178811,0.1788121 -0.429366,0.061491 -0.429366,-0.2010487 0,-0.1596033 0.113033,-0.3098486 0.398148,-0.5292435 0.428439,-0.3296755 0.850315,-0.4667191 1.198745,-0.3894043 0.244266,0.054201 0.30541,0.090689 0.508075,0.3031825 0.177306,0.1859083 0.333099,0.4662517 0.332778,0.5988154 -3.52e-4,0.1139102 0.466838,0.5427924 0.743998,0.6831004 0.260195,0.1317201 0.509073,0.2051947 0.696856,0.2057273 0.191336,5.348e-4 0.28443,0.047285 0.334936,0.1681733 0.0492,0.1177464 0.03605,0.1834928 -0.05745,0.2873735 C 36.276724,4.5816638 35.671015,4.483633 35.186235,4.2280297 35.033984,4.1477557 34.856107,4.0364476 34.790957,3.98068 34.725807,3.924912 34.659456,3.8792844 34.643515,3.8792844 c -0.01596,0 -0.05395,0.055368 -0.08446,0.1230404 -0.06138,0.1361241 -0.349241,0.4267813 -0.499754,0.5046161 -0.136492,0.07058 -0.695006,0.1334984 -0.811961,0.091469 z M 37.363961,4.4538871 C 37.256619,4.405509 37.22819,4.3530819 37.22819,4.203534 c 0,-0.07629 0.02384,-0.1228126 0.09264,-0.1806999 0.07204,-0.060618 0.103059,-0.1247219 0.139442,-0.2881953 0.116451,-0.5231886 0.165331,-0.9970151 0.222247,-2.1543988 0.07786,-1.58325129 0.0822,-2.01996376 0.02348,-2.36076739 -0.0665,-0.38591831 -0.07163,-0.40117591 -0.135062,-0.40117591 -0.06723,0 -0.179841,-0.1176765 -0.191959,-0.2005884 -0.02897,-0.1983138 0.108545,-0.3240268 0.354487,-0.3240268 0.280245,0 0.408327,0.2186371 0.497147,0.84864195 0.03926,0.27834582 0.04895,0.51210473 0.03909,0.94122079 -0.0193,0.83919138 -0.108986,2.60749686 -0.143984,2.83909296 -0.01667,0.1103231 -0.03904,0.2839094 -0.04974,0.3857462 -0.02478,0.236321 -0.126001,0.7027339 -0.188558,0.8690159 -0.09523,0.253096 -0.316285,0.3698606 -0.523454,0.2764878 z M 19.543203,4.3445573 c -0.106673,-0.1066731 -0.118247,-0.2361382 -0.03102,-0.347025 0.03253,-0.04138 0.06908,-0.1300463 0.08117,-0.1970348 0.01207,-0.066989 0.03391,-0.136904 0.04845,-0.1553676 0.04635,-0.058796 0.03454,-0.2317673 -0.04928,-0.7224927 -0.120587,-0.7059356 -0.123399,-0.7465681 -0.0572,-0.8275994 0.03111,-0.038063 0.105149,-0.076985 0.164559,-0.086488 0.23464,-0.037533 0.318571,0.1316506 0.43816,0.8832275 0.07778,0.4888514 0.08316,0.7890394 0.01698,0.9493692 -0.02616,0.06341 -0.06329,0.1737267 -0.08249,0.245149 -0.01921,0.071422 -0.0813,0.1790456 -0.137998,0.2391634 -0.133783,0.1418482 -0.26232,0.1481213 -0.391343,0.019097 z m 0.0915,-3.87525558 c -0.04435,-0.0240924 -0.09584,-0.0825572 -0.114468,-0.12991839 -0.12281,-0.31226763 -0.03815,-0.53029072 0.206849,-0.53259477 0.08274,-7.5764e-4 0.132268,0.0269313 0.239164,0.1338268 0.177229,0.1772314 0.180813,0.27712599 0.01614,0.45022652 -0.128007,0.13456351 -0.210294,0.15313278 -0.347691,0.07846 z"
       id="path2571" />
  </g>
</svg>
