<?xml version="1.0" encoding="UTF-8" standalone="no"?>
<!-- Created with Inkscape (http://www.inkscape.org/) -->

<svg
   width="40.52029mm"
   height="7.3218479mm"
   viewBox="0 0 40.52029 7.3218479"
   version="1.1"
   id="svg5"
   inkscape:version="1.1.1 (3bf5ae0d25, 2021-09-20)"
   sodipodi:docname="favourite-games.svg"
   xmlns:inkscape="http://www.inkscape.org/namespaces/inkscape"
   xmlns:sodipodi="http://sodipodi.sourceforge.net/DTD/sodipodi-0.dtd"
   xmlns="http://www.w3.org/2000/svg"
   xmlns:svg="http://www.w3.org/2000/svg">
  <sodipodi:namedview
     id="namedview7"
     pagecolor="#ffffff"
     bordercolor="#666666"
     borderopacity="1.0"
     inkscape:pageshadow="2"
     inkscape:pageopacity="0.0"
     inkscape:pagecheckerboard="0"
     inkscape:document-units="mm"
     showgrid="false"
     fit-margin-top="0"
     fit-margin-left="0"
     fit-margin-right="0"
     fit-margin-bottom="0"
     inkscape:zoom="2.0208096"
     inkscape:cx="126.6819"
     inkscape:cy="36.371561"
     inkscape:window-width="1920"
     inkscape:window-height="991"
     inkscape:window-x="-9"
     inkscape:window-y="-9"
     inkscape:window-maximized="1"
     inkscape:current-layer="layer1" />
  <defs
     id="defs2" />
  <g
     inkscape:label="Capa 1"
     inkscape:groupmode="layer"
     id="layer1"
     transform="translate(-33.748838,-61.594542)">
    <path
       style="fill:#000000;stroke-width:0.0327395"
       d="m 41.274758,68.869966 c -0.217323,-0.112499 -0.340981,-0.485272 -0.202538,-0.610561 0.114929,-0.10401 0.282167,-0.04741 0.316076,0.106979 0.01163,0.05293 0.03861,0.110604 0.05996,0.128173 0.0543,0.04469 0.574937,-0.04285 0.786969,-0.13232 0.224243,-0.09462 0.612235,-0.386758 0.718181,-0.54076 0.264588,-0.384609 0.355306,-0.922414 0.216997,-1.286437 -0.03753,-0.09878 -0.07608,-0.205388 -0.08567,-0.236899 -0.02413,-0.07931 -0.0485,-0.07258 -0.159177,0.04393 -0.127935,0.134666 -0.312079,0.225878 -0.499458,0.247398 -0.311619,0.03579 -0.510349,-0.217536 -0.549878,-0.700936 -0.01914,-0.234119 -0.0142,-0.279225 0.0368,-0.335582 0.03241,-0.0358 0.07505,-0.0658 0.09477,-0.06663 0.01972,-8.44e-4 0.06565,-0.06345 0.10207,-0.139144 0.05373,-0.111655 0.105637,-0.157687 0.275181,-0.244019 0.236083,-0.120214 0.341896,-0.130782 0.509446,-0.05088 0.139024,0.0663 0.277383,0.320066 0.304194,0.557936 0.01081,0.09586 0.0522,0.202222 0.109476,0.281288 0.05066,0.06993 0.139027,0.247122 0.196381,0.393763 0.189203,0.48375 0.160494,1.008501 -0.08297,1.516527 -0.134667,0.281002 -0.251203,0.416242 -0.553746,0.642617 -0.382042,0.285858 -0.721759,0.409033 -1.282535,0.465022 -0.153494,0.01532 -0.22138,0.0067 -0.310533,-0.03946 z m 1.316644,-2.766153 c 0.182491,-0.128524 0.171474,-0.165474 -0.06796,-0.227953 -0.119835,-0.03127 -0.227528,-0.0577 -0.239319,-0.05873 -0.02873,-0.0025 0.0061,0.261045 0.04425,0.335267 0.03488,0.06779 0.120171,0.05204 0.263031,-0.04857 z m 0.156144,-0.630415 c 0,-0.06824 -0.03795,-0.08064 -0.130959,-0.04277 l -0.08185,0.03333 0.08185,0.02505 c 0.121226,0.03709 0.130959,0.03594 0.130959,-0.01561 z m 27.579818,2.379372 c -0.07526,-0.05025 -0.112033,-0.165208 -0.07989,-0.249748 0.04702,-0.123698 0.250274,-0.209424 0.595382,-0.251125 0.168453,-0.02035 0.310738,-0.04126 0.316185,-0.04646 0.0054,-0.0052 -0.04612,-0.04313 -0.114588,-0.08429 -0.234985,-0.14125 -1.051391,-0.815239 -1.117208,-0.922315 -0.150634,-0.245074 -0.109075,-0.526754 0.09315,-0.63133 0.276261,-0.142857 0.638938,-0.190065 0.733528,-0.09548 0.109507,0.109509 0.0414,0.292921 -0.120164,0.32366 -0.24171,0.04598 -0.384959,0.0939 -0.384959,0.128761 0,0.04883 0.132002,0.18937 0.285719,0.304197 0.06794,0.05075 0.214244,0.168296 0.325119,0.261212 0.110875,0.09292 0.282111,0.220448 0.380531,0.283405 0.09842,0.06295 0.232376,0.167902 0.297686,0.233213 0.101432,0.101429 0.118747,0.140299 0.118747,0.266547 0,0.116104 -0.01779,0.164278 -0.08291,0.224641 -0.09092,0.08426 -0.164928,0.102172 -0.555508,0.134467 -0.144054,0.01192 -0.326407,0.04956 -0.405221,0.08368 -0.152652,0.06607 -0.227505,0.07575 -0.285594,0.03696 z m 3.35909,-0.204122 c -0.04762,-0.04762 -0.06548,-0.109131 -0.06548,-0.22555 0,-0.21982 0.06425,-0.286597 0.302069,-0.313966 0.173188,-0.01993 0.194062,-0.015 0.273761,0.0647 0.06992,0.06992 0.08238,0.105751 0.06574,0.188939 -0.02525,0.126208 -0.132459,0.24692 -0.272205,0.306464 -0.145108,0.06183 -0.227023,0.05628 -0.303893,-0.02059 z m -7.312222,-0.05987 c -0.06968,-0.07699 -0.07153,-0.393771 -0.0061,-1.028554 0.02649,-0.256689 0.05227,-0.544062 0.05729,-0.638609 l 0.0091,-0.171902 -0.229177,-4.96e-4 c -0.296551,-5.96e-4 -0.389805,-0.04655 -0.402653,-0.198432 -0.0068,-0.08032 0.01214,-0.14344 0.06205,-0.206889 0.07699,-0.09787 0.06538,-0.09745 0.413433,-0.01498 0.09408,0.02229 0.178299,0.03328 0.187161,0.0244 0.01701,-0.01701 0.06485,-0.612091 0.112794,-1.403063 0.0187,-0.308544 0.01728,-0.498592 -0.0041,-0.545496 -0.0489,-0.107303 0.0094,-0.305218 0.11261,-0.382267 0.07709,-0.05755 0.09942,-0.06035 0.188192,-0.02359 0.06306,0.02612 0.108709,0.07355 0.122087,0.126848 0.01173,0.04682 -0.0044,0.490622 -0.03554,0.986227 -0.03131,0.495605 -0.05952,0.971742 -0.06271,1.058082 l -0.0058,0.156981 0.203684,0.009 c 0.223902,0.0099 0.336516,0.07671 0.336516,0.199706 0,0.14622 -0.06996,0.188461 -0.32438,0.195874 -0.275604,0.008 -0.296418,0.02649 -0.297228,0.263664 -3.73e-4,0.09003 -0.02246,0.369957 -0.04925,0.622052 -0.02679,0.252095 -0.04885,0.5578 -0.04905,0.679347 -3.73e-4,0.177035 -0.01337,0.234016 -0.06583,0.28647 -0.08171,0.08171 -0.202102,0.08418 -0.273212,0.0056 z m -3.680994,-0.122053 c -0.05585,-0.03912 -0.07276,-0.08342 -0.07276,-0.190607 0,-0.0768 -0.03683,-0.357062 -0.08185,-0.622798 -0.09567,-0.564756 -0.101374,-0.730164 -0.02874,-0.833861 0.04638,-0.06622 0.07021,-0.07295 0.188254,-0.05311 0.264433,0.04445 0.49995,0.02681 0.853424,-0.06392 0.19698,-0.05057 0.431782,-0.09375 0.521781,-0.09597 0.146115,-0.0036 0.169112,0.0055 0.214797,0.08571 0.06349,0.11138 0.02741,0.182243 -0.131653,0.258575 -0.152639,0.07325 -0.789376,0.221562 -1.059527,0.246788 l -0.220857,0.02062 0.0223,0.183224 c 0.01226,0.100774 0.04314,0.283635 0.06862,0.406358 0.02548,0.122723 0.04633,0.30213 0.04633,0.398683 0,0.150657 -0.01224,0.185175 -0.08626,0.243407 -0.103322,0.08127 -0.138317,0.0838 -0.233847,0.01689 z m 2.351949,-0.11075 c -0.07919,-0.07919 -0.09087,-0.269194 -0.02015,-0.327885 0.121668,-0.100977 0.138848,-0.54023 0.04652,-1.189547 -0.0326,-0.229291 -0.0304,-0.261447 0.02188,-0.319212 0.08386,-0.09267 0.230411,-0.08331 0.297435,0.01897 0.122653,0.187191 0.174654,1.193601 0.07879,1.524879 -0.08711,0.301037 -0.281884,0.435383 -0.42448,0.292788 z m 3.337455,-0.0076 c -0.154412,-0.04373 -0.244308,-0.133894 -0.291906,-0.292769 -0.0337,-0.112493 -0.03171,-0.144521 0.01347,-0.2134 0.02922,-0.04457 0.07528,-0.08955 0.102391,-0.09995 0.07449,-0.02859 0.205031,0.0438 0.247648,0.137324 0.02082,0.04571 0.07351,0.09206 0.117067,0.102994 0.101547,0.02549 0.301081,-0.0343 0.415897,-0.124619 0.189744,-0.149251 0.2879,-0.581214 0.172194,-0.757796 -0.115298,-0.175967 -0.496991,-0.197745 -0.648029,-0.03698 -0.05998,0.06385 -0.07959,0.128118 -0.09027,0.295831 -0.01178,0.185073 -0.02391,0.218946 -0.08911,0.248644 -0.205394,0.09359 -0.332868,-0.07619 -0.293541,-0.390953 0.04617,-0.369464 0.233553,-0.571209 0.599676,-0.645607 0.340791,-0.06925 0.672763,0.04993 0.856051,0.307331 0.229518,0.32233 0.114026,0.949445 -0.232182,1.260714 -0.247817,0.22281 -0.56497,0.298275 -0.879335,0.209236 z M 57.39851,67.243926 c -0.206795,-0.09687 -0.45119,-0.316661 -0.639219,-0.574867 -0.15986,-0.21952 -0.139865,-0.221723 -0.293859,0.03238 -0.158181,0.261016 -0.486885,0.376898 -0.788886,0.278118 -0.228146,-0.07462 -0.349431,-0.170356 -0.438148,-0.345842 -0.109071,-0.215749 -0.122289,-0.321407 -0.06676,-0.533615 0.02732,-0.104419 0.04969,-0.237814 0.04969,-0.296433 0,-0.146624 0.159577,-0.386408 0.350241,-0.526275 0.138417,-0.101541 0.180718,-0.115368 0.353659,-0.115608 0.247851,-3.47e-4 0.420346,0.09081 0.557057,0.294374 0.06744,0.100422 0.117517,0.143347 0.158104,0.13553 0.189573,-0.03651 0.286949,0.08793 0.259484,0.331594 -0.02265,0.200884 0.09614,0.44803 0.330905,0.68849 0.245351,0.251303 0.323194,0.295115 0.512443,0.288416 0.138508,-0.0049 0.167887,0.0056 0.214349,0.07649 0.07831,0.11951 0.03755,0.239797 -0.100819,0.297615 -0.157267,0.0657 -0.268933,0.05831 -0.458241,-0.03037 z m -1.303065,-0.714997 c 0.07776,-0.07257 0.173549,-0.317146 0.173549,-0.44312 0,-0.268055 -0.154254,-0.532499 -0.310614,-0.532499 -0.213724,0 -0.355549,0.211569 -0.391144,0.583494 -0.02646,0.276479 0.01384,0.372627 0.188581,0.449885 0.123346,0.05453 0.240689,0.03459 0.339628,-0.05776 z m -9.189971,0.595882 c -0.08091,-0.08091 -0.08438,-0.201926 -0.0078,-0.271244 0.04573,-0.04138 0.37568,-0.120126 0.508634,-0.121385 0.03587,-3.71e-4 -0.16066,-0.282035 -0.309933,-0.444223 -0.252412,-0.274251 -0.399506,-0.741015 -0.323025,-1.025041 0.05909,-0.219463 0.168223,-0.317246 0.459167,-0.41143 0.299949,-0.0971 0.401147,-0.104053 0.47272,-0.03248 0.06857,0.06857 0.06538,0.22147 -0.0058,0.280712 -0.03151,0.02621 -0.162602,0.08042 -0.291311,0.120473 -0.261579,0.0814 -0.287785,0.119265 -0.243892,0.352403 0.03317,0.176201 0.131071,0.336694 0.430965,0.706528 0.351379,0.433325 0.369212,0.464465 0.34374,0.600242 -0.03141,0.16742 -0.133781,0.218048 -0.537457,0.265801 -0.453032,0.0536 -0.420706,0.05492 -0.49598,-0.02035 z m 14.047608,0.0081 c -0.171658,-0.08753 -0.236014,-0.199561 -0.25573,-0.44518 -0.01711,-0.213098 -0.0161,-0.216436 0.08193,-0.272699 0.09728,-0.05584 0.09785,-0.05765 0.02895,-0.09183 -0.05656,-0.02806 -0.07226,-0.06928 -0.08036,-0.210952 -0.03123,-0.546259 0.567676,-1.081091 0.974841,-0.870538 0.151603,0.0784 0.272337,0.364733 0.289192,0.685854 0.03064,0.583786 -0.165938,0.994879 -0.566432,1.184533 -0.195284,0.09248 -0.320993,0.09802 -0.472397,0.02081 z m 0.35921,-0.409195 c 0.166615,-0.112287 0.268825,-0.341175 0.286173,-0.640859 0.01461,-0.252473 -0.04426,-0.496841 -0.119693,-0.496841 -0.0619,0 -0.237023,0.173484 -0.300275,0.29747 -0.03522,0.06905 -0.06404,0.167043 -0.06404,0.217775 0,0.107945 -0.08146,0.237766 -0.149186,0.237766 -0.06518,0 -0.05985,0.01716 0.03459,0.111612 0.04502,0.04502 0.08185,0.118146 0.08185,0.162508 0,0.196936 0.05985,0.225634 0.230579,0.110569 z m -7.878556,0.376004 c -0.0683,-0.04561 -0.110687,-0.166275 -0.09172,-0.261112 0.01046,-0.0523 -0.01216,-0.278182 -0.05027,-0.501959 -0.03811,-0.223777 -0.08624,-0.585865 -0.106954,-0.804642 l -0.03767,-0.397774 -0.242967,-0.01227 c -0.267124,-0.01349 -0.334739,-0.05909 -0.334739,-0.225727 0,-0.136016 0.08023,-0.17782 0.341281,-0.17782 h 0.231661 l 0.02315,-0.425614 c 0.03134,-0.576273 0.07277,-0.791588 0.229514,-1.192726 0.122661,-0.31391 0.153549,-0.361831 0.382376,-0.593224 0.28753,-0.290755 0.460838,-0.391233 0.67481,-0.391233 0.205091,0 0.294722,0.09698 0.320504,0.346801 0.01042,0.100907 0.0064,0.216565 -0.009,0.257018 -0.102468,0.269512 -0.393583,0.226605 -0.393583,-0.05801 0,-0.06611 -0.01524,-0.120196 -0.03387,-0.120196 -0.01863,0 -0.132807,0.09945 -0.253731,0.220992 -0.200742,0.201773 -0.230572,0.250252 -0.342993,0.557426 -0.126964,0.346914 -0.186169,0.713014 -0.187329,1.158347 l -5.96e-4,0.217937 0.31921,0.01884 c 0.56818,0.03353 0.99782,0.08365 1.043736,0.12176 0.07783,0.06459 0.05582,0.249694 -0.03693,0.310461 -0.06959,0.0456 -0.112273,0.04841 -0.28647,0.01879 -0.112581,-0.01913 -0.394496,-0.0421 -0.626478,-0.05103 l -0.421786,-0.01623 0.02252,0.284668 c 0.02481,0.31367 0.100423,0.852177 0.149523,1.064883 0.05134,0.22237 0.04127,0.565646 -0.01834,0.625249 -0.05345,0.05345 -0.200262,0.06819 -0.262861,0.02639 z m 5.698429,-0.14439 c -0.247957,-0.217709 -0.389677,-0.490461 -0.676389,-1.301767 -0.06426,-0.18182 -0.131334,-0.307713 -0.196283,-0.368385 -0.08025,-0.07497 -0.09462,-0.108962 -0.07697,-0.182139 0.04074,-0.16892 0.205594,-0.222097 0.364915,-0.117706 0.09904,0.06489 0.188251,0.232246 0.291686,0.54719 0.138382,0.42136 0.278641,0.76161 0.379535,0.920701 0.09225,0.145457 0.102215,0.152114 0.141955,0.09479 0.02351,-0.03391 0.119963,-0.30475 0.214343,-0.601862 0.09438,-0.297111 0.199602,-0.595147 0.233821,-0.662301 0.112136,-0.220062 0.386849,-0.292245 0.537787,-0.141306 0.0442,0.0442 0.08036,0.101497 0.08036,0.127332 0,0.07782 -0.114993,0.194948 -0.197341,0.201016 -0.06703,0.0049 -0.09089,0.04638 -0.180909,0.314138 -0.05703,0.169647 -0.129011,0.396846 -0.159944,0.504888 -0.09269,0.323751 -0.277107,0.691936 -0.367115,0.732947 -0.141196,0.06433 -0.263396,0.04314 -0.389448,-0.06753 z M 44.45556,66.897813 c -0.152503,-0.03877 -0.337042,-0.197401 -0.385411,-0.331286 -0.02242,-0.06209 -0.0419,-0.24179 -0.04327,-0.399349 -0.0021,-0.24484 0.0071,-0.295987 0.06299,-0.35195 0.03601,-0.03601 0.09495,-0.06548 0.130959,-0.06548 0.134751,0 0.196437,0.112422 0.196437,0.358003 0,0.32629 0.03005,0.385682 0.208684,0.41247 0.194259,0.02913 0.341837,-0.02359 0.485601,-0.173487 0.232126,-0.242024 0.312248,-0.522589 0.20723,-0.725671 -0.06301,-0.121839 -0.236529,-0.266048 -0.293721,-0.244101 -0.08063,0.03094 -0.126475,0.198996 -0.102856,0.377038 0.02604,0.196347 -0.03233,0.290404 -0.18024,0.290404 -0.150281,0 -0.226624,-0.131605 -0.225714,-0.389106 0.0013,-0.364328 0.198733,-0.643246 0.482277,-0.681277 0.109149,-0.01465 0.165675,4.21e-4 0.308784,0.08231 0.185507,0.106135 0.267224,0.197117 0.385787,0.429519 0.153002,0.299909 0.03216,0.809238 -0.264535,1.114962 -0.202207,0.20836 -0.395343,0.302417 -0.645426,0.314322 -0.120199,0.0058 -0.267608,-0.0021 -0.327575,-0.01732 z M 39.774842,66.794715 C 39.5841,66.66893 39.408108,66.209166 39.408108,65.836658 c 0,-0.284794 0.165461,-0.805529 0.339533,-1.06857 0.116713,-0.176364 0.33154,-0.311549 0.495094,-0.311549 0.284771,0 0.657253,0.347415 0.650456,0.606679 -0.0037,0.140627 -0.06791,0.269922 -0.213613,0.43007 -0.166274,0.18276 -0.363001,0.269951 -0.641233,0.284203 -0.226701,0.01161 -0.237362,0.01576 -0.237362,0.0923 0,0.117983 0.06883,0.373111 0.131018,0.485643 0.04666,0.08443 0.0759,0.09963 0.208336,0.108245 0.211365,0.01376 0.466479,-0.115689 0.744034,-0.37752 0.150942,-0.142389 0.243631,-0.20545 0.301984,-0.20545 0.09131,0 0.186128,0.105227 0.186128,0.206557 0,0.102893 -0.372496,0.457638 -0.643131,0.612483 -0.23948,0.13702 -0.266994,0.144795 -0.549314,0.155212 -0.261182,0.0096 -0.310296,0.0024 -0.405196,-0.06025 z m 0.588346,-1.557926 c 0.06893,-0.06731 0.125326,-0.139478 0.125326,-0.160378 0,-0.05893 -0.165838,-0.210627 -0.23025,-0.210627 -0.136476,0 -0.34784,0.376817 -0.276296,0.492578 0.04484,0.07255 0.249147,0.0074 0.38122,-0.121573 z m -6.160674,1.407092 c -0.108912,-0.04148 -0.163699,-0.121213 -0.163699,-0.238238 0,-0.224173 0.212381,-0.342911 0.346877,-0.19393 0.05579,0.0618 0.08482,0.06681 0.275175,0.0475 0.246171,-0.02498 0.520806,-0.09856 0.69382,-0.18591 0.379731,-0.19171 0.575383,-0.881526 0.486712,-1.716003 -0.04509,-0.424289 -0.08866,-0.604586 -0.279643,-1.157166 -0.233913,-0.676774 -0.259457,-0.736783 -0.352979,-0.829252 -0.09434,-0.09328 -0.111933,-0.184972 -0.05567,-0.290111 0.04038,-0.07544 0.07139,-0.07435 -0.394027,-0.0139 -0.47445,0.06163 -0.557572,0.0792 -0.637521,0.13482 -0.09587,0.06669 -0.234745,0.05476 -0.310651,-0.02672 -0.153446,-0.164706 -0.0126,-0.350259 0.314607,-0.414468 0.671388,-0.131748 1.994957,-0.211927 2.267533,-0.137362 0.300716,0.08226 0.429536,0.355243 0.248084,0.525709 -0.06849,0.06434 -0.09737,0.0721 -0.171883,0.04617 -0.04926,-0.01714 -0.103712,-0.06321 -0.121009,-0.102356 -0.01729,-0.03916 -0.0615,-0.07926 -0.09822,-0.08912 -0.111851,-0.03005 -0.803409,-0.02087 -0.803409,0.01067 0,0.01623 0.05071,0.05942 0.112687,0.09599 0.08716,0.05143 0.117472,0.0948 0.133806,0.191487 0.01161,0.06875 0.05528,0.220762 0.09704,0.337806 0.387226,1.085347 0.453156,1.391155 0.455271,2.111703 0.0017,0.570334 -0.03172,0.749135 -0.207876,1.113146 -0.197095,0.40727 -0.39547,0.567787 -0.869218,0.703329 -0.199365,0.05704 -0.87597,0.11043 -0.965817,0.07621 z m 3.192109,-0.219454 c -0.253584,-0.111106 -0.485028,-0.50023 -0.618011,-1.039055 -0.04724,-0.191407 -0.08589,-0.36834 -0.08589,-0.393185 0,-0.02485 -0.02947,-0.06357 -0.06548,-0.08607 -0.146458,-0.09146 -0.03386,-0.400472 0.145926,-0.400472 0.202634,0 0.24562,0.07428 0.358311,0.619185 0.09223,0.445964 0.1884,0.686187 0.33865,0.845911 0.121242,0.128885 0.228265,0.136461 0.348865,0.02469 0.0985,-0.09128 0.338497,-0.576164 0.542938,-1.096913 0.165766,-0.422241 0.205239,-0.484221 0.345769,-0.542939 0.146305,-0.06113 0.288846,-0.05863 0.41756,0.0073 0.126793,0.06495 0.152734,0.100699 0.153386,0.21135 8.44e-4,0.149395 -0.153254,0.235996 -0.289886,0.162872 -0.101035,-0.05407 -0.136603,9.2e-4 -0.347864,0.537919 -0.139589,0.354809 -0.406736,0.873917 -0.502793,0.977001 -0.187899,0.201645 -0.505949,0.275593 -0.741482,0.172397 z m 35.939614,-1.363324 c -0.04065,-0.01634 -0.09063,-0.06637 -0.111049,-0.111173 -0.05177,-0.113629 0.03345,-0.235193 0.224016,-0.319482 0.133384,-0.059 0.159919,-0.06101 0.266987,-0.02027 0.148771,0.05663 0.2076,0.162688 0.162299,0.292627 -0.03275,0.09394 -0.145406,0.150806 -0.232534,0.11737 -0.02346,-0.009 -0.07874,0.0036 -0.122848,0.02805 -0.0934,0.05173 -0.09067,0.05153 -0.186871,0.01288 z m -8.245801,-0.522142 c -0.08719,-0.03521 -0.20897,-0.22875 -0.208809,-0.331833 1.25e-4,-0.110645 0.11613,-0.286822 0.213028,-0.323662 0.202604,-0.07703 0.445891,0.198426 0.331492,0.375327 -0.02376,0.03673 -0.05254,0.104777 -0.06395,0.151208 -0.01588,0.06458 -0.149822,0.173399 -0.195757,0.159051 -0.0036,-0.0011 -0.03785,-0.01468 -0.076,-0.03009 z"
       id="path836" />
  </g>
</svg>
