<?xml version="1.0" encoding="UTF-8" standalone="no"?>
<!-- Created with Inkscape (http://www.inkscape.org/) -->

<svg
   width="174.40518"
   height="30.57136"
   viewBox="0 0 46.144703 8.0886724"
   version="1.1"
   id="svg5"
   inkscape:version="1.1.2 (0a00cf5339, 2022-02-04, custom)"
   sodipodi:docname="game-accounts.svg"
   xmlns:inkscape="http://www.inkscape.org/namespaces/inkscape"
   xmlns:sodipodi="http://sodipodi.sourceforge.net/DTD/sodipodi-0.dtd"
   xmlns="http://www.w3.org/2000/svg"
   xmlns:svg="http://www.w3.org/2000/svg">
  <sodipodi:namedview
     id="namedview7"
     pagecolor="#ffffff"
     bordercolor="#666666"
     borderopacity="1.0"
     inkscape:pageshadow="2"
     inkscape:pageopacity="0.0"
     inkscape:pagecheckerboard="0"
     inkscape:document-units="mm"
     showgrid="false"
     units="px"
     fit-margin-top="0"
     fit-margin-left="0"
     fit-margin-right="0"
     fit-margin-bottom="0"
     inkscape:zoom="0.733172"
     inkscape:cx="386.67598"
     inkscape:cy="295.97421"
     inkscape:window-width="1920"
     inkscape:window-height="1009"
     inkscape:window-x="-8"
     inkscape:window-y="-8"
     inkscape:window-maximized="1"
     inkscape:current-layer="layer1" />
  <defs
     id="defs2" />
  <g
     inkscape:label="Capa 1"
     inkscape:groupmode="layer"
     id="layer1"
     transform="translate(-2.5335514,-0.33676437)">
    <path
       style="fill:#000000;stroke-width:0.0345968"
       d="m 33.460495,8.3619464 c -0.54215,-0.101719 -0.87848,-0.235331 -1.245486,-0.494785 -0.501565,-0.354582 -0.763494,-0.831296 -0.537951,-0.979077 0.116135,-0.0761 0.195713,-0.05249 0.278012,0.08246 0.166326,0.272739 0.293668,0.408162 0.543407,0.577888 0.411417,0.279603 0.89106,0.426899 1.488388,0.457071 0.486002,0.02455 0.655164,-0.02023 0.792464,-0.209764 0.155656,-0.214877 0.207607,-0.437248 0.228415,-0.977709 0.02521,-0.654828 -0.05611,-1.068239 -0.43158,-2.193973 -0.232937,-0.698396 -0.556005,-1.2176858 -0.829014,-1.332532 -0.194118,-0.081659 -0.176239,-0.3508268 0.0276,-0.4155223 0.262138,-0.083199 0.795313,0.5633466 1.084907,1.315594 0.138143,0.3588383 0.399237,1.2216793 0.49204,1.6260503 0.08023,0.349592 0.08985,1.348 0.01583,1.643349 -0.124519,0.496867 -0.374303,0.814036 -0.71676,0.910125 -0.269794,0.0757 -0.757952,0.07194 -1.190274,-0.0092 z m 8.424326,-0.995416 c -0.191527,-0.01418 -0.765122,-0.181291 -1.04098,-0.303288 -0.215167,-0.09516 -0.290997,-0.194662 -0.290997,-0.381846 0,-0.164153 0.09708,-0.292899 0.220866,-0.292899 0.09721,0 0.194296,0.100154 0.194296,0.200439 0,0.09309 0.06245,0.125961 0.477723,0.251426 0.479841,0.144971 0.884863,0.16551 1.355909,0.06876 0.417954,-0.08585 0.596629,-0.183569 0.673935,-0.368596 0.06802,-0.162792 0.07178,-0.513473 0.0074,-0.690743 -0.123487,-0.340028 -0.407334,-0.808698 -0.641928,-1.059926 l -0.119784,-0.128276 -0.164158,0.137441 c -0.25372,0.212428 -0.450483,0.286707 -0.682631,0.257702 -0.195247,-0.0244 -0.550681,-0.174805 -0.674459,-0.285412 -0.03739,-0.03342 -0.104893,-0.118832 -0.149998,-0.18981 -0.217873,-0.342867 0.0014,-0.8878454 0.282957,-0.7033443 0.0903,0.059166 0.114461,0.2106723 0.05216,0.327082 -0.07901,0.1476373 0.199537,0.3756013 0.536099,0.4387413 0.104416,0.01959 0.144507,0.0039 0.30989,-0.12092 0.104476,-0.07888 0.18957,-0.154592 0.189096,-0.168246 -5.05e-4,-0.01366 -0.105143,-0.10267 -0.232601,-0.1978114 C 42.06016,4.061863 41.834804,3.8780743 41.686823,3.7485853 41.452758,3.5437666 41.417771,3.4982593 41.417771,3.3986336 c 0,-0.2185546 0.214396,-0.3660261 0.532136,-0.3660261 0.152385,0 0.537418,0.099487 0.609559,0.1575032 0.02854,0.022952 0.101886,0.06705 0.162988,0.097994 0.240134,0.1216072 0.395027,0.5561017 0.305598,0.8572396 l -0.05012,0.1687621 0.151887,0.171015 c 0.329258,0.370726 0.668833,0.957222 0.772838,1.334803 0.128092,0.465032 0.0023,0.983648 -0.295152,1.216824 -0.226208,0.177327 -0.308095,0.205706 -0.875058,0.303254 -0.281899,0.0485 -0.470835,0.05442 -0.847622,0.02653 z m 0.682769,-3.63808 c -0.07199,-0.096429 -0.305835,-0.225582 -0.475187,-0.26245 l -0.103791,-0.022594 0.07223,0.073444 c 0.03972,0.040393 0.17984,0.1557506 0.311371,0.2563477 0.210667,0.1611221 0.24054,0.1747061 0.25085,0.1140645 0.0064,-0.03786 -0.01852,-0.1093262 -0.05547,-0.1588108 z M 6.3365836,6.7185034 C 6.0043021,6.5436294 5.7219861,6.1108444 5.5571043,5.5235764 c -0.098856,-0.3521 -0.1238378,-0.763128 -0.054281,-0.893095 0.036623,-0.06843 0.2241972,-0.14419 0.3580545,-0.144616 0.082324,-2.75e-4 0.1989314,0.122223 0.1989314,0.20896 0,0.03892 -0.042195,0.112872 -0.093764,0.164335 -0.1078693,0.107643 -0.1086909,0.1685 -0.00743,0.550401 0.1341434,0.505903 0.3994246,0.91316 0.6274406,0.96324 0.1344013,0.02952 0.1902769,-0.02912 0.36415,-0.382168 0.065598,-0.133197 0.1567603,-0.295078 0.2025815,-0.359733 0.045823,-0.06466 0.083311,-0.163455 0.083311,-0.219555 0,-0.145845 0.2894494,-0.662401 0.3991915,-0.712403 0.048629,-0.02216 0.1496028,-0.04029 0.2243814,-0.04029 0.2640473,0 0.3176756,0.297051 0.070474,0.390359 -0.1015464,0.03833 -0.1863279,0.184681 -0.2849347,0.49186 -0.024431,0.07611 -0.074551,0.192877 -0.1113741,0.259476 -0.03682,0.0666 -0.1344463,0.241959 -0.2169417,0.389689 -0.082495,0.147729 -0.1499904,0.282631 -0.1499904,0.299781 0,0.01715 -0.07225,0.09478 -0.1605564,0.172511 -0.1440858,0.126829 -0.17869,0.141162 -0.3373192,0.139717 -0.1165176,-0.0011 -0.2298236,-0.02954 -0.332448,-0.08355 z M 3.3958537,6.5833234 C 3.2195781,6.5210324 3.1818223,6.4951984 2.9545795,6.2813834 2.5343058,5.8859454 2.4446815,5.4593904 2.6147351,4.6639364 2.662138,4.4422074 2.7316167,4.1784355 2.7691347,4.0777768 2.859467,3.8354194 3.1139313,3.4072775 3.3080774,3.1709926 3.3940692,3.066337 3.5245125,2.9028672 3.5979513,2.807726 3.7820203,2.5692625 4.3767105,1.9911881 4.5124971,1.9187329 c 0.2454031,-0.1309464 0.4748104,-0.049548 0.4748104,0.168471 0,0.1289818 -0.093802,0.2188682 -0.2284035,0.2188682 -0.082928,0 -0.1640351,0.062713 -0.4362558,0.337319 C 4.1387335,2.8289167 3.936702,3.0463469 3.873689,3.1265698 3.810676,3.2067923 3.6877653,3.3624782 3.6005538,3.4725377 3.4163227,3.7050351 3.1882724,4.0856167 3.1882724,4.160574 c 0,0.028468 -0.022609,0.095475 -0.050234,0.1489054 -0.080298,0.15528 -0.1925302,0.772031 -0.1873675,1.029647 0.00262,0.12999 0.027221,0.285795 0.054707,0.346233 0.059682,0.131242 0.3941893,0.45087 0.5235485,0.50026 0.097685,0.0373 0.4990483,-0.0078 0.8075835,-0.09068 0.2108217,-0.05665 0.3176286,-0.01038 0.3327347,0.144143 0.014257,0.145837 -0.09552,0.244576 -0.301092,0.270817 -0.087599,0.01118 -0.2215457,0.03425 -0.2976587,0.05125 -0.2529281,0.05651 -0.5498646,0.06627 -0.674638,0.02217 z m 5.5354921,0.007 C 8.6326899,6.5057134 8.239409,5.9378434 8.239409,5.5912124 c 0,-0.05189 -0.023255,-0.13893 -0.051682,-0.193433 -0.1051078,-0.201535 -0.040272,-0.493515 0.1178782,-0.530849 0.045616,-0.01077 0.099605,-0.05036 0.1199706,-0.08799 0.3292651,-0.6082649 0.7500828,-0.975094 1.0362201,-0.9032782 0.1578242,0.039611 0.2903487,0.1834761 0.3310502,0.3593802 0.047256,0.204239 -0.021388,0.63768 -0.1284141,0.810855 -0.136854,0.221435 -0.3760356,0.380275 -0.7765538,0.515708 -0.2638182,0.08921 -0.2666796,0.09995 -0.094558,0.354987 0.1491723,0.221031 0.2065048,0.259274 0.4020726,0.268198 0.1351488,0.0062 0.2183154,-0.01369 0.3535615,-0.08441 0.2082782,-0.108905 0.2853011,-0.1151 0.3630391,-0.0292 0.1336216,0.147651 0.050693,0.28231 -0.2706921,0.439549 -0.2187197,0.107009 -0.5013324,0.138691 -0.7099553,0.07959 z m -0.069193,-1.457434 c 0.1643489,-0.05926 0.4050061,-0.217451 0.4443975,-0.292109 0.064458,-0.12217 0.1150137,-0.454609 0.07885,-0.518501 -0.030764,-0.05436 -0.058463,-0.03725 -0.2383933,0.147248 -0.1262082,0.12941 -0.2453259,0.297096 -0.3134122,0.441201 -0.1033592,0.21876 -0.1219105,0.267593 -0.10118,0.266345 0.00474,-2.75e-4 0.063139,-0.02017 0.1297383,-0.04418 z m 8.3205362,1.320993 c -0.167351,-0.0953 -0.199452,-0.229214 -0.08289,-0.345778 0.05218,-0.05218 0.09966,-0.06742 0.16765,-0.05383 0.119636,0.02393 0.651388,-0.05944 0.702007,-0.110055 0.02083,-0.02083 0.05695,-0.09336 0.08026,-0.161182 0.04225,-0.122892 0.04159,-0.124272 -0.194152,-0.407624 -0.354114,-0.425628 -0.493386,-0.574371 -0.560441,-0.598554 -0.0507,-0.01828 -0.06054,-9.58e-4 -0.06054,0.106377 0,0.176171 -0.0902,0.351968 -0.275774,0.537474 -0.278979,0.278876 -0.766413,0.39724 -1.279491,0.310698 -0.243325,-0.04104 -0.257122,-0.03975 -0.309764,0.02893 -0.152049,0.198381 -0.525926,0.228374 -0.986872,0.07917 -0.328583,-0.106362 -0.409534,-0.173061 -0.467432,-0.385138 -0.0464,-0.169964 0.03621,-0.548552 0.137625,-0.63067 0.09358,-0.07578 0.13447,-0.07662 0.236922,-0.0048 0.07571,0.05302 0.07916,0.07118 0.05759,0.302722 l -0.02294,0.246314 0.149038,0.06442 c 0.175784,0.07598 0.570599,0.123004 0.53388,0.06359 -0.013,-0.02104 -0.08607,-0.07334 -0.162373,-0.116223 -0.139185,-0.07823 -0.378154,-0.389254 -0.378154,-0.492182 0,-0.02943 0.02594,-0.107905 0.05764,-0.17439 0.07975,-0.167232 0.215225,-0.211186 0.430519,-0.139677 0.253488,0.0842 0.54929,0.404056 0.549611,0.594314 2.09e-4,0.120026 0.123102,0.161537 0.484485,0.163639 0.391112,0.0023 0.590774,-0.07112 0.745567,-0.274061 0.09535,-0.125016 0.09784,-0.13905 0.09127,-0.515993 -0.0037,-0.213115 -0.0289,-0.4723987 -0.05597,-0.5761858 -0.05837,-0.2238273 -0.02105,-0.3413088 0.124698,-0.3925673 0.141824,-0.049876 0.256605,0.044249 0.321841,0.2639232 0.06984,0.2351751 0.250406,0.5042919 0.51521,0.7678719 0.194706,0.193806 0.471871,0.51969 0.673868,0.792317 0.07159,0.09662 0.07927,0.137599 0.06494,0.346186 -0.0281,0.408999 -0.254389,0.637771 -0.682394,0.689878 -0.468663,0.05706 -0.538125,0.05948 -0.605445,0.02115 z m 6.192832,-0.06124 c -0.140854,-0.08791 -0.476665,-0.448699 -0.528664,-0.567983 -0.0868,-0.199116 -0.03071,-0.64337 0.106699,-0.845148 0.101244,-0.14867 0.339387,-0.273489 0.644064,-0.33758 0.315475,-0.06636 0.449121,-0.0663 0.522657,2.48e-4 0.05404,0.04891 0.05957,0.03322 0.07617,-0.21623 0.0098,-0.147928 0.0044,-0.4090785 -0.01217,-0.5803327 -0.01654,-0.1712543 -0.04526,-0.5526842 -0.06383,-0.8476223 -0.01857,-0.2949381 -0.04943,-0.676368 -0.06856,-0.8476224 -0.01914,-0.1712543 -0.05279,-0.5811843 -0.0748,-0.9109556 -0.04601,-0.68962317 -0.02224,-0.85422357 0.128803,-0.89213447 0.160965,-0.0404 0.23676,0.029606 0.340747,0.3147185 l 0.09687,0.2656118 -0.07658,0.10357537 c -0.09217,0.1246651 -0.094,0.2055151 -0.02106,0.9289019 0.07886,0.7820877 0.130243,1.5337067 0.147513,2.1578403 0.01243,0.4494266 0.0014,0.6378106 -0.06093,1.0379046 -0.08674,0.556975 -0.167148,0.763437 -0.396783,1.018847 -0.249647,0.277667 -0.533899,0.359171 -0.760153,0.217957 z m 0.443776,-0.486445 c 0.181385,-0.200771 0.233349,-0.324321 0.28007,-0.665901 0.03776,-0.276057 0.03651,-0.305213 -0.01222,-0.285356 -0.02986,0.01216 -0.179998,0.04809 -0.333652,0.07985 -0.425222,0.08787 -0.533655,0.187071 -0.533655,0.488244 0,0.112065 0.02816,0.16416 0.176456,0.326417 0.09705,0.106189 0.204219,0.193071 0.238152,0.193071 0.03393,0 0.117117,-0.06134 0.184854,-0.136321 z m -13.738558,0.463041 c -0.04304,-0.03014 -0.07689,-0.09031 -0.07689,-0.136656 0,-0.116518 0.310413,-0.724104 0.495623,-0.97011 0.195262,-0.259355 0.547154,-0.531047 0.691037,-0.533542 0.293387,-0.0051 0.582823,0.53167 0.61039,1.131967 0.0011,0.0243 0.04637,0.04324 0.103305,0.04324 0.128917,0 0.210052,0.08083 0.210052,0.209255 0,0.128719 -0.120612,0.211119 -0.339286,0.231792 -0.139473,0.01319 -0.173751,0.0032 -0.2431,-0.07112 -0.08832,-0.09459 -0.136416,-0.25419 -0.161134,-0.534678 -0.0184,-0.208864 -0.143796,-0.527189 -0.207665,-0.527189 -0.06989,0 -0.409042,0.364078 -0.489731,0.525716 -0.04089,0.08191 -0.124015,0.254208 -0.184729,0.382891 -0.141174,0.299218 -0.245036,0.362479 -0.407869,0.248425 z m 2.53765,-0.173484 c -0.04561,-0.04561 -0.05398,-0.155539 -0.05199,-0.683288 0.0022,-0.581631 -0.01459,-0.971977 -0.05684,-1.3224969 l -0.01688,-0.1400177 -0.284356,0.029402 c -0.303387,0.03137 -0.613387,0.011915 -0.720097,-0.045198 -0.08287,-0.04435 -0.169704,-0.21075 -0.169704,-0.3251965 0,-0.048518 0.03114,-0.1193473 0.06919,-0.1574038 0.100907,-0.1009075 0.222749,-0.08761 0.31852,0.034761 l 0.08136,0.1039557 0.322015,-0.022856 0.322016,-0.022856 -0.02108,-0.089748 c -0.06105,-0.2599489 -0.119608,-0.9834411 -0.08485,-1.0483784 0.02091,-0.039076 0.02809,-0.1425294 0.01654,-0.2384809 -0.01122,-0.093204 -0.02952,-0.2448565 -0.04067,-0.3370041 -0.02276,-0.18818 0.03448,-0.2822176 0.171815,-0.2822176 0.117262,0 0.194173,0.073591 0.235993,0.2258056 0.0544,0.1980164 0.07382,0.656588 0.03117,0.7362715 -0.03959,0.073977 0.0062,0.5774307 0.07378,0.8110106 l 0.03753,0.1297378 0.227991,9.588e-4 c 0.189686,8.075e-4 0.262867,0.019702 0.435572,0.1124395 0.190285,0.1021793 0.208465,0.1221028 0.218194,0.2391206 0.0087,0.1041111 -0.0052,0.1380036 -0.07504,0.1837749 -0.07992,0.052366 -0.09576,0.051517 -0.236692,-0.012687 -0.208465,-0.094967 -0.32333,-0.1198757 -0.429688,-0.093182 -0.0895,0.022463 -0.0904,0.025758 -0.06474,0.2372791 0.01432,0.1179738 0.03916,0.5492228 0.05521,0.9583298 0.01605,0.409108 0.03118,0.780078 0.03363,0.824378 0.0103,0.186344 -0.269217,0.322461 -0.397911,0.193767 z M 26.64492,5.8594684 C 26.356796,5.7550894 26.284021,5.7157444 26.077851,5.5528864 25.739432,5.2855624 25.401642,4.7138734 25.399809,4.4053404 25.399547,4.3706704 25.306022,4.208426 25.191854,4.0447947 25.077683,3.8811629 24.984273,3.7134418 24.984273,3.6720808 c 0,-0.1832188 0.25595,-0.2537886 0.374384,-0.1032239 0.03742,0.047569 0.07626,0.086492 0.08632,0.086492 0.01006,0 0.03716,-0.058382 0.06023,-0.1297383 0.051,-0.1577495 0.191276,-0.4116354 0.289189,-0.5234108 0.10151,-0.1158828 0.265279,-0.1771749 0.473399,-0.1771749 0.164209,0 0.190601,0.011955 0.326552,0.1479056 0.330247,0.3302472 0.320661,0.8377021 -0.02412,1.2764949 -0.122235,0.155567 -0.41181,0.305441 -0.590148,0.305441 h -0.132294 l 0.07497,0.147036 c 0.269772,0.529098 0.729766,0.828347 1.275712,0.829915 0.325179,9.08e-4 0.412256,-0.03425 0.619343,-0.250237 0.18052,-0.188279 0.295966,-0.220325 0.395901,-0.109896 0.112451,0.124257 0.0402,0.311591 -0.193033,0.500515 -0.266782,0.216098 -0.354201,0.245326 -0.770315,0.257554 -0.330465,0.0097 -0.410169,4.57e-4 -0.605445,-0.07029 z M 26.147193,4.0737622 c 0.130089,-0.079326 0.263253,-0.3393427 0.268081,-0.5234557 0.0042,-0.1596571 -0.109267,-0.33293 -0.207455,-0.3168388 -0.200424,0.032843 -0.511555,0.8181258 -0.349976,0.883324 0.08766,0.035372 0.18436,0.020989 0.28935,-0.043027 z M 39.238435,5.5833394 C 38.652243,5.5086494 38.112429,4.9671344 37.937293,4.2780914 37.834409,3.8733169 37.927893,3.290343 38.149375,2.95568 38.254556,2.796741 38.555513,2.5544542 38.679298,2.5290647 38.85805,2.4924007 39.049272,2.4372167 39.15792,2.390944 c 0.125737,-0.05355 0.39173,-0.025142 0.524233,0.055987 0.105582,0.064647 0.213307,0.276524 0.213521,0.4199613 0,0.0626 -0.02714,0.1900059 -0.06052,0.2831245 -0.05007,0.1396746 -0.101885,0.2002248 -0.29607,0.3459679 -0.129457,0.097164 -0.319476,0.2498219 -0.422264,0.3392398 -0.203831,0.1773232 -0.362221,0.2356585 -0.611049,0.2250526 -0.08885,-0.00379 -0.170621,0.00222 -0.181723,0.013298 -0.03024,0.030244 0.109077,0.4119613 0.200904,0.5504423 0.126842,0.191289 0.334368,0.37579 0.531525,0.472547 0.151703,0.07445 0.217585,0.08682 0.400437,0.07518 0.18164,-0.01157 0.251775,-0.03579 0.412429,-0.142421 0.291582,-0.193542 0.475917,-0.167392 0.475917,0.06751 0,0.101486 -0.02373,0.128316 -0.233529,0.263983 -0.12844,0.08306 -0.264666,0.163533 -0.302722,0.178832 -0.137903,0.05544 -0.350569,0.07172 -0.570577,0.04369 z M 38.832423,3.5227798 c 0.08045,-0.072913 0.218424,-0.181408 0.306619,-0.2411003 0.367642,-0.2488318 0.475384,-0.5597666 0.159466,-0.4602172 -0.06173,0.01945 -0.210019,0.054881 -0.329531,0.078732 -0.253069,0.050504 -0.423901,0.1734001 -0.529923,0.3812245 -0.06663,0.1305947 -0.06745,0.144918 -0.01467,0.2561297 0.07914,0.1667844 0.213086,0.1619362 0.408042,-0.014766 z m 9.318814,1.8791576 c -0.0309,-0.0309 -0.06512,-0.09181 -0.07605,-0.135343 -0.0214,-0.08529 0.06527,-0.331164 0.116741,-0.331164 0.01722,0 0.0733,-0.03892 0.124635,-0.08649 0.112748,-0.10449 0.204796,-0.109846 0.297343,-0.0173 0.100756,0.100757 0.08563,0.20097 -0.06266,0.415162 -0.104738,0.151288 -0.153467,0.192438 -0.237779,0.2008 -0.06375,0.0063 -0.128456,-0.01189 -0.162233,-0.04567 z m -3.507432,-0.207632 c -0.292001,-0.06343 -0.453817,-0.162105 -0.588032,-0.358583 -0.130558,-0.191123 -0.138432,-0.254866 -0.04324,-0.350051 0.113363,-0.113365 0.222142,-0.08799 0.363781,0.08486 0.09852,0.120238 0.166653,0.165804 0.310362,0.207581 0.467327,0.135856 0.903336,0.02311 1.064094,-0.275142 0.145023,-0.269065 0.167068,-0.5377371 0.06294,-0.7670823 C 45.709707,3.5068426 45.615167,3.4650657 45.20084,3.4650657 h -0.354321 l -0.143072,0.1383872 c -0.184317,0.1782816 -0.235108,0.2815111 -0.215542,0.4380645 0.01343,0.1074151 0.0021,0.1356792 -0.07429,0.185746 -0.07507,0.04918 -0.106683,0.0522 -0.189224,0.01801 -0.274654,-0.1137659 -0.219697,-0.5033663 0.122632,-0.869344 0.234743,-0.2509589 0.382253,-0.317988 0.739692,-0.3361164 0.575372,-0.029184 0.892507,0.1113696 1.079973,0.4786393 0.143421,0.2809756 0.168079,0.5031789 0.08868,0.7992031 -0.127836,0.476647 -0.28914,0.676867 -0.69294,0.860131 -0.178838,0.08116 -0.587236,0.08851 -0.918626,0.01652 z M 36.233358,5.0031484 C 35.829146,4.8219474 35.660614,4.5902724 35.407569,3.8679589 35.255859,3.4349011 35.2175,3.2817163 35.215716,3.1017991 c -0.0037,-0.377584 0.137245,-0.5952362 0.336509,-0.5194765 0.123038,0.046777 0.141028,0.1160695 0.0919,0.3539219 -0.04181,0.2023989 -0.04068,0.2084765 0.135435,0.7297268 0.09767,0.2890951 0.20831,0.5755681 0.245858,0.6366071 0.08528,0.138632 0.258615,0.286884 0.335417,0.286884 0.109126,0 0.363737,-0.6704378 0.525549,-1.3838732 0.173548,-0.7651571 0.20471,-0.8303235 0.397058,-0.8303235 0.212286,0 0.280026,0.1755292 0.157575,0.4083077 -0.03702,0.070369 -0.108583,0.3147657 -0.159035,0.5431052 -0.108917,0.4929479 -0.253577,0.9343898 -0.431468,1.3166628 -0.179917,0.386633 -0.343964,0.482273 -0.617158,0.359807 z M 48.302533,3.5394785 c -0.240721,-0.1142664 -0.478578,-0.302135 -0.515074,-0.406827 -0.07894,-0.226454 -0.0091,-0.3768209 0.175118,-0.3768209 0.08507,0 0.201569,0.092793 0.201569,0.1605529 0,0.049154 0.174341,0.1700688 0.284793,0.1975229 0.09353,0.023245 0.199562,0.1721535 0.199562,0.2802474 0,0.073632 -0.125112,0.192617 -0.198931,0.1891909 -0.0333,-0.00156 -0.09947,-0.021287 -0.147037,-0.043865 z M 33.650778,1.303247 C 33.612718,1.287159 33.426043,1.273648 33.235936,1.273221 32.918615,1.2724994 32.885067,1.266001 32.82657,1.193756 32.75982,1.111318 32.76667,0.95595693 32.841,0.86638403 c 0.05753,-0.069321 0.80433,-0.023743 0.969841,0.05919 0.185529,0.092965 0.220697,0.22216867 0.09288,0.34124507 -0.08046,0.074956 -0.141138,0.083695 -0.252952,0.036428 z"
       id="path953" />
  </g>
</svg>
