<?xml version="1.0" encoding="UTF-8" standalone="no"?>
<!-- Created with Inkscape (http://www.inkscape.org/) -->

<svg
   width="209.05911"
   height="30.776171"
   viewBox="0 0 27.656777 4.0714308"
   version="1.1"
   id="svg5"
   inkscape:version="1.1.1 (3bf5ae0d25, 2021-09-20)"
   sodipodi:docname="things_i_like.svg"
   xmlns:inkscape="http://www.inkscape.org/namespaces/inkscape"
   xmlns:sodipodi="http://sodipodi.sourceforge.net/DTD/sodipodi-0.dtd"
   xmlns="http://www.w3.org/2000/svg"
   xmlns:svg="http://www.w3.org/2000/svg">
  <sodipodi:namedview
     id="namedview7"
     pagecolor="#ffffff"
     bordercolor="#666666"
     borderopacity="1.0"
     inkscape:pageshadow="2"
     inkscape:pageopacity="0.0"
     inkscape:pagecheckerboard="0"
     inkscape:document-units="mm"
     showgrid="false"
     inkscape:zoom="4.0416192"
     inkscape:cx="181.85781"
     inkscape:cy="62.474961"
     inkscape:window-width="1920"
     inkscape:window-height="991"
     inkscape:window-x="-9"
     inkscape:window-y="-9"
     inkscape:window-maximized="1"
     inkscape:current-layer="layer1"
     fit-margin-top="0"
     fit-margin-left="0"
     fit-margin-right="0"
     fit-margin-bottom="0"
     units="px" />
  <defs
     id="defs2" />
  <g
     inkscape:label="Capa 1"
     inkscape:groupmode="layer"
     id="layer1"
     transform="translate(-5.2987171,-6.343096)">
    <path
       style="fill:#414141;fill-opacity:1;stroke-width:0.0226891"
       d="m 14.545403,10.397581 c -0.0328,-0.02398 -0.03783,-0.124281 -0.04467,-0.8889884 -0.0061,-0.6755557 -0.01609,-0.9134599 -0.04645,-1.1001019 -0.02131,-0.1309778 -0.04059,-0.2399946 -0.04286,-0.2422596 -0.0022,-0.00227 -0.06016,0.015227 -0.128666,0.038872 -0.195644,0.067529 -0.449325,0.04875 -0.549968,-0.040713 -0.09016,-0.080146 -0.0041,-0.2862637 0.09695,-0.2321857 0.04053,0.021694 0.04888,0.037699 0.04292,0.082269 -0.0041,0.03087 0.06309,0.052907 0.162392,0.05324 0.107852,3.684e-4 0.316017,-0.058772 0.316017,-0.089771 0,-0.036367 -0.06932,-0.182151 -0.08662,-0.182151 -0.0266,0 -0.223149,0.1277178 -0.241003,0.1566056 -0.02281,0.036902 -0.125555,0.030198 -0.140665,-0.00918 -0.03958,-0.1031304 0.105335,-0.2399573 0.338148,-0.3192842 0.09991,-0.034044 0.106977,-0.03335 0.21432,0.021045 0.06427,0.032569 0.122453,0.081379 0.138201,0.1159422 0.03197,0.070178 0.03542,0.1808753 0.0073,0.23489 -0.01246,0.023945 -0.0043,0.114273 0.02181,0.2419104 0.02294,0.1120331 0.05208,0.3366553 0.06477,0.4991605 0.03275,0.4194013 0.03613,1.5578421 0.0048,1.6163911 -0.0326,0.06092 -0.08091,0.07781 -0.126728,0.04431 z M 25.309905,9.8974546 c -0.274616,-0.081243 -0.423879,-0.1960783 -0.486849,-0.3745564 -0.04942,-0.1400783 -0.04565,-0.2450145 0.0099,-0.2747261 0.06229,-0.033334 0.12539,0.033611 0.144535,0.1533379 0.03005,0.1878834 0.222238,0.3143528 0.515021,0.3388986 0.204418,0.017134 0.335366,-0.020932 0.465253,-0.1352646 0.187249,-0.1648244 0.278754,-0.428307 0.298582,-0.8597514 0.01757,-0.3823753 0.01243,-0.3926153 -0.130354,-0.2590656 -0.267818,0.2505121 -0.556361,0.2625347 -0.733303,0.030553 -0.0869,-0.1139384 -0.12812,-0.2291241 -0.12812,-0.3580639 0,-0.14356 0.04001,-0.2410859 0.147915,-0.3605201 0.09351,-0.1035066 0.194467,-0.125705 0.240009,-0.052776 0.02252,0.036048 0.04052,0.037968 0.164193,0.017513 0.0764,-0.012636 0.156999,-0.041064 0.179112,-0.063176 0.06724,-0.067246 0.10004,-0.048411 0.2263,0.1299656 0.121529,0.1716942 0.147883,0.2350044 0.189606,0.4554688 0.095,0.5019966 -0.03612,1.1639718 -0.278586,1.4064378 -0.152214,0.1522144 -0.321102,0.2244293 -0.539556,0.2307105 -0.10117,0.00292 -0.226706,-0.00815 -0.283615,-0.024984 z m 0.567229,-1.4460777 c 0.248649,-0.1490625 0.337392,-0.3429445 0.213625,-0.4667122 -0.05369,-0.053689 -0.07058,-0.057685 -0.199919,-0.047303 -0.123794,0.00994 -0.237735,0.049894 -0.404208,0.1417514 -0.08541,0.047128 -0.03872,0.2310212 0.0937,0.3689902 0.06327,0.065925 0.189968,0.067322 0.296805,0.00327 z M 10.707948,9.0592651 c -0.02135,-0.055634 -0.0027,-0.1104741 0.04689,-0.1379315 0.02496,-0.013816 0.109252,-0.069073 0.187319,-0.1227915 0.127617,-0.087814 0.139408,-0.1024019 0.116849,-0.144554 -0.0138,-0.025786 -0.135207,-0.1579338 -0.269792,-0.2936621 -0.269755,-0.2720453 -0.330171,-0.3677 -0.307745,-0.4872395 0.02092,-0.1115054 0.09424,-0.1797065 0.264802,-0.2463102 0.15243,-0.059523 0.210133,-0.058969 0.233622,0.00224 0.02372,0.061815 -0.03042,0.1174673 -0.162276,0.1668001 -0.129557,0.048473 -0.163869,0.075786 -0.164532,0.130968 -1.82e-4,0.015893 0.123038,0.1569383 0.273842,0.3134329 0.290299,0.3012523 0.383605,0.4467643 0.33942,0.5293258 -0.01296,0.024223 -0.105166,0.1015434 -0.204893,0.1718234 -0.192446,0.1356202 -0.329207,0.1812297 -0.353511,0.1178944 z M 32.757606,8.8170495 c -0.08712,-0.053121 -0.100598,-0.1431009 -0.0273,-0.182327 0.03613,-0.019334 0.06509,-0.015733 0.130462,0.016218 0.08989,0.043936 0.120341,0.119779 0.07165,0.1784533 C 32.895394,8.874 32.845202,8.870455 32.75761,8.8170498 Z M 31.497599,8.761747 C 31.478559,8.7427 31.451489,8.6528512 31.437459,8.562084 31.388139,8.2429186 31.366329,8.137908 31.332619,8.0572404 l -0.03402,-0.081426 -0.129847,0.1058437 c -0.07142,0.058214 -0.173242,0.1269494 -0.226278,0.1527452 l -0.09643,0.046901 -0.0013,0.1486306 c -0.0017,0.2076566 -0.03843,0.3054963 -0.117825,0.3146323 -0.05063,0.00582 -0.06699,-0.00486 -0.08683,-0.056723 -0.01745,-0.045637 -0.01745,-0.075162 -10e-6,-0.1032992 0.01343,-0.021669 0.02443,-0.090325 0.02443,-0.1525688 0,-0.1020789 -0.0065,-0.1165248 -0.06617,-0.1473926 -0.08767,-0.045336 -0.120355,-0.1513538 -0.117928,-0.382563 0.0025,-0.2323354 0.02469,-0.3310103 0.08347,-0.3700393 0.103124,-0.068471 0.164249,0.056541 0.226064,0.4623389 0.0081,0.053036 0.0194,0.096429 0.02517,0.096429 0.03603,0 0.166981,-0.087411 0.256788,-0.1714155 C 31.192856,7.806197 31.284672,7.7633316 31.341,7.793704 c 0.121727,0.065637 0.216423,0.2865431 0.251157,0.5858797 0.01124,0.096961 0.03091,0.2028241 0.0437,0.2352522 0.04469,0.1133756 -0.06029,0.224907 -0.138282,0.1469109 z M 8.6901343,8.7106147 C 8.3667871,8.6463237 8.3059609,8.6270482 8.2558696,8.5729989 8.1870875,8.498782 8.1850287,8.3965577 8.251601,8.3609307 c 0.043035,-0.023031 0.056691,-0.017614 0.1077733,0.042752 0.043284,0.051151 0.091613,0.076259 0.1858694,0.096562 0.070057,0.01509 0.1402041,0.023161 0.1558833,0.017934 C 8.7173639,8.5127653 8.6317682,8.4114185 8.502242,8.2826951 8.2941666,8.07591 8.2734777,8.0475489 8.2586779,7.9488065 8.2450153,7.857655 8.2519407,7.8216125 8.3032658,7.7167062 8.3638537,7.5928688 8.5006551,7.4554535 8.5633509,7.4554535 c 0.018174,0 0.078535,-0.022021 0.1341334,-0.048936 0.1075382,-0.052058 0.1667736,-0.040497 0.1817146,0.035466 0.014122,0.071805 -0.054551,0.1385341 -0.1741132,0.1691762 C 8.500272,7.6636523 8.3811788,7.8427897 8.4648262,7.9725522 8.486621,8.0063627 8.5880783,8.1157061 8.6902867,8.2155383 8.893731,8.414252 8.9621617,8.5198956 8.9412939,8.603042 8.9221851,8.6791768 8.7984854,8.7321576 8.6901349,8.7106139 Z M 22.17881,8.6939159 C 22.007154,8.6446992 21.964679,8.6208798 21.878521,8.5255131 21.771901,8.407498 21.738681,8.2891965 21.771213,8.1433782 c 0.01342,-0.060143 0.03775,-0.1298254 0.05406,-0.1548497 0.01631,-0.025024 0.02493,-0.077719 0.01915,-0.1170997 -0.0082,-0.056135 -8.5e-5,-0.077165 0.03762,-0.097358 0.02647,-0.014167 0.05639,-0.020651 0.06648,-0.014411 0.0101,0.00624 0.07282,-0.0438 0.139384,-0.1112013 0.19871,-0.2012103 0.465578,-0.2821932 0.573683,-0.174088 0.0357,0.035699 0.04779,0.076157 0.04779,0.1598805 0,0.2471696 -0.224069,0.4184628 -0.550818,0.4210823 l -0.172413,0.00138 -0.02788,0.085119 c -0.08245,0.2516335 0.130868,0.4101676 0.525123,0.3902696 0.306558,-0.015472 0.440607,-0.080654 0.464215,-0.2257285 0.02527,-0.1552694 0.164549,-0.1685276 0.179742,-0.01711 0.01603,0.1598138 -0.107718,0.3067231 -0.317578,0.3770001 -0.146531,0.04907 -0.50193,0.064644 -0.630958,0.027649 z m 0.204255,-0.8648001 c 0.07104,-0.035882 0.126074,-0.097508 0.14627,-0.1637867 0.03203,-0.1051097 -0.14213,-0.048149 -0.306316,0.1001828 -0.04906,0.04433 -0.08339,0.09001 -0.07629,0.1015135 0.01544,0.024986 0.15666,0.00233 0.236332,-0.03791 z M 5.7405501,8.6368294 C 5.5998612,8.6128513 5.4978096,8.552137 5.4162824,8.4439106 5.2803965,8.2635234 5.2652004,8.0972201 5.3557368,7.7813123 5.4785315,7.3528461 5.7481598,6.9122771 6.1268843,6.5212677 6.250021,6.3941366 6.2907618,6.3652277 6.338921,6.3708107 c 0.046021,0.00534 0.061248,0.021117 0.066784,0.069217 0.00595,0.051709 -0.021414,0.0903 -0.1608919,0.226891 C 6.0512138,6.8565123 5.7527214,7.265984 5.6581541,7.471698 5.5677036,7.668456 5.4796254,7.9846355 5.4796254,8.1125723 c 0,0.083188 0.015234,0.1285336 0.067355,0.2004845 0.09049,0.1249176 0.129412,0.1418109 0.359501,0.156036 0.1809409,0.011187 0.2035303,0.00778 0.2756177,-0.041577 0.043188,-0.029569 0.1052095,-0.093057 0.1378264,-0.1410842 0.082715,-0.1217951 0.1229186,-0.1400279 0.1809039,-0.082043 l 0.047018,0.047018 -0.06273,0.1152569 C 6.3500083,8.6149024 6.1141137,8.7004969 5.7405501,8.6368294 Z M 9.4955978,8.6221119 C 9.3729852,8.5694797 9.2460172,8.3821412 9.2460172,8.253862 c 0,-0.2393782 0.1694108,-0.4004688 0.4143901,-0.3940388 0.1881264,0.00494 0.3005339,0.068324 0.3606637,0.2033771 0.0262,0.058828 0.05501,0.1222753 0.06405,0.1409939 0.01118,0.023161 0.05892,0.036254 0.149433,0.040984 0.14368,0.00751 0.191293,0.031684 0.191293,0.097131 0,0.06417 -0.08094,0.093413 -0.236424,0.085418 -0.138687,-0.00713 -0.142763,-0.00565 -0.2167529,0.078616 -0.041475,0.047237 -0.104016,0.1006785 -0.1389808,0.1187593 -0.081338,0.042062 -0.2363366,0.040691 -0.338095,-0.00299 z M 9.7853322,8.4412663 C 9.8875331,8.3696815 9.8918444,8.3234523 9.8052551,8.2276104 9.7617911,8.1795024 9.7148203,8.118818 9.7008728,8.0927559 c -0.032482,-0.060688 -0.1359831,-0.06268 -0.2084357,-0.00401 -0.042455,0.034378 -0.053564,0.06535 -0.053564,0.1493403 0,0.091016 0.010451,0.1153077 0.0741,0.1721729 0.084194,0.075228 0.1917468,0.087473 0.27236,0.031009 z m 9.8909558,0.2009933 c -0.02176,-0.036223 -0.04084,-1.0395154 -0.02033,-1.069505 0.01151,-0.016836 0.04924,-0.026867 0.08534,-0.022689 0.07665,0.00887 0.09497,0.056807 0.09823,0.2570693 0.0025,0.1551096 0.06704,0.5331941 0.09097,0.5331941 0.03358,0 0.163882,-0.1561909 0.301285,-0.3611584 0.158414,-0.2363063 0.189857,-0.2645994 0.27133,-0.2441511 0.06732,0.016894 0.113514,0.1070527 0.166442,0.3248162 0.02143,0.088164 0.04758,0.1742436 0.05812,0.1912885 0.01429,0.023112 0.08437,-0.032691 0.275694,-0.2194941 0.141097,-0.1377665 0.277341,-0.2558758 0.302765,-0.2624651 0.118609,-0.030741 0.208534,0.082409 0.2587,0.3255126 0.01461,0.070795 0.04224,0.1417308 0.06141,0.1576343 0.02731,0.022661 0.03165,0.056166 0.02009,0.154895 -0.01959,0.1673614 -0.03001,0.1987209 -0.07128,0.2145585 -0.07696,0.029531 -0.115054,-0.02431 -0.130207,-0.1840128 -0.01725,-0.1818634 -0.08452,-0.4422108 -0.117039,-0.4529882 -0.01257,-0.00417 -0.140115,0.1103283 -0.283422,0.2544345 -0.229367,0.2306452 -0.268663,0.2612092 -0.328257,0.2553102 -0.08635,-0.00855 -0.154131,-0.1232628 -0.208388,-0.3527098 -0.0214,-0.090473 -0.04469,-0.164133 -0.05177,-0.1636894 -0.0071,4.459e-4 -0.05371,0.067689 -0.103626,0.1494345 -0.117759,0.1928501 -0.353131,0.4169864 -0.437887,0.4169864 -0.04239,0 -0.0689,0.016071 -0.08425,0.05105 -0.02228,0.05079 -0.131529,0.083924 -0.153906,0.046679 z m 7.251563,-0.040233 C 26.777513,8.5366438 26.638055,8.255039 26.640946,8.0226814 c 0.0017,-0.1459611 0.06519,-0.3541429 0.113441,-0.3726591 0.01848,-0.00709 0.0543,-0.00182 0.07958,0.011716 0.04931,0.026392 0.04902,0.067294 -0.0019,0.2644736 -0.05388,0.2086317 0.08787,0.5275622 0.234478,0.5275622 0.06988,0 0.20019,-0.1483299 0.236361,-0.2690575 0.01448,-0.048339 0.02633,-0.1740908 0.02633,-0.2794492 0,-0.2367265 0.02639,-0.2806068 0.162967,-0.2709895 0.04714,0.00332 0.07745,0.088997 0.04349,0.1229555 -0.01373,0.013719 -0.02573,0.1071344 -0.0267,0.2075905 -0.0044,0.4595763 -0.2842,0.7663427 -0.58114,0.6372025 z m 0.855202,0.00831 c -0.130174,-0.025486 -0.213585,-0.087549 -0.222893,-0.1658463 -0.0145,-0.1220755 0.101151,-0.1724902 0.166591,-0.072616 0.02756,0.042074 0.06386,0.05777 0.16193,0.070023 0.173904,0.021728 0.194333,-0.00629 0.094,-0.1289334 C 27.808004,8.09945 27.752612,7.9050213 27.816135,7.7283732 c 0.04687,-0.1303246 0.117522,-0.2048478 0.194213,-0.2048478 0.137087,0 0.187197,0.1818107 0.05628,0.2042144 -0.05608,0.0096 -0.07174,0.026459 -0.08889,0.095775 -0.02697,0.1089636 0.02328,0.2245976 0.185031,0.4257569 0.169877,0.2112674 0.156808,0.3041879 -0.05076,0.3609488 -0.103974,0.028433 -0.184182,0.028461 -0.328958,1.114e-4 z m -11.289982,-0.04626 c -0.198297,-0.034079 -0.408802,-0.1650455 -0.476879,-0.2966912 -0.04921,-0.095161 -0.06406,-0.3089676 -0.0247,-0.3555908 0.01699,-0.020123 0.05776,-0.0837 0.0906,-0.1412817 0.07175,-0.1258051 0.239552,-0.2973696 0.377827,-0.3863088 0.25372,-0.163194 0.508519,0.0038 0.400448,0.2624448 -0.08952,0.214245 -0.300717,0.3681363 -0.580872,0.4232533 -0.130553,0.025685 -0.131644,0.026555 -0.110251,0.087926 0.04414,0.1265983 0.237689,0.2278835 0.435486,0.2278835 0.170975,0 0.273386,-0.037624 0.365497,-0.1342759 0.07734,-0.081154 0.136966,-0.089254 0.172212,-0.023395 0.06221,0.116241 -0.180711,0.3079913 -0.426672,0.3367939 -0.07141,0.00836 -0.171621,0.00802 -0.222701,-7.551e-4 z M 16.400816,7.852562 c 0.142441,-0.059516 0.309918,-0.2367174 0.309918,-0.3279137 0,-0.045686 -0.107301,-0.023335 -0.195821,0.040789 -0.09422,0.068253 -0.280649,0.268609 -0.280649,0.3016151 0,0.029874 0.07625,0.02324 0.166552,-0.01449 z m 13.127928,0.6931409 c -0.129065,-0.039162 -0.229318,-0.101459 -0.260589,-0.1619281 -0.06257,-0.121006 -0.02895,-0.3318531 0.05649,-0.3541946 0.0371,-0.0097 0.0399,-0.019501 0.01881,-0.06578 -0.05939,-0.1303435 0.15853,-0.195301 0.341702,-0.1018546 0.08821,0.045 0.276018,0.2320042 0.276018,0.2748323 0,0.050686 0.161936,0.093359 0.326328,0.085995 l 0.161486,-0.00724 v 0.067968 c 0,0.059086 -0.01186,0.071955 -0.09076,0.098475 -0.05868,0.019726 -0.14188,0.025982 -0.235431,0.017701 -0.133093,-0.01178 -0.148072,-0.00848 -0.18714,0.041185 -0.0438,0.055684 -0.21889,0.1278426 -0.301848,0.124401 -0.02586,-0.00108 -0.07313,-0.00988 -0.105069,-0.019567 z m 0.202152,-0.184904 c 0.09348,-0.032587 0.09017,-0.058122 -0.01363,-0.1050418 -0.0468,-0.021153 -0.127831,-0.07219 -0.180073,-0.1134166 l -0.09499,-0.074957 -0.01512,0.1008282 c -0.01788,0.119207 -0.0076,0.1404898 0.08771,0.1822546 0.09063,0.039699 0.126884,0.041432 0.216096,0.010334 z m -14.408835,0.094198 c -0.119058,-0.093651 -0.288397,-0.6362313 -0.223116,-0.7148894 0.03598,-0.043351 0.100235,-0.045336 0.134414,-0.00416 0.01412,0.017007 0.03652,0.09103 0.04979,0.1644961 0.02913,0.1612655 0.0791,0.3160821 0.121624,0.3767889 0.03044,0.04346 0.03366,0.042583 0.114131,-0.031181 0.04554,-0.041745 0.127125,-0.15758 0.181292,-0.2574121 0.08639,-0.1592293 0.106931,-0.1823717 0.167288,-0.1885102 0.09539,-0.0097 0.133477,0.059482 0.07435,0.1350349 -0.02302,0.029411 -0.07333,0.1159699 -0.111793,0.1923516 -0.07387,0.1466724 -0.183483,0.2660672 -0.304735,0.3319227 -0.09372,0.050903 -0.133993,0.050022 -0.203243,-0.00445 z m 13.369403,-0.044956 c -0.01287,-0.024054 -0.01767,-0.058723 -0.01062,-0.077041 0.007,-0.01832 -0.0039,-0.1957026 -0.02427,-0.3941865 -0.02038,-0.198484 -0.03383,-0.3756749 -0.02988,-0.3937576 0.0057,-0.026066 -0.03326,-0.035229 -0.187996,-0.044223 -0.201278,-0.011699 -0.269952,-0.040559 -0.269952,-0.1134457 0,-0.080962 0.05779,-0.098281 0.276187,-0.082779 l 0.206744,0.014675 -0.01458,-0.1394446 c -0.008,-0.076695 -0.01458,-0.2283471 -0.01458,-0.3370055 0,-0.1792839 -0.0052,-0.2032227 -0.05673,-0.2587654 -0.06817,-0.07356 -0.06819,-0.073814 -0.01159,-0.1666402 0.06665,-0.1093026 0.156392,-0.096697 0.205221,0.028823 0.02044,0.052523 0.05063,0.4378479 0.06621,0.8447074 7.48e-4,0.019793 0.04755,0.028361 0.154861,0.028361 0.164767,0 0.25463,0.038889 0.25463,0.1101942 0,0.077258 -0.04466,0.092643 -0.227909,0.078511 -0.214706,-0.016557 -0.212215,-0.02086 -0.180048,0.3111247 0.05095,0.5258989 0.05241,0.5642452 0.02274,0.5999888 -0.04018,0.048406 -0.130443,0.043223 -0.158443,-0.0091 z M 7.0864045,8.3652655 C 6.9815543,8.2987714 6.8182827,8.1094392 6.8182827,8.0543475 c 0,-0.016433 0.016476,-0.043042 0.036613,-0.059132 0.020137,-0.01609 0.097694,-0.092599 0.1723493,-0.170019 C 7.1928209,7.6534877 7.3081556,7.6022878 7.4876456,7.6208128 7.9073596,7.6641308 7.9773411,8.1764106 7.5897123,8.367963 7.4107068,8.456421 7.2286028,8.455446 7.0864043,8.365263 Z M 7.4834308,8.2240487 C 7.6266776,8.1502721 7.6920502,8.0399861 7.655198,7.9342715 7.6065418,7.7946962 7.4118662,7.7493599 7.2797707,7.8468414 7.1796346,7.920738 7.0905522,8.0334896 7.0905522,8.0863353 c 0,0.078604 0.1251938,0.1632378 0.241468,0.1632378 0.056019,0 0.1241533,-0.011487 0.1514106,-0.025524 z M 32.548635,7.8082241 c -0.04215,-0.050786 -0.0098,-0.1117896 0.101719,-0.191882 0.127613,-0.091647 0.222692,-0.090652 0.233439,0.00244 0.0058,0.050179 -0.0092,0.071511 -0.08318,0.1181983 -0.04963,0.031333 -0.09681,0.067593 -0.104832,0.080577 -0.02145,0.034708 -0.115547,0.028738 -0.147145,-0.00934 z"
       id="path1033" />
  </g>
</svg>
