<?xml version="1.0" encoding="UTF-8" standalone="no"?>
<!-- Created with Inkscape (http://www.inkscape.org/) -->

<svg
   width="26.08567mm"
   height="6.3649259mm"
   viewBox="0 0 26.08567 6.3649258"
   version="1.1"
   id="svg5"
   inkscape:version="1.1.1 (3bf5ae0d25, 2021-09-20)"
   sodipodi:docname="more-games.svg"
   xmlns:inkscape="http://www.inkscape.org/namespaces/inkscape"
   xmlns:sodipodi="http://sodipodi.sourceforge.net/DTD/sodipodi-0.dtd"
   xmlns="http://www.w3.org/2000/svg"
   xmlns:svg="http://www.w3.org/2000/svg">
  <sodipodi:namedview
     id="namedview7"
     pagecolor="#ffffff"
     bordercolor="#666666"
     borderopacity="1.0"
     inkscape:pageshadow="2"
     inkscape:pageopacity="0.0"
     inkscape:pagecheckerboard="0"
     inkscape:document-units="mm"
     showgrid="false"
     fit-margin-top="0"
     fit-margin-left="0"
     fit-margin-right="0"
     fit-margin-bottom="0"
     inkscape:zoom="0.71446409"
     inkscape:cx="201.54967"
     inkscape:cy="90.277456"
     inkscape:window-width="1920"
     inkscape:window-height="991"
     inkscape:window-x="-9"
     inkscape:window-y="-9"
     inkscape:window-maximized="1"
     inkscape:current-layer="layer1" />
  <defs
     id="defs2" />
  <g
     inkscape:label="Capa 1"
     inkscape:groupmode="layer"
     id="layer1"
     transform="translate(-50.189901,-63.466937)">
    <path
       style="fill:#000000;stroke-width:0.0234183"
       d="m 66.166409,69.814273 c -0.399913,-0.07156 -0.83098,-0.321693 -1.196002,-0.693985 -0.343308,-0.350146 -0.42233,-0.529403 -0.347246,-0.787683 0.06151,-0.211588 0.19425,-0.283048 0.310268,-0.16703 0.04818,0.04818 0.05718,0.0746 0.04586,0.134655 -0.05517,0.292803 -0.0519,0.301255 0.226036,0.584879 0.483321,0.493212 1.204651,0.761808 1.449998,0.539924 0.113597,-0.102729 0.206597,-0.434668 0.206597,-0.737363 0,-0.412381 -0.12643,-1.060399 -0.29525,-1.513283 -0.126238,-0.338648 -0.105233,-0.317561 -0.249422,-0.250431 -0.21,0.09777 -0.480931,0.06802 -0.665984,-0.07313 -0.100526,-0.07667 -0.217355,-0.280545 -0.21764,-0.379779 -2.64e-4,-0.08504 0.05631,-0.211199 0.114618,-0.255694 0.05542,-0.04229 0.177066,-0.03616 0.21754,0.01096 0.05553,0.06466 0.06571,0.116025 0.03847,0.194141 -0.02263,0.06488 -0.01851,0.07958 0.03899,0.139597 0.08177,0.08535 0.209553,0.109447 0.324861,0.06127 0.04671,-0.01952 0.08493,-0.0462 0.08493,-0.05929 0,-0.04372 -0.145728,-0.190439 -0.249641,-0.251335 -0.119395,-0.06997 -0.148469,-0.114639 -0.148469,-0.228083 0,-0.177785 0.272364,-0.336259 0.503654,-0.293049 0.281825,0.05265 0.425619,0.229983 0.40408,0.49833 -0.0064,0.07999 -0.02864,0.17824 -0.04936,0.218324 -0.03654,0.07068 -0.03522,0.0782 0.04387,0.249402 0.127263,0.275439 0.211115,0.519222 0.291694,0.848024 0.220597,0.900129 0.18057,1.640172 -0.109264,2.020163 -0.125377,0.16438 -0.459286,0.24663 -0.773194,0.190457 z m 0.250562,-3.626429 c 0,-0.0115 -0.01728,-0.02755 -0.03842,-0.03566 -0.03215,-0.01233 -0.0336,-0.0089 -0.0089,0.02091 0.03373,0.04064 0.04728,0.04487 0.04728,0.01475 z m -6.397718,3.440243 c -0.359211,-0.07513 -0.651729,-0.30968 -0.913791,-0.732713 -0.14368,-0.231928 -0.158483,-0.289032 -0.09453,-0.364612 0.109698,-0.129637 0.230935,-0.07211 0.378387,0.17954 0.211689,0.361293 0.490062,0.573925 0.791685,0.604725 0.174966,0.01787 0.229404,-0.0099 0.319098,-0.162989 0.138653,-0.236594 0.246224,-0.908262 0.214469,-1.339127 -0.01987,-0.269372 -0.07165,-0.603114 -0.131667,-0.848349 -0.05486,-0.224152 -0.192175,-0.576266 -0.256759,-0.658371 -0.05698,-0.07244 -0.05795,-0.195335 -0.0018,-0.246024 0.06309,-0.0571 0.196268,-0.04977 0.256272,0.01411 0.118715,0.126367 0.286847,0.577497 0.368878,0.989776 0.171377,0.861298 0.110382,1.795294 -0.145987,2.235352 -0.195386,0.335385 -0.380689,0.413062 -0.784111,0.328689 z m -3.7372,-1.793086 c -0.03667,-0.02567 -0.05204,-0.06031 -0.05204,-0.117091 0,-0.102394 0.06869,-0.173685 0.169782,-0.176212 0.158202,-0.0039 0.198868,-0.01217 0.260667,-0.05266 0.164588,-0.107841 0.200961,-0.337615 0.08132,-0.513688 -0.03246,-0.04774 -0.264979,-0.300653 -0.516747,-0.56202 -0.488251,-0.506874 -0.566198,-0.60319 -0.605124,-0.747759 -0.03711,-0.137858 0.0218,-0.318672 0.135702,-0.41656 0.118386,-0.101727 0.622646,-0.375094 0.691901,-0.375094 0.07103,0 0.157193,0.09147 0.157193,0.166876 0,0.0866 -0.06635,0.143758 -0.333159,0.287033 -0.331632,0.178083 -0.331509,0.177973 -0.31125,0.270199 0.01263,0.05758 0.137702,0.200486 0.501992,0.573654 0.585567,0.599832 0.66497,0.714108 0.677238,0.974657 0.01105,0.234507 -0.02285,0.346352 -0.15011,0.495547 -0.148886,0.174541 -0.259272,0.2272 -0.479027,0.22852 -0.123057,7.45e-4 -0.191996,-0.0099 -0.22833,-0.0354 z m 18.46013,-0.0033 c -0.03864,-0.0051 -0.124324,-0.02455 -0.190408,-0.04317 -0.0865,-0.02437 -0.302961,-0.03686 -0.772804,-0.04459 -0.604479,-0.0099 -0.667054,-0.0071 -0.847782,0.0381 -0.161246,0.04036 -0.210351,0.04428 -0.282764,0.02258 -0.160833,-0.04819 -0.174535,-0.139811 -0.119548,-0.799643 0.01232,-0.148121 0.03368,-0.580189 0.04746,-0.960151 0.03763,-1.03903 0.07009,-1.272262 0.199961,-1.43648 0.140825,-0.178065 0.473712,-0.268209 0.895388,-0.242466 0.286847,0.01751 0.380807,0.04523 0.48433,0.142862 0.06769,0.06384 0.08267,0.09485 0.08267,0.171103 0,0.17381 -0.172281,0.239854 -0.291137,0.111607 -0.04507,-0.04864 -0.09005,-0.0636 -0.255259,-0.08493 -0.168031,-0.02169 -0.232066,-0.01956 -0.394966,0.01314 -0.110745,0.02223 -0.212548,0.05703 -0.236531,0.08085 -0.07366,0.07316 -0.104789,0.301926 -0.132684,0.975003 -0.01496,0.360642 -0.04233,0.868804 -0.06085,1.129249 -0.01851,0.260446 -0.03368,0.488916 -0.03368,0.507714 0,0.02741 0.01504,0.02986 0.07595,0.01239 0.04175,-0.01198 0.409242,-0.02179 0.816589,-0.02179 0.659694,0 0.755686,0.0048 0.878344,0.04392 0.171772,0.05479 0.407435,0.08177 0.452786,0.05184 0.02939,-0.0194 0.03017,-0.06996 0.0057,-0.369412 -0.03733,-0.456292 -0.03456,-0.767994 0.0078,-0.885555 0.01855,-0.05152 0.0339,-0.123464 0.03408,-0.159875 4.38e-4,-0.08212 0.115048,-0.203109 0.192399,-0.203109 0.167588,0 0.211794,0.149362 0.121553,0.410683 -0.05788,0.167598 -0.06129,0.198852 -0.04698,0.42951 0.0085,0.136817 0.0211,0.412101 0.02803,0.611742 0.01465,0.422804 0.0018,0.4582 -0.179482,0.493192 -0.104084,0.02009 -0.347641,0.02299 -0.478142,0.0057 z m -5.456466,-0.07804 c -0.135794,-0.05259 -0.199057,-0.118876 -0.199057,-0.208578 0,-0.06972 0.08504,-0.165416 0.147009,-0.165416 0.02123,0 0.09207,0.02107 0.15743,0.04684 0.127575,0.05029 0.246136,0.06092 0.268887,0.02411 0.02228,-0.03607 -0.04276,-0.140037 -0.198277,-0.316835 -0.26472,-0.300947 -0.453983,-0.611913 -0.558642,-0.917855 -0.07383,-0.215829 -0.08481,-0.316457 -0.04329,-0.39672 0.04495,-0.08693 0.104671,-0.115365 0.306316,-0.145862 0.224128,-0.0339 0.320172,0.017 0.317953,0.168491 -0.0013,0.08449 -0.06196,0.140254 -0.168882,0.155096 -0.09326,0.01295 -0.09936,0.0183 -0.09454,0.08305 0.007,0.09381 0.176263,0.428552 0.299606,0.592395 0.05529,0.07345 0.162662,0.203841 0.238601,0.289756 0.168838,0.191027 0.272057,0.391768 0.27225,0.529489 8.8e-5,0.08222 -0.01403,0.114889 -0.07884,0.181721 -0.04342,0.04481 -0.11632,0.09186 -0.161974,0.104539 -0.13464,0.0374 -0.375233,0.02586 -0.504531,-0.02421 z m -5.222285,-0.0086 c -0.18665,-0.05903 -0.235628,-0.09924 -0.322247,-0.264591 -0.137539,-0.262553 -0.171088,-0.606635 -0.09691,-0.993925 0.02285,-0.11941 0.03224,-0.247388 0.02403,-0.328059 -0.01127,-0.110705 -0.0057,-0.142204 0.03447,-0.193201 0.02636,-0.03351 0.06561,-0.06097 0.08721,-0.06102 0.02443,-4.7e-5 0.06785,-0.05531 0.114969,-0.146365 0.09022,-0.174361 0.268496,-0.396168 0.393093,-0.48907 0.07425,-0.05536 0.113075,-0.06703 0.223075,-0.06703 0.218979,0 0.326843,0.121795 0.326843,0.369053 0,0.115535 -0.01316,0.159163 -0.08332,0.276328 -0.164356,0.274471 -0.417755,0.483735 -0.676457,0.558636 -0.08645,0.02503 -0.09562,0.03561 -0.114075,0.131713 -0.01105,0.05747 -0.02061,0.215148 -0.02132,0.350389 -8.77e-4,0.205846 0.0075,0.266067 0.05214,0.369773 0.02934,0.06813 0.07227,0.133998 0.09538,0.146364 0.06909,0.03698 0.22829,0.02555 0.323948,-0.02325 0.112571,-0.05743 0.319751,-0.246274 0.411979,-0.37552 0.154171,-0.216045 0.199878,-0.257876 0.281773,-0.257876 0.08684,0 0.144272,0.04513 0.16561,0.130153 0.02031,0.08096 -0.117874,0.281439 -0.363677,0.52758 -0.323219,0.323672 -0.582505,0.426571 -0.85651,0.339915 z m 0.386956,-2.028916 c 0.0404,-0.06297 0.06991,-0.132992 0.06555,-0.155603 -0.0063,-0.03255 -0.02737,-0.02017 -0.101412,0.05952 -0.09463,0.101844 -0.245711,0.323752 -0.245711,0.360889 0,0.04307 0.211877,-0.156194 0.28157,-0.264802 z m -11.895354,1.812624 c -0.05712,-0.07261 -0.06174,-0.175664 -0.01544,-0.344512 0.0182,-0.06638 0.03908,-0.2735 0.04644,-0.460262 0.0074,-0.18676 0.03105,-0.502908 0.05273,-0.702549 0.0432,-0.398279 0.05506,-1.416883 0.01776,-1.528332 l -0.02162,-0.06469 -0.06018,0.111525 c -0.03311,0.06134 -0.105456,0.19583 -0.160803,0.29887 -0.194509,0.362137 -0.464172,0.727916 -0.608181,0.824965 -0.123057,0.08293 -0.247202,0.0727 -0.34236,-0.02819 -0.08815,-0.09347 -0.13461,-0.222211 -0.266566,-0.738679 -0.05107,-0.199889 -0.137509,-0.478652 -0.192084,-0.619473 -0.08534,-0.220194 -0.101816,-0.247998 -0.11772,-0.198605 -0.01987,0.0617 -0.139732,1.008224 -0.183732,1.450823 -0.01474,0.148121 -0.04202,0.406308 -0.06064,0.573749 -0.01864,0.167441 -0.04066,0.419294 -0.04894,0.559673 -0.01412,0.238849 -0.01952,0.260272 -0.08397,0.333711 -0.0853,0.09715 -0.193184,0.106825 -0.270733,0.02428 -0.05864,-0.06242 -0.06454,-0.132079 -0.01882,-0.222128 0.01767,-0.03478 0.03899,-0.16335 0.04739,-0.285711 0.0084,-0.122361 0.03022,-0.348933 0.04848,-0.503494 0.01829,-0.15456 0.04512,-0.407478 0.05968,-0.562039 0.05425,-0.575907 0.167013,-1.386665 0.224553,-1.614575 0.07865,-0.311491 0.169386,-0.409211 0.324658,-0.349628 0.04723,0.01812 0.193334,0.231077 0.287185,0.418594 0.07262,0.145099 0.259448,0.689366 0.321535,0.936733 0.01939,0.07728 0.05776,0.219525 0.08523,0.316098 l 0.04996,0.175588 0.08115,-0.09362 c 0.117005,-0.134983 0.263681,-0.363611 0.405624,-0.632245 0.295299,-0.558879 0.429562,-0.69468 0.612071,-0.619082 0.112163,0.04646 0.196215,0.251951 0.232242,0.567781 0.03399,0.297911 0.01781,0.998686 -0.03662,1.5852 -0.01974,0.212521 -0.04136,0.528669 -0.04805,0.70255 -0.01895,0.491072 -0.04368,0.658126 -0.104808,0.707613 -0.07846,0.06353 -0.197088,0.05428 -0.255461,-0.01993 z m 1.225445,-0.10001 c -0.107079,-0.04863 -0.161672,-0.116954 -0.245014,-0.306652 -0.05236,-0.119184 -0.05649,-0.156776 -0.05522,-0.503494 8.78e-4,-0.300531 0.009,-0.389214 0.03991,-0.448059 0.04447,-0.08465 0.128553,-0.11435 0.213794,-0.07551 0.09001,0.04101 0.110877,0.139322 0.08771,0.413307 -0.05059,0.598305 0.139711,0.809347 0.438005,0.485739 0.153817,-0.166873 0.155189,-0.176067 0.04774,-0.319678 -0.05187,-0.06933 -0.110654,-0.160301 -0.130628,-0.202161 -0.0286,-0.0599 -0.05072,-0.07611 -0.103908,-0.07611 -0.146276,0 -0.21225,-0.175763 -0.10857,-0.289243 0.05805,-0.06354 0.306768,-0.168645 0.455273,-0.192391 0.136009,-0.02175 0.249869,0.03773 0.309755,0.16181 0.07557,0.156575 0.100688,0.315853 0.07469,0.473546 -0.02211,0.133987 -0.0207,0.14084 0.03794,0.189768 0.03346,0.02792 0.118154,0.07882 0.188181,0.113107 0.109513,0.05362 0.136473,0.05856 0.192667,0.03528 0.04272,-0.0177 0.06988,-0.04978 0.07847,-0.09272 0.0072,-0.03611 0.03022,-0.08273 0.05108,-0.103606 0.05132,-0.05133 0.181667,-0.04856 0.230027,0.0049 0.0495,0.0547 0.05042,0.212323 0.0018,0.313509 -0.05118,0.106556 -0.240997,0.231889 -0.373887,0.246867 -0.09339,0.01053 -0.133658,-0.0018 -0.327259,-0.100527 l -0.220768,-0.112531 -0.05258,0.06838 c -0.239711,0.31178 -0.565664,0.436185 -0.829221,0.316491 z m 13.481445,-0.459767 c -0.286347,-0.06558 -0.423422,-0.188827 -0.423422,-0.380714 0,-0.09022 0.03794,-0.146159 0.118321,-0.174359 0.06077,-0.02133 0.183176,0.04431 0.198812,0.106609 0.01544,0.06151 0.07662,0.09807 0.20418,0.121998 l 0.08054,0.01511 0.01285,-0.230276 c 0.01465,-0.262245 0.05546,-0.387815 0.1814,-0.558132 0.108938,-0.147335 0.26307,-0.228739 0.457136,-0.241434 0.172308,-0.01127 0.293966,0.01951 0.437922,0.110804 0.331426,0.210185 0.325304,0.575464 -0.01482,0.883282 -0.324615,0.293794 -0.850094,0.439372 -1.252941,0.347113 z m 0.974484,-0.550788 c 0.06836,-0.05161 0.145575,-0.135915 0.172084,-0.187878 l 0.04809,-0.09426 -0.07863,-0.07863 c -0.05666,-0.05666 -0.108452,-0.0831 -0.185369,-0.09463 -0.226299,-0.03393 -0.375383,0.13192 -0.409172,0.455194 -0.02263,0.21631 -0.01487,0.223246 0.171413,0.153139 0.08667,-0.03262 0.213386,-0.101444 0.281583,-0.152934 z m 4.862307,0.558744 c -0.02807,-0.01344 -0.06292,-0.05316 -0.07746,-0.08826 -0.04342,-0.104861 -0.0067,-0.181938 0.137228,-0.287983 0.178593,-0.13158 1.099634,-1.061253 1.536713,-1.55112 0.563857,-0.631948 0.766081,-0.807931 0.928384,-0.807931 0.125153,0 0.184136,0.06892 0.184136,0.21518 0,0.149037 -0.06098,0.215528 -0.183785,0.200409 -0.08136,-0.01002 -0.09504,-7.45e-4 -0.280975,0.190907 -0.107495,0.110789 -0.314658,0.338432 -0.460365,0.505874 -0.27532,0.316396 -1.317629,1.361955 -1.52209,1.526836 -0.135939,0.109625 -0.191185,0.129903 -0.261786,0.09609 z m -10.898396,-0.06157 c -0.281584,-0.103325 -0.427918,-0.242558 -0.592616,-0.563869 -0.153491,-0.299455 -0.21007,-0.487114 -0.197838,-0.656203 0.01224,-0.168915 0.06139,-0.235903 0.173159,-0.235903 0.112188,0 0.180136,0.09335 0.160974,0.221144 -0.0161,0.107427 0.02803,0.24254 0.168759,0.516532 0.121763,0.237066 0.155693,0.27771 0.290048,0.347414 0.22847,0.118534 0.323663,0.107729 0.549023,-0.06232 0.159492,-0.120346 0.45594,-0.527995 0.589072,-0.810031 0.123557,-0.261764 0.165263,-0.306985 0.281899,-0.305668 0.08222,9.21e-4 0.138873,0.04271 0.170404,0.125643 0.02697,0.07091 0.01088,0.115625 -0.07561,0.210391 -0.02873,0.03149 -0.07204,0.108234 -0.09621,0.170534 -0.05789,0.149262 -0.119742,0.24383 -0.355076,0.542956 -0.22614,0.287441 -0.33929,0.387992 -0.5369,0.47712 -0.167053,0.07535 -0.362053,0.08355 -0.529088,0.02226 z M 75.978953,65.71376 c -0.04145,-0.02564 -0.09867,-0.09512 -0.128636,-0.156134 -0.07326,-0.149187 -0.06863,-0.405637 0.01509,-0.8359 0.03509,-0.180321 0.0696,-0.426927 0.07668,-0.548012 l 0.01289,-0.220156 -0.09668,0.01297 c -0.107421,0.01441 -0.188299,0.05249 -0.608093,0.286357 -0.245488,0.13676 -0.293343,0.172866 -0.322909,0.243623 -0.04167,0.09976 -0.06835,0.119008 -0.165465,0.119479 -0.101447,4.82e-4 -0.195281,-0.110621 -0.195281,-0.23124 0,-0.138107 0.03658,-0.165522 0.714256,-0.535538 0.351027,-0.191657 0.530097,-0.251545 0.694084,-0.232124 0.154417,0.01829 0.20418,0.05018 0.255834,0.163945 0.06426,0.141533 0.05931,0.459726 -0.01386,0.891264 -0.03254,0.191773 -0.06449,0.357361 -0.07105,0.367972 -0.0065,0.01061 -0.01307,0.08767 -0.01452,0.17123 -0.0022,0.138785 0.0039,0.1592 0.0711,0.235865 0.175097,0.199422 0.0018,0.40588 -0.223439,0.266401 z M 54.646686,65.406688 c -0.162912,-0.109476 -0.21989,-0.204973 -0.21989,-0.368561 0,-0.354442 0.375413,-0.722345 0.789484,-0.773698 0.232728,-0.02886 0.334597,0.02433 0.334597,0.174715 0,0.09102 -0.077,0.153758 -0.188685,0.153758 -0.178825,0 -0.299421,0.04693 -0.432005,0.168098 -0.07497,0.06852 -0.137106,0.149406 -0.15393,0.200391 -0.02737,0.08292 -0.02575,0.08764 0.05447,0.157086 0.113662,0.09841 0.139667,0.155706 0.109693,0.241691 -0.02118,0.06074 -0.102338,0.12263 -0.160807,0.12263 -0.01083,0 -0.07064,-0.03425 -0.132931,-0.07611 z m 5.022317,-0.303592 c -0.08916,-0.02981 -0.127659,-0.134046 -0.08207,-0.22221 0.03368,-0.06516 0.123373,-0.124055 0.188895,-0.124055 0.01697,0 0.0576,-0.02103 0.09028,-0.04673 0.03267,-0.02571 0.125263,-0.0636 0.205741,-0.08422 0.196417,-0.05032 0.362869,-0.0291 0.489115,0.06235 0.08343,0.06043 0.09511,0.08022 0.09511,0.161094 0,0.06873 -0.01325,0.10148 -0.05205,0.128655 -0.06754,0.04731 -0.108957,0.04596 -0.228216,-0.0074 -0.08109,-0.03631 -0.114916,-0.03973 -0.195759,-0.01981 -0.05375,0.01324 -0.124074,0.04182 -0.156272,0.0635 -0.119009,0.08013 -0.268724,0.117635 -0.354772,0.08887 z"
       id="path1308" />
  </g>
</svg>
