<?xml version="1.0" encoding="UTF-8" standalone="no"?>
<!-- Created with Inkscape (http://www.inkscape.org/) -->

<svg
   width="147.07503"
   height="41.529041"
   viewBox="0 0 38.913598 10.987893"
   version="1.1"
   id="svg5"
   inkscape:version="1.1.1 (3bf5ae0d25, 2021-09-20)"
   sodipodi:docname="open_marriage.svg"
   xmlns:inkscape="http://www.inkscape.org/namespaces/inkscape"
   xmlns:sodipodi="http://sodipodi.sourceforge.net/DTD/sodipodi-0.dtd"
   xmlns="http://www.w3.org/2000/svg"
   xmlns:svg="http://www.w3.org/2000/svg">
  <sodipodi:namedview
     id="namedview7"
     pagecolor="#ffffff"
     bordercolor="#666666"
     borderopacity="1.0"
     inkscape:pageshadow="2"
     inkscape:pageopacity="0.0"
     inkscape:pagecheckerboard="0"
     inkscape:document-units="mm"
     showgrid="false"
     fit-margin-top="0"
     fit-margin-left="0"
     fit-margin-right="0"
     fit-margin-bottom="0"
     inkscape:zoom="2.0208096"
     inkscape:cx="39.093243"
     inkscape:cy="-0.24742559"
     inkscape:window-width="1920"
     inkscape:window-height="991"
     inkscape:window-x="-9"
     inkscape:window-y="-9"
     inkscape:window-maximized="1"
     inkscape:current-layer="layer1"
     units="px" />
  <defs
     id="defs2" />
  <g
     inkscape:label="Capa 1"
     inkscape:groupmode="layer"
     id="layer1"
     transform="translate(9.6273466,3.1070392)">
    <path
       style="fill:#000000;stroke-width:0.0308725"
       d="M 13.681587,7.8407027 C 13.338106,7.7568327 13.179071,7.6535953 12.796995,7.2664852 12.586768,7.0534863 12.401838,6.8359261 12.358284,6.7503555 12.316876,6.6689969 12.248883,6.5706316 12.207205,6.5317663 c -0.07566,-0.070528 -0.0758,-0.071778 -0.07065,-0.6483268 0.0047,-0.5176983 0.01225,-0.5958428 0.07405,-0.7527831 0.180805,-0.4592749 0.612499,-0.5548888 1.200753,-0.2659527 0.392045,0.1925631 0.517806,0.4018426 0.389994,0.6490042 -0.06338,0.1224743 -0.539055,0.577429 -0.809307,0.7739827 -0.113155,0.082294 -0.210522,0.1629168 -0.216363,0.179154 -0.01703,0.04727 0.139764,0.2393427 0.422855,0.5180582 0.246922,0.2431098 0.395675,0.3389149 0.600162,0.3865388 l 0.08619,0.020069 -0.02441,-0.363672 c -0.03728,-0.5544522 -0.03055,-0.9976409 0.01698,-1.1101701 0.08947,-0.2119223 0.407144,-0.2485369 0.977359,-0.1126436 0.219089,0.052214 0.412429,0.078906 0.544829,0.075239 0.188948,-0.00527 0.210377,8.177e-4 0.270133,0.076823 0.117115,0.1488821 0.07314,0.2842137 -0.125196,0.3854036 -0.105685,0.053916 -0.156692,0.06091 -0.31252,0.042813 -0.102424,-0.011882 -0.231976,-0.040719 -0.287892,-0.064088 -0.12159,-0.050803 -0.626061,-0.1354513 -0.643084,-0.1079069 -0.0066,0.010644 9.4e-5,0.1650682 0.01483,0.3431619 0.01474,0.1780937 0.02737,0.4737072 0.02814,0.6569185 0.0011,0.2771218 -0.0094,0.3540539 -0.06226,0.4577083 -0.101489,0.1989326 -0.276987,0.2485234 -0.6002,0.1696003 z M 13.087283,5.571609 c 0.114616,-0.1113384 0.208396,-0.2106686 0.208396,-0.2207343 0,-0.018312 -0.262697,-0.1305687 -0.393632,-0.168216 -0.107727,-0.030976 -0.190152,0.010315 -0.234847,0.117645 -0.05071,0.1216743 -0.08992,0.4864295 -0.06364,0.5912372 l 0.01959,0.077901 0.127874,-0.097704 c 0.07031,-0.053731 0.22165,-0.1887966 0.336265,-0.3001333 z m 4.184469,2.2699487 c -0.06914,-0.052549 -0.120276,-0.1901279 -0.09607,-0.2586512 0.01051,-0.029863 0.04738,-0.0856 0.08177,-0.1238636 0.09634,-0.1070923 0.14081,-0.4712388 0.142648,-1.1697562 0.0018,-0.6940662 0.01395,-0.6583983 -0.224716,-0.6604599 -0.169831,-0.00155 -0.751259,-0.1302114 -0.87318,-0.1933465 -0.09191,-0.047587 -0.197117,-0.2118563 -0.197117,-0.3077261 0,-0.072123 0.115507,-0.1991902 0.200454,-0.22051 0.07846,-0.019693 0.262638,0.051509 0.262638,0.1015021 0,0.023059 0.321165,0.091864 0.675879,0.1447828 l 0.135607,0.020232 -0.01811,-0.2118476 C 17.266991,3.8541063 17.14571,3.2343001 16.995689,3.0924007 c -0.239663,-0.2266887 0.06878,-0.6280866 0.33784,-0.4396371 0.208754,0.1462167 0.389987,0.9352674 0.490581,2.1358962 0.01027,0.1231058 0.02526,0.2238275 0.03333,0.2238275 0.0081,0 0.08078,-0.023512 0.161686,-0.052257 0.138951,-0.049355 0.1517,-0.049257 0.229348,0.00155 0.04523,0.029635 0.09563,0.089158 0.11203,0.1322871 0.04986,0.1309621 -0.02285,0.2296053 -0.258266,0.3505729 l -0.210263,0.1080546 -0.0095,0.7255091 c -0.01329,1.0301318 -0.08929,1.4109211 -0.31052,1.5558784 -0.09053,0.059316 -0.227576,0.062694 -0.30034,0.00738 z m 3.016599,-0.065827 C 19.784045,7.6381643 19.584497,7.4514823 19.375802,6.9220178 c -0.05298,-0.1344826 -0.05724,-0.174383 -0.02641,-0.2487791 0.04157,-0.1004186 0.113189,-0.1479926 0.222713,-0.1479926 0.118153,0 0.225442,0.1076286 0.283143,0.2840364 0.118335,0.3617836 0.366407,0.5138209 0.849904,0.5208828 0.343279,0.00499 0.505341,-0.048193 0.688275,-0.2259886 0.231733,-0.2252189 0.341629,-0.5553678 0.271528,-0.8157078 -0.0722,-0.2681276 -0.460694,-0.6681337 -0.670522,-0.6903907 -0.200335,-0.021246 -0.27937,0.00328 -0.40184,0.1244964 -0.101765,0.1007545 -0.13655,0.1675904 -0.188804,0.3627541 -0.03528,0.1315845 -0.07375,0.3144255 -0.08559,0.4063121 -0.03708,0.2876362 -0.236212,0.4011619 -0.405933,0.2314408 -0.075,-0.074985 -0.07895,-0.093383 -0.06225,-0.2923595 0.02031,-0.2418117 0.123456,-0.6362209 0.212094,-0.8106963 0.07335,-0.1444146 0.302352,-0.3683289 0.453733,-0.4436848 0.08328,-0.041473 0.183448,-0.055729 0.389959,-0.055511 0.259642,2.77e-4 0.289996,0.00727 0.463091,0.1062002 0.546164,0.3122801 0.879624,0.9233492 0.78454,1.4376921 -0.07427,0.4017554 -0.425285,0.9012407 -0.715721,1.0184484 -0.3523,0.142173 -0.827267,0.1804252 -1.149362,0.092562 z M 4.3097076,7.5499257 C 4.0222405,7.4434726 3.8738617,7.301664 3.7329983,6.9987565 3.6287768,6.7746375 3.6158241,6.4665747 3.7050391,6.3338472 3.763254,6.2472403 3.9458731,6.1239008 4.0158815,6.1239008 c 0.02507,0 0.046878,-0.056065 0.05786,-0.1486697 0.046853,-0.3956208 0.3683245,-0.8392573 0.6081441,-0.8392573 0.095815,0 0.2804375,0.1042486 0.3916056,0.2211209 0.1344162,0.1413128 0.436079,0.7670967 0.4612481,0.9568368 0.017852,0.1345017 0.033455,0.1599031 0.1318354,0.2144339 0.061371,0.034028 0.1949521,0.1163598 0.296833,0.182969 0.2735341,0.1788392 0.5479162,0.3338622 0.6601819,0.3729975 0.081514,0.028413 0.1087485,0.025709 0.154066,-0.015309 0.030277,-0.027396 0.099114,-0.049823 0.1529546,-0.049823 0.1999308,0 0.2881431,0.2208954 0.1600488,0.4007857 C 7.025427,7.5115916 6.8298556,7.605782 6.7048843,7.605782 6.570403,7.605782 6.2999098,7.4843272 5.9115204,7.2495523 5.702334,7.1231034 5.5222692,7.0195452 5.511377,7.0194237 5.500476,7.0192949 5.4835074,7.0512988 5.4736594,7.0905377 5.4373735,7.2351231 5.2753909,7.4127614 5.1028795,7.4971628 4.8829095,7.6047852 4.5225797,7.6287505 4.3097002,7.5499132 Z M 4.8765975,7.0746754 c 0.077174,-0.029752 0.1760611,-0.161325 0.1760611,-0.2342563 0,-0.029663 -0.2255213,-0.083291 -0.4861971,-0.1156216 C 4.4773438,6.7137431 4.3588016,6.6737394 4.3030354,6.6358962 4.1276006,6.516844 4.0722345,6.6066675 4.1849366,6.8274879 4.3236809,7.0993323 4.5774173,7.1900153 4.8765975,7.0746791 Z M 4.9546605,6.0952479 C 4.9027025,5.9776093 4.8212104,5.8352098 4.7735713,5.7788026 L 4.6869465,5.6762454 4.6226026,5.8201152 c -0.1382644,0.3091453 -0.1150104,0.4248161 0.086513,0.4303531 0.061598,0.00172 0.1467253,0.014191 0.1891738,0.027796 0.1483769,0.047514 0.1524099,0.034427 0.056373,-0.183015 z m 3.7797232,1.449698 C 8.4311049,7.40728 8.1765693,7.1038701 7.9825369,6.6487361 7.7908973,6.1992095 7.747572,5.9478792 7.5833985,4.3332824 7.5324667,3.8323718 7.4824086,3.3695854 7.472163,3.3048673 7.4471381,3.1467944 7.5438713,3.0366272 7.7077114,3.0366272 c 0.1560952,0 0.2499384,0.1048194 0.267769,0.2990876 0.00743,0.081707 0.02746,0.2736021 0.044372,0.4264225 0.016887,0.1528194 0.051318,0.5001375 0.076487,0.7718178 0.025162,0.2716798 0.059281,0.6375081 0.075803,0.8129516 0.041801,0.4436919 0.1089675,0.7489308 0.231246,1.0508755 0.1255716,0.3100801 0.28429,0.5484714 0.4322014,0.6491516 l 0.1087628,0.074042 0.08005,-0.074042 C 9.1529554,6.9280251 9.225443,6.7238687 9.2432359,6.430592 9.2569865,6.2040435 9.2496316,6.1443033 9.1921277,6.01381 9.1258202,5.8634112 8.8248731,5.3829544 8.7969678,5.3829544 c -0.00786,0 -0.049714,0.027787 -0.092892,0.061742 C 8.6019156,5.5250564 8.465619,5.5233894 8.382995,5.4407464 8.3265549,5.3843138 8.3195794,5.3501097 8.3334056,5.1976889 8.3731942,4.7589752 8.7157399,4.6452524 9.0551212,4.9580828 9.3775671,5.2553023 9.7439054,5.9568011 9.7445348,6.2782336 9.7455688,6.7403106 9.5631878,7.2453428 9.3251514,7.440396 9.1148233,7.6127438 8.9486157,7.6421509 8.7344023,7.5449154 Z M -5.0272891,7.4910702 c -0.033963,-0.00814 -0.091691,-0.042515 -0.1282792,-0.076233 -0.06286,-0.057922 -0.07085,-0.058462 -0.1447108,-0.010072 -0.1159486,0.075972 -0.3379124,0.076126 -0.421708,2.782e-4 -0.056696,-0.051308 -0.065734,-0.085808 -0.054159,-0.2065336 C -5.7625481,7.05699 -5.7679861,7.0462482 -6.0044039,6.7430513 -6.1376134,6.5722632 -6.338667,6.2703576 -6.4511914,6.0721477 -6.5637217,5.8739377 -6.6998093,5.6412529 -6.7536155,5.5550709 -6.8074443,5.4688879 -6.9256513,5.2386103 -7.0163446,5.0433392 -7.1070433,4.8480694 -7.1922934,4.6760877 -7.2057948,4.6611565 -7.2193893,4.646087 -7.2965314,4.6741259 -7.379174,4.7242207 -7.6027136,4.8597234 -7.7757264,4.9048663 -8.055232,4.9006168 -8.2749034,4.8972829 -8.3304691,4.8838468 -8.5217344,4.7878593 -8.9767164,4.559519 -9.3203828,4.2321929 -9.5114929,3.8451584 l -0.1158537,-0.2346131 0.0011,-0.4027354 c 0.0011,-0.3716841 0.00888,-0.4237159 0.098746,-0.6748626 0.115899,-0.3241367 0.2229521,-0.493782 0.479416,-0.7597377 0.1399099,-0.145084 0.250881,-0.2258648 0.4135219,-0.3010089 0.1222634,-0.05649 0.2405705,-0.1029212 0.2629125,-0.1031805 0.1123078,-0.00137 0.1238062,-0.044254 0.0751,-0.2805552 -0.07866,-0.38165968 -0.1146779,-1.07982606 -0.079631,-1.54355127 0.052326,-0.69218643 0.1315421,-1.06369573 0.303739,-1.42448563 0.1382075,-0.2895743 0.2934175,-0.4648292 0.5720346,-0.6459065 0.1748832,-0.1136576 0.1929242,-0.1184824 0.4431065,-0.1184824 0.2391393,0 0.2823799,0.010117 0.5205755,0.1217338 0.311769,0.1461004 0.7023171,0.4171707 0.8298698,0.5759852 0.099381,0.123751 0.1311315,0.1723184 0.3734617,0.5713655 0.086539,0.1425153 0.1953268,0.3146851 0.2417361,0.38260597 0.1165147,0.17052495 0.3913248,0.75612776 0.4817132,1.02651749 0.041176,0.12310551 0.083482,0.22382717 0.094078,0.22382717 0.030854,0 0.2832398,-0.32714226 0.3630842,-0.47065746 0.040182,-0.0722485 0.090705,-0.1521992 0.1122527,-0.1776688 0.021527,-0.0254661 0.1001213,-0.15050505 0.1746166,-0.27785487 0.2108763,-0.3605162 0.4454204,-0.6930958 0.5520684,-0.7828336 0.1691225,-0.1423069 0.5033332,-0.3242453 0.6633885,-0.3611371 0.2524186,-0.058175 0.8460294,-0.066063 0.9530823,-0.01266 0.049833,0.024871 0.1257986,0.045213 0.1687728,0.045213 0.2273134,0 0.61594155,0.1671114 0.7695094,0.3308906 0.16548781,0.1764949 0.20527678,0.3084769 0.21669742,0.71878119 0.0103217,0.37020226 0.005605,0.40534515 -0.11554354,0.86338393 -0.0694616,0.26261128 -0.15926137,0.54947787 -0.19954987,0.63748094 -0.0402882,0.0880023 -0.081976,0.19970428 -0.0926299,0.24822294 -0.0182574,0.083133 -0.0105994,0.09134 0.13319073,0.1424027 0.18400046,0.065357 0.48726647,0.2875377 0.6092234,0.4463472 0.10369326,0.1349976 0.21587658,0.3471765 0.38810471,0.7339997 0.39185813,0.8801203 0.39400959,1.5228484 0.006222,1.8641817 -0.0734493,0.06465 -0.23475109,0.1671784 -0.35845331,0.2278378 -0.21739212,0.1066023 -0.2429775,0.1115352 -0.76518708,0.1475062 -0.50886056,0.035051 -1.06201676,0.028767 -1.23490746,-0.014031 -0.070526,-0.017463 -0.085898,-0.00109 -0.1782182,0.1897924 -0.055568,0.1148941 -0.1971303,0.3478275 -0.3145716,0.5176269 -0.1174358,0.1698005 -0.2143724,0.3201165 -0.2154044,0.3340379 -0.00962,0.1304235 -0.75982,0.9026737 -1.0956069,1.1278996 -0.2229905,0.1495725 -0.5089604,0.4216555 -0.5976173,0.5685997 -0.051722,0.085745 -0.265199,0.2108738 -0.348284,0.2041536 -0.024357,-0.00191 -0.072063,-0.010308 -0.1060263,-0.018511 z m -0.016979,-0.5030371 c 0.057862,-2.175e-4 0.1288564,-0.055774 0.2678182,-0.2095808 0.1039947,-0.1151053 0.2984998,-0.2838295 0.4322178,-0.3749426 0.3102763,-0.2114128 0.9680711,-0.868504 1.0714342,-1.0702904 0.042507,-0.083018 0.1551269,-0.2620827 0.2502207,-0.3979221 0.2027845,-0.2896596 0.3386943,-0.5557483 0.3151706,-0.6170525 -0.00912,-0.023892 -0.092485,-0.078118 -0.1851495,-0.1205017 C -2.9852191,4.155354 -3.2141251,4.0165104 -3.4012279,3.8891927 -3.8050784,3.6143951 -3.9314543,3.5466368 -4.243795,3.4374488 -4.3732175,3.3922068 -4.5190939,3.3274518 -4.5679618,3.2935503 -4.6823287,3.2142093 -4.76487,3.1847783 -4.76487,3.2233373 c 0,0.01672 -0.048333,0.053448 -0.1073694,0.081598 -0.088966,0.042423 -0.1271914,0.045113 -0.2230732,0.015686 l -0.1157102,-0.035521 -0.3712197,0.3660723 c -0.3955759,0.3900808 -0.6171124,0.551579 -0.9517226,0.6937897 -0.2479239,0.1053693 -0.249944,0.060367 0.027859,0.6211996 0.2911251,0.587693 0.6322011,1.1609837 0.8705521,1.4632572 0.1151937,0.1460876 0.2644442,0.3442392 0.3316635,0.440335 0.07529,0.1076259 0.1334901,0.1639391 0.1515534,0.1466458 0.016147,-0.015439 0.064756,-0.028213 0.1080523,-0.028378 z M -7.6172078,4.29892 -7.3644503,4.1719436 -7.4510592,3.9207297 c -0.047611,-0.1381683 -0.1237794,-0.348464 -0.169212,-0.4673235 -0.04545,-0.1188597 -0.089834,-0.2438947 -0.098669,-0.2778547 -0.0088,-0.033964 -0.076961,-0.2562436 -0.1513759,-0.4939629 -0.07442,-0.2377197 -0.1654435,-0.529467 -0.2022744,-0.6483272 -0.036851,-0.1188605 -0.069937,-0.220071 -0.073563,-0.2249139 -0.00392,-0.00491 -0.087602,0.0215 -0.1866142,0.058544 -0.2960036,0.1107479 -0.590115,0.4251634 -0.7218681,0.7716936 -0.1633454,0.429616 -0.1552821,0.7820066 0.02458,1.0733073 0.1351163,0.2188599 0.4454369,0.4960782 0.6966236,0.6223092 0.2601047,0.1307156 0.3994668,0.1238499 0.7162467,-0.035286 z M -0.93665062,4.105058 C -0.44941511,4.061607 -0.38198805,4.038967 -0.16448814,3.8457288 L -0.02590468,3.722606 -0.02856921,3.4336448 C -0.03073863,3.203619 -0.04858015,3.0943112 -0.11621226,2.8977019 -0.23711471,2.5462296 -0.52124266,1.9822122 -0.63731882,1.8632503 -0.75497654,1.7426689 -0.94470958,1.6187128 -1.0639823,1.5845049 c -0.082867,-0.023765 -0.088755,-0.017943 -0.1515477,0.1498977 -0.035962,0.096047 -0.075862,0.1886842 -0.088738,0.2058703 -0.044453,0.059353 -0.3081789,0.7420322 -0.375837,0.9728663 -0.093061,0.3174923 -0.2219412,0.6892978 -0.3182952,0.9182344 -0.044285,0.1052269 -0.08053,0.202952 -0.08053,0.2171659 0,0.098417 0.4324568,0.1198153 1.14229376,0.056527 z M -6.3683038,3.707682 C -6.2858498,3.652422 -6.0368624,3.4275883 -5.8149872,3.2080543 -5.4632734,2.8600484 -5.4172971,2.803187 -5.4561814,2.764301 -5.4807064,2.739774 -5.5539724,2.715472 -5.6189779,2.71033 -5.7854756,2.697124 -5.8892155,2.5741783 -5.8644654,2.4194118 c 0.015811,-0.098783 0.00582,-0.1238212 -0.081806,-0.2037521 -0.236176,-0.215633 -0.5039614,-0.3547986 -0.9251865,-0.4808178 -0.2726407,-0.081565 -0.3318302,-0.089072 -0.5512351,-0.069933 -0.2318478,0.020214 -0.2446669,0.025162 -0.2259268,0.08685 0.010933,0.035982 0.04556,0.1487642 0.076992,0.2506445 0.031414,0.10188 0.1143999,0.3727882 0.1844165,0.6020173 0.070011,0.2292304 0.2024472,0.62144 0.2942831,0.8715773 0.091842,0.2501366 0.1669747,0.4683657 0.1669747,0.4849541 0,0.040446 0.3704767,-0.1278027 0.5576569,-0.2532603 z m 4.1219511,-0.606819 c 0.075096,-0.227861 0.1365425,-0.4268944 0.1365425,-0.4422974 0,-0.040216 0.2532233,-0.6801402 0.3668467,-0.9270823 0.052942,-0.1150398 0.096243,-0.2227083 0.096243,-0.2392633 0,-0.045894 -0.4581392,-0.036069 -0.6495592,0.013925 -0.1857598,0.048518 -0.6673622,0.2621199 -0.7964737,0.3532482 -0.045168,0.031898 -0.248878,0.1454758 -0.4526402,0.2523961 -0.3806644,0.1997476 -0.6900199,0.3918526 -0.9509902,0.5905538 l -0.06781,0.051626 0.092557,0.035423 c 0.050883,0.019483 0.1134293,0.054297 0.1389286,0.077365 0.025531,0.023067 0.1505599,0.076416 0.2779126,0.1185309 0.2694554,0.089112 0.4528011,0.1838225 0.7547978,0.389897 0.306819,0.209367 0.4745044,0.3129197 0.6324506,0.3905609 l 0.1369032,0.067293 0.073876,-0.1589504 c 0.040618,-0.08743 0.1353155,-0.3453836 0.2104153,-0.5732452 z M -4.7648685,2.2938759 c 0.093388,-0.068307 0.2045331,-0.1465263 0.2469805,-0.1738256 0.04245,-0.02729 0.1327576,-0.087368 0.2006762,-0.1334696 0.067922,-0.046111 0.2993944,-0.1754137 0.5143827,-0.2873454 0.2149936,-0.1119317 0.4650593,-0.2504163 0.5557082,-0.3077433 0.2318031,-0.146595 0.7056471,-0.330599 0.9692146,-0.3763686 0.129295,-0.0224532 0.3455815,-0.0323072 0.5147874,-0.0234582 l 0.2918081,0.0152699 0.1432514,-0.36670415 C -1.1580321,0.20497019 -0.99832665,-0.4287894 -0.99856537,-0.66731736 -0.99876503,-0.94749468 -1.0425719,-1.05197 -1.204297,-1.1591038 c -0.078422,-0.051944 -0.1926743,-0.1017975 -0.2539062,-0.110791 -0.061233,-0.00895 -0.1738562,-0.032406 -0.2502655,-0.052017 -0.076409,-0.019619 -0.3013419,-0.034852 -0.4998484,-0.033866 l -0.3609257,0.00181 -0.190754,0.1158752 c -0.2370084,0.1439779 -0.3504265,0.26650908 -0.5561139,0.6008195 -0.088827,0.14436944 -0.2110649,0.33890035 -0.2716472,0.43229099 -0.060583,0.0933897 -0.1383514,0.22074677 -0.1728185,0.28301561 -0.034463,0.06226518 -0.1321359,0.20050988 -0.2170361,0.30720335 -0.2344054,0.29457569 -0.3818686,0.55034118 -0.4045655,0.70170225 -0.026528,0.1767193 -0.1022973,0.2517148 -0.2544111,0.2517148 -0.1728631,0 -0.2234844,-0.072422 -0.252785,-0.36163085 -0.025694,-0.253446 -0.12566,-0.68311214 -0.1979905,-0.85083761 -0.023641,-0.05479386 -0.073725,-0.16908739 -0.111315,-0.25398759 -0.03757,-0.0848961 -0.094839,-0.21583449 -0.1272138,-0.29096594 -0.032353,-0.0751286 -0.1190006,-0.22795179 -0.1925131,-0.33960072 -0.073506,-0.11164804 -0.1514646,-0.23772765 -0.1732348,-0.28017819 -0.051777,-0.1009914 -0.3527848,-0.5529843 -0.423112,-0.635369 -0.066389,-0.077764 -0.4317799,-0.3150926 -0.6333109,-0.4113396 -0.2822463,-0.1347915 -0.5310025,-0.070446 -0.7557908,0.1954996 -0.291991,0.3454544 -0.4596769,1.36433407 -0.3837394,2.33164696 0.019371,0.24700949 0.052661,0.51761347 0.073949,0.60134154 l 0.038686,0.1522352 0.2161095,-0.012444 c 0.1188561,-0.0069 0.289117,-0.0097 0.3783509,-0.00646 0.2235841,0.00824 0.7390761,0.1722047 1.0726653,0.3411245 0.2457098,0.124419 0.3242884,0.1875945 0.6792043,0.5460511 0.2995162,0.3025069 0.413095,0.3988799 0.447651,0.3798394 0.025475,-0.014031 0.1227191,-0.081407 0.2161095,-0.1497056 z M 10.928876,7.4058399 C 10.81657,7.3271814 10.813421,7.2194142 10.917219,7.0063657 11.066426,6.7000858 11.04092,6.405603 10.808693,5.7534296 10.687881,5.4141562 10.681041,5.3324571 10.76591,5.2421317 c 0.09343,-0.099387 0.241535,-0.1005888 0.3335,-0.00272 0.07041,0.074993 0.24124,0.5240749 0.335185,0.8813533 0.03391,0.1288451 0.05342,0.3173296 0.05323,0.512519 -1.99e-4,0.2719635 -0.01047,0.3307737 -0.08593,0.4938723 -0.04713,0.1018298 -0.115039,0.2164451 -0.150976,0.2547008 -0.0762,0.081082 -0.224718,0.092129 -0.322036,0.023967 z M 10.712777,4.3647363 c -0.06518,-0.030839 -0.156282,-0.064605 -0.202508,-0.075012 -0.203502,-0.045848 -0.278568,-0.2912699 -0.133468,-0.4363705 0.135961,-0.1359582 0.378011,-0.087611 0.595704,0.118971 0.235859,0.2238263 0.03268,0.530829 -0.259728,0.3924115 z M 4.737988,2.1066719 C 4.6832664,2.0862288 4.6278769,2.0214608 4.575907,1.9171682 4.455593,1.6757335 4.4748942,1.529363 4.6391713,1.4374307 4.7708268,1.3637512 4.7712868,0.31348154 4.6401615,-0.62178783 4.5307424,-1.4017054 4.4898804,-1.8310548 4.4854428,-2.2474972 c -0.00363,-0.3409781 9.53e-5,-0.3641387 0.071018,-0.4399353 0.1442568,-0.1542122 0.3263977,-0.095027 0.4723838,0.15348 0.029291,0.049869 0.1080474,0.1740303 0.1750081,0.2759095 0.066955,0.1018804 0.2227531,0.3519495 0.3462087,0.5557092 0.3447463,0.5689963 0.5163206,0.81983588 0.6721254,0.98263196 0.1352144,0.14128276 0.2724122,0.23684103 0.3400434,0.23684103 0.060776,0 0.3927996,-0.33818113 0.5590018,-0.56936649 0.093388,-0.1299043 0.2352484,-0.3223741 0.3152418,-0.4277126 0.079994,-0.1053357 0.1815027,-0.2401448 0.225576,-0.2995761 0.4407033,-0.5942492 0.5054199,-0.6586178 0.6621709,-0.6586178 0.2046598,0 0.2713854,0.081015 0.4244949,0.515424 0.069351,0.1967532 0.080518,0.2931804 0.1042407,0.8995757 0.031465,0.80431223 0.0778,1.4274912 0.1377163,1.85236392 0.023947,0.16980021 0.043789,0.40313508 0.044102,0.51852068 3.966e-4,0.1819988 -0.00947,0.2198349 -0.075206,0.2855729 C 8.739259,1.8536228 8.4041844,1.564262 8.5141859,1.2487102 8.5359523,1.1862834 8.5313526,1.0473805 8.4986581,0.77855607 8.4183622,0.11845461 8.4145817,0.06481576 8.3895997,-0.76601774 8.371686,-1.3617737 8.3531603,-1.6074158 8.3202321,-1.6858328 L 8.2752947,-1.792825 8.1482195,-1.6240885 C 7.7512517,-1.0969776 7.6498295,-0.96006797 7.5380051,-0.8003496 7.3258827,-0.49737705 6.9152627,-0.09049804 6.7629058,-0.0323124 6.588146,0.0344267 6.3523312,0.01018494 6.2220119,-0.08792535 5.8880263,-0.33937355 5.6366077,-0.63216324 5.3582542,-1.0938325 5.2836203,-1.2176176 5.1699192,-1.4051687 5.1055836,-1.5106134 l -0.1169708,-0.1917177 0.018937,0.1852362 c 0.010425,0.1018803 0.054043,0.4353057 0.096966,0.74094566 C 5.214487,0.00704872 5.2344196,0.83861501 5.1586699,1.4832083 5.1125519,1.8756422 5.0897993,1.9807892 5.0386711,2.0377891 4.9623826,2.1228356 4.850172,2.1485524 4.7380876,2.1066696 Z M 10.532567,1.4808281 C 10.368877,1.4292572 10.286906,1.3806196 10.090005,1.2182261 9.8433357,1.0147904 9.7686563,0.88378774 9.7483178,0.61884857 c -0.035092,-0.45710356 -0.014761,-0.73413925 0.067271,-0.9164737 0.1134401,-0.25215667 0.2471252,-0.41596452 0.3997852,-0.48986544 0.268242,-0.12985412 0.454027,-0.0705645 0.733231,0.23398567 0.197699,0.21564456 0.392715,0.52037423 0.467217,0.73006323 0.02941,0.0827712 0.1143,0.1817322 0.278079,0.32416358 0.40855,0.35529085 0.598423,0.41909624 0.747909,0.25132581 0.159558,-0.17907582 0.421642,-0.0927766 0.421642,0.13883783 0,0.12237635 -0.158103,0.32354525 -0.320138,0.40733655 -0.19092,0.098733 -0.618755,0.00382 -0.881247,-0.1956681 -0.07496,-0.056932 -0.145776,-0.10352397 -0.157392,-0.10352397 -0.0116,0 -0.04651,0.0562558 -0.07752,0.12501117 -0.06394,0.1417195 -0.224008,0.2945946 -0.374269,0.3573774 -0.124231,0.051918 -0.354557,0.051644 -0.520356,-6.093e-4 z m 0.369089,-0.4701038 c 0.07392,-0.028366 0.140312,-0.17723672 0.140312,-0.31458117 0,-0.10922386 -0.107577,-0.32581453 -0.187223,-0.37694187 -0.04437,-0.0284904 -0.08479,-0.17011543 -0.07078,-0.24791594 0.01047,-0.05832248 -0.02464,-0.11798345 -0.153824,-0.26085594 -0.165127,-0.18266926 -0.168325,-0.18444622 -0.230833,-0.12823556 -0.126414,0.11367521 -0.188771,0.30622124 -0.193413,0.59723673 -0.0055,0.3449856 0.03888,0.45734927 0.237937,0.60182227 0.08272,0.0600866 0.171339,0.11702222 0.196812,0.12651448 0.06497,0.024209 0.201641,0.025745 0.261032,0.003 z M 23.340555,1.4260121 C 23.226994,1.3710268 23.20888,1.2783689 23.22793,0.8500419 23.24286,0.51429836 23.23743,0.42998872 23.19491,0.34052282 23.13217,0.20836608 23.13127,0.11454335 23.18971,-0.19457199 c 0.05149,-0.2717814 0.113275,-0.35003468 0.276352,-0.35003468 0.120542,0 0.233505,0.10802124 0.233505,0.22329248 0,0.16931427 0.02757,0.1857965 0.149945,0.0896483 0.333841,-0.26229712 0.587269,-0.25278585 0.855673,0.0321096 0.140002,0.1486057 0.202743,0.24302616 0.252812,0.38045437 0.0186,0.0509414 0.06355,0.16902802 0.09989,0.26241863 0.156479,0.40166709 0.179823,0.49581653 0.149844,0.60439129 -0.07007,0.2538898 -0.414199,0.2038505 -0.475702,-0.0691787 -0.03582,-0.15911136 -0.23523,-0.65776166 -0.302533,-0.75653893 -0.116717,-0.17130549 -0.145877,-0.17290599 -0.335561,-0.0184088 -0.09428,0.0767671 -0.212914,0.16412116 -0.263707,0.19412315 -0.09231,0.0545145 -0.09238,0.0547759 -0.113216,0.42826903 -0.02467,0.44238945 -0.05388,0.55298975 -0.158668,0.60071755 -0.09228,0.042037 -0.129972,0.041924 -0.217959,-7.498e-4 z M 12.981309,1.3068636 c -0.08322,-0.083262 -0.09096,-0.1060932 -0.06998,-0.2083908 0.03236,-0.1581387 0.01855,-0.47386854 -0.03209,-0.73233365 -0.02321,-0.11886024 -0.05112,-0.28623731 -0.06197,-0.37194945 -0.0277,-0.21987451 -0.03774,-0.22966212 -0.200926,-0.19543921 -0.344102,0.072185 -0.391229,0.0707994 -0.476065,-0.0140428 -0.08747,-0.0874789 -0.103183,-0.21839189 -0.03669,-0.3059566 0.05053,-0.0664962 0.230727,-0.13197311 0.444042,-0.16131168 0.121136,-0.0166626 0.161324,-0.0349807 0.1609,-0.073337 -3.97e-4,-0.0281308 -0.03545,-0.31509131 -0.07805,-0.63771101 -0.04258,-0.3226209 -0.08568,-0.8019201 -0.0958,-1.06511 -0.01771,-0.4603776 -0.0158,-0.481748 0.04944,-0.5634276 0.05237,-0.065635 0.0942,-0.084893 0.184203,-0.084893 0.198975,0 0.227848,0.062042 0.23937,0.5143142 0.0055,0.2142086 0.04471,0.6769744 0.0872,1.0283683 0.0425,0.3513919 0.07734,0.66207177 0.07734,0.69039765 0,0.0439645 0.03763,0.0515085 0.257037,0.0515085 0.228756,0 0.264422,0.007836 0.324159,0.0714559 0.08906,0.0947841 0.08555,0.22163617 -0.0088,0.31585854 -0.06122,0.0612033 -0.107227,0.0758667 -0.239264,0.076254 -0.240939,7.4894e-4 -0.251038,0.013278 -0.212836,0.26514709 0.01779,0.1170995 0.05316,0.35183502 0.07885,0.52163537 0.08568,0.56870188 0.05548,0.86915515 -0.09425,0.93736135 -0.122989,0.056046 -0.19591,0.041656 -0.295947,-0.058381 z m 8.178187,-0.013087 c -0.08121,-0.023032 -0.17025,-0.060574 -0.197863,-0.083408 -0.0804,-0.06648 -0.19412,-0.33990946 -0.194448,-0.46743477 -3.76e-4,-0.13937264 0.109451,-0.26873257 0.228118,-0.26873257 0.107695,0 0.235495,0.12025736 0.261158,0.24574384 0.01799,0.0878487 0.03982,0.11058221 0.128791,0.13374287 0.30408,0.0791891 0.846035,-0.10672586 1.003142,-0.34412416 0.23098,-0.34903726 0.120647,-0.91055769 -0.256941,-1.30766891 -0.205959,-0.2166078 -0.388835,-0.2993473 -0.531251,-0.2403561 -0.232295,0.0962181 -0.543153,0.59728254 -0.660734,1.06500723 -0.07963,0.31650219 -0.106487,0.37401538 -0.193656,0.41373298 -0.09253,0.042146 -0.183935,0.0202356 -0.279133,-0.0668739 -0.05929,-0.0542535 -0.07116,-0.0562697 -0.08711,-0.0147179 -0.01012,0.0264561 -0.05832,0.0646152 -0.107045,0.0847963 -0.130634,0.0541185 -0.279709,-0.004048 -0.351279,-0.13687731 -0.08506,-0.15801256 -0.193199,-0.24622266 -0.466445,-0.38061006 -0.33648,-0.16548761 -0.400805,-0.18590813 -0.636023,-0.20191147 -0.280139,-0.0190653 -0.315961,0.004865 -0.599882,0.40056073 -0.09258,0.1289737 -0.212754,0.26732819 -0.267145,0.30745714 -0.104986,0.0774508 -0.265007,0.0954675 -0.36634,0.0412376 -0.05407,-0.0289677 -0.05661,-0.0247732 -0.02883,0.048321 0.01676,0.044019 0.03044,0.1531255 0.03044,0.24245105 0,0.19982934 -0.08218,0.29666251 -0.251904,0.29666251 -0.13676,0 -0.206727,-0.0736087 -0.22199,-0.23353949 -0.0064,-0.0668205 -0.04796,-0.24354017 -0.09235,-0.39270489 -0.08675,-0.29152046 -0.248048,-1.06786806 -0.281812,-1.35660159 -0.01897,-0.16194043 -0.01414,-0.18333423 0.05722,-0.25469933 0.05233,-0.052359 0.1119,-0.077911 0.181591,-0.077911 0.15406,0 0.255543,0.1261936 0.375419,0.46682659 0.112635,0.3200732 0.286671,0.69722027 0.335721,0.72753465 0.03252,0.02007393 0.10652,-0.05888056 0.305608,-0.32596124 0.212638,-0.28525705 0.499895,-0.42399586 0.77121,-0.37247787 0.07333,0.0139255 0.184002,0.0176343 0.245938,0.008276 0.11897,-0.0180392 0.335046,0.0366556 0.335046,0.0848143 0,0.0156631 0.01699,0.0284813 0.03772,0.0284813 0.02079,0 0.181206,0.0720138 0.356555,0.16002083 0.313044,0.15712409 0.398304,0.2285108 0.595738,0.49879428 l 0.07934,0.10854425 0.06985,-0.26790794 c 0.04042,-0.15508879 0.14292,-0.40885314 0.243327,-0.602609 0.141526,-0.27310385 0.2116,-0.37002735 0.380767,-0.52664915 0.26792,-0.2480538 0.459837,-0.3212914 0.704461,-0.2688289 0.24242,0.052 0.437999,0.1709307 0.661163,0.4020873 0.208974,0.21646012 0.398217,0.54554314 0.471958,0.82071101 0.02275,0.0849051 0.0415,0.26883241 0.04171,0.4087388 7.49e-4,0.50749823 -0.219566,0.83849773 -0.725143,1.08954529 -0.273946,0.1360293 -0.282634,0.1380583 -0.617454,0.1441991 -0.21142,0.00392 -0.395329,-0.00953 -0.487259,-0.03566 z m 6.782794,-0.044599 c -0.0693,-0.031468 -0.177862,-0.1205255 -0.241267,-0.1979003 -0.14596,-0.17812249 -0.157745,-0.30874808 -0.03721,-0.41242773 0.127311,-0.10950569 0.219787,-0.0930209 0.375201,0.066892 0.134314,0.1381952 0.136146,0.13892787 0.348116,0.13892787 0.260945,0 0.349129,-0.0569276 0.406695,-0.26252307 0.04306,-0.15382314 0.02774,-0.49497936 -0.02886,-0.64328617 l -0.03351,-0.08767723 -0.177223,0.09684462 c -0.09791,0.05352458 -0.263488,0.18872298 -0.370074,0.30224699 -0.169181,0.18019199 -0.206613,0.20540325 -0.304984,0.20540325 -0.193756,0 -0.284355,-0.18570739 -0.18374,-0.37663669 0.048,-0.09104207 0.316924,-0.35516568 0.467544,-0.45915141 0.234279,-0.16174379 0.417954,-0.23505508 0.58892,-0.23505508 0.217188,0 0.30683,0.0632918 0.426578,0.30122077 0.08315,0.16526798 0.09257,0.21557706 0.103993,0.55984249 0.0099,0.29435962 0.0014,0.41102258 -0.03771,0.52598784 -0.07731,0.22677031 -0.192708,0.37038725 -0.367871,0.45767455 -0.138519,0.069025 -0.195172,0.078127 -0.482754,0.077519 C 28.143888,1.306564 28.039088,1.2931252 27.94232,1.249177 Z M 25.941341,1.1440442 c -0.06471,-0.06465 -0.07269,-0.1073227 -0.08873,-0.47080965 -0.01523,-0.34509183 -0.03269,-0.4461205 -0.127607,-0.73931348 -0.0605,-0.18678041 -0.109782,-0.3673847 -0.109553,-0.40134565 8.85e-4,-0.13989648 0.182893,-0.25379407 0.321351,-0.20115172 0.146299,0.0556222 0.325573,0.56551 0.385508,1.09646131 0.01922,0.16979949 0.04146,0.36110867 0.04964,0.42513282 C 26.40799,1.137645 26.12575,1.3284193 25.941372,1.1440445 Z M 14.465287,1.0974609 c -0.08819,-0.078779 -0.105418,-0.12654139 -0.186711,-0.51711922 -0.169103,-0.81248434 -0.217412,-1.07901951 -0.233091,-1.28598363 -0.01508,-0.19904621 -0.01193,-0.21108696 0.07799,-0.30100925 0.132183,-0.1321811 0.254179,-0.1229578 0.854802,0.0646238 0.306377,0.0956858 0.407732,0.14980743 0.527612,0.28173554 0.120877,0.13303082 0.132241,0.22744048 0.04126,0.34306548 -0.08486,0.10792762 -0.236854,0.10997463 -0.361761,0.004864 -0.09506,-0.0799354 -0.581797,-0.25380487 -0.615696,-0.21990601 -0.0298,0.0297954 0.206112,1.17985012 0.27307,1.33121584 0.04663,0.10535934 0.05207,0.150613 0.02645,0.21802525 -0.07021,0.1847514 -0.24768,0.2201032 -0.403948,0.080471 z m 1.715509,-0.03833 c -0.06195,-0.0684229 -0.06717,-0.15823754 -0.02917,-0.4959002 0.02594,-0.23066493 0.0083,-0.29810796 -0.281969,-1.06799773 -0.140091,-0.37172439 -0.16047,-0.45144946 -0.133529,-0.52232047 0.06807,-0.1791495 0.245993,-0.2186638 0.380199,-0.084457 0.04477,0.044768 0.08138,0.094766 0.08138,0.1111068 0,0.0163477 0.0204,0.0734901 0.04524,0.12699966 0.074,0.15913865 0.253668,0.64480475 0.32877,0.88871669 0.05214,0.16941956 0.0709,0.30998489 0.07362,0.55153114 0.0053,0.47610891 -0.03578,0.55570891 -0.286443,0.55570891 -0.08252,0 -0.138872,-0.020035 -0.178102,-0.063393 z m -0.453645,-2.475894 c -0.0677,-0.052132 -0.203015,-0.3151347 -0.223861,-0.4352581 -0.03306,-0.1902306 0.13619,-0.3546462 0.322806,-0.3136585 0.09973,0.021909 0.241824,0.1498949 0.281271,0.2533798 0.04144,0.1087776 -0.02135,0.4175177 -0.09755,0.4801016 -0.07699,0.063128 -0.211122,0.070446 -0.282617,0.015438 z m 9.548407,-0.4436131 c -0.194954,-0.1640443 -0.234902,-0.3663144 -0.123494,-0.6252943 0.0734,-0.1706429 0.188226,-0.2509504 0.358544,-0.2507857 0.133202,1.17e-4 0.297781,0.08704 0.350152,0.1848965 0.06088,0.1137184 0.02591,0.2550751 -0.08003,0.3239852 -0.08665,0.056365 -0.09427,0.074036 -0.0813,0.1897493 0.01126,0.1010085 6.67e-4,0.1412199 -0.05109,0.1929539 -0.09273,0.092687 -0.252128,0.086058 -0.372825,-0.015508 z"
       id="path1734" />
  </g>
</svg>
