<?xml version="1.0" encoding="UTF-8" standalone="no"?>
<!-- Created with Inkscape (http://www.inkscape.org/) -->

<svg
   width="35.182194mm"
   height="7.2448282mm"
   viewBox="0 0 35.182194 7.2448285"
   version="1.1"
   id="svg5"
   inkscape:version="1.1.1 (3bf5ae0d25, 2021-09-20)"
   sodipodi:docname="powered-by.svg"
   xmlns:inkscape="http://www.inkscape.org/namespaces/inkscape"
   xmlns:sodipodi="http://sodipodi.sourceforge.net/DTD/sodipodi-0.dtd"
   xmlns="http://www.w3.org/2000/svg"
   xmlns:svg="http://www.w3.org/2000/svg">
  <sodipodi:namedview
     id="namedview7"
     pagecolor="#ffffff"
     bordercolor="#666666"
     borderopacity="1.0"
     inkscape:pageshadow="2"
     inkscape:pageopacity="0.0"
     inkscape:pagecheckerboard="0"
     inkscape:document-units="mm"
     showgrid="false"
     fit-margin-top="0"
     fit-margin-left="0"
     fit-margin-right="0"
     fit-margin-bottom="0"
     inkscape:zoom="1.0104048"
     inkscape:cx="126.6819"
     inkscape:cy="11.381577"
     inkscape:window-width="1920"
     inkscape:window-height="991"
     inkscape:window-x="-9"
     inkscape:window-y="-9"
     inkscape:window-maximized="1"
     inkscape:current-layer="layer1" />
  <defs
     id="defs2" />
  <g
     inkscape:label="Capa 1"
     inkscape:groupmode="layer"
     id="layer1"
     transform="translate(-4.3117221,-41.747613)">
    <path
       style="fill:#414141;fill-opacity:1;stroke-width:0.0266511"
       d="m 26.563643,48.918949 c -0.426866,-0.116006 -1.060624,-0.417708 -1.183034,-0.563183 -0.07814,-0.09287 -0.122506,-0.232636 -0.122716,-0.386638 -2.02e-4,-0.153903 0.04477,-0.204158 0.173307,-0.193594 0.114904,0.0094 0.144055,0.04682 0.198568,0.254634 0.02936,0.111904 0.0323,0.11409 0.381791,0.28361 0.395957,0.192059 0.925167,0.352458 1.072002,0.324913 0.157857,-0.02961 0.183286,-0.0874 0.163342,-0.371115 -0.01654,-0.235013 -0.05769,-0.400964 -0.169575,-0.683319 -0.08337,-0.21041 -0.32582,-0.646969 -0.462973,-0.833625 l -0.13276,-0.180674 -0.130124,0.01726 c -0.282704,0.0375 -0.585103,-0.107306 -0.721802,-0.345645 -0.04304,-0.07505 -0.07838,-0.169433 -0.07851,-0.209743 -5.18e-4,-0.148048 0.188131,-0.237384 0.281371,-0.133255 0.02298,0.02565 0.0759,0.09607 0.117629,0.156496 0.04183,0.06057 0.111737,0.122363 0.155834,0.137735 l 0.07997,0.02788 -0.06705,-0.09776 c -0.269338,-0.392711 -0.257298,-0.754335 0.0298,-0.894958 0.09166,-0.0449 0.118562,-0.0471 0.225702,-0.01844 0.153962,0.04118 0.270923,0.130231 0.380999,0.290079 0.08032,0.116643 0.08729,0.144209 0.09582,0.378978 0.0077,0.21078 5.17e-4,0.269745 -0.04249,0.352057 l -0.05172,0.09887 0.141675,0.196456 c 0.174829,0.242421 0.440702,0.731634 0.544708,1.002272 0.123008,0.320089 0.166122,0.52733 0.169663,0.815565 0.0029,0.22989 -0.0052,0.28207 -0.05723,0.379747 -0.146382,0.274021 -0.469073,0.337565 -0.99223,0.19539 z m -0.06516,-3.10857 c -0.02136,-0.113786 -0.164579,-0.272378 -0.207362,-0.229596 -0.03346,0.03346 0.05468,0.250289 0.152599,0.37544 l 0.05328,0.06812 0.009,-0.06304 c 0.0046,-0.03467 0.0017,-0.102589 -0.0075,-0.150923 z M 4.9349283,47.00017 C 4.673664,46.95724 4.5095389,46.741868 4.3472213,46.228949 c -0.1065206,-0.336607 0.042214,-1.50856 0.2399925,-1.891023 0.023449,-0.04533 0.042614,-0.09533 0.042614,-0.111138 0,-0.06138 0.1929209,-0.430799 0.3360057,-0.643408 0.2076096,-0.308486 0.3156782,-0.437077 0.4695402,-0.558699 0.1494938,-0.118167 0.2571869,-0.134318 0.3404489,-0.05106 0.070275,0.07028 0.066932,0.169488 -0.011388,0.337682 -0.066198,0.142175 -0.1404572,0.204368 -0.2270706,0.190174 -0.100923,-0.01654 -0.4374447,0.487161 -0.575319,0.861121 -0.1809637,0.49083 -0.2234418,0.677963 -0.2806057,1.236152 -0.03118,0.30446 -0.021064,0.399729 0.072475,0.68203 0.092945,0.280522 0.1517221,0.34778 0.3171989,0.362958 0.1271354,0.01166 0.1377595,0.0071 0.3063358,-0.132923 0.2384079,-0.197956 0.2789352,-0.217592 0.3706736,-0.179591 0.081766,0.03387 0.1279631,0.116488 0.1139181,0.203734 -0.00858,0.05336 -0.3979552,0.390279 -0.5308803,0.459368 -0.062242,0.03235 -0.2206894,0.03469 -0.3962406,0.0058 z M 27.401945,46.77261 c -0.07536,-0.07535 -0.08075,-0.120789 -0.02676,-0.225201 0.05404,-0.104489 0.09589,-0.473509 0.07685,-0.677455 -0.0141,-0.151032 -0.0093,-0.177472 0.04086,-0.2277 0.06662,-0.06662 0.195039,-0.07472 0.253755,-0.01599 0.06278,0.06278 0.0788,0.206514 0.06065,0.544075 -0.02194,0.408783 -0.03634,0.468821 -0.137885,0.576488 -0.101742,0.107883 -0.178039,0.115238 -0.267487,0.02579 z M 15.995472,46.653066 c -0.256453,-0.04021 -0.49346,-0.2134 -0.685424,-0.500872 -0.163318,-0.244576 -0.191635,-0.343684 -0.192389,-0.673371 -5.19e-4,-0.274682 0.0013,-0.283115 0.09957,-0.457889 0.119839,-0.212919 0.269092,-0.347624 0.470666,-0.424793 0.303249,-0.116091 0.584736,-0.100286 0.734822,0.04126 0.07953,0.07501 0.09339,0.105576 0.09289,0.204942 -0.0018,0.352393 -0.371022,0.654769 -0.835091,0.683841 l -0.209379,0.01312 0.0175,0.10945 c 0.0096,0.0602 0.04354,0.161594 0.07537,0.225325 0.0658,0.13176 0.27686,0.348527 0.38597,0.396413 0.104222,0.04574 0.341367,0.0419 0.436049,-0.0071 0.107358,-0.05552 0.207215,-0.03979 0.268156,0.04223 0.04096,0.05513 0.04497,0.08159 0.02218,0.14658 -0.05666,0.161585 -0.360192,0.251114 -0.680895,0.200833 z m -0.06079,-1.56407 c 0.184396,-0.09204 0.259529,-0.223147 0.127875,-0.223147 -0.08847,0 -0.337018,0.105594 -0.4119,0.174991 -0.0576,0.05338 -0.0658,0.07448 -0.04072,0.104704 0.03978,0.04792 0.15595,0.0277 0.324739,-0.05655 z m 13.280742,1.530489 c -0.122828,-0.04267 -0.277087,-0.205409 -0.310084,-0.32712 -0.01602,-0.05901 -0.0307,-0.180399 -0.03274,-0.269756 -0.0041,-0.180432 0.026,-0.236867 0.15625,-0.293641 0.044,-0.01917 0.06479,-0.03532 0.04626,-0.03589 -0.05398,-0.0017 -0.139318,-0.165876 -0.139423,-0.268286 -2.03e-4,-0.196182 0.142175,-0.286518 0.381784,-0.242225 0.285834,0.05284 0.515414,0.217439 0.625624,0.448557 0.04939,0.103563 0.143091,0.159723 0.43852,0.262817 0.242082,0.08448 0.328263,0.117614 0.586562,0.225552 0.223462,0.09338 0.2652,0.149147 0.216114,0.288726 -0.03697,0.10516 -0.145053,0.131242 -0.29735,0.07176 -0.06916,-0.02701 -0.275671,-0.105218 -0.458893,-0.173789 -0.183227,-0.06857 -0.358914,-0.138639 -0.390414,-0.155705 -0.05241,-0.02839 -0.06098,-0.02175 -0.100982,0.07822 -0.133746,0.334253 -0.426835,0.493059 -0.721231,0.390784 z m 0.353128,-0.474395 c 0.08553,-0.125273 0.07601,-0.156155 -0.06663,-0.21607 -0.06963,-0.02925 -0.158426,-0.07055 -0.197332,-0.09178 -0.03889,-0.02123 -0.07521,-0.0386 -0.08067,-0.0386 -0.01788,0 0.02142,0.388539 0.04278,0.423105 0.01143,0.01853 0.04661,0.04371 0.07807,0.05595 0.07154,0.02781 0.143324,-0.01473 0.223805,-0.132597 z M 6.8687227,46.49906 c -0.1771224,-0.08956 -0.276588,-0.217311 -0.315305,-0.40498 -0.032684,-0.158436 -0.031517,-0.175949 0.01595,-0.239843 0.1112951,-0.149768 0.3058482,-0.06824 0.3372762,0.141341 0.015016,0.100086 0.031267,0.124439 0.1070732,0.160412 0.2594615,0.123122 0.6163727,-0.02686 0.7507732,-0.315489 0.1113735,-0.23918 0.07185,-0.40881 -0.1204304,-0.516878 -0.1372537,-0.07714 -0.2915824,-0.08055 -0.4520143,-0.01 -0.068013,0.02991 -0.1436112,0.06056 -0.1679947,0.06809 -0.035249,0.01089 -0.041338,0.03601 -0.029723,0.122618 0.01844,0.137468 -0.041651,0.214332 -0.1675623,0.214332 -0.063889,0 -0.1046969,-0.0213 -0.1547147,-0.08074 -0.1026405,-0.12198 -0.1148752,-0.239945 -0.039178,-0.377682 0.051971,-0.09456 0.097852,-0.131851 0.2625685,-0.213422 0.1097785,-0.05436 0.2650771,-0.112703 0.345105,-0.129642 0.3751405,-0.0794 0.7326148,0.08781 0.8943201,0.418319 0.063853,0.130511 0.071317,0.170842 0.057961,0.313125 -0.031946,0.34032 -0.2393987,0.657617 -0.520536,0.796161 -0.1579441,0.07784 -0.2034311,0.08748 -0.4432576,0.09403 -0.2130069,0.0058 -0.2861382,-0.0023 -0.3603195,-0.03977 z m 29.2859363,0.02005 c -0.174527,-0.0528 -0.474697,-0.239155 -0.62931,-0.390707 -0.3762,-0.368748 -0.438316,-0.779306 -0.212179,-1.402318 0.182183,-0.501892 0.548934,-0.87297 0.800407,-0.809853 0.08649,0.02171 0.223108,0.13703 0.268375,0.226549 0.08797,0.173947 0.06961,0.486717 -0.04133,0.704167 -0.08224,0.16121 -0.26711,0.330708 -0.399603,0.366385 -0.09974,0.02686 -0.131894,0.02392 -0.240532,-0.02197 -0.147781,-0.06244 -0.155442,-0.05403 -0.155442,0.170572 0,0.162383 0.04295,0.28518 0.148001,0.422867 0.147717,0.193666 0.53408,0.411745 0.731487,0.412873 0.131384,7.55e-4 0.252774,-0.08275 0.349988,-0.240736 0.09273,-0.150705 0.174069,-0.197171 0.276786,-0.158116 0.100424,0.03818 0.133636,0.150653 0.07861,0.266195 -0.09043,0.189876 -0.224994,0.341492 -0.364975,0.41125 -0.113379,0.0565 -0.173186,0.0682 -0.338977,0.06631 -0.110727,-0.0013 -0.232813,-0.01182 -0.271312,-0.02346 z m -0.106977,-1.917807 c 0.03651,-0.121922 0.03854,-0.240991 0.0046,-0.294094 -0.02037,-0.03222 -0.03616,-0.02649 -0.09157,0.03328 -0.0368,0.03972 -0.102862,0.124449 -0.146777,0.188278 l -0.07985,0.116052 0.05555,0.112223 0.05555,0.112223 0.08591,-0.08327 c 0.04725,-0.04579 0.09958,-0.12891 0.116299,-0.184695 z m 3.121916,1.81805 c -0.15481,-0.05692 -0.176303,-0.21276 -0.05108,-0.370334 0.100186,-0.126069 0.125179,-0.142851 0.213519,-0.143372 0.07146,-4.15e-4 0.147416,0.06288 0.159419,0.132847 0.01706,0.09962 -0.05798,0.338445 -0.1193,0.37937 -0.03355,0.0224 -0.143486,0.02321 -0.202555,0.0015 z M 24.095145,46.36054 c -0.06043,-0.02744 -0.144003,-0.09266 -0.185708,-0.144929 -0.07252,-0.09088 -0.17048,-0.369357 -0.1707,-0.485242 -2e-4,-0.08085 0.09681,-0.171594 0.18336,-0.171594 0.100462,0 0.148661,0.0614 0.203616,0.259393 0.02536,0.09136 0.06338,0.180452 0.08449,0.197975 0.02111,0.01752 0.09839,0.03272 0.171724,0.03377 0.122963,0.0017 0.141329,-0.0067 0.236098,-0.10822 0.166594,-0.178532 0.234875,-0.49293 0.141416,-0.651141 -0.09042,-0.153073 -0.159036,-0.131812 -0.184089,0.05704 -0.03031,0.228532 -0.155755,0.322473 -0.297771,0.223 -0.134411,-0.09414 -0.04129,-0.556863 0.140905,-0.70018 0.16997,-0.133698 0.48451,-0.03025 0.644713,0.212032 0.06989,0.1057 0.07461,0.130659 0.07461,0.394527 0,0.259814 -0.0064,0.295143 -0.08247,0.454922 -0.09008,0.189206 -0.253075,0.369543 -0.394798,0.436794 -0.126944,0.06024 -0.42424,0.05596 -0.565398,-0.0081 z m -6.504616,-0.06423 c -0.281046,-0.10346 -0.461849,-0.325085 -0.517011,-0.633748 -0.03679,-0.205878 -0.0082,-0.434203 0.07427,-0.593746 0.248189,-0.479943 0.810921,-0.888464 0.994719,-0.722127 0.03956,0.0358 0.05271,0.08207 0.05271,0.185501 0,0.183078 -0.07345,0.259388 -0.24021,0.249549 -0.107573,-0.0064 -0.122093,0.0019 -0.253906,0.143471 -0.07689,0.08261 -0.1727,0.217428 -0.212898,0.299593 -0.06225,0.127238 -0.07101,0.172314 -0.05907,0.303985 0.03232,0.356416 0.203731,0.470717 0.622527,0.415111 0.123211,-0.01636 0.140457,-0.01213 0.179893,0.04418 0.05226,0.07461 0.05468,0.15354 0.0066,0.216804 -0.08401,0.110648 -0.453695,0.162836 -0.647669,0.09143 z M 8.5741834,46.2517 c -0.04547,-0.04547 -0.053306,-0.08884 -0.053306,-0.295092 0,-0.132984 -0.018649,-0.455967 -0.04143,-0.71774 -0.022799,-0.261772 -0.03778,-0.539347 -0.033316,-0.616832 0.00698,-0.120944 0.018231,-0.146538 0.079597,-0.180853 0.052929,-0.0296 0.090312,-0.03329 0.1440704,-0.0142 0.078697,0.02794 0.1305384,0.134748 0.3294226,0.678722 0.1701585,0.465403 0.1811946,0.478452 0.3219217,0.380598 0.1002329,-0.0697 0.1442596,-0.130722 0.3061959,-0.424432 0.1655488,-0.300259 0.2070286,-0.34812 0.3215405,-0.371023 0.09733,-0.01947 0.2038875,0.05694 0.2754485,0.197505 0.06406,0.125833 0.174879,0.456601 0.215684,0.64377 0.01759,0.08062 0.0562,0.22865 0.08583,0.328957 0.05373,0.181903 0.05373,0.182562 10e-4,0.253186 -0.05828,0.07814 -0.112221,0.09699 -0.208408,0.07285 -0.08748,-0.02195 -0.102103,-0.05678 -0.22595,-0.537998 -0.05969,-0.231953 -0.1132168,-0.42641 -0.118934,-0.432126 -0.00569,-0.0057 -0.044089,0.05219 -0.08527,0.128682 -0.1399227,0.259891 -0.2597988,0.388949 -0.4467878,0.481004 -0.1492784,0.07349 -0.1922673,0.08336 -0.2992389,0.0687 -0.068706,-0.0094 -0.1526844,-0.03531 -0.1866158,-0.05755 -0.059205,-0.03879 -0.061893,-0.03744 -0.066579,0.03348 -0.00267,0.04065 -0.0029,0.103887 -5.183e-4,0.140532 0.015433,0.231832 -0.1762849,0.37806 -0.3144855,0.239859 z M 14.096862,46.245 c -0.134181,-0.09289 -0.154772,-0.222647 -0.05278,-0.332583 0.05386,-0.05805 0.05435,-0.0684 0.02171,-0.453067 -0.01839,-0.216513 -0.04123,-0.591543 -0.05076,-0.833401 l -0.01735,-0.439743 -0.286984,-0.02963 c -0.310216,-0.03202 -0.376756,-0.06402 -0.405534,-0.195044 -0.03234,-0.147238 0.08924,-0.321679 0.224194,-0.321679 0.05375,0 0.09728,0.02379 0.139918,0.07646 0.04934,0.06095 0.09029,0.07962 0.201815,0.09202 l 0.139918,0.01556 0.0013,-0.35187 c 0.0018,-0.484401 0.107797,-1.445159 0.165845,-1.503207 0.06473,-0.06473 0.204476,-0.05562 0.263419,0.01717 0.05874,0.07255 0.0598,0.140775 0.0079,0.50786 -0.03493,0.246895 -0.100487,1.279628 -0.08238,1.297731 0.0038,0.0038 0.150114,-0.01105 0.325133,-0.03301 0.460978,-0.05785 0.63359,-0.0096 0.63359,0.177131 0,0.136361 -0.05459,0.163602 -0.346648,0.172959 -0.144037,0.0046 -0.339839,0.01795 -0.435116,0.02964 l -0.173232,0.02125 0.0067,0.399766 c 0.0037,0.219871 0.02168,0.555674 0.03998,0.746229 0.01828,0.190555 0.03326,0.462452 0.03326,0.604214 0,0.236121 -0.0054,0.263517 -0.06461,0.326476 -0.07997,0.08507 -0.174892,0.08794 -0.289267,0.0088 z m 8.96217,0.0021 c -0.02932,-0.01698 -0.06055,-0.04177 -0.06941,-0.05509 -0.0088,-0.01332 -0.01787,-0.170253 -0.02,-0.348742 -0.0074,-0.617136 -0.05733,-1.84449 -0.08417,-2.07017 -0.01481,-0.124594 -0.04491,-0.412426 -0.06687,-0.639626 -0.05827,-0.60285 -0.08939,-0.84266 -0.137367,-1.058351 -0.0396,-0.178031 -0.03948,-0.197178 0.0016,-0.259848 0.03477,-0.05307 0.06648,-0.06766 0.147056,-0.06766 0.05846,0 0.116919,0.0171 0.135658,0.03968 0.07079,0.0853 0.171928,0.477144 0.168605,0.653248 -0.0018,0.09528 0.02013,0.407095 0.04869,0.692928 0.07981,0.798236 0.123437,1.489744 0.143775,2.278665 0.01751,0.678939 0.01574,0.722901 -0.03122,0.778407 -0.06144,0.07263 -0.165547,0.09754 -0.236323,0.05655 z m 11.223026,-0.121286 c -0.168304,-0.0649 -0.188039,-0.08078 -0.236457,-0.190238 -0.09716,-0.219644 -0.02002,-0.517236 0.179396,-0.69235 0.117054,-0.102776 0.273303,-0.184494 0.40684,-0.212776 l 0.100355,-0.02125 -0.0086,-0.238263 c -0.0046,-0.131044 -0.02589,-0.394171 -0.04696,-0.584726 -0.0714,-0.645902 -0.113652,-1.171224 -0.129028,-1.604199 -0.01509,-0.424149 -0.01428,-0.432264 0.04394,-0.473056 0.127774,-0.0895 0.239302,-0.02414 0.318321,0.186544 0.03146,0.08379 0.03778,0.185725 0.02827,0.453068 -0.01242,0.349011 0.0041,0.580586 0.100157,1.424318 0.06184,0.541794 0.06777,1.123403 0.01451,1.422333 -0.02769,0.155365 -0.06191,0.246661 -0.132052,0.352299 -0.160956,0.242428 -0.341577,0.292854 -0.638643,0.178301 z m 0.338101,-0.385715 c 0.04922,-0.06591 0.111946,-0.310265 0.08626,-0.335953 -0.02415,-0.02412 -0.178956,0.05693 -0.256082,0.134058 -0.104522,0.10452 -0.106594,0.218875 -0.0046,0.255949 0.09436,0.03431 0.112741,0.02862 0.174463,-0.05405 z m -13.42635,0.231529 c -0.120786,-0.04301 -0.162888,-0.09032 -0.200332,-0.225104 -0.03601,-0.129607 -0.03318,-0.19312 0.01144,-0.256805 0.02474,-0.03534 0.02954,-0.06757 0.01372,-0.09255 -0.04847,-0.07659 -0.02769,-0.314768 0.03888,-0.445634 0.195863,-0.385085 0.472119,-0.546175 0.699194,-0.407713 0.189204,0.115372 0.301966,0.368015 0.302593,0.677962 5.19e-4,0.224691 -0.11702,0.461817 -0.301218,0.608013 -0.232357,0.184417 -0.356818,0.2157 -0.564272,0.141828 z m 0.328785,-0.428975 c 0.161798,-0.138493 0.202671,-0.250287 0.162148,-0.443489 -0.01766,-0.0842 -0.04718,-0.17369 -0.06559,-0.198877 -0.04286,-0.05862 -0.08435,-0.02684 -0.199802,0.153077 -0.07774,0.121142 -0.08121,0.136534 -0.05022,0.222235 0.02812,0.07775 0.02679,0.102005 -0.0085,0.155863 -0.04602,0.07024 -0.03433,0.207226 0.01769,0.207226 0.01764,0 0.08256,-0.04322 0.14427,-0.09604 z m -2.834337,0.197101 c -0.08421,-0.04829 -0.115464,-0.103792 -0.146968,-0.260972 -0.01616,-0.08062 -0.0412,-0.18256 -0.05566,-0.226534 -0.01445,-0.04397 -0.03752,-0.229866 -0.05126,-0.413092 -0.01374,-0.183225 -0.03264,-0.394278 -0.04202,-0.469006 -0.01502,-0.119719 -0.0097,-0.142685 0.04452,-0.19322 0.137695,-0.128283 0.29146,-0.03095 0.354489,0.224377 0.02197,0.08899 0.07006,0.229907 0.106873,0.31315 0.0541,0.122336 0.07898,0.151351 0.129797,0.151351 0.0982,0 0.338565,-0.131884 0.450403,-0.247126 0.07981,-0.08223 0.122434,-0.105175 0.199486,-0.107359 0.08211,-0.0023 0.112263,0.01373 0.186048,0.09909 0.04843,0.05603 0.105278,0.157397 0.126329,0.22527 0.02106,0.06787 0.0647,0.209351 0.09699,0.314395 0.04999,0.16261 0.06921,0.19361 0.129377,0.208622 0.252544,0.06301 0.202246,0.360003 -0.06095,0.359902 -0.05953,-2.3e-5 -0.150217,-0.02101 -0.201519,-0.04664 -0.07742,-0.03867 -0.103888,-0.07606 -0.155652,-0.21983 -0.0343,-0.09528 -0.07978,-0.238692 -0.101047,-0.318698 -0.02127,-0.08001 -0.04247,-0.149258 -0.0471,-0.153893 -0.0046,-0.0046 -0.08509,0.03775 -0.178787,0.09419 -0.198314,0.119455 -0.381062,0.175983 -0.517452,0.160061 l -0.09666,-0.01128 0.01748,0.09482 c 0.0096,0.05216 0.0405,0.119583 0.06863,0.149844 0.106853,0.114952 0.03359,0.305393 -0.116937,0.30396 -0.0468,-4.41e-4 -0.109091,-0.01457 -0.138408,-0.03138 z m 8.84913,-0.819563 c -0.07129,-0.07877 -0.08434,-0.275087 -0.02676,-0.402748 0.0698,-0.154794 0.439327,-0.456504 0.720471,-0.588254 0.279235,-0.130852 0.555405,-0.168599 0.628735,-0.08593 0.09164,0.103321 0.06204,0.267196 -0.05259,0.291123 -0.239708,0.05003 -0.319835,0.07538 -0.456872,0.144557 -0.08402,0.04241 -0.232564,0.14524 -0.330103,0.228508 -0.159372,0.136051 -0.177348,0.161375 -0.177348,0.249854 0,0.183502 -0.193489,0.286669 -0.30551,0.162892 z M 39.17102,44.194873 c -0.08828,-0.03266 -0.132841,-0.100268 -0.133834,-0.203069 -0.0017,-0.18307 0.223114,-0.287861 0.348555,-0.162421 0.04637,0.0464 0.05317,0.07542 0.03871,0.165873 -0.02757,0.172518 -0.123166,0.247803 -0.253429,0.199617 z"
       id="path3308" />
  </g>
</svg>
