<?xml version="1.0" encoding="UTF-8" standalone="no"?>
<!-- Created with Inkscape (http://www.inkscape.org/) -->

<svg
   width="76.553001mm"
   height="76.905998mm"
   viewBox="0 0 76.553002 76.905997"
   version="1.1"
   id="svg5"
   sodipodi:docname="discord.svg"
   inkscape:version="1.1.1 (3bf5ae0d25, 2021-09-20)"
   xmlns:inkscape="http://www.inkscape.org/namespaces/inkscape"
   xmlns:sodipodi="http://sodipodi.sourceforge.net/DTD/sodipodi-0.dtd"
   xmlns="http://www.w3.org/2000/svg"
   xmlns:svg="http://www.w3.org/2000/svg">
  <sodipodi:namedview
     id="namedview7"
     pagecolor="#ffffff"
     bordercolor="#666666"
     borderopacity="1.0"
     inkscape:pageshadow="2"
     inkscape:pageopacity="0.0"
     inkscape:pagecheckerboard="0"
     inkscape:document-units="mm"
     showgrid="false"
     inkscape:zoom="0.88388348"
     inkscape:cx="-28.284271"
     inkscape:cy="5.0911688"
     inkscape:window-width="1920"
     inkscape:window-height="991"
     inkscape:window-x="-9"
     inkscape:window-y="-9"
     inkscape:window-maximized="1"
     inkscape:current-layer="layer1" />
  <defs
     id="defs2" />
  <g
     inkscape:label="Capa 1"
     inkscape:groupmode="layer"
     id="layer1">
    <path
       style="fill:#414141;stroke-width:0.352778;fill-opacity:1"
       d="m 33.020399,74.291247 c -1.144546,-0.482568 -2.247858,-1.044261 -2.451806,-1.248209 -0.203948,-0.203948 -0.783564,-0.370815 -1.288037,-0.370815 -1.045911,0 -1.763889,-0.579558 -1.763889,-1.423829 0,-0.405257 -0.634487,-0.753565 -2.130253,-1.169423 C 23.951929,69.680148 22.770906,69.048563 21.770442,68.145226 20.953296,67.407413 19.325637,66.076598 18.153421,65.187859 15.55005,63.21406 13.8746,61.390118 11.81182,58.284216 10.94649,56.981302 9.6829385,55.146575 9.0039284,54.20705 6.8857271,51.276166 6.4006471,48.981039 6.4111253,41.93938 c 0.00527,-3.539088 0.209405,-7.251333 0.4827228,-8.778269 0.2604787,-1.455208 0.7304133,-4.074583 1.0442988,-5.820833 0.6846683,-3.80904 1.7839609,-6.447493 4.2730681,-10.255953 2.144841,-3.281713 4.279387,-5.380435 6.740925,-6.627791 0.951324,-0.4820721 1.951437,-1.1436966 2.222475,-1.4702764 0.82504,-0.9941126 4.410117,-3.2847129 6.402179,-4.0905215 6.077827,-2.4585393 11.533894,-2.2512348 17.42129,0.6619257 l 2.628099,1.300419 0.54858,-0.7832072 c 0.30172,-0.4307639 0.854036,-0.7832069 1.227371,-0.7832069 0.900528,0 7.059933,5.7099333 11.65031,10.8001543 5.741342,6.366513 9.554626,12.18949 9.489454,14.490623 -0.01545,0.545142 0.374093,2.102417 0.865629,3.460612 1.527679,4.221219 0.965616,9.525384 -1.371833,12.945868 -0.521787,0.763556 -0.891248,1.800409 -0.891248,2.501205 0,1.797477 -1.296105,6.507657 -2.191473,7.964036 -1.5852,2.578443 -6.97224,8.105772 -9.637286,9.888263 -2.659031,1.778465 -6.83194,3.369571 -11.150537,4.251632 -1.151297,0.235147 -2.265651,0.712135 -2.645833,1.132522 -2.112634,2.336049 -6.957021,3.058012 -10.498918,1.564665 z m 20.615879,-8.681748 c 0.768382,-0.392 1.397057,-0.792103 1.397057,-0.889117 0,-0.158055 -2.784786,1.142277 -3.145603,1.468815 -0.390479,0.353381 0.494979,0.05982 1.748546,-0.579698 z m 9.927273,-9.341443 c 0.802728,-1.404927 -2.375126,1.792302 -3.506399,3.527778 l -1.149791,1.763889 2.12653,-2.293056 c 1.169593,-1.261181 2.307939,-2.610556 2.52966,-2.998611 z m -15.286338,3.082138 c 0.545568,-0.568618 1.964267,-1.319773 3.404733,-1.802698 2.926115,-0.980994 3.351389,-1.279655 3.351389,-2.35361 0,-0.59921 0.299822,-0.914678 1.146528,-1.206369 1.196509,-0.412193 2.734028,-2.392595 2.734028,-3.521562 0,-0.350841 -0.253651,-0.848409 -0.563669,-1.105701 -0.692354,-0.574601 -0.509361,-2.025639 0.548231,-4.347199 1.250597,-2.745229 1.531348,-5.177801 1.103404,-9.560447 -0.432858,-4.433012 -1.376013,-8.392923 -2.709905,-11.377786 -0.498016,-1.114416 -1.218879,-2.85306 -1.601918,-3.863653 -0.383039,-1.010593 -1.144711,-2.214641 -1.692603,-2.675661 -0.547892,-0.461021 -1.094782,-1.148924 -1.215309,-1.528673 -0.601662,-1.895666 -9.237881,-4.285276 -10.357432,-2.865863 -0.191294,0.242535 -0.450476,1.114043 -0.575956,1.936684 -0.180661,1.184412 -0.09415,1.62971 0.415685,2.13954 0.623256,0.623255 0.513447,0.640145 -3.435988,0.52852 -4.713662,-0.133224 -5.085664,-0.219031 -4.803519,-1.107991 0.121807,-0.383782 -0.08581,-1.023974 -0.504843,-1.556687 -0.391454,-0.497654 -0.711735,-1.053618 -0.711735,-1.235477 0,-0.778092 -1.416604,-1.42857 -3.98646,-1.830506 -1.75348,-0.274251 -2.905287,-0.308745 -3.175,-0.09508 -0.232794,0.184415 -1.029183,0.530551 -1.769752,0.769191 -1.747872,0.563233 -2.342328,1.736366 -1.517642,2.994997 0.323038,0.493018 0.804822,0.896396 1.070632,0.896396 0.26581,0 0.572604,0.232747 0.681765,0.517215 0.155581,0.405437 -0.01979,0.473563 -0.811465,0.315228 -0.816557,-0.163311 -1.123354,-0.0289 -1.60225,0.701993 -0.325771,0.497189 -0.482042,1.082399 -0.34727,1.300465 0.134773,0.218066 -0.09384,0.633845 -0.508025,0.923953 -0.535187,0.37486 -0.732845,0.851519 -0.683173,1.647501 0.03914,0.627193 -0.837573,3.681333 -1.992424,6.940867 l -2.062317,5.820833 0.01473,4.586111 c 0.01047,3.258129 0.232554,5.640684 0.766968,8.228017 0.89164,4.316814 0.866383,3.942817 0.266266,3.942817 -0.76658,0 -1.375742,0.97337 -1.15622,1.847501 0.308897,1.230019 2.441203,2.184255 11.34358,5.076394 1.552222,0.504278 2.973034,1.057695 3.157361,1.229819 0.49047,0.458001 1.815867,0.381839 2.227818,-0.12802 0.195962,-0.242534 0.432919,-1.075972 0.526572,-1.852083 0.09365,-0.776111 0.373594,-2.715348 0.622092,-4.30942 0.575911,-3.694363 0.466363,-3.83794 -3.100119,-4.063171 -2.921319,-0.184482 -8.545519,-1.842763 -8.55382,-2.522065 -0.0026,-0.216828 -0.08498,-0.711733 -0.182967,-1.099789 -0.104784,-0.414993 0.271725,-1.482961 0.914263,-2.593297 l 1.092413,-1.887742 0.766249,0.680318 c 0.733713,0.651428 4.580509,2.578766 6.057915,3.035162 1.574524,0.486396 6.814902,0.856051 8.466667,0.597235 1.298089,-0.203397 1.947648,-0.147796 2.459747,0.210552 0.831589,0.581921 3.865806,0.587692 6.359698,0.0121 1.464003,-0.33789 1.853854,-0.600773 2.293056,-1.546242 0.407299,-0.876794 0.813526,-1.186639 1.763889,-1.345378 1.942489,-0.324457 2.811,-0.791426 3.155057,-1.696368 0.175271,-0.460992 0.568957,-0.934212 0.874864,-1.051598 0.808849,-0.310385 0.732766,1.563084 -0.132348,3.258844 -0.378696,0.742308 -0.876882,2.097628 -1.10708,3.011823 -0.466072,1.850951 -1.311719,2.420983 -3.500483,2.359596 -0.687391,-0.01926 -1.774529,0.290827 -2.441498,0.696437 -0.736575,0.447939 -1.998056,0.782041 -3.256425,0.86246 -1.129749,0.0722 -2.372638,0.301759 -2.761974,0.510127 -0.963218,0.515497 -0.899499,1.915989 0.123789,2.720908 0.628936,0.494722 0.894948,1.160586 1.091216,2.731456 0.200286,1.603037 0.487444,2.305167 1.25785,3.075574 1.241873,1.241873 1.591307,1.244843 2.763132,0.02349 z m -18.255936,-4.00818 c -0.01934,-0.315295 -0.134384,-1.069357 -0.255651,-1.675694 -0.17458,-0.872899 -0.10113,-1.102431 0.352778,-1.102431 0.369729,0 0.560778,0.281817 0.538099,0.79375 -0.046,1.038402 -0.58917,2.735192 -0.635226,1.984375 z m 7.902335,-13.361458 c 0.119916,-0.194028 0.962724,-0.333996 1.872905,-0.311041 1.485367,0.03747 1.546472,0.06933 0.59654,0.311041 -1.578818,0.40174 -2.717733,0.40174 -2.469445,0 z M 19.074796,38.717361 c 0.04117,-1.318052 0.451755,-2.035256 0.978696,-1.709589 0.391026,0.241667 0.373961,0.486802 -0.09734,1.398192 -0.676679,1.308555 -0.915138,1.392806 -0.881357,0.311397 z M 30.27812,36.584904 c -1.455457,-1.108057 -1.531711,-1.257667 -1.633418,-3.204765 -0.05929,-1.135012 0.06624,-2.250815 0.282543,-2.511439 0.596535,-0.718782 3.435306,-1.954468 3.995869,-1.73936 0.27375,0.105048 0.994913,0.958285 1.602585,1.896082 0.868571,1.340433 1.104858,2.087698 1.104858,3.494145 0,3.304057 -2.472285,4.258031 -5.352437,2.065337 z m 16.675489,-0.123461 c -0.866923,-0.607216 -2.15083,-2.961685 -2.15083,-3.944258 0,-0.369619 0.329022,-1.090318 0.73116,-1.601554 0.587876,-0.747365 1.029194,-0.92952 2.252007,-0.92952 1.326839,0 1.683586,0.180136 2.796617,1.412128 1.756453,1.944182 1.638311,3.070944 -0.480148,4.579422 -1.39053,0.990141 -2.239627,1.120598 -3.148806,0.483782 z m 6.668615,-11.611429 c 0,-0.302493 0.15875,-0.451874 0.352778,-0.331958 0.194027,0.119916 0.352777,0.367409 0.352777,0.549986 0,0.182577 -0.15875,0.331958 -0.352777,0.331958 -0.194028,0 -0.352778,-0.247494 -0.352778,-0.549986 z M 30.95027,21.266189 c -0.536867,-0.08115 -0.884685,-0.295487 -0.772931,-0.476309 0.381693,-0.617591 3.689329,-0.242898 3.689329,0.417932 0,0.312407 -1.091239,0.33425 -2.916398,0.05838 z m 19.408759,-1.048257 c -0.339548,-0.08873 -0.617361,-0.293581 -0.617361,-0.455217 0,-0.363091 1.350229,-0.0383 1.613817,0.388201 0.200226,0.32397 0.03048,0.335386 -0.996456,0.06702 z"
       id="path15237" />
  </g>
</svg>
