<?xml version="1.0" encoding="UTF-8" standalone="no"?>
<!-- Created with Inkscape (http://www.inkscape.org/) -->

<svg
   width="83.255997mm"
   height="82.196999mm"
   viewBox="0 0 83.255997 82.196997"
   version="1.1"
   id="svg5"
   sodipodi:docname="github.svg"
   inkscape:version="1.1.1 (3bf5ae0d25, 2021-09-20)"
   xmlns:inkscape="http://www.inkscape.org/namespaces/inkscape"
   xmlns:sodipodi="http://sodipodi.sourceforge.net/DTD/sodipodi-0.dtd"
   xmlns="http://www.w3.org/2000/svg"
   xmlns:svg="http://www.w3.org/2000/svg">
  <sodipodi:namedview
     id="namedview7"
     pagecolor="#ffffff"
     bordercolor="#666666"
     borderopacity="1.0"
     inkscape:pageshadow="2"
     inkscape:pageopacity="0.0"
     inkscape:pagecheckerboard="0"
     inkscape:document-units="mm"
     showgrid="false"
     inkscape:zoom="0.88388348"
     inkscape:cx="-28.284271"
     inkscape:cy="5.0911688"
     inkscape:window-width="1920"
     inkscape:window-height="991"
     inkscape:window-x="-9"
     inkscape:window-y="-9"
     inkscape:window-maximized="1"
     inkscape:current-layer="layer1" />
  <defs
     id="defs2" />
  <g
     inkscape:label="Capa 1"
     inkscape:groupmode="layer"
     id="layer1">
    <path
       style="fill:#414141;stroke-width:0.352778;fill-opacity:1"
       d="m 30.305228,78.493053 c -0.344542,-0.578657 0.315754,-6.951683 0.763854,-7.372543 0.314706,-0.295575 0.34816,-0.05086 0.139788,1.022544 -0.150661,0.776111 -0.368354,2.601736 -0.483761,4.056944 -0.115408,1.455208 -0.304354,2.487083 -0.419881,2.293055 z M 23.600045,77.429929 C 19.765284,76.643418 16.207116,74.122571 12.149869,69.317847 9.7742035,66.504504 9.7436712,66.439329 10.240036,65.240999 10.644322,64.264969 10.585856,64.110805 9.2700367,62.683311 8.3185023,61.651016 7.5518919,60.266748 6.8776475,58.363378 5.9632778,55.782138 5.8736892,55.064546 5.7351915,49.212499 5.5478891,41.298275 6.0710733,37.813441 8.0649334,33.694515 8.81745,32.139962 9.5511932,30.47118 9.6954737,29.98611 10.20478,28.273825 13.515885,22.020862 15.056988,19.860985 c 0.858495,-1.203194 2.086056,-2.512189 2.727912,-2.908878 0.641856,-0.396689 1.606651,-1.355653 2.143989,-2.131032 1.474108,-2.127139 6.129454,-6.406468 8.147399,-7.4893267 6.46895,-3.4713315 15.554833,-2.34303 24.421592,3.0327177 2.12436,1.287958 3.618219,1.905968 6.768786,2.800247 1.067152,0.302908 2.614489,0.744392 3.438524,0.981075 2.106634,0.605076 3.508107,1.534903 4.329582,2.872515 1.276417,2.078399 3.919887,10.808511 4.24477,14.018428 0.167351,1.653478 0.64273,5.981493 1.056397,9.617813 0.807057,7.094386 0.765877,8.006189 -0.561763,12.43851 -0.950094,3.171881 -2.506247,5.695301 -4.77774,7.747459 -1.024044,0.925159 -1.901818,2.216538 -2.634301,3.875567 -0.604189,1.368446 -1.651572,3.313913 -2.327519,4.323256 -1.166607,1.742017 -1.257229,1.8022 -1.785182,1.185594 C 59.94353,69.867662 59.526257,68.883084 59.322158,68.036981 57.483956,60.416608 57.492239,60.435206 54.001549,56.091665 L 52.15873,53.79861 53.318123,52.828471 c 0.637664,-0.533577 1.517188,-0.970139 1.954498,-0.970139 1.389606,0 3.293417,-1.130815 3.533913,-2.099052 0.122894,-0.494757 0.544555,-1.335956 0.937024,-1.869335 1.30164,-1.768944 1.423684,-8.52698 0.233792,-12.945897 -0.254479,-0.945061 -0.277914,-1.634384 -0.06454,-1.898059 0.355226,-0.438956 1.27646,-6.204827 1.633961,-10.226716 0.2119,-2.383883 0.203394,-2.414661 -0.999702,-3.617754 -0.855076,-0.85508 -1.405621,-1.146143 -1.864271,-0.985612 -0.903009,0.31606 -3.951588,3.27856 -4.55682,4.428158 l -0.499223,0.948233 -2.736296,-1.287357 c -2.595735,-1.221226 -2.899392,-1.282545 -5.911296,-1.193709 -3.830239,0.112973 -6.164982,0.734887 -9.8024,2.611101 -1.510765,0.779266 -2.8032,1.356469 -2.872078,1.282673 -0.121608,-0.130289 -0.487509,-0.745629 -2.974151,-5.001664 -0.651607,-1.115264 -1.49569,-2.194168 -1.87574,-2.397565 -1.886426,-1.009585 -3.417627,2.448897 -3.740933,8.449545 l -0.177862,3.301155 -1.514188,1.557985 c -1.885411,1.939945 -2.43407,4.153015 -2.174992,8.773037 0.219161,3.908206 1.230487,6.784823 2.876105,8.1808 2.400235,2.03612 5.865431,4.378999 7.159927,4.840947 1.319984,0.471043 5.449833,2.300436 5.70015,2.524986 0.07086,0.06357 -0.365699,0.715539 -0.970137,1.448826 -0.604438,0.733288 -1.098979,1.463457 -1.098979,1.622598 0,0.159142 -0.550273,1.149562 -1.22283,2.200938 -0.672556,1.051373 -1.644154,2.750312 -2.159106,3.775414 -0.514951,1.025101 -0.989636,1.923051 -1.054855,1.995445 -0.06522,0.07239 -0.854454,-0.355805 -1.753857,-0.951544 -0.899402,-0.595739 -1.813102,-1.142439 -2.030443,-1.214886 -0.288463,-0.09615 -0.279713,-0.517062 0.03241,-1.558829 0.542826,-1.811793 0.550111,-4.747274 0.0147,-5.922377 -0.304711,-0.668768 -0.907101,-1.049835 -2.29941,-1.454591 -1.658801,-0.482226 -2.02843,-0.770248 -3.061968,-2.385928 -1.22901,-1.921252 -3.133368,-3.753188 -3.901562,-3.753188 -0.247201,0 -0.950353,0.174614 -1.562559,0.388031 -1.424624,0.496626 -1.787917,1.735878 -0.883155,3.012588 0.822901,1.161199 1.122107,1.639619 2.396128,3.831325 0.563933,0.970139 1.217179,2.002014 1.451657,2.293056 0.377308,0.468326 0.86446,2.742921 1.01999,4.762499 0.02988,0.388056 0.523267,1.39869 1.096405,2.245858 0.573138,0.847164 1.372919,2.080986 1.777291,2.741827 1.935282,3.162713 4.032816,4.149443 4.938259,2.32307 0.720433,-1.45319 1.12259,-0.130231 0.94119,3.09619 -0.216214,3.845602 -0.674721,4.310044 -3.652125,3.699375 z m 8.347836,-9.432014 c 0.375802,-1.215404 1.419922,-3.183167 2.987211,-5.629741 l 1.421868,-2.219565 -0.225704,1.940278 c -0.196078,1.685579 -0.429645,2.143224 -1.779321,3.486312 -0.854489,0.850318 -1.647948,1.921881 -1.763242,2.38125 -0.115294,0.45937 -0.361864,0.835216 -0.547933,0.835216 -0.18837,0 -0.229534,-0.351787 -0.09288,-0.79375 z m 21.251684,-5.644444 c -2.977031,-4.964155 -3.138995,-6.233908 -0.30807,-2.415205 1.0558,1.424195 1.913047,2.994088 2.030642,3.718757 0.111933,0.689748 0.115256,1.254086 0.0074,1.254086 -0.107873,0 -0.886351,-1.150937 -1.729959,-2.557638 z m -2.046788,-12.59126 c 0,-0.391125 1.384423,-1.223158 1.628722,-0.978859 0.08645,0.08645 -0.244644,0.420472 -0.735768,0.742269 -0.491126,0.3218 -0.892954,0.428261 -0.892954,0.23659 z m -6.581391,-9.719183 c 0.224279,-0.483556 0.523438,-0.880431 0.6648,-0.881944 0.141361,-0.0014 0.07619,0.394123 -0.144819,0.879193 -0.221015,0.485069 -0.520175,0.881944 -0.664803,0.881944 -0.144628,0 -0.07946,-0.395637 0.144822,-0.879193 z m 2.510529,-3.729436 c -0.333932,-0.540314 0.0048,-0.75892 0.953767,-0.615593 l 0.824039,0.124453 -0.77234,0.43417 c -0.538166,0.302532 -0.843026,0.319804 -1.005466,0.05697 z M 26.312758,34.307638 c 0.330978,-1.830701 0.498353,-1.880069 0.498353,-0.146991 0,0.808449 -0.165944,1.469908 -0.368764,1.469908 -0.233461,0 -0.281008,-0.485389 -0.129589,-1.322917 z m 5.642893,-4.27418 c -0.151967,-0.245887 -0.181031,-0.542338 -0.06459,-0.658781 0.315722,-0.315723 0.659965,0.148626 0.489439,0.660203 -0.119495,0.358484 -0.202589,0.358206 -0.424851,-0.0014 z m 18.047084,-3.465246 c -0.322033,-0.322033 -1.425328,-0.718585 -2.451763,-0.881227 -4.510839,-0.714757 -5.083337,-0.727332 -6.22542,-0.13674 -0.745581,0.385557 -1.315586,0.474695 -1.69122,0.264478 -0.779155,-0.436036 -0.273092,-0.670689 2.372,-1.099859 3.148348,-0.510823 4.872087,-0.464555 6.768691,0.181684 1.812526,0.61759 2.468467,1.19698 2.07531,1.833119 -0.194631,0.314918 -0.412778,0.273365 -0.847598,-0.161455 z M 27.39499,25.942767 c -0.497493,-0.376937 -0.594789,-0.748336 -0.412942,-1.57628 0.130845,-0.595735 0.352403,-1.083154 0.492352,-1.083154 0.139948,0 0.601521,0.714375 1.025718,1.5875 0.701977,1.44488 0.716216,1.586492 0.158491,1.57628 -0.337027,-0.0062 -0.905655,-0.233126 -1.263619,-0.504346 z m 29.955895,-2.333724 c 0.428339,-0.473311 0.712643,-0.583736 0.803229,-0.311978 0.07712,0.231355 -0.07757,0.558605 -0.343757,0.727221 -0.880294,0.55763 -1.133126,0.329135 -0.459472,-0.415243 z"
       id="path15542" />
  </g>
</svg>
