<?xml version="1.0" encoding="UTF-8" standalone="no"?>
<!-- Created with Inkscape (http://www.inkscape.org/) -->

<svg
   width="64.206001mm"
   height="73.731003mm"
   viewBox="0 0 64.206002 73.731002"
   version="1.1"
   id="svg5"
   sodipodi:docname="grouvee.svg"
   inkscape:version="1.1.1 (3bf5ae0d25, 2021-09-20)"
   xmlns:inkscape="http://www.inkscape.org/namespaces/inkscape"
   xmlns:sodipodi="http://sodipodi.sourceforge.net/DTD/sodipodi-0.dtd"
   xmlns="http://www.w3.org/2000/svg"
   xmlns:svg="http://www.w3.org/2000/svg">
  <sodipodi:namedview
     id="namedview7"
     pagecolor="#ffffff"
     bordercolor="#666666"
     borderopacity="1.0"
     inkscape:pageshadow="2"
     inkscape:pageopacity="0.0"
     inkscape:pagecheckerboard="0"
     inkscape:document-units="mm"
     showgrid="false"
     inkscape:zoom="0.88388348"
     inkscape:cx="-28.284271"
     inkscape:cy="5.0911688"
     inkscape:window-width="1920"
     inkscape:window-height="991"
     inkscape:window-x="-9"
     inkscape:window-y="-9"
     inkscape:window-maximized="1"
     inkscape:current-layer="layer1" />
  <defs
     id="defs2" />
  <g
     inkscape:label="Capa 1"
     inkscape:groupmode="layer"
     id="layer1">
    <path
       style="fill:#414141;stroke-width:0.352778;fill-opacity:1"
       d="M 32.767791,67.952187 C 32.066394,67.701535 31.003675,67.148365 30.406193,66.722923 29.418614,66.019702 29.171631,65.986711 27.689205,66.359992 24.498379,67.16345 21.027351,66.390578 14.993056,63.533071 11.972394,62.102645 11.144917,61.512734 9.2366696,59.429313 6.7020761,56.66205 4.8320984,53.096973 4.2600403,49.941457 3.7132759,46.925465 3.8039896,41.492994 4.4489372,38.629165 4.754809,37.270971 5.1281897,34.721371 5.278672,32.963388 5.4525163,30.932487 5.8370459,29.131694 6.3332907,28.0245 6.7628484,27.066094 7.4235691,25.294276 7.8015582,24.087127 8.546403,21.708387 10.523053,18.676334 15.090857,12.905816 18.309244,8.8400203 20.716142,6.7069647 23.58861,5.3748861 c 1.601571,-0.7427133 2.25698,-0.8516973 4.260049,-0.7083782 2.122901,0.1518927 2.400934,0.095734 2.693337,-0.544015 0.673669,-1.4739274 1.407375,-1.5469881 3.585054,-0.3569917 1.117971,0.6109172 3.223299,1.4633747 4.678508,1.8943503 1.455208,0.4309752 4.521845,1.7204029 6.814746,2.865395 6.533374,3.2625265 6.943588,3.5390705 6.943588,4.6809685 0,0.412303 0.555625,1.273721 1.234722,1.914263 0.679097,0.640541 1.234722,1.44338 1.234722,1.784086 0,0.340706 0.618303,1.482914 1.374003,2.538239 1.764975,2.464757 2.452261,4.808921 2.884332,9.837752 0.191714,2.231319 0.437981,4.711063 0.547257,5.510542 0.133534,0.976931 0.01443,1.809893 -0.363174,2.540121 -0.393093,0.760162 -0.561862,2.049928 -0.561862,4.293913 0,3.343595 -0.793888,8.136409 -1.548952,9.351256 -0.241191,0.388056 -0.812186,1.658056 -1.268882,2.822222 -1.044554,2.662675 -1.794834,3.781048 -4.036755,6.017204 -0.983657,0.981127 -2.490777,2.613106 -3.349152,3.626615 -1.825435,2.155342 -3.288768,2.882999 -8.272573,4.113622 -3.968926,0.980027 -5.774883,1.073301 -7.669787,0.396137 z M 40.4641,61.878021 c 2.978351,-1.182906 4.881563,-2.467187 7.453553,-5.029637 5.660101,-5.639107 7.381187,-14.689226 5.02606,-26.42891 -1.506855,-7.511249 -3.047936,-10.115311 -5.279471,-8.921031 -0.402615,0.215474 -1.439379,1.475363 -2.303918,2.799753 -1.714041,2.625745 -4.261266,5.112399 -6.369449,6.217986 -1.035752,0.543176 -1.38079,0.599294 -1.505705,0.244887 -0.297769,-0.844838 -2.014555,-2.18607 -2.798181,-2.18607 -1.823963,0 -4.396915,1.940045 -5.562646,4.19432 -0.591684,1.14419 -1.606951,5.703294 -1.607386,7.218041 -4.59e-4,1.571353 2.029831,3.406591 3.756795,3.395888 3.415337,-0.02117 5.096792,-1.025747 6.852172,-4.093838 1.261026,-2.204039 3.256499,-4.251564 5.768418,-5.918879 1.029025,-0.683028 2.361262,-1.800298 2.960525,-2.482822 0.599264,-0.682524 1.162096,-1.123601 1.250742,-0.980172 0.618162,1.00021 1.283283,6.306173 1.283283,10.237338 v 4.544063 l -1.732228,3.542217 c -1.398171,2.859119 -2.197544,3.99452 -4.145139,5.887611 -2.057647,2.000066 -2.750531,2.443162 -4.705967,3.009434 -2.66596,0.772029 -6.621977,1.289755 -8.643056,1.131118 -2.053878,-0.161212 -3.398479,-0.91398 -5.424672,-3.036979 -2.124285,-2.225774 -3.535607,-5.108211 -4.853811,-9.913256 -0.848871,-3.09426 -0.963606,-4.14559 -0.979248,-8.972973 -0.01755,-5.417325 -0.0068,-5.494239 1.159437,-8.290278 1.828065,-4.382775 2.71596,-5.678871 6.468991,-9.443043 1.115778,-1.119091 2.438848,-2.190654 2.940155,-2.38125 1.928547,-0.733232 6.024682,-0.06893 6.432539,1.04322 0.432132,1.178344 1.958401,2.843574 2.606277,2.843574 1.982608,0 4.406442,-2.654992 3.978917,-4.358384 -0.121662,-0.484746 -0.505537,-1.138672 -0.853052,-1.453169 -0.804922,-0.728443 -6.425121,-1.953495 -9.954637,-2.169841 -2.426026,-0.148707 -2.910281,-0.06649 -4.586111,0.778656 -1.751178,0.883143 -4.243238,2.598838 -5.048675,3.475834 -0.194027,0.211266 -0.765637,0.566418 -1.270242,0.789227 -0.967091,0.427019 -3.347087,3.794071 -5.193497,7.347399 -1.17044,2.252453 -2.524436,8.017977 -2.526852,10.759722 -0.0028,3.117461 1.719555,10.594318 3.687177,16.006765 1.723262,4.740275 2.106669,5.487049 3.432749,6.686084 1.847674,1.670657 2.549939,1.966101 8.043296,3.38382 2.420173,0.624593 4.445711,1.181022 4.501197,1.236507 0.05549,0.05549 1.280416,0.132105 2.72207,0.170261 2.128597,0.05634 3.071907,-0.109636 5.01959,-0.883193 z"
       id="path16152" />
  </g>
</svg>
