<?xml version="1.0" encoding="UTF-8" standalone="no"?>
<!-- Created with Inkscape (http://www.inkscape.org/) -->

<svg
   width="88.900002mm"
   height="91.722mm"
   viewBox="0 0 88.900003 91.721999"
   version="1.1"
   id="svg5"
   sodipodi:docname="instagram.svg"
   inkscape:version="1.1.1 (3bf5ae0d25, 2021-09-20)"
   xmlns:inkscape="http://www.inkscape.org/namespaces/inkscape"
   xmlns:sodipodi="http://sodipodi.sourceforge.net/DTD/sodipodi-0.dtd"
   xmlns="http://www.w3.org/2000/svg"
   xmlns:svg="http://www.w3.org/2000/svg">
  <sodipodi:namedview
     id="namedview7"
     pagecolor="#ffffff"
     bordercolor="#666666"
     borderopacity="1.0"
     inkscape:pageshadow="2"
     inkscape:pageopacity="0.0"
     inkscape:pagecheckerboard="0"
     inkscape:document-units="mm"
     showgrid="false"
     inkscape:zoom="0.88388348"
     inkscape:cx="-28.284271"
     inkscape:cy="5.0911688"
     inkscape:window-width="1920"
     inkscape:window-height="991"
     inkscape:window-x="-9"
     inkscape:window-y="-9"
     inkscape:window-maximized="1"
     inkscape:current-layer="layer1" />
  <defs
     id="defs2" />
  <g
     inkscape:label="Capa 1"
     inkscape:groupmode="layer"
     id="layer1">
    <path
       style="fill:#414141;stroke-width:0.352778;fill-opacity:1"
       d="M 36.74042,86.595048 C 31.495073,85.399533 26.751731,83.193938 22.401389,79.927583 21.043195,78.907815 19.212173,77.588522 18.332452,76.99582 14.05819,74.116091 10.05033,68.378919 9.1005489,63.780535 8.7739575,62.199336 8.4764663,61.588247 7.9326417,61.381484 6.3418732,60.776675 6.2363687,60.291133 6.4555467,54.583728 c 0.1488764,-3.876753 0.449581,-6.414742 1.0807478,-9.121669 0.5363958,-2.300478 0.8029099,-4.284031 0.6893592,-5.130617 -0.1182176,-0.88138 0.085858,-2.267087 0.5646811,-3.834281 1.014288,-3.319774 4.5637052,-12.020792 5.5673602,-13.64779 0.446462,-0.723748 0.81175,-1.453206 0.81175,-1.621018 0,-0.550886 1.274877,-1.472798 2.036678,-1.472798 0.457947,0 1.333382,-0.681601 2.265277,-1.763715 0.835383,-0.970044 1.717316,-1.763794 1.95985,-1.763889 0.79232,-3.11e-4 1.852084,-1.388712 1.852084,-2.426422 0,-1.329412 0.781445,-1.950657 2.117542,-1.683438 0.935029,0.187006 1.057458,0.115406 1.057458,-0.618437 0,-0.456461 0.198437,-0.985411 0.440972,-1.175443 0.640849,-0.5021229 6.159102,-2.2103222 7.140335,-2.2103222 0.45923,0 1.048016,-0.2130527 1.308414,-0.4734504 1.10223,-1.1022291 1.979278,-1.2088195 9.278335,-1.1276224 8.201395,0.091235 9.138564,0.2818815 13.662075,2.7792458 1.217108,0.6719488 2.76855,1.3364482 3.447647,1.4766652 4.600304,0.949852 11.98178,6.72788 15.762172,12.338217 6.794465,10.083407 8.871684,25.380837 4.669349,34.386802 -0.586168,1.256213 -1.432849,2.765298 -1.881508,3.353523 -0.44866,0.588222 -0.993839,1.89992 -1.21151,2.914883 -1.310044,6.10852 -5.384917,12.346478 -10.119216,15.490842 -2.609359,1.733053 -11.823241,5.675955 -15.685953,6.712504 -4.223075,1.133253 -12.873458,1.462723 -16.529026,0.62955 z m 10.179025,-2.950143 1.587501,-0.26391 -1.940278,-0.225651 c -3.607337,-0.41953 -10.831167,-0.557191 -9.877778,-0.188235 2.050178,0.793408 7.402177,1.147988 10.230555,0.677796 z M 44.101319,66.338664 c 3.00518,-0.378347 8.242085,-0.861585 11.637571,-1.073869 12.167758,-0.76072 12.614205,-0.816706 13.489746,-1.691658 0.741575,-0.741073 0.797712,-1.100889 0.797165,-5.109482 C 70.025096,53.81935 69.337458,44.505714 68.776904,41.54993 68.587191,40.549583 68.191516,36.650954 67.89762,32.886311 67.398595,26.494056 66.910795,24.041509 66.030194,23.497267 64.989588,22.854135 58.718413,22.389489 55.915279,22.747829 c -0.582083,0.07441 -3.280833,0.23317 -5.997222,0.352797 -2.716389,0.119627 -6.227371,0.278247 -7.802186,0.352488 -2.89578,0.136516 -7.865736,1.012359 -8.913682,1.570836 -0.313634,0.167144 -2.372032,0.514063 -4.574218,0.770932 -6.237315,0.727537 -7.373823,1.85903 -6.728585,6.698885 0.191203,1.434192 0.498582,5.147621 0.683064,8.252066 0.184482,3.104444 0.497026,7.318632 0.694542,9.364863 0.197516,2.046231 0.35912,5.029486 0.35912,6.629457 0,4.579362 1.290281,9.855192 2.550216,10.427585 0.86175,0.391495 12.497016,-0.146964 17.914991,-0.829074 z M 27.551102,62.608657 c -0.40848,-1.622221 -0.972376,-9.18125 -1.331047,-17.842706 -0.152497,-3.682598 -0.09863,-5.223009 0.188854,-5.400682 0.495664,-0.306338 0.533123,-2.201051 0.04942,-2.499992 -0.194028,-0.119916 -0.352778,-0.733943 -0.352778,-1.364505 0,-0.630561 -0.233076,-1.45463 -0.517947,-1.831263 -0.414517,-0.54804 -0.796076,-3.972341 -0.452192,-4.058195 0.04851,-0.01211 0.881945,-0.106926 1.852084,-0.210702 1.785885,-0.191036 3.640101,-0.54081 9.701389,-1.83004 3.249027,-0.691064 6.676386,-0.973687 15.875,-1.309065 2.425347,-0.08843 4.965347,-0.2416 5.644445,-0.340384 0.679097,-0.09878 2.286769,-0.0073 3.572605,0.20336 l 2.337883,0.382968 0.407458,5.178913 c 0.224102,2.848402 0.643781,7.004538 0.932621,9.235858 0.653077,5.04511 1.178003,10.926035 1.451565,16.262357 l 0.209747,4.091527 -3.66219,0.266721 c -2.014206,0.146699 -4.535314,0.318661 -5.602467,0.382136 -6.233965,0.370797 -9.224723,0.627429 -14.2875,1.225987 -3.104445,0.36703 -7.890888,0.742149 -10.63654,0.833596 l -4.992095,0.166272 z m 20.526524,-6.891535 c 3.246197,-0.901467 5.936653,-3.881314 6.950233,-7.697802 0.508526,-1.914782 0.511017,-6.277998 0.0047,-8.158466 -0.210344,-0.781162 -0.99677,-2.056204 -1.768799,-2.867776 l -1.390065,-1.461262 -3.094464,0.203832 c -3.346941,0.220457 -7.848265,1.430806 -7.87109,2.116437 -0.0078,0.233366 -0.250963,-0.01228 -0.540431,-0.545835 -0.848547,-1.564111 -3.678777,-1.131549 -3.678777,0.56225 0,0.441106 -0.47625,2.106965 -1.058334,3.701912 -1.780606,4.878977 -1.380542,8.522642 1.174228,10.694543 1.593346,1.354561 4.717525,2.942135 6.586884,3.347173 2.498005,0.541249 3.068926,0.554045 4.685958,0.104994 z m -3.90857,-3.190212 c -1.976311,-0.371087 -5.478357,-2.51163 -6.00685,-3.671542 -0.768325,-1.686288 -0.488742,-3.943438 0.894556,-7.222006 1.176606,-2.788691 1.348719,-3.027077 1.695535,-2.348417 0.333417,0.652441 0.642726,0.741189 2.270644,0.651503 1.036556,-0.0571 2.186654,-0.265459 2.555773,-0.463003 0.369122,-0.197549 1.741053,-0.448875 3.048737,-0.558508 l 2.377613,-0.19933 0.640676,1.420767 c 0.932413,2.067722 0.690704,6.69435 -0.469127,8.979718 -1.399999,2.758606 -3.927987,3.989063 -7.007557,3.410818 z M 58.184924,35.290308 c 0.7814,-0.418193 1.202888,-2.302003 0.717836,-3.208325 -0.62436,-1.166631 -1.683868,-1.5166 -2.65836,-0.87809 -1.06969,0.700887 -1.119255,2.010974 -0.128711,3.402065 0.788426,1.107242 1.09166,1.20753 2.069235,0.68435 z M 80.314195,51.41736 c -0.09786,-0.242534 -0.177938,-0.0441 -0.177938,0.440973 0,0.485069 0.08007,0.683507 0.177938,0.440972 0.09786,-0.242535 0.09786,-0.63941 0,-0.881945 z M 43.269931,11.450063 c 0.29476,-0.768127 -0.05109,-0.988383 -1.127689,-0.718173 -0.766452,0.192367 -0.854583,0.323569 -0.502402,0.747922 0.557544,0.6718 1.366548,0.657035 1.630091,-0.02975 z"
       id="path16457" />
  </g>
</svg>
