<?xml version="1.0" encoding="UTF-8" standalone="no"?>
<!-- Created with Inkscape (http://www.inkscape.org/) -->

<svg
   width="79.375mm"
   height="82.196999mm"
   viewBox="0 0 79.375001 82.196998"
   version="1.1"
   id="svg5"
   sodipodi:docname="linkedin.svg"
   inkscape:version="1.1.1 (3bf5ae0d25, 2021-09-20)"
   xmlns:inkscape="http://www.inkscape.org/namespaces/inkscape"
   xmlns:sodipodi="http://sodipodi.sourceforge.net/DTD/sodipodi-0.dtd"
   xmlns="http://www.w3.org/2000/svg"
   xmlns:svg="http://www.w3.org/2000/svg">
  <sodipodi:namedview
     id="namedview7"
     pagecolor="#ffffff"
     bordercolor="#666666"
     borderopacity="1.0"
     inkscape:pageshadow="2"
     inkscape:pageopacity="0.0"
     inkscape:pagecheckerboard="0"
     inkscape:document-units="mm"
     showgrid="false"
     inkscape:zoom="0.88388348"
     inkscape:cx="-28.284271"
     inkscape:cy="5.0911688"
     inkscape:window-width="1920"
     inkscape:window-height="991"
     inkscape:window-x="-9"
     inkscape:window-y="-9"
     inkscape:window-maximized="1"
     inkscape:current-layer="layer1" />
  <defs
     id="defs2" />
  <g
     inkscape:label="Capa 1"
     inkscape:groupmode="layer"
     id="layer1">
    <path
       style="fill:#414141;stroke-width:0.352778;fill-opacity:1"
       d="M 32.984722,77.219166 C 29.889721,76.771868 23.357905,74.856116 21.486101,73.846674 20.594637,73.365919 19.007138,72.27125 17.958324,71.414074 16.90951,70.556901 14.940139,69.104117 13.581944,68.18566 7.5118934,64.080896 4.2333333,58.673773 4.2333333,52.767585 c 0,-0.839004 -0.3150626,-2.775878 -0.7001393,-4.304164 -0.8412846,-3.338876 -0.9014774,-6.648841 -0.1726796,-9.495553 0.4807872,-1.877974 2.411776,-6.237956 3.821682,-8.62898 0.2860291,-0.485069 1.0932531,-2.137855 1.7938313,-3.672856 1.7397983,-3.811982 3.7478473,-6.50929 7.6591693,-10.288161 4.787212,-4.625102 9.088731,-7.2002187 14.506581,-8.6844077 3.379041,-0.9256695 13.704113,-1.3025395 16.930026,-0.6179538 3.424989,0.726832 7.094668,2.232328 10.788875,4.4261675 4.686904,2.78336 9.866461,7.965736 12.145635,12.152239 2.103991,3.864726 3.702445,8.83385 4.193049,13.034972 0.49414,4.231382 -0.198571,9.405923 -1.940066,14.492347 -2.059883,6.016343 -3.405727,7.760959 -12.224409,15.846541 -4.033228,3.69794 -5.787793,4.977087 -9.176555,6.690067 -6.437347,3.254008 -12.632531,4.403302 -18.873611,3.501323 z M 49.34137,71.42622 c 0.09081,-0.09081 -0.02798,-0.165111 -0.26398,-0.165111 -0.504056,0 -2.510723,0.997864 -2.510723,1.248516 0,0.178142 2.482444,-0.791146 2.774703,-1.083405 z m 9.177648,-7.869185 c -0.805198,-0.125701 -2.451199,0.896448 -2.714216,1.685502 -0.08929,0.267864 0.615029,0.0345 1.661883,-0.550633 1.481501,-0.828075 1.675733,-1.037548 1.052333,-1.134869 z m -16.34399,-2.546462 c 0.452007,-0.499463 0.911066,-0.661674 1.473232,-0.520577 0.571044,0.143323 1.06052,-0.03893 1.627621,-0.60603 1.359069,-1.359069 1.785994,-5.109524 1.491044,-13.098533 l -0.252395,-6.836374 0.996205,-0.6875 c 0.547917,-0.378125 1.948709,-0.8916 3.112876,-1.141053 1.164167,-0.249456 2.741796,-0.752994 3.505846,-1.118976 1.885054,-0.902945 2.131472,-0.848642 2.183193,0.481108 0.02452,0.63059 0.08546,1.702153 0.135407,2.38125 0.04995,0.679097 0.05287,4.50802 0.0065,8.508717 -0.05708,4.924316 0.04563,7.516813 0.317976,8.025695 0.571733,1.068292 2.381204,1.03276 2.87751,-0.05651 0.202533,-0.444514 0.715066,-0.960452 1.138964,-1.146528 0.46827,-0.205557 0.814525,-0.719028 0.882347,-1.30846 0.06139,-0.533576 0.327868,-0.970139 0.592162,-0.970139 0.264297,0 0.730003,-0.249463 1.034902,-0.554365 0.462632,-0.462633 0.554365,-1.598207 0.554365,-6.862569 0,-3.854668 0.151656,-6.641048 0.389918,-7.163974 0.318047,-0.698042 0.215826,-1.33507 -0.554594,-3.456183 -0.51948,-1.430224 -1.405068,-4.007774 -1.967978,-5.727888 -0.562907,-1.720113 -1.205904,-3.347301 -1.428881,-3.615972 -0.845008,-1.01818 -2.788461,-0.360072 -2.788461,0.944254 0,0.426596 -0.227852,0.542523 -0.837322,0.426016 -0.970061,-0.18544 -2.925981,0.958545 -5.969801,3.491637 -1.687607,1.404444 -2.294579,1.705156 -3.441749,1.705156 H 45.86112 v -2.255748 c 0,-2.002364 -0.114967,-2.378817 -1.023482,-3.351388 -1.108022,-1.186141 -2.304641,-1.400983 -3.388579,-0.608389 -0.621305,0.45431 -0.637529,0.672686 -0.239963,3.229943 0.429327,2.76154 0.34847,4.042891 -0.117641,1.86428 -0.326108,-1.524231 -0.779011,-2.053698 -1.756724,-2.053698 -1.526974,0 -1.682877,0.671689 -1.617839,6.970331 0.05833,5.64938 0.832972,19.479242 1.299037,23.192168 0.121779,0.970139 0.38183,1.962327 0.577889,2.204861 0.542364,0.670931 1.846633,0.527142 2.581219,-0.284564 z M 55.989287,32.36736 c -0.402198,-0.3006 -0.488368,-0.602198 -0.270704,-0.947454 0.264633,-0.419753 0.414528,-0.427458 0.875362,-0.045 0.582221,0.4832 0.761672,1.433425 0.270704,1.433425 -0.156944,0 -0.550856,-0.198437 -0.875362,-0.440972 z M 16.933333,60.897359 c 0,-0.07325 -0.277812,-0.351067 -0.617361,-0.617361 -0.559525,-0.43881 -0.572003,-0.426332 -0.133193,0.133195 0.460858,0.587639 0.750554,0.774516 0.750554,0.484166 z m 10.963248,-2.309114 c 0.628039,-0.628036 1.031197,-0.838101 1.031197,-0.537298 0,0.271642 0.396875,0.753939 0.881944,1.071771 0.816988,0.535308 0.946901,0.535308 1.763889,0 0.850286,-0.557128 0.881945,-0.714121 0.881945,-4.373415 0,-2.425664 -0.202474,-4.491743 -0.560996,-5.724507 -0.308547,-1.06093 -0.696188,-3.654813 -0.861424,-5.764187 -0.396264,-5.058636 -0.978109,-8.709445 -1.485499,-9.320813 -0.26556,-0.319979 -0.809795,-0.430154 -1.539727,-0.311703 -1.206206,0.195741 -1.533867,-0.271561 -1.544759,-2.203094 -0.0057,-1.017591 -0.935151,-2.144444 -1.768707,-2.144444 -1.042537,0 -1.857717,1.239154 -1.596768,2.427246 0.190633,0.867943 0.06699,1.208373 -0.672322,1.851201 -0.863702,0.750979 -0.90591,0.957943 -0.90591,4.442131 0,4.720163 0.559354,9.840461 1.427512,13.067386 0.379035,1.408864 0.689155,3.036051 0.689155,3.615972 0,0.579917 0.279636,1.334033 0.621413,1.675807 0.341776,0.341779 0.570141,0.887642 0.507476,1.213034 -0.120252,0.62442 1.075174,2.046111 1.72047,2.046111 0.208953,0 0.843953,-0.464037 1.411111,-1.031198 z m 43.86031,-23.61615 c -0.128249,-0.802014 -0.349613,-1.458207 -0.491928,-1.458207 -0.14231,0 -0.09533,0.714141 0.104405,1.58698 0.446197,1.949892 0.706102,1.863525 0.387523,-0.128773 z m -39.783522,-8.20512 c 1.040079,-0.977104 2.246075,-4.14625 2.246075,-5.902291 0,-4.09548 -2.153584,-6.930353 -5.264205,-6.929541 -2.277909,6e-4 -3.67416,0.696595 -4.560253,2.273186 -0.841595,1.497416 -0.976091,3.764386 -0.377469,6.362376 0.972135,4.219018 5.429243,6.569895 7.955852,4.19627 z m -3.339188,-2.883167 c -0.290821,-0.350417 -0.135391,-0.550184 0.66236,-0.851301 1.126003,-0.425019 1.456668,0.04817 0.619015,0.885826 -0.5407,0.540699 -0.810003,0.533443 -1.281375,-0.03453 z M 17.847274,19.846347 c -0.244651,-0.24465 -0.913941,0.252428 -0.913941,0.678779 0,0.233925 0.202418,0.207162 0.537692,-0.07109 0.295731,-0.245434 0.465042,-0.518894 0.376249,-0.607689 z"
       id="path17367" />
  </g>
</svg>
