<?xml version="1.0" encoding="UTF-8" standalone="no"?>
<!-- Created with Inkscape (http://www.inkscape.org/) -->

<svg
   width="83.608002mm"
   height="84.314003mm"
   viewBox="0 0 83.608003 84.314002"
   version="1.1"
   id="svg5"
   sodipodi:docname="oculus.svg"
   inkscape:version="1.1.1 (3bf5ae0d25, 2021-09-20)"
   xmlns:inkscape="http://www.inkscape.org/namespaces/inkscape"
   xmlns:sodipodi="http://sodipodi.sourceforge.net/DTD/sodipodi-0.dtd"
   xmlns="http://www.w3.org/2000/svg"
   xmlns:svg="http://www.w3.org/2000/svg">
  <sodipodi:namedview
     id="namedview7"
     pagecolor="#ffffff"
     bordercolor="#666666"
     borderopacity="1.0"
     inkscape:pageshadow="2"
     inkscape:pageopacity="0.0"
     inkscape:pagecheckerboard="0"
     inkscape:document-units="mm"
     showgrid="false"
     inkscape:zoom="0.88388348"
     inkscape:cx="-28.284271"
     inkscape:cy="5.0911688"
     inkscape:window-width="1920"
     inkscape:window-height="991"
     inkscape:window-x="-9"
     inkscape:window-y="-9"
     inkscape:window-maximized="1"
     inkscape:current-layer="layer1" />
  <defs
     id="defs2" />
  <g
     inkscape:label="Capa 1"
     inkscape:groupmode="layer"
     id="layer1">
    <path
       style="fill:#414141;stroke-width:0.352778;fill-opacity:1"
       d="M 40.745832,78.274827 C 39.218219,77.656126 38.442867,77.583937 34.95755,77.735892 31.110231,77.903631 27.471853,77.509158 24.431892,76.594698 22.381748,75.977986 17.533832,72.893661 15.494111,70.908333 12.172035,67.674846 8.1188264,61.052343 7.281,57.489002 5.4719175,49.79483 5.4500354,47.862878 7.0647776,38.398725 8.15603,32.002792 10.31078,27.468593 15.646823,20.339689 c 1.329711,-1.776482 2.580728,-3.468092 2.780037,-3.759133 0.396615,-0.579159 -1.213599,1.145089 -2.436972,2.609556 -0.877511,1.050443 -1.587708,1.158894 -2.382746,0.363856 -0.864059,-0.864059 -0.668003,-1.707959 0.840017,-3.615747 2.437142,-3.083216 4.98854,-4.956461 10.180596,-7.4746309 4.972903,-2.4118785 9.446206,-3.2807268 17.000021,-3.3019097 7.906903,-0.022172 13.229745,1.3887845 20.108333,5.3302376 2.278902,1.305818 8.059045,7.281141 9.619575,9.944402 1.69399,2.891032 3.947905,8.500363 4.809921,11.970486 2.155574,8.67744 2.307456,14.863345 0.490576,19.980694 -1.612671,4.542176 -3.068835,6.399664 -9.682631,12.351177 -0.649274,0.584256 -1.94014,1.969188 -2.868595,3.077626 -2.372734,2.832689 -6.972275,6.12484 -10.529351,7.536448 -1.623596,0.644317 -3.287772,1.177908 -3.698169,1.185757 -0.410397,0.0078 -1.15413,0.335167 -1.652743,0.727375 -1.117311,0.878879 -3.548133,1.761959 -4.789187,1.73984 -0.509182,-0.0091 -1.719534,-0.337979 -2.689673,-0.730896 z m 7.055259,-24.443848 c 0.715055,-0.715056 0.914858,-0.770915 1.261882,-0.352778 0.226769,0.27324 0.656728,0.496799 0.955463,0.496799 0.6226,0 3.895648,-0.919265 5.720451,-1.606642 0.679097,-0.255806 1.97293,-0.561932 2.875184,-0.680282 2.136514,-0.280254 3.983376,-1.914529 3.720081,-3.291872 -0.09684,-0.506571 0.06201,-2.038262 0.352996,-3.403759 0.755752,-3.546496 0.412701,-7.389869 -0.964565,-10.806551 -1.341942,-3.32905 -2.891257,-4.880323 -5.807307,-5.814645 -1.164167,-0.373006 -2.380266,-0.995693 -2.702447,-1.383749 -0.527065,-0.634837 -1.100067,-0.717677 -5.716821,-0.826491 -5.957023,-0.140404 -12.475001,0.799843 -15.712257,2.266562 -1.800649,0.815829 -1.943276,0.830539 -2.568321,0.264881 -0.867905,-0.785443 -2.406691,-0.284304 -3.013302,0.981349 -0.238828,0.498298 -1.157858,1.363396 -2.042289,1.92244 -1.003958,0.634596 -1.682563,1.351381 -1.806385,1.908017 -0.424065,1.906365 -1.555081,4.611257 -2.196223,5.252399 -0.532314,0.532314 -0.718775,1.397931 -0.894599,4.153048 -0.326808,5.121004 -0.16595,6.068886 1.242988,7.32457 0.654617,0.58341 1.348962,1.54468 1.54299,2.136151 0.355742,1.084442 1.386478,1.539797 2.509763,1.108752 0.284996,-0.109365 2.932513,-0.261511 5.883372,-0.338102 4.318399,-0.112088 5.570501,-0.03426 6.417449,0.398854 0.915448,0.468154 1.481163,0.479224 4.351281,0.08517 3.20475,-0.439999 3.320581,-0.431391 4.053226,0.301255 0.97022,0.970223 1.491379,0.950633 2.53739,-0.09538 z M 25.508773,49.320288 c -0.425243,-0.205497 -0.858233,-0.595302 -0.962199,-0.866232 -0.236359,-0.615943 0.850429,-0.09531 1.542996,0.739182 0.521543,0.628425 0.476924,0.638182 -0.580797,0.12705 z m 9.416226,-1.292356 c 0,-0.362571 1.068521,-0.863116 1.315427,-0.616207 0.08586,0.08586 -0.174985,0.333308 -0.579656,0.549882 -0.404931,0.216711 -0.735771,0.246535 -0.735771,0.06632 z m -7.234447,-2.255015 c -1.168561,-1.092042 -1.230814,-1.272262 -1.309975,-3.792361 -0.109912,-3.49902 0.600851,-5.04122 2.667577,-5.788057 2.118958,-0.765715 5.409797,-1.351313 6.194421,-1.102283 0.371289,0.117843 1.364539,0.06121 2.207219,-0.125855 2.680098,-0.594943 7.82491,-1.222555 9.516127,-1.160865 1.873698,0.06835 2.597506,-0.512395 2.337012,-1.87508 -0.127949,-0.669325 -0.02003,-0.883972 0.444457,-0.883972 0.67074,0 1.523189,0.822938 1.193726,1.152402 -0.491335,0.491332 0.34193,1.658097 1.443884,2.021774 1.278936,0.422088 3.228058,2.929593 3.559934,4.579785 0.09835,0.489003 0.330341,1.463139 0.515549,2.164747 0.185205,0.701608 0.336737,1.422393 0.336737,1.601748 0,0.186764 -2.600113,0.328764 -6.085416,0.332345 -6.708814,0.0069 -14.271082,0.388126 -14.854777,0.74887 -0.206114,0.127388 -1.651077,0.287309 -3.211029,0.355381 -3.080978,0.134451 -3.893401,0.612316 -3.611359,2.124199 0.192115,1.029828 0.113246,1.009127 -1.344087,-0.352778 z m 5.888011,-5.632687 c -0.25314,-0.253139 -0.417453,-0.273967 -0.417453,-0.05292 0,0.47088 0.417198,0.888079 0.652639,0.652639 0.100247,-0.100246 -0.0056,-0.370121 -0.235186,-0.599723 z m 16.802511,6.185451 c 0.25466,-0.101907 0.558931,-0.08938 0.676159,0.02783 0.117224,0.117224 -0.09114,0.200603 -0.463021,0.185286 -0.410968,-0.01693 -0.494559,-0.100521 -0.213138,-0.213134 z M 35.019907,31.505528 c 0.343242,-0.08944 0.819492,-0.08356 1.058333,0.01307 0.238841,0.09663 -0.04199,0.169816 -0.624075,0.162626 -0.582083,-0.0072 -0.777499,-0.08625 -0.434258,-0.175698 z m 3.013946,-0.349293 c 0.254659,-0.101907 0.55893,-0.08937 0.676158,0.02785 0.117225,0.117225 -0.09114,0.200604 -0.463021,0.185286 -0.410968,-0.01693 -0.494559,-0.100521 -0.213137,-0.213136 z M 25.573891,11.645707 c 0.123591,-0.199975 -0.01801,-0.259117 -0.331958,-0.138645 -0.611159,0.234523 -0.722978,0.487382 -0.215532,0.487382 0.182577,0 0.428947,-0.156931 0.54749,-0.348737 z"
       id="path17672" />
  </g>
</svg>
