<?xml version="1.0" encoding="UTF-8" standalone="no"?>
<!-- Created with Inkscape (http://www.inkscape.org/) -->

<svg
   width="58.829155mm"
   height="58.333504mm"
   viewBox="0 0 58.829155 58.333504"
   version="1.1"
   id="svg5"
   inkscape:version="1.1.1 (3bf5ae0d25, 2021-09-20)"
   sodipodi:docname="reddit.svg"
   xmlns:inkscape="http://www.inkscape.org/namespaces/inkscape"
   xmlns:sodipodi="http://sodipodi.sourceforge.net/DTD/sodipodi-0.dtd"
   xmlns="http://www.w3.org/2000/svg"
   xmlns:svg="http://www.w3.org/2000/svg">
  <sodipodi:namedview
     id="namedview7"
     pagecolor="#ffffff"
     bordercolor="#666666"
     borderopacity="1.0"
     inkscape:pageshadow="2"
     inkscape:pageopacity="0.0"
     inkscape:pagecheckerboard="0"
     inkscape:document-units="mm"
     showgrid="false"
     fit-margin-top="0"
     fit-margin-left="0"
     fit-margin-right="0"
     fit-margin-bottom="0"
     inkscape:zoom="0.71446409"
     inkscape:cx="258.93534"
     inkscape:cy="6.2984272"
     inkscape:window-width="1920"
     inkscape:window-height="991"
     inkscape:window-x="-9"
     inkscape:window-y="-9"
     inkscape:window-maximized="1"
     inkscape:current-layer="layer1" />
  <defs
     id="defs2" />
  <g
     inkscape:label="Capa 1"
     inkscape:groupmode="layer"
     id="layer1"
     transform="translate(-36.77866,-147.10939)">
    <path
       style="fill:#4a4a4a;fill-opacity:1;stroke-width:0.264583"
       d="m 59.26825,205.31522 c -4.28653,-0.29519 -5.78699,-0.64748 -6.0839,-1.42842 -0.13386,-0.35209 -1.01957,-1.03598 -2.16457,-1.67136 -1.06589,-0.59149 -2.66907,-1.70846 -3.56261,-2.48216 -0.89354,-0.7737 -2.20323,-1.86394 -2.91042,-2.42276 -1.85601,-1.4666 -3.63721,-3.66753 -5.17325,-6.3923 -0.73831,-1.30969 -1.44772,-2.42165 -1.57646,-2.47102 -0.50358,-0.19313 -1.01838,-0.89931 -1.01838,-1.39697 0,-0.2876 0.2783,-0.78511 0.61844,-1.10558 0.61582,-0.58022 0.61744,-0.59889 0.38342,-4.41914 -0.34138,-5.57282 -0.24817,-6.20571 2.4622,-16.71863 0.99549,-3.86128 8.60382,-10.82497 14.0544,-12.86361 0.83114,-0.31086 2.67661,-1.15005 4.10104,-1.86485 5.99174,-3.00675 9.59086,-3.64752 12.88373,-2.29377 1.12331,0.4618 1.69489,0.57161 2.03313,0.39059 1.21955,-0.65268 3.07389,-0.0284 5.73561,1.93109 0.8908,0.65577 2.06867,1.27654 2.6175,1.37951 0.54883,0.10296 1.3263,0.42106 1.72771,0.70689 0.52194,0.37165 0.97669,0.47663 1.59643,0.36854 0.47663,-0.0831 1.00012,-0.0593 1.16331,0.0529 0.8735,0.6007 5.62032,9.14938 7.0183,12.63946 0.29145,0.72761 0.7666,1.5767 1.05589,1.88689 1.2931,1.38648 1.84835,8.49231 0.90696,11.60686 -0.28853,0.95458 -0.56505,3.07126 -0.69358,5.30907 -0.19966,3.47624 -0.83556,6.90757 -1.6271,8.7798 -0.38339,0.90683 -2.31744,2.97676 -2.78135,2.97676 -0.18931,0 -1.35849,0.7739 -2.59819,1.71979 -1.2397,0.94589 -2.51865,1.71979 -2.84213,1.71979 -0.32347,0 -1.56537,0.63927 -2.75976,1.42061 -1.48674,0.97257 -2.36282,1.38441 -2.77785,1.30586 -0.33343,-0.0631 -1.4992,0.25584 -2.59061,0.70877 -4.75967,1.97524 -7.07319,2.56903 -10.58333,2.71635 -1.81901,0.0763 -4.79557,0.0363 -6.61458,-0.089 z m 9.3927,-16.12608 c 1.01865,-0.14347 2.86412,-0.3754 4.10105,-0.5154 2.99984,-0.33954 4.77305,-0.89913 6.11401,-1.92949 1.15779,-0.88961 2.60133,-3.29901 2.61151,-4.35885 0.003,-0.32742 0.13047,-0.59531 0.28294,-0.59531 0.93563,0 2.6896,-3.04593 3.17516,-5.51394 0.51459,-2.61562 -0.30335,-4.68767 -2.92718,-7.41531 -1.36545,-1.41947 -1.36625,-1.41985 -2.77084,-1.30337 -1.27024,0.10534 -1.58657,0.27318 -3.29819,1.74998 -1.84425,1.59125 -1.91204,1.62373 -2.6223,1.25644 -0.401,-0.20737 -2.21666,-0.58291 -4.03479,-0.83455 l -3.30568,-0.45751 0.0906,-0.81847 c 0.0499,-0.45016 0.26218,-1.77098 0.4718,-2.93514 0.20963,-1.16417 0.45329,-3.0394 0.54147,-4.16719 0.0882,-1.12779 0.25814,-2.05052 0.37768,-2.05052 0.11954,0 0.97258,0.33237 1.89565,0.73859 0.92307,0.40623 2.59913,1.03131 3.72458,1.38906 1.97808,0.62879 2.04642,0.6782 2.05053,1.48239 0.006,1.16536 1.26152,2.47538 2.3725,2.47538 3.37063,0 5.56525,-5.48585 3.28074,-8.20083 -1.09592,-1.30243 -2.15572,-1.05402 -4.18147,0.98009 -0.5189,0.52104 -0.62539,0.54114 -0.98126,0.18527 -0.21956,-0.21956 -0.68668,-0.39183 -1.03805,-0.38282 -0.35136,0.009 -0.98752,0.018 -1.41367,0.0201 -0.42616,0.002 -1.65891,-0.41611 -2.73945,-0.92925 -1.08053,-0.51315 -2.10283,-0.93299 -2.27179,-0.93299 -0.16895,0 -0.74843,-0.2365 -1.28774,-0.52555 -1.1121,-0.59605 -2.08356,-0.40856 -2.56739,0.49549 -0.15437,0.28844 -0.28777,1.69312 -0.29645,3.12152 -0.009,1.42839 -0.12324,3.19239 -0.2546,3.92 -0.13135,0.7276 -0.37241,2.21269 -0.53569,3.30019 -0.16327,1.08751 -0.39853,2.16727 -0.52281,2.39948 -0.12427,0.23221 -0.91791,0.61978 -1.76364,0.86127 -0.84573,0.2415 -2.08989,0.61054 -2.7648,0.82009 -1.16518,0.36178 -1.27202,0.35084 -2.11667,-0.21665 -1.9557,-1.31397 -5.37694,-1.89123 -6.95295,-1.17315 -0.36538,0.16648 -0.97704,0.75393 -1.35924,1.30544 -0.66321,0.95702 -0.6908,1.13357 -0.60488,3.87096 0.0884,2.81621 0.10826,2.89566 1.09634,4.38309 0.55349,0.8332 1.11903,1.5149 1.25678,1.5149 0.13774,0 0.25074,0.68461 0.25112,1.52136 5.8e-4,1.27451 0.15491,1.77893 0.95125,3.10885 0.52281,0.87313 1.20448,1.86217 1.5148,2.19788 0.91655,0.99151 3.2939,2.21424 4.76422,2.45036 1.63172,0.26203 9.07343,0.0762 11.68675,-0.2919 z m -5.63392,-2.73913 c -0.77033,-0.1958 -1.67097,-0.61001 -2.00143,-0.92046 -0.33046,-0.31045 -0.92058,-0.56446 -1.31139,-0.56446 -0.8178,0 -1.76888,-0.8315 -1.76888,-1.54649 0,-0.55393 0.66805,-1.22308 1.46127,-1.46368 0.75143,-0.22793 2.1224,0.21591 3.03257,0.98176 1.1726,0.98668 4.03541,1.22012 5.59981,0.45662 2.09106,-1.02055 2.73474,-1.41933 3.08437,-1.91088 0.88272,-1.24104 2.84041,-0.10368 2.65006,1.5396 -0.0856,0.73867 -0.62461,1.14158 -4.04136,3.02074 -1.31621,0.7239 -4.66016,0.92701 -6.70502,0.40725 z m 9.11451,-8.84794 c -0.5879,-0.64962 -0.53723,-0.96848 0.44787,-2.81859 0.99422,-1.86722 1.84431,-2.34162 2.92601,-1.63286 1.20475,0.78938 1.24469,2.88396 0.0635,3.33303 -0.3343,0.12711 -0.80998,0.53962 -1.05704,0.91669 -0.54018,0.82442 -1.72592,0.9249 -2.38039,0.20173 z m 9.12431,-0.44219 c 0,-0.29104 0.10233,-0.76729 0.22739,-1.05833 l 0.2274,-0.52917 v 0.52917 c 0,0.29104 -0.10233,0.76729 -0.2274,1.05833 l -0.22739,0.52917 z m -21.27366,-0.7276 c -1.28121,-0.97291 -1.01095,-3.16194 0.41059,-3.32565 1.03334,-0.119 2.69297,1.51886 2.42487,2.39306 -0.29719,0.96904 -0.65985,1.26332 -1.55686,1.26332 -0.46369,0 -1.03906,-0.14883 -1.2786,-0.33073 z m 21.17172,-2.52115 c -0.77272,-1.78172 -1.42776,-2.29622 -2.5966,-2.0395 -0.9825,0.21579 -0.97679,0.11061 0.0346,-0.63713 l 0.81282,-0.60095 0.89703,1.01421 c 0.94107,1.064 1.844,2.99546 1.65932,3.54947 -0.0596,0.17884 -0.42283,-0.39991 -0.80716,-1.2861 z m 8.63,-6.74323 c -0.4352,-0.47076 -1.11337,-1.36195 -1.50702,-1.98041 -0.80638,-1.26689 -0.99276,-1.39492 -0.77031,-0.52917 0.16027,0.62377 2.7538,3.68034 2.95342,3.48071 0.0634,-0.0634 -0.24088,-0.50037 -0.67609,-0.97113 z"
       id="path1069" />
  </g>
</svg>
