<?xml version="1.0" encoding="UTF-8" standalone="no"?>
<!-- Created with Inkscape (http://www.inkscape.org/) -->

<svg
   width="77.258003mm"
   height="77.611mm"
   viewBox="0 0 77.258004 77.610999"
   version="1.1"
   id="svg5"
   sodipodi:docname="steam.svg"
   inkscape:version="1.1.1 (3bf5ae0d25, 2021-09-20)"
   xmlns:inkscape="http://www.inkscape.org/namespaces/inkscape"
   xmlns:sodipodi="http://sodipodi.sourceforge.net/DTD/sodipodi-0.dtd"
   xmlns="http://www.w3.org/2000/svg"
   xmlns:svg="http://www.w3.org/2000/svg">
  <sodipodi:namedview
     id="namedview7"
     pagecolor="#ffffff"
     bordercolor="#666666"
     borderopacity="1.0"
     inkscape:pageshadow="2"
     inkscape:pageopacity="0.0"
     inkscape:pagecheckerboard="0"
     inkscape:document-units="mm"
     showgrid="false"
     inkscape:zoom="0.88388348"
     inkscape:cx="-28.284271"
     inkscape:cy="5.0911688"
     inkscape:window-width="1920"
     inkscape:window-height="991"
     inkscape:window-x="-9"
     inkscape:window-y="-9"
     inkscape:window-maximized="1"
     inkscape:current-layer="layer1" />
  <defs
     id="defs2" />
  <g
     inkscape:label="Capa 1"
     inkscape:groupmode="layer"
     id="layer1">
    <path
       style="fill:#414141;stroke-width:0.352778;fill-opacity:1"
       d="M 34.74861,72.323554 C 33.778471,72.162547 31.764912,71.861373 30.274035,71.654282 26.816959,71.17407 22.015975,69.514212 19.851407,68.050833 17.01229,66.131419 9.7195069,58.532278 7.6388501,55.325246 5.1096932,51.426913 4.2333332,49.635582 4.2333332,48.364164 v -1.052838 l 1.8520833,0.726109 c 1.0186458,0.399362 2.5664582,1.084439 3.4395832,1.522395 0.8731253,0.437956 2.3812503,1.08101 3.3513893,1.429007 0.970138,0.348002 2.160763,0.986769 2.645833,1.419483 0.485069,0.432717 1.437569,0.901086 2.116666,1.040818 1.558699,0.320724 2.591823,0.851888 1.688107,0.867915 -0.955518,0.01693 -1.429947,1.334417 -1.252234,3.477408 0.145126,1.750032 0.306025,2.076199 1.538794,3.119392 1.715296,1.451518 2.889071,1.711854 7.550333,1.674611 6.124802,-0.04893 9.789742,-1.751129 11.910829,-5.532028 1.941431,-3.460662 2.634082,-5.826598 2.683647,-9.16673 0.04578,-3.085585 0.04613,-3.086686 0.972746,-3.086806 1.255713,-1.62e-4 1.856969,-0.809029 1.590763,-2.140056 -0.200166,-1.000831 -0.158203,-1.058852 0.573437,-0.792875 0.434178,0.157836 2.297536,0.284498 4.1408,0.281464 3.056914,-0.005 3.558328,-0.106261 5.70655,-1.152099 2.835113,-1.380243 5.598993,-4.082277 6.903907,-6.749421 0.734162,-1.500574 0.968089,-2.57886 1.083599,-4.994835 0.131911,-2.75905 0.04952,-3.296745 -0.788158,-5.143797 -0.514509,-1.134468 -1.604754,-3.057712 -2.422768,-4.273876 -1.226457,-1.823407 -1.858518,-2.390397 -3.603964,-3.232926 -3.470476,-1.675205 -10.37827,-2.883094 -12.191901,-2.131863 -1.220893,0.505711 -2.913482,2.520528 -3.745099,4.458076 -0.620952,1.446731 -1.505296,6.49518 -1.517879,8.665111 -0.0062,1.071017 -0.18693,1.407775 -0.977759,1.821985 -1.107998,0.580334 -2.989292,2.492317 -3.573641,3.631938 -0.21731,0.423807 -0.395109,1.327251 -0.395109,2.007653 0,1.548821 -0.34983,1.767285 -2.021216,1.262242 -0.941372,-0.284456 -1.484845,-0.727471 -1.85934,-1.515642 -0.291041,-0.612535 -0.837547,-1.170914 -1.214456,-1.240843 -1.033646,-0.191775 -4.323295,1.666361 -6.527657,3.687102 l -1.959275,1.796073 -1.443842,-0.914129 C 17.693989,37.629414 16.503364,36.861463 15.842269,36.425627 15.181173,35.989787 14.134674,35.6326 13.516715,35.631877 12.014775,35.630113 10.642933,35.076769 9.9165428,34.179715 9.5210137,33.691257 8.754562,33.380146 7.6361732,33.254087 l -1.684596,-0.189878 0.2234963,-1.450854 c 0.2970971,-1.928643 1.1662234,-4.652856 2.0372797,-6.385705 0.3890136,-0.77389 0.932514,-2.52014 1.2077784,-3.880555 0.5589414,-2.762411 2.2151564,-6.620913 3.3902584,-7.898323 1.056659,-1.148655 2.6815,-1.801174 3.60798,-1.448927 1.061074,0.40342 1.396907,0.02409 1.396907,-1.577809 0,-1.2813114 0.135254,-1.4796399 1.646074,-2.4137084 C 21.907745,6.495838 26.385097,5.3249215 31.527259,4.852853 l 4.539759,-0.4167664 0.697435,0.8612953 0.697434,0.861295 0.701259,-0.9626717 c 0.999741,-1.3724266 2.960021,-1.3497903 9.991019,0.1153721 7.350781,1.5318007 9.065941,2.1789264 10.875084,4.1031476 0.878036,0.9338861 2.957526,3.0955641 4.621089,4.8037281 2.277276,2.33833 3.025196,3.340789 3.026833,4.056945 0.0011,0.523155 0.254325,1.427442 0.562508,2.009525 0.714555,1.349619 1.734446,5.26315 2.233157,8.569072 0.213381,1.414518 0.712731,3.510278 1.109663,4.657245 0.92657,2.6774 0.55361,3.675596 -1.29279,3.460041 -0.66198,-0.07728 -1.2036,-0.09849 -1.2036,-0.04713 0,0.05136 0.490855,0.595524 1.090789,1.209248 0.765118,0.782708 1.033903,1.3393 0.900264,1.864247 -0.404823,1.590188 -2.068428,6.056563 -2.374586,6.375192 -0.501308,0.521727 -0.391537,0.754659 0.559922,1.188173 0.907549,0.413505 1.244625,1.915065 0.529167,2.357244 -0.194028,0.119916 -0.357223,0.486474 -0.362656,0.814571 -0.02124,1.281391 -2.077099,4.931082 -3.89769,6.919363 -5.443008,5.944348 -8.034411,8.430546 -9.615166,9.224811 -1.873557,0.941387 -2.713768,1.059476 -3.308286,0.464957 -0.286915,-0.286914 -0.800795,-0.110871 -1.922639,0.658658 -2.607448,1.788573 -5.695537,3.178602 -8.432267,3.795575 -3.53573,0.797105 -4.438872,0.870356 -6.504351,0.527561 z M 64.097247,27.258799 c -0.08944,-0.343242 -0.168508,-0.147825 -0.175697,0.434258 -0.0072,0.582083 0.06599,0.862917 0.162627,0.624075 0.09663,-0.238842 0.102514,-0.715092 0.01309,-1.058333 z M 13.286415,27.075696 c -0.09787,-0.242535 -0.177936,-0.0441 -0.177936,0.440972 0,0.48507 0.08007,0.683507 0.177936,0.440972 0.09787,-0.242534 0.09787,-0.639409 0,-0.881944 z m 48.436638,-9.453293 c -0.621683,-0.784938 -1.192975,-1.364521 -1.269534,-1.287961 -0.07656,0.07656 0.299765,1.093545 0.836281,2.259965 0.892047,1.939384 1.000625,2.049539 1.26953,1.287962 0.234742,-0.664824 0.06606,-1.120669 -0.836277,-2.259966 z M 47.095832,11.288889 c 0.119916,-0.194027 0.0896,-0.354945 -0.06737,-0.357595 -0.156972,-0.0026 -0.682279,-0.101863 -1.167348,-0.220476 -0.860281,-0.210363 -0.864613,-0.201854 -0.176389,0.346375 0.831656,0.662486 1.116012,0.709176 1.411111,0.231696 z M 23.812499,59.031173 c -0.388055,-0.08451 -1.077481,-0.338931 -1.532058,-0.565387 -0.722608,-0.359974 -0.798896,-0.584372 -0.606887,-1.785129 0.133784,-0.836638 0.06076,-1.564803 -0.186832,-1.863136 -0.33852,-0.407893 -0.07605,-0.48974 1.570479,-0.48974 1.087309,0 3.083961,0.189836 4.437003,0.421855 2.269948,0.389255 2.518021,0.369418 3.209809,-0.256639 0.498809,-0.451418 0.704735,-0.985079 0.615286,-1.594531 -0.07395,-0.50382 0.06123,-1.098818 0.300379,-1.322222 0.272014,-0.254099 0.430932,-1.398718 0.424428,-3.056985 -0.01123,-2.864069 -0.165291,-3.199617 -2.733878,-5.954547 -1.534266,-1.645575 -2.549282,-2.092854 -3.730325,-1.643825 -0.483137,0.183688 -1.217172,0.208672 -1.631189,0.05552 -0.708165,-0.261969 -0.668132,-0.345493 0.675763,-1.409877 0.847215,-0.671004 1.519465,-0.98426 1.652009,-0.7698 0.122917,0.198882 0.894794,0.361608 1.715281,0.361608 1.550732,0 6.721492,1.931833 8.344343,3.117505 0.501781,0.366606 1.166312,1.468286 1.541642,2.55579 0.560667,1.624482 0.608313,2.283989 0.317377,4.393177 -0.44511,3.226929 -2.242898,6.90189 -3.954626,8.083882 -2.215232,1.529677 -7.389065,2.384284 -10.428004,1.722484 z m 2.293056,-9.254776 c 0,-0.366339 0.671058,-0.896663 0.869834,-0.687416 0.06453,0.06794 -0.104776,0.328217 -0.376248,0.578404 -0.271473,0.250183 -0.493586,0.29924 -0.493586,0.109012 z M 44.780954,37.509152 c -1.829382,-1.652739 -2.33172,-2.648938 -2.793573,-5.540038 -0.429751,-2.690122 0.05906,-7.90479 0.940745,-10.035877 0.868842,-2.100058 2.362062,-4.2676 2.949501,-4.281467 0.821926,-0.0194 7.074482,1.359626 8.199733,1.808485 1.890974,0.754302 4.479922,4.564297 5.234739,7.703635 0.330556,1.374809 -0.176696,4.526869 -0.980486,6.092739 -0.886798,1.727576 -3.636394,4.081637 -5.645407,4.833305 -1.19665,0.447724 -2.76576,0.715623 -4.19148,0.715623 -2.129493,0 -2.372829,-0.08494 -3.713772,-1.296405 z m 5.46699,-6.315826 c 1.472822,-1.472821 1.515409,-2.932605 0.104302,-3.575154 -2.566832,-1.168806 -5.321928,1.533721 -3.554515,3.48669 0.722531,0.79839 2.689846,0.848832 3.450213,0.08846 z"
       id="path18138" />
  </g>
</svg>
