<?xml version="1.0" encoding="UTF-8" standalone="no"?>
<!-- Created with Inkscape (http://www.inkscape.org/) -->

<svg
   width="55.656319mm"
   height="57.912537mm"
   viewBox="0 0 55.656319 57.912537"
   version="1.1"
   id="svg5"
   inkscape:version="1.1.1 (3bf5ae0d25, 2021-09-20)"
   sodipodi:docname="twitter.svg"
   xmlns:inkscape="http://www.inkscape.org/namespaces/inkscape"
   xmlns:sodipodi="http://sodipodi.sourceforge.net/DTD/sodipodi-0.dtd"
   xmlns="http://www.w3.org/2000/svg"
   xmlns:svg="http://www.w3.org/2000/svg">
  <sodipodi:namedview
     id="namedview7"
     pagecolor="#ffffff"
     bordercolor="#666666"
     borderopacity="1.0"
     inkscape:pageshadow="2"
     inkscape:pageopacity="0.0"
     inkscape:pagecheckerboard="0"
     inkscape:document-units="mm"
     showgrid="false"
     fit-margin-top="0"
     fit-margin-left="0"
     fit-margin-right="0"
     fit-margin-bottom="0"
     inkscape:zoom="0.71446409"
     inkscape:cx="123.16924"
     inkscape:cy="308.62293"
     inkscape:window-width="1920"
     inkscape:window-height="991"
     inkscape:window-x="-9"
     inkscape:window-y="-9"
     inkscape:window-maximized="1"
     inkscape:current-layer="layer1" />
  <defs
     id="defs2" />
  <g
     inkscape:label="Capa 1"
     inkscape:groupmode="layer"
     id="layer1"
     transform="translate(-72.761069,-67.1736)">
    <path
       style="fill:#4a4a4a;fill-opacity:1;stroke-width:0.264583"
       d="m 91.281904,124.36931 c -0.873125,-0.44731 -1.825625,-1.08275 -2.116667,-1.41207 -0.291041,-0.32932 -1.124479,-0.81548 -1.852083,-1.08035 -1.933321,-0.70379 -3.717249,-1.63667 -4.435452,-2.31945 -6.637643,-6.31031 -7.600118,-7.40047 -7.602101,-8.61058 -5.56e-4,-0.33199 -0.171263,-0.66896 -0.379376,-0.74882 -0.542074,-0.20801 -0.94453,-1.54961 -0.94453,-3.14862 0,-0.75866 -0.260457,-2.378 -0.578794,-3.59854 -0.473606,-1.81586 -0.581795,-2.98851 -0.595312,-6.452491 l -0.01652,-4.233333 0.921157,-1.852084 c 1.018987,-2.048782 2.370958,-4.101042 2.70165,-4.101042 0.117508,0 0.213651,-0.17995 0.213651,-0.399891 0,-0.990889 2.430005,-6.282899 3.825626,-8.331359 1.558705,-2.287833 2.066553,-2.79649 2.515201,-2.519211 0.138171,0.08539 0.437942,-0.205818 0.666158,-0.647138 0.228215,-0.441321 0.581805,-0.802401 0.785755,-0.802401 0.20395,0 0.706908,-0.402025 1.117685,-0.893389 0.410776,-0.491364 1.282648,-1.155858 1.937492,-1.476653 0.654843,-0.320795 1.449979,-0.892285 1.766968,-1.269978 0.376252,-0.448305 0.890573,-0.711462 1.481451,-0.757995 0.497811,-0.0392 1.591963,-0.37504 2.431449,-0.746301 0.839489,-0.371262 2.226662,-0.79442 3.082611,-0.940352 0.855951,-0.145933 2.300412,-0.393583 3.209917,-0.550333 2.32922,-0.401434 6.74967,-0.405176 7.93762,-0.0067 0.6839,0.229391 1.0423,0.532025 1.15316,0.973735 0.19083,0.760314 0.20126,0.762399 1.04583,0.20902 1.00049,-0.65555 2.77642,-0.293947 5.60878,1.142021 2.08221,1.055654 2.90981,1.693444 5.51205,4.247865 2.9243,2.870564 3.12495,3.138954 4.46263,5.969164 0.95635,2.023403 1.72021,4.210851 2.40801,6.895788 0.98965,3.863222 1.00185,3.970415 0.69406,6.09915 -0.1723,1.191746 -0.31374,3.529853 -0.31429,5.195792 -0.002,5.270166 -0.91766,9.275926 -2.89508,12.661726 -1.47694,2.52887 -2.57972,3.72311 -4.95302,5.36377 -1.06726,0.7378 -1.94048,1.44062 -1.94048,1.56183 0,0.12122 -0.56554,0.54025 -1.25677,0.93119 -0.69122,0.39094 -1.67349,0.98375 -2.18281,1.31735 -0.50932,0.33361 -1.2237,0.68075 -1.5875,0.77143 -0.3638,0.0907 -0.88748,0.33261 -1.16374,0.53761 -0.4153,0.30819 -0.44408,0.44288 -0.16616,0.77775 0.28843,0.34753 0.13443,0.49631 -1.08522,1.04847 -2.01723,0.91325 -5.21151,1.51464 -6.95596,1.30961 -1.22577,-0.14406 -5.311152,0.0965 -9.678923,0.57005 -0.967729,0.10491 -1.487821,-0.0232 -2.778125,-0.68422 z m 4.630208,-14.95413 c 3.063034,-0.22629 8.610618,-2.06039 10.821818,-3.57783 2.52422,-1.73225 4.22874,-4.38906 4.90691,-7.648336 0.54157,-2.602799 1.02414,-7.818424 0.83414,-9.015524 -0.14516,-0.914657 -0.12553,-0.942128 0.59738,-0.836025 0.65001,0.0954 0.88052,-0.07454 1.76767,-1.303227 1.11542,-1.54482 1.35421,-2.675562 0.75932,-3.595745 -0.42241,-0.653415 -1.38767,-0.784908 -1.94223,-0.264584 -0.29053,0.272605 -0.32484,0.182547 -0.19517,-0.512433 0.14033,-0.752089 0.4663,-1.489117 1.52386,-3.445478 0.25743,-0.476225 0.23436,-0.708989 -0.12456,-1.256771 -0.81161,-1.238676 -2.53605,-0.780722 -3.21949,0.854989 -0.22499,0.538469 -0.65803,1.244034 -0.9623,1.567922 l -0.55323,0.588889 -0.74766,-1.128752 c -0.8233,-1.242955 -2.47158,-2.676555 -3.54783,-3.085745 -1.09555,-0.41653 -2.54993,-0.281228 -3.73619,0.34758 -1.99129,1.055547 -4.27277,2.801605 -5.300817,4.056818 -0.894879,1.092614 -1.010824,1.396047 -0.987607,2.584581 0.03031,1.551703 1.339942,4.511361 2.913115,6.583401 0.529503,0.697412 0.889937,1.340815 0.800965,1.429787 -0.08897,0.08897 -0.97645,-0.213749 -1.972177,-0.672709 -0.995725,-0.458962 -1.895933,-0.834474 -2.000457,-0.834474 -0.104526,0 -0.856139,-0.426093 -1.670248,-0.946875 -0.814113,-0.520782 -2.088317,-1.241954 -2.831563,-1.602605 -1.95049,-0.946451 -2.824892,-1.471674 -3.587927,-2.155142 -1.433646,-1.284152 -2.734948,-1.046196 -2.870284,0.524859 -0.06606,0.766879 0.07035,1.058991 0.79375,1.699757 0.744563,0.659508 2.328729,2.771704 2.328729,3.104933 0,0.05891 -0.237524,0.16922 -0.527831,0.245137 -0.290308,0.07592 -0.609568,0.351033 -0.709468,0.611367 -0.265339,0.691462 0.629504,3.824727 1.294469,4.532548 0.440433,0.468821 0.499098,0.679336 0.256826,0.921607 -0.405082,0.405083 -0.40321,1.336033 0.0035,1.742747 0.174625,0.174625 0.650875,0.3175 1.058333,0.3175 0.474311,0 0.740834,0.139468 0.740834,0.387668 0,0.693255 1.624642,2.260045 3.08493,2.975075 0.784514,0.38414 1.33408,0.77814 1.221251,0.87555 -0.112826,0.0974 -0.877996,0.44286 -1.700374,0.76766 -1.138904,0.44982 -1.772849,0.54892 -2.660158,0.41586 -1.052429,-0.15782 -1.248523,-0.0966 -2.030645,0.63402 -0.618404,0.57767 -0.819099,0.95561 -0.702518,1.32292 0.08976,0.28282 0.0393,0.59079 -0.112141,0.68439 -0.385449,0.23822 -0.344483,1.65046 0.05538,1.90926 0.181901,0.11773 1.104635,0.28859 2.050521,0.37969 1.696156,0.16336 2.445641,0.14329 6.879166,-0.18426 z m -2.888369,-2.58793 c 0.06064,-0.0512 0.490141,-0.22109 0.954456,-0.37764 0.700553,-0.2362 0.819552,-0.22037 0.699299,0.093 -0.08184,0.21328 -0.497263,0.37764 -0.954458,0.37764 -0.445246,0 -0.759928,-0.0418 -0.699297,-0.093 z m 4.325464,-12.477436 c -0.446524,-0.196048 -0.980572,-0.559733 -1.186772,-0.80819 -0.265607,-0.320038 0.04823,-0.239115 1.076447,0.277571 0.798245,0.401122 1.500965,0.77452 1.561599,0.829773 0.249593,0.227449 -0.695655,0.0326 -1.451274,-0.299154 z M 102.5195,92.07689 c -0.3979,-1.47769 -0.20623,-1.53344 0.3125,-0.0909 0.23258,0.646766 0.32315,1.175941 0.20127,1.175941 -0.12188,0 -0.35307,-0.488268 -0.51377,-1.085041 z m -4.222087,-8.358199 c 0.0022,-0.117729 0.119468,-0.392646 0.260533,-0.610927 0.221033,-0.342024 0.25704,-0.33504 0.260532,0.05053 0.0022,0.246073 -0.115011,0.52099 -0.260532,0.610927 -0.145521,0.08994 -0.26276,0.0672 -0.260533,-0.05053 z m 1.58345,-2.037828 c 0,-0.05719 0.184777,-0.17489 0.410617,-0.261553 0.23546,-0.09035 0.34166,-0.046 0.24897,0.103984 -0.15538,0.251408 -0.659587,0.371858 -0.659587,0.157569 z m 5.249177,-1.610479 -0.41044,-0.905536 0.77435,0.400434 c 0.66975,0.34634 0.72833,0.460758 0.43363,0.846979 -0.1874,0.245599 -0.35116,0.472895 -0.36391,0.505102 -0.0128,0.03221 -0.20788,-0.348934 -0.43363,-0.846979 z m 19.08288,27.246756 c -0.004,-0.14552 -0.30024,0.21167 -0.65875,0.79375 -0.35851,0.58208 -0.64874,1.1774 -0.64494,1.32292 0.004,0.14552 0.30023,-0.21167 0.65874,-0.79375 0.35852,-0.58209 0.64874,-1.1774 0.64495,-1.32292 z M 79.338442,92.292232 c 0.228402,-0.551093 0.2996,-0.930497 0.158217,-0.843119 -0.392125,0.242348 -1.047972,1.623698 -0.860106,1.811565 0.212879,0.212879 0.211498,0.214784 0.701889,-0.968446 z M 89.826696,73.647615 c 0,-0.220837 -1.252003,0.895026 -1.832034,1.632822 -0.425366,0.541064 -0.224851,0.418562 0.595313,-0.363699 0.680196,-0.648763 1.236721,-1.219868 1.236721,-1.269123 z m 22.886454,-2.446102 c -0.0899,-0.145521 -0.36485,-0.26276 -0.61092,-0.260531 -0.38557,0.0035 -0.39256,0.0395 -0.0505,0.260531 0.51815,0.334856 0.86841,0.334856 0.66145,0 z"
       id="path836" />
  </g>
</svg>
