<?xml version="1.0" encoding="UTF-8" standalone="no"?>
<!-- Created with Inkscape (http://www.inkscape.org/) -->

<svg
   width="74.41967mm"
   height="81.46608mm"
   viewBox="0 0 74.41967 81.46608"
   version="1.1"
   id="svg5"
   inkscape:version="1.1.1 (3bf5ae0d25, 2021-09-20)"
   sodipodi:docname="vrchat.svg"
   xmlns:inkscape="http://www.inkscape.org/namespaces/inkscape"
   xmlns:sodipodi="http://sodipodi.sourceforge.net/DTD/sodipodi-0.dtd"
   xmlns="http://www.w3.org/2000/svg"
   xmlns:svg="http://www.w3.org/2000/svg">
  <sodipodi:namedview
     id="namedview7"
     pagecolor="#ffffff"
     bordercolor="#666666"
     borderopacity="1.0"
     inkscape:pageshadow="2"
     inkscape:pageopacity="0.0"
     inkscape:pagecheckerboard="0"
     inkscape:document-units="mm"
     showgrid="false"
     fit-margin-top="0"
     fit-margin-left="0"
     fit-margin-right="0"
     fit-margin-bottom="0"
     inkscape:zoom="0.71446409"
     inkscape:cx="131.56715"
     inkscape:cy="248.43796"
     inkscape:window-width="1920"
     inkscape:window-height="991"
     inkscape:window-x="-9"
     inkscape:window-y="-9"
     inkscape:window-maximized="1"
     inkscape:current-layer="layer1" />
  <defs
     id="defs2" />
  <g
     inkscape:label="Capa 1"
     inkscape:groupmode="layer"
     id="layer1"
     transform="translate(-73.897151,-120.13486)">
    <path
       style="fill:#4a4a4a;fill-opacity:1;stroke-width:0.264583"
       d="m 107.33089,201.36752 c -4.90712,-0.76507 -11.760236,-3.3772 -15.874996,-6.05089 -1.0914,-0.70917 -3.10612,-1.87302 -4.47714,-2.58633 -1.37102,-0.71331 -3.10501,-1.82451 -3.8533,-2.46933 -3.2276,-2.78133 -5.74865,-6.98844 -7.4408,-12.4172 -0.91525,-2.93631 -0.95164,-3.20925 -1.04056,-7.80521 -0.0507,-2.61938 -0.23814,-5.65547 -0.41658,-6.74687 -0.52763,-3.22722 -0.40573,-10.19443 0.24072,-13.75841 1.57512,-8.68387 6.471,-17.35553 12.22516,-21.65341 0.50932,-0.38042 1.64042,-1.30523 2.51354,-2.05513 1.89534,-1.62786 5.84069,-3.93691 7.64611,-4.47496 3.321016,-0.98973 5.315466,-1.22097 10.477846,-1.2148 4.47655,0.005 5.59315,0.0953 8.43691,0.67935 1.80264,0.37025 3.66636,0.67319 4.14161,0.67319 2.94805,0 9.41839,2.06419 12.29232,3.92153 3.32339,2.14782 8.79427,8.57655 10.84795,12.74722 1.5825,3.21378 3.18742,8.03109 3.96664,11.90625 1.26261,6.27906 1.41235,8.03101 1.24377,14.55208 -0.18531,7.16882 -0.5979,9.48046 -2.83785,15.89981 -2.51487,7.20721 -3.56953,9.04167 -7.398,12.86797 -2.14601,2.14479 -2.81752,2.63203 -5.52188,4.0066 -1.69332,0.86067 -3.97173,1.80918 -5.06313,2.10779 -6.08284,1.66425 -15.69634,2.55863 -20.10834,1.87075 z m 17.79482,-15.52011 c 0.77449,-0.86549 1.72659,-3.3679 1.91466,-5.03231 0.10971,-0.97098 0.0545,-2.59538 -0.13314,-3.91729 -0.17632,-1.24212 -0.27758,-2.29957 -0.22502,-2.34988 0.0526,-0.0503 0.98853,0.0644 2.07993,0.25478 2.31425,0.40381 3.8443,0.12714 6.15999,-1.11384 1.18869,-0.63703 1.39237,-0.86216 1.465,-1.61931 0.0464,-0.48368 -0.10242,-1.42763 -0.33073,-2.09765 -0.2283,-0.67003 -0.41509,-1.6443 -0.41509,-2.16504 0,-0.52074 -0.13012,-1.36274 -0.28916,-1.8711 -0.28712,-0.91775 -0.88716,-11.52546 -1.24432,-21.9973 -0.1652,-4.84347 -0.24344,-5.5257 -0.69034,-6.01928 -0.6588,-0.7276 -2.04006,-0.71936 -3.59701,0.0215 -1.07062,0.50942 -1.68398,0.57096 -6.08542,0.61054 -2.69214,0.0242 -6.20448,0.20511 -7.80521,0.40202 -1.60073,0.1969 -4.3987,0.37878 -6.21771,0.40417 -1.81901,0.0254 -5.44757,0.17345 -8.06348,0.32901 -2.615896,0.15556 -5.296616,0.21883 -5.957156,0.1406 -0.78794,-0.0933 -1.54613,0.002 -2.20451,0.27706 -0.55195,0.23062 -1.62169,0.49839 -2.37721,0.59506 -2.60759,0.33361 -4.63735,1.84445 -4.29684,3.19831 0.44083,1.75273 0.9501,9.16183 1.0421,15.16091 0.0547,3.56526 0.2371,7.2562 0.40539,8.20208 0.2087,1.17302 0.22801,2.26657 0.0607,3.43959 -0.32534,2.28134 0.0512,3.25408 1.43649,3.71127 0.54934,0.1813 1.45383,0.29742 2.00999,0.25805 1.18648,-0.084 4.77229,-0.099 8.690466,-0.0363 1.57331,0.0252 3.81751,-0.13739 5.15938,-0.3737 1.30618,-0.23002 3.14878,-0.48384 4.09466,-0.56404 0.94589,-0.0802 2.36205,-0.30864 3.14702,-0.50765 2.13587,-0.54151 2.44594,-0.37309 3.1174,1.69331 1.04189,3.20636 1.66238,4.66036 2.46687,5.78058 0.43654,0.60788 0.79371,1.1877 0.79371,1.28849 0,0.25466 1.49045,2.17598 2.6129,3.36826 0.74744,0.79393 1.12663,0.99218 1.89771,0.99218 0.5835,0 1.12707,-0.18264 1.37796,-0.46302 z m -2.22744,-4.73742 c -0.23927,-0.26845 -0.70435,-1.02388 -1.03352,-1.67872 -0.32916,-0.65485 -0.74204,-1.36922 -0.91749,-1.5875 -0.17546,-0.21828 -0.58203,-1.17078 -0.90351,-2.11667 -0.89861,-2.64405 -2.165,-5.63878 -2.59675,-6.14074 -0.31772,-0.36939 -0.74554,-0.43419 -2.33634,-0.35391 -1.07106,0.0541 -2.51553,0.28113 -3.20993,0.50459 -0.6944,0.22347 -1.97692,0.46952 -2.85005,0.54679 -0.87312,0.0773 -2.3614,0.28948 -3.30729,0.4716 -1.06326,0.20471 -4.05264,0.33309 -7.830766,0.33629 l -6.11098,0.005 0.12021,-1.0721 c 0.0661,-0.58965 -0.0277,-1.95887 -0.20853,-3.04271 -0.18082,-1.08384 -0.37187,-4.70905 -0.42457,-8.05603 -0.0527,-3.34698 -0.21484,-7.3951 -0.36031,-8.99583 -0.14547,-1.60073 -0.2649,-3.52028 -0.26539,-4.26566 l -8e-4,-1.35525 1.12448,-0.17357 c 0.61847,-0.0955 1.70151,-0.36219 2.40676,-0.59272 0.75754,-0.24762 1.67788,-0.35759 2.24896,-0.26873 0.53168,0.0827 3.1098,0.02 5.729176,-0.13946 2.61937,-0.15943 6.13172,-0.32297 7.80521,-0.36343 1.67349,-0.0404 4.41192,-0.21841 6.08541,-0.39545 1.67349,-0.17705 5.3049,-0.34288 8.0698,-0.36851 2.76489,-0.0256 5.3545,-0.14163 5.75468,-0.25778 l 0.72761,-0.21118 0.018,2.34379 c 0.01,1.28908 0.0585,2.82003 0.10811,3.40212 0.0496,0.58208 0.22052,4.39208 0.37986,8.46666 0.15934,4.07459 0.42479,8.24177 0.58988,9.26042 0.16509,1.01865 0.38938,2.56646 0.49842,3.43958 0.10903,0.87313 0.27579,1.77466 0.37056,2.0034 0.40677,0.98173 -2.12869,1.33059 -4.61911,0.63555 -4.71922,-1.31705 -5.30567,-0.64367 -4.64266,5.33086 0.20796,1.874 0.29665,3.80551 0.19708,4.29225 -0.17305,0.84591 -0.20023,0.86343 -0.61606,0.39687 z m -19.80475,-12.59278 c 1.55963,-0.796 2.66722,-2.48952 3.71687,-5.68318 0.46729,-1.42178 1.17462,-3.18037 1.57183,-3.90797 0.39721,-0.7276 0.98993,-2.00285 1.31715,-2.83388 0.32723,-0.83102 0.76163,-1.64927 0.96533,-1.81833 0.50829,-0.42185 0.46637,-2.0792 -0.0675,-2.66914 -0.24084,-0.26612 -0.76604,-0.48386 -1.16711,-0.48386 -0.9711,0 -1.82549,1.04886 -2.84116,3.48783 -0.44345,1.06487 -1.15652,2.65051 -1.58461,3.52363 -0.42808,0.87313 -1.04702,2.42094 -1.37544,3.43958 -0.73314,2.27403 -1.5675,3.83646 -2.04873,3.83646 -0.5418,0 -1.05231,-1.46787 -1.51885,-4.36717 -0.229956,-1.42906 -0.709196,-3.44208 -1.064986,-4.47337 -0.35578,-1.03129 -0.57845,-2.13626 -0.49481,-2.45547 0.10633,-0.4058 -0.0514,-0.78384 -0.52431,-1.25677 -0.81212,-0.81211 -1.10281,-0.83238 -2.2147,-0.15444 -1.20967,0.73757 -1.32809,1.5616 -0.52677,3.66563 0.95604,2.51032 1.16666,3.29909 1.63712,6.13118 0.5737,3.45357 1.41544,5.11879 3.00619,5.94721 1.539516,0.80174 1.774476,0.80701 3.214506,0.0721 z m 23.16711,-2.69996 c 1.21147,-1.21147 0.81789,-1.80753 -2.91849,-4.42 -1.52762,-1.06811 -2.77476,-2.06109 -2.77143,-2.20661 0.003,-0.14552 0.53069,-0.58281 1.17188,-0.97176 1.54491,-0.93714 2.78622,-2.66388 2.78622,-3.87579 0,-0.75306 -0.2174,-1.1386 -1.13385,-2.01082 -1.56463,-1.48912 -3.17653,-2.22361 -5.17312,-2.35724 -2.24877,-0.1505 -3.58356,0.22814 -4.50537,1.27801 -0.66845,0.76133 -0.77608,1.13284 -0.9296,3.20869 -0.19994,2.7035 0.16011,7.41448 0.63703,8.33499 0.5533,1.06791 1.10658,1.5533 1.7706,1.5533 1.5584,0 2.19515,-1.14323 1.52718,-2.74191 -0.61117,-1.46274 -0.47403,-1.65375 0.48257,-0.67212 1.28945,1.3232 7.29381,5.53069 7.89265,5.53069 0.28286,0 0.80654,-0.29224 1.16373,-0.64943 z m -10.12398,-10.57936 c 0.0827,-0.80168 0.23499,-1.5944 0.33832,-1.7616 0.27037,-0.43747 2.63779,-0.10491 3.60281,0.5061 0.71215,0.45091 0.74855,0.53856 0.37763,0.90948 -0.77992,0.77992 -2.14846,1.45387 -3.30675,1.62843 l -1.16245,0.1752 z"
       id="path836" />
  </g>
</svg>
