<?xml version="1.0" encoding="UTF-8" standalone="no"?>
<!-- Created with Inkscape (http://www.inkscape.org/) -->

<svg
   width="63.296932mm"
   height="60.662533mm"
   viewBox="0 0 63.296933 60.662534"
   version="1.1"
   id="svg5"
   inkscape:version="1.1.2 (0a00cf5339, 2022-02-04, custom)"
   sodipodi:docname="youtube.svg"
   xmlns:inkscape="http://www.inkscape.org/namespaces/inkscape"
   xmlns:sodipodi="http://sodipodi.sourceforge.net/DTD/sodipodi-0.dtd"
   xmlns="http://www.w3.org/2000/svg"
   xmlns:svg="http://www.w3.org/2000/svg">
  <sodipodi:namedview
     id="namedview7"
     pagecolor="#ffffff"
     bordercolor="#666666"
     borderopacity="1.0"
     inkscape:pageshadow="2"
     inkscape:pageopacity="0.0"
     inkscape:pagecheckerboard="0"
     inkscape:document-units="mm"
     showgrid="false"
     fit-margin-top="0"
     fit-margin-left="0"
     fit-margin-right="0"
     fit-margin-bottom="0"
     inkscape:zoom="0.733172"
     inkscape:cx="334.84639"
     inkscape:cy="88.655868"
     inkscape:window-width="1920"
     inkscape:window-height="1009"
     inkscape:window-x="-8"
     inkscape:window-y="-8"
     inkscape:window-maximized="1"
     inkscape:current-layer="layer1" />
  <defs
     id="defs2" />
  <g
     inkscape:label="Capa 1"
     inkscape:groupmode="layer"
     id="layer1"
     transform="translate(-16.023631,-125.30851)">
    <path
       style="fill:#414141;fill-opacity:1;stroke-width:0.264583"
       d="m 40.333653,185.73726 c -6.444188,-0.96474 -10.020513,-2.54514 -14.641163,-6.47001 -1.524093,-1.2946 -4.696824,-5.30423 -5.554937,-7.02022 -3.168422,-6.33596 -4.12493,-10.24238 -4.113827,-16.80104 0.0079,-4.64607 0.605652,-7.81496 2.51204,-13.31642 1.475835,-4.25897 2.747501,-6.55091 5.113047,-9.21531 1.632266,-1.83849 4.072139,-3.66202 4.899753,-3.66202 0.225647,0 1.421789,-0.49137 2.658094,-1.09193 3.194177,-1.55165 3.974016,-1.79618 7.539493,-2.36417 2.166202,-0.34508 4.435996,-0.49978 7.14375,-0.48689 5.722469,0.0272 8.839946,0.55813 14.514639,2.47177 8.324683,2.80726 12.547938,6.42563 16.368233,14.02381 1.646817,3.27536 2.328752,6.37719 2.504562,11.3922 0.152262,4.34334 -0.06651,6.26398 -1.160322,10.18646 -1.081905,3.8798 -4.972116,9.64701 -8.83784,13.10203 -4.344853,3.88324 -9.415544,6.5155 -15.848647,8.2272 -4.345546,1.15625 -9.515568,1.56069 -13.096875,1.02454 z m 2.47224,-17.22152 c 0.486609,-0.0761 4.296609,-0.16531 8.466667,-0.19813 7.271226,-0.0572 7.625135,-0.0836 8.636341,-0.64481 0.579929,-0.32183 1.320403,-0.58514 1.645499,-0.58514 1.464789,0 3.849881,-1.90078 4.216122,-3.36 0.09296,-0.37036 0.01987,-2.23641 -0.162433,-4.14679 -0.182293,-1.91038 -0.321948,-3.59248 -0.310343,-3.738 0.01161,-0.14552 0.0763,-2.08156 0.143764,-4.3023 l 0.122664,-4.03772 -0.767168,-0.39672 c -0.421941,-0.21819 -0.86006,-0.38141 -0.973592,-0.36272 -0.634953,0.10457 -1.13247,-0.0758 -1.13247,-0.41054 0,-0.54862 -1.04989,-1.20563 -1.926569,-1.20563 -0.412771,0 -0.694494,-0.0906 -0.626049,-0.20135 0.06845,-0.11075 -0.03032,-0.41301 -0.219474,-0.67169 -0.290608,-0.39743 -0.768858,-0.47145 -3.085391,-0.47753 -2.789899,-0.007 -6.096045,0.33542 -7.886798,0.81762 -1.152173,0.31025 -5.277773,0.15214 -6.628635,-0.25403 -1.102008,-0.33135 -2.276978,-0.12327 -3.144536,0.55688 -0.347046,0.27208 -0.908624,0.49469 -1.247952,0.49469 -0.352316,0 -1.014177,0.39722 -1.542998,0.92604 -0.509323,0.50932 -1.032418,0.92604 -1.162435,0.92604 -0.130016,0 -0.676478,0.41505 -1.21436,0.92234 -0.537882,0.50729 -1.357551,1.0207 -1.821487,1.14092 -0.676633,0.17533 -0.932567,0.45088 -1.293611,1.39276 -0.556725,1.45237 -0.575329,2.92687 -0.08826,6.99502 0.358563,2.99482 0.745559,4.69322 1.416759,6.21771 0.160174,0.3638 0.416754,1.13771 0.570177,1.71979 0.484422,1.83789 1.283052,2.53358 3.347256,2.91582 1.682498,0.31155 4.56048,0.29752 6.669309,-0.0325 z m -0.958032,-3.61424 c -0.389041,-0.41411 -0.650738,-1.20933 -0.848947,-2.57968 -0.446069,-3.084 -0.818084,-4.52328 -1.517717,-5.87186 -0.716758,-1.38159 -0.641723,-2.11681 0.27721,-2.71619 0.316386,-0.20636 0.945041,-0.36415 1.397013,-0.35064 0.451972,0.0135 0.933545,-0.0445 1.070165,-0.12896 0.553562,-0.34212 7.148708,0.78963 9.088276,1.55958 0.509323,0.20218 1.520711,0.43505 2.24753,0.51749 1.682855,0.19086 2.250387,0.69723 2.250387,2.00784 0,1.22496 -0.733404,2.07566 -1.78947,2.07566 -0.402124,0 -1.349928,0.41672 -2.106229,0.92604 -0.756301,0.50933 -1.433589,0.92605 -1.505085,0.92605 -0.07149,0 -0.522679,0.39957 -1.002625,0.88794 -0.987552,1.00487 -1.962827,1.5866 -2.305201,1.37501 -0.351186,-0.21705 -1.921049,0.5168 -2.751021,1.28599 -0.909743,0.84312 -1.765241,0.87241 -2.504286,0.0857 z m -5.210167,-0.18181 c -0.06854,-0.11089 -0.244301,-0.51643 -0.390589,-0.9012 -0.363766,-0.95678 0.192153,-0.91158 0.973228,0.0791 0.578289,0.73349 0.579702,0.75233 0.06641,0.88656 -0.288441,0.0754 -0.580512,0.0464 -0.649049,-0.0645 z m 2.462503,-0.0302 c 0.390002,-0.15629 0.781132,-0.15307 1.058334,0.009 0.335282,0.19569 0.18837,0.25456 -0.618628,0.24791 -0.92565,-0.008 -0.980776,-0.0398 -0.439706,-0.25663 z m -1.743106,-13.93151 c -0.522122,-0.18729 -0.385247,-0.6037 0.198437,-0.6037 0.291042,0 0.529167,0.11203 0.529167,0.24896 0,0.33868 -0.327396,0.4983 -0.727604,0.35474 z m 24.165175,-1.36194 c -0.113974,-0.18442 -0.135773,-0.40676 -0.04844,-0.49409 0.236794,-0.23679 0.494974,0.11147 0.36708,0.49516 -0.08962,0.26886 -0.151942,0.26865 -0.318638,-0.001 z m 8.043794,11.80459 c 0.0022,-0.10914 -0.115012,-0.19844 -0.260533,-0.19844 -0.145521,0 -0.26276,0.26789 -0.260532,0.59532 0.0033,0.48139 0.05313,0.51936 0.260532,0.19843 0.141066,-0.21828 0.258305,-0.48617 0.260533,-0.59531 z m 3.095207,-9.50846 c -0.08446,-0.21107 -0.147156,-0.14838 -0.159851,0.15985 -0.01148,0.27891 0.05104,0.43518 0.138965,0.34727 0.08792,-0.0879 0.09732,-0.31613 0.02087,-0.50712 z M 37.748454,129.62156 c -0.08792,-0.0879 -0.316124,-0.0973 -0.507118,-0.0209 -0.211067,0.0845 -0.148374,0.14716 0.159853,0.15985 0.278913,0.0115 0.435184,-0.051 0.347265,-0.13896 z"
       id="path1507" />
  </g>
</svg>
