<?xml version="1.0" encoding="UTF-8" standalone="no"?>
<!-- Created with Inkscape (http://www.inkscape.org/) -->

<svg
   width="152.02199mm"
   height="152.18057mm"
   viewBox="0 0 152.02199 152.18057"
   version="1.1"
   id="svg5"
   inkscape:version="1.1.2 (0a00cf5339, 2022-02-04, custom)"
   sodipodi:docname="chess.svg"
   xmlns:inkscape="http://www.inkscape.org/namespaces/inkscape"
   xmlns:sodipodi="http://sodipodi.sourceforge.net/DTD/sodipodi-0.dtd"
   xmlns="http://www.w3.org/2000/svg"
   xmlns:svg="http://www.w3.org/2000/svg">
  <sodipodi:namedview
     id="namedview7"
     pagecolor="#ffffff"
     bordercolor="#666666"
     borderopacity="1.0"
     inkscape:pageshadow="2"
     inkscape:pageopacity="0.0"
     inkscape:pagecheckerboard="0"
     inkscape:document-units="mm"
     showgrid="false"
     fit-margin-top="0"
     fit-margin-left="0"
     fit-margin-right="0"
     fit-margin-bottom="0"
     inkscape:zoom="0.71090067"
     inkscape:cx="282.73992"
     inkscape:cy="352.3699"
     inkscape:window-width="1920"
     inkscape:window-height="991"
     inkscape:window-x="-9"
     inkscape:window-y="-9"
     inkscape:window-maximized="1"
     inkscape:current-layer="layer1" />
  <defs
     id="defs2" />
  <g
     inkscape:label="Capa 1"
     inkscape:groupmode="layer"
     id="layer1"
     transform="translate(-30.256767,-54.070588)">
    <path
       style="fill:#414141;fill-opacity:1;stroke-width:0.264583"
       d="m 95.796774,205.9948 c -2.182812,-0.1831 -5.278437,-0.4464 -6.879167,-0.58512 -4.323659,-0.37466 -8.771422,-1.30178 -10.016855,-2.08799 -0.576855,-0.36416 -1.833269,-0.93451 -2.792029,-1.26746 -4.278842,-1.48593 -8.513641,-3.41978 -12.458825,-5.68942 -0.945886,-0.54417 -2.080012,-1.06681 -2.520278,-1.16144 -1.419736,-0.30514 -5.749259,-2.63895 -8.597644,-4.63451 -5.61933,-3.93687 -10.298547,-9.22777 -14.992917,-16.95284 -2.746363,-4.51943 -3.737274,-6.84365 -4.828953,-11.32651 -2.37291,-9.74408 -2.48227,-10.48472 -2.449195,-16.58703 0.02471,-4.5589 0.111832,-5.47063 0.935472,-9.78959 0.816168,-4.27978 2.080661,-8.70782 3.551114,-12.43542 0.287024,-0.7276 0.849077,-2.33494 1.249007,-3.57187 0.661588,-2.0462 1.072924,-2.98032 2.737945,-6.21771 0.299371,-0.58208 1.312895,-2.75405 2.252274,-4.82659 0.939379,-2.07255 2.299258,-4.57286 3.021952,-5.55625 2.173893,-2.95809 3.42736,-5.119304 4.5754,-7.88888 1.86373,-4.496131 5.944915,-11.948843 8.322625,-15.198072 1.224622,-1.67349 2.617743,-3.739579 3.095829,-4.59131 0.478084,-0.851731 1.350971,-2.280481 1.939751,-3.175 0.58878,-0.894519 1.237279,-2.035027 1.441114,-2.534462 0.535119,-1.311159 3.22871,-4.605806 4.313851,-5.276461 0.509977,-0.315183 0.991831,-0.741407 1.070787,-0.947164 0.26315,-0.685758 3.963488,-3.064928 5.429941,-3.491238 0.904423,-0.262922 1.914795,-0.365068 2.695949,-0.272552 1.120658,0.132726 1.508966,0.015 3.768561,-1.142567 1.385543,-0.709798 2.976322,-1.369633 3.535063,-1.4663 0.558742,-0.09667 2.325582,-0.590547 3.926311,-1.09751 1.60073,-0.506963 3.283985,-1.035396 3.740566,-1.174296 2.693474,-0.819399 15.709597,-1.268401 22.320897,-0.769977 4.87614,0.36761 6.81875,0.665819 8.60244,1.320555 0.72952,0.267784 2.42417,0.620356 3.7659,0.783494 1.34173,0.163139 2.76891,0.424944 3.17152,0.58179 1.26241,0.491807 6.74946,1.557163 8.02006,1.557163 1.19052,0 3.70985,0.58689 6.07341,1.41483 0.65485,0.229388 2.50031,0.85718 4.10104,1.395094 3.64559,1.225072 7.72291,3.225345 10.98021,5.386718 3.42901,2.275308 9.51212,8.374491 10.20175,10.228702 0.26308,0.707363 0.79306,1.702834 1.17771,2.212157 1.23638,1.637102 2.58265,4.051121 3.95267,7.087574 0.73514,1.62935 1.33662,3.059687 1.33662,3.178527 0,0.118838 0.41643,0.907625 0.9254,1.752855 1.50522,2.499661 3.99513,9.86339 5.06133,14.96855 0.57536,2.75491 0.9008,9.4403 0.62206,12.77851 -0.85135,10.1958 -1.89714,15.22376 -6.39487,30.74545 -3.82697,13.20688 -7.05625,20.96106 -11.4044,27.38437 -2.92372,4.31907 -4.46164,6.14022 -9.19309,10.88614 -4.38977,4.40319 -5.33517,5.20932 -8.73964,7.45214 -5.07188,3.3413 -10.75972,6.2236 -12.87015,6.5219 -0.87321,0.12343 -2.8845,0.63992 -4.46954,1.14777 -1.58504,0.50785 -3.77486,1.06805 -4.86627,1.24489 -1.0914,0.17684 -3.47265,0.59486 -5.29166,0.92894 -1.81901,0.33408 -4.31933,0.68431 -5.55625,0.7783 -4.24857,0.32282 -13.630099,0.31169 -17.594796,-0.0209 z m 5.754686,-5.31342 c -0.32742,-0.0631 -0.8632,-0.0631 -1.19062,0 -0.32742,0.0631 -0.0595,0.11466 0.59531,0.11466 0.65484,0 0.92273,-0.0516 0.59531,-0.11466 z m 7.73907,-0.0779 c -0.0899,-0.14552 -0.84111,-0.2467 -1.66927,-0.22485 l -1.50574,0.0397 1.19063,0.1851 c 1.8382,0.28578 2.161,0.28578 1.98438,0 z m -16.470318,-0.43981 c -0.181901,-0.0734 -0.479558,-0.0734 -0.661459,0 -0.181901,0.0734 -0.03307,0.13345 0.33073,0.13345 0.363802,0 0.51263,-0.06 0.330729,-0.13345 z m -3.241146,-0.65801 c -1.236927,-0.28741 -3.022865,-0.80388 -3.96875,-1.14772 -0.945886,-0.34385 -2.10538,-0.7028 -2.576653,-0.79767 -0.471276,-0.0949 -0.924785,-0.2824 -1.007804,-0.41673 -0.08302,-0.13432 -0.477969,-0.24423 -0.877673,-0.24423 -0.399701,0 -1.130181,-0.29765 -1.623287,-0.66145 -0.493107,-0.36381 -1.084514,-0.66146 -1.314241,-0.66146 -0.69795,0 -5.346436,-1.24079 -6.755551,-1.80321 -0.727605,-0.29041 -2.59981,-1.19412 -4.160457,-2.00824 -2.976229,-1.55257 -3.983842,-1.92252 -2.189544,-0.80391 3.156599,1.9679 12.369147,6.20286 13.493436,6.20286 0.188899,0 1.040154,0.37147 1.891676,0.82549 1.908347,1.01752 6.586569,2.03684 9.353431,2.03799 l 1.984375,8e-4 -2.248958,-0.52256 z m 32.350344,-0.39865 c -0.17913,-0.0725 -0.53631,-0.0769 -0.79375,-0.01 -0.25743,0.0671 -0.11086,0.12638 0.3257,0.13177 0.43656,0.005 0.64719,-0.0495 0.46805,-0.12197 z M 63.235939,189.9109 c -1.401787,-0.61048 -2.050564,-0.76871 -1.855108,-0.45246 0.180716,0.29241 1.541161,0.7673 2.269067,0.79207 0.218281,0.007 0.032,-0.1454 -0.413959,-0.33961 z m 84.969731,-2.5712 c 0.0886,-0.1433 -0.37866,0.13328 -1.03828,0.61464 -0.65963,0.48135 -1.20669,0.97448 -1.21569,1.09585 -0.0178,0.2397 1.99069,-1.2845 2.25397,-1.71049 z m -88.392231,1.09295 c -0.08994,-0.14552 -0.305324,-0.26276 -0.478636,-0.26054 -0.189339,0.002 -0.156705,0.10643 0.08176,0.26054 0.508297,0.32848 0.59989,0.32848 0.396876,0 z m 94.323961,-7.01548 0.92604,-0.97744 -1.02911,0.68917 c -0.56601,0.37904 -1.29409,0.68916 -1.61796,0.68916 -0.92668,0 -1.99839,1.02699 -2.67994,2.5681 -0.34436,0.77866 -0.62611,1.48449 -0.62611,1.56852 0,0.19099 3.77796,-3.21904 5.02708,-4.53751 z m -76.29187,0.7575 c -0.519949,-1.01435 -0.695764,-1.18567 -0.840505,-0.81904 -0.28812,0.72982 0.09809,1.78693 0.741852,2.03055 0.323067,0.12226 0.625362,0.18828 0.671764,0.14671 0.0464,-0.0416 -0.211497,-0.65277 -0.573111,-1.35822 z m 63.20984,-1.16271 c 0.88128,-0.40905 2.10168,-1.22833 2.71198,-1.82061 0.97443,-0.94565 1.10964,-1.21984 1.10964,-2.2502 0,-0.84327 -0.22304,-1.53212 -0.79283,-2.44874 -0.57259,-0.9211 -0.86048,-1.81413 -1.03634,-3.21468 -0.27771,-2.21168 -0.55209,-2.77756 -0.55209,-1.13864 v 1.10923 l -0.78061,-0.40367 c -0.42933,-0.22202 -0.94283,-0.40367 -1.1411,-0.40367 -0.33082,0 -1.67237,-0.64363 -3.81684,-1.8312 -0.87918,-0.48687 -2.54849,-2.47772 -2.83532,-3.38145 -0.0912,-0.28725 -0.52107,-0.92024 -0.95532,-1.40664 -0.43426,-0.48639 -0.78956,-0.99248 -0.78956,-1.12463 0,-0.23675 -0.95046,-2.21008 -2.33534,-4.84856 -0.38905,-0.74122 -0.97287,-1.67699 -1.29738,-2.07946 -0.32451,-0.40249 -0.90174,-1.40337 -1.28273,-2.22419 -0.38099,-0.82083 -1.0825,-2.26632 -1.55891,-3.21221 -0.47641,-0.94588 -1.02759,-2.55322 -1.22484,-3.57187 -0.19725,-1.01865 -0.79111,-2.68552 -1.31968,-3.70417 -1.95634,-3.77021 -2.67297,-5.03362 -3.0021,-5.29268 -0.18559,-0.14608 -0.42894,-0.5628 -0.54078,-0.92604 -0.11184,-0.36325 -0.54588,-1.35727 -0.96454,-2.20895 -0.41866,-0.85168 -0.7612,-1.73527 -0.7612,-1.96354 0,-0.22827 -0.19206,-0.62727 -0.4268,-0.88665 -0.23474,-0.25939 -0.46359,-0.98314 -0.50853,-1.60834 -0.0872,-1.21303 -1.05492,-5.98895 -1.43656,-7.08984 -0.12612,-0.3638 -0.29945,-1.06613 -0.38518,-1.56073 l -0.15587,-0.89928 2.97783,0.18408 c 1.6378,0.10124 3.75173,0.29329 4.69761,0.42678 4.28323,0.60445 4.57808,0.60441 7.07703,-10e-4 2.55851,-0.6199 3.62489,-1.31242 3.93723,-2.55686 0.12144,-0.48385 0.33816,-0.62131 0.98682,-0.6259 1.46888,-0.0104 2.55101,-1.29681 2.55101,-3.03257 0,-1.9962 -1.48834,-3.35167 -3.62704,-3.30323 -0.55174,0.0125 -1.95567,-0.06 -3.11984,-0.16113 -1.68358,-0.14623 -2.23924,-0.3052 -2.71573,-0.77695 -0.72095,-0.71376 -1.63441,-0.9196 -4.13036,-0.93074 -1.1416,-0.005 -2.06681,-0.14633 -2.34572,-0.35809 -0.43768,-0.33232 -0.43768,-0.36982 0,-0.75518 0.25331,-0.22302 1.05587,-0.70609 1.78348,-1.07348 2.0295,-1.02478 2.90084,-2.11445 3.85126,-4.81629 0.46071,-1.30969 1.17844,-3.036095 1.59496,-3.83646 1.09217,-2.098683 1.6388,-4.28887 1.75924,-7.048717 0.10432,-2.39055 0.0931,-2.443234 -0.97004,-4.557726 -0.81974,-1.630373 -1.39637,-2.392786 -2.4242,-3.20524 -0.74174,-0.586311 -1.66458,-1.143778 -2.05075,-1.238816 -0.38618,-0.09504 -0.94026,-0.318468 -1.2313,-0.49652 -0.29105,-0.178048 -1.20984,-0.53146 -2.04177,-0.78536 -1.33021,-0.405971 -1.76091,-0.422518 -3.57188,-0.137226 -2.31737,0.365067 -2.04373,0.35718 -4.18336,0.120605 -1.32853,-0.146891 -1.96932,-0.05603 -3.83646,0.544026 -3.10074,0.9965 -5.37785,2.177793 -6.8304,3.543406 -0.67758,0.637024 -1.94634,1.485051 -2.81947,1.884503 -0.873124,0.399452 -1.916572,1.068874 -2.318773,1.487606 -2.837429,2.954055 -3.287556,3.926182 -2.985553,6.447799 0.09599,0.801507 0.258416,2.231191 0.360939,3.177077 0.102524,0.945885 0.27926,1.865013 0.392751,2.042513 0.137628,0.21525 -0.09874,0.4502 -0.709785,0.7055 -1.402559,0.58603 -1.853168,1.47058 -1.670878,3.27994 0.133831,1.32838 0.272539,1.61743 1.138536,2.37257 0.542375,0.47294 1.215105,0.85989 1.494957,0.85989 0.27985,0 0.714595,0.25413 0.9661,0.56472 0.445108,0.54969 0.423857,0.59814 -0.798354,1.82036 -0.911146,0.91114 -1.279033,1.50026 -1.340914,2.14726 l -0.08528,0.89163 -1.5875,-0.0519 c -3.882546,-0.12687 -4.933887,-0.0712 -5.845265,0.30962 -0.531429,0.22204 -1.261121,0.40372 -1.621539,0.40372 -1.010259,0 -2.298084,0.72113 -2.797427,1.56645 -0.590568,0.99975 -0.601868,3.39264 -0.01995,4.22346 0.68444,0.97717 2.068772,1.44293 3.18943,1.07308 0.511321,-0.16875 2.435876,-0.33229 4.276792,-0.36341 1.840912,-0.0311 4.132358,-0.15187 5.092097,-0.26832 1.454899,-0.17652 1.861756,-0.1352 2.447459,0.24856 0.397801,0.26065 1.448367,0.52016 2.422207,0.59833 l 1.71973,0.13804 -0.0183,1.08826 c -0.0101,0.59854 -0.10849,2.81466 -0.21878,4.92471 -0.19566,3.74363 -0.22224,3.87168 -1.09829,5.29167 -0.49378,0.80036 -1.160618,1.66543 -1.481862,1.92237 -0.321246,0.25693 -0.728292,0.91178 -0.904544,1.45521 -0.176255,0.54342 -0.542063,1.30408 -0.812906,1.69035 -0.270841,0.38626 -0.49244,0.8066 -0.49244,0.93407 0,0.12748 -0.430977,1.24019 -0.957731,2.4727 -1.251278,2.92778 -2.290945,6.43712 -2.349164,7.92947 -0.05195,1.33169 -0.818089,3.25053 -1.824866,4.57048 -0.739137,0.96906 -2.642703,5.61101 -2.907392,7.08982 -0.132482,0.74019 -0.555022,1.27827 -1.951945,2.48567 -0.980573,0.84754 -2.05022,1.90336 -2.376991,2.34626 -0.326771,0.44291 -0.686615,0.87217 -0.79965,0.95392 -0.443113,0.32047 -2.63267,3.08529 -2.789251,3.52208 -0.09129,0.25466 -0.391091,0.46302 -0.666221,0.46302 -0.275129,0 -1.023008,0.41556 -1.661951,0.92347 -0.638942,0.50791 -1.441376,0.92463 -1.783186,0.92604 -1.205148,0.005 -2.465004,0.83703 -2.978155,1.96688 -0.624957,1.376 -0.621758,1.93612 0.01704,2.98378 0.677042,1.11039 1.651154,1.58566 4.01918,1.96095 1.06956,0.1695 2.315898,0.52978 2.769635,0.80062 0.945991,0.56466 3.100265,0.65916 4.251026,0.18649 0.409657,-0.16827 0.974947,-0.27616 1.256204,-0.23976 1.165329,0.15081 7.871487,-1.08702 8.484458,-1.56607 0.145521,-0.11373 0.681302,-0.27486 1.190625,-0.35807 4.674317,-0.76366 4.559607,-0.75772 5.596937,-0.28995 0.72197,0.32557 1.31405,0.4 2.13299,0.26814 0.62349,-0.10038 1.25268,-0.17908 1.3982,-0.17488 0.49503,0.0143 2.64108,0.48187 4.23334,0.92237 1.49595,0.41385 4.41206,0.90055 6.48229,1.0819 0.50932,0.0446 1.28323,0.19121 1.71979,0.32576 0.43656,0.13455 1.09141,0.15811 1.45521,0.0523 1.7785,-0.51698 7.99229,-0.0361 9.18496,0.71089 0.62517,0.39153 2.25708,0.45981 3.09994,0.1297 0.47546,-0.18622 3.19841,0.28658 3.52366,0.61184 0.08,0.08 1.16945,0.13346 2.42104,0.11885 1.9033,-0.0222 2.53777,-0.14826 3.87795,-0.77032 z m -7.84372,-5.92035 c -0.0615,-0.0615 -1.36129,-0.17615 -2.88837,-0.25473 -4.21594,-0.21695 -5.51605,-0.78772 -3.60915,-1.58447 1.95569,-0.81714 2.27432,-2.93115 0.87339,-5.79455 -0.79258,-1.61997 -0.93755,-2.5294 -0.23779,-1.49167 1.8092,2.683 2.18142,3.29116 2.18142,3.56417 0,0.16978 0.32742,0.7304 0.72761,1.24583 0.40018,0.51543 0.91439,1.27595 1.14269,1.69003 0.43787,0.79422 0.88253,1.06386 3.02449,1.83406 1.21446,0.43669 1.26869,0.49105 0.66146,0.66307 -0.78237,0.22163 -1.71838,0.28564 -1.87575,0.12826 z m -46.675293,-1.14522 c 0.238371,-0.2421 2.408333,-0.73562 4.497917,-1.02295 0.786755,-0.10819 0.787921,-0.10648 0.132292,0.19324 -0.363802,0.16632 -1.19724,0.39877 -1.852084,0.51656 -0.654843,0.11779 -1.607343,0.2969 -2.116666,0.39802 -0.625817,0.12425 -0.840264,0.0967 -0.661459,-0.0849 z m 8.813933,-2.09865 c 0.190995,-0.0764 0.419201,-0.067 0.507119,0.0209 0.08792,0.0879 -0.06835,0.15045 -0.347266,0.13896 -0.308226,-0.0127 -0.370919,-0.0754 -0.159853,-0.15985 z m 7.45794,-0.0975 c -0.21828,-0.14855 -1.17078,-0.24875 -2.11666,-0.22266 -2.863465,0.079 -3.896549,-0.009 -3.41364,-0.2916 0.912157,-0.53326 4.4793,-0.27371 5.79489,0.42165 0.3638,0.19229 0.54239,0.35256 0.39687,0.35615 -0.14552,0.004 -0.44318,-0.11499 -0.66146,-0.26354 z m 23.70377,-7.06418 c -0.10539,-0.32752 -0.60731,-0.91255 -1.11537,-1.30007 -0.95613,-0.72927 -1.48963,-1.56195 -1.78138,-2.78035 l -0.16934,-0.70716 0.72752,0.7373 c 1.43539,1.45469 2.83493,3.75424 2.63711,4.33298 -0.0588,0.17204 -0.19314,0.0448 -0.29854,-0.2827 z m -3.57454,-6.0636 c -0.0115,-0.17 -0.0894,-0.52718 -0.17316,-0.79375 -0.14474,-0.46069 -0.13728,-0.46127 0.15102,-0.0117 0.1668,0.26014 0.24472,0.61733 0.17315,0.79375 -0.0939,0.2315 -0.13594,0.23475 -0.15101,0.0117 z m -4.68058,-10.47268 c -0.38491,-0.76398 -0.90534,-1.68672 -1.15649,-2.05052 -0.25116,-0.3638 -0.53759,-0.99592 -0.6365,-1.4047 -0.0989,-0.40878 -0.65205,-1.25554 -1.22921,-1.88167 -0.85205,-0.92437 -1.04826,-1.33187 -1.04348,-2.16718 l 0.006,-1.02874 0.51156,0.66146 c 0.7163,0.9262 2.47604,4.40945 2.9038,5.74782 0.19646,0.61469 0.57247,1.34868 0.83558,1.6311 0.4776,0.51264 0.96157,1.88149 0.66522,1.88149 -0.0861,0 -0.47145,-0.62507 -0.85636,-1.38906 z m -8.38868,-21.2725 c -0.0994,-0.0994 -0.17015,-0.78603 -0.15714,-1.52576 l 0.0237,-1.34497 0.36214,1.32078 c 0.33134,1.20848 0.21545,1.99405 -0.22865,1.54995 z m -0.79816,-3.97316 c -0.097,-0.097 -0.17639,-0.29942 -0.17639,-0.44979 0,-0.16579 0.12324,-0.15017 0.31309,0.0397 0.1722,0.1722 0.25158,0.3746 0.17639,0.44979 -0.0752,0.0752 -0.21608,0.0573 -0.31309,-0.0397 z m -2.02442,-25.289757 c 0.003,-0.481394 0.0531,-0.519367 0.26053,-0.198438 0.3315,0.512964 0.3315,0.79375 0,0.79375 -0.14552,0 -0.26276,-0.26789 -0.26053,-0.595312 z m 16.05821,-3.201565 c -0.17267,-2.446716 -0.60726,-3.564368 -2.19465,-5.643951 -0.50801,-0.665536 -0.8602,-1.27353 -0.78264,-1.351095 0.0776,-0.07756 0.5287,0.04516 1.00251,0.272732 0.47381,0.227566 1.1826,0.538933 1.57509,0.691926 1.97285,0.769027 2.38745,4.038187 0.93877,7.402385 -0.37817,0.878208 -0.38074,0.871668 -0.53908,-1.371997 z m 34.81884,82.398632 c 0.26289,-0.44784 0.40706,-0.81425 0.32037,-0.81425 -0.40964,0 -2.68686,2.65058 -2.96932,3.45615 -0.3132,0.89328 -0.29672,0.88511 0.92605,-0.45909 0.68471,-0.75271 1.46001,-1.73497 1.7229,-2.18281 z m -112.953571,-3.99011 0.411586,-1.18977 -1.182209,-1.18521 -1.182211,-1.1852 -0.566896,0.56689 -0.566896,0.5669 0.607179,1.01519 c 0.792099,1.32436 1.876433,2.7924 1.98348,2.68535 0.04641,-0.0464 0.269595,-0.61978 0.495967,-1.27415 z m 117.638451,-3.30643 c 0.62639,-1.16417 1.07788,-2.05714 1.00332,-1.98438 -0.0746,0.0728 -0.79398,0.91603 -1.59869,1.87392 -1.17722,1.40131 -1.41208,1.83282 -1.20195,2.20831 0.32621,0.5829 0.4034,0.4928 1.79732,-2.09785 z M 39.300136,162.75995 c -0.800875,-0.60662 -0.908767,-0.36838 -0.50406,1.11296 l 0.312581,1.14415 0.422421,-0.88112 c 0.410652,-0.85656 0.404215,-0.8949 -0.230942,-1.37599 z m 127.964444,-3.8068 c 0.35634,-0.9863 0.35182,-1.01621 -0.0929,-0.61373 -0.25713,0.2327 -0.8012,0.54997 -1.20904,0.70503 -0.49727,0.18906 -0.91192,0.66714 -1.25885,1.45142 l -0.51732,1.16949 0.59787,0.90293 0.59787,0.90292 0.75389,-1.74061 c 0.41464,-0.95735 0.92246,-2.20719 1.1285,-2.77745 z m -33.58945,-2.86578 c -0.0734,-0.1819 -0.13345,-0.0331 -0.13345,0.33073 0,0.3638 0.06,0.51263 0.13345,0.33073 0.0734,-0.1819 0.0734,-0.47956 0,-0.66146 z m -75.049162,-4.18353 c -0.2222,-0.50972 -0.252042,-0.28991 -0.142187,1.04734 0.07647,0.93086 0.163269,2.18101 0.192889,2.77813 0.02962,0.59712 0.0936,0.12581 0.142187,-1.04735 0.04858,-1.17316 -0.03822,-2.42331 -0.192889,-2.77812 z M 174.59481,133.26706 c 1.40376,-6.06428 1.9718,-10.02903 1.4804,-10.33272 -0.61069,-0.37743 -0.87422,0.51626 -1.07541,3.6469 -0.11473,1.78543 -0.46518,4.37733 -0.77878,5.75978 -0.74203,3.27115 -0.90288,4.44225 -0.56326,4.10104 0.14484,-0.14552 0.56652,-1.57427 0.93705,-3.175 z m 0.70926,-29.71761 c 0,-1.04934 -2.58106,-8.133891 -3.39128,-9.308435 -0.52066,-0.754793 -0.60246,-0.803722 -0.44232,-0.264583 0.10806,0.363802 0.37143,1.005115 0.58528,1.425141 0.38841,0.762902 1.30444,3.263429 1.56183,4.263401 0.51401,1.996946 1.26056,4.101046 1.45509,4.101046 0.12727,0 0.2314,-0.0975 0.2314,-0.21657 z M 169.6463,89.258776 c -1.46635,-3.266911 -2.87533,-5.795029 -4.15381,-7.453178 -0.3927,-0.509323 -0.86197,-1.392767 -1.04282,-1.963206 -0.4977,-1.569836 -5.79874,-6.801842 -8.98935,-8.872289 -2.88251,-1.870514 -6.07994,-3.451765 -9.12813,-4.51421 -1.85583,-0.646851 -4.6375,-1.332024 -3.57187,-0.879816 0.21828,0.09263 0.87312,0.49028 1.45521,0.883671 0.58208,0.39339 1.78903,1.040802 2.6821,1.438693 0.89307,0.397891 2.01776,1.129932 2.4993,1.626756 0.73057,0.753756 1.06494,0.903317 2.01951,0.903317 0.62918,0 1.85398,0.288502 2.72177,0.641114 1.53216,0.62257 4.7791,3.10541 5.52928,4.228064 0.20389,0.305128 0.72769,0.935976 1.16398,1.401884 0.82416,0.880089 3.15462,4.481592 3.64641,5.635189 0.1551,0.363802 0.76817,1.018645 1.36238,1.455208 1.11037,0.815777 1.31147,1.149286 3.64299,6.041742 0.75138,1.576708 1.41908,2.813818 1.48377,2.74913 0.0647,-0.06469 -0.52964,-1.559616 -1.32072,-3.322069 z M 150.69782,85.11289 c 0,-0.48268 -0.14149,-0.661459 -0.5235,-0.661459 -0.46237,0 -0.4883,0.07723 -0.22211,0.661459 0.16576,0.363802 0.40133,0.661458 0.5235,0.661458 0.12216,0 0.22211,-0.297656 0.22211,-0.661458 z M 128.87751,81.2072 c 0.0896,-0.356793 -0.11592,-1.184698 -0.50889,-2.050521 -0.74645,-1.644652 -0.82379,-1.447911 -0.37924,0.964766 0.32133,1.743875 0.62865,2.119588 0.88813,1.085755 z M 71.991981,72.871859 c 0.149759,-0.106913 0.719873,-0.826098 1.26692,-1.598192 1.187373,-1.675834 0.663218,-1.50763 -1.453134,0.466318 -1.293204,1.20619 -1.354635,1.314685 -0.747535,1.320226 0.363802,0.0033 0.783989,-0.08144 0.933749,-0.188352 z m 11.76264,-3.874879 c -0.0021,-0.158541 -0.07509,-0.55495 -0.162455,-0.880906 l -0.158842,-0.592651 -0.499004,0.634384 c -0.274453,0.348908 -0.499005,0.880938 -0.499005,1.182288 0,0.488413 0.07182,0.515183 0.661459,0.246528 0.363802,-0.165762 0.659834,-0.431099 0.657847,-0.589643 z m 56.227569,-4.653883 c -0.29104,-0.125065 -0.70776,-0.227391 -0.92604,-0.227391 -0.25016,0 -0.20125,0.08406 0.13229,0.227391 0.29104,0.125065 0.70776,0.227391 0.92604,0.227391 0.25016,0 0.20126,-0.08406 -0.13229,-0.227391 z M 89.902683,62.689451 c -0.125571,-1.405086 -0.259591,-1.460996 -1.778826,-0.742083 -0.952283,0.450627 -0.989843,0.502957 -0.374827,0.522228 0.380818,0.01193 1.025255,0.363166 1.455208,0.793119 0.424437,0.424436 0.78049,0.751858 0.791232,0.727604 0.01074,-0.02425 -0.03101,-0.609644 -0.09279,-1.300868 z"
       id="path836" />
  </g>
</svg>
