<?xml version="1.0" encoding="UTF-8" standalone="no"?>
<!-- Created with Inkscape (http://www.inkscape.org/) -->

<svg
   width="53.240864mm"
   height="62.302647mm"
   viewBox="0 0 53.240864 62.302647"
   version="1.1"
   id="svg5"
   inkscape:version="1.1.2 (0a00cf5339, 2022-02-04, custom)"
   sodipodi:docname="ea.svg"
   xmlns:inkscape="http://www.inkscape.org/namespaces/inkscape"
   xmlns:sodipodi="http://sodipodi.sourceforge.net/DTD/sodipodi-0.dtd"
   xmlns="http://www.w3.org/2000/svg"
   xmlns:svg="http://www.w3.org/2000/svg">
  <sodipodi:namedview
     id="namedview7"
     pagecolor="#ffffff"
     bordercolor="#666666"
     borderopacity="1.0"
     inkscape:pageshadow="2"
     inkscape:pageopacity="0.0"
     inkscape:pagecheckerboard="0"
     inkscape:document-units="mm"
     showgrid="false"
     fit-margin-top="0"
     fit-margin-left="0"
     fit-margin-right="0"
     fit-margin-bottom="0"
     inkscape:zoom="0.733172"
     inkscape:cx="130.25593"
     inkscape:cy="264.60367"
     inkscape:window-width="1920"
     inkscape:window-height="1009"
     inkscape:window-x="-8"
     inkscape:window-y="-8"
     inkscape:window-maximized="1"
     inkscape:current-layer="layer1" />
  <defs
     id="defs2" />
  <g
     inkscape:label="Capa 1"
     inkscape:groupmode="layer"
     id="layer1"
     transform="translate(-70.237346,-78.638568)">
    <path
       style="fill:#414141;fill-opacity:1;stroke-width:0.264583"
       d="m 97.941954,140.48631 c -0.727604,-0.26492 -1.896737,-0.75388 -2.598073,-1.08656 -1.167815,-0.55398 -1.503995,-0.5901 -3.993692,-0.42914 -2.056046,0.13292 -2.887379,0.0882 -3.411387,-0.1837 -0.459536,-0.23841 -0.604207,-0.4481 -0.429615,-0.62269 0.174592,-0.17459 -0.275265,-0.42628 -1.335892,-0.74742 -0.879521,-0.26629 -1.731346,-0.64348 -1.892944,-0.8382 -0.161599,-0.19471 -0.456822,-0.35402 -0.656052,-0.35402 -0.19923,0 -0.510948,-0.23813 -0.692706,-0.52917 -0.181759,-0.29104 -0.476281,-0.52917 -0.654494,-0.52917 -0.178213,0 -0.71512,-0.33973 -1.193126,-0.75495 -1.126187,-0.97826 -1.874571,-1.36171 -2.657672,-1.36171 -0.734104,0 -1.783306,-1.00465 -1.783306,-1.70759 0,-0.57589 -1.346671,-2.8314 -2.433907,-4.07649 -0.974868,-1.11642 -1.077659,-1.39391 -2.35544,-6.35878 -0.576868,-2.24145 -1.11888,-4.18866 -1.204471,-4.32715 -0.175973,-0.28473 -0.444741,-6.92355 -0.408515,-10.0907 0.01389,-1.21472 0.195666,-2.51612 0.434975,-3.11421 0.233609,-0.58385 0.411108,-1.82052 0.411108,-2.86426 0,-2.115974 0.56812,-3.867386 2.023543,-6.238222 0.530617,-0.864359 1.357703,-2.297338 1.837969,-3.184397 0.838212,-1.548194 4.208311,-5.141668 5.485671,-5.84927 0.316081,-0.175095 1.192536,-0.449925 1.947678,-0.610733 0.755142,-0.160808 1.648111,-0.501028 1.984375,-0.756043 0.336264,-0.255015 1.142216,-0.617476 1.791005,-0.805469 0.648789,-0.187993 1.816918,-0.749483 2.595843,-1.247755 0.778925,-0.498273 1.773563,-0.947556 2.210307,-0.998407 0.750688,-0.0874 1.246819,-0.288769 3.822194,-1.551317 0.810342,-0.397261 1.333981,-0.48227 2.116666,-0.343622 0.571977,0.101322 1.397146,0.188645 1.833708,0.194051 1.328786,0.01646 6.327786,-0.313896 6.686956,-0.441895 0.18532,-0.06605 0.88052,-0.04558 1.54488,0.04548 0.92258,0.126453 1.27509,0.312966 1.49223,0.789532 0.15966,0.350427 0.9142,0.932149 1.72115,1.326956 0.79027,0.386644 1.49484,0.854084 1.56571,1.038757 0.0709,0.184672 0.8038,0.532205 1.62875,0.772295 1.97542,0.574919 2.22197,0.715883 2.68815,1.536913 0.35558,0.62624 0.34812,0.78091 -0.0756,1.5678 -0.43659,0.810704 -0.43995,0.938654 -0.047,1.792622 0.23274,0.505783 0.53618,1.098199 0.6743,1.316481 0.13813,0.218281 0.47205,0.873125 0.74204,1.455208 0.26999,0.582083 0.98286,1.796688 1.58416,2.699121 0.6013,0.902432 1.09327,1.712782 1.09327,1.800778 0,0.08799 0.36514,0.895932 0.81143,1.795417 0.60234,1.214043 0.77111,1.85029 0.65497,2.469322 -0.086,0.458645 0.0251,1.874747 0.24692,3.146887 0.22184,1.27215 0.40335,3.13084 0.40335,4.13043 0,0.99958 0.11056,1.81742 0.24568,1.81742 0.13513,0 0.43279,0.1871 0.66146,0.41578 0.4675,0.4675 0.57973,2.75402 0.15597,3.17778 -0.1429,0.1429 -0.28174,1.68265 -0.30855,3.42168 -0.044,2.85495 -0.11877,3.30357 -0.77012,4.62175 -1.41638,2.8664 -1.54308,3.2931 -1.14113,3.8428 0.54273,0.74223 0.47871,0.99687 -0.98557,3.92047 -1.55582,3.10636 -1.88034,3.53016 -2.86957,3.74743 -0.398,0.0874 -1.24885,0.64037 -1.8908,1.22878 -0.64194,0.58842 -1.43505,1.17554 -1.76247,1.30472 -0.32743,0.12919 -0.59532,0.39307 -0.59532,0.5864 0,0.56691 -1.64097,1.97162 -2.64583,2.2649 -2.28716,0.66751 -7.30409,2.69137 -9.31284,3.75685 -1.182779,0.62737 -1.315066,0.62818 -2.990286,0.0182 z m -2.835772,-19.77808 c 0.541028,-0.2393 1.267381,-0.40731 1.614117,-0.37334 1.950379,0.19106 5.159611,-3.02115 7.038301,-7.04483 0.49051,-1.05055 0.69,-1.17621 2.65002,-1.66926 l 1.5875,-0.39935 0.33805,1.45521 c 0.18593,0.80036 0.3299,1.90225 0.31994,2.44863 -0.0132,0.7222 0.16214,1.17368 0.64211,1.65365 0.83448,0.83447 1.58904,0.83784 2.41609,0.0108 0.7631,-0.76309 0.85314,-2.02278 0.27507,-3.84848 -0.20734,-0.65485 -0.57437,-2.0836 -0.81562,-3.175 -0.24126,-1.09141 -0.5608,-2.28203 -0.71009,-2.64584 -0.39877,-0.97176 -1.20031,-4.01322 -1.81294,-6.87916 -0.29551,-1.382451 -0.59149,-2.766362 -0.65773,-3.075364 -0.16331,-0.761823 -1.40962,-1.260856 -2.30178,-0.921658 -0.94772,0.360326 -1.10444,0.709967 -1.15939,2.586673 -0.0294,1.005769 -0.21179,1.869399 -0.47361,2.243199 -0.23415,0.3343 -0.42572,1.0531 -0.42572,1.59734 0,0.54425 -0.22047,1.61909 -0.48994,2.38853 -0.26946,0.76944 -0.75704,2.23242 -1.0835,3.25107 -0.67445,2.10441 -1.26098,3.42032 -1.93229,4.33516 -0.254664,0.34705 -0.463024,0.80326 -0.463024,1.0138 0,0.56937 -1.811755,2.67409 -2.470727,2.87025 -0.314589,0.0936 -0.86405,0.35505 -1.22102,0.58089 -0.490231,0.31016 -1.299467,0.3996 -3.307292,0.36554 -1.462039,-0.0248 -3.353994,-0.0487 -4.204343,-0.0532 l -1.54609,-0.008 0.138093,-1.24491 c 0.07595,-0.6847 0.215852,-1.60592 0.310889,-2.04716 0.342969,-1.59233 -2.050934,-2.95737 -3.11714,-1.77744 -0.290424,0.32141 -0.510114,1.46118 -0.718274,3.72648 -0.405905,4.41728 -0.335697,4.53005 2.846691,4.57268 1.269952,0.017 3.082911,0.11791 4.028796,0.22424 2.859847,0.32145 3.67714,0.29347 4.704853,-0.1611 z m 10.642458,-12.56786 c 0.003,-0.67899 0.55296,-2.34288 0.77468,-2.34288 0.12216,0 0.27248,0.34316 0.33404,0.76257 0.0806,0.54887 -0.0593,0.92737 -0.49914,1.35069 -0.40019,0.38517 -0.61055,0.46441 -0.60958,0.22962 z m 7.93197,8.83577 c 0.002,-0.1819 -0.11501,-0.33073 -0.26053,-0.33073 -0.14552,0 -0.26276,0.32742 -0.26053,0.7276 0.003,0.56699 0.0607,0.64 0.26053,0.33073 0.14107,-0.21828 0.2583,-0.5457 0.26053,-0.7276 z m -12.69595,-6.71196 c 0,-0.14552 -0.11906,-0.191 -0.26458,-0.10106 -0.14552,0.0899 -0.26458,0.28258 -0.26458,0.4281 0,0.14552 0.11906,0.191 0.26458,0.10106 0.14552,-0.0899 0.26458,-0.28258 0.26458,-0.4281 z m -5.840889,-0.62599 c 0.597525,-0.59399 0.619474,-0.71079 0.320879,-1.70742 -0.359362,-1.19944 -1.097494,-1.56302 -2.346672,-1.15589 -0.402751,0.13127 -1.089461,0.19309 -1.526024,0.13739 -0.436562,-0.0557 -2.53924,-0.14869 -4.672617,-0.20664 -3.458227,-0.0939 -3.943609,-0.0529 -4.475869,0.37806 -0.387454,0.31374 -0.597,0.77155 -0.597,1.30431 0,1.49688 0.326593,1.63312 3.893296,1.6241 1.770957,-0.004 3.514526,0.11715 3.874598,0.27029 0.3811,0.16208 1.539185,0.21888 2.771342,0.13593 1.772314,-0.11933 2.221013,-0.24624 2.758067,-0.78013 z m -3.551817,-9.48699 c 0.873125,-0.0507 2.140104,-0.212012 2.815511,-0.35843 0.698452,-0.151413 1.402519,-0.168553 1.632688,-0.03974 0.605147,0.33865 1.742411,-0.199816 2.032289,-0.96225 0.515199,-1.355077 -0.724067,-3.047452 -2.231539,-3.047452 -0.500734,0 -0.971436,0.09872 -1.046003,0.219368 -0.07457,0.12065 -0.796042,0.377809 -1.603275,0.571463 -1.204836,0.289034 -1.652871,0.290981 -2.501609,0.01087 -0.792415,-0.261523 -1.234198,-0.271402 -1.891405,-0.0423 -0.471623,0.164407 -1.37551,0.298924 -2.008639,0.298924 -1.375999,0 -2.209477,0.686438 -2.209477,1.819688 0,1.333532 1.313943,1.929769 3.836459,1.740909 0.873125,-0.0654 2.301875,-0.16034 3.175,-0.21106 z m 18.123956,-7.062626 c 0,-0.570135 -1.39465,-2.10775 -1.91177,-2.10775 -0.18337,0 -0.14709,0.132558 0.0905,0.33073 0.21811,0.181901 0.68735,0.7764 1.04276,1.321108 0.35541,0.544709 0.67597,0.991194 0.71235,0.992188 0.0364,0.001 0.0661,-0.24033 0.0661,-0.536276 z"
       id="path836" />
  </g>
</svg>
