<?xml version="1.0" encoding="UTF-8" standalone="no"?>
<!-- Created with Inkscape (http://www.inkscape.org/) -->

<svg
   width="77.768196mm"
   height="75.259636mm"
   viewBox="0 0 77.768197 75.259637"
   version="1.1"
   id="svg5"
   inkscape:version="1.1.2 (0a00cf5339, 2022-02-04, custom)"
   sodipodi:docname="epic.svg"
   xmlns:inkscape="http://www.inkscape.org/namespaces/inkscape"
   xmlns:sodipodi="http://sodipodi.sourceforge.net/DTD/sodipodi-0.dtd"
   xmlns="http://www.w3.org/2000/svg"
   xmlns:svg="http://www.w3.org/2000/svg">
  <sodipodi:namedview
     id="namedview7"
     pagecolor="#ffffff"
     bordercolor="#666666"
     borderopacity="1.0"
     inkscape:pageshadow="2"
     inkscape:pageopacity="0.0"
     inkscape:pagecheckerboard="0"
     inkscape:document-units="mm"
     showgrid="false"
     fit-margin-top="0"
     fit-margin-left="0"
     fit-margin-right="0"
     fit-margin-bottom="0"
     inkscape:zoom="0.733172"
     inkscape:cx="281.65287"
     inkscape:cy="80.47225"
     inkscape:window-width="1920"
     inkscape:window-height="1009"
     inkscape:window-x="-8"
     inkscape:window-y="-8"
     inkscape:window-maximized="1"
     inkscape:current-layer="layer1" />
  <defs
     id="defs2" />
  <g
     inkscape:label="Capa 1"
     inkscape:groupmode="layer"
     id="layer1"
     transform="translate(-30.119133,-127.53379)">
    <path
       style="fill:#414141;stroke-width:0.264583;fill-opacity:1"
       d="m 60.857685,202.36973 c -0.432469,-0.428 -2.096717,-0.51653 -4.540856,-0.24156 -1.630669,0.18346 -1.834462,0.15252 -2.172277,-0.32978 -0.528531,-0.75458 -1.833687,-1.22752 -2.906924,-1.05336 -0.504253,0.0818 -0.985565,0.0376 -1.069578,-0.0984 -0.08402,-0.13594 -0.383855,-0.24716 -0.666308,-0.24716 -0.392663,0 -0.513551,-0.18432 -0.513551,-0.78304 0,-1.23627 -2.478052,-3.16187 -4.092196,-3.1799 -1.003425,-0.0112 -2.672892,-0.83307 -3.157801,-1.55456 -0.269278,-0.40065 -1.211754,-1.31742 -2.094391,-2.03725 -3.060529,-2.49602 -3.746099,-3.37604 -4.061609,-5.21366 -0.155943,-0.90826 -0.763854,-2.90154 -1.350912,-4.42951 -0.587058,-1.52797 -1.733532,-4.65333 -2.54772,-6.94525 l -1.480342,-4.16712 -0.06637,-3.51399 c -0.0558,-2.95461 0.0062,-3.62528 0.389528,-4.21321 0.403764,-0.61927 0.423353,-0.96528 0.171307,-3.02583 -0.156525,-1.27963 -0.202802,-2.80676 -0.102838,-3.39362 0.09996,-0.58686 0.262397,-2.73389 0.360964,-4.77119 0.167215,-3.4562 0.227709,-3.77469 0.903711,-4.75777 0.798605,-1.16137 0.888951,-1.73295 0.39814,-2.51887 -0.270229,-0.4327 -0.236692,-0.68909 0.19499,-1.49067 0.825905,-1.53362 3.573376,-4.33481 4.689809,-4.78152 0.555444,-0.22225 1.394131,-0.84266 1.86375,-1.37871 1.238395,-1.41356 4.838575,-4.09041 6.645051,-4.94082 0.856825,-0.40335 1.928388,-1.07472 2.38125,-1.49192 0.452864,-0.41721 1.448464,-1.17576 2.212449,-1.68567 0.763984,-0.50992 1.389062,-1.01006 1.389062,-1.11142 0,-0.10136 0.327422,-0.20186 0.727604,-0.22334 0.400183,-0.0215 2.39448,-0.11709 4.431771,-0.21247 2.037292,-0.0954 5.013855,-0.34361 6.614584,-0.55162 1.862595,-0.24204 5.482344,-0.38364 10.054167,-0.39331 3.929062,-0.008 7.441406,-0.0288 7.805208,-0.0455 3.19963,-0.14708 3.679783,-0.0584 5.970567,1.10317 2.519079,1.2773 4.635545,3.0173 5.134083,4.22088 0.281557,0.67973 0.430554,0.76785 1.07908,0.63814 0.695859,-0.13917 0.843576,-0.01 1.965095,1.72412 0.666969,1.03104 2.024753,2.81743 3.01729,3.96977 2.254848,2.61787 2.599828,3.19755 4.007188,6.73326 0.87981,2.21037 1.29767,2.94227 1.83988,3.22266 0.5767,0.29822 0.79178,0.72517 1.20866,2.39927 0.38933,1.56344 0.64346,2.09861 1.09405,2.30391 0.64338,0.29314 1.11561,1.34886 0.97461,2.17886 -0.0494,0.29104 0.033,2.19604 0.18325,4.23333 0.15215,2.06342 0.19177,5.45561 0.0894,7.65822 -0.16478,3.5468 -0.24187,4.01222 -0.74845,4.51881 -0.58726,0.58726 -0.82937,1.24446 -1.73483,4.70927 -0.65066,2.48979 -1.20838,3.8835 -1.55406,3.8835 -0.14042,0 -0.67567,0.74414 -1.18944,1.65364 -1.01621,1.79895 -3.501979,4.87189 -6.188363,7.65014 -0.937673,0.96974 -1.890337,2.0413 -2.117032,2.38125 -0.226695,0.33995 -0.680595,0.91575 -1.008668,1.27955 -0.328073,0.3638 -0.820439,1.06811 -1.094145,1.56512 -0.687782,1.24893 -1.275437,1.58646 -1.817807,1.04409 -0.469812,-0.46982 -0.26185,-0.55436 -4.181625,1.69993 -0.958115,0.55102 -2.214468,1.16854 -2.7919,1.37227 -0.957701,0.3379 -1.105654,0.32654 -1.685213,-0.12934 -0.629222,-0.49494 -0.651071,-0.49232 -2.26889,0.27279 -0.89845,0.4249 -2.247463,0.95486 -2.997803,1.17769 -1.228926,0.36495 -1.426427,0.3644 -1.991056,-0.006 -0.578831,-0.37926 -0.661305,-0.37101 -1.077544,0.10781 -1.071404,1.23247 -11.487563,2.24319 -12.52604,1.21544 z m 2.660542,-5.57885 c 0.06063,-0.0526 -0.371311,-0.0956 -0.959877,-0.0956 -0.588565,0 -1.489567,-0.17525 -2.002229,-0.38946 -0.833543,-0.34827 -0.968886,-0.34514 -1.279895,0.0296 -0.191284,0.23048 -0.590048,0.51859 -0.88614,0.64024 -0.305398,0.12548 0.663789,0.15402 2.239772,0.066 1.527969,-0.0854 2.827734,-0.19822 2.888369,-0.25078 z m 8.504171,-0.84325 c 0.335048,-0.12394 -0.287935,-0.19948 -1.57943,-0.19151 -1.567209,0.01 -2.170359,0.11071 -2.274694,0.38104 -0.116393,0.30157 0.168298,0.33609 1.57943,0.19151 0.94678,-0.097 1.970392,-0.26847 2.274694,-0.38104 z M 80.6059,193.5868 c 0.510781,-0.37782 0.506185,-0.3859 -0.132292,-0.23256 -0.363802,0.0874 -0.869817,0.16048 -1.124479,0.16247 -0.254661,0.002 -0.463021,0.19023 -0.463021,0.41832 0,0.47692 0.831993,0.30846 1.719792,-0.34823 z m -40.513014,-1.74841 c -0.564614,-0.63402 -1.290858,-1.21213 -1.613876,-1.28469 -0.323018,-0.0726 -0.520985,-0.0246 -0.439926,0.10653 0.185601,0.30031 2.744606,2.33093 2.937457,2.33093 0.0786,0 -0.319041,-0.51875 -0.883655,-1.15277 z m 44.556445,0.35222 c 2.804909,-1.09965 3.258058,-1.37601 2.98381,-1.81975 -0.18442,-0.2984 -0.372314,-0.26068 -1.028266,0.2064 -0.441439,0.31433 -1.614609,0.98037 -2.607046,1.48007 -2.243222,1.1295 -2.010857,1.17704 0.651502,0.13328 z m -13.418389,-0.003 c 0.28167,-0.15074 0.802696,-0.84748 1.15783,-1.54831 0.816909,-1.61209 4.096912,-6.47821 4.458388,-6.61433 0.149485,-0.0563 0.891429,-0.71217 1.648767,-1.4575 0.757341,-0.74534 1.720498,-1.52575 2.140352,-1.73425 0.760601,-0.37771 3.524827,-3.08074 4.238509,-4.14467 0.275606,-0.41086 0.306808,-0.73995 0.11739,-1.23816 -0.389625,-1.02479 -0.421354,-26.17962 -0.03939,-31.22993 0.286168,-3.78368 0.274558,-4.25252 -0.120219,-4.85502 -0.347416,-0.53023 -0.581305,-0.63399 -1.141198,-0.50626 -0.387324,0.0884 -1.537661,0.21078 -2.556306,0.27204 -7.259807,0.43664 -11.463068,1.09845 -13.417903,2.11265 -0.701878,0.36415 -1.432031,0.60227 -1.622557,0.52916 -0.190526,-0.0731 -0.664599,-0.012 -1.053497,0.1359 -0.595415,0.22638 -0.709734,0.19674 -0.723857,-0.18764 -0.01257,-0.34191 -0.07682,-0.30706 -0.256056,0.13884 -0.131609,0.32742 -0.391951,0.60268 -0.578543,0.61167 -0.18659,0.009 -1.232223,0.13066 -2.32363,0.27035 -1.091406,0.13969 -2.579687,0.30197 -3.307291,0.36061 -0.727605,0.0586 -2.096823,0.19472 -3.042709,0.30239 -0.945885,0.10767 -1.982798,0.16828 -2.304251,0.13468 -0.321455,-0.0336 -1.135647,0.27423 -1.809319,0.68404 -0.673671,0.40981 -1.541758,0.93303 -1.929082,1.1627 -0.387321,0.22967 -0.88261,0.73421 -1.100638,1.12121 -0.334152,0.59312 -0.341032,0.79231 -0.0438,1.26825 1.052507,1.68533 1.427342,5.03472 1.758564,15.71379 0.158091,5.09715 0.535477,7.67466 1.224579,8.36376 0.374753,0.37475 0.517554,0.94845 0.566557,2.27616 0.06316,1.71118 0.09888,1.79653 0.991561,2.36915 1.242422,0.79696 2.710791,2.23687 3.733903,3.66152 0.815607,1.13572 2.57265,2.74276 3.954185,3.61662 0.372144,0.23539 1.622301,1.3104 2.778125,2.38892 1.155822,1.07852 2.5293,2.22007 3.052175,2.53677 1.140844,0.69101 2.705722,1.89164 3.870815,2.96983 0.96013,0.88853 0.973222,0.89254 1.678548,0.51506 z m -1.617003,-3.85194 c -0.680197,-0.51398 -0.761868,-0.64546 -0.318977,-0.51355 0.68584,0.20428 1.653646,-0.0384 1.653646,-0.41465 0,-0.1546 -0.213135,-0.14199 -0.537882,0.0318 -1.134861,0.60736 -3.100898,-0.7524 -4.214847,-2.91508 -0.187383,-0.36381 -0.682961,-0.98217 -1.101278,-1.37415 -0.897734,-0.84121 -0.933204,-1.09906 -0.245763,-1.7865 0.396904,-0.39691 0.684749,-0.4668 1.25677,-0.30516 1.448806,0.40939 4.990278,-0.20825 6.211515,-1.08331 0.727993,-0.52163 1.806485,0.11804 1.806485,1.07146 0,0.42187 -0.172328,0.91005 -0.38295,1.08485 -0.423466,0.35144 -1.127302,2.10254 -1.321901,3.28878 -0.0689,0.42003 -0.413826,1.19394 -0.766498,1.7198 -0.352671,0.52585 -0.749853,1.16545 -0.882626,1.42133 -0.222538,0.42887 -0.312856,0.41123 -1.155694,-0.22563 z m -11.60706,-9.3934 c -0.596029,-0.80617 -0.596297,-0.81039 -0.03241,-0.5086 0.312735,0.16737 0.636124,0.48025 0.718643,0.69528 0.279593,0.72862 -0.08232,0.63016 -0.686237,-0.18668 z m 9.291437,-3.82929 c -0.320673,-0.22461 -0.583041,-0.64202 -0.583041,-0.92758 0,-0.43159 -0.122783,-0.49027 -0.727605,-0.34771 -0.400182,0.0943 -0.840713,0.27518 -0.978958,0.40191 -0.507071,0.46485 -1.689605,0.25486 -1.87624,-0.33317 -0.174998,-0.55138 -0.191354,-0.54794 -0.754544,0.15836 -0.797843,1.00059 -2.756786,1.2486 -3.555272,0.45011 -0.835962,-0.83596 -1.161185,-2.39436 -0.825921,-3.95764 0.355693,-1.65854 0.701926,-2.12403 1.729917,-2.32579 0.95558,-0.18755 1.813391,0.47306 1.612384,1.24171 -0.08018,0.30661 0.04936,0.53607 0.357945,0.63401 0.26598,0.0844 0.719719,0.52641 1.008311,0.98221 l 0.524708,0.82872 0.315037,-1.16995 c 1.050822,-3.90246 2.658213,-4.43789 4.121441,-1.37287 0.399854,0.83756 0.875887,1.70144 1.057855,1.91972 0.195982,0.2351 0.312311,1.03103 0.285374,1.95255 -0.03634,1.24315 -0.154247,1.62782 -0.586912,1.91474 -0.461489,0.30603 -0.627531,0.29874 -1.124479,-0.0493 z m -1.112208,-3.93463 c 0,-0.0642 -0.119063,-0.19026 -0.264583,-0.2802 -0.145521,-0.0899 -0.264584,-0.0374 -0.264584,0.11667 0,0.15411 0.119063,0.2802 0.264584,0.2802 0.14552,0 0.264583,-0.0525 0.264583,-0.11667 z m 12.792723,3.29326 c -0.632899,-0.25534 -1.02608,-1.28695 -1.291865,-3.38955 -0.140427,-1.1109 -0.05327,-1.7454 0.417981,-3.04271 0.855107,-2.35405 1.584685,-2.81997 2.688035,-1.71662 0.410003,0.41 0.840538,0.56185 1.445294,0.50975 0.743413,-0.0641 0.886039,0.0242 1.041765,0.64467 0.116552,0.46438 0.03514,0.95833 -0.229957,1.39523 -0.375963,0.61962 -0.367927,0.78408 0.09579,1.96055 0.645258,1.63703 0.450651,2.01225 -1.596112,3.07748 -1.719993,0.89516 -1.73504,0.89844 -2.570936,0.5612 z m 1.951826,-3.26064 c -0.183316,-0.54996 -0.85078,-0.335 -0.94117,0.30309 -0.07853,0.55435 -0.03063,0.58562 0.479097,0.31282 0.311491,-0.16671 0.519425,-0.44387 0.462073,-0.61591 z m -10.23026,2.52761 c -0.49345,-0.40322 -0.58162,-0.83118 -0.723482,-3.51168 -0.141115,-2.6664 -0.104222,-3.10983 0.291679,-3.50573 0.249275,-0.24928 0.748456,-0.45323 1.10929,-0.45323 0.651002,0 0.697225,0.067 1.551974,2.24896 0.184142,0.47007 0.254524,0.42065 0.630267,-0.44262 0.232638,-0.53449 0.739815,-1.15895 1.127059,-1.3877 0.647364,-0.38241 0.747175,-0.37872 1.239012,0.0457 0.467318,0.40331 0.548243,0.85562 0.640278,3.57863 0.113184,3.34871 -0.01722,3.7477 -1.171532,3.58407 -0.427019,-0.0605 -0.702525,-0.36411 -0.918882,-1.0125 -0.187317,-0.56135 -0.44781,-0.88413 -0.661459,-0.81961 -0.193849,0.0585 -0.551032,0.11382 -0.793739,0.12284 -0.262575,0.01 -0.499819,0.30908 -0.585819,0.73908 -0.204783,1.02391 -1.013294,1.4032 -1.734646,0.81375 z m -17.172514,-9.85189 c 0,-0.3638 0.06005,-0.51263 0.133453,-0.33073 0.0734,0.1819 0.0734,0.47956 0,0.66146 -0.0734,0.1819 -0.133453,0.0331 -0.133453,-0.33073 z m 20.616614,-0.15434 c 0.0127,-0.30823 0.07539,-0.37092 0.159851,-0.15985 0.07643,0.19099 0.06703,0.4192 -0.02088,0.50712 -0.08792,0.0879 -0.150453,-0.0684 -0.138964,-0.34727 z m -17.784662,-1.20527 c -0.339053,-0.33905 -0.436267,-0.70738 -0.328679,-1.24532 0.186187,-0.93094 -0.592185,-6.43554 -1.069319,-7.56217 -0.189399,-0.44721 -0.598921,-1.03992 -0.910045,-1.31714 -0.311126,-0.27721 -0.565684,-0.71237 -0.565684,-0.96701 0,-0.38317 -0.172929,-0.43978 -1.003166,-0.32843 -1.186748,0.15918 -1.724922,-0.31239 -1.595641,-1.39815 0.115729,-0.97192 1.420093,-1.31424 4.847765,-1.27225 1.773936,0.0217 2.972771,-0.096 3.637952,-0.35725 1.210686,-0.4755 2.261063,-0.25575 2.559947,0.53556 0.316198,0.83715 -0.09469,1.43239 -1.098074,1.59077 -0.47657,0.0752 -1.680051,0.2681 -2.6744,0.42862 -0.994352,0.16053 -1.940502,0.20992 -2.102557,0.10977 -0.162054,-0.10016 -0.04432,0.16945 0.261634,0.59912 0.305956,0.42967 0.760462,1.49297 1.010017,2.36288 0.249555,0.86991 0.573006,1.73048 0.718775,1.91238 0.360392,0.44971 1.122506,0.41662 1.523164,-0.0662 0.522656,-0.62976 1.56278,-0.49633 1.841289,0.23619 0.524216,1.3788 -0.570384,2.54194 -2.392154,2.54194 -0.833406,0 -0.840279,0.0108 -0.695476,1.09037 0.182782,1.36276 0.486667,1.69744 1.196362,1.31763 0.294796,-0.15777 1.269023,-0.31763 2.164945,-0.35524 l 1.628952,-0.0684 -0.172408,-1.4552 c -0.271362,-2.29044 -0.698939,-3.80499 -0.958569,-3.39542 -0.171127,0.26995 -0.224539,0.24407 -0.22764,-0.11031 -0.0021,-0.25466 0.08525,-0.46295 0.194387,-0.46286 0.109141,9e-5 0.156477,-0.60565 0.105193,-1.34608 -0.107672,-1.55455 0.54387,-3.54971 1.28951,-3.94877 0.693592,-0.3712 2.060454,-0.31758 3.348993,0.13138 1.012277,0.3527 1.235287,0.34065 2.640119,-0.14268 1.503029,-0.51712 1.548106,-0.51777 2.201619,-0.0318 0.785839,0.58434 0.979098,1.41621 0.451575,1.94373 -0.618289,0.61829 -0.742911,1.40734 -0.437158,2.76791 0.159147,0.70819 0.29586,1.73411 0.303808,2.27981 0.01119,0.76767 0.120504,0.99219 0.483116,0.99219 0.257765,0 0.745463,0.22414 1.083775,0.49809 0.542888,0.4396 0.578059,0.57939 0.299567,1.19062 -0.263078,0.57739 -0.48986,0.69254 -1.363933,0.69254 -0.576617,0 -1.121976,0.11906 -1.211913,0.26458 -0.08994,0.14552 -0.520491,0.26459 -0.956786,0.26459 -0.436296,0 -1.322647,0.1333 -1.969672,0.29622 -0.907683,0.22856 -1.266857,0.22116 -1.572372,-0.0324 -0.93759,-0.77813 -0.0931,-2.02658 1.551361,-2.29344 1.661364,-0.2696 1.707936,-0.51597 0.991756,-5.24643 l -0.200287,-1.32291 -0.306863,0.79375 c -0.674193,1.74389 -0.997816,2.11969 -2.173494,2.5239 -0.651463,0.22398 -1.336773,0.46326 -1.522916,0.53174 -0.271608,0.0999 -0.258556,0.54197 0.0661,2.23859 0.554932,2.90004 0.528717,3.25953 -0.264006,3.62072 -0.482989,0.22007 -0.74879,0.2245 -0.957332,0.016 -0.208542,-0.20855 -0.445299,-0.11081 -0.85272,0.35203 -1.029631,1.16968 -5.827231,1.59343 -6.818417,0.60224 z m 9.495544,-9.39049 c 0.684773,-0.18351 0.802156,-1.02016 0.176797,-1.26013 -0.988481,-0.37932 -1.433568,-0.18274 -1.433568,0.63315 0,0.81667 0.191836,0.91238 1.256771,0.62698 z m 11.015054,6.90552 c -2.124374,-0.93166 -2.749838,-2.87027 -2.246773,-6.96381 0.416875,-3.39217 1.53887,-5.20069 3.114572,-5.0203 1.002461,0.11477 1.181031,1.24319 0.323202,2.04238 -1.023472,0.95351 -1.44208,3.03348 -1.312069,6.51937 0.02069,0.5544 1.43029,1.58691 1.829583,1.34013 0.395547,-0.24446 1.365494,0.64962 1.365494,1.25869 0,1.21923 -1.348182,1.58041 -3.074009,0.82354 z m -3.739012,-17.76905 c 0.254661,-0.0666 0.67138,-0.0666 0.926041,0 0.254662,0.0666 0.0463,0.121 -0.463021,0.121 -0.509323,0 -0.717682,-0.0545 -0.46302,-0.121 z m 1.857118,-0.26556 c 0.257432,-0.0671 0.614619,-0.0627 0.79375,0.01 0.179131,0.0725 -0.03149,0.12736 -0.468056,0.12197 -0.436562,-0.005 -0.583126,-0.0647 -0.325694,-0.13178 z m 7.469444,-0.0812 c -0.08994,-0.14552 -0.03743,-0.26458 0.116676,-0.26458 0.15411,0 0.280199,0.11906 0.280199,0.26458 0,0.14552 -0.0525,0.26459 -0.116676,0.26459 -0.06417,0 -0.190261,-0.11907 -0.280199,-0.26459 z m -0.661458,48.68334 c 0.320929,-0.2074 0.282956,-0.25726 -0.198438,-0.26054 -0.327421,-0.002 -0.595312,0.11502 -0.595312,0.26054 0,0.3315 0.280786,0.3315 0.79375,0 z m 20.091565,-21.4974 c -0.0135,-0.906 -0.0614,-1.01381 -0.24654,-0.55489 -0.2063,0.51141 -0.0937,1.67937 0.16188,1.67937 0.0558,0 0.0939,-0.50602 0.0847,-1.12448 z m 3.72094,-4.92598 c 0,-0.6954 -0.17351,-1.48614 -0.38847,-1.77032 -0.37369,-0.49407 -0.38877,-0.48733 -0.39687,0.17708 -0.0158,1.29524 0.32585,3.13395 0.55588,2.99178 0.1262,-0.078 0.22946,-0.70734 0.22946,-1.39854 z M 87.352775,151.99964 c 0,-0.37738 -0.785797,-1.07723 -1.209524,-1.07723 -0.563594,0 -0.456488,0.46858 0.151191,0.66145 0.291041,0.0924 0.529166,0.27899 0.529166,0.41471 0,0.13571 0.119063,0.24675 0.264584,0.24675 0.145521,0 0.264583,-0.11056 0.264583,-0.24568 z m 13.589435,-2.26786 c -0.0838,-0.21828 -0.25489,-0.39687 -0.38027,-0.39687 -0.12539,0 -0.15944,0.17859 -0.0757,0.39687 0.0838,0.21828 0.25488,0.39688 0.38027,0.39688 0.12538,0 0.15944,-0.1786 0.0757,-0.39688 z m -5.619103,-4.43618 c -0.261307,-0.25936 -0.291697,-0.22897 -0.148113,0.14811 0.09936,0.26094 0.247303,0.40779 0.328766,0.32632 0.08146,-0.0815 1.69e-4,-0.29495 -0.180653,-0.47443 z M 51.506265,131.39187 c -0.05444,-0.0544 -0.494454,-0.006 -0.9778,0.10816 l -0.878816,0.20714 0.79375,0.15984 c 0.680329,0.13701 1.367724,-0.17028 1.062866,-0.47514 z"
       id="path1740" />
  </g>
</svg>
