<?xml version="1.0" encoding="UTF-8" standalone="no"?>
<!-- Created with Inkscape (http://www.inkscape.org/) -->

<svg
   width="89.606003mm"
   height="92.074997mm"
   viewBox="0 0 89.606004 92.074996"
   version="1.1"
   id="svg5"
   sodipodi:docname="facebook.svg"
   inkscape:version="1.1.1 (3bf5ae0d25, 2021-09-20)"
   xmlns:inkscape="http://www.inkscape.org/namespaces/inkscape"
   xmlns:sodipodi="http://sodipodi.sourceforge.net/DTD/sodipodi-0.dtd"
   xmlns="http://www.w3.org/2000/svg"
   xmlns:svg="http://www.w3.org/2000/svg">
  <sodipodi:namedview
     id="namedview7"
     pagecolor="#ffffff"
     bordercolor="#666666"
     borderopacity="1.0"
     inkscape:pageshadow="2"
     inkscape:pageopacity="0.0"
     inkscape:pagecheckerboard="0"
     inkscape:document-units="mm"
     showgrid="false"
     inkscape:zoom="0.88388348"
     inkscape:cx="-28.284271"
     inkscape:cy="5.0911688"
     inkscape:window-width="1920"
     inkscape:window-height="991"
     inkscape:window-x="-9"
     inkscape:window-y="-9"
     inkscape:window-maximized="1"
     inkscape:current-layer="layer1" />
  <defs
     id="defs2" />
  <g
     inkscape:label="Capa 1"
     inkscape:groupmode="layer"
     id="layer1">
    <path
       style="fill:#414141;stroke-width:0.352778;fill-opacity:1"
       d="m 36.290171,86.6198 c -0.08994,-0.08994 -1.157424,-0.193354 -2.372182,-0.229806 -1.477243,-0.04432 -2.465352,-0.268192 -2.983814,-0.676014 -0.426339,-0.335358 -1.488752,-0.692538 -2.360919,-0.793729 -2.324551,-0.269709 -5.267863,-1.103298 -6.877423,-1.947795 -2.943839,-1.544557 -6.507648,-5.903038 -7.831721,-9.578068 -0.45776,-1.27054 -0.87731,-1.755221 -2.017556,-2.330771 C 8.8707437,69.561542 7.8689215,66.283954 7.4319985,56.620831 7.1033892,49.353211 7.2207273,47.753992 8.260289,45.331943 8.5934015,44.555832 9.0001856,43.211639 9.1642531,42.34485 9.4321412,40.929566 9.3758135,40.688477 8.6118345,39.980445 6.5794719,38.096915 8.1611838,32.446594 12.495875,26.105555 13.092738,25.23243 13.856582,23.911 14.193308,23.169044 c 0.817688,-1.801731 6.534603,-7.421465 9.649174,-9.485149 1.374685,-0.910852 3.557498,-2.003436 4.850695,-2.427962 1.678183,-0.550909 2.351267,-0.943982 2.351267,-1.3731126 0,-0.9843593 1.189321,-1.7731923 4.296233,-2.8495331 2.634509,-0.9126841 2.925004,-1.1013835 2.831352,-1.8391875 -0.06192,-0.4878165 0.193791,-1.0919795 0.628805,-1.4856629 0.704166,-0.6372595 0.826911,-0.6402113 3.102974,-0.074621 4.069711,1.0113052 8.178284,1.6578502 10.535073,1.6578502 1.455755,0 2.565851,0.1961434 3.103361,0.5483355 0.556341,0.3645285 0.913924,0.4236554 1.066743,0.1763889 0.126432,-0.2045705 0.717646,-0.3719466 1.313808,-0.3719466 0.905383,0 1.646485,0.5720711 4.499046,3.4729073 1.920917,1.9534258 3.826672,3.5762018 4.355761,3.7089958 0.534589,0.134172 1.404955,0.88123 2.016213,1.730565 3.184486,4.424789 5.13515,7.542889 6.961516,11.127865 1.117691,2.19392 2.245493,4.389718 2.506221,4.879554 0.290202,0.545203 0.592839,3.034302 0.78033,6.418001 0.168452,3.040062 0.312314,5.567076 0.319695,5.615583 0.0074,0.04851 0.226945,0.08819 0.487912,0.08819 0.260971,0 0.735189,0.288067 1.053818,0.640147 0.491801,0.543433 0.550658,1.24963 0.389594,4.674305 -0.104352,2.218789 -0.355597,5.335065 -0.558317,6.925066 -0.316177,2.479848 -0.288558,3.005166 0.194247,3.694469 0.731357,1.044159 0.709894,1.53749 -0.10044,2.308518 -1.113486,1.059483 -3.951273,4.969157 -8.001659,11.024041 -3.106851,4.644396 -4.369696,6.206249 -6.481424,8.016049 -1.442512,1.236264 -3.030012,2.328308 -3.527778,2.426758 -0.497765,0.09845 -1.392551,0.33225 -1.98841,0.519546 -0.59586,0.187301 -2.158926,0.340544 -3.473482,0.340544 -2.548915,0 -5.226113,0.636418 -7.452861,1.771678 -0.752746,0.383773 -1.930371,0.701089 -2.616951,0.70515 -0.68658,0.0041 -3.153325,0.237232 -5.481659,0.51816 -4.703078,0.567461 -5.277336,0.605917 -5.513994,0.369259 z m 7.366078,-7.802421 c 2.112341,-0.235609 2.204861,-0.286766 2.204861,-1.21909 0,-0.871044 0.118819,-0.967698 1.132371,-0.921142 2.032846,0.09338 2.214368,-0.784288 2.251053,-10.884094 0.0176,-4.850694 0.149296,-9.335381 0.292612,-9.965971 0.238915,-1.051208 0.374124,-1.146528 1.626295,-1.146528 2.789142,0 4.874909,-0.696479 6.166608,-2.059146 1.264825,-1.334319 1.543696,-2.425997 0.807727,-3.161965 -0.329258,-0.329258 -0.176914,-0.423333 0.685553,-0.423333 1.019535,0 2.207225,-0.991373 2.207225,-1.842386 0,-0.649079 -1.49346,-1.685392 -2.428872,-1.685392 -0.708854,0 -1.201642,-0.280638 -1.623596,-0.924624 -0.599669,-0.915207 -0.637131,-0.922175 -3.679221,-0.684198 l -3.073383,0.240429 -0.418585,-1.813402 c -0.46827,-2.028666 -0.491035,-1.972507 1.890953,-4.665161 1.222854,-1.382342 1.677102,-1.647098 3.175,-1.850538 2.629651,-0.357149 4.005558,-0.865932 4.416068,-1.632972 0.519303,-0.970329 0.157212,-1.797893 -1.098402,-2.5104 l -1.077965,-0.611699 1.253444,-1.10054 c 2.046549,-1.796892 1.563225,-3.496895 -0.994191,-3.496895 -0.795941,0 -1.673493,-0.246627 -2.032004,-0.571074 -0.710653,-0.643135 -2.269087,-0.487167 -3.962766,0.396593 -0.555756,0.289993 -1.394545,0.527259 -1.863979,0.527259 -0.600904,0 -1.068342,0.364101 -1.579355,1.230203 -0.531015,0.900005 -1.119628,1.342439 -2.192965,1.648362 -1.74709,0.497955 -2.569101,1.13062 -2.832492,2.180042 -0.111636,0.444802 -0.661461,0.949758 -1.2942,1.188591 -0.60506,0.228384 -1.185506,0.741819 -1.289886,1.140967 -0.10438,0.399148 -0.322555,0.725724 -0.484833,0.725724 -0.421827,0 -1.034595,2.254257 -1.371974,5.047241 -0.15954,1.320775 -0.37646,2.487796 -0.482043,2.593375 -0.105583,0.105583 -1.141222,0.303893 -2.301423,0.440693 -2.161826,0.2549 -3.228329,0.804376 -3.228329,1.663274 0,0.267285 -0.313841,0.485972 -0.697423,0.485972 -1.040722,0 -1.793277,1.445842 -1.980143,3.804334 -0.162145,2.046492 -0.134311,2.12888 1.079175,3.194336 0.800667,0.702994 1.245613,1.40812 1.245613,1.973972 0,1.261251 1.123511,1.734763 3.586233,1.511451 l 2.058211,-0.18663 v 1.010603 c 0,0.622748 -0.336024,1.322182 -0.875552,1.82246 l -0.875548,0.811855 0.350608,3.995363 c 0.192832,2.197449 0.586831,5.568121 0.875548,7.490375 0.288721,1.922258 0.524944,4.706341 0.524944,6.186854 v 2.691839 l 1.852083,-0.199527 c 1.018646,-0.109742 2.844271,-0.310198 4.056945,-0.44546 z m 3.409897,-43.980575 c 0.130281,-0.824618 0.507756,-1.752705 0.838835,-2.062417 0.546766,-0.511477 5.267088,-1.592132 5.581427,-1.277793 0.07285,0.07285 -1.150443,0.579047 -2.718435,1.12488 -3.072338,1.069514 -4.067242,2.071796 -3.151646,3.175024 0.372922,0.449343 0.344548,0.539612 -0.169608,0.539612 -0.528387,0 -0.583283,-0.216274 -0.380573,-1.499306 z m 16.236695,43.292253 c 0.376633,-0.284872 0.535383,-0.5129 0.352778,-0.50673 -0.182605,0.0062 -0.640165,0.244299 -1.016797,0.529167 -0.376633,0.284871 -0.535383,0.5129 -0.352778,0.50673 0.182605,-0.0062 0.640165,-0.244299 1.016797,-0.529167 z m 6.547157,-8.10267 c 0.600724,-0.873125 0.964385,-1.5875 0.808129,-1.5875 -0.156256,0 -0.715599,0.714375 -1.242984,1.5875 -0.527389,0.873125 -0.891046,1.5875 -0.808129,1.5875 0.08292,0 0.64226,-0.714375 1.242984,-1.5875 z M 21.519444,66.389646 c 0,-0.156943 -0.249898,-0.593506 -0.555328,-0.970138 -0.30543,-0.376633 -0.488658,-0.526038 -0.407173,-0.33201 0.08149,0.194028 0.247025,0.63059 0.367867,0.970139 0.225737,0.634291 0.594634,0.84026 0.594634,0.332009 z m -9.531833,-2.549637 c -0.63524,-1.186956 -0.792979,-0.558151 -0.282201,1.124948 0.413754,1.363394 0.477628,1.427889 0.575366,0.580958 0.06047,-0.523981 -0.07146,-1.291639 -0.293165,-1.705906 z m 16.940166,0.420221 c 0,-0.310472 -0.893366,-1.163235 -1.704833,-1.627346 -0.345095,-0.197375 -0.319233,0.0229 0.09725,0.828287 0.512795,0.991634 1.607579,1.535808 1.607579,0.799059 z m 46.851311,-5.532066 c -0.108617,-0.108617 -0.305876,0.08718 -0.438355,0.435091 -0.191445,0.502779 -0.150925,0.543299 0.197485,0.197485 0.241096,-0.239303 0.349487,-0.52396 0.24087,-0.632576 z m -23.818539,-0.87261 c -0.10148,-0.388056 -0.245367,-0.705556 -0.319751,-0.705556 -0.07438,0 -0.135244,0.3175 -0.135244,0.705556 0,0.388055 0.143888,0.705555 0.319751,0.705555 0.175863,0 0.236724,-0.3175 0.135244,-0.705555 z m 24.918694,-1.763889 c -7.05e-4,-0.291042 -0.233218,0.005 -0.516664,0.657863 -0.283446,0.652869 -0.509732,1.287868 -0.502856,1.411111 0.02561,0.458982 1.020776,-1.560579 1.01952,-2.068974 z"
       id="path14932" />
  </g>
</svg>
