<?xml version="1.0" encoding="UTF-8" standalone="no"?>
<!-- Created with Inkscape (http://www.inkscape.org/) -->

<svg
   width="68.942146mm"
   height="70.336082mm"
   viewBox="0 0 68.942147 70.336083"
   version="1.1"
   id="svg5"
   inkscape:version="1.1.2 (0a00cf5339, 2022-02-04, custom)"
   sodipodi:docname="gog.svg"
   xmlns:inkscape="http://www.inkscape.org/namespaces/inkscape"
   xmlns:sodipodi="http://sodipodi.sourceforge.net/DTD/sodipodi-0.dtd"
   xmlns="http://www.w3.org/2000/svg"
   xmlns:svg="http://www.w3.org/2000/svg">
  <sodipodi:namedview
     id="namedview7"
     pagecolor="#ffffff"
     bordercolor="#666666"
     borderopacity="1.0"
     inkscape:pageshadow="2"
     inkscape:pageopacity="0.0"
     inkscape:pagecheckerboard="0"
     inkscape:document-units="mm"
     showgrid="false"
     fit-margin-top="0"
     fit-margin-left="0"
     fit-margin-right="0"
     fit-margin-bottom="0"
     inkscape:zoom="0.733172"
     inkscape:cx="210.72818"
     inkscape:cy="347.80379"
     inkscape:window-width="1920"
     inkscape:window-height="1009"
     inkscape:window-x="-8"
     inkscape:window-y="-8"
     inkscape:window-maximized="1"
     inkscape:current-layer="layer1" />
  <defs
     id="defs2" />
  <g
     inkscape:label="Capa 1"
     inkscape:groupmode="layer"
     id="layer1"
     transform="translate(-48.885048,-56.977235)">
    <path
       style="fill:#414141;fill-opacity:1;stroke-width:0.264583"
       d="m 82.79515,127.0398 c -3.414691,-0.47399 -5.115435,-0.8444 -7.454984,-1.62361 -1.044303,-0.34781 -2.092632,-0.63239 -2.329619,-0.63239 -0.236988,0 -0.954519,-0.23854 -1.594514,-0.53009 -0.639996,-0.29155 -2.091979,-0.65876 -3.226631,-0.81602 -2.361578,-0.32731 -4.423123,-1.12352 -4.984608,-1.92515 -0.212127,-0.30286 -0.390724,-0.91111 -0.396884,-1.35167 -0.0087,-0.62144 -0.220172,-0.93433 -0.943331,-1.39564 -0.512674,-0.32703 -1.251775,-0.67116 -1.642447,-0.76473 -0.867018,-0.20766 -2.158404,-0.8447 -2.59267,-1.27896 -0.176402,-0.1764 -0.54325,-0.7359 -0.815217,-1.24334 -0.634403,-1.18366 -1.539141,-2.36915 -2.819275,-3.69415 -0.80273,-0.83086 -0.977767,-1.17761 -0.824932,-1.63421 0.33431,-0.99876 0.222372,-1.9487 -0.361665,-3.0692 -0.310257,-0.59524 -0.505465,-1.08225 -0.433796,-1.08225 0.07167,0 -0.251564,-0.67664 -0.718294,-1.50364 -0.507601,-0.89942 -0.825297,-1.80948 -0.790608,-2.26473 0.0319,-0.4186 -0.180824,-1.30098 -0.472711,-1.96084 -0.666557,-1.506861 -1.424138,-5.470517 -1.187871,-6.214931 0.09773,-0.307916 0.03089,-1.645748 -0.148541,-2.972958 -0.510198,-3.773916 0.178297,-10.567998 1.268343,-12.51603 0.395905,-0.707525 0.412622,-0.963673 0.04819,-0.738444 -0.180435,0.111517 -0.21339,-0.08809 -0.09571,-0.579697 0.24044,-1.004448 0.336967,-1.146648 0.778348,-1.146648 0.206921,0 0.445293,-0.327422 0.529716,-0.727604 0.348168,-1.650391 1.092313,-2.672326 3.934529,-5.40329 3.018663,-2.900504 5.642366,-4.980245 6.286617,-4.983236 0.193085,-9e-4 0.676469,-0.171383 1.074187,-0.378859 0.419861,-0.219028 0.787031,-0.273825 0.875511,-0.130662 0.29118,0.471139 0.837075,0.239433 2.410015,-1.022935 0.870008,-0.698227 2.05038,-1.478613 2.62305,-1.734192 0.572669,-0.255578 1.338874,-0.625117 1.702676,-0.821197 2.36715,-1.275835 3.169046,-1.668084 3.68714,-1.803568 0.322006,-0.08421 0.646713,-0.387323 0.721575,-0.673593 0.162631,-0.621901 2.246587,-0.960223 6.042326,-0.980946 1.309687,-0.0072 3.036094,-0.145216 3.836458,-0.306813 1.144998,-0.231179 1.931869,-0.211066 3.691234,0.09435 1.594469,0.27679 2.407028,0.310248 2.832018,0.116609 0.757131,-0.344973 2.89279,0.08798 7.830184,1.587367 3.038291,0.92267 3.851451,1.282246 4.812241,2.127967 0.63588,0.559728 1.23068,1.017687 1.32177,1.017687 0.0911,0 0.76812,0.47625 1.50451,1.058333 0.73639,0.582083 1.47703,1.059713 1.64587,1.061399 0.31557,0.0032 3.34003,3.048271 4.87259,4.905883 0.9026,1.09403 2.23985,4.803329 3.09494,8.584801 0.24679,1.091406 0.63511,2.401093 0.86292,2.910416 0.58226,1.301777 0.77969,8.171601 0.34086,11.860771 -0.18473,1.552982 -0.33137,3.629945 -0.32587,4.615473 0.0107,1.925915 -0.17573,2.826668 -1.60094,7.733127 -2.10846,7.25864 -2.3146,7.81987 -2.9843,8.12501 -0.34968,0.15932 -0.70276,0.50075 -0.78464,0.75873 -0.0819,0.25798 -1.25788,1.60913 -2.61333,3.00256 -2.03656,2.09363 -2.60259,2.53349 -3.26011,2.53349 -0.43762,0 -1.07961,0.22185 -1.42666,0.493 -1.71498,1.33992 -5.247694,3.67734 -6.187246,4.09379 -0.582083,0.258 -1.35891,0.63208 -1.726284,0.83129 -1.832298,0.99357 -7.267247,2.48688 -9.650799,2.65168 -0.873125,0.0604 -2.778125,-0.0555 -4.233333,-0.25751 z m -0.468532,-4.00335 c -0.08792,-0.0879 -0.316124,-0.0973 -0.507119,-0.0209 -0.211066,0.0845 -0.148373,0.14716 0.159854,0.15986 0.278913,0.0115 0.435184,-0.0511 0.347265,-0.13897 z m 2.30859,-4.45833 c -0.101208,-0.6749 -0.238135,-1.17298 -0.304281,-1.10683 -0.06615,0.0661 -0.03746,0.67246 0.06375,1.34736 0.101209,0.6749 0.238136,1.17298 0.304282,1.10683 0.06615,-0.0661 0.03746,-0.67246 -0.06375,-1.34736 z m -3.642055,-6.09615 c 1.564584,-0.80291 2.052454,-0.92492 3.703002,-0.92604 1.045554,-8e-4 2.236179,-0.13573 2.645833,-0.30005 0.409657,-0.16431 1.184749,-0.27894 1.722432,-0.25472 1.434177,0.0646 1.564958,-0.37734 1.663153,-5.62006 0.09496,-5.07036 -0.151914,-6.839798 -1.084419,-7.772303 -0.837922,-0.837922 -1.672796,-0.676355 -5.894366,1.140693 -1.803831,0.776406 -3.382473,1.34812 -3.508095,1.27048 -0.412705,-0.25506 -1.196466,0.15627 -1.478909,0.77617 -0.321511,0.70564 -0.150112,1.98343 0.34291,2.55641 0.316503,0.36784 0.393359,1.51952 0.379617,5.68855 -0.004,1.20172 -0.08251,1.37171 -0.857362,1.85562 -1.014446,0.63353 -1.207452,1.3033 -0.576484,2.00052 0.622548,0.68791 0.857652,0.65473 2.942688,-0.41527 z m 1.294241,-3.9039 c -0.06653,-0.32742 -0.191609,-1.87507 -0.277953,-3.43923 l -0.156988,-2.84393 1.529683,-0.69221 c 3.359412,-1.52022 4.595193,-1.938162 4.725646,-1.59821 0.06914,0.18017 0.0927,2.16804 0.05237,4.41751 -0.06806,3.7957 -0.108175,4.08398 -0.557636,4.0073 -0.266366,-0.0455 -0.768193,0.10338 -1.115171,0.33073 -0.408903,0.26792 -1.237464,0.41336 -2.354926,0.41336 -1.575686,0 -1.734471,-0.0512 -1.845025,-0.59532 z m 6.765517,4.22194 c -0.5779,-0.5779 -1.446157,-0.4471 -1.204934,0.18152 0.08823,0.2299 0.471916,0.37941 0.939602,0.36611 0.788471,-0.0224 0.789146,-0.0238 0.265332,-0.54763 z m -22.19893,-0.85789 1.258253,-0.65792 1.520623,0.55267 c 1.703647,0.61919 4.454126,1.08753 5.158034,0.87829 0.254323,-0.0756 0.532336,-0.41609 0.61781,-0.75664 0.244417,-0.97384 -0.298974,-1.68522 -1.414161,-1.85137 -0.543936,-0.081 -1.95825,-0.38382 -3.142924,-0.67284 -2.535907,-0.61869 -3.419864,-0.65114 -4.360987,-0.16007 l -0.694108,0.36218 -0.17658,-1.94863 c -0.09712,-1.07174 -0.343168,-2.42079 -0.546778,-2.99788 l -0.370199,-1.04925 0.861184,-0.53224 c 1.323782,-0.81814 2.640626,-0.51168 3.170489,0.73784 l 0.407723,0.9615 -0.139994,-0.94758 -0.139996,-0.94759 1.211291,0.0684 c 0.666369,0.0376 1.398524,0.25561 1.627479,0.48457 0.228901,0.2289 0.62199,0.41618 0.873535,0.41618 1.221676,0 1.477856,-1.66226 0.410689,-2.66481 -0.586574,-0.55106 -0.983338,-0.65163 -2.844271,-0.72094 -1.189434,-0.0443 -2.437056,-0.21723 -2.772492,-0.38428 -0.468619,-0.233382 -0.80568,-0.223773 -1.455208,0.0415 -0.464929,0.18987 -1.321576,0.52038 -1.903659,0.73445 -2.176717,0.80054 -2.42922,1.45463 -1.52663,3.95461 0.526856,1.45928 0.665688,2.38141 0.704227,4.67751 0.05302,3.15863 0.215828,3.48379 1.615402,3.22623 0.436149,-0.0803 1.359212,-0.442 2.051248,-0.80386 z m 40.415659,-2.3725 c 0.18145,-0.21864 0.48656,-1.14137 0.67801,-2.05052 0.30751,-1.46027 0.28574,-2.08489 -0.18668,-5.35717 -0.64654,-4.478246 -0.85315,-4.997856 -2.03234,-5.111282 -0.48144,-0.04631 -1.04485,0.05648 -1.25203,0.228428 -0.22401,0.185906 -0.72915,0.246504 -1.24625,0.149494 -0.56391,-0.105788 -1.3996,0.02318 -2.37754,0.366888 -0.82939,0.291507 -1.860393,0.530013 -2.291118,0.530013 -0.430723,0 -1.10739,0.123283 -1.503701,0.273957 -0.618604,0.235194 -0.819645,0.179036 -1.420765,-0.396875 -0.817751,-0.783455 -1.241666,-0.835234 -1.90718,-0.232949 -0.556094,0.503256 -0.674315,3.007666 -0.216715,4.590946 0.146926,0.50836 0.285575,2.0249 0.308112,3.37008 0.03293,1.96546 0.132628,2.52872 0.507651,2.86812 0.573032,0.51858 1.446599,0.29263 1.860796,-0.4813 0.279567,-0.52238 0.146264,-4.74956 -0.19413,-6.15615 -0.136541,-0.56421 -0.02688,-0.60521 4.39418,-1.64282 1.88369,-0.4421 2.0208,-0.45694 3.5858,-0.3881 l 1.07227,0.0472 0.31935,2.57969 c 0.45503,3.67567 0.47528,3.54551 -0.47761,3.07014 -0.91325,-0.45559 -1.73537,-0.2804 -2.12815,0.45351 -0.37589,0.70235 -0.003,1.30874 1.38284,2.25024 0.62716,0.426 1.29762,0.92338 1.48992,1.10528 0.47347,0.44787 1.23393,0.41681 1.63528,-0.0668 z m -6.28844,-0.50923 c 0.5215,-0.7616 0.006,-7.18716 -0.60736,-7.57547 -1.334774,-0.84456 -3.168916,0.95803 -2.081372,2.04558 0.156077,0.15607 0.352507,1.43578 0.436509,2.8438 0.127667,2.13985 0.238064,2.61979 0.67264,2.92418 0.532511,0.37298 1.233513,0.26732 1.579583,-0.23809 z M 75.162398,93.858161 c 0.268951,-0.419729 1.016394,-1.16387 1.660985,-1.653645 1.360887,-1.03404 1.704525,-1.958436 1.363784,-3.668628 -0.791879,-3.974486 -1.601615,-7.427971 -1.850805,-7.893584 -0.158449,-0.296061 -0.288087,-1.066768 -0.288087,-1.71268 0,-1.424601 -0.881964,-3.531266 -1.569772,-3.749568 -0.275543,-0.08745 -1.195925,0.06826 -2.045293,0.346023 -0.849371,0.277766 -2.496809,0.643978 -3.660976,0.813806 -1.164167,0.169828 -2.92036,0.442661 -3.902649,0.606298 -1.342486,0.223639 -1.953319,0.221277 -2.459847,-0.0095 -0.981253,-0.447091 -1.651121,-0.377209 -1.96257,0.20474 -0.436669,0.815922 -0.318531,3.302589 0.255275,5.373237 0.291041,1.050258 0.529166,2.417971 0.529166,3.039359 0,1.30529 0.795304,2.35813 1.541812,2.041085 0.243409,-0.103378 0.978344,-0.298754 1.633188,-0.434168 0.654844,-0.135416 1.578044,-0.365572 2.051558,-0.511458 0.473512,-0.145886 1.078738,-0.196117 1.344946,-0.111627 0.570505,0.181072 2.70909,-0.520907 3.004791,-0.986304 0.338415,-0.532627 0.240352,-1.448704 -0.202486,-1.89154 -0.4723,-0.4723 -1.845691,-0.559059 -2.108872,-0.13322 -0.09605,0.155403 -0.549558,0.253473 -1.007803,0.217932 -0.458248,-0.03554 -1.071301,0.0055 -1.362342,0.09122 -0.291042,0.08571 -0.959001,0.228036 -1.484354,0.31628 l -0.955188,0.160443 -0.434567,-1.790985 c -0.660325,-2.721422 -0.631765,-2.841072 0.691296,-2.896105 0.618464,-0.02572 1.838854,-0.162769 2.711979,-0.304544 0.873125,-0.141774 2.32741,-0.378976 3.231745,-0.527113 0.904336,-0.14814 1.75531,-0.337987 1.891057,-0.421884 0.135744,-0.08389 0.616225,-0.07865 1.067731,0.01164 0.77029,0.154056 0.820926,0.236659 0.820926,1.33913 0,0.646221 0.129637,1.41718 0.288086,1.713241 0.242681,0.453456 1.286624,4.875844 1.75651,7.441001 0.154178,0.841682 -0.517377,1.7755 -1.27685,1.7755 -0.260236,0 -0.634436,0.230259 -0.831556,0.511688 -0.252532,0.360537 -0.471892,0.439891 -0.742609,0.268634 -0.211312,-0.133678 -0.764132,-0.244877 -1.228487,-0.247105 -0.464354,-0.0021 -0.910092,-0.110538 -0.990531,-0.240686 -0.267943,-0.433541 -2.368809,-0.474972 -3.324563,-0.06556 -0.569561,0.24398 -1.546873,0.37003 -2.538799,0.327448 -1.801681,-0.07733 -2.488284,0.322453 -2.488284,1.448864 0,0.844539 0.954083,1.804363 1.541811,1.551088 0.24341,-0.104894 1.182862,-0.227902 2.087674,-0.273349 0.971023,-0.04877 1.924084,-0.26542 2.325944,-0.528728 0.551468,-0.361336 0.806818,-0.388694 1.343901,-0.143983 0.364688,0.166163 0.984887,0.3029 1.378222,0.303858 0.393335,0.0011 1.072343,0.238299 1.508906,0.527423 1.158888,0.767503 2.096616,0.685816 2.685997,-0.233977 z m 6.341136,-2.322319 c -0.223846,-0.413049 -0.411755,-0.6673 -0.417581,-0.565007 -0.01791,0.314502 0.59763,1.542939 0.714549,1.426019 0.06051,-0.06051 -0.07312,-0.447966 -0.296968,-0.861012 z M 58.37934,90.135037 c -0.159472,-1.086551 -0.322731,-1.017624 -0.322731,0.136258 0,0.517912 0.09921,0.88034 0.220469,0.8054 0.121258,-0.07494 0.167276,-0.498689 0.102262,-0.941658 z m 35.612627,0.724242 c 0.493197,-0.493197 5.794597,-0.680313 10.408683,-0.367379 l 2.55551,0.173315 0.58273,-0.733933 c 0.55051,-0.693357 0.57474,-0.916797 0.43837,-4.041227 -0.12733,-2.916952 -0.78316,-6.45944 -1.37236,-7.412792 -0.0858,-0.138856 -0.26536,-0.924163 -0.39898,-1.745125 -0.29894,-1.836794 -0.77112,-2.589516 -1.98601,-3.166023 -0.79996,-0.379603 -1.15831,-0.401164 -2.42833,-0.146106 -0.81944,0.164567 -1.894581,0.299213 -2.389201,0.299213 -0.49462,0 -1.135886,0.126612 -1.425035,0.28136 -0.28915,0.154748 -1.025462,0.284701 -1.636253,0.288785 -0.610787,0.0041 -1.378415,0.177873 -1.705837,0.386198 -0.730488,0.464779 -0.782738,1.721801 -0.198482,4.775069 0.218254,1.140587 0.396848,2.616893 0.396875,3.280677 8.4e-5,2.290413 1.896398,3.102493 3.36079,1.439235 0.412186,-0.468161 0.852665,-0.661741 1.505741,-0.661741 0.507712,0 0.992302,-0.111951 1.076872,-0.24878 0.18288,-0.295902 1.69428,0.178395 2.21148,0.693986 0.52034,0.518732 1.55354,0.421643 1.97913,-0.185973 0.34782,-0.496588 0.38627,-0.43557 0.54187,0.859896 0.0921,0.766927 0.16851,1.821389 0.16978,2.343248 l 0.002,0.948838 -2.05052,-0.10341 c -4.964026,-0.250338 -9.582301,-0.0077 -10.981659,0.577006 -1.27857,0.53422 -1.644277,1.567603 -0.839547,2.372331 0.494329,0.494329 1.728309,0.547108 2.182085,0.09333 z m 10.599703,-9.322361 c -0.0841,-0.08408 -0.85551,-0.33691 -1.71428,-0.561845 -1.43118,-0.374859 -3.729443,-0.355542 -5.156198,0.04334 -0.335745,0.09386 -0.497966,-0.293992 -0.810275,-1.937269 l -0.390488,-2.05463 1.207151,-0.36331 c 0.663934,-0.199818 2.151165,-0.437943 3.30496,-0.529166 2.33839,-0.184878 2.79698,0.02029 2.79698,1.251275 0,0.39483 0.24373,1.411319 0.54162,2.258864 0.49714,1.414452 0.59669,2.268911 0.22053,1.892741 z m -22.106947,5.234149 c 0.411345,-0.339037 1.067871,-0.616429 1.458941,-0.616429 0.391073,0 1.337747,-0.229068 2.103723,-0.509042 1.645383,-0.601409 1.389113,-0.549291 2.700888,-0.549291 0.724233,0 1.234723,-0.17639 1.617086,-0.558753 0.517112,-0.517112 0.546624,-0.748781 0.396023,-3.108854 -0.366051,-5.736382 -0.494575,-6.908105 -0.783921,-7.146917 -0.348387,-0.287539 -6.492983,0.09447 -8.372938,0.520547 -0.654843,0.148415 -1.616519,0.362398 -2.137055,0.475517 -1.404977,0.30532 -1.567111,0.482379 -1.567111,1.711367 0,1.273556 0.350409,1.757093 1.273323,1.757093 h 0.638323 l -0.06723,3.505729 c -0.09396,4.899578 -0.08903,4.942043 0.602977,5.199279 0.719723,0.267536 1.155235,0.128903 2.136969,-0.680246 z m -0.258662,-6.382988 0.03992,-3.189343 0.760677,-0.152257 c 0.418372,-0.08374 1.681077,-0.152257 2.806012,-0.152257 h 2.045332 l 0.168672,1.785937 c 0.345329,3.656452 0.372509,3.574275 -1.360861,4.114332 -0.840822,0.261969 -2.197224,0.545298 -3.014223,0.629621 l -1.485455,0.153312 z m 7.605384,-12.775568 c -0.24043,-0.601515 -0.256889,-0.585054 -0.272648,0.272649 -0.01151,0.626543 0.06873,0.827306 0.255876,0.640163 0.180541,-0.18054 0.186206,-0.488915 0.01677,-0.912812 z"
       id="path1973" />
  </g>
</svg>
