<?xml version="1.0" encoding="UTF-8" standalone="no"?>
<!-- Created with Inkscape (http://www.inkscape.org/) -->

<svg
   width="73.025002mm"
   height="80.081001mm"
   viewBox="0 0 73.025002 80.081"
   version="1.1"
   id="svg5"
   sodipodi:docname="goodreads.svg"
   inkscape:version="1.1.1 (3bf5ae0d25, 2021-09-20)"
   xmlns:inkscape="http://www.inkscape.org/namespaces/inkscape"
   xmlns:sodipodi="http://sodipodi.sourceforge.net/DTD/sodipodi-0.dtd"
   xmlns="http://www.w3.org/2000/svg"
   xmlns:svg="http://www.w3.org/2000/svg">
  <sodipodi:namedview
     id="namedview7"
     pagecolor="#ffffff"
     bordercolor="#666666"
     borderopacity="1.0"
     inkscape:pageshadow="2"
     inkscape:pageopacity="0.0"
     inkscape:pagecheckerboard="0"
     inkscape:document-units="mm"
     showgrid="false"
     inkscape:zoom="0.88388348"
     inkscape:cx="-28.284271"
     inkscape:cy="5.0911688"
     inkscape:window-width="1920"
     inkscape:window-height="991"
     inkscape:window-x="-9"
     inkscape:window-y="-9"
     inkscape:window-maximized="1"
     inkscape:current-layer="layer1" />
  <defs
     id="defs2" />
  <g
     inkscape:label="Capa 1"
     inkscape:groupmode="layer"
     id="layer1">
    <path
       style="fill:#414141;stroke-width:0.352778;fill-opacity:1"
       d="M 29.248522,73.933702 C 29.168892,73.854073 27.566918,73.617553 25.688581,73.408105 21.978506,72.99441 17.748516,71.663111 16.018456,70.364642 13.197975,68.247778 9.5657493,63.890969 7.9295705,60.662125 5.832629,56.52401 4.151314,49.255324 4.1387527,44.273609 4.1265959,39.452735 5.299575,31.612153 6.6720373,27.340276 8.0277686,23.120477 11.817551,14.881308 12.952027,13.687279 c 1.085965,-1.142972 2.449022,-1.502791 3.778311,-0.997396 0.84145,0.319919 1.133058,0.243733 2.089758,-0.545973 2.348795,-1.938809 5.828932,-3.8682857 9.049349,-5.0171897 2.89863,-1.0341045 3.989271,-1.2304013 8.073084,-1.4530175 l 4.721697,-0.2573884 2.798756,1.6821018 c 1.539318,0.9251562 3.350899,1.8643257 4.025741,2.0870435 1.225314,0.4043895 5.701923,2.7878473 8.210815,4.3716413 3.505835,2.213136 9.194938,9.57772 10.451448,13.52947 0.352834,1.109677 1.115109,3.446344 1.693943,5.192594 0.926271,2.794413 1.051469,3.661304 1.044448,7.231944 -0.0098,4.988016 -0.872133,8.624157 -3.09481,13.049768 -2.679506,5.335216 -6.50203,9.905435 -11.282087,13.488891 -5.333747,3.998535 -12.408762,6.931826 -18.352757,7.609021 -3.369403,0.383875 -6.670913,0.5152 -6.911201,0.274913 z m 11.184889,-7.289503 c 2.112112,-0.793048 4.034437,-1.602751 4.271839,-1.799336 0.237398,-0.196586 0.529442,-0.87878 0.648984,-1.515985 0.131107,-0.698874 0.776552,-1.699613 1.626726,-2.522192 2.569178,-2.485785 2.871819,-3.477722 2.837776,-9.301133 -0.01644,-2.813403 -0.222423,-7.496528 -0.457726,-10.406944 -0.235303,-2.910417 -0.400981,-6.879167 -0.368173,-8.819444 0.04074,-2.40953 -0.129914,-4.198726 -0.538385,-5.644444 -0.444468,-1.573139 -0.606135,-3.611369 -0.629574,-7.9375 -0.01736,-3.201458 -0.158161,-6.01927 -0.312917,-6.261805 -0.381738,-0.598257 -2.172099,-0.558953 -2.684904,0.05894 -0.228191,0.274953 -0.377853,1.029015 -0.332581,1.675694 0.185554,2.650579 -0.0018,3.381654 -0.926419,3.613702 -0.48507,0.121745 -0.881945,0.373676 -0.881945,0.559847 0,0.521066 -1.802987,-0.357114 -2.999927,-1.461172 -2.09072,-1.928486 -5.169126,-2.384592 -7.654082,-1.134053 -0.523941,0.263671 -1.476441,0.479036 -2.116667,0.478591 -0.991949,-7.06e-4 -1.545204,0.399095 -3.742162,2.704117 -1.524706,1.599703 -2.660719,3.117948 -2.78028,3.715755 -0.111191,0.555954 -0.596247,1.320811 -1.077902,1.69968 -1.185762,0.932721 -2.646297,3.301831 -3.598197,5.836578 -1.104865,2.942064 -1.330872,7.543129 -0.570834,11.621067 1.079935,5.794322 2.61927,7.770114 6.86415,8.810374 1.598186,0.391654 3.386392,0.567401 4.893704,0.480956 2.115118,-0.121302 2.741033,-0.347779 5.715145,-2.067941 1.836942,-1.062446 3.503817,-1.994474 3.704166,-2.071172 0.20035,-0.07669 0.966908,-0.611769 1.703458,-1.189055 0.736555,-0.577285 1.406529,-0.982264 1.488839,-0.899954 0.08231,0.08231 0.25418,1.887383 0.381935,4.011277 0.246055,4.09061 -0.222451,6.823297 -1.669898,9.740166 -0.640387,1.290496 -2.8711,3.303168 -4.53867,4.095041 -2.65649,1.261473 -2.624265,1.265061 -6.997482,-0.779329 -2.26326,-1.058029 -4.856898,-2.106905 -5.763641,-2.330837 -1.022159,-0.252438 -1.995076,-0.795987 -2.56036,-1.430423 -1.674387,-1.879215 -4.034601,-0.809642 -3.038354,1.376881 0.337428,0.740576 0.312638,0.954268 -0.140095,1.207629 -1.02711,0.574799 -0.626544,2.118798 0.99926,3.851688 0.845556,0.901248 1.973403,1.924332 2.506328,2.273518 1.136977,0.744975 4.161839,1.078301 10.448588,1.151389 4.401907,0.05117 4.491647,0.03613 8.290277,-1.390173 z m 5.881377,-11.787258 c 0.0028,-0.970139 0.07116,-1.325142 0.152248,-0.788899 0.08109,0.536243 0.07892,1.329993 -0.0048,1.763889 -0.08374,0.433895 -0.150079,-0.0048 -0.147433,-0.97499 z m 0.0048,-5.468055 c 0,-1.067153 0.06613,-1.503715 0.146964,-0.970139 0.08083,0.533577 0.08083,1.406702 0,1.940278 -0.08083,0.533576 -0.146964,0.09701 -0.146964,-0.970139 z M 26.311352,46.20917 c -2.19067,-0.855405 -2.261371,-0.932653 -2.831417,-3.093597 -0.626403,-2.374582 -0.04796,-10.609372 0.788194,-11.220781 0.372267,-0.272208 0.470385,-0.718108 0.321655,-1.461762 -0.344745,-1.723722 0.339525,-3.430717 1.967735,-4.908755 0.823392,-0.747449 2.446959,-2.442848 3.607927,-3.767554 2.321415,-2.648816 1.937222,-2.550031 5.926766,-1.523905 2.523716,0.649108 3.340502,1.170878 4.996501,3.191806 l 1.29806,1.584113 -0.25231,7.376297 -0.252307,7.376299 -1.824887,1.903359 c -2.07929,2.168705 -4.501113,3.74523 -6.237125,4.060155 -0.653519,0.118554 -1.868452,0.435835 -2.69985,0.705075 -1.959358,0.63451 -2.706478,0.600216 -4.808942,-0.22075 z m 19.76348,-0.738541 c -0.333636,-1.053479 -0.474211,-3.421401 -0.226871,-3.821602 0.143245,-0.231779 0.363851,0.567905 0.490234,1.777075 0.216718,2.073448 0.08056,3.13048 -0.263363,2.044527 z m -12.91372,13.279278 c 0,-0.09019 -0.357187,-0.337068 -0.79375,-0.548625 -0.762221,-0.369373 -0.766549,-0.362861 -0.108962,0.163974 0.719759,0.576647 0.902712,0.654604 0.902712,0.384651 z m 32.10498,-15.534632 c 0.373606,-2.290526 0.46336,-4.6401 0.16589,-4.34263 -0.217427,0.217427 -1.592809,8.331799 -1.543314,9.10513 0.05339,0.834178 0.996332,-2.426091 1.377424,-4.7625 z"
       id="path15847" />
  </g>
</svg>
