<?xml version="1.0" encoding="UTF-8" standalone="no"?>
<!-- Created with Inkscape (http://www.inkscape.org/) -->

<svg
   width="74.435997mm"
   height="69.849998mm"
   viewBox="0 0 74.435998 69.849998"
   version="1.1"
   id="svg5"
   sodipodi:docname="lastfm.svg"
   inkscape:version="1.1.1 (3bf5ae0d25, 2021-09-20)"
   xmlns:inkscape="http://www.inkscape.org/namespaces/inkscape"
   xmlns:sodipodi="http://sodipodi.sourceforge.net/DTD/sodipodi-0.dtd"
   xmlns="http://www.w3.org/2000/svg"
   xmlns:svg="http://www.w3.org/2000/svg">
  <sodipodi:namedview
     id="namedview7"
     pagecolor="#ffffff"
     bordercolor="#666666"
     borderopacity="1.0"
     inkscape:pageshadow="2"
     inkscape:pageopacity="0.0"
     inkscape:pagecheckerboard="0"
     inkscape:document-units="mm"
     showgrid="false"
     inkscape:zoom="0.88388348"
     inkscape:cx="-28.284271"
     inkscape:cy="5.0911688"
     inkscape:window-width="1920"
     inkscape:window-height="991"
     inkscape:window-x="-9"
     inkscape:window-y="-9"
     inkscape:window-maximized="1"
     inkscape:current-layer="layer1" />
  <defs
     id="defs2" />
  <g
     inkscape:label="Capa 1"
     inkscape:groupmode="layer"
     id="layer1">
    <path
       style="fill:#414141;stroke-width:0.352778;fill-opacity:1"
       d="m 28.045833,63.719609 c -1.74625,-0.435698 -4.206875,-1.274127 -5.468055,-1.863174 -1.261181,-0.589044 -3.067644,-1.354311 -4.014363,-1.70059 -2.087604,-0.763577 -3.96133,-2.621894 -5.43899,-5.394272 -0.607289,-1.139388 -1.652418,-2.652938 -2.322508,-3.36344 C 7.3245511,47.711052 5.5177919,41.931599 4.9561281,32.698653 4.605552,26.935683 4.8557053,25.530744 7.0094291,21.166666 8.2430013,18.667086 9.1478798,17.49426 12.446723,14.11931 c 2.176594,-2.226811 3.977287,-4.171498 4.001541,-4.321528 0.02425,-0.1500304 0.06394,-0.4391124 0.08819,-0.6424048 0.157356,-1.3189585 4.504636,-3.7707689 10.30153,-5.8099321 4.284524,-1.5071592 8.10312,-1.914096 11.438401,-1.2189573 1.164166,0.2426354 2.831041,0.5147886 3.704166,0.6047848 0.873125,0.089996 1.825625,0.3681186 2.116667,0.6180497 0.291042,0.249931 1.234712,0.5702451 2.097045,0.7118095 4.270319,0.7010322 9.409603,3.3866324 15.642315,8.1741002 4.080821,3.134557 6.029336,5.998072 5.248141,7.712608 -0.217029,0.476327 -0.638411,0.866048 -0.936406,0.866048 -0.428946,0 -0.320135,0.439129 0.522379,2.108143 2.164704,4.288256 2.92027,7.230968 2.945987,11.473801 0.03863,6.373082 -1.903067,11.665405 -6.116313,16.67074 -4.763057,5.658509 -13.933741,10.813647 -22.491252,12.64305 -5.009486,1.070917 -8.699762,1.073761 -12.963285,0.01 z m 27.481403,-9.813448 c 0.756716,-0.544223 1.264769,-0.989496 1.129009,-0.989496 -0.544019,0 -2.194757,1.032792 -2.858467,1.788414 -0.787699,0.896779 -0.34213,0.690951 1.729458,-0.798918 z M 29.962717,47.476797 c 0.485775,-0.585322 0.574259,-1.547576 0.21916,-2.383328 -0.195852,-0.460954 -0.03381,-0.616444 0.735253,-0.705556 1.732284,-0.20072 3.477542,-3.938033 2.205977,-4.723902 -0.247708,-0.153092 -0.02168,-0.545656 0.617361,-1.072222 0.554479,-0.45689 1.206581,-0.998834 1.449115,-1.204324 1.201988,-1.018395 -0.452764,-3.119581 -2.114096,-2.684454 -0.437976,0.114712 -1.669445,1.082039 -2.736598,2.149619 -2.036892,2.0377 -4.499245,3.716813 -5.450563,3.716813 -0.927611,0 -3.681567,-2.807663 -4.461085,-4.548085 -0.966163,-2.157143 -0.724798,-3.804154 1.110434,-7.5773 1.22144,-2.511222 1.777161,-3.229263 3.586994,-4.634726 2.266206,-1.759867 4.010115,-2.642666 5.220408,-2.642666 2.093874,0 4.434934,2.339854 6.882712,6.879167 0.523137,0.970138 1.154698,2.002013 1.403463,2.293055 0.248768,0.291042 0.957251,2.116667 1.574408,4.056944 0.61716,1.940278 1.445034,4.050757 1.839722,4.689951 0.922648,1.49423 4.87771,4.648913 7.650804,6.10253 1.895973,0.993842 2.588204,1.153449 5.64,1.300406 6.254775,0.301188 8.776141,-1.276237 9.132312,-5.713388 0.260393,-3.24395 -0.526866,-5.506702 -2.984239,-8.577308 -1.122662,-1.402823 -2.279329,-2.878737 -2.57037,-3.279809 -0.331647,-0.457029 -1.450922,-0.97171 -2.998611,-1.378863 -3.43123,-0.90266 -4.76467,-1.544704 -6.034388,-2.905527 -1.256284,-1.346426 -1.649998,-2.244612 -1.370263,-3.125989 0.219097,-0.69031 1.474513,-1.156209 1.780674,-0.660828 0.313839,0.507801 1.790866,0.370934 2.273558,-0.210678 0.442464,-0.533137 2.93291,-0.519491 6.459262,0.03539 1.004468,0.158056 1.517992,0.05504 2.028472,-0.406942 1.487393,-1.346071 0.403014,-3.331444 -1.819578,-3.331444 -0.734476,0 -2.495807,-0.427019 -3.914073,-0.94893 -5.198343,-1.912954 -10.939903,-1.25391 -11.453625,1.314703 -0.176248,0.881246 -0.382122,1.050332 -1.311498,1.077154 l -1.10243,0.03182 1.098243,0.318537 c 0.966526,0.280331 1.124257,0.508306 1.315117,1.900773 0.244125,1.781102 2.527716,6.561643 3.931069,8.229436 1.379041,1.638896 4.280285,3.145293 6.605877,3.429934 1.107811,0.13559 2.279488,0.440513 2.603737,0.677607 0.641787,0.469289 1.084456,3.448398 0.725131,4.880065 -0.418501,1.667433 -5.097505,3.025729 -7.938668,2.304564 -1.480298,-0.375741 -2.193876,-1.088239 -3.288683,-3.283716 -0.852999,-1.710569 -3.156518,-5.896275 -3.979954,-7.231945 -0.418662,-0.679097 -1.292567,-2.663472 -1.94201,-4.409722 -1.246177,-3.350778 -1.757151,-4.306067 -3.186804,-5.957883 -0.898846,-1.038524 -4.145418,-2.781147 -4.626942,-2.483548 -0.145975,0.09022 -1.625448,0.0095 -3.287716,-0.179385 -2.427683,-0.275853 -3.31117,-0.241501 -4.490528,0.174601 -3.029058,1.068714 -6.191091,4.606699 -7.783882,8.709352 -1.061665,2.734601 -1.30568,10.008284 -0.44446,13.248658 1.078905,4.059417 2.498511,6.420149 3.860705,6.420149 0.416191,0 0.907525,0.148671 1.091851,0.33038 0.379407,0.374019 6.379029,2.405186 7.259304,2.457634 0.315791,0.0188 0.761264,-0.191231 0.989941,-0.466771 z m 28.057632,-5.000343 c 1.193828,-0.682833 1.561486,-1.026484 2.407281,-2.250091 l 0.602925,-0.872243 v 1.0694 c 0,1.59378 -0.692728,2.286145 -2.481823,2.480515 l -1.575121,0.171122 z m -39.280062,3.146531 c -0.307465,-0.528733 -0.376305,-0.543973 -0.385115,-0.08526 -0.01141,0.594106 0.359548,1.12903 0.609572,0.879006 0.08246,-0.08246 -0.01854,-0.43965 -0.224457,-0.79375 z M 24.165278,12.7 c 0.627453,-0.693329 0.616173,-0.705556 -0.650879,-0.705556 -1.344036,0 -1.582204,0.271639 -0.866066,0.987778 0.575117,0.575117 0.774661,0.537992 1.516945,-0.282222 z"
       id="path17062" />
  </g>
</svg>
