<?xml version="1.0" encoding="UTF-8" standalone="no"?>
<!-- Created with Inkscape (http://www.inkscape.org/) -->

<svg
   width="87.601395mm"
   height="87.462181mm"
   viewBox="0 0 87.601396 87.462182"
   version="1.1"
   id="svg5"
   inkscape:version="1.1.2 (0a00cf5339, 2022-02-04, custom)"
   sodipodi:docname="riot.svg"
   xmlns:inkscape="http://www.inkscape.org/namespaces/inkscape"
   xmlns:sodipodi="http://sodipodi.sourceforge.net/DTD/sodipodi-0.dtd"
   xmlns="http://www.w3.org/2000/svg"
   xmlns:svg="http://www.w3.org/2000/svg">
  <sodipodi:namedview
     id="namedview7"
     pagecolor="#ffffff"
     bordercolor="#666666"
     borderopacity="1.0"
     inkscape:pageshadow="2"
     inkscape:pageopacity="0.0"
     inkscape:pagecheckerboard="0"
     inkscape:document-units="mm"
     showgrid="false"
     fit-margin-top="0"
     fit-margin-left="0"
     fit-margin-right="0"
     fit-margin-bottom="0"
     inkscape:zoom="0.733172"
     inkscape:cx="228.45935"
     inkscape:cy="165.03631"
     inkscape:window-width="1920"
     inkscape:window-height="1009"
     inkscape:window-x="-8"
     inkscape:window-y="-8"
     inkscape:window-maximized="1"
     inkscape:current-layer="layer1" />
  <defs
     id="defs2" />
  <g
     inkscape:label="Capa 1"
     inkscape:groupmode="layer"
     id="layer1"
     transform="translate(-44.268313,-105.16712)">
    <path
       style="fill:#414141;fill-opacity:1;stroke-width:0.264583"
       d="m 74.558377,192.53213 c -3.69958,-0.36901 -7.85349,-1.27836 -11.77396,-2.57748 -3.22724,-1.06941 -4.02088,-1.4179 -7.48974,-3.28882 -6.01791,-3.24574 -8.92661,-7.45175 -10.56103,-15.27134 -0.56756,-2.7154 -0.62666,-8.80282 -0.11815,-12.17083 0.18675,-1.23693 0.46517,-3.0824 0.61871,-4.10104 1.16259,-7.71298 5.6274,-20.07306 9.06443,-25.09335 0.66536,-0.97185 1.21238,-1.85514 1.21562,-1.96287 0.003,-0.10773 0.23871,-0.49352 0.52328,-0.85732 0.70016,-0.89511 0.66429,-1.27537 -0.10639,-1.12804 -0.68682,0.13129 -1.74569,-0.6967 -1.74569,-1.36506 0,-0.63103 10.06671,-10.4631 13.22917,-12.92081 1.53419,-1.19231 2.64197,-1.73684 5.02708,-2.47106 1.78693,-0.55008 2.28322,-0.76423 3.34855,-1.44491 0.45926,-0.29343 1.53082,-0.65871 2.38125,-0.81173 0.85043,-0.15302 2.12689,-0.38194 2.83657,-0.50871 0.70968,-0.12677 1.48358,-0.40221 1.71979,-0.6121 0.5285,-0.46962 5.13443,-0.99162 6.09416,-0.69067 0.37692,0.11819 2.70937,0.30084 5.18322,0.40589 2.47386,0.10505 4.91464,0.21923 5.42396,0.25374 1.473663,0.0998 3.674243,0.80213 4.310313,1.37559 1.14138,1.02903 2.40028,1.47238 5.80058,2.04278 0.92565,0.15528 3.06291,1.33651 3.91203,2.16212 0.3638,0.35373 1.80339,1.7419 3.1991,3.08483 1.62453,1.56311 2.93287,3.1081 3.63606,4.29376 0.60413,1.01865 1.43855,2.32833 1.85427,2.91042 0.41573,0.58208 1.21096,1.77271 1.76718,2.64583 0.55622,0.87313 1.2183,1.89563 1.47128,2.27223 1.03513,1.54094 2.66486,4.79143 3.54513,7.07074 1.05595,2.73421 2.63393,9.71861 2.89674,12.82145 0.17103,2.01931 -0.13139,6.86058 -0.67317,10.7762 -0.45329,3.27613 -2.04969,9.41562 -2.97783,11.45227 -1.21192,2.65936 -3.64625,6.27035 -4.91386,7.28903 -0.58499,0.47011 -1.96194,1.98313 -3.05987,3.36226 -2.06919,2.59912 -3.736,4.02609 -5.38734,4.61216 -0.52845,0.18754 -1.7555,0.80167 -2.72677,1.36472 -0.97128,0.56305 -1.85657,1.02373 -1.96732,1.02373 -0.11076,0 -0.44717,0.22613 -0.74759,0.50252 -0.30042,0.27638 -1.082,0.68431 -1.73685,0.90652 -0.65484,0.2222 -1.5851,0.60385 -2.06725,0.84812 -0.48214,0.24427 -1.61324,0.5387 -2.51354,0.6543 -0.9003,0.1156 -1.95456,0.33458 -2.3428,0.48663 -0.38823,0.15206 -0.924013,0.27045 -1.190623,0.26309 -0.61906,-0.0171 -2.00289,0.29212 -6.43787,1.43845 -3.53195,0.91292 -3.64581,0.92439 -10.18646,1.02577 -3.63802,0.0564 -7.38849,0.0254 -8.33437,-0.069 z m 16.66875,-5.8917 c 0,-0.0549 -0.20836,-0.2633 -0.46302,-0.46302 -0.41965,-0.32911 -0.42901,-0.31975 -0.0999,0.0999 0.34564,0.44073 0.56292,0.58089 0.56292,0.36313 z m -35.22374,-3.59388 c -0.53305,-0.72099 -1.02418,-0.84941 -1.02418,-0.26781 0,0.18858 1.17837,0.99039 1.52928,1.04057 0.0407,0.006 -0.18656,-0.34192 -0.5051,-0.77276 z m 55.555803,-0.80414 c 0.7095,-0.43657 1.42566,-0.79375 1.59147,-0.79375 0.36122,0 0.37902,-0.2615 0.0529,-0.77689 -0.19312,-0.30521 -0.53087,-0.13191 -1.71574,0.88035 -2.04515,1.74723 -2.0213,1.97792 0.0714,0.69029 z m -50.247763,-2.79955 c -0.26622,-0.32078 -0.37555,-0.33218 -0.54924,-0.0573 -0.13585,0.21504 -0.0469,0.47022 0.23818,0.68314 0.56436,0.42156 0.79509,-0.0427 0.31106,-0.62589 z m 46.785053,-1.82618 c 0.0376,-0.0291 0.18555,-1.05405 0.32884,-2.27765 0.3087,-2.63609 1.0001,-5.50571 1.46037,-6.06121 0.56906,-0.68677 0.7049,-1.56373 0.39003,-2.51781 -0.37754,-1.14395 -0.93921,-1.30706 -3.18415,-0.92467 -2.30571,0.39273 -4.84977,0.60941 -6.56853,0.55943 -0.780853,-0.0227 -1.582033,0.0934 -1.780413,0.25807 -0.25688,0.21319 -0.58538,0.22103 -1.14127,0.0272 -1.23556,-0.43072 -3.94243,0.096 -6.3396,1.23365 -0.49028,0.23267 -1.29182,0.43694 -1.7812,0.45393 -0.62917,0.0219 -1.34958,0.39214 -2.45968,1.26428 -0.86344,0.67836 -1.69505,1.23338 -1.848,1.23338 -0.15297,0 -0.71438,0.43627 -1.2476,0.96949 l -0.96949,0.96948 0.44503,1.41177 0.44501,1.41176 2.1693,0.002 c 2.02932,0.002 5.31368,0.52934 9.07101,1.45554 1.22529,0.30204 1.93675,0.33493 2.97709,0.13763 0.88856,-0.16851 1.6044,-0.169 2.045193,-0.001 0.37299,0.14181 1.65267,0.2662 2.84374,0.27643 1.19108,0.0102 2.40372,0.11437 2.69476,0.23143 0.43077,0.17326 2.18432,0.0922 2.44956,-0.11325 z m -18.853733,-5.42844 c 0.0899,-0.14552 0.42439,-0.26276 0.74322,-0.26053 0.47129,0.003 0.50548,0.052 0.18282,0.26053 -0.52126,0.33687 -1.13423,0.33687 -0.92604,0 z m 14.552093,-2.11667 c -0.0899,-0.14552 -0.0374,-0.26458 0.11667,-0.26458 0.15411,0 0.2802,0.11906 0.2802,0.26458 0,0.14553 -0.0525,0.26459 -0.11668,0.26459 -0.0642,0 -0.19026,-0.11906 -0.28019,-0.26459 z m 18.9206,2.05053 c 0.59295,-0.97251 0.64909,-1.25678 0.24819,-1.25678 -0.23424,0 -1.04484,1.53292 -1.04484,1.97588 0,0.35434 0.31617,0.069 0.79665,-0.7191 z m -56.587633,-2.71198 c 0.70443,-0.77413 1.02276,-0.92605 1.94039,-0.92605 h 1.09772 l -0.21575,-2.05052 c -0.11866,-1.12778 -0.28377,-2.22911 -0.36692,-2.44739 -0.28339,-0.74395 -0.89479,-4.89124 -0.89942,-6.10099 -0.006,-1.54885 0.4601,-2.18929 1.5931,-2.18929 0.62121,0 1.00064,0.17884 1.29422,0.61002 0.22844,0.33551 0.76396,0.9587 1.19005,1.38487 0.42608,0.42616 1.00197,1.45142 1.27975,2.27834 0.27778,0.82693 0.6576,1.6821 0.84406,1.90038 0.18645,0.21828 0.66522,1.43508 1.06393,2.704 l 0.72493,2.30712 0.69902,-0.35176 c 0.38447,-0.19347 1.05622,-0.43728 1.49278,-0.5418 0.43656,-0.10452 1.01491,-0.38912 1.28523,-0.63244 0.28133,-0.25325 0.93101,-0.44241 1.51945,-0.44241 0.5654,0 1.03513,-0.11906 1.04386,-0.26458 0.0463,-0.77178 -0.34897,-3.92297 -0.68034,-5.42396 -0.97227,-4.40398 -1.18383,-5.75735 -1.18383,-7.57308 0,-2.19186 0.47587,-3.01025 1.75036,-3.01025 1.03087,0 2.62663,1.88374 3.29385,3.88829 0.30011,0.90163 0.75807,1.91366 1.01768,2.24896 0.60653,0.78333 1.21623,2.81591 1.88442,6.28216 0.29286,1.51917 0.56877,2.79844 0.61314,2.84281 0.23661,0.23661 7.70364,-0.74545 8.01192,-1.05373 0.0962,-0.0962 -0.21081,-1.75484 -0.68216,-3.68594 -0.47136,-1.93111 -1.03715,-4.40407 -1.2573,-5.49547 -0.22016,-1.09141 -0.48593,-2.4011 -0.59061,-2.91042 -0.10467,-0.50932 -0.31449,-1.16416 -0.46626,-1.45521 -0.15177,-0.29104 -0.4231,-1.15627 -0.60296,-1.92274 -0.28352,-1.20821 -0.26976,-1.48096 0.10343,-2.05052 0.59451,-0.90734 1.78534,-0.88832 2.51571,0.0402 0.3016,0.38342 0.54837,0.84194 0.54837,1.01892 0,0.17698 0.27879,0.84613 0.61954,1.48699 0.34075,0.64086 0.77074,1.64086 0.95553,2.22222 0.18479,0.58136 0.52353,1.35463 0.75274,1.71837 0.22922,0.36374 0.84183,1.98074 1.36137,3.59333 0.601593,1.86728 1.060433,2.89336 1.263573,2.82565 0.17544,-0.0585 0.53182,0.0175 0.79196,0.16894 0.41076,0.23904 0.37726,0.27632 -0.25461,0.28331 -0.84624,0.009 -0.87639,0.20472 -0.32048,2.07669 0.38699,1.30311 0.45166,1.37093 1.3073,1.37093 0.4951,0 0.97376,-0.11906 1.0637,-0.26458 0.0899,-0.14552 0.48846,-0.26458 0.8856,-0.26458 0.39714,0 1.24216,-0.26789 1.87782,-0.59531 1.03109,-0.5311 1.23608,-0.80094 1.90041,-2.50159 0.93066,-2.38246 1.69387,-7.5319 2.07033,-13.96873 0.15319,-2.61937 0.39294,-5.5364 0.53276,-6.48229 0.57775,-3.90835 0.75835,-6.99999 0.44716,-7.65502 -0.16816,-0.35395 -0.85427,-0.94926 -1.52468,-1.32291 -0.67041,-0.37365 -1.42306,-0.88772 -1.67254,-1.14238 -0.24949,-0.25466 -0.62744,-0.46302 -0.83989,-0.46302 -0.21246,0 -0.45128,-0.16939 -0.53073,-0.37642 -0.0794,-0.20703 -0.3436,-0.45625 -0.58701,-0.55382 -1.06068,-0.42518 -3.32528,-0.92231 -4.22578,-0.92765 -0.53861,-0.003 -1.50302,-0.24344 -2.143163,-0.53387 -0.64013,-0.29044 -1.2189,-0.47303 -1.28616,-0.40578 -0.0673,0.0673 -0.73413,-0.10495 -1.48195,-0.38268 -1.33255,-0.49489 -2.22762,-0.46193 -3.67478,0.13532 -0.36989,0.15266 -0.46302,0.0554 -0.46302,-0.48367 0,-0.39734 -0.24177,-0.8441 -0.58804,-1.08664 -0.64348,-0.45071 -2.20138,-0.55712 -2.44259,-0.16684 -0.0833,0.13477 -1.13212,0.92789 -2.33072,1.7625 -1.1986,0.83461 -3.73668,3.01629 -5.64016,4.84819 -3.82819,3.68423 -4.82306,4.44465 -7.7632,5.93377 -2.26596,1.14767 -2.89157,1.63264 -3.22252,2.49807 -0.13627,0.35634 -0.72205,0.81382 -1.43135,1.11787 -0.66037,0.28307 -1.48048,0.81658 -1.82246,1.18558 -0.34198,0.369 -1.29814,0.90361 -2.12481,1.18803 -1.03886,0.35742 -1.86603,0.89062 -2.67847,1.72655 -0.98986,1.01849 -1.25632,1.16615 -1.68775,0.93525 -0.74978,-0.40127 -1.62854,-0.33528 -2.17991,0.1637 -0.36277,0.3283 -0.48386,0.82179 -0.48386,1.97193 0,0.84372 -0.13817,1.8373 -0.30705,2.20795 -0.38912,0.85402 0.0279,1.88097 0.93085,2.29239 0.44363,0.20213 0.77268,0.73246 1.10569,1.78204 0.26076,0.82185 0.75595,2.2383 1.10041,3.14767 0.66591,1.75794 1.56513,4.97864 1.9392,6.94556 0.39016,2.05146 0.3119,5.18213 -0.13889,5.55625 -0.95021,0.7886 -0.0597,2.38125 1.3315,2.38125 0.69696,0 1.09807,-0.21259 1.74731,-0.92604 z m 9.8702,-6.60089 c 0.28247,-0.22581 0.69324,-0.41057 0.91281,-0.41057 0.55929,0 0.0514,0.42854 -0.76494,0.64542 -0.63569,0.16888 -0.64145,0.15973 -0.14787,-0.23485 z m 28.457303,-5.5689 c 0.34124,-0.36323 0.6679,-0.61295 0.72592,-0.55494 0.20724,0.20725 -0.59486,1.21535 -0.96699,1.21535 -0.26503,0 -0.19237,-0.19903 0.24107,-0.66041 z m -2.77714,-3.04376 c 0.0899,-0.14552 0.21603,-0.26458 0.2802,-0.26458 0.0642,0 0.11667,0.11906 0.11667,0.26458 0,0.14553 -0.12609,0.26459 -0.2802,0.26459 -0.1541,0 -0.20661,-0.11906 -0.11667,-0.26459 z M 81.216577,135.06684 c -0.23023,-0.2774 -0.0856,-0.5593 0.64806,-1.26316 l 0.94444,-0.90606 -0.59945,1.19062 c -0.3297,0.65485 -0.62133,1.22327 -0.64807,1.26317 -0.0267,0.0399 -0.18198,-0.0882 -0.34498,-0.28457 z m 24.827213,-0.72963 c 0,-0.15411 0.11907,-0.20661 0.26459,-0.11668 0.14552,0.0899 0.26458,0.21603 0.26458,0.2802 0,0.0642 -0.11906,0.11668 -0.26458,0.11668 -0.14552,0 -0.26459,-0.12609 -0.26459,-0.2802 z m -19.097693,-5.24984 c 0.77414,-0.74202 1.57781,-1.34913 1.78594,-1.34913 0.61462,0 0.43324,0.41925 -0.33227,0.76804 -0.39088,0.1781 -1.19455,0.68525 -1.78594,1.12701 -0.91337,0.68228 -0.86335,0.60009 0.33227,-0.54592 z m -2.03432,33.43622 c -0.22402,-0.95676 -0.24814,-0.97982 -0.26904,-0.25722 -0.0279,0.96398 0.30721,2.29786 0.4302,1.71243 0.0467,-0.22233 -0.0258,-0.87718 -0.16116,-1.45521 z m -30.12625,-26.38483 c 0.17463,-1.14665 0.10573,-1.15705 -0.41608,-0.0628 -0.35465,0.74371 -0.36967,0.92272 -0.0774,0.92272 0.2058,0 0.41919,-0.37181 0.49353,-0.8599 z m 13.95201,-18.33265 c 0.65485,-0.68415 0.9525,-1.11933 0.66146,-0.96706 -0.29104,0.15226 -1.18401,0.95902 -1.98437,1.7928 -0.90696,0.94482 -1.15617,1.30916 -0.66146,0.96706 0.43656,-0.30189 1.32953,-1.10865 1.98437,-1.7928 z m 48.112663,1.34773 c -0.16211,-0.3558 -0.4634,-0.71162 -0.66953,-0.79072 -0.41343,-0.15865 -0.26624,0.20415 0.39542,0.9746 0.54414,0.63361 0.6226,0.58098 0.27411,-0.18388 z m -40.065653,-7.68983 c 0.23922,-0.3651 0.81847,-0.83164 1.2872,-1.03675 0.46874,-0.20512 0.67366,-0.37904 0.45538,-0.38651 -0.63438,-0.0217 -3.53915,1.74207 -3.13455,1.90328 0.6859,0.2733 0.9604,0.17864 1.39197,-0.48002 z M 102.104,110.12722 c -1.06567,-0.89671 -1.34241,-0.80817 -0.43485,0.13912 0.4133,0.43138 0.85275,0.72173 0.97655,0.64522 0.12381,-0.0765 -0.11996,-0.42947 -0.5417,-0.78434 z M 88.153797,108.4195 c -0.17622,-0.17622 -0.90033,-0.18775 -2.10343,-0.0335 l -1.8347,0.23528 2.10344,0.0335 c 1.42398,0.0227 2.01662,-0.0533 1.83469,-0.23527 z"
       id="path2206" />
  </g>
</svg>
