<?xml version="1.0" encoding="UTF-8" standalone="no"?>
<!-- Created with Inkscape (http://www.inkscape.org/) -->

<svg
   width="88.546997mm"
   height="85.724998mm"
   viewBox="0 0 88.546998 85.724997"
   version="1.1"
   id="svg5"
   sodipodi:docname="spotify.svg"
   inkscape:version="1.1.1 (3bf5ae0d25, 2021-09-20)"
   xmlns:inkscape="http://www.inkscape.org/namespaces/inkscape"
   xmlns:sodipodi="http://sodipodi.sourceforge.net/DTD/sodipodi-0.dtd"
   xmlns="http://www.w3.org/2000/svg"
   xmlns:svg="http://www.w3.org/2000/svg">
  <sodipodi:namedview
     id="namedview7"
     pagecolor="#ffffff"
     bordercolor="#666666"
     borderopacity="1.0"
     inkscape:pageshadow="2"
     inkscape:pageopacity="0.0"
     inkscape:pagecheckerboard="0"
     inkscape:document-units="mm"
     showgrid="false"
     inkscape:zoom="0.88388348"
     inkscape:cx="-28.284271"
     inkscape:cy="5.0911688"
     inkscape:window-width="1920"
     inkscape:window-height="991"
     inkscape:window-x="-9"
     inkscape:window-y="-9"
     inkscape:window-maximized="1"
     inkscape:current-layer="layer1" />
  <defs
     id="defs2" />
  <g
     inkscape:label="Capa 1"
     inkscape:groupmode="layer"
     id="layer1">
    <path
       style="fill:#414141;stroke-width:0.352778;fill-opacity:1"
       d="M 37.730153,79.790069 C 37.014642,79.227251 36.128143,79.075246 32.804496,78.945495 29.234998,78.806148 28.41679,78.6492 25.947149,77.630124 21.180695,75.663293 17.902444,73.109799 15.649099,69.608769 15.001741,68.602964 14.310238,67.680009 14.112426,67.557754 13.406634,67.121552 9.9024957,62.117575 8.8849333,60.092793 7.2402661,56.82018 5.9972219,53.01273 5.9972219,51.247723 c 0,-1.053983 -0.2174031,-1.867464 -0.617361,-2.310052 C 4.8584253,48.360657 4.7553881,47.479309 4.7167304,43.265449 4.6915562,40.521466 4.5564049,38.000907 4.4163916,37.664206 4.2763784,37.327508 4.4863383,35.660633 4.8829695,33.96004 5.2796007,32.259448 6.1037802,28.72493 6.7144794,26.105555 7.3251787,23.48618 7.8979977,21.073363 7.9874106,20.743739 8.0768236,20.414116 8.4990463,20.04194 8.9256838,19.916682 9.8335016,19.650154 12.947749,16.37241 13.268535,15.345833 c 0.335595,-1.073966 1.226035,-1.940278 1.994317,-1.940278 0.379286,0 1.584994,-0.819759 2.679351,-1.821688 2.207365,-2.0209327 4.492102,-3.1859604 7.54671,-3.8482009 1.55333,-0.336763 2.239738,-0.3439982 2.927015,-0.030854 1.432425,0.6526561 2.089549,0.4925388 2.50594,-0.6106068 0.308104,-0.8162593 0.657829,-1.061025 1.753037,-1.2269153 2.569241,-0.3891611 13.555643,-0.2066812 18.035526,0.2995631 0.823859,0.0931 1.890751,-0.00971 2.370864,-0.2284625 0.686403,-0.3127466 1.195521,-0.2757293 2.382622,0.1732351 0.83033,0.3140336 2.382816,0.7507266 3.449969,0.9704288 1.629692,0.3355168 8.080184,3.0812185 9.877777,4.2045525 0.291042,0.181874 1.764845,1.004602 3.275122,1.828282 2.756725,1.503474 3.439453,2.35954 2.933432,3.678205 -0.203419,0.530104 1.4703,3.706599 3.02659,5.744064 0.816211,1.068568 0.815258,1.891708 -0.0032,2.632259 -0.590769,0.534636 -0.607784,0.768194 -0.200103,2.746498 0.245061,1.189194 0.486819,2.974914 0.537238,3.968266 0.05042,0.993353 0.378587,2.90661 0.729269,4.251682 0.350679,1.345074 0.6376,3.454096 0.6376,4.686716 0,1.480559 0.195817,2.539982 0.576993,3.121737 0.689839,1.052823 0.513793,3.28149 -0.522361,6.612841 -0.373462,1.200714 -0.864405,2.976869 -1.09099,3.947008 -0.842511,3.607287 -2.937732,7.201884 -4.228606,7.254677 -0.305728,0.01249 -1.924706,1.64985 -3.59773,3.638547 -2.757018,3.277228 -2.996516,3.677824 -2.557639,4.278026 1.14481,1.565621 0.290213,2.845968 -2.342268,3.509158 -2.29417,0.57796 -3.949573,1.183341 -7.051287,2.578651 -1.26118,0.567344 -3.126983,1.231162 -4.146225,1.475158 -1.019245,0.243991 -1.941427,0.586419 -2.049293,0.760952 -0.107865,0.174533 -0.732042,0.31733 -1.387058,0.31733 -0.655014,0 -1.637835,0.170399 -2.184041,0.378662 -0.546209,0.208265 -2.818729,0.601126 -5.050048,0.873022 -2.23132,0.271897 -4.3804,0.587442 -4.775733,0.701213 -0.438863,0.126295 -1.058598,-0.06044 -1.591335,-0.479492 z M 23.63611,72.903833 c 0,-0.06664 -0.833437,-0.793175 -1.852083,-1.614519 l -1.852084,-1.493354 1.75423,1.614519 c 1.692242,1.557468 1.949937,1.754823 1.949937,1.493354 z m 7.042956,-0.37714 c -0.674147,-0.650318 -3.162401,-1.66733 -3.162401,-1.292557 0,0.159392 0.754063,0.622364 1.675695,1.028827 2.005571,0.884509 2.158325,0.911606 1.486706,0.26373 z m -15.333233,-9.73225 c -0.757852,-1.50489 -1.463293,-2.469444 -1.806068,-2.469444 -0.355494,0 -0.487616,0.195075 -0.359046,0.530126 0.22934,0.597651 3.056291,4.408762 3.270266,4.408762 0.07614,0 -0.421177,-1.11125 -1.105152,-2.469444 z m 37.218053,-3.175 c 1.501913,-1.501912 0.739405,-2.434145 -3.476081,-4.249801 -4.759999,-2.050189 -10.808349,-2.662146 -15.599591,-1.578324 -3.24372,0.733757 -4.228269,1.626489 -3.684221,3.340636 0.338657,1.067012 1.342683,1.168277 3.702227,0.373405 1.569235,-0.528638 3.067503,-0.731312 5.410466,-0.731884 3.77149,-0.0011 6.482983,0.626435 9.943034,2.300531 1.358194,0.657144 2.588507,1.207446 2.734028,1.222897 0.14552,0.01545 0.582083,-0.289404 0.970138,-0.67746 z M 18.369184,57.391461 c -0.229827,-0.604492 -0.622895,-0.947018 -1.086754,-0.947018 -0.782468,0 -0.686509,0.348993 0.675937,2.458293 0.530535,0.821362 0.568381,0.830062 0.666669,0.153268 0.05731,-0.394642 -0.05782,-1.143684 -0.255852,-1.664543 z m 45.349112,-9.251745 c 0.61456,-0.937938 0.609423,-0.960981 -0.738953,-3.315303 -0.655013,-1.143681 -2.027827,-1.827816 -4.594624,-2.289701 -1.79386,-0.322802 -2.134033,-0.503029 -2.230536,-1.18177 -0.186355,-1.310697 -1.488986,-1.835076 -7.179299,-2.890065 -5.475633,-1.015182 -8.407121,-1.096821 -10.077707,-0.280656 -0.62708,0.306359 -0.924288,0.264876 -1.438892,-0.200833 -0.789619,-0.714597 -1.89805,-0.749406 -3.168167,-0.09949 -0.523941,0.268101 -1.666995,0.596452 -2.54012,0.729675 -2.246826,0.342823 -6.060495,1.597699 -6.790971,2.234551 -0.671105,0.585086 -0.831236,2.018947 -0.264584,2.369157 0.194028,0.119916 0.352778,0.681249 0.352778,1.247408 0,0.706215 0.274373,1.20916 0.873955,1.60202 0.817395,0.535577 0.971501,0.525667 2.38125,-0.153137 3.850405,-1.854003 10.350223,-2.764441 15.265627,-2.138285 1.74625,0.222448 3.96875,0.552937 4.938889,0.734416 0.970139,0.18148 2.521437,0.471848 3.447323,0.645263 0.92589,0.173415 2.19589,0.478666 2.822222,0.678338 0.626336,0.199673 1.947581,0.610137 2.936106,0.912143 0.988526,0.302006 2.329057,0.941405 2.978954,1.420886 1.501927,1.108082 2.28877,1.101686 3.026749,-0.02462 z m 12.369909,-3.755863 c -0.112614,-0.281421 -0.196208,-0.197831 -0.213135,0.213138 -0.01531,0.371884 0.06806,0.580245 0.185286,0.463021 0.117225,-0.117225 0.129756,-0.421499 0.02783,-0.676159 z M 9.6417686,35.710593 c 0.5805584,-1.774956 0.8703034,-4.502225 0.5159614,-4.856567 -0.3474599,-0.34746 -0.9238211,1.988357 -1.069796,4.335557 -0.075418,1.212673 -0.1055779,2.204861 -0.067024,2.204861 0.038554,0 0.3179406,-0.757732 0.6208586,-1.683851 z M 75.218099,34.507546 c -0.537763,-0.537763 -0.865328,-0.210199 -0.567065,0.567062 0.16408,0.427585 0.341224,0.493685 0.608026,0.226883 0.266803,-0.266803 0.254868,-0.498114 -0.04096,-0.793945 z m -9.188241,-0.16639 c 0.354827,-0.321113 0.645139,-0.826819 0.645139,-1.12379 0,-0.626918 -1.356039,-2.17046 -1.913576,-2.178171 -0.208714,-0.0029 -1.01448,-0.558615 -1.790591,-1.234953 l -1.411111,-1.229705 1.5875,0.665858 c 0.873125,0.366221 2.395404,1.104319 3.382843,1.640216 1.292496,0.701458 2.056747,0.90875 2.728654,0.740112 1.044138,-0.262062 1.568754,-1.564149 1.023067,-2.539234 -0.481644,-0.860651 -8.644481,-4.50964 -13.269408,-5.931751 -2.155627,-0.662831 -4.792447,-1.561334 -5.8596,-1.996675 -1.753799,-0.715454 -2.567527,-0.795219 -8.466666,-0.829934 -5.790519,-0.03408 -6.864491,0.05343 -9.524999,0.776096 -1.649237,0.447977 -3.684993,0.98782 -4.523903,1.199651 -2.699742,0.681705 -4.521373,3.439737 -3.166653,4.794457 0.513502,0.513501 1.921127,0.558188 2.2225,0.07055 0.119916,-0.194028 0.596166,-0.352778 1.058334,-0.352778 0.462167,0 0.938417,0.15875 1.058333,0.352778 0.314124,0.508264 2.198113,0.427452 4.201206,-0.180207 0.983989,-0.298504 3.106158,-0.525348 4.914716,-0.525348 2.664287,0 3.618043,0.166838 5.85296,1.023844 1.468505,0.563115 3.463756,1.207273 4.433895,1.431464 0.970138,0.22419 2.224842,0.636585 2.788228,0.916433 0.563386,0.279848 1.515886,0.51444 2.116667,0.521315 0.60078,0.0069 1.489202,0.239375 1.974271,0.516666 0.485069,0.277291 1.230058,0.50979 1.65553,0.516666 0.880491,0.01423 3.034947,1.165569 4.341692,2.320197 1.512506,1.336438 2.916756,1.563142 3.940972,0.636238 z M 20.446409,27.60863 c 0.552845,-1.020719 0.901379,-1.850944 0.77452,-1.844945 -0.311567,0.01474 -2.268193,2.657076 -3.257277,4.398814 l -0.801329,1.411111 1.139456,-1.054563 c 0.626702,-0.58001 1.591785,-1.889698 2.14463,-2.910417 z m 51.317721,0.878175 c -0.730148,-2.317488 -6.475405,-8.173379 -10.116216,-10.311016 -2.365915,-1.389105 -2.681404,-1.184314 -0.521635,0.338605 2.711855,1.91221 7.463663,6.40981 9.076495,8.590929 0.873125,1.180772 1.637884,2.153243 1.699468,2.161045 0.06158,0.0078 -7.05e-4,-0.343001 -0.138112,-0.779563 z M 70.548475,17.453974 c -0.245434,-0.29573 -0.518893,-0.465042 -0.607687,-0.376248 -0.244648,0.24465 0.25243,0.91394 0.678779,0.91394 0.233927,0 0.207162,-0.202417 -0.07109,-0.537692 z"
       id="path17905" />
  </g>
</svg>
