<?xml version="1.0" encoding="UTF-8" standalone="no"?>
<!-- Created with Inkscape (http://www.inkscape.org/) -->

<svg
   width="76.199997mm"
   height="81.844002mm"
   viewBox="0 0 76.199998 81.844001"
   version="1.1"
   id="svg5"
   sodipodi:docname="trakt.svg"
   inkscape:version="1.1.1 (3bf5ae0d25, 2021-09-20)"
   xmlns:inkscape="http://www.inkscape.org/namespaces/inkscape"
   xmlns:sodipodi="http://sodipodi.sourceforge.net/DTD/sodipodi-0.dtd"
   xmlns="http://www.w3.org/2000/svg"
   xmlns:svg="http://www.w3.org/2000/svg">
  <sodipodi:namedview
     id="namedview7"
     pagecolor="#ffffff"
     bordercolor="#666666"
     borderopacity="1.0"
     inkscape:pageshadow="2"
     inkscape:pageopacity="0.0"
     inkscape:pagecheckerboard="0"
     inkscape:document-units="mm"
     showgrid="false"
     inkscape:zoom="0.88388348"
     inkscape:cx="-28.284271"
     inkscape:cy="5.0911688"
     inkscape:window-width="1920"
     inkscape:window-height="991"
     inkscape:window-x="-9"
     inkscape:window-y="-9"
     inkscape:window-maximized="1"
     inkscape:current-layer="layer1" />
  <defs
     id="defs2" />
  <g
     inkscape:label="Capa 1"
     inkscape:groupmode="layer"
     id="layer1">
    <path
       style="fill:#414141;stroke-width:0.352778;fill-opacity:1"
       d="M 28.927777,76.707506 C 28.248679,76.402826 26.521363,75.909963 25.089296,75.612261 20.387368,74.634799 16.132126,72.509627 12.9357,69.542459 8.8439914,65.74422 7.1022253,62.3457 5.4092681,54.856944 4.5999949,51.277142 4.4491989,49.779463 4.4324695,45.155555 c -0.018203,-5.031172 0.052913,-5.665357 0.8900936,-7.9375 1.9157582,-5.199446 3.0744649,-8.561053 3.8303495,-11.1125 1.8034954,-6.087599 5.4526464,-11.896409 9.8057554,-15.609052 3.809191,-3.2487492 7.651321,-4.5978766 12.765031,-4.4823185 2.633861,0.059519 3.321349,-0.060693 5.317966,-0.9298838 2.0257,-0.881851 2.72494,-0.9999373 5.997222,-1.0127978 3.666942,-0.014411 3.734668,6.35e-4 6.739188,1.49626 1.669263,0.83095 4.156166,2.4545395 5.526447,3.6079765 2.467229,2.0767916 5.977138,6.5235916 7.459369,9.4504766 0.422392,0.834071 0.998714,1.605033 1.280718,1.713248 0.912699,0.350236 4.035576,4.597103 5.089309,6.921066 2.207338,4.868177 3.214878,11.570852 2.504158,16.658955 -0.508589,3.641038 -1.912341,9.177564 -3.076973,12.135859 -1.288003,3.271661 -4.257979,7.628396 -6.758425,9.9141 -5.766883,5.271611 -9.112218,7.687017 -12.759877,9.212905 -3.08847,1.291967 -5.406643,1.634073 -12.706691,1.8752 -5.163535,0.170558 -6.375626,0.113288 -7.408333,-0.350043 z M 42.9674,62.985872 c 3.33061,-0.700617 9.194779,-2.928437 10.440529,-3.966397 0.561234,-0.467625 1.751859,-1.22259 2.645833,-1.677709 0.893971,-0.455115 1.967343,-1.200383 2.385268,-1.65615 1.32678,-1.446915 2.896838,-4.443441 3.681162,-7.025654 0.649898,-2.139644 0.734871,-3.093177 0.589774,-6.618083 C 62.516647,37.345602 61.643935,34.518383 58.683858,28.999013 55.485169,23.034725 49.00721,15.446507 45.861109,13.97857 c -2.30118,-1.073707 -8.963642,-1.054218 -11.288888,0.03302 -0.873125,0.408256 -2.179986,0.84245 -2.904135,0.964875 -0.72415,0.122426 -2.759888,0.945087 -4.523863,1.828135 -1.763975,0.883049 -3.235239,1.551073 -3.269476,1.484499 -0.643586,-1.251484 -0.990944,-1.547361 -1.92647,-1.640953 -0.83401,-0.08344 -1.187241,0.07755 -1.515344,0.690614 -0.235307,0.439676 -1.202282,1.78488 -2.148832,2.989343 -2.49614,3.176278 -4.922275,10.168662 -6.295371,18.143942 -1.124715,6.532623 -0.868418,10.026107 1.046779,14.268231 1.130456,2.503936 4.269337,5.812427 7.112424,7.496743 4.300163,2.547525 16.684588,4.039362 22.819467,2.748852 z M 31.57361,59.733871 c -2.052033,-0.257168 -8.020482,-1.578472 -8.861955,-1.961875 -0.832648,-0.37938 -0.809796,-0.411892 1.006369,-1.431791 1.0221,-0.573976 2.334614,-1.291096 2.916697,-1.593599 1.336608,-0.694627 4.312362,-2.638263 5.468056,-3.571508 0.485069,-0.391704 1.088618,-0.715716 1.341219,-0.72003 0.252601,-0.0043 1.072158,-0.360578 1.821237,-0.791694 l 1.361961,-0.783844 1.22393,0.872039 c 1.184593,0.844017 7.657208,8.306181 7.657208,8.827862 0,0.141848 -1.130724,0.513252 -2.51272,0.825348 -2.323352,0.524679 -8.452303,0.701269 -11.422002,0.329092 z M 18.0505,54.164498 c -1.605695,-1.828786 -2.394479,-3.560495 -3.035616,-6.664435 -0.535974,-2.594818 -0.527913,-2.966183 0.156591,-7.214376 0.396909,-2.463309 1.016685,-5.510618 1.377281,-6.771798 0.360596,-1.261181 0.872455,-3.068794 1.137464,-4.016919 0.375578,-1.343707 0.69209,-1.797363 1.435263,-2.057157 0.55608,-0.194392 1.331226,-0.977959 1.859948,-1.880155 0.498587,-0.850774 1.418919,-1.927512 2.045184,-2.392751 2.098749,-1.55912 7.407895,-4.23203 9.752785,-4.910078 1.277093,-0.369284 3.110647,-0.897516 4.074563,-1.173849 2.581112,-0.739948 6.099337,-0.65019 7.860121,0.200528 1.819589,0.87913 2.045967,1.242413 1.394128,2.237245 -0.557554,0.850939 -7.796617,8.395108 -12.417936,12.941322 -2.744089,2.699493 -7.930383,6.820926 -10.12862,8.048988 -1.384747,0.773603 -1.807003,1.850207 -1.113823,2.839858 0.831587,1.187259 2.177268,0.926708 4.539666,-0.878971 1.164167,-0.889818 3.227916,-2.45794 4.586111,-3.484718 1.358194,-1.026773 2.93454,-2.359603 3.502991,-2.961841 0.992519,-1.05151 1.060824,-1.070577 1.720692,-0.480324 0.37793,0.33806 1.608243,1.96403 2.734027,3.613266 4.23986,6.211242 5.045562,7.286392 7.005736,9.348611 2.852865,3.001388 3.312262,3.743967 1.264331,2.043695 -0.970139,-0.805448 -2.623615,-2.150407 -3.674396,-2.988797 -1.382783,-1.103288 -2.457763,-2.450066 -3.891738,-4.875731 -2.446884,-4.139068 -2.92711,-4.308313 -5.644084,-1.989148 -1.015315,0.866658 -2.268372,1.679077 -2.784571,1.805372 -1.477791,0.361569 -4.599805,1.912422 -6.406963,3.182645 -0.908698,0.638707 -1.951763,1.218981 -2.317922,1.289498 -0.36616,0.07052 -0.817043,0.558422 -1.001962,1.084237 -0.265953,0.756236 -0.200756,1.105712 0.311969,1.672269 0.966958,1.068476 2.017001,0.880647 4.485286,-0.802322 2.46521,-1.68087 5.165585,-3.067551 5.97364,-3.067551 0.288809,0 1.293896,-0.487553 2.233527,-1.083448 1.332112,-0.8448 1.772559,-0.980785 1.999614,-0.617361 0.205034,0.328179 0.035,0.518277 -0.57471,0.642476 -0.47625,0.09701 -1.178292,0.445837 -1.560097,0.775162 -0.381803,0.329328 -1.652682,1.074335 -2.824176,1.655575 -1.171494,0.581237 -2.72726,1.532199 -3.457258,2.113248 -0.729998,0.58105 -2.154608,1.468523 -3.165799,1.972159 -1.011191,0.503636 -1.926215,1.057582 -2.033386,1.230986 -0.107171,0.173408 -0.787957,0.500726 -1.512859,0.727375 -0.724902,0.226653 -1.64969,0.804171 -2.055085,1.283381 l -0.737082,0.871283 z m 36.449124,-0.837124 c -1.101393,-2.048295 -3.370438,-5.110921 -5.27026,-7.113485 -2.087174,-2.200053 -8.86449,-11.566239 -9.705706,-13.413191 -0.38535,-0.846067 -0.156058,-1.145426 4.6877,-6.120221 2.830114,-2.906674 5.194434,-5.066304 5.321469,-4.86076 0.12573,0.203436 -0.09335,0.542183 -0.486837,0.752773 -0.393491,0.210589 -0.715436,0.546279 -0.715436,0.745977 0,0.199699 -0.674688,1.164633 -1.499306,2.144298 -0.824618,0.979666 -2.088599,2.480267 -2.808848,3.334669 -1.34856,1.599747 -1.405668,2.159772 -0.346047,3.393538 0.734152,0.854809 1.916913,0.771553 2.828819,-0.199126 0.421876,-0.449067 0.767048,-0.93374 0.767048,-1.077049 0,-0.448115 1.527535,-2.533646 3.125541,-4.26728 l 1.533073,-1.663186 0.99634,1.177973 c 1.386565,1.639339 3.966418,6.604762 5.271371,10.145768 2.171806,5.893227 1.235001,12.988152 -2.227915,16.873178 -0.857247,0.961739 -1.023557,0.97826 -1.471006,0.146124 z M 47.776188,37.898412 c 0.304902,-0.304899 0.557276,-0.820836 0.560836,-1.146528 0.0036,-0.325688 1.352931,-1.978999 2.998611,-3.674022 1.645676,-1.695023 2.992141,-3.349398 2.992141,-3.676388 0,-0.828563 -1.033738,-1.884807 -1.844644,-1.884807 -1.032305,0 -8.462757,7.719154 -8.469072,8.798126 -0.01,1.706382 2.558288,2.787463 3.762128,1.583619 z M 53.674114,12.006094 C 52.635504,11.059977 50.363721,9.5590582 48.625705,8.6707186 45.886936,7.2708699 45.17695,7.0555555 43.299784,7.0555555 c -2.583272,0 -2.338066,0.3742101 0.797436,1.2169789 2.807769,0.7546792 4.391311,1.44659 5.968637,2.6079296 1.510146,1.111875 4.674147,2.868278 5.143863,2.855465 0.194028,-0.0053 -0.496993,-0.783718 -1.535606,-1.729835 z"
       id="path18371" />
  </g>
</svg>
