<?xml version="1.0" encoding="UTF-8" standalone="no"?>
<!-- Created with Inkscape (http://www.inkscape.org/) -->

<svg
   width="87.972534mm"
   height="82.42453mm"
   viewBox="0 0 87.972535 82.424531"
   version="1.1"
   id="svg5"
   inkscape:version="1.1.2 (0a00cf5339, 2022-02-04, custom)"
   sodipodi:docname="ubisoft.svg"
   xmlns:inkscape="http://www.inkscape.org/namespaces/inkscape"
   xmlns:sodipodi="http://sodipodi.sourceforge.net/DTD/sodipodi-0.dtd"
   xmlns="http://www.w3.org/2000/svg"
   xmlns:svg="http://www.w3.org/2000/svg">
  <sodipodi:namedview
     id="namedview7"
     pagecolor="#ffffff"
     bordercolor="#666666"
     borderopacity="1.0"
     inkscape:pageshadow="2"
     inkscape:pageopacity="0.0"
     inkscape:pagecheckerboard="0"
     inkscape:document-units="mm"
     showgrid="false"
     fit-margin-top="0"
     fit-margin-left="0"
     fit-margin-right="0"
     fit-margin-bottom="0"
     inkscape:zoom="0.733172"
     inkscape:cx="-247.55446"
     inkscape:cy="16.367237"
     inkscape:window-width="1920"
     inkscape:window-height="1009"
     inkscape:window-x="-8"
     inkscape:window-y="-8"
     inkscape:window-maximized="1"
     inkscape:current-layer="layer1" />
  <defs
     id="defs2" />
  <g
     inkscape:label="Capa 1"
     inkscape:groupmode="layer"
     id="layer1"
     transform="translate(-170.27027,-144.33175)">
    <path
       style="fill:#414141;stroke-width:0.264583;fill-opacity:1"
       d="m 202.06903,226.61409 c -2.04693,-0.23736 -4.24649,-0.82998 -5.36018,-1.44418 -0.39888,-0.21998 -2.5707,-1.01968 -4.82627,-1.77712 -4.5202,-1.51791 -5.91939,-2.29266 -9.2642,-5.12975 -3.86019,-3.27424 -6.99654,-7.2861 -8.87576,-11.35341 -1.02577,-2.22015 -2.35169,-7.25276 -2.61934,-9.94187 -0.0941,-0.94588 -0.35478,-3.33298 -0.5792,-5.30466 -0.32546,-2.85941 -0.35131,-4.14443 -0.12777,-6.35 0.56983,-5.62225 0.97138,-7.0789 4.04438,-14.67138 3.01466,-7.44834 6.46465,-13.47259 9.28106,-16.20627 0.91219,-0.88539 2.11617,-2.1586 2.6755,-2.82934 1.44439,-1.7321 2.20654,-2.07136 7.97887,-3.55172 2.4323,-0.62378 5.16549,-1.08448 7.27604,-1.22644 4.19274,-0.28201 4.42642,-0.3393 4.6259,-1.1341 0.0985,-0.39256 0.30321,-0.86324 0.45485,-1.04596 0.37438,-0.4511 2.12494,-0.41755 4.61941,0.0885 1.26769,0.25719 3.92503,0.45946 6.8363,0.52035 5.41333,0.11322 8.90043,0.33807 9.30302,0.59986 0.15128,0.0984 0.41613,0.44675 0.58855,0.77417 0.17243,0.32742 0.48473,0.59531 0.69399,0.59531 0.20927,0 0.88969,0.2251 1.51205,0.50023 0.62235,0.27513 2.07334,0.75772 3.22441,1.07243 1.15107,0.31471 2.38752,0.80398 2.74766,1.08727 0.36014,0.28329 0.83866,0.51507 1.06336,0.51507 0.22471,0 0.7742,0.10809 1.22109,0.2402 1.30399,0.38549 3.66716,1.04978 4.38441,1.23246 0.3638,0.0927 1.07818,0.49008 1.5875,0.88316 0.50932,0.39307 1.41914,0.96767 2.02181,1.27688 1.25764,0.64526 4.59277,2.99789 4.59277,3.23978 0,0.089 0.60251,0.8711 1.33891,1.73793 2.00876,2.36454 3.06774,4.26943 4.09017,7.35733 2.61464,7.89664 2.11331,19.87282 -1.25321,29.93747 -1.11928,3.34624 -1.26904,3.63172 -4.48198,8.54415 -3.59007,5.48904 -5.50802,7.36687 -11.86472,11.61651 -7.9528,5.31668 -14.00319,8.11085 -20.79756,9.60465 -2.13991,0.47047 -3.68117,0.59219 -8.4389,0.66641 -3.20146,0.0499 -6.65427,-0.006 -7.67292,-0.12394 z m 2.66141,-3.06411 c -0.56486,-0.42725 -1.57121,-0.48627 -3.19057,-0.18715 l -1.05834,0.1955 1.45521,0.15534 c 0.80037,0.0854 1.87193,0.17096 2.38125,0.19005 0.86868,0.0326 0.89423,0.0106 0.41245,-0.35374 z m 11.42215,-0.0192 c -0.0879,-0.0879 -0.31613,-0.0973 -0.50712,-0.0209 -0.21107,0.0845 -0.14838,0.14716 0.15985,0.15985 0.27891,0.0115 0.43518,-0.051 0.34727,-0.13896 z m 7.95954,-7.49652 c 0.0661,-0.19844 -0.0331,-0.29766 -0.23151,-0.23151 -0.19099,0.0637 -0.39935,0.27202 -0.46302,0.46302 -0.0661,0.19844 0.0331,0.29766 0.23151,0.23151 0.191,-0.0637 0.39936,-0.27202 0.46302,-0.46302 z m -40.64979,-1.85722 c -0.0995,-1.04379 -0.10178,-1.04567 -0.74544,-0.62392 l -0.64561,0.42302 0.58614,0.62392 c 0.80186,0.85354 0.9207,0.79109 0.80491,-0.42302 z m 7.69263,0.87171 c -0.1819,-0.0734 -0.47955,-0.0734 -0.66146,0 -0.1819,0.0734 -0.0331,0.13345 0.33073,0.13345 0.36381,0 0.51263,-0.0601 0.33073,-0.13345 z m 5.22552,-0.72079 c 0,-0.20532 -0.34947,-0.41813 -0.79375,-0.48334 -0.98117,-0.14401 -0.99269,-0.0684 -0.0661,0.43427 0.90425,0.49057 0.85989,0.48803 0.85989,0.0491 z m 13.22917,-0.16232 c 0.29104,-0.29104 0.52917,-0.76729 0.52917,-1.05833 0,-0.62914 -0.5207,-0.58217 6.2177,-0.56093 1.60918,0.005 1.67485,7.9e-4 4.36563,-0.28346 2.12971,-0.22498 2.95798,-0.46701 5.42396,-1.58496 2.99622,-1.35832 3.72321,-1.95248 7.0377,-5.75183 1.0711,-1.2278 2.27126,-3.52949 2.7701,-5.31257 0.18321,-0.65485 0.58495,-1.88216 0.89278,-2.72737 0.71227,-1.95572 1.18703,-5.44873 0.95555,-7.03033 -0.0984,-0.67238 -0.18846,-1.46063 -0.20011,-1.75168 -0.16128,-4.02785 -0.50549,-7.31392 -0.85135,-8.12744 -0.23002,-0.54103 -0.41821,-1.31821 -0.41821,-1.72706 0,-0.40886 -0.16127,-0.97823 -0.35838,-1.26527 -0.1971,-0.28704 -0.42404,-0.81955 -0.50431,-1.18335 -0.32408,-1.46895 -1.56016,-3.92139 -2.86272,-5.67975 -0.75816,-1.02348 -1.5294,-2.21806 -1.71385,-2.65463 -0.44586,-1.05525 -1.24669,-1.75937 -3.1597,-2.77812 -0.87313,-0.46497 -1.82563,-1.05724 -2.11667,-1.31615 -0.29104,-0.25892 -0.97656,-0.61402 -1.52338,-0.78912 -0.54682,-0.1751 -1.11788,-0.54941 -1.26901,-0.83181 -0.25243,-0.47167 -0.50489,-0.50345 -3.10233,-0.39047 -2.33235,0.10145 -2.90883,0.0494 -3.29177,-0.29714 -0.36441,-0.32979 -0.80292,-0.38473 -2.0393,-0.2555 l -1.57507,0.16462 -1.09771,-1.25107 c -0.60373,-0.68809 -0.97449,-1.00315 -0.82391,-0.70014 0.15059,0.30301 0.46539,0.70993 0.69957,0.90428 0.23417,0.19434 0.52505,0.54174 0.6464,0.77199 0.1925,0.36523 -0.08,0.42566 -2.13606,0.47371 -1.29618,0.0303 -2.80096,0.17846 -3.34394,0.32925 -0.54298,0.1508 -2.00254,0.27485 -3.24347,0.27566 -1.6317,0.001 -2.4224,0.11786 -2.85654,0.42195 -0.33017,0.23126 -0.79086,0.34735 -1.02375,0.25798 -0.2329,-0.0894 -1.09058,0.18038 -1.90596,0.59944 -0.81539,0.41906 -1.88317,0.83852 -2.37287,0.93212 -0.52633,0.10061 -1.28719,0.57605 -1.86099,1.1629 -0.53385,0.54599 -1.54068,1.27319 -2.23738,1.61601 -1.50526,0.74067 -1.85747,1.43601 -1.29251,2.5517 0.22107,0.43656 0.52272,0.87163 0.67033,0.96682 0.14803,0.0955 -0.68599,1.12105 -1.85999,2.28718 l -2.12836,2.11411 -0.32048,1.94615 c -0.17626,1.07039 -0.41158,2.24585 -0.52294,2.61214 -0.24598,0.8091 0.0605,5.90322 0.60452,10.04964 0.21959,1.67349 0.47421,3.93274 0.56584,5.02056 0.2019,2.397 0.56672,3.92107 1.38088,5.76875 0.33846,0.76814 0.61539,1.63295 0.61539,1.92182 0,0.28887 0.11329,0.73196 0.25177,0.98465 0.13847,0.25268 0.45574,0.93568 0.70505,1.51776 0.2493,0.58208 0.66645,1.29845 0.92699,1.59192 0.26054,0.29347 0.78753,1.12691 1.17109,1.85208 0.95919,1.81348 1.15006,1.99033 3.39384,3.14461 2.0461,1.05258 3.02933,1.33936 6.06048,1.76764 0.98648,0.13938 2.47001,0.4296 3.29673,0.64494 0.82673,0.21533 1.76121,0.39152 2.07662,0.39152 0.31541,0 0.72169,0.17859 0.90285,0.39687 0.45686,0.55049 1.2241,0.49569 1.85208,-0.13229 z m -10.71251,-4.97581 c -0.87141,-0.22337 -1.44561,-0.45239 -1.27599,-0.50892 0.22472,-0.0749 0.23483,-0.31386 0.0373,-0.8806 -0.30674,-0.87993 -0.86744,-0.78168 -0.59207,0.10374 0.17168,0.55202 0.15917,0.55606 -0.3408,0.11003 -0.28546,-0.25466 -0.64001,-0.46302 -0.7879,-0.46302 -0.43363,0 -1.05355,-0.85064 -1.39494,-1.91409 -0.17445,-0.54343 -0.58732,-1.20054 -0.91748,-1.46024 -0.76616,-0.60266 -1.11583,-1.26619 -1.59157,-3.02017 -0.21045,-0.77589 -0.69259,-2.24415 -1.07142,-3.26279 -0.65619,-1.76448 -0.80943,-2.9509 -1.03409,-8.00637 -0.034,-0.76548 -0.19374,-1.52367 -0.35493,-1.68486 -0.16119,-0.1612 -0.23028,-0.68005 -0.15353,-1.15302 0.0868,-0.53517 -0.013,-1.09795 -0.26433,-1.49014 -0.31917,-0.49802 -0.38067,-1.24064 -0.29321,-3.54061 0.1723,-4.53114 0.44945,-5.33161 2.68994,-7.76915 2.09167,-2.27564 4.1796,-3.53053 6.65545,-4.00006 0.74921,-0.14209 1.57652,-0.37304 1.83847,-0.51324 1.016,-0.54374 4.23839,-0.8004 5.16521,-0.41139 0.27471,0.1153 0.86546,0.0763 1.32292,-0.0874 0.5584,-0.19977 1.16992,-0.21515 1.88489,-0.0474 0.58209,0.13655 1.47682,0.25112 1.9883,0.2546 0.51148,0.003 1.34491,0.22699 1.85208,0.4967 0.50717,0.26972 1.34957,0.5692 1.872,0.66551 0.52243,0.0963 1.22779,0.47095 1.56747,0.83252 0.33968,0.36158 0.80521,0.658 1.0345,0.65873 1.01933,0.003 2.42258,1.70899 3.83262,4.65889 0.35568,0.74411 0.93973,1.57755 1.2979,1.85209 0.43081,0.33022 0.85966,1.17075 1.26711,2.48354 0.86839,2.79788 0.87862,8.06968 0.0204,10.51195 -0.82488,2.34736 -1.72432,3.85262 -2.54616,4.26113 -0.39092,0.19432 -0.7754,0.52174 -0.8544,0.72761 -0.079,0.20587 -0.27973,0.37482 -0.44606,0.37544 -0.16633,5.3e-4 -0.8382,0.3573 -1.49305,0.79261 -0.65484,0.43532 -1.34075,0.792 -1.52423,0.79262 -0.28588,0.001 -1.90039,0.64665 -3.23827,1.29506 -0.71373,0.34591 -2.84567,0.01 -3.32953,-0.52475 -1.35435,-1.49654 -2.65455,-7.98471 -2.16584,-10.80778 0.19532,-1.12825 0.51616,-1.7578 1.48324,-2.91042 1.95138,-2.32576 2.22783,-2.44398 4.24409,-1.81471 0.90166,0.28141 1.06616,0.46948 1.44637,1.65365 0.48592,1.51337 0.62599,2.53563 0.40061,2.92363 -0.0845,0.14552 -0.23926,0.6211 -0.34384,1.05685 -0.27828,1.15953 -0.53325,1.37393 -3.03338,2.55073 -2.39632,1.12793 -2.65992,1.34922 -2.66642,2.23839 -0.007,0.97022 0.88873,1.52417 2.14098,1.32393 0.93905,-0.15016 1.15846,-0.0927 1.49798,0.39199 0.32784,0.46806 0.58086,0.54335 1.43902,0.42825 2.64833,-0.35521 4.65788,-2.90573 5.54784,-7.0413 0.55797,-2.59282 0.56148,-2.72909 0.13703,-5.31484 -0.23959,-1.45959 -0.58726,-2.93998 -0.77261,-3.28976 -0.46148,-0.8709 -2.54624,-3.05987 -2.9142,-3.05987 -0.16451,0 -0.5449,-0.22403 -0.84533,-0.49784 -0.30042,-0.27381 -1.33462,-0.9188 -2.29823,-1.43331 -1.60974,-0.8595 -1.90894,-0.92957 -3.68437,-0.86286 -1.58751,0.0597 -2.01223,0.17127 -2.38004,0.6255 -0.24624,0.30409 -0.96953,0.81974 -1.60731,1.14587 -2.27941,1.16561 -4.13687,2.83405 -5.773,5.18551 -1.02364,1.47119 -1.60431,2.57155 -1.60431,3.04017 0,0.40396 -0.12561,0.73446 -0.27914,0.73446 -0.36818,0 -1.4598,2.49568 -1.67808,3.83646 -0.0948,0.58208 -0.27308,2.36802 -0.39627,3.96875 -0.24808,3.22359 0.2274,8.68069 0.86248,9.89859 0.19638,0.37661 0.68031,1.31444 1.0754,2.08406 0.7059,1.37506 2.31213,3.23089 2.79637,3.23089 0.13556,0 0.3739,0.23813 0.52966,0.52917 0.33579,0.62742 0.27279,0.62905 -1.98126,0.0513 z m 9.38959,0.0366 c -3.28505,-0.92388 -4.16407,-1.37876 -5.85112,-3.02791 -0.42994,-0.42028 -0.88641,-0.76414 -1.01439,-0.76414 -0.12798,0 -0.68943,-0.80367 -1.24765,-1.78594 -1.4009,-2.46503 -1.63729,-4.33174 -1.36564,-10.78375 0.13234,-3.1432 0.2658,-3.65276 1.34197,-5.12391 0.25417,-0.34745 0.58675,-1.09456 0.73907,-1.66025 0.28015,-1.04038 2.56182,-4.72323 2.92623,-4.72323 0.10868,0 0.54901,-0.29569 0.97851,-0.6571 1.51353,-1.27354 4.02918,-2.5179 5.09033,-2.5179 0.55951,0 1.09088,0.11906 1.18082,0.26458 0.0899,0.14552 0.37723,0.26459 0.63844,0.26459 0.2612,0 0.8105,0.31101 1.22066,0.69113 0.41017,0.38013 1.08847,0.81061 1.50735,0.95663 1.20232,0.41913 0.63584,0.5603 -0.78603,0.19589 -0.81421,-0.20868 -1.84026,-0.26085 -2.79183,-0.14196 -1.29757,0.16213 -1.65493,0.34005 -2.59823,1.29366 -2.03187,2.05409 -3.198,3.82037 -3.57228,5.4108 -0.48108,2.04429 -0.46205,6.34015 0.0319,7.20426 0.20797,0.3638 0.38234,1.07565 0.3875,1.58189 0.013,1.27708 1.26094,4.48239 2.09538,5.38196 1.26311,1.36169 2.33714,1.84461 4.3071,1.93659 1.43449,0.067 2.04065,-0.0278 2.8075,-0.43875 0.53791,-0.2883 1.2179,-0.52497 1.5111,-0.52593 0.2932,-0.001 0.89027,-0.2383 1.32683,-0.52743 0.43657,-0.28912 0.98606,-0.52646 1.22109,-0.52742 0.23504,-0.001 0.71129,-0.22171 1.05834,-0.49056 0.34704,-0.26885 0.97098,-0.57193 1.38652,-0.67351 0.42114,-0.10295 0.81436,-0.40968 0.88846,-0.69304 0.0731,-0.2796 0.34723,-0.57637 0.60913,-0.6595 0.62901,-0.19964 2.64167,-2.3952 2.64167,-2.88174 0,-0.20974 0.17445,-0.71841 0.38765,-1.13039 0.21321,-0.41197 0.65927,-1.58248 0.99124,-2.60113 0.52651,-1.6156 0.6,-2.35883 0.57558,-5.82083 -0.027,-3.83121 -0.0608,-4.0636 -0.97497,-6.70582 -0.52084,-1.50538 -1.15029,-2.88573 -1.39878,-3.06743 -0.44277,-0.32376 -1.64762,-2.16009 -2.78029,-4.23746 -0.31371,-0.57538 -0.82347,-1.24668 -1.1328,-1.49179 -0.30933,-0.24511 -0.94829,-0.81615 -1.41991,-1.26898 -0.48327,-0.46401 -1.14038,-0.82331 -1.50573,-0.82331 -0.35654,0 -0.71987,-0.11588 -0.8074,-0.2575 -0.20285,-0.32822 -1.62091,-0.96439 -2.65021,-1.18893 -0.43656,-0.0952 -0.98197,-0.41613 -1.212,-0.71311 -0.37268,-0.48112 -0.81955,-0.55832 -4.10104,-0.7085 -6.38908,-0.29241 -7.40931,-0.21582 -9.55527,0.71732 -2.09356,0.91035 -2.19732,0.93794 -2.19732,0.58424 0,-0.13396 0.34896,-0.3202 0.77547,-0.41388 0.42651,-0.0937 0.91734,-0.34126 1.09073,-0.55019 0.1734,-0.20893 0.60425,-0.37987 0.95746,-0.37987 0.35321,0 1.02018,-0.19546 1.48215,-0.43435 0.55414,-0.28655 1.60753,-0.45147 3.09572,-0.48466 1.24067,-0.0277 2.79155,-0.18552 3.44639,-0.35078 0.77584,-0.19579 2.71152,-0.25152 5.55625,-0.15996 6.54849,0.21076 7.32497,0.28302 7.98137,0.74279 0.33167,0.23231 0.85708,0.42238 1.16758,0.42238 0.31049,0 1.08768,0.39323 1.72707,0.87385 0.63938,0.48062 1.72807,1.20001 2.41929,1.59865 0.69123,0.39864 1.25677,0.8212 1.25677,0.939 0,0.28334 2.20464,3.72165 2.80973,4.382 0.58574,0.63924 2.47849,5.56523 2.49132,6.4838 0.005,0.36941 0.17953,0.96931 0.38749,1.33312 0.2339,0.40915 0.38715,1.46883 0.40177,2.77812 0.013,1.16417 0.13948,3.06917 0.28107,4.23333 0.46018,3.78381 0.23768,6.1275 -0.79847,8.41059 -0.27817,0.61293 -0.58697,1.53113 -0.68623,2.04045 -0.39497,2.02672 -1.48633,3.70095 -4.51044,6.9194 -1.74426,1.85635 -5.04806,3.3694 -8.00534,3.66623 -2.29905,0.23077 -11.46994,0.29503 -12.21465,0.0856 z m -3.57187,-7.49622 c -0.36871,-0.7276 -0.72171,-1.32291 -0.78445,-1.32291 -0.21669,0 0.46376,1.72124 0.86292,2.18281 0.65119,0.753 0.63194,0.54203 -0.0785,-0.8599 z m 25.13195,-23.21718 c -0.23664,-0.40018 -0.78628,-1.14433 -1.22143,-1.65365 l -0.79117,-0.92604 0.71098,1.19063 c 0.70762,1.18499 1.42316,2.11666 1.62563,2.11666 0.0584,0 -0.0874,-0.32742 -0.32401,-0.7276 z m -44.18831,29.88371 -0.19221,-0.97798 -0.33444,0.92604 c -0.28913,0.80057 -0.27609,0.97209 0.0962,1.26593 0.5546,0.43769 0.68356,0.074 0.43042,-1.21399 z m -4.46482,-0.70108 c -0.093,-0.37058 -0.27556,-0.67378 -0.40567,-0.67378 -0.13011,0 -0.10345,0.35265 0.0592,0.78365 0.35042,0.92836 0.5881,0.85298 0.34644,-0.10987 z m 60.43059,-0.14465 c 1.30444,-1.20425 1.34309,-1.63397 0.0564,-0.62698 -0.73561,0.5757 -1.5918,1.68535 -1.30039,1.68535 0.0537,0 0.61346,-0.47626 1.24399,-1.05837 z m -65.34913,-3.23529 c -0.29361,-0.95059 -0.71954,-1.88248 -0.94651,-2.07084 -0.36312,-0.30137 -0.38943,-0.24957 -0.21915,0.43132 0.27197,1.08748 1.42413,3.64325 1.57458,3.4928 0.0687,-0.0687 -0.11531,-0.90268 -0.40892,-1.85328 z m 3.80863,1.05252 c -0.34592,-2.45868 -0.40003,-2.62126 -0.7702,-2.31404 -0.26845,0.22279 -0.29975,0.47651 -0.11666,0.94547 0.13763,0.35253 0.36636,0.93862 0.50827,1.30242 0.32065,0.82196 0.48906,0.85139 0.37859,0.0661 z m 74.15827,-16.80105 c -0.0666,-0.25466 -0.12101,-0.0463 -0.12101,0.46303 0,0.50932 0.0545,0.71768 0.12101,0.46302 0.0665,-0.25467 0.0665,-0.67138 0,-0.92605 z m -70.00578,-1.40556 c -0.24449,-0.61201 -0.25851,-0.61565 -0.27442,-0.0713 -0.009,0.31552 0.069,0.79177 0.17385,1.05833 0.15682,0.39872 0.20548,0.41136 0.27442,0.0713 0.0461,-0.22736 -0.0321,-0.70361 -0.17385,-1.05834 z m -8.27365,-11.3272 c 0.19731,-0.12508 0.31355,-0.54948 0.26458,-0.96601 l -0.0873,-0.74291 -0.45874,0.97006 c -0.45771,0.96788 -0.38419,1.16086 0.28149,0.73886 z m 73.18615,-2.1761 c -0.0558,-0.0903 -0.52904,-0.0321 -1.05162,0.12937 -0.63806,0.19714 -0.79256,0.32372 -0.47038,0.38538 0.26387,0.0505 0.58873,0.19519 0.72191,0.32153 0.24918,0.23636 0.98662,-0.53446 0.80009,-0.83628 z m -69.43703,-5.37627 c 0,-0.0609 0.0723,-0.29898 0.1606,-0.52916 0.11995,-0.31259 -0.006,-0.41852 -0.49831,-0.41852 -0.43639,0 -0.70563,0.1787 -0.79728,0.52917 -0.11007,0.4209 -0.008,0.52917 0.49831,0.52917 0.35017,0 0.63668,-0.0498 0.63668,-0.11066 z m 22.235,-8.10218 c -0.80182,-0.68536 -1.5975,-1.01693 -1.5975,-0.6657 0,0.13475 2.18139,1.46941 2.38125,1.45695 0.0728,-0.005 -0.27993,-0.3606 -0.78375,-0.79125 z m -17.97652,-0.71685 c 0.41559,-0.51765 1.03319,-1.5781 1.03319,-1.77404 0,-0.42826 -0.80103,0.30672 -1.29801,1.19098 -0.59398,1.05684 -0.42112,1.43743 0.26482,0.58306 z m 64.9286,-0.33235 c -0.2642,-0.29194 -0.55036,-0.4608 -0.63591,-0.37525 -0.0856,0.0856 0.0754,0.32441 0.35763,0.53079 0.72493,0.53008 0.84037,0.46556 0.27828,-0.15554 z m -59.66208,-6.05616 c 0,-0.28771 -0.12234,-0.26351 -0.52916,0.10465 -0.29105,0.26339 -0.52917,0.58051 -0.52917,0.70471 0,0.1242 0.23812,0.0771 0.52917,-0.10465 0.29104,-0.18176 0.52916,-0.49888 0.52916,-0.70471 z m 16.73993,0.0634 c -0.17913,-0.0725 -0.53631,-0.0769 -0.79375,-0.01 -0.25743,0.0671 -0.11086,0.12639 0.3257,0.13178 0.43656,0.005 0.64719,-0.0495 0.46805,-0.12197 z"
       id="path1177" />
  </g>
</svg>
