<?xml version="1.0" encoding="UTF-8" standalone="no"?>
<!-- Created with Inkscape (http://www.inkscape.org/) -->

<svg
   width="248.24742"
   height="260.97031"
   viewBox="0 0 65.682129 69.048393"
   version="1.1"
   id="svg5"
   inkscape:version="1.1.2 (0a00cf5339, 2022-02-04, custom)"
   sodipodi:docname="xbox.svg"
   xmlns:inkscape="http://www.inkscape.org/namespaces/inkscape"
   xmlns:sodipodi="http://sodipodi.sourceforge.net/DTD/sodipodi-0.dtd"
   xmlns="http://www.w3.org/2000/svg"
   xmlns:svg="http://www.w3.org/2000/svg">
  <sodipodi:namedview
     id="namedview7"
     pagecolor="#ffffff"
     bordercolor="#666666"
     borderopacity="1.0"
     inkscape:pageshadow="2"
     inkscape:pageopacity="0.0"
     inkscape:pagecheckerboard="0"
     inkscape:document-units="mm"
     showgrid="false"
     fit-margin-top="0"
     fit-margin-left="0"
     fit-margin-right="0"
     fit-margin-bottom="0"
     units="px"
     inkscape:zoom="0.71090067"
     inkscape:cx="149.10662"
     inkscape:cy="228.58327"
     inkscape:window-width="1920"
     inkscape:window-height="991"
     inkscape:window-x="-9"
     inkscape:window-y="-9"
     inkscape:window-maximized="1"
     inkscape:current-layer="layer1" />
  <defs
     id="defs2" />
  <g
     inkscape:label="Capa 1"
     inkscape:groupmode="layer"
     id="layer1"
     transform="translate(-65.519379,-88.196332)">
    <path
       style="fill:#414141;fill-opacity:1;stroke-width:0.264583"
       d="m 87.787217,156.75136 c -4.64464,-0.97947 -7.23443,-2.23339 -9.87064,-4.77915 -1.01883,-0.98387 -2.26914,-1.96101 -2.77846,-2.17142 -1.27599,-0.52712 -3.80139,-2.89311 -5.04898,-4.73027 -1.50947,-2.2228 -2.60286,-5.71064 -2.78689,-8.89003 -0.0824,-1.42291 -0.44831,-3.83726 -0.81322,-5.36523 -1.18644,-4.96788 -1.30256,-12.9667 -0.24631,-16.96619 0.97181,-3.67976 2.68668,-6.84563 4.53205,-8.36674 0.55348,-0.45622 1.43423,-1.56538 1.95723,-2.4648 0.75506,-1.29851 1.25062,-1.80579 2.40612,-2.46306 1.82295,-1.036938 3.75956,-2.400062 5.14737,-3.62309 3.72301,-3.280962 6.1179,-4.774456 9.40471,-5.86493 1.09141,-0.362098 2.98471,-0.992158 4.20734,-1.400132 8.085473,-2.698015 13.189073,-1.749362 18.314093,3.404208 1.0256,1.031306 1.97678,1.761397 2.29481,1.761397 1.16359,0 2.78101,2.055127 4.89344,6.217707 0.36924,0.72761 1.52136,2.21589 2.56026,3.30729 1.0389,1.09141 2.53561,2.93688 3.32603,4.10105 0.79042,1.16416 2.17151,3.12869 3.0691,4.36562 2.11271,2.91145 2.66759,4.19519 2.81809,6.51971 0.15041,2.32331 -0.25524,4.27035 -2.36255,11.33967 -1.74472,5.85295 -2.20089,6.96305 -3.48737,8.48666 -0.48221,0.57109 -1.30741,1.69318 -1.83377,2.49355 -1.25813,1.91304 -6.22913,6.76465 -8.38174,8.18043 -2.6665,1.75376 -5.24658,3.07361 -7.69065,3.93416 -9.612703,3.38464 -14.308073,4.0959 -19.630063,2.97359 z m 28.975903,-13.30197 c 0.68694,-0.92048 1.32245,-2.0508 1.15304,-2.0508 -0.0567,0 -0.85649,0.84771 -1.77731,1.88381 -1.42628,1.60482 -1.55156,1.82037 -0.84595,1.45549 0.45556,-0.23558 1.11715,-0.8154 1.47022,-1.2885 z m -23.391283,-2.86215 c 1.65837,-0.38225 3.98877,-0.38705 4.90699,-0.0101 0.91916,0.37735 1.794403,0.20635 2.872273,-0.56116 0.46024,-0.32772 1.3306,-0.59835 2.1328,-0.66318 1.90062,-0.15361 2.74694,-0.52571 4.26568,-1.87551 0.7276,-0.64667 1.57772,-1.29223 1.88916,-1.43458 0.31143,-0.14236 0.72401,-0.55363 0.91684,-0.91394 0.19283,-0.3603 0.79908,-1.0103 1.34722,-1.44443 0.71935,-0.56974 1.10627,-1.15858 1.39077,-2.11659 0.21678,-0.72999 0.66036,-1.75799 0.98573,-2.28446 0.32537,-0.52645 0.68003,-1.61753 0.78814,-2.4246 0.10811,-0.80707 0.32877,-2.30084 0.49035,-3.31949 0.34542,-2.17759 0.10144,-6.82008 -0.41099,-7.82035 -0.19064,-0.37214 -0.6038,-1.74136 -0.91813,-3.04271 -1.00327,-4.1536 -4.32306,-9.1429 -6.97207,-10.47832 l -1.09452,-0.55177 0.59531,0.64488 c 0.6548,0.70931 0.77983,1.83303 0.26458,2.37795 -1.68675,1.7839 -2.0492,2.37891 -1.87196,3.07309 0.10054,0.39378 0.1705,0.89457 0.15546,1.11285 -0.0281,0.4081 -1.61901,3.17401 -2.26472,3.93744 -0.19919,0.2355 -0.75352,1.07827 -1.23185,1.87281 -0.61105,1.01501 -0.76949,1.47803 -0.53276,1.55694 0.42252,0.14084 2.80684,2.68916 3.57651,3.82251 0.31705,0.46687 1.57976,2.81337 2.80603,5.21447 2.65366,5.196 3.54157,8.20149 2.77059,9.37817 -0.24361,0.3718 -0.62297,0.676 -0.84302,0.676 -0.22005,0 -0.69355,0.19228 -1.05223,0.4273 -0.5928,0.38842 -0.70956,0.38969 -1.28298,0.014 -0.34696,-0.22733 -0.91661,-0.98517 -1.26589,-1.68407 -0.34928,-0.69891 -0.95837,-1.59275 -1.35354,-1.98632 -0.39517,-0.39357 -0.71849,-0.87497 -0.71849,-1.06977 0,-0.1948 -0.37611,-0.4681 -0.83579,-0.60733 -0.66263,-0.20071 -0.90152,-0.47243 -1.15302,-1.31149 -0.4744,-1.58271 -1.69499,-4.10105 -1.987703,-4.10105 -0.14125,0 -0.25764,0.0893 -0.25863,0.19844 -0.004,0.41235 -1.78259,1.38902 -2.52811,1.38807 l -0.77738,-0.001 0.79375,-0.49297 c 0.43656,-0.27114 1.08652,-0.81087 1.44435,-1.1994 l 0.6506,-0.70641 -0.6506,-1.19359 c -0.35783,-0.65645 -0.97571,-1.50555 -1.37307,-1.88688 l -0.72248,-0.69333 -0.42301,1.03678 c -0.23267,0.57023 -1.02561,2.25909 -1.76209,3.75304 -1.03052,2.09037 -1.48609,2.75317 -1.97707,2.8764 -0.4851,0.12175 -0.94291,0.77065 -1.9103,2.70769 -0.69976,1.40116 -1.41819,2.99707 -1.59652,3.54647 -0.40532,1.24869 -1.49712,2.57297 -2.1213,2.57297 -0.30355,0 -0.52509,0.26024 -0.61941,0.7276 -0.0808,0.40018 -0.21796,0.91127 -0.3049,1.13575 -0.18102,0.46739 1.63373,1.23981 4.08976,1.74074 1.92235,0.39209 2.30156,0.40058 3.68164,0.0825 z m 15.046413,-28.86697 c -0.24208,-0.48458 -0.81443,-1.51938 -1.27189,-2.29955 -0.45745,-0.78018 -0.67639,-1.36672 -0.48652,-1.30343 0.31476,0.10492 1.34255,1.77137 2.07063,3.35732 0.46051,1.00313 0.17745,1.22586 -0.31222,0.24566 z m -25.454373,17.94167 c 0.35026,-1.18469 0.88216,-2.59809 1.18201,-3.1409 0.29985,-0.54281 0.83887,-1.8525 1.19782,-2.91042 0.71967,-2.12099 2.10863,-4.56252 3.46536,-6.09144 0.48462,-0.54612 0.88113,-1.11812 0.88113,-1.27112 0,-0.15299 -0.34466,-0.64696 -0.76592,-1.0977 -0.42126,-0.45075 -1.04634,-1.2868 -1.38906,-1.8579 -0.34273,-0.57111 -1.06963,-1.65117 -1.61533,-2.40015 -0.54571,-0.74897 -0.99219,-1.50311 -0.99219,-1.67586 0,-0.17276 -0.34764,-1.04918 -0.77253,-1.94761 -0.74563,-1.57664 -0.78398,-1.61201 -1.10154,-1.01594 -0.18096,0.33966 -0.55394,1.01926 -0.82884,1.51021 -0.6027,1.07635 -1.79341,5.40493 -1.79434,6.52296 -2.6e-4,0.44057 -0.17262,1.04653 -0.38279,1.34659 -0.21018,0.30006 -0.46696,1.18499 -0.57063,1.96652 -0.10411,0.78482 -0.40536,1.65373 -0.67291,1.94091 -0.68383,0.73401 -0.82472,1.81162 -0.66648,5.09756 0.11839,2.45854 0.26787,3.19401 1.04194,5.12665 0.49704,1.24099 1.19003,2.69947 1.53998,3.24107 l 0.63627,0.98473 0.4856,-1.0871 c 0.26709,-0.5979 0.77219,-2.05638 1.12245,-3.24106 z m 5.43042,-1.9657 c 0.66971,-1.34048 1.11012,-2.43723 0.97869,-2.43723 -0.13143,0 -0.41521,0.44648 -0.63064,0.99218 -0.56446,1.42987 -1.17999,2.51029 -1.73933,3.05302 -0.55765,0.54109 -0.64783,1.07357 -0.15709,0.92762 0.1819,-0.0541 0.87867,-1.19512 1.54837,-2.53559 z m 39.331213,-3.95859 c 0.30392,-1.25178 0.14948,-1.40705 -0.50385,-0.50657 -0.27083,0.37328 -0.3832,0.87877 -0.29634,1.33313 0.17441,0.91239 0.44615,0.6317 0.80019,-0.82656 z M 69.959367,112.55901 c 0.12297,-0.45971 0.10214,-0.54041 -0.0683,-0.26459 -0.13487,0.21829 -0.32483,0.69454 -0.42214,1.05834 -0.12297,0.45971 -0.10214,0.54041 0.0683,0.26458 0.13487,-0.21828 0.32483,-0.69453 0.42214,-1.05833 z m 26.14589,-5.60164 c 0.69062,-1.06644 1.45912,-2.22169 1.70777,-2.56721 l 0.45208,-0.62822 -0.91402,0.15559 -0.91401,0.15558 0.92604,-0.2925 c 1.79353,-0.5665 5.291663,-2.40255 5.291663,-2.77741 0,-0.62457 -1.84472,-1.204702 -4.281613,-1.346483 l -2.29724,-0.133655 -1.93609,1.261158 c -1.06485,0.69364 -2.17422,1.47211 -2.46526,1.72994 -0.29105,0.25783 -1.15267,0.56957 -1.91472,0.69275 l -1.38555,0.22397 2.97305,3.08396 c 2.28091,2.366 3.03465,3.0022 3.23763,2.73274 0.14552,-0.19317 0.82964,-1.22376 1.52027,-2.29021 z"
       id="path836" />
  </g>
</svg>
